<svg width="60" height="60" viewBox="0 0 60 60" fill="none" xmlns="http://www.w3.org/2000/svg">
<g id="carbon:close-filled" clip-path="url(#clip0_6884_11513)">
<rect width="60" height="60" fill="url(#paint0_radial_6884_11513)"/>
<path id="Vector" d="M30 0C13.2857 0 0 13.2857 0 30C0 46.7143 13.2857 60 30 60C46.7143 60 60 46.7143 60 30C60 13.2857 46.7143 0 30 0ZM41.5714 45L30 33.4286L18.4286 45L15 41.5714L26.5714 30L15 18.4286L18.4286 15L30 26.5714L41.5714 15L45 18.4286L33.4286 30L45 41.5714L41.5714 45Z" fill="#002882"/>
</g>
<defs>
<radialGradient id="paint0_radial_6884_11513" cx="0" cy="0" r="1" gradientUnits="userSpaceOnUse" gradientTransform="translate(30 30) rotate(90) scale(30)">
<stop offset="0.80208" stop-color="white"/>
<stop offset="1" stop-color="white" stop-opacity="0"/>
</radialGradient>
<clipPath id="clip0_6884_11513">
<rect width="60" height="60" fill="white"/>
</clipPath>
</defs>
</svg>
