<svg width="419" height="412" viewBox="0 0 419 412" fill="none" xmlns="http://www.w3.org/2000/svg">
<path d="M128.583 40.1658C128.557 42.1508 127.851 44.3538 126.734 46.3028C125.617 48.2518 124.089 49.9478 122.42 50.9208L78.6681 76.4048C75.3301 78.3488 72.6411 76.6918 72.6921 72.7208C72.7031 71.8788 72.8381 70.9938 73.0731 70.1108C73.3921 68.9098 73.9001 67.7038 74.5421 66.5838C75.3711 65.1368 76.4281 63.8288 77.6001 62.8528C78.0801 51.2118 86.1081 37.4428 95.8141 31.7888C102.164 28.0898 107.695 28.7608 110.809 32.8218C111.706 31.9648 112.659 31.2308 113.648 30.6548C113.954 30.4768 114.255 30.3198 114.55 30.1798C119.287 27.9578 122.935 30.5498 122.86 36.3338C122.86 36.3368 122.86 36.3368 122.86 36.3398C126.081 34.6228 128.634 36.2968 128.583 40.1658Z" fill="#E5E5E5"/>
<path d="M169.911 7.22438C169.894 8.55238 169.421 10.0244 168.674 11.3284C167.927 12.6314 166.905 13.7664 165.789 14.4164L136.532 31.4574C134.3 32.7574 132.502 31.6494 132.536 28.9944C132.543 28.4314 132.633 27.8394 132.79 27.2494C133.004 26.4464 133.343 25.6394 133.772 24.8904C134.327 23.9224 135.033 23.0484 135.817 22.3954C136.138 14.6104 141.506 5.40338 147.997 1.62338C152.243 -0.849624 155.942 -0.400622 158.024 2.31438C158.624 1.74138 159.261 1.25038 159.922 0.865377C160.127 0.746377 160.328 0.641376 160.525 0.547376C163.693 -0.938624 166.132 0.794377 166.082 4.66238C166.082 4.66438 166.082 4.66438 166.082 4.66638C168.237 3.51737 169.945 4.63738 169.911 7.22438Z" fill="#E5E5E5"/>
<path d="M332.669 47.2136C332.695 49.1986 333.401 51.4016 334.518 53.3506C335.635 55.2996 337.163 56.9956 338.832 57.9686L382.584 83.4526C385.922 85.3976 388.611 83.7396 388.559 79.7686C388.548 78.9266 388.413 78.0416 388.179 77.1586C387.86 75.9576 387.352 74.7516 386.71 73.6316C385.88 72.1846 384.824 70.8766 383.652 69.9016C383.171 58.2596 375.144 44.4916 365.437 38.8376C359.087 35.1386 353.556 35.8096 350.442 39.8706C349.545 39.0136 348.592 38.2796 347.603 37.7036C347.297 37.5256 346.996 37.3686 346.701 37.2286C341.964 35.0066 338.316 37.5976 338.391 43.3826C338.391 43.3856 338.391 43.3856 338.391 43.3886C335.172 41.6716 332.619 43.3456 332.669 47.2136Z" fill="#E5E5E5"/>
<path d="M295.461 10.3247C295.478 11.6527 295.951 13.1247 296.698 14.4287C297.445 15.7327 298.467 16.8667 299.583 17.5167L328.839 34.5577C331.071 35.8577 332.869 34.7497 332.835 32.0947C332.828 31.5317 332.738 30.9397 332.581 30.3497C332.367 29.5467 332.028 28.7397 331.599 27.9907C331.044 27.0227 330.338 26.1487 329.554 25.4957C329.233 17.7107 323.865 8.50373 317.374 4.72373C313.128 2.24973 309.429 2.69873 307.347 5.41473C306.747 4.84173 306.11 4.35072 305.449 3.96572C305.244 3.84672 305.043 3.74173 304.846 3.64773C301.678 2.16173 299.239 3.89473 299.289 7.76273C299.289 7.76473 299.289 7.76473 299.289 7.76673C297.135 6.61873 295.428 7.73873 295.461 10.3247Z" fill="#E5E5E5"/>
<path d="M378.008 156.754C378.576 156.769 379.2 156.68 379.832 156.398L379.834 156.397L380.633 155.932L380.637 155.93L380.967 155.738L417.922 134.261C418.588 133.873 418.998 133.162 418.998 132.391V128.299C418.986 127.882 418.773 127.472 418.361 127.234L414.484 124.996L378.257 145.917L378.117 151.989L378.008 156.754Z" fill="#252B3D"/>
<path d="M294.426 103.644V107.567C294.426 108.576 294.963 109.508 295.837 110.013L375.533 156.031L375.713 156.134C375.718 156.136 375.724 156.139 375.729 156.143C376.101 156.339 376.959 156.726 378.008 156.755L378.117 151.99L378.257 145.918L299.014 100.486H299.013L295.048 102.759C294.693 102.96 294.486 103.291 294.426 103.644Z" fill="#3A4059"/>
<path d="M403.884 126.242L368.671 146.701L300.203 107.165L335.651 86.8467L403.884 126.242Z" fill="white"/>
<path d="M403.884 126.242L368.671 146.701L300.203 107.165L335.651 86.8467L403.884 126.242Z" fill="white"/>
<path d="M405.441 138.896V139.943C405.441 140.026 405.397 140.103 405.324 140.145L395.263 145.953C395.108 146.043 394.914 145.93 394.914 145.751V144.704C394.914 144.621 394.958 144.544 395.031 144.502L405.092 138.694C405.247 138.603 405.441 138.716 405.441 138.896Z" fill="#6B749B"/>
<path d="M405.441 138.896V139.49C405.441 139.573 405.397 139.65 405.324 139.692L395.263 145.5C395.108 145.59 394.914 145.477 394.914 145.298V144.704C394.914 144.621 394.958 144.544 395.031 144.502L405.092 138.694C405.247 138.603 405.441 138.716 405.441 138.896Z" fill="#51557C"/>
<path d="M391.734 147.376C391.704 147.992 391.422 148.479 391.106 148.463C391.068 148.461 391.032 148.452 390.997 148.437C390.739 148.324 390.562 147.862 390.589 147.32C390.615 146.797 390.822 146.367 391.077 146.259C391.122 146.239 391.169 146.23 391.217 146.233C391.532 146.248 391.764 146.76 391.734 147.376Z" fill="#6B749B"/>
<path d="M391.485 147.376C391.459 147.899 391.252 148.329 390.997 148.437C390.739 148.324 390.562 147.862 390.589 147.32C390.615 146.797 390.822 146.367 391.077 146.259C391.335 146.372 391.512 146.834 391.485 147.376Z" fill="#51557C"/>
<path d="M294.426 104.086C294.486 104.438 294.691 104.767 295.044 104.971L375.165 151.233C376.078 151.761 377.1 152.014 378.117 151.991C379.061 151.973 380.002 151.717 380.847 151.226L418.364 129.443C418.774 129.204 418.985 128.796 418.998 128.381V128.3C418.986 127.884 418.773 127.473 418.36 127.235L414.483 124.997L399.451 116.317L359.229 93.0916L336.298 79.8506C335.905 79.6236 335.42 79.6226 335.027 79.8486L299.013 100.485L295.047 102.758C294.693 102.961 294.485 103.292 294.426 103.644C294.4 103.791 294.4 103.94 294.426 104.086Z" fill="#51557C"/>
<path d="M398.562 135.818C398.658 137.702 396.423 138.662 393.785 138.662C391.147 138.662 388.892 137.818 389.008 135.766C389.085 134.414 391.147 133.757 393.785 133.757C396.423 133.757 398.493 134.466 398.562 135.818Z" fill="#3A4059"/>
<path d="M398.562 135.766C398.562 137.12 396.423 138.218 393.785 138.218C391.147 138.218 389.008 137.12 389.008 135.765C389.008 134.411 391.147 133.313 393.785 133.313C396.423 133.313 398.562 134.411 398.562 135.766Z" fill="#6B749B"/>
<path opacity="0.3" d="M397.529 135.606C397.529 136.667 395.853 137.528 393.786 137.527C391.719 137.527 390.043 136.667 390.043 135.605C390.043 134.544 391.719 133.683 393.786 133.684C395.853 133.685 397.529 134.545 397.529 135.606Z" fill="#6B749B"/>
<path d="M302.963 104.528L304.861 105.624L311.163 109.264L325.289 117.424L340.629 126.278L346.785 129.834L357.992 136.309L367.768 141.95C368.727 142.503 369.907 142.502 370.864 141.947L372.119 141.22L384.787 133.85L390.945 130.284L402.882 123.343C403.616 122.917 403.614 121.856 402.879 121.432L390.945 114.544L384.787 110.988L372.12 103.676L357.994 95.5178L346.787 89.0418L340.631 85.4868L340.175 85.2228L337.842 83.8798C336.886 83.3288 335.71 83.3278 334.753 83.8768L325.29 89.2998L311.163 97.3988L302.966 102.095C302.029 102.633 302.026 103.986 302.963 104.528Z" fill="white"/>
<path d="M302.963 104.528L304.861 105.624L340.175 85.2218L337.842 83.8788C336.886 83.3278 335.71 83.3268 334.753 83.8758L325.29 89.2988L311.163 97.3978L302.966 102.094C302.029 102.633 302.026 103.986 302.963 104.528Z" fill="#51557C"/>
<path d="M315.961 97.0331C316.081 97.0141 316.195 96.9771 316.292 96.9221L329.235 89.5151C329.525 89.3491 329.542 89.0811 329.273 88.9161C329.004 88.7511 328.551 88.7521 328.261 88.9181L315.319 96.3251C315.029 96.4911 315.012 96.7591 315.281 96.9241C315.459 97.0341 315.721 97.0711 315.961 97.0331Z" fill="#6B749B"/>
<path d="M147.466 201.439C151.081 189.621 132.894 173.581 106.844 165.613C80.7941 157.645 56.7461 160.767 53.1312 172.585C49.5164 184.404 67.7036 200.444 93.7535 208.411C119.803 216.379 143.852 213.258 147.466 201.439Z" fill="#E5E5E5"/>
<path d="M141.344 152.201V190.714C139.978 191.656 138.612 191.656 137.246 190.714V152.201H141.344Z" fill="#33539B"/>
<path d="M66.6253 146.891V188.319C65.2593 189.261 63.8933 189.261 62.5273 188.319V146.891H66.6253Z" fill="#33539B"/>
<path d="M93.3789 184.264C94.7449 185.206 96.1109 185.206 97.4769 184.264V130.182H93.3789V184.264Z" fill="#33539B"/>
<path d="M105.559 208.335C106.925 209.277 108.291 209.277 109.657 208.335V154.253H105.559V208.335Z" fill="#33539B"/>
<path d="M116.494 139.659L96.6313 128.191C96.2213 127.956 95.7183 127.956 95.3083 128.194L75.5493 139.659H62.5273V147.44H62.6413C62.3833 148.022 62.5683 148.763 63.1923 149.119L104.632 172.714C106.609 173.842 109.034 173.844 111.014 172.722L140.673 155.914C141.191 155.621 141.409 155.062 141.325 154.548H141.34V146.765H128.8L123.138 143.495L116.494 139.659Z" fill="url(#paint0_linear_4479_12334)"/>
<path d="M140.674 147.915L111.015 164.722C109.035 165.844 106.61 165.842 104.632 164.715L63.1934 141.12C62.3094 140.617 62.3044 139.344 63.1844 138.834L95.3103 120.193C95.7183 119.956 96.2223 119.956 96.6313 120.192L140.684 145.626C141.567 146.136 141.561 147.412 140.674 147.915Z" fill="url(#paint1_linear_4479_12334)"/>
<path d="M76.6089 217.457C78.7345 210.508 68.04 201.076 52.7221 196.391C37.4041 191.705 23.2634 193.541 21.1378 200.49C19.0122 207.44 29.7067 216.871 45.0246 221.557C60.3426 226.242 74.4833 224.406 76.6089 217.457Z" fill="#E5E5E5"/>
<path d="M91.9123 92.998C91.9003 93.094 91.8863 93.19 91.8673 93.289C91.8443 93.451 91.8133 93.617 91.7783 93.784C89.9843 102.618 77.0723 117.361 77.0723 117.361L70.4453 113.49C76.7363 105.045 83.6993 87.541 83.6993 87.541L88.0643 90.44L91.9123 92.998Z" fill="url(#paint2_linear_4479_12334)"/>
<path d="M97.0242 82.452C96.2152 86.498 94.1862 90.102 92.1922 92.853C92.0822 93.001 91.9762 93.146 91.8682 93.289C91.7812 93.404 91.6972 93.516 91.6122 93.627C91.0302 94.385 90.4632 95.067 89.9392 95.661C89.0292 94.523 88.0272 93.468 87.0962 92.347C86.3502 91.449 85.7572 90.435 85.1022 89.473C84.6682 88.833 84.2082 88.164 83.6992 87.543C87.9402 78.24 91.5952 58.749 91.5952 58.749C91.5952 58.749 98.8382 73.392 97.0242 82.452Z" fill="url(#paint3_linear_4479_12334)"/>
<path d="M92.1926 92.8527C92.0826 93.0007 91.9766 93.1457 91.8686 93.2887C91.8456 93.4507 91.8146 93.6167 91.7796 93.7837C91.7256 93.7317 91.6716 93.6807 91.6126 93.6267C90.7756 92.8547 89.5366 91.9167 88.0116 91.3607C87.8286 91.2927 87.7116 91.1287 87.6976 90.9477C87.6906 90.8797 87.6996 90.8117 87.7236 90.7457C87.7796 90.5887 87.9116 90.4787 88.0656 90.4407C88.1526 90.4217 88.2486 90.4267 88.3396 90.4597C89.9686 91.0557 91.2876 92.0287 92.1926 92.8527Z" fill="#33539B"/>
<path d="M57.6689 198.903C58.6329 199.22 59.3259 200.09 59.4769 201.111C59.6089 202.005 59.7139 203.282 59.6629 204.977C59.5469 208.757 59.4979 210.349 59.4979 210.349C59.4979 210.349 58.3589 212.293 55.0789 212.835L53.8219 213.038C53.8219 213.038 46.6909 217.432 43.2249 217.775C38.7019 218.223 34.0789 216.143 37.8199 211.742C41.3529 207.586 46.5489 205.921 48.0839 202.592C48.2629 202.204 49.4219 201.376 49.7169 201.071C52.2219 198.478 54.1499 197.744 57.6689 198.903Z" fill="url(#paint4_linear_4479_12334)"/>
<path d="M49.9203 206.977C49.7563 206.977 49.6013 206.881 49.5323 206.721C49.5273 206.709 48.9543 205.412 47.8883 205.057C46.8673 204.716 45.7713 205.605 45.7603 205.614C45.5803 205.762 45.3153 205.737 45.1673 205.558C45.0193 205.379 45.0433 205.114 45.2213 204.965C45.2803 204.916 46.6843 203.766 48.1553 204.256C49.5833 204.732 50.2783 206.32 50.3073 206.388C50.3993 206.602 50.3003 206.85 50.0863 206.942C50.0323 206.965 49.9753 206.977 49.9203 206.977Z" fill="white"/>
<path d="M48.4437 208.031C48.2797 208.031 48.1247 207.935 48.0557 207.775C48.0507 207.763 47.4777 206.466 46.4117 206.111C45.3907 205.77 44.2947 206.659 44.2837 206.668C44.1037 206.816 43.8387 206.791 43.6907 206.612C43.5427 206.433 43.5667 206.168 43.7447 206.019C43.8037 205.97 45.2077 204.82 46.6787 205.31C48.1067 205.786 48.8017 207.374 48.8307 207.442C48.9227 207.656 48.8237 207.904 48.6097 207.996C48.5557 208.02 48.4987 208.031 48.4437 208.031Z" fill="white"/>
<path d="M46.7601 208.974C46.5961 208.974 46.4411 208.878 46.3721 208.718C46.3671 208.706 45.7942 207.409 44.7282 207.054C43.7072 206.713 42.6112 207.602 42.6002 207.611C42.4202 207.759 42.1552 207.734 42.0072 207.555C41.8592 207.376 41.8832 207.111 42.0612 206.962C42.1202 206.913 43.5242 205.763 44.9952 206.253C46.4232 206.729 47.1182 208.317 47.1472 208.385C47.2392 208.599 47.1402 208.847 46.9262 208.939C46.8722 208.963 46.8151 208.974 46.7601 208.974Z" fill="white"/>
<path d="M59.006 191.656L57.047 200.81C57.047 200.81 54.042 203.157 50.707 201.595L52.319 191.708C52.319 191.708 56.705 190.335 59.006 191.656Z" fill="#FCB38F"/>
<path d="M88.3553 120.88C88.3553 120.88 56.0143 134.464 54.3783 141.206C52.7423 147.948 49.9023 194.838 49.9023 194.838C49.9023 194.838 54.2673 197.3 59.0933 196.342C59.0933 196.342 62.0113 180.639 63.3743 176.425C64.7373 172.211 67.8273 156.986 68.3273 151.377C68.3273 151.377 94.8033 141.022 98.4783 134.754C106.553 120.983 88.3553 120.88 88.3553 120.88Z" fill="#252B3D"/>
<path d="M123.109 119.592C123.109 119.592 125.85 131.193 123.428 141.561C121.467 149.953 88.0803 142.013 87.3763 134.242C86.6723 126.471 90.6603 115.622 90.6603 115.622L123.109 119.592Z" fill="#252B3D"/>
<path d="M88.3516 120.88C100.732 125.092 114.212 130.763 124.427 123.993C122.609 113.86 120.365 97.7094 121.392 91.7444C123.106 81.7944 132.734 64.9734 124.637 61.3924C122.714 60.5414 119.702 59.7144 116.262 58.9584C111.686 57.9534 106.323 57.0674 101.609 56.3824C99.3846 56.0514 96.8486 56.1384 95.3726 56.3494C92.0326 56.8264 90.8496 58.3004 91.7876 61.6204C92.9346 65.6854 93.0956 70.0494 91.1546 74.4834C87.8896 81.9414 92.9436 85.9884 93.6846 92.6174C94.2726 97.9554 90.3176 112.67 88.3516 120.88Z" fill="url(#paint5_linear_4479_12334)"/>
<path d="M106.081 68.9593C105.203 68.9593 104.36 68.7083 103.578 68.2043C98.5823 64.9923 101.366 56.3553 101.487 55.9893L102.378 56.2833C102.351 56.3663 99.7003 64.5953 104.085 67.4143C105.365 68.2373 106.804 68.2233 108.362 67.3723C111.695 65.5523 114.4 60.5843 114.4 58.3053H115.338C115.338 61.0943 112.265 66.3103 108.812 68.1953C107.882 68.7053 106.963 68.9593 106.081 68.9593Z" fill="white"/>
<path d="M107.316 92.9987C98.7119 92.9987 94.1019 90.5347 93.8739 90.4097C93.6419 90.2827 93.5569 89.9907 93.6839 89.7587C93.8119 89.5267 94.1029 89.4417 94.3349 89.5687C94.3989 89.6037 100.905 93.0617 112.712 91.7267C112.975 91.6967 113.213 91.8867 113.243 92.1497C113.273 92.4127 113.083 92.6507 112.82 92.6807C110.834 92.9047 108.999 92.9987 107.316 92.9987Z" fill="url(#paint6_linear_4479_12334)"/>
<path d="M105.279 75.6037C105.233 75.6037 105.186 75.5967 105.139 75.5827C99.7597 73.9467 98.5437 70.2577 98.4947 70.1017C98.4157 69.8487 98.5557 69.5797 98.8087 69.4997C99.0597 69.4207 99.3297 69.5597 99.4097 69.8117C99.4547 69.9517 100.552 73.1837 105.418 74.6647C105.672 74.7417 105.815 75.0097 105.737 75.2637C105.675 75.4707 105.485 75.6037 105.279 75.6037Z" fill="url(#paint7_linear_4479_12334)"/>
<path d="M112.08 118.707C100.259 118.707 93.5731 112.202 93.2941 111.925C93.1061 111.739 93.1051 111.435 93.2911 111.247C93.4771 111.059 93.7811 111.058 93.9691 111.244C94.0351 111.309 100.672 117.747 112.079 117.747C112.342 117.741 112.562 117.96 112.562 118.227C112.562 118.492 112.347 118.707 112.082 118.707H112.08Z" fill="url(#paint8_linear_4479_12334)"/>
<path d="M110.712 116.493C110.708 116.493 110.704 116.493 110.7 116.493C106.293 116.386 100.742 112.827 100.508 112.676C100.285 112.532 100.222 112.235 100.366 112.013C100.51 111.791 100.807 111.727 101.029 111.871C101.084 111.907 106.588 115.434 110.724 115.535C110.989 115.542 111.198 115.761 111.192 116.026C111.185 116.286 110.972 116.493 110.712 116.493Z" fill="url(#paint9_linear_4479_12334)"/>
<path d="M123.812 134.797C123.812 134.797 69.0511 129.398 59.2841 131.111C49.5171 132.824 32.0391 171.982 32.0391 171.982C32.0391 171.982 36.3981 176.773 38.6281 176.602C40.8581 176.43 48.2041 164.351 51.5141 161.201C54.8241 158.051 64.0071 148.196 65.6581 144.52C65.6581 144.52 96.9571 160.01 115.091 152.07C125.613 147.465 123.812 134.797 123.812 134.797Z" fill="#252B3D"/>
<path d="M36.7025 178.297C37.4005 179.033 37.5985 180.127 37.2485 181.098C36.9415 181.948 36.4285 183.122 35.5805 184.59C33.6875 187.864 32.8905 189.243 32.8905 189.243C32.8905 189.243 30.9665 190.415 27.8205 189.339L26.6175 188.922C26.6175 188.922 18.2555 189.413 15.0405 188.073C10.8445 186.324 7.75947 182.302 13.1385 180.2C18.2195 178.214 23.5835 179.209 26.5125 177.005C26.8545 176.748 28.2665 176.568 28.6715 176.439C32.1075 175.342 34.1525 175.609 36.7025 178.297Z" fill="url(#paint10_linear_4479_12334)"/>
<path d="M26.0527 181.735C25.9087 181.658 25.8167 181.499 25.8327 181.326C25.8337 181.313 25.9437 179.899 25.1737 179.082C24.4357 178.298 23.0497 178.562 23.0357 178.565C22.8077 178.61 22.5857 178.462 22.5397 178.235C22.4937 178.007 22.6407 177.785 22.8687 177.739C22.9437 177.724 24.7257 177.376 25.7877 178.505C26.8197 179.601 26.6797 181.329 26.6727 181.402C26.6517 181.634 26.4477 181.805 26.2157 181.785C26.1567 181.779 26.1017 181.762 26.0527 181.735Z" fill="white"/>
<path d="M24.2558 181.965C24.1118 181.887 24.0198 181.729 24.0358 181.556C24.0368 181.543 24.1468 180.13 23.3768 179.312C22.6398 178.528 21.2528 178.792 21.2388 178.795C21.0108 178.84 20.7888 178.692 20.7428 178.465C20.6968 178.237 20.8438 178.015 21.0718 177.969C21.1468 177.954 22.9278 177.606 23.9908 178.735C25.0228 179.831 24.8818 181.559 24.8758 181.632C24.8548 181.864 24.6508 182.035 24.4188 182.015C24.3588 182.008 24.3038 181.991 24.2558 181.965Z" fill="white"/>
<path d="M22.3261 181.998C22.1821 181.921 22.0901 181.762 22.1061 181.589C22.1071 181.576 22.2171 180.162 21.4471 179.345C20.7101 178.561 19.3231 178.825 19.3091 178.828C19.0811 178.873 18.8591 178.725 18.8131 178.497C18.7671 178.269 18.9141 178.047 19.1421 178.001C19.2171 177.986 20.9981 177.638 22.0611 178.767C23.0931 179.863 22.9531 181.591 22.9461 181.664C22.9251 181.896 22.7211 182.067 22.4891 182.047C22.4291 182.041 22.3741 182.024 22.3261 181.998Z" fill="white"/>
<path d="M37.2809 177.239L35.2519 179.68C35.2519 179.68 31.4939 180.323 29.2969 177.368L32.1199 174.002C32.1199 174.002 35.8809 174.986 37.2809 177.239Z" fill="#FCB38F"/>
<path d="M32.4464 169.215L30.1914 173.272C30.1914 173.272 33.7204 177.437 39.1924 178.946L41.3704 175.421C41.3704 175.421 35.5774 172.461 32.4464 169.215Z" fill="#51557C"/>
<path d="M112.592 50.214C112.592 50.214 118.926 47.883 120.19 41.387C121.454 34.89 121.083 25.348 112.215 22.542C103.348 19.736 95.1528 22.428 93.1758 30.611C93.1758 30.611 99.9788 46.907 112.592 50.214Z" fill="#252B3D"/>
<path d="M102.645 53.3181L103.127 57.8151L103.396 60.4451C108.524 62.6531 113.776 59.3451 113.719 58.8801C113.158 56.8851 112.732 53.4661 112.592 50.2151C112.502 50.1521 112.405 50.1001 112.301 50.0591C109.598 48.8821 102.645 53.3181 102.645 53.3181Z" fill="#FCB38F"/>
<path d="M102.645 53.3178L103.127 57.8148C108.25 56.0018 111.053 52.2268 112.301 50.0578C109.598 48.8818 102.645 53.3178 102.645 53.3178Z" fill="#FD8471"/>
<path d="M94.7215 39.0971C94.7215 39.0971 92.7235 36.7261 91.4585 38.8521C90.1935 40.9781 92.4885 46.9161 95.7865 45.2481L94.7215 39.0971Z" fill="#FD8471"/>
<path d="M93.7563 44.2744C93.7173 44.5094 93.4943 44.6684 93.2593 44.6294C93.0243 44.5904 92.8653 44.3674 92.9043 44.1324C92.9433 43.8974 93.1663 43.7384 93.4013 43.7774C93.6373 43.8164 93.7953 44.0384 93.7563 44.2744Z" fill="white"/>
<path d="M94.9416 43.4209C94.8166 43.4279 94.6976 43.3519 94.6546 43.2279C94.0246 41.3899 92.0476 40.7429 92.0276 40.7359C91.8776 40.6879 91.7936 40.5269 91.8416 40.3769C91.8896 40.2259 92.0496 40.1429 92.2006 40.1899C92.2926 40.2189 94.4716 40.9259 95.1976 43.0419C95.2486 43.1909 95.1686 43.3539 95.0196 43.4059C94.9936 43.4149 94.9676 43.4189 94.9416 43.4209Z" fill="#D6615D"/>
<path d="M92.9352 42.5913C92.8822 42.5943 92.8282 42.5823 92.7782 42.5543C92.6402 42.4763 92.5922 42.3013 92.6702 42.1643C92.6832 42.1413 92.9962 41.6003 93.6932 41.2393C93.8332 41.1663 94.0062 41.2213 94.0792 41.3623C94.1522 41.5023 94.0972 41.6753 93.9562 41.7483C93.4162 42.0273 93.1702 42.4433 93.1682 42.4473C93.1182 42.5343 93.0292 42.5863 92.9352 42.5913Z" fill="#D6615D"/>
<path d="M93.1076 42.0676C93.1556 42.7346 93.2256 43.3586 93.3176 43.9236C94.1606 49.0176 98.6376 59.3616 107.599 54.0916C109.749 52.8266 111.348 51.5766 112.594 50.2136C113.535 49.1866 114.28 48.0956 114.915 46.8876C115.161 46.4216 115.272 45.8966 115.432 45.3956C115.461 45.3076 115.487 45.2166 115.514 45.1296C115.529 45.0786 115.545 45.0306 115.56 44.9806C116.006 43.5186 116.344 42.0426 116.607 40.6356C116.934 38.8796 117.142 37.2426 117.27 35.8966C117.507 33.4206 116.415 31.0076 114.404 29.5436C108.959 25.5766 102.675 26.0996 98.4506 27.1916C95.5186 27.9486 93.4046 30.4996 93.2066 33.5166C93.1096 34.9486 93.0316 36.5796 93.0086 38.2006C92.9926 39.5366 93.0156 40.8696 93.1076 42.0676Z" fill="#FCB38F"/>
<path d="M96.8726 37.1829C96.8636 36.9199 96.6406 36.7149 96.3776 36.7239C95.6756 36.7479 94.7956 36.8409 93.9966 37.1139C92.3286 37.6839 92.1016 38.1589 92.1016 38.1589C92.1016 38.1589 92.3096 38.3559 94.4936 37.9119C95.0546 37.7979 95.7986 37.7519 96.4416 37.6899C96.6946 37.6659 96.8806 37.4459 96.8716 37.1919C96.8726 37.1899 96.8726 37.1869 96.8726 37.1829Z" fill="#252B3D"/>
<path d="M102.652 36.8456C102.602 36.5346 102.817 36.2436 103.128 36.1936C103.957 36.0606 105.011 35.9676 106.012 36.1046C108.101 36.3906 108.476 36.8956 108.476 36.8956C108.476 36.8956 108.278 37.1746 105.612 37.1546C104.928 37.1496 104.044 37.2666 103.275 37.3416C102.972 37.3716 102.703 37.1556 102.655 36.8556C102.653 36.8536 102.652 36.8496 102.652 36.8456Z" fill="#252B3D"/>
<path d="M101.034 45.9972C101.009 45.9932 100.983 45.9862 100.958 45.9762L99.0859 45.2492L99.8479 40.7002C99.8829 40.4912 100.081 40.3502 100.289 40.3852C100.498 40.4202 100.639 40.6172 100.604 40.8262L99.9449 44.7602L101.235 45.2612C101.432 45.3382 101.53 45.5602 101.453 45.7572C101.387 45.9302 101.21 46.0262 101.034 45.9972Z" fill="#FD8471"/>
<path d="M111.863 44.9834C111.863 44.9834 112.794 46.7854 114.912 46.8884C115.099 46.3964 115.269 45.8974 115.429 45.3964C114.406 45.5794 112.84 45.6964 111.863 44.9834Z" fill="#FD8471"/>
<path d="M112.591 50.2149C113.532 49.1879 114.277 48.0969 114.912 46.8889C115.158 46.4229 115.269 45.8979 115.429 45.3969C115.458 45.3089 115.484 45.2179 115.511 45.1309C115.294 45.1409 114.94 45.2099 114.359 45.3979C114.359 45.3979 111.958 48.1439 112.591 50.2149Z" fill="#252B3D"/>
<path d="M97.8477 47.9807C98.2887 49.2727 99.4927 51.5977 102.447 51.2027C105.409 50.8067 105.94 48.4637 106.02 46.8877L97.8477 47.9807Z" fill="white"/>
<path d="M104.206 40.7961C104.247 41.5141 104.65 42.0751 105.106 42.0491C105.563 42.0231 105.9 41.4201 105.859 40.7021C105.818 39.9841 105.415 39.4231 104.959 39.4491C104.503 39.4741 104.165 40.0781 104.206 40.7961Z" fill="#252B3D"/>
<path d="M94.8001 41.3283C94.8411 42.0463 95.2441 42.6073 95.7001 42.5813C96.1571 42.5553 96.4941 41.9523 96.4531 41.2343C96.4121 40.5163 96.0091 39.9553 95.5531 39.9803C95.0971 40.0073 94.7601 40.6103 94.8001 41.3283Z" fill="#252B3D"/>
<path d="M114.533 39.6216C114.533 39.6216 116.579 37.5246 117.625 39.6146C118.671 41.7056 116.59 46.8906 112.953 45.3836L114.533 39.6216Z" fill="#FCB38F"/>
<path d="M115.299 45.0068C115.26 45.2418 115.037 45.4008 114.802 45.3618C114.567 45.3228 114.408 45.0998 114.447 44.8648C114.486 44.6298 114.709 44.4708 114.944 44.5098C115.18 44.5498 115.338 44.7718 115.299 45.0068Z" fill="white"/>
<path d="M114.029 43.6816C114.146 43.6966 114.264 43.6336 114.313 43.5196C115.033 41.8306 116.941 41.3566 116.96 41.3516C117.105 41.3166 117.195 41.1706 117.16 41.0256C117.126 40.8806 116.98 40.7906 116.835 40.8246C116.746 40.8456 114.644 41.3616 113.815 43.3066C113.757 43.4446 113.82 43.6026 113.958 43.6616C113.981 43.6716 114.005 43.6786 114.029 43.6816Z" fill="#FD8471"/>
<path d="M115.975 43.0368C116.025 43.0428 116.077 43.0358 116.125 43.0128C116.26 42.9488 116.318 42.7878 116.254 42.6528C116.243 42.6308 115.986 42.0988 115.353 41.7108C115.226 41.6328 115.059 41.6728 114.981 41.7998C114.903 41.9268 114.943 42.0938 115.07 42.1718C115.559 42.4718 115.763 42.8808 115.765 42.8848C115.806 42.9708 115.887 43.0258 115.975 43.0368Z" fill="#FD8471"/>
<path d="M116.919 38.7628C116.029 38.6128 115.397 38.6698 114.905 38.8968C114.562 39.0548 114.287 39.2908 114.039 39.5958C113.988 39.6578 113.938 39.7238 113.888 39.7928C113.777 39.7478 113.671 39.6858 113.571 39.6098C113.344 39.4398 113.145 39.1988 112.969 38.9168C112.501 38.1708 111.945 37.6178 111.773 36.9228C111.511 35.8628 110.356 34.8948 110.356 34.8948C101.324 37.7058 94.1758 29.9208 94.1758 29.9208C96.9698 21.3208 112.16 25.4178 116.079 27.4988C119.996 29.5778 121.359 39.5068 116.919 38.7628Z" fill="#252B3D"/>
<path d="M134.144 40.8142C134.144 40.8142 130.824 48.2942 123.474 45.6542C116.124 43.0142 116.274 30.8042 116.274 30.8042C116.274 30.8042 113.224 22.3242 105.504 21.5842C105.084 21.5342 104.654 21.5142 104.204 21.5242C104.204 21.5242 104.184 21.2442 104.224 20.7742C104.394 18.5842 105.724 12.3942 115.514 12.1842C127.394 11.9342 123.574 25.0342 125.234 32.2342C126.894 39.4342 129.774 43.9542 134.144 40.8142Z" fill="#252B3D"/>
<path d="M118.613 30.0792C118.96 30.0952 118.482 30.0772 118.829 30.0892C118.829 27.0902 117.2 23.9502 114.714 22.3442C110.774 19.8142 106.134 20.3842 104.224 20.7742C104.184 21.2442 104.204 21.5242 104.204 21.5242C104.654 21.5142 105.084 21.5342 105.504 21.5842C107.634 21.3142 111.184 21.2642 114.164 23.1842C116.366 24.6042 117.859 27.3022 118.613 30.0792Z" fill="url(#paint11_linear_4479_12334)"/>
<path d="M96.2162 30.5265C96.2162 30.5265 96.9892 36.5035 92.8782 38.6085C92.8782 38.6085 91.1082 26.4835 96.2162 30.5265Z" fill="#252B3D"/>
<path d="M96.5942 148.648L117.26 136.85C118.341 136.233 118.335 134.673 117.25 134.064L92.9682 120.44C92.4942 120.174 91.9172 120.167 91.4372 120.421L70.7002 131.387C69.5952 131.971 69.5562 133.54 70.6312 134.178L94.9842 148.633C95.4792 148.928 96.0942 148.933 96.5942 148.648Z" fill="#51557C"/>
<path d="M96.5942 146.212L117.26 134.414C118.341 133.797 118.335 132.237 117.25 131.628L92.9682 118.004C92.4942 117.738 91.9172 117.731 91.4372 117.985L70.7002 128.951C69.5952 129.535 69.5562 131.104 70.6312 131.742L94.9842 146.197C95.4792 146.492 96.0942 146.498 96.5942 146.212Z" fill="#3A4059"/>
<path d="M118.051 135.387V133.101L96.6836 144.874V148.65L117.163 136.921C117.712 136.605 118.051 136.02 118.051 135.387Z" fill="#51557C"/>
<path d="M96.6833 120.92V147.283C96.6833 148.659 95.5483 149.633 94.3223 149.621H89.7723V147.34L56.5893 128.187C55.8673 127.763 55.4203 126.995 55.4203 126.158V101.216H53.2773V97.4561H57.7703C57.7813 97.4561 57.7813 97.4561 57.7933 97.4561C58.1713 97.4561 58.5613 97.548 58.9283 97.765L95.5153 118.89C96.2363 119.304 96.6833 120.084 96.6833 120.92Z" fill="#51557C"/>
<path d="M54.4543 97.7689L91.0383 118.891C91.7623 119.309 92.2083 120.081 92.2083 120.917V147.279C92.2083 149.08 90.2583 150.206 88.6993 149.305L52.1153 128.183C51.3913 127.765 50.9453 126.993 50.9453 126.157V99.7949C50.9443 97.9939 52.8943 96.8689 54.4543 97.7689Z" fill="#6B749B"/>
<path d="M72.5669 124.6C72.5759 126.664 71.3669 128.343 69.8669 128.35C68.3659 128.357 67.1419 126.689 67.1329 124.624C67.1239 122.56 68.3329 120.881 69.8329 120.874C71.3329 120.868 72.5579 122.536 72.5669 124.6Z" fill="#9CA6C8"/>
<path d="M127.759 99.8169C124.972 99.4209 121.836 98.2759 119.082 97.6749C119.148 97.3369 119.213 96.9739 119.277 96.5889C119.301 96.4549 119.322 96.3169 119.345 96.1759C119.371 95.9999 119.399 95.8219 119.425 95.6389C121.036 84.8019 121.82 60.3779 121.82 60.3779C121.82 60.3779 130.117 60.5119 131.266 69.6789C132.03 75.7939 129.11 92.9839 127.759 99.8169Z" fill="url(#paint12_linear_4479_12334)"/>
<path d="M127.759 99.8168C125.007 108.161 106.061 127.978 106.061 127.978L101.191 122.043C113.874 105.17 118.179 98.1698 119.127 96.5558C119.279 96.2958 119.345 96.1758 119.345 96.1758L123.345 97.9068L127.759 99.8168Z" fill="url(#paint13_linear_4479_12334)"/>
<path d="M123.396 97.8377C123.38 97.8637 123.361 97.8867 123.342 97.9077C123.314 97.9357 123.283 97.9617 123.251 97.9827C123.099 98.0787 122.897 98.0857 122.733 97.9807C121.574 97.2347 120.314 96.8197 119.275 96.5897C119.223 96.5777 119.174 96.5667 119.125 96.5567C119.277 96.2967 119.343 96.1767 119.343 96.1767C119.369 96.0007 119.397 95.8226 119.423 95.6396C120.561 95.8836 121.952 96.3387 123.251 97.1737C123.473 97.3187 123.541 97.6147 123.396 97.8377Z" fill="#33539B"/>
<path d="M101.19 122.043C101.19 122.043 96.9806 122.522 96.6836 124.105V126.803V133.101C96.6836 133.101 102.6 132.615 106.061 127.979L101.19 122.043Z" fill="#FCB38F"/>
<path d="M159.165 350.158C157.524 350.201 155.719 349.944 153.892 349.13C153.892 349.13 153.889 349.127 153.886 349.127L151.576 347.783C151.573 347.78 151.567 347.777 151.564 347.777L150.61 347.223L43.8053 285.15C41.8793 284.029 40.6963 281.974 40.6963 279.744L40.6953 267.917C40.7293 266.713 41.3453 265.527 42.5373 264.839L53.7423 258.371L158.444 318.837L158.847 336.386L159.165 350.158Z" fill="#252B3D"/>
<path d="M400.73 196.661L400.731 207.999C400.731 210.916 399.18 213.609 396.654 215.068L166.319 348.068L165.799 348.365C165.784 348.371 165.768 348.381 165.753 348.39C164.679 348.957 162.199 350.074 159.168 350.158L158.852 336.386L158.449 318.837L387.475 187.531H387.478L398.937 194.101C399.959 194.685 400.557 195.642 400.73 196.661Z" fill="#3A4059"/>
<path d="M84.3711 261.97L186.143 321.101L384.027 206.836L281.575 148.113L84.3711 261.97Z" fill="white"/>
<path d="M84.3711 261.97L186.143 321.101L384.027 206.836L281.575 148.113L84.3711 261.97Z" fill="white"/>
<path d="M79.8789 298.545V301.57C79.8789 301.81 80.0069 302.034 80.2159 302.155L109.295 318.941C109.744 319.201 110.305 318.876 110.305 318.356V315.331C110.305 315.091 110.177 314.867 109.968 314.747L80.8889 297.961C80.4399 297.7 79.8789 298.025 79.8789 298.545Z" fill="#6B749B"/>
<path d="M79.8789 298.545V300.262C79.8789 300.502 80.0069 300.726 80.2159 300.847L109.295 317.633C109.744 317.893 110.305 317.568 110.305 317.049V315.332C110.305 315.092 110.177 314.868 109.968 314.748L80.8889 297.962C80.4399 297.7 79.8789 298.025 79.8789 298.545Z" fill="#51557C"/>
<path d="M119.496 323.053C119.584 324.834 120.398 326.24 121.312 326.195C121.422 326.189 121.527 326.163 121.628 326.119C122.374 325.793 122.886 324.458 122.808 322.89C122.733 321.379 122.136 320.135 121.399 319.824C121.268 319.766 121.132 319.74 120.994 319.747C120.079 319.792 119.408 321.272 119.496 323.053Z" fill="#6B749B"/>
<path d="M120.219 323.053C120.294 324.565 120.891 325.806 121.63 326.119C122.376 325.793 122.888 324.458 122.81 322.89C122.735 321.379 122.138 320.135 121.401 319.824C120.653 320.15 120.141 321.484 120.219 323.053Z" fill="#51557C"/>
<path d="M400.728 197.935C400.556 198.951 399.962 199.902 398.943 200.491L167.38 334.197C164.743 335.722 161.789 336.453 158.848 336.387C156.119 336.334 153.401 335.595 150.958 334.177L42.5283 271.22C41.3453 270.53 40.7333 269.349 40.6953 268.15V267.917C40.7303 266.713 41.3453 265.527 42.5393 264.839L53.7443 258.371L97.1903 233.284L213.439 166.16L279.713 127.891C280.848 127.236 282.249 127.233 283.387 127.886L387.471 187.53H387.474L398.934 194.1C399.958 194.687 400.557 195.642 400.729 196.661C400.804 197.083 400.804 197.515 400.728 197.935Z" fill="#51557C"/>
<path d="M99.7508 289.648C99.4738 295.092 105.933 297.867 113.559 297.867C121.185 297.867 127.701 295.426 127.366 289.498C127.145 285.59 121.184 283.691 113.559 283.692C105.932 283.692 99.9498 285.739 99.7508 289.648Z" fill="#3A4059"/>
<path d="M99.7539 289.499C99.7539 293.413 105.936 296.586 113.562 296.586C121.187 296.586 127.369 293.412 127.369 289.497C127.369 285.583 121.187 282.41 113.562 282.41C105.935 282.411 99.7539 285.585 99.7539 289.499Z" fill="#6B749B"/>
<path opacity="0.3" d="M102.742 289.035C102.742 292.102 107.586 294.589 113.561 294.588C119.536 294.588 124.38 292.101 124.38 289.034C124.38 285.967 119.536 283.48 113.561 283.481C107.585 283.481 102.742 285.968 102.742 289.035Z" fill="#6B749B"/>
<path d="M376.055 199.213L370.569 202.381L352.355 212.903L311.527 236.485L267.191 262.074L249.398 272.351L217.007 291.066L188.752 307.369C185.981 308.967 182.569 308.964 179.804 307.36L176.178 305.258L139.565 283.958L121.768 273.652L87.2671 253.59C85.1461 252.358 85.1521 249.293 87.2761 248.067L121.766 228.16L139.562 217.883L176.173 196.75L217.001 173.171L249.392 154.453L267.185 144.179L268.504 143.417L275.247 139.534C278.009 137.942 281.408 137.939 284.173 139.524L311.522 155.199L352.352 178.607L376.041 192.179C378.755 193.736 378.764 197.646 376.055 199.213Z" fill="white"/>
<path d="M376.054 199.213L370.568 202.381L268.504 143.416L275.247 139.533C278.009 137.941 281.408 137.938 284.173 139.523L311.522 155.198L352.352 178.606L376.041 192.178C378.754 193.736 378.763 197.646 376.054 199.213Z" fill="#51557C"/>
<path d="M338.485 177.556C338.139 177.502 337.808 177.395 337.53 177.236L300.124 155.827C299.286 155.347 299.236 154.572 300.013 154.096C300.79 153.62 302.1 153.622 302.937 154.102L340.343 175.51C341.181 175.99 341.231 176.765 340.454 177.241C339.935 177.559 339.179 177.664 338.485 177.556Z" fill="#6B749B"/>
<path opacity="0.15" d="M280.156 204.471L161.715 270.722L97.4102 233.202L213.659 166.077L280.156 204.471Z" fill="#252B3D"/>
<path d="M283.413 112.118L283.685 200.953C283.687 201.84 283.216 202.658 282.448 203.101L179.637 262.459L173.872 265.787L175.371 275.889L162.719 271.382L162.401 271.268C161.546 270.901 160.9 270.058 160.902 268.994L161.002 171.523C161.004 171.137 161.094 170.765 161.26 170.43C161.471 170 161.807 169.633 162.237 169.385L279.678 101.422C280.334 101.043 281.056 101.002 281.687 101.213C281.74 101.23 281.791 101.247 281.842 101.269L295.068 106.014L283.413 112.118Z" fill="url(#paint14_linear_4479_12334)"/>
<path d="M173.872 265.787L175.371 275.889L162.719 271.382L162.401 271.268C161.546 270.901 160.9 270.058 160.902 268.994L161.002 171.523C161.004 171.137 161.094 170.765 161.26 170.43L178.055 176.168L179.639 262.459L173.872 265.787Z" fill="#33539B"/>
<path d="M296.65 205.569C296.653 206.456 296.181 207.277 295.416 207.719L177.574 275.753C175.924 276.705 173.864 275.515 173.867 273.61L173.874 266.652L173.879 261.064L173.966 176.515V176.138C173.969 175.256 174.437 174.442 175.2 174.003L175.373 173.903L292.642 106.039C293.439 105.577 294.335 105.619 295.045 106C295.8 106.403 296.35 107.19 296.352 108.17L296.357 109.441L296.588 185.009L296.598 188.075L296.65 205.569Z" fill="url(#paint15_linear_4479_12334)"/>
<path d="M220.638 190.322L173.871 266.652L173.876 261.064L218.152 188.798C218.572 188.11 219.469 187.894 220.156 188.317C220.842 188.738 221.058 189.634 220.638 190.322Z" fill="url(#paint16_linear_4479_12334)"/>
<path d="M296.597 188.075L255.404 174.767C254.639 174.519 254.218 173.698 254.466 172.933C254.711 172.165 255.535 171.745 256.3 171.993L296.587 185.01L296.597 188.075Z" fill="url(#paint17_linear_4479_12334)"/>
<path opacity="0.5" d="M173.965 176.514L243.692 203.539L296.355 109.44L241.095 196.306L173.965 176.514Z" fill="#33539B"/>
<path d="M296.355 109.441L241.907 198.312L173.965 176.515V176.138C173.968 175.256 174.436 174.442 175.199 174.003L175.372 173.903L240.619 194.837L295.043 106C295.798 106.403 296.348 107.19 296.35 108.17L296.355 109.441Z" fill="url(#paint18_linear_4479_12334)"/>
<path d="M38.664 384.459C54.5875 384.459 67.496 380.287 67.496 375.141C67.496 369.995 54.5875 365.823 38.664 365.823C22.7406 365.823 9.83203 369.995 9.83203 375.141C9.83203 380.287 22.7406 384.459 38.664 384.459Z" fill="#E5E5E5"/>
<path d="M59.4118 332.746V369.357C59.4118 375.465 50.1178 380.413 38.6648 380.413C27.2118 380.413 17.9258 375.465 17.9258 369.357V332.746H59.4118Z" fill="#51557C"/>
<path d="M38.6659 343.806C50.1225 343.806 59.4099 338.853 59.4099 332.743C59.4099 326.633 50.1225 321.68 38.6659 321.68C27.2093 321.68 17.9219 326.633 17.9219 332.743C17.9219 338.853 27.2093 343.806 38.6659 343.806Z" fill="#3A4059"/>
<path d="M56.8125 332.746C56.8125 333.125 56.6825 333.538 56.4135 333.986C54.8095 336.707 48.3505 340.358 38.6655 340.358C28.9805 340.358 22.5225 336.707 20.9185 333.986C20.6495 333.538 20.5195 333.125 20.5195 332.746C20.5195 330.06 27.4125 325.123 38.6655 325.123C49.9195 325.123 56.8125 330.06 56.8125 332.746Z" fill="#252B3D"/>
<path d="M38.2633 333.742C38.2393 333.742 38.2153 333.741 38.1903 333.739C37.6393 333.699 37.2233 333.22 37.2633 332.669C37.2893 332.302 39.7823 295.736 30.7063 273.968C30.4933 273.458 30.7353 272.872 31.2453 272.659C31.7563 272.446 32.3423 272.688 32.5543 273.198C41.8143 295.406 39.2873 332.441 39.2603 332.812C39.2233 333.339 38.7833 333.742 38.2633 333.742Z" fill="#33539B"/>
<path d="M38.2617 312.204C37.7937 312.204 37.3747 311.873 37.2807 311.397C34.6617 298.155 21.9047 294.362 21.7767 294.325C21.2447 294.173 20.9377 293.619 21.0897 293.087C21.2417 292.555 21.7967 292.248 22.3277 292.4C22.9007 292.564 36.3917 296.579 39.2457 311.009C39.3527 311.551 38.9997 312.078 38.4577 312.185C38.3917 312.198 38.3257 312.204 38.2617 312.204Z" fill="#33539B"/>
<path d="M37.0459 296.367C36.5129 296.367 36.0699 295.947 36.0459 295.41C35.4469 281.865 42.0999 271.855 42.3829 271.435C42.6919 270.977 43.3149 270.857 43.7729 271.166C44.2309 271.476 44.3519 272.098 44.0419 272.556C43.9579 272.682 37.4779 282.48 38.0459 295.321C38.0699 295.873 37.6419 296.341 37.0899 296.365C37.0759 296.367 37.0609 296.367 37.0459 296.367Z" fill="#33539B"/>
<path d="M37.9044 304.163C37.8434 304.163 37.7824 304.157 37.7204 304.146C37.1764 304.045 36.8184 303.522 36.9194 302.978C37.8314 298.071 41.1734 294.406 46.5834 292.38C50.5694 290.888 54.2454 290.81 54.3994 290.807C54.4054 290.807 54.4104 290.807 54.4164 290.807C54.9614 290.807 55.4084 291.244 55.4174 291.791C55.4264 292.344 54.9864 292.799 54.4334 292.809C54.2974 292.812 40.7774 293.177 38.8874 303.344C38.7984 303.827 38.3774 304.163 37.9044 304.163Z" fill="#33539B"/>
<path d="M15.386 309.745C3.38797 311.682 0.292969 306.392 0.292969 306.392C0.292969 306.392 6.09697 288.847 14.354 287.171C20.862 285.846 21.921 290.455 22.078 292.466C22.118 293.009 22.095 293.361 22.095 293.361C22.095 293.361 22.865 293.229 23.877 293.318C25.316 293.447 27.247 294.025 28.157 296.07C29.615 299.349 27.67 307.765 15.386 309.745Z" fill="url(#paint19_linear_4479_12334)"/>
<path d="M23.8751 293.318C17.1891 295.355 8.78206 305.039 8.69006 305.144C8.54706 305.307 8.34706 305.393 8.14706 305.393C7.98106 305.393 7.81506 305.336 7.68106 305.219C7.38306 304.962 7.34906 304.51 7.60706 304.212C7.97006 303.791 15.3081 295.338 22.0771 292.466C22.1171 293.009 22.0941 293.361 22.0941 293.361C22.0941 293.361 22.8631 293.23 23.8751 293.318Z" fill="url(#paint20_linear_4479_12334)"/>
<path d="M32.1836 273.648C32.0036 273.637 31.8176 273.614 31.6316 273.582C31.4056 273.842 31.1686 274.086 30.9196 274.311C27.7586 277.206 22.8666 277.478 19.5076 274.674C18.0316 273.441 16.2716 270.819 15.3006 268.335C11.2196 257.9 14.7306 248.535 21.7706 243.766C21.7706 243.766 30.2786 241.592 36.6946 252.56C42.9516 263.249 39.1496 274.214 32.1836 273.648Z" fill="url(#paint21_linear_4479_12334)"/>
<path d="M32.1819 273.648C32.0019 273.637 31.8159 273.614 31.6299 273.582C31.4039 273.842 31.1669 274.086 30.9179 274.311C27.3509 267.651 23.1799 248.962 22.9939 248.115C22.9079 247.729 23.1509 247.348 23.5349 247.263C23.9209 247.177 24.3039 247.42 24.3899 247.806C24.4349 248.013 28.7289 267.263 32.1819 273.648Z" fill="url(#paint22_linear_4479_12334)"/>
<path d="M68.3697 264.451C68.3697 264.451 56.8527 282.863 48.4927 281.822C41.5157 280.952 42.5047 274.696 43.0227 272.648C43.1257 272.239 43.2117 271.999 43.2117 271.999C43.2117 271.999 42.6857 271.916 41.9757 271.659C40.9457 271.281 39.5237 270.526 38.7917 269.104C38.5517 268.643 38.3857 268.111 38.3277 267.499C38.2307 266.449 38.7597 264.956 39.8637 263.451C42.5187 259.832 48.4857 256.142 56.9907 258.35C63.6807 260.085 68.3697 264.451 68.3697 264.451Z" fill="url(#paint23_linear_4479_12334)"/>
<path d="M61.5946 264.145C61.6286 264.537 61.3396 264.886 60.9486 264.923C51.5766 265.793 45.2976 270.61 43.0236 272.647C43.1266 272.238 43.2126 271.998 43.2126 271.998C43.2126 271.998 42.6866 271.915 41.9766 271.658C44.3196 269.515 50.8416 264.426 60.8176 263.499C61.2056 263.464 61.5576 263.75 61.5946 264.145Z" fill="url(#paint24_linear_4479_12334)"/>
<path d="M69.7381 312.763C69.7381 312.763 48.4341 308.54 46.4371 300.356C44.9151 294.117 49.9591 292.495 52.4451 292.077C53.2201 291.945 53.7471 291.931 53.7471 291.931C53.7471 291.931 53.6811 291.613 53.6471 291.119C53.5501 289.749 53.7071 287.002 56.2191 285.766C59.4371 284.184 70.0421 287.591 71.4011 299.961C72.1551 306.83 69.7381 312.763 69.7381 312.763Z" fill="url(#paint25_linear_4479_12334)"/>
<path d="M66.1083 306.678C66.0193 306.712 65.9283 306.729 65.8393 306.729C65.5563 306.729 65.2873 306.56 65.1753 306.283C61.6303 297.5 53.4543 292.646 52.4453 292.077C53.2203 291.945 53.7473 291.931 53.7473 291.931C53.7473 291.931 53.6813 291.613 53.6473 291.119C55.8383 292.435 63.0903 297.292 66.5033 305.746C66.6483 306.112 66.4743 306.529 66.1083 306.678Z" fill="url(#paint26_linear_4479_12334)"/>
<path d="M374.746 399.274C394.643 399.274 410.773 394.099 410.773 387.714C410.773 381.33 394.643 376.154 374.746 376.154C354.849 376.154 338.719 381.33 338.719 387.714C338.719 394.099 354.849 399.274 374.746 399.274Z" fill="#E5E5E5"/>
<path d="M410.488 391.26C410.488 391.26 408.538 393.279 406.009 392.714L404.939 392.436L404.056 392.158C404.056 392.158 393.555 389.837 389.761 388.605C385.712 387.29 383.481 383.954 387.443 381.42C391.404 378.886 398.597 379.637 400.676 378.131C400.676 378.131 407.746 376.973 408.29 380.769C409.384 384.69 410.097 386.443 410.488 391.26Z" fill="url(#paint27_linear_4479_12334)"/>
<path d="M393.185 382.764C393.314 382.662 393.378 382.489 393.332 382.32C393.328 382.307 392.973 380.925 393.594 379.981C394.188 379.075 395.608 379.095 395.623 379.096C395.857 379.101 396.051 378.915 396.057 378.682C396.063 378.448 395.879 378.254 395.645 378.248C395.568 378.246 393.741 378.212 392.885 379.516C392.053 380.782 392.494 382.47 392.513 382.541C392.574 382.767 392.807 382.902 393.033 382.841C393.09 382.825 393.142 382.799 393.185 382.764Z" fill="white"/>
<path d="M394.614 382.723C394.743 382.621 394.807 382.448 394.761 382.279C394.757 382.266 394.402 380.884 395.023 379.94C395.617 379.034 397.037 379.054 397.052 379.055C397.286 379.06 397.48 378.875 397.486 378.641C397.492 378.407 397.308 378.213 397.074 378.206C396.997 378.204 395.171 378.17 394.314 379.474C393.482 380.74 393.923 382.428 393.942 382.5C394.003 382.726 394.236 382.86 394.462 382.8C394.519 382.784 394.57 382.757 394.614 382.723Z" fill="white"/>
<path d="M396.192 382.619C396.321 382.517 396.385 382.344 396.339 382.175C396.335 382.162 395.98 380.78 396.601 379.836C397.195 378.93 398.615 378.95 398.63 378.95C398.864 378.955 399.058 378.77 399.064 378.536C399.07 378.302 398.886 378.108 398.652 378.101C398.575 378.099 396.749 378.065 395.892 379.369C395.06 380.635 395.501 382.323 395.52 382.394C395.581 382.621 395.814 382.755 396.04 382.694C396.097 382.679 396.149 382.653 396.192 382.619Z" fill="white"/>
<path d="M404.624 369.272L406.982 380.314C406.982 380.314 405.21 381.904 401.025 381.379L396.938 371.541C396.938 371.541 401.604 368.68 404.624 369.272Z" fill="#FCB38F"/>
<path d="M395.068 266.924L376.918 271.694C376.918 271.694 380.629 313.809 382.334 323.545C384.04 333.281 397.122 374.341 397.122 374.341C402.447 375.746 406.321 372.387 406.321 372.387C406.321 372.387 401.054 346.398 400.753 341.028C400.452 335.658 398.165 325.429 396.913 323.365C396.913 323.365 396.728 293.385 397.16 286.225C397.593 279.065 395.068 266.924 395.068 266.924Z" fill="#51557C"/>
<path d="M398.807 373.757C398.585 373.757 398.381 373.609 398.32 373.385C398.201 372.951 386.39 329.903 384.285 324.969C382.131 319.921 380.701 289.419 380.641 288.123C380.628 287.844 380.844 287.607 381.123 287.595C381.397 287.58 381.639 287.798 381.652 288.077C381.666 288.392 383.133 319.69 385.216 324.572C387.348 329.569 398.81 371.341 399.297 373.117C399.371 373.386 399.212 373.665 398.943 373.739C398.896 373.751 398.851 373.757 398.807 373.757Z" fill="#252B3D"/>
<path d="M406.028 369.385C406.028 369.385 400.226 371.738 395.359 371.888C395.512 373.723 396.231 375.488 396.933 376.355C396.933 376.355 402.733 376.157 406.78 373.864C406.91 372.423 406.85 370.788 406.028 369.385Z" fill="#6B749B"/>
<path d="M387.699 189.108C387.699 189.108 406.502 208.259 405.714 229.51C405.356 239.164 395.835 262.881 395.835 262.881L391.554 254.95C391.554 254.95 394.209 239.904 396.769 229.51L390.669 209.56C390.669 209.56 384.477 192.047 387.699 189.108Z" fill="url(#paint28_linear_4479_12334)"/>
<path d="M362.915 391.974C362.915 391.974 360.608 393.447 358.338 392.337L357.386 391.831L356.612 391.367C356.612 391.367 347.18 386.784 343.862 384.755C340.321 382.59 338.962 378.92 343.293 377.416C347.624 375.911 354.274 378.255 356.588 377.299C356.588 377.299 363.555 377.805 363.21 381.527C363.359 385.493 363.637 387.317 362.915 391.974Z" fill="url(#paint29_linear_4479_12334)"/>
<path d="M348.431 379.992C348.577 379.925 348.676 379.775 348.671 379.605C348.671 379.592 348.647 378.201 349.45 377.446C350.219 376.722 351.561 377.063 351.575 377.066C351.796 377.124 352.022 376.992 352.08 376.772C352.138 376.552 352.008 376.325 351.788 376.266C351.715 376.246 349.991 375.8 348.883 376.843C347.807 377.855 347.842 379.556 347.844 379.628C347.85 379.857 348.041 380.036 348.269 380.03C348.327 380.028 348.382 380.015 348.431 379.992Z" fill="white"/>
<path d="M349.795 380.277C349.941 380.21 350.04 380.06 350.035 379.89C350.035 379.877 350.011 378.486 350.814 377.731C351.583 377.007 352.925 377.348 352.939 377.351C353.16 377.409 353.386 377.277 353.444 377.057C353.502 376.837 353.372 376.61 353.152 376.552C353.079 376.532 351.356 376.086 350.247 377.128C349.171 378.14 349.206 379.841 349.208 379.913C349.214 380.142 349.405 380.322 349.633 380.315C349.691 380.313 349.746 380.3 349.795 380.277Z" fill="white"/>
<path d="M351.317 380.536C351.463 380.469 351.562 380.319 351.557 380.149C351.557 380.136 351.533 378.745 352.336 377.99C353.105 377.266 354.447 377.607 354.461 377.61C354.682 377.668 354.908 377.536 354.967 377.316C355.025 377.096 354.895 376.869 354.675 376.811C354.602 376.791 352.878 376.345 351.77 377.388C350.694 378.4 350.729 380.101 350.731 380.172C350.737 380.401 350.928 380.581 351.156 380.574C351.213 380.573 351.267 380.559 351.317 380.536Z" fill="white"/>
<path d="M362.343 369.792L362.074 380.798C362.074 380.798 360.033 381.904 356.184 380.457L354.539 370.201C354.539 370.201 359.614 368.546 362.343 369.792Z" fill="#FCB38F"/>
<path d="M376.493 270.568L358.2 270.974C358.2 270.974 352.166 311.753 351.575 321.372C350.984 330.991 354.077 372.895 354.077 372.895C358.808 375.435 363.243 373.129 363.243 373.129C363.243 373.129 364.143 347.289 365.076 342.129C366.009 336.969 366.16 326.749 365.441 324.509C365.441 324.509 377.6 292.069 379.634 285.377C381.669 278.686 376.493 270.568 376.493 270.568Z" fill="#51557C"/>
<path d="M355.923 372.752C355.651 372.752 355.427 372.536 355.418 372.263C355.404 371.824 353.968 328.324 353.09 323.169C352.192 317.891 357.755 288.64 357.992 287.398C358.045 287.124 358.308 286.945 358.584 286.996C358.858 287.048 359.038 287.313 358.986 287.588C358.928 287.89 353.22 317.901 354.088 323C354.977 328.223 356.371 370.436 356.429 372.23C356.438 372.509 356.219 372.743 355.94 372.752C355.934 372.752 355.928 372.752 355.923 372.752Z" fill="#252B3D"/>
<path d="M363.646 370.217C363.646 370.217 357.61 371.132 352.961 370.17C352.69 371.945 352.972 373.782 353.441 374.763C353.441 374.763 358.986 375.89 363.344 374.634C363.794 373.298 364.108 371.734 363.646 370.217Z" fill="#6B749B"/>
<path d="M396.346 276.32C385.553 287.538 352.835 277.252 352.835 277.252C352.835 277.252 355.672 256.656 356.098 239.779C356.246 233.876 355.127 226.254 354.14 219.167C354.081 218.749 354.024 218.335 353.966 217.922C352.737 209.021 351.85 201.189 354.156 199.023C357.398 195.975 369.305 192.511 379.175 189.617C379.175 189.617 385.97 186.422 388.351 189.799C390.732 193.176 393.559 217.941 393.708 225.202C393.857 232.463 398.092 268.837 396.346 276.32Z" fill="url(#paint30_linear_4479_12334)"/>
<path d="M372.152 262.881C372.175 262.881 372.198 262.88 372.221 262.876C384.32 261.038 392.017 249.081 392.093 248.961C392.228 248.748 392.165 248.465 391.951 248.33C391.738 248.195 391.456 248.259 391.321 248.472C391.247 248.589 383.765 260.198 372.084 261.973C371.834 262.011 371.663 262.244 371.701 262.493C371.735 262.719 371.93 262.881 372.152 262.881Z" fill="url(#paint31_linear_4479_12334)"/>
<path d="M353.969 217.921C354.026 218.335 354.083 218.748 354.143 219.166C356.839 215.945 358.578 212.152 358.671 211.947C358.776 211.716 358.676 211.447 358.445 211.342C358.214 211.237 357.945 211.34 357.84 211.568C357.818 211.613 356.306 214.912 353.969 217.921Z" fill="url(#paint32_linear_4479_12334)"/>
<path d="M377.18 242.166C377.295 242.166 377.411 242.123 377.5 242.036C384.987 234.702 387.589 217.686 387.696 216.966C387.733 216.716 387.561 216.484 387.311 216.447C387.061 216.41 386.829 216.582 386.792 216.832C386.766 217.006 384.127 234.266 376.86 241.384C376.68 241.56 376.677 241.85 376.853 242.03C376.943 242.12 377.062 242.166 377.18 242.166Z" fill="url(#paint33_linear_4479_12334)"/>
<path d="M354.438 176.161C354.438 176.161 354.135 179.38 354.137 180.388C354.138 181.396 355.866 181.785 355.866 181.785C355.866 181.785 355.177 177.101 354.438 176.161Z" fill="#FCB38F"/>
<path d="M375.962 191.096C375.835 191.92 374.145 192.886 371.638 193.808C370.401 194.263 367.982 194.645 365.627 194.263L365.359 192.464L365.288 192.017L365.165 191.225L364.712 188.303L364.672 188.044L364.641 187.839C364.641 187.839 371.615 182.91 374.469 183.995C374.581 184.033 374.683 184.082 374.779 184.14C374.978 186.34 375.569 189.221 375.962 191.096Z" fill="#FCB38F"/>
<path d="M369.35 187.469C369.35 187.469 367.558 189.641 365.165 191.226L364.712 188.304L364.672 188.045L369.35 187.469Z" fill="#FD8471"/>
<path d="M354.184 172.66C354.234 174.043 354.326 175.42 354.478 176.657C354.558 177.344 354.661 177.988 354.784 178.565C354.907 179.142 355.081 179.786 355.302 180.462C355.302 180.462 355.304 180.467 355.306 180.473C355.327 180.592 355.516 181.557 355.84 182.804C355.847 182.834 355.856 182.863 355.863 182.893C356.144 183.968 356.518 185.235 356.97 186.331C357 186.404 357.029 186.475 357.059 186.546C357.49 187.553 357.983 188.388 358.522 188.762C361.284 190.686 370.62 187.577 370.62 187.577L371.538 187.205C372.613 186.926 372.761 186.454 373.291 185.929C373.944 185.34 374.521 184.744 375.03 184.13C375.952 183.023 376.671 181.857 377.269 180.576C377.499 180.083 377.589 179.533 377.73 179.008C377.755 178.917 377.78 178.821 377.801 178.729C377.815 178.676 377.831 178.626 377.844 178.574C378.232 177.038 378.508 175.495 378.714 174.027C378.967 172.194 379.102 170.491 379.166 169.092C379.291 166.52 378.043 164.077 375.893 162.66C370.068 158.823 363.592 159.67 359.278 161.007C356.281 161.931 354.22 164.675 354.161 167.807C354.131 169.291 354.131 170.985 354.184 172.66Z" fill="#FCB38F"/>
<path d="M355.595 181.786C355.595 181.786 355.244 182.376 355.842 182.804L358.914 182.242C358.914 182.242 359.121 185.689 356.971 186.33C356.971 186.33 356.263 190.207 357.984 191.407C359.705 192.607 363.388 190.347 363.36 187.78C363.332 185.213 364.027 177.481 363.739 176.017L361.845 176.416C361.845 176.416 361.825 179.967 360.737 180.498C359.649 181.028 357.651 180.117 355.595 181.786Z" fill="#252B3D"/>
<path d="M355.068 175.39C355.141 176.094 355.438 176.641 355.73 176.61C356.022 176.58 356.2 175.984 356.127 175.28C356.054 174.576 355.757 174.029 355.465 174.06C355.172 174.09 354.994 174.686 355.068 175.39Z" fill="#252B3D"/>
<path d="M354.114 170.805C355.241 170.647 356.6 170.632 357.822 171.099C357.937 171.143 358.002 171.265 357.98 171.386L357.835 172.198C357.81 172.337 357.68 172.431 357.54 172.408C357.014 172.32 355.712 172.154 354.175 172.34C354.022 172.359 353.885 172.244 353.882 172.09C353.876 171.743 353.877 171.396 353.894 171.05C353.899 170.926 353.992 170.822 354.114 170.805Z" fill="#252B3D"/>
<path d="M379.176 177.009C380.151 172.41 379.176 166.313 379.176 166.313C378.589 163.175 376.299 160.53 376.299 160.53C375.204 159.419 373.199 158.598 371.092 158.001C369.75 157.756 368.647 157.805 367.443 158.001C365.692 158.286 363.79 158.446 362.086 158.947C358.684 159.947 354.03 160.859 354.571 165.346C355.946 167.165 355.804 169.441 358.005 169.448C360.835 169.456 360.714 171.89 360.831 174.361C360.948 176.832 363.816 177.64 363.739 176.017C363.739 176.017 363.503 172.671 365.341 171.79C366.704 171.136 369.34 171.012 369.73 175.159C370.1 179.089 367.104 179.607 367.104 179.607C367.104 179.607 367.676 179.847 370.299 179.847C371.908 179.847 371.943 185.153 374.536 185.138C377.129 185.123 378.552 180.438 379.176 177.009Z" fill="#252B3D"/>
<path d="M365.838 177.886C365.946 177.829 366.008 177.705 365.982 177.58C365.587 175.72 366.923 174.183 366.936 174.168C367.038 174.052 367.028 173.874 366.912 173.772C366.796 173.67 366.62 173.68 366.517 173.795C366.454 173.866 364.98 175.554 365.434 177.695C365.466 177.846 365.615 177.944 365.766 177.912C365.792 177.906 365.816 177.897 365.838 177.886Z" fill="#FD8471"/>
<path d="M367.106 176.18C367.152 176.156 367.192 176.119 367.219 176.07C367.295 175.935 367.248 175.765 367.114 175.688C367.092 175.675 366.557 175.378 365.79 175.425C365.636 175.434 365.518 175.567 365.528 175.722C365.537 175.876 365.67 175.994 365.825 175.984C366.418 175.947 366.834 176.173 366.838 176.175C366.923 176.224 367.024 176.222 367.106 176.18Z" fill="#FD8471"/>
<path d="M355.844 182.803C355.851 182.833 355.86 182.862 355.867 182.892C356.148 183.967 356.522 185.234 356.974 186.33C358.579 185.401 358.891 183.664 358.917 182.374V182.242L358.709 182.281L355.844 182.803Z" fill="white"/>
<path d="M355.844 160.694C355.844 160.694 358.05 155.289 365.349 154.213C374.622 152.846 379.511 158.338 380.948 161.753C382.386 165.168 380.948 170.841 380.948 170.841C380.948 170.841 363.394 167.831 355.844 160.694Z" fill="url(#paint34_linear_4479_12334)"/>
<path d="M354.137 163.431C354.137 163.431 361.429 170.293 380.647 175.335C380.647 175.335 382.239 172.771 381.562 170.559C381.562 170.559 369.07 167.304 355.983 159.273C355.983 159.273 354.603 160.26 354.137 163.431Z" fill="url(#paint35_linear_4479_12334)"/>
<path d="M354.156 199.023C354.156 199.023 335.22 219.886 329.996 220.157L332.988 229.081C332.988 229.081 349.243 224.847 354.664 216.963C359.934 209.3 354.156 199.023 354.156 199.023Z" fill="url(#paint36_linear_4479_12334)"/>
<path d="M316.805 204.12C316.805 204.12 321.317 224.278 326.085 227.81C330.853 231.342 334.438 228.276 334.438 228.276C334.438 228.276 335.251 223.764 332.315 219.576C332.141 219.329 331.956 219.083 331.753 218.838C331.44 218.454 331.088 218.075 330.7 217.705C325.879 213.122 323.357 204.02 323.357 204.02C321.431 204.451 318.881 204.774 316.805 204.12Z" fill="url(#paint37_linear_4479_12334)"/>
<path d="M323.449 178.856L322.669 179.54L322.576 179.623L322.188 178.532H322.19H322.191L323.449 178.856Z" fill="#252B3D"/>
<path d="M322.503 178.875L326.909 196.551C326.951 196.72 326.9 196.899 326.774 197.019L319.884 203.632C319.615 203.891 319.166 203.761 319.076 203.399L314.724 185.938C314.678 185.752 314.708 185.558 314.805 185.398C314.836 185.346 314.874 185.298 314.919 185.254L321.694 178.645C321.835 178.507 322.028 178.477 322.191 178.533H322.192C322.336 178.583 322.46 178.702 322.503 178.875Z" fill="#252B3D"/>
<path d="M319.543 203.767L320.881 203.802L320.593 202.649L319.543 203.767Z" fill="#252B3D"/>
<path d="M323.449 178.856L322.67 179.54L322.799 180.056L316.725 185.924L314.805 185.397C314.836 185.345 314.874 185.297 314.919 185.253L321.694 178.644C321.835 178.506 322.028 178.476 322.191 178.532L323.449 178.856Z" fill="#3A4059"/>
<path d="M323.909 179.323L328.228 196.649C328.284 196.872 328.216 197.108 328.05 197.267L321.418 203.632C321.062 203.973 320.47 203.803 320.351 203.324L316.054 186.083C315.999 185.862 316.065 185.628 316.229 185.469L322.84 179.02C323.193 178.673 323.79 178.842 323.909 179.323Z" fill="#51557C"/>
<path d="M323.237 180.732L327.167 196.499C327.196 196.617 327.16 196.743 327.072 196.827L321.591 202.087C321.522 202.153 321.436 202.183 321.352 202.182C321.206 202.18 321.065 202.085 321.025 201.924L317.112 186.227C317.083 186.11 317.118 185.985 317.205 185.901L320.096 183.081L322.669 180.571C322.686 180.555 322.704 180.54 322.723 180.528C322.911 180.405 323.179 180.5 323.237 180.732Z" fill="white"/>
<path d="M318.461 184.661L318.673 185.51C318.704 185.634 318.857 185.677 318.948 185.588L321.817 182.792C321.859 182.751 321.876 182.691 321.862 182.634L321.605 181.603L318.461 184.661Z" fill="#51557C"/>
<path d="M323.358 204.02C323.358 204.02 324.9 201.211 324.743 199.267C324.586 197.323 324.868 193.679 323.614 193.474C322.36 193.27 323.128 196.351 321.936 197.57C320.744 198.789 317.021 195.707 316.731 193.995C316.491 192.578 315.812 190.309 315.812 190.309C315.812 190.309 312.45 192.149 312.533 196.261C312.616 200.373 317.216 204.734 317.216 204.734C317.216 204.734 321.702 205.507 323.358 204.02Z" fill="#FCB38F"/>
<path d="M330.002 221.637C330.087 221.701 330.182 221.731 330.281 221.731C330.418 221.731 330.553 221.669 330.644 221.553C331.19 220.838 331.764 220.173 332.314 219.577C332.14 219.33 331.955 219.084 331.752 218.839C331.149 219.483 330.518 220.21 329.917 220.998C329.765 221.198 329.803 221.484 330.002 221.637Z" fill="url(#paint38_linear_4479_12334)"/>
<path d="M272.995 396.122C295.96 387.483 311.398 372.032 307.479 361.613C303.559 351.194 281.764 349.751 258.8 358.391C235.835 367.03 220.396 382.481 224.316 392.9C228.236 403.319 250.031 404.762 272.995 396.122Z" fill="#E5E5E5"/>
<path d="M300.156 328.849L260.727 351.613L234.441 336.437L273.63 313.534L300.156 328.849Z" fill="#6B749B"/>
<mask id="mask0_4479_12334" style="mask-type:luminance" maskUnits="userSpaceOnUse" x="240" y="295" width="54" height="53">
<path d="M241.275 336.419L260.728 347.65L293.292 328.849L292.582 301.267L275.229 295.127L240.371 313.448L241.275 336.419Z" fill="white"/>
</mask>
<g mask="url(#mask0_4479_12334)">
<path d="M293.29 328.849L273.639 317.503L241.273 336.419L260.726 347.65L293.29 328.849Z" fill="#252B3D"/>
</g>
<mask id="mask1_4479_12334" style="mask-type:luminance" maskUnits="userSpaceOnUse" x="240" y="295" width="54" height="53">
<path d="M241.275 336.419L260.728 347.65L293.292 328.849L292.582 301.267L275.229 295.127L240.371 313.448L241.275 336.419Z" fill="white"/>
</mask>
<g mask="url(#mask1_4479_12334)">
<path d="M284.752 304.753L284.832 330.788C284.833 331.048 284.695 331.288 284.47 331.417L254.339 348.813L252.649 349.788L253.088 352.748L249.38 351.427L249.287 351.394C249.036 351.286 248.847 351.039 248.848 350.728L248.877 322.162C248.878 322.049 248.904 321.94 248.953 321.842C249.015 321.716 249.113 321.608 249.239 321.536L283.658 301.618C283.85 301.507 284.062 301.495 284.247 301.557C284.263 301.562 284.278 301.567 284.293 301.573L288.169 302.964L284.752 304.753Z" fill="url(#paint39_linear_4479_12334)"/>
<path d="M252.649 349.789L253.088 352.749L249.38 351.428L249.287 351.395C249.036 351.287 248.847 351.04 248.848 350.729L248.877 322.163C248.878 322.05 248.904 321.941 248.953 321.843L253.875 323.525L254.339 348.814L252.649 349.789Z" fill="#33539B"/>
<path d="M288.632 332.141C288.633 332.401 288.495 332.642 288.27 332.771L253.734 352.71C253.251 352.989 252.647 352.64 252.648 352.082L252.65 350.043L252.651 348.405L252.677 323.626V323.516C252.678 323.258 252.815 323.019 253.039 322.89L253.089 322.861L287.457 302.972C287.691 302.837 287.953 302.849 288.161 302.961C288.382 303.079 288.543 303.31 288.544 303.597L288.545 303.969L288.613 326.116L288.616 327.015L288.632 332.141Z" fill="url(#paint40_linear_4479_12334)"/>
<path d="M266.354 327.673L252.648 350.043L252.649 348.405L265.625 327.226C265.748 327.024 266.011 326.961 266.212 327.085C266.414 327.208 266.477 327.471 266.354 327.673Z" fill="url(#paint41_linear_4479_12334)"/>
<path d="M288.615 327.014L276.542 323.114C276.318 323.041 276.195 322.801 276.267 322.577C276.339 322.352 276.58 322.229 276.805 322.301L288.612 326.116L288.615 327.014Z" fill="url(#paint42_linear_4479_12334)"/>
<path opacity="0.5" d="M252.676 323.626L273.111 331.546L288.545 303.969L272.35 329.427L252.676 323.626Z" fill="#33539B"/>
<path d="M288.545 303.969L272.588 330.015L252.676 323.627V323.517C252.677 323.259 252.814 323.02 253.038 322.891L253.088 322.862L272.21 328.997L288.16 302.961C288.381 303.079 288.542 303.31 288.543 303.597L288.545 303.969Z" fill="url(#paint43_linear_4479_12334)"/>
</g>
<path d="M300.156 328.849V374.378L260.727 397.142V351.613L300.156 328.849Z" fill="#51557C"/>
<path d="M260.727 397.142L234.441 381.653V336.437L260.727 351.613V397.142Z" fill="#3A4059"/>
<path d="M289.91 352.672L285.275 349.815L281.587 347.541L281.148 348.304L278.934 352.167L277.783 354.178L272.999 362.522C271.95 364.356 271.924 366.347 272.941 366.978C273.961 367.603 275.638 366.626 276.687 364.796L278.782 361.141L278.582 376.483C278.559 378.223 279.727 378.942 281.19 378.09C282.653 377.238 283.857 375.137 283.88 373.397L284.08 358.059L286.108 359.309C286.618 359.62 287.291 359.534 287.97 359.138C288.647 358.744 289.328 358.041 289.854 357.127C290.901 355.294 290.927 353.303 289.91 352.672Z" fill="#6B749B"/>
<path d="M282.246 92.1465L278.527 100.284V94.2935L282.246 92.1465Z" fill="url(#paint44_linear_4479_12334)"/>
<path d="M278.531 100.285L276.688 99.22V95.3569L278.529 94.2939L278.531 100.285Z" fill="#33539B"/>
<path d="M261.25 71.8564V98.9115L265.928 101.612L265.522 74.3414L261.25 71.8564Z" fill="#33539B"/>
<path d="M289.749 60.3545V87.8595L265.929 101.612L265.523 74.3415L289.749 60.3545Z" fill="url(#paint45_linear_4479_12334)"/>
<path d="M283.192 81.0158L283.273 84.7498L274.076 89.8828L274.012 86.9238L278.057 79.8338C278.824 78.4768 278.927 77.8608 278.916 77.3718C278.901 76.6778 278.515 76.4598 277.777 76.8718C277.088 77.2558 276.443 78.0918 276.117 79.1408L273.16 78.9538C273.954 76.5278 275.581 74.2568 278.056 72.8758C280.777 71.3568 282.733 72.0408 282.792 74.7548C282.822 76.1628 282.555 77.5928 280.923 80.4038L279.324 83.1758L283.192 81.0158Z" fill="white"/>
<path d="M261.25 71.8561L285.476 57.8691L289.748 60.3541L265.522 74.3411L261.25 71.8561Z" fill="url(#paint46_linear_4479_12334)"/>
<path d="M323.607 163.684L320.996 169.398V165.192L323.607 163.684Z" fill="url(#paint47_linear_4479_12334)"/>
<path d="M320.997 169.397L319.703 168.649V165.937L320.995 165.191L320.997 169.397Z" fill="#33539B"/>
<path d="M314.723 146.055V165.05L318.007 166.946L317.722 147.8L314.723 146.055Z" fill="#33539B"/>
<path d="M341.771 133.916V153.227L318.008 166.946L317.723 147.8L341.771 133.916Z" fill="url(#paint48_linear_4479_12334)"/>
<path d="M326.271 149.893C327.158 149.909 327.715 151.066 327.515 152.477C327.315 153.888 326.433 155.02 325.546 155.004C324.659 154.988 324.102 153.831 324.302 152.42C324.502 151.008 325.384 149.877 326.271 149.893Z" fill="white"/>
<path d="M330.924 147.413C331.811 147.429 332.368 148.586 332.168 149.997C331.968 151.408 331.086 152.539 330.199 152.524C329.312 152.508 328.755 151.351 328.955 149.94C329.155 148.528 330.037 147.397 330.924 147.413Z" fill="white"/>
<path d="M335.611 144.935C336.498 144.951 337.055 146.108 336.855 147.519C336.655 148.93 335.773 150.061 334.886 150.046C333.999 150.03 333.442 148.873 333.642 147.462C333.842 146.051 334.724 144.919 335.611 144.935Z" fill="white"/>
<path d="M314.723 146.055L338.76 132.177L341.759 133.922L317.722 147.8L314.723 146.055Z" fill="url(#paint49_linear_4479_12334)"/>
<path d="M346.566 104.297L350.254 112.367V106.426L346.566 104.297Z" fill="url(#paint50_linear_4479_12334)"/>
<path d="M350.25 112.367L352.079 111.312V107.48L350.253 106.426L350.25 112.367Z" fill="#33539B"/>
<path d="M367.39 84.1748V111.006L362.75 113.684L363.153 86.6398L367.39 84.1748Z" fill="#33539B"/>
<path d="M339.129 72.7686V100.046L362.751 113.684L363.154 86.6396L339.129 72.7686Z" fill="url(#paint51_linear_4479_12334)"/>
<path d="M367.391 84.1747L343.365 70.3037L339.129 72.7687L363.154 86.6397L367.391 84.1747Z" fill="url(#paint52_linear_4479_12334)"/>
<path d="M351.942 96.2803L348.244 94.1543L347.704 81.6543L353.251 84.8433L351.942 96.2803ZM349.845 102.918C348.243 101.997 347.182 99.8633 347.241 98.0353C347.301 96.1793 348.456 95.4043 350.057 96.3253C351.66 97.2463 352.724 99.2973 352.664 101.153C352.605 102.981 351.448 103.839 349.845 102.918Z" fill="white"/>
<path d="M61.043 90.1006L63.654 95.8146V91.6086L61.043 90.1006Z" fill="url(#paint53_linear_4479_12334)"/>
<path d="M63.6523 95.8144L64.9473 95.0664V92.3544L63.6553 91.6084L63.6523 95.8144Z" fill="#33539B"/>
<path d="M69.9256 72.4717V91.4667L66.6406 93.3627L66.9266 74.2167L69.9256 72.4717Z" fill="#33539B"/>
<path d="M42.8789 60.333V79.644L66.6409 93.363L66.9269 74.217L42.8789 60.333Z" fill="url(#paint54_linear_4479_12334)"/>
<path d="M58.3784 76.3097C57.4914 76.3257 56.9344 77.4827 57.1344 78.8937C57.3344 80.3047 58.2164 81.4367 59.1034 81.4207C59.9904 81.4047 60.5474 80.2477 60.3474 78.8367C60.1464 77.4257 59.2654 76.2937 58.3784 76.3097Z" fill="white"/>
<path d="M53.7222 73.8302C52.8352 73.8462 52.2782 75.0032 52.4782 76.4142C52.6782 77.8252 53.5602 78.9572 54.4472 78.9412C55.3342 78.9252 55.8912 77.7682 55.6912 76.3572C55.4912 74.9452 54.6092 73.8142 53.7222 73.8302Z" fill="white"/>
<path d="M49.0386 71.3517C48.1516 71.3677 47.5946 72.5247 47.7946 73.9357C47.9946 75.3467 48.8766 76.4787 49.7636 76.4627C50.6506 76.4467 51.2076 75.2897 51.0076 73.8787C50.8066 72.4677 49.9256 71.3357 49.0386 71.3517Z" fill="white"/>
<path d="M69.9276 72.4717L45.8896 58.5938L42.8906 60.3387L66.9286 74.2167L69.9276 72.4717Z" fill="url(#paint55_linear_4479_12334)"/>
<path d="M219.052 126.496C219.052 130.383 209.302 133.534 197.274 133.534C185.247 133.534 175.496 130.383 175.496 126.496C175.496 122.609 185.246 119.458 197.274 119.458C209.302 119.458 219.052 122.609 219.052 126.496Z" fill="#E5E5E5"/>
<path d="M212.948 94.4736V122.127C212.948 126.74 205.928 130.477 197.277 130.477C188.626 130.477 181.613 126.74 181.613 122.127V94.4736H212.948Z" fill="#51557C"/>
<path d="M197.277 102.826C205.931 102.826 212.945 99.0851 212.945 94.4703C212.945 89.8554 205.931 86.1143 197.277 86.1143C188.624 86.1143 181.609 89.8554 181.609 94.4703C181.609 99.0851 188.624 102.826 197.277 102.826Z" fill="#3A4059"/>
<path d="M210.982 94.4728C210.982 94.7588 210.884 95.0708 210.681 95.4088C209.47 97.4638 204.591 100.222 197.276 100.222C189.961 100.222 185.083 97.4648 183.871 95.4088C183.668 95.0708 183.57 94.7588 183.57 94.4728C183.57 92.4438 188.776 88.7148 197.276 88.7148C205.776 88.7148 210.982 92.4438 210.982 94.4728Z" fill="#252B3D"/>
<path d="M197.178 92.9013L196.045 91.9953L195.444 91.5143L193.742 90.1523C193.742 90.1523 197.806 50.6893 214.573 49.1973C219.735 48.7373 223.513 55.0553 212.949 66.8633C203.157 77.8073 197.178 92.9013 197.178 92.9013Z" fill="url(#paint56_linear_4479_12334)"/>
<path d="M196.042 91.9941L195.441 91.5131C197.523 82.7601 201.372 74.5451 204.367 68.9951C207.923 62.4051 211.077 58.0411 211.109 57.9981C211.222 57.8421 211.439 57.8081 211.594 57.9211C211.75 58.0341 211.785 58.2511 211.672 58.4061C211.64 58.4501 208.507 62.7831 204.973 69.3351C201.965 74.9141 198.089 83.1991 196.042 91.9941Z" fill="#33539B"/>
<path d="M188.86 80.387L189.721 79.219L190.177 78.599L191.47 76.844C191.47 76.844 177.366 39.765 160.781 42.647C155.675 43.534 153.655 50.612 166.906 59.296C179.19 67.347 188.86 80.387 188.86 80.387Z" fill="url(#paint57_linear_4479_12334)"/>
<path d="M189.722 79.219L190.178 78.599C185.909 70.679 180.071 63.734 175.746 59.145C170.611 53.695 166.437 50.292 166.396 50.259C166.247 50.137 166.028 50.16 165.907 50.31C165.785 50.459 165.808 50.678 165.957 50.799C165.999 50.833 170.143 54.211 175.248 59.631C179.594 64.244 185.476 71.249 189.722 79.219Z" fill="#33539B"/>
<path d="M201.279 95.3536C200.233 90.6736 196.203 70.9076 198.271 52.4346C200.823 29.6396 191.064 25.3576 185.361 30.2316C168.1 44.9816 191.503 89.3556 194.783 95.3536H201.279Z" fill="url(#paint58_linear_4479_12334)"/>
<path d="M199.051 95.3535C194.336 83.5215 192.045 70.9205 190.942 62.0445C189.612 51.3485 189.672 43.6085 189.672 43.5295C189.675 43.2525 189.451 43.0245 189.173 43.0225C188.895 43.0185 188.667 43.2415 188.665 43.5205C188.663 43.5975 188.604 51.3925 189.94 62.1515C191.038 70.9995 193.31 83.5275 197.969 95.3535H199.051Z" fill="url(#paint59_linear_4479_12334)"/>
<defs>
<linearGradient id="paint0_linear_4479_12334" x1="62.5273" y1="150.788" x2="141.343" y2="150.788" gradientUnits="userSpaceOnUse">
<stop stop-color="#0032A3"/>
<stop offset="0.25" stop-color="#1A51CB"/>
<stop offset="0.5" stop-color="#3B66C8"/>
<stop offset="0.75" stop-color="#1A51CB"/>
<stop offset="1" stop-color="#0032A3"/>
</linearGradient>
<linearGradient id="paint1_linear_4479_12334" x1="62.5273" y1="142.788" x2="141.343" y2="142.788" gradientUnits="userSpaceOnUse">
<stop stop-color="#FFC136"/>
<stop offset="0.197568" stop-color="#FAC142"/>
<stop offset="0.525" stop-color="#FFD168"/>
<stop offset="0.771328" stop-color="#F5BC3A"/>
<stop offset="1" stop-color="#E09B00"/>
</linearGradient>
<linearGradient id="paint2_linear_4479_12334" x1="70.4453" y1="102.451" x2="91.9123" y2="102.451" gradientUnits="userSpaceOnUse">
<stop stop-color="#0032A3"/>
<stop offset="0.25" stop-color="#1A51CB"/>
<stop offset="0.5" stop-color="#3B66C8"/>
<stop offset="0.75" stop-color="#1A51CB"/>
<stop offset="1" stop-color="#0032A3"/>
</linearGradient>
<linearGradient id="paint3_linear_4479_12334" x1="83.6992" y1="77.205" x2="97.3158" y2="77.205" gradientUnits="userSpaceOnUse">
<stop stop-color="#0032A3"/>
<stop offset="0.25" stop-color="#1A51CB"/>
<stop offset="0.5" stop-color="#3B66C8"/>
<stop offset="0.75" stop-color="#1A51CB"/>
<stop offset="1" stop-color="#0032A3"/>
</linearGradient>
<linearGradient id="paint4_linear_4479_12334" x1="36.4492" y1="208.103" x2="59.676" y2="208.103" gradientUnits="userSpaceOnUse">
<stop stop-color="#FFC136"/>
<stop offset="0.197568" stop-color="#FAC142"/>
<stop offset="0.525" stop-color="#FFD168"/>
<stop offset="0.771328" stop-color="#F5BC3A"/>
<stop offset="1" stop-color="#E09B00"/>
</linearGradient>
<linearGradient id="paint5_linear_4479_12334" x1="88.3516" y1="91.6467" x2="127.834" y2="91.6467" gradientUnits="userSpaceOnUse">
<stop stop-color="#FFC136"/>
<stop offset="0.197568" stop-color="#FAC142"/>
<stop offset="0.525" stop-color="#FFD168"/>
<stop offset="0.771328" stop-color="#F5BC3A"/>
<stop offset="1" stop-color="#E09B00"/>
</linearGradient>
<linearGradient id="paint6_linear_4479_12334" x1="93.625" y1="91.2542" x2="113.246" y2="91.2542" gradientUnits="userSpaceOnUse">
<stop stop-color="#0032A3"/>
<stop offset="0.25" stop-color="#1A51CB"/>
<stop offset="0.5" stop-color="#3B66C8"/>
<stop offset="0.75" stop-color="#1A51CB"/>
<stop offset="1" stop-color="#0032A3"/>
</linearGradient>
<linearGradient id="paint7_linear_4479_12334" x1="98.4727" y1="72.5406" x2="105.758" y2="72.5406" gradientUnits="userSpaceOnUse">
<stop stop-color="#0032A3"/>
<stop offset="0.25" stop-color="#1A51CB"/>
<stop offset="0.5" stop-color="#3B66C8"/>
<stop offset="0.75" stop-color="#1A51CB"/>
<stop offset="1" stop-color="#0032A3"/>
</linearGradient>
<linearGradient id="paint8_linear_4479_12334" x1="93.1523" y1="114.906" x2="112.562" y2="114.906" gradientUnits="userSpaceOnUse">
<stop stop-color="#0032A3"/>
<stop offset="0.25" stop-color="#1A51CB"/>
<stop offset="0.5" stop-color="#3B66C8"/>
<stop offset="0.75" stop-color="#1A51CB"/>
<stop offset="1" stop-color="#0032A3"/>
</linearGradient>
<linearGradient id="paint9_linear_4479_12334" x1="100.289" y1="114.143" x2="111.192" y2="114.143" gradientUnits="userSpaceOnUse">
<stop stop-color="#0032A3"/>
<stop offset="0.25" stop-color="#1A51CB"/>
<stop offset="0.5" stop-color="#3B66C8"/>
<stop offset="0.75" stop-color="#1A51CB"/>
<stop offset="1" stop-color="#0032A3"/>
</linearGradient>
<linearGradient id="paint10_linear_4479_12334" x1="10.2695" y1="182.814" x2="37.4177" y2="182.814" gradientUnits="userSpaceOnUse">
<stop stop-color="#FFC136"/>
<stop offset="0.197568" stop-color="#FAC142"/>
<stop offset="0.525" stop-color="#FFD168"/>
<stop offset="0.771328" stop-color="#F5BC3A"/>
<stop offset="1" stop-color="#E09B00"/>
</linearGradient>
<linearGradient id="paint11_linear_4479_12334" x1="104.199" y1="25.2595" x2="118.829" y2="25.2595" gradientUnits="userSpaceOnUse">
<stop stop-color="#FFC136"/>
<stop offset="0.197568" stop-color="#FAC142"/>
<stop offset="0.525" stop-color="#FFD168"/>
<stop offset="0.771328" stop-color="#F5BC3A"/>
<stop offset="1" stop-color="#E09B00"/>
</linearGradient>
<linearGradient id="paint12_linear_4479_12334" x1="119.082" y1="80.0974" x2="131.391" y2="80.0974" gradientUnits="userSpaceOnUse">
<stop stop-color="#0032A3"/>
<stop offset="0.25" stop-color="#1A51CB"/>
<stop offset="0.5" stop-color="#3B66C8"/>
<stop offset="0.75" stop-color="#1A51CB"/>
<stop offset="1" stop-color="#0032A3"/>
</linearGradient>
<linearGradient id="paint13_linear_4479_12334" x1="101.191" y1="112.077" x2="127.759" y2="112.077" gradientUnits="userSpaceOnUse">
<stop stop-color="#0032A3"/>
<stop offset="0.25" stop-color="#1A51CB"/>
<stop offset="0.5" stop-color="#3B66C8"/>
<stop offset="0.75" stop-color="#1A51CB"/>
<stop offset="1" stop-color="#0032A3"/>
</linearGradient>
<linearGradient id="paint14_linear_4479_12334" x1="160.902" y1="188.487" x2="295.068" y2="188.487" gradientUnits="userSpaceOnUse">
<stop stop-color="#0032A3"/>
<stop offset="0.25" stop-color="#1A51CB"/>
<stop offset="0.5" stop-color="#3B66C8"/>
<stop offset="0.75" stop-color="#1A51CB"/>
<stop offset="1" stop-color="#0032A3"/>
</linearGradient>
<linearGradient id="paint15_linear_4479_12334" x1="173.867" y1="190.895" x2="296.65" y2="190.895" gradientUnits="userSpaceOnUse">
<stop stop-color="#FFC136"/>
<stop offset="0.197568" stop-color="#FAC142"/>
<stop offset="0.525" stop-color="#FFD168"/>
<stop offset="0.771328" stop-color="#F5BC3A"/>
<stop offset="1" stop-color="#E09B00"/>
</linearGradient>
<linearGradient id="paint16_linear_4479_12334" x1="173.871" y1="227.376" x2="220.852" y2="227.376" gradientUnits="userSpaceOnUse">
<stop stop-color="#0032A3"/>
<stop offset="0.25" stop-color="#1A51CB"/>
<stop offset="0.5" stop-color="#3B66C8"/>
<stop offset="0.75" stop-color="#1A51CB"/>
<stop offset="1" stop-color="#0032A3"/>
</linearGradient>
<linearGradient id="paint17_linear_4479_12334" x1="254.395" y1="179.999" x2="296.597" y2="179.999" gradientUnits="userSpaceOnUse">
<stop stop-color="#0032A3"/>
<stop offset="0.25" stop-color="#1A51CB"/>
<stop offset="0.5" stop-color="#3B66C8"/>
<stop offset="0.75" stop-color="#1A51CB"/>
<stop offset="1" stop-color="#0032A3"/>
</linearGradient>
<linearGradient id="paint18_linear_4479_12334" x1="173.965" y1="152.156" x2="296.355" y2="152.156" gradientUnits="userSpaceOnUse">
<stop stop-color="#0032A3"/>
<stop offset="0.25" stop-color="#1A51CB"/>
<stop offset="0.5" stop-color="#3B66C8"/>
<stop offset="0.75" stop-color="#1A51CB"/>
<stop offset="1" stop-color="#0032A3"/>
</linearGradient>
<linearGradient id="paint19_linear_4479_12334" x1="0.292969" y1="298.554" x2="28.5731" y2="298.554" gradientUnits="userSpaceOnUse">
<stop stop-color="#FFC136"/>
<stop offset="0.197568" stop-color="#FAC142"/>
<stop offset="0.525" stop-color="#FFD168"/>
<stop offset="0.771328" stop-color="#F5BC3A"/>
<stop offset="1" stop-color="#E09B00"/>
</linearGradient>
<linearGradient id="paint20_linear_4479_12334" x1="7.43359" y1="298.929" x2="23.8751" y2="298.929" gradientUnits="userSpaceOnUse">
<stop stop-color="#0032A3"/>
<stop offset="0.25" stop-color="#1A51CB"/>
<stop offset="0.5" stop-color="#3B66C8"/>
<stop offset="0.75" stop-color="#1A51CB"/>
<stop offset="1" stop-color="#0032A3"/>
</linearGradient>
<linearGradient id="paint21_linear_4479_12334" x1="13.5664" y1="260.114" x2="39.8637" y2="260.114" gradientUnits="userSpaceOnUse">
<stop stop-color="#FFC136"/>
<stop offset="0.197568" stop-color="#FAC142"/>
<stop offset="0.525" stop-color="#FFD168"/>
<stop offset="0.771328" stop-color="#F5BC3A"/>
<stop offset="1" stop-color="#E09B00"/>
</linearGradient>
<linearGradient id="paint22_linear_4479_12334" x1="22.9766" y1="260.779" x2="32.1819" y2="260.779" gradientUnits="userSpaceOnUse">
<stop stop-color="#0032A3"/>
<stop offset="0.25" stop-color="#1A51CB"/>
<stop offset="0.5" stop-color="#3B66C8"/>
<stop offset="0.75" stop-color="#1A51CB"/>
<stop offset="1" stop-color="#0032A3"/>
</linearGradient>
<linearGradient id="paint23_linear_4479_12334" x1="38.3164" y1="269.774" x2="68.3697" y2="269.774" gradientUnits="userSpaceOnUse">
<stop stop-color="#FFC136"/>
<stop offset="0.197568" stop-color="#FAC142"/>
<stop offset="0.525" stop-color="#FFD168"/>
<stop offset="0.771328" stop-color="#F5BC3A"/>
<stop offset="1" stop-color="#E09B00"/>
</linearGradient>
<linearGradient id="paint24_linear_4479_12334" x1="41.9766" y1="268.072" x2="61.5973" y2="268.072" gradientUnits="userSpaceOnUse">
<stop stop-color="#0032A3"/>
<stop offset="0.25" stop-color="#1A51CB"/>
<stop offset="0.5" stop-color="#3B66C8"/>
<stop offset="0.75" stop-color="#1A51CB"/>
<stop offset="1" stop-color="#0032A3"/>
</linearGradient>
<linearGradient id="paint25_linear_4479_12334" x1="46.1562" y1="299.084" x2="71.5469" y2="299.084" gradientUnits="userSpaceOnUse">
<stop stop-color="#FFC136"/>
<stop offset="0.197568" stop-color="#FAC142"/>
<stop offset="0.525" stop-color="#FFD168"/>
<stop offset="0.771328" stop-color="#F5BC3A"/>
<stop offset="1" stop-color="#E09B00"/>
</linearGradient>
<linearGradient id="paint26_linear_4479_12334" x1="52.4453" y1="298.924" x2="66.5543" y2="298.924" gradientUnits="userSpaceOnUse">
<stop stop-color="#0032A3"/>
<stop offset="0.25" stop-color="#1A51CB"/>
<stop offset="0.5" stop-color="#3B66C8"/>
<stop offset="0.75" stop-color="#1A51CB"/>
<stop offset="1" stop-color="#0032A3"/>
</linearGradient>
<linearGradient id="paint27_linear_4479_12334" x1="385.367" y1="385.389" x2="410.488" y2="385.389" gradientUnits="userSpaceOnUse">
<stop stop-color="#FFC136"/>
<stop offset="0.197568" stop-color="#FAC142"/>
<stop offset="0.525" stop-color="#FFD168"/>
<stop offset="0.771328" stop-color="#F5BC3A"/>
<stop offset="1" stop-color="#E09B00"/>
</linearGradient>
<linearGradient id="paint28_linear_4479_12334" x1="386.77" y1="225.995" x2="405.738" y2="225.995" gradientUnits="userSpaceOnUse">
<stop stop-color="#0032A3"/>
<stop offset="0.25" stop-color="#1A51CB"/>
<stop offset="0.5" stop-color="#3B66C8"/>
<stop offset="0.75" stop-color="#1A51CB"/>
<stop offset="1" stop-color="#0032A3"/>
</linearGradient>
<linearGradient id="paint29_linear_4479_12334" x1="340.582" y1="384.824" x2="363.389" y2="384.824" gradientUnits="userSpaceOnUse">
<stop stop-color="#FFC136"/>
<stop offset="0.197568" stop-color="#FAC142"/>
<stop offset="0.525" stop-color="#FFD168"/>
<stop offset="0.771328" stop-color="#F5BC3A"/>
<stop offset="1" stop-color="#E09B00"/>
</linearGradient>
<linearGradient id="paint30_linear_4479_12334" x1="352.723" y1="234.904" x2="396.767" y2="234.904" gradientUnits="userSpaceOnUse">
<stop stop-color="#FFC136"/>
<stop offset="0.197568" stop-color="#FAC142"/>
<stop offset="0.525" stop-color="#FFD168"/>
<stop offset="0.771328" stop-color="#F5BC3A"/>
<stop offset="1" stop-color="#E09B00"/>
</linearGradient>
<linearGradient id="paint31_linear_4479_12334" x1="371.695" y1="255.57" x2="392.164" y2="255.57" gradientUnits="userSpaceOnUse">
<stop stop-color="#0032A3"/>
<stop offset="0.25" stop-color="#1A51CB"/>
<stop offset="0.5" stop-color="#3B66C8"/>
<stop offset="0.75" stop-color="#1A51CB"/>
<stop offset="1" stop-color="#0032A3"/>
</linearGradient>
<linearGradient id="paint32_linear_4479_12334" x1="353.969" y1="215.233" x2="358.712" y2="215.233" gradientUnits="userSpaceOnUse">
<stop stop-color="#0032A3"/>
<stop offset="0.25" stop-color="#1A51CB"/>
<stop offset="0.5" stop-color="#3B66C8"/>
<stop offset="0.75" stop-color="#1A51CB"/>
<stop offset="1" stop-color="#0032A3"/>
</linearGradient>
<linearGradient id="paint33_linear_4479_12334" x1="376.723" y1="229.304" x2="387.701" y2="229.304" gradientUnits="userSpaceOnUse">
<stop stop-color="#0032A3"/>
<stop offset="0.25" stop-color="#1A51CB"/>
<stop offset="0.5" stop-color="#3B66C8"/>
<stop offset="0.75" stop-color="#1A51CB"/>
<stop offset="1" stop-color="#0032A3"/>
</linearGradient>
<linearGradient id="paint34_linear_4479_12334" x1="355.844" y1="162.42" x2="381.587" y2="162.42" gradientUnits="userSpaceOnUse">
<stop stop-color="#FFC136"/>
<stop offset="0.197568" stop-color="#FAC142"/>
<stop offset="0.525" stop-color="#FFD168"/>
<stop offset="0.771328" stop-color="#F5BC3A"/>
<stop offset="1" stop-color="#E09B00"/>
</linearGradient>
<linearGradient id="paint35_linear_4479_12334" x1="354.137" y1="167.304" x2="381.729" y2="167.304" gradientUnits="userSpaceOnUse">
<stop stop-color="#0032A3"/>
<stop offset="0.25" stop-color="#1A51CB"/>
<stop offset="0.5" stop-color="#3B66C8"/>
<stop offset="0.75" stop-color="#1A51CB"/>
<stop offset="1" stop-color="#0032A3"/>
</linearGradient>
<linearGradient id="paint36_linear_4479_12334" x1="329.996" y1="214.052" x2="356.881" y2="214.052" gradientUnits="userSpaceOnUse">
<stop stop-color="#FFC136"/>
<stop offset="0.197568" stop-color="#FAC142"/>
<stop offset="0.525" stop-color="#FFD168"/>
<stop offset="0.771328" stop-color="#F5BC3A"/>
<stop offset="1" stop-color="#E09B00"/>
</linearGradient>
<linearGradient id="paint37_linear_4479_12334" x1="316.805" y1="216.765" x2="334.541" y2="216.765" gradientUnits="userSpaceOnUse">
<stop stop-color="#FFC136"/>
<stop offset="0.197568" stop-color="#FAC142"/>
<stop offset="0.525" stop-color="#FFD168"/>
<stop offset="0.771328" stop-color="#F5BC3A"/>
<stop offset="1" stop-color="#E09B00"/>
</linearGradient>
<linearGradient id="paint38_linear_4479_12334" x1="329.824" y1="220.285" x2="332.314" y2="220.285" gradientUnits="userSpaceOnUse">
<stop stop-color="#0032A3"/>
<stop offset="0.25" stop-color="#1A51CB"/>
<stop offset="0.5" stop-color="#3B66C8"/>
<stop offset="0.75" stop-color="#1A51CB"/>
<stop offset="1" stop-color="#0032A3"/>
</linearGradient>
<linearGradient id="paint39_linear_4479_12334" x1="248.848" y1="327.134" x2="288.169" y2="327.134" gradientUnits="userSpaceOnUse">
<stop stop-color="#0032A3"/>
<stop offset="0.25" stop-color="#1A51CB"/>
<stop offset="0.5" stop-color="#3B66C8"/>
<stop offset="0.75" stop-color="#1A51CB"/>
<stop offset="1" stop-color="#0032A3"/>
</linearGradient>
<linearGradient id="paint40_linear_4479_12334" x1="252.648" y1="327.841" x2="288.632" y2="327.841" gradientUnits="userSpaceOnUse">
<stop stop-color="#FFC136"/>
<stop offset="0.197568" stop-color="#FAC142"/>
<stop offset="0.525" stop-color="#FFD168"/>
<stop offset="0.771328" stop-color="#F5BC3A"/>
<stop offset="1" stop-color="#E09B00"/>
</linearGradient>
<linearGradient id="paint41_linear_4479_12334" x1="252.648" y1="338.532" x2="266.417" y2="338.532" gradientUnits="userSpaceOnUse">
<stop stop-color="#0032A3"/>
<stop offset="0.25" stop-color="#1A51CB"/>
<stop offset="0.5" stop-color="#3B66C8"/>
<stop offset="0.75" stop-color="#1A51CB"/>
<stop offset="1" stop-color="#0032A3"/>
</linearGradient>
<linearGradient id="paint42_linear_4479_12334" x1="276.246" y1="324.647" x2="288.615" y2="324.647" gradientUnits="userSpaceOnUse">
<stop stop-color="#0032A3"/>
<stop offset="0.25" stop-color="#1A51CB"/>
<stop offset="0.5" stop-color="#3B66C8"/>
<stop offset="0.75" stop-color="#1A51CB"/>
<stop offset="1" stop-color="#0032A3"/>
</linearGradient>
<linearGradient id="paint43_linear_4479_12334" x1="252.676" y1="316.488" x2="288.545" y2="316.488" gradientUnits="userSpaceOnUse">
<stop stop-color="#0032A3"/>
<stop offset="0.25" stop-color="#1A51CB"/>
<stop offset="0.5" stop-color="#3B66C8"/>
<stop offset="0.75" stop-color="#1A51CB"/>
<stop offset="1" stop-color="#0032A3"/>
</linearGradient>
<linearGradient id="paint44_linear_4479_12334" x1="278.527" y1="96.2155" x2="282.246" y2="96.2155" gradientUnits="userSpaceOnUse">
<stop stop-color="#FFC136"/>
<stop offset="0.197568" stop-color="#FAC142"/>
<stop offset="0.525" stop-color="#FFD168"/>
<stop offset="0.771328" stop-color="#F5BC3A"/>
<stop offset="1" stop-color="#E09B00"/>
</linearGradient>
<linearGradient id="paint45_linear_4479_12334" x1="265.523" y1="80.9835" x2="289.749" y2="80.9835" gradientUnits="userSpaceOnUse">
<stop stop-color="#FFC136"/>
<stop offset="0.197568" stop-color="#FAC142"/>
<stop offset="0.525" stop-color="#FFD168"/>
<stop offset="0.771328" stop-color="#F5BC3A"/>
<stop offset="1" stop-color="#E09B00"/>
</linearGradient>
<linearGradient id="paint46_linear_4479_12334" x1="261.25" y1="66.1051" x2="289.748" y2="66.1051" gradientUnits="userSpaceOnUse">
<stop stop-color="#0032A3"/>
<stop offset="0.25" stop-color="#1A51CB"/>
<stop offset="0.5" stop-color="#3B66C8"/>
<stop offset="0.75" stop-color="#1A51CB"/>
<stop offset="1" stop-color="#0032A3"/>
</linearGradient>
<linearGradient id="paint47_linear_4479_12334" x1="320.996" y1="166.541" x2="323.607" y2="166.541" gradientUnits="userSpaceOnUse">
<stop stop-color="#FFC136"/>
<stop offset="0.197568" stop-color="#FAC142"/>
<stop offset="0.525" stop-color="#FFD168"/>
<stop offset="0.771328" stop-color="#F5BC3A"/>
<stop offset="1" stop-color="#E09B00"/>
</linearGradient>
<linearGradient id="paint48_linear_4479_12334" x1="317.723" y1="150.431" x2="341.771" y2="150.431" gradientUnits="userSpaceOnUse">
<stop stop-color="#FFC136"/>
<stop offset="0.197568" stop-color="#FAC142"/>
<stop offset="0.525" stop-color="#FFD168"/>
<stop offset="0.771328" stop-color="#F5BC3A"/>
<stop offset="1" stop-color="#E09B00"/>
</linearGradient>
<linearGradient id="paint49_linear_4479_12334" x1="314.723" y1="139.988" x2="341.759" y2="139.988" gradientUnits="userSpaceOnUse">
<stop stop-color="#0032A3"/>
<stop offset="0.25" stop-color="#1A51CB"/>
<stop offset="0.5" stop-color="#3B66C8"/>
<stop offset="0.75" stop-color="#1A51CB"/>
<stop offset="1" stop-color="#0032A3"/>
</linearGradient>
<linearGradient id="paint50_linear_4479_12334" x1="346.566" y1="108.332" x2="350.254" y2="108.332" gradientUnits="userSpaceOnUse">
<stop stop-color="#FFC136"/>
<stop offset="0.197568" stop-color="#FAC142"/>
<stop offset="0.525" stop-color="#FFD168"/>
<stop offset="0.771328" stop-color="#F5BC3A"/>
<stop offset="1" stop-color="#E09B00"/>
</linearGradient>
<linearGradient id="paint51_linear_4479_12334" x1="339.129" y1="93.2261" x2="363.154" y2="93.2261" gradientUnits="userSpaceOnUse">
<stop stop-color="#FFC136"/>
<stop offset="0.197568" stop-color="#FAC142"/>
<stop offset="0.525" stop-color="#FFD168"/>
<stop offset="0.771328" stop-color="#F5BC3A"/>
<stop offset="1" stop-color="#E09B00"/>
</linearGradient>
<linearGradient id="paint52_linear_4479_12334" x1="339.129" y1="78.4717" x2="367.391" y2="78.4717" gradientUnits="userSpaceOnUse">
<stop stop-color="#0032A3"/>
<stop offset="0.25" stop-color="#1A51CB"/>
<stop offset="0.5" stop-color="#3B66C8"/>
<stop offset="0.75" stop-color="#1A51CB"/>
<stop offset="1" stop-color="#0032A3"/>
</linearGradient>
<linearGradient id="paint53_linear_4479_12334" x1="61.043" y1="92.9576" x2="63.654" y2="92.9576" gradientUnits="userSpaceOnUse">
<stop stop-color="#FFC136"/>
<stop offset="0.197568" stop-color="#FAC142"/>
<stop offset="0.525" stop-color="#FFD168"/>
<stop offset="0.771328" stop-color="#F5BC3A"/>
<stop offset="1" stop-color="#E09B00"/>
</linearGradient>
<linearGradient id="paint54_linear_4479_12334" x1="42.8789" y1="76.848" x2="66.9269" y2="76.848" gradientUnits="userSpaceOnUse">
<stop stop-color="#FFC136"/>
<stop offset="0.197568" stop-color="#FAC142"/>
<stop offset="0.525" stop-color="#FFD168"/>
<stop offset="0.771328" stop-color="#F5BC3A"/>
<stop offset="1" stop-color="#E09B00"/>
</linearGradient>
<linearGradient id="paint55_linear_4479_12334" x1="42.8906" y1="66.4052" x2="69.9276" y2="66.4052" gradientUnits="userSpaceOnUse">
<stop stop-color="#0032A3"/>
<stop offset="0.25" stop-color="#1A51CB"/>
<stop offset="0.5" stop-color="#3B66C8"/>
<stop offset="0.75" stop-color="#1A51CB"/>
<stop offset="1" stop-color="#0032A3"/>
</linearGradient>
<linearGradient id="paint56_linear_4479_12334" x1="193.742" y1="71.0376" x2="219.686" y2="71.0376" gradientUnits="userSpaceOnUse">
<stop stop-color="#0032A3"/>
<stop offset="0.25" stop-color="#1A51CB"/>
<stop offset="0.5" stop-color="#3B66C8"/>
<stop offset="0.75" stop-color="#1A51CB"/>
<stop offset="1" stop-color="#0032A3"/>
</linearGradient>
<linearGradient id="paint57_linear_4479_12334" x1="156.871" y1="61.4372" x2="191.47" y2="61.4372" gradientUnits="userSpaceOnUse">
<stop stop-color="#0032A3"/>
<stop offset="0.25" stop-color="#1A51CB"/>
<stop offset="0.5" stop-color="#3B66C8"/>
<stop offset="0.75" stop-color="#1A51CB"/>
<stop offset="1" stop-color="#0032A3"/>
</linearGradient>
<linearGradient id="paint58_linear_4479_12334" x1="179.074" y1="61.8936" x2="201.279" y2="61.8936" gradientUnits="userSpaceOnUse">
<stop stop-color="#FFC136"/>
<stop offset="0.197568" stop-color="#FAC142"/>
<stop offset="0.525" stop-color="#FFD168"/>
<stop offset="0.771328" stop-color="#F5BC3A"/>
<stop offset="1" stop-color="#E09B00"/>
</linearGradient>
<linearGradient id="paint59_linear_4479_12334" x1="188.664" y1="69.188" x2="199.051" y2="69.188" gradientUnits="userSpaceOnUse">
<stop stop-color="#0032A3"/>
<stop offset="0.25" stop-color="#1A51CB"/>
<stop offset="0.5" stop-color="#3B66C8"/>
<stop offset="0.75" stop-color="#1A51CB"/>
<stop offset="1" stop-color="#0032A3"/>
</linearGradient>
</defs>
</svg>
