<svg width="50" height="34" viewBox="0 0 50 34" fill="none" xmlns="http://www.w3.org/2000/svg">
<g id="Valuebox logo 1 1">
<g id="Group">
<path id="Vector" fill-rule="evenodd" clip-rule="evenodd" d="M24.3283 9.35938L19.9383 10.0694C19.9383 11.4794 20.9683 11.0694 20.9683 12.7994L16.1283 25.6994L11.0583 9.35938L4.23828 10.0494C4.23828 11.2994 5.80828 10.9194 6.16828 11.6494L13.4783 31.9794H15.4283L24.2983 9.46938C24.3283 9.43938 24.3283 9.40938 24.3283 9.38938V9.35938Z" fill="#3E4097"/>
<path id="Vector_2" fill-rule="evenodd" clip-rule="evenodd" d="M25.7422 9.38949V31.9895L36.1822 31.9095C36.9722 31.8995 37.7722 31.9395 38.5522 31.7995C43.2022 30.9595 49.1422 25.1595 43.3822 19.8795C45.4322 17.8595 45.9322 12.3595 40.8522 10.0695C39.1522 9.29949 38.3722 9.35949 36.5922 9.35949L25.7422 9.38949Z" fill="#EEA500"/>
<path id="Vector_3" fill-rule="evenodd" clip-rule="evenodd" d="M33.5666 8.82981C33.9766 7.38981 34.7966 6.20981 35.9466 5.61981C36.8766 5.10981 38.2266 5.87981 37.1666 7.03981C36.1966 7.92981 35.0066 8.69981 33.5666 8.82981ZM32.1566 8.67981C31.9566 7.01981 30.6266 3.49981 28.6966 3.22981C28.3066 3.16981 27.9166 3.26981 27.7566 3.55981C27.0266 4.95981 30.5866 8.18981 32.1566 8.67981ZM32.3166 9.72981C29.9066 8.91981 28.5766 8.46981 26.8566 5.44981C26.3866 4.61981 26.2666 3.68981 26.8466 2.72981C27.3566 1.89981 28.5766 1.83981 29.6966 2.31981C31.6766 3.15981 32.2066 5.22981 33.0466 7.06981C34.1866 5.06981 35.4066 4.05981 37.3866 4.54981C39.1666 5.31981 39.0966 6.67981 37.8666 7.79981C36.7266 8.82981 35.2866 9.54981 33.6166 9.79981L33.6666 15.4598H44.8066C44.8466 15.9498 44.8166 16.3398 44.7666 16.7798H33.6866L33.8166 31.9298L32.4966 31.9398L32.3666 16.7698H25.7266V15.4498H32.3466L32.3166 9.72981Z" fill="#3E4093"/>
</g>
</g>
</svg>
