<svg width="1728" height="300" viewBox="0 0 1728 300" fill="none" xmlns="http://www.w3.org/2000/svg">
<g clip-path="url(#clip0_5979_15961)">
<rect width="1728" height="300" fill="#7A5AF8"/>
<path d="M1865.97 10.5618L1865.78 10.3718C1861.45 6.04461 1854.43 6.04504 1850.1 10.3727L1848.24 12.2331C1843.92 16.5607 1836.9 16.5611 1832.57 12.234L1832.38 12.044C1828.05 7.71681 1821.04 7.71725 1816.71 12.0449L1799.93 28.823C1795.55 33.2031 1788.45 33.2031 1784.07 28.823C1779.69 24.4428 1779.69 17.3412 1784.07 12.9611L1808.87 -11.8362C1813.19 -16.1638 1813.19 -23.1805 1808.87 -27.5077L1808.68 -27.6977C1804.35 -32.0253 1797.33 -32.0248 1793 -27.6972L1738.43 26.8737C1734.05 31.2538 1726.95 31.2538 1722.57 26.8737C1718.19 22.4935 1718.19 15.3919 1722.57 11.0118L1777.14 -43.5591C1781.47 -47.8867 1781.47 -54.9034 1777.14 -59.231L1776.95 -59.421C1772.62 -63.7486 1765.61 -63.7482 1761.28 -59.4206L1636.37 65.4881C1631.99 69.8682 1631.99 76.9698 1636.37 81.35C1640.75 85.7301 1640.75 92.8317 1636.37 97.2119L1581.89 151.688C1577.51 156.068 1577.51 163.17 1581.89 167.55C1586.27 171.93 1593.38 171.93 1597.76 167.55L1652.23 113.073C1656.61 108.693 1663.71 108.693 1668.09 113.073C1672.47 117.453 1672.47 124.555 1668.09 128.935L1643.39 153.637C1639.01 158.017 1639.01 165.119 1643.39 169.499C1647.77 173.879 1654.87 173.879 1659.25 169.499L1675.94 152.815C1680.32 148.434 1687.42 148.434 1691.8 152.815C1696.18 157.195 1703.28 157.195 1707.66 152.815L1709.34 151.142C1713.72 146.762 1720.82 146.762 1725.2 151.142C1729.58 155.522 1736.68 155.522 1741.06 151.142L1865.97 26.2337C1870.29 21.9061 1870.29 14.8894 1865.97 10.5618Z" fill="url(#paint0_linear_5979_15961)"/>
<path d="M1658.97 50.824C1663.25 55.1069 1663.25 62.051 1658.97 66.3344L1626.27 99.0265C1621.99 103.309 1621.99 110.253 1626.27 114.537C1630.56 118.82 1630.56 125.764 1626.27 130.047L1619.41 136.905C1615.13 141.188 1615.13 148.132 1619.41 152.416C1623.7 156.699 1630.64 156.699 1634.93 152.416L1745.17 42.1718C1749.45 37.8889 1749.45 30.9449 1745.17 26.6615C1740.89 22.3785 1740.89 15.4345 1745.17 11.1515L1752.03 4.29327C1756.31 0.0103226 1756.31 -6.93372 1752.03 -11.2171C1747.74 -15.5001 1747.74 -22.4441 1752.03 -26.7271L1784.72 -59.4196C1789 -63.7026 1789 -70.6466 1784.72 -74.9296C1780.44 -79.2125 1773.49 -79.2125 1769.21 -74.9296L1750.86 -56.5838C1746.58 -52.3009 1739.64 -52.3009 1735.35 -56.5838C1731.07 -60.8668 1724.13 -60.8668 1719.84 -56.5838L1695.92 -32.6647C1691.64 -28.3818 1684.7 -28.3818 1680.41 -32.6647C1676.13 -36.9477 1676.13 -43.8917 1680.41 -48.1751L1689.99 -57.7478C1694.27 -62.0308 1694.27 -68.9748 1689.99 -73.2582C1685.7 -77.5412 1685.7 -84.4852 1689.99 -88.7686L1709.5 -108.277C1713.78 -112.56 1713.78 -119.504 1709.5 -123.788C1705.21 -128.071 1698.27 -128.071 1693.99 -123.788L1674.48 -104.279C1670.19 -99.996 1663.25 -99.996 1658.97 -104.279C1654.68 -108.562 1647.74 -108.562 1643.46 -104.279L1533.21 5.96547C1528.93 10.2484 1528.93 17.1925 1533.21 21.4754C1537.5 25.7584 1544.44 25.7584 1548.72 21.4754L1568.23 1.96663C1572.51 -2.31632 1579.46 -2.31632 1583.74 1.96663C1588.02 6.24959 1588.02 13.1936 1583.74 17.477L1564.23 36.9858C1559.95 41.2688 1559.95 48.2128 1564.23 52.4962C1568.52 56.7791 1568.52 63.7232 1564.23 68.0061L1554.66 77.5789C1550.38 81.8618 1550.38 88.8059 1554.66 93.0892C1558.94 97.3722 1565.89 97.3722 1570.17 93.0892L1594.09 69.1697C1598.37 64.8867 1605.32 64.8867 1609.6 69.1697C1613.88 73.4526 1620.83 73.4526 1625.11 69.1697L1643.45 50.824C1647.74 46.5406 1654.68 46.5406 1658.97 50.824Z" fill="url(#paint1_linear_5979_15961)"/>
<path d="M1715.18 184C1721.38 184 1726.4 178.978 1726.4 172.784C1726.4 166.589 1721.38 161.568 1715.18 161.568C1708.99 161.568 1703.97 166.589 1703.97 172.784C1703.97 178.978 1708.99 184 1715.18 184Z" fill="url(#paint2_linear_5979_15961)"/>
<path d="M1544.63 118.135C1550.82 118.135 1555.85 113.113 1555.85 106.919C1555.85 100.724 1550.82 95.7026 1544.63 95.7026C1538.44 95.7026 1533.41 100.724 1533.41 106.919C1533.41 113.113 1538.44 118.135 1544.63 118.135Z" fill="url(#paint3_linear_5979_15961)"/>
<path d="M178.873 255.061L178.699 254.887C174.733 250.922 168.303 250.922 164.337 254.888L162.632 256.593C158.666 260.559 152.236 260.559 148.27 256.594L148.096 256.42C144.129 252.454 137.699 252.455 133.733 256.42L118.358 271.796C114.344 275.81 107.836 275.81 103.822 271.796C99.8078 267.782 99.8078 261.274 103.822 257.26L126.546 234.536C130.512 230.57 130.512 224.14 126.546 220.175L126.371 220C122.405 216.035 115.975 216.035 112.009 220.001L62.0003 270.01C57.9863 274.024 51.4784 274.024 47.4644 270.01C43.4505 265.996 43.4505 259.488 47.4644 255.474L97.4731 205.465C101.439 201.499 101.439 195.069 97.4731 191.103L97.299 190.929C93.3328 186.963 86.9027 186.964 82.9369 190.93L-31.5284 305.396C-35.5424 309.41 -35.5424 315.918 -31.5284 319.932C-27.5145 323.946 -27.5145 330.453 -31.5284 334.467L-81.4505 384.389C-85.4644 388.403 -85.4644 394.911 -81.4505 398.925C-77.4365 402.939 -70.9286 402.939 -66.9146 398.925L-16.9926 349.003C-12.9787 344.989 -6.47074 344.989 -2.45679 349.003C1.55716 353.017 1.55716 359.525 -2.45679 363.539L-25.0935 386.175C-29.1075 390.189 -29.1075 396.697 -25.0935 400.711C-21.0796 404.725 -14.5717 404.725 -10.5577 400.711L4.73189 385.422C8.74583 381.408 15.2537 381.408 19.2677 385.422C23.2816 389.436 29.7896 389.436 33.8035 385.422L35.3359 383.889C39.3499 379.875 45.8578 379.875 49.8718 383.889C53.8857 387.903 60.3936 387.903 64.4076 383.889L178.874 269.423C182.839 265.457 182.839 259.027 178.873 255.061Z" fill="url(#paint4_linear_5979_15961)"/>
<path d="M-10.8156 291.958C-6.89066 295.883 -6.89066 302.246 -10.8156 306.171L-40.775 336.13C-44.6999 340.055 -44.6999 346.419 -40.775 350.344C-36.8501 354.269 -36.8501 360.632 -40.775 364.557L-47.0602 370.843C-50.9851 374.768 -50.9851 381.131 -47.0602 385.056C-43.1353 388.981 -36.7714 388.981 -32.8465 385.056L68.181 284.029C72.1058 280.104 72.1058 273.74 68.181 269.815C64.2561 265.89 64.2561 259.527 68.181 255.602L74.4658 249.317C78.3907 245.392 78.3907 239.029 74.4658 235.103C70.5409 231.178 70.5409 224.815 74.4658 220.89L104.425 190.931C108.35 187.006 108.35 180.642 104.425 176.717C100.5 172.792 94.1368 172.792 90.2115 176.717L73.3996 193.529C69.4747 197.454 63.1111 197.454 59.1859 193.529C55.261 189.604 48.8975 189.604 44.9722 193.529L23.0527 215.449C19.1278 219.374 12.7643 219.374 8.83902 215.449C4.91412 211.524 4.91412 205.16 8.83902 201.235L17.6115 192.463C21.5363 188.538 21.5363 182.174 17.6115 178.249C13.6866 174.324 13.6866 167.961 17.6115 164.035L35.4893 146.157C39.4142 142.232 39.4142 135.869 35.4893 131.944C31.5644 128.019 25.2009 128.019 21.276 131.944L3.39815 149.822C-0.526749 153.746 -6.89027 153.746 -10.8156 149.822C-14.7404 145.897 -21.104 145.897 -25.0288 149.822L-126.056 250.849C-129.981 254.774 -129.981 261.138 -126.056 265.063C-122.131 268.988 -115.768 268.988 -111.843 265.063L-93.9652 247.185C-90.0403 243.26 -83.6768 243.26 -79.7515 247.185C-75.8266 251.11 -75.8266 257.473 -79.7515 261.399L-97.6293 279.276C-101.554 283.201 -101.554 289.565 -97.6293 293.49C-93.7044 297.415 -93.7044 303.778 -97.6293 307.703L-106.402 316.476C-110.327 320.401 -110.327 326.764 -106.402 330.689C-102.477 334.614 -96.1134 334.614 -92.1885 330.689L-70.2686 308.77C-66.3437 304.845 -59.9802 304.845 -56.0553 308.77C-52.1304 312.695 -45.7669 312.695 -41.842 308.77L-25.03 291.958C-21.1039 288.032 -14.7404 288.032 -10.8156 291.958Z" fill="url(#paint5_linear_5979_15961)"/>
</g>
<defs>
<linearGradient id="paint0_linear_5979_15961" x1="1578.61" y1="55.0588" x2="1869.21" y2="55.0588" gradientUnits="userSpaceOnUse">
<stop stop-color="#0032A3"/>
<stop offset="0.25" stop-color="#1A51CB"/>
<stop offset="0.5" stop-color="#3B66C8"/>
<stop offset="0.75" stop-color="#1A51CB"/>
<stop offset="1" stop-color="#0032A3"/>
</linearGradient>
<linearGradient id="paint1_linear_5979_15961" x1="1530" y1="14.314" x2="1787.93" y2="14.314" gradientUnits="userSpaceOnUse">
<stop stop-color="#FFC136"/>
<stop offset="0.197568" stop-color="#FAC142"/>
<stop offset="0.525" stop-color="#FFD168"/>
<stop offset="0.771328" stop-color="#F5BC3A"/>
<stop offset="1" stop-color="#E09B00"/>
</linearGradient>
<linearGradient id="paint2_linear_5979_15961" x1="1703.97" y1="172.784" x2="1726.4" y2="172.784" gradientUnits="userSpaceOnUse">
<stop stop-color="#FFC136"/>
<stop offset="0.197568" stop-color="#FAC142"/>
<stop offset="0.525" stop-color="#FFD168"/>
<stop offset="0.771328" stop-color="#F5BC3A"/>
<stop offset="1" stop-color="#E09B00"/>
</linearGradient>
<linearGradient id="paint3_linear_5979_15961" x1="1533.41" y1="106.919" x2="1555.85" y2="106.919" gradientUnits="userSpaceOnUse">
<stop stop-color="#FFC136"/>
<stop offset="0.197568" stop-color="#FAC142"/>
<stop offset="0.525" stop-color="#FFD168"/>
<stop offset="0.771328" stop-color="#F5BC3A"/>
<stop offset="1" stop-color="#E09B00"/>
</linearGradient>
<linearGradient id="paint4_linear_5979_15961" x1="-84.4609" y1="295.838" x2="181.847" y2="295.838" gradientUnits="userSpaceOnUse">
<stop stop-color="#0032A3"/>
<stop offset="0.25" stop-color="#1A51CB"/>
<stop offset="0.5" stop-color="#3B66C8"/>
<stop offset="0.75" stop-color="#1A51CB"/>
<stop offset="1" stop-color="#0032A3"/>
</linearGradient>
<linearGradient id="paint5_linear_5979_15961" x1="-129" y1="258.5" x2="107.369" y2="258.5" gradientUnits="userSpaceOnUse">
<stop stop-color="#FFC136"/>
<stop offset="0.197568" stop-color="#FAC142"/>
<stop offset="0.525" stop-color="#FFD168"/>
<stop offset="0.771328" stop-color="#F5BC3A"/>
<stop offset="1" stop-color="#E09B00"/>
</linearGradient>
<clipPath id="clip0_5979_15961">
<rect width="1728" height="300" fill="white"/>
</clipPath>
</defs>
</svg>
