<svg width="80" height="81" viewBox="0 0 80 81" fill="none" xmlns="http://www.w3.org/2000/svg">
<g id="basket-svgrepo-com 1" clip-path="url(#clip0_3502_74071)">
<path id="Vector" d="M62.7832 73.8335H17.2166C15.6603 73.8324 14.1535 73.2869 12.9572 72.2915C11.761 71.2961 10.9506 69.9136 10.6666 68.3835L3.33325 28.8335H76.6666L69.3499 68.3835C69.0654 69.9164 68.2526 71.3011 67.0528 72.2968C65.8531 73.2926 64.3423 73.8363 62.7832 73.8335Z" fill="url(#paint0_linear_3502_74071)"/>
<path id="Vector_2" d="M67.3999 29.5334C66.9324 29.5362 66.4704 29.4326 66.0489 29.2304C65.6273 29.0283 65.2572 28.733 64.9666 28.3668L47.1999 5.95011C46.7232 5.38953 46.4614 4.67765 46.4614 3.94177C46.4614 3.20589 46.7232 2.49401 47.1999 1.93344C47.5091 1.60291 47.8866 1.34368 48.306 1.17377C48.7255 1.00386 49.177 0.927349 49.629 0.949555C50.081 0.97176 50.5228 1.09215 50.9236 1.30235C51.3244 1.51256 51.6747 1.80753 51.9499 2.16677L69.7333 24.5334C70.1176 24.9737 70.3658 25.5161 70.4477 26.0948C70.5296 26.6735 70.4416 27.2635 70.1944 27.7931C69.9473 28.3227 69.5516 28.7691 69.0555 29.0781C68.5594 29.387 67.9843 29.5452 67.3999 29.5334Z" fill="#333333"/>
<path id="Vector_3" d="M12.2832 29.55C11.7018 29.5552 11.1312 29.3922 10.6401 29.0807C10.1491 28.7692 9.75857 28.3224 9.51556 27.7941C9.27254 27.2658 9.1874 26.6785 9.27037 26.103C9.35335 25.5274 9.6009 24.9881 9.98325 24.55L28.3332 2.16663C28.7973 1.59745 29.4412 1.20317 30.1591 1.04868C30.8771 0.894191 31.6262 0.988692 32.2832 1.31663C32.6739 1.52434 33.0134 1.81631 33.2772 2.17141C33.5411 2.52651 33.7226 2.93585 33.8088 3.36977C33.8949 3.8037 33.8835 4.25135 33.7753 4.68031C33.6671 5.10927 33.4649 5.5088 33.1832 5.84997L14.6832 28.4166C14.3921 28.7714 14.0257 29.0571 13.6107 29.2531C13.1956 29.4491 12.7422 29.5505 12.2832 29.55Z" fill="#333333"/>
<path id="Vector_4" d="M75.3833 24.2999H4.61667C3.40394 24.291 2.23713 24.7631 1.37181 25.6129C0.506483 26.4626 0.0131975 27.6206 0 28.8333L0 31.8499C0.0131975 33.0626 0.506483 34.2206 1.37181 35.0703C2.23713 35.92 3.40394 36.3922 4.61667 36.3833H75.3833C76.5961 36.3922 77.7629 35.92 78.6282 35.0703C79.4935 34.2206 79.9868 33.0626 80 31.8499V28.8333C79.9868 27.6206 79.4935 26.4626 78.6282 25.6129C77.7629 24.7631 76.5961 24.291 75.3833 24.2999Z" fill="url(#paint1_linear_3502_74071)"/>
<path id="Vector_5" d="M76.6667 23.8335H3.33333C1.49238 23.8335 0 25.3259 0 27.1668V37.1668C0 39.0078 1.49238 40.5002 3.33333 40.5002H76.6667C78.5076 40.5002 80 39.0078 80 37.1668V27.1668C80 25.3259 78.5076 23.8335 76.6667 23.8335Z" fill="url(#paint2_linear_3502_74071)"/>
<path id="Vector_6" d="M26.6666 62.1667C25.7825 62.1667 24.9347 61.8155 24.3096 61.1904C23.6844 60.5652 23.3333 59.7174 23.3333 58.8333V48.8333C23.3333 47.9493 23.6844 47.1014 24.3096 46.4763C24.9347 45.8512 25.7825 45.5 26.6666 45.5C27.5506 45.5 28.3985 45.8512 29.0236 46.4763C29.6487 47.1014 29.9999 47.9493 29.9999 48.8333V58.8333C29.9999 59.7174 29.6487 60.5652 29.0236 61.1904C28.3985 61.8155 27.5506 62.1667 26.6666 62.1667Z" fill="url(#paint3_linear_3502_74071)"/>
<path id="Vector_7" d="M39.9998 62.1667C39.1158 62.1667 38.2679 61.8155 37.6428 61.1904C37.0177 60.5652 36.6665 59.7174 36.6665 58.8333V48.8333C36.6665 47.9493 37.0177 47.1014 37.6428 46.4763C38.2679 45.8512 39.1158 45.5 39.9998 45.5C40.8839 45.5 41.7317 45.8512 42.3569 46.4763C42.982 47.1014 43.3332 47.9493 43.3332 48.8333V58.8333C43.3332 59.7174 42.982 60.5652 42.3569 61.1904C41.7317 61.8155 40.8839 62.1667 39.9998 62.1667Z" fill="url(#paint4_linear_3502_74071)"/>
<path id="Vector_8" d="M53.3333 62.1667C52.4493 62.1667 51.6014 61.8155 50.9763 61.1904C50.3512 60.5652 50 59.7174 50 58.8333V48.8333C50 47.9493 50.3512 47.1014 50.9763 46.4763C51.6014 45.8512 52.4493 45.5 53.3333 45.5C54.2174 45.5 55.0652 45.8512 55.6904 46.4763C56.3155 47.1014 56.6667 47.9493 56.6667 48.8333V58.8333C56.6667 59.7174 56.3155 60.5652 55.6904 61.1904C55.0652 61.8155 54.2174 62.1667 53.3333 62.1667Z" fill="url(#paint5_linear_3502_74071)"/>
</g>
<defs>
<linearGradient id="paint0_linear_3502_74071" x1="3.33325" y1="51.3335" x2="76.6666" y2="51.3335" gradientUnits="userSpaceOnUse">
<stop stop-color="#0032A3"/>
<stop offset="0.25" stop-color="#1A51CB"/>
<stop offset="0.5" stop-color="#3B66C8"/>
<stop offset="0.75" stop-color="#1A51CB"/>
<stop offset="1" stop-color="#0032A3"/>
</linearGradient>
<linearGradient id="paint1_linear_3502_74071" x1="0" y1="30.3416" x2="80" y2="30.3416" gradientUnits="userSpaceOnUse">
<stop stop-color="#0032A3"/>
<stop offset="0.25" stop-color="#1A51CB"/>
<stop offset="0.5" stop-color="#3B66C8"/>
<stop offset="0.75" stop-color="#1A51CB"/>
<stop offset="1" stop-color="#0032A3"/>
</linearGradient>
<linearGradient id="paint2_linear_3502_74071" x1="0" y1="32.1668" x2="80" y2="32.1668" gradientUnits="userSpaceOnUse">
<stop stop-color="#FFC136"/>
<stop offset="0.197568" stop-color="#FAC142"/>
<stop offset="0.525" stop-color="#FFD168"/>
<stop offset="0.771328" stop-color="#F5BC3A"/>
<stop offset="1" stop-color="#E09B00"/>
</linearGradient>
<linearGradient id="paint3_linear_3502_74071" x1="23.3333" y1="53.8333" x2="29.9999" y2="53.8333" gradientUnits="userSpaceOnUse">
<stop stop-color="#FFC136"/>
<stop offset="0.197568" stop-color="#FAC142"/>
<stop offset="0.525" stop-color="#FFD168"/>
<stop offset="0.771328" stop-color="#F5BC3A"/>
<stop offset="1" stop-color="#E09B00"/>
</linearGradient>
<linearGradient id="paint4_linear_3502_74071" x1="36.6665" y1="53.8333" x2="43.3332" y2="53.8333" gradientUnits="userSpaceOnUse">
<stop stop-color="#FFC136"/>
<stop offset="0.197568" stop-color="#FAC142"/>
<stop offset="0.525" stop-color="#FFD168"/>
<stop offset="0.771328" stop-color="#F5BC3A"/>
<stop offset="1" stop-color="#E09B00"/>
</linearGradient>
<linearGradient id="paint5_linear_3502_74071" x1="50" y1="53.8333" x2="56.6667" y2="53.8333" gradientUnits="userSpaceOnUse">
<stop stop-color="#FFC136"/>
<stop offset="0.197568" stop-color="#FAC142"/>
<stop offset="0.525" stop-color="#FFD168"/>
<stop offset="0.771328" stop-color="#F5BC3A"/>
<stop offset="1" stop-color="#E09B00"/>
</linearGradient>
<clipPath id="clip0_3502_74071">
<rect width="80" height="80" fill="white" transform="translate(0 0.5)"/>
</clipPath>
</defs>
</svg>
