<svg width="644" height="514" viewBox="0 0 644 514" fill="none" xmlns="http://www.w3.org/2000/svg">
<g clip-path="url(#clip0_5239_18922)">
<circle cx="322" cy="322" r="322" fill="#F8DB99"/>
<path d="M465.025 551.826C465.025 551.826 508.184 419.032 466.131 413.498C424.08 407.965 390.799 490.976 406.333 543.533C421.868 596.09 465.025 551.826 465.025 551.826Z" fill="#3D1B1F"/>
<path d="M293.418 551.574C293.418 551.574 343.363 418.796 294.698 413.263C246.035 407.73 207.522 490.731 225.498 543.282C243.475 595.832 293.418 551.574 293.418 551.574Z" fill="#3D1B1F"/>
<path d="M491.527 192.564C491.527 192.564 458.029 356.553 484.813 390.083C509.471 420.952 547.117 415.274 556.078 401.336C578.582 366.328 551.971 264.491 549.302 244.468C546.632 224.446 535.286 167.716 529.28 158.706C523.273 149.696 491.527 192.564 491.527 192.564Z" fill="#3D1B1F"/>
<path d="M497.212 269.886C497.212 269.886 455.225 247.556 419.05 294.941C419.05 294.941 389.347 336.241 388.073 353.055C386.851 369.19 404.768 403.851 404.182 440.123C403.597 476.397 543.295 437.863 543.295 437.863C543.295 437.863 543.931 302.384 497.212 269.886Z" fill="#48416B"/>
<path d="M431.02 167.152C417.145 159.304 412.259 141.694 420.107 127.819C427.955 113.943 445.565 109.057 459.44 116.905C473.316 124.753 478.202 142.363 470.354 156.239C462.506 170.114 444.896 175 431.02 167.152Z" fill="#3D1B1F"/>
<path d="M419.116 193.837C418.583 195.081 417.628 195.992 416.806 196.858C415.873 197.836 415.094 198.725 415.294 199.946C415.672 202.235 417.583 205.28 417.583 205.28C417.583 205.28 413.383 206.813 413.761 211.769C414.139 216.747 417.205 215.591 417.205 215.591C417.205 215.591 417.184 215.636 417.16 215.725C416.761 217.014 413.695 227.281 418.339 230.481C423.316 233.925 447.738 234.303 447.738 234.303C447.738 234.303 457.731 255.55 448.695 271.967C446.61 275.755 439.378 284.29 435.394 288.997C430.073 295.285 502.044 282.123 498.913 269.719C486.789 221.686 494.335 131.596 494.335 131.596C494.335 131.596 461.87 123.196 445.825 131.218C429.804 139.24 427.893 155.262 427.515 160.617C427.115 165.949 429.426 170.927 422.159 175.127C414.916 179.327 408.404 181.238 411.848 184.659C415.294 188.103 420.25 191.17 419.116 193.837Z" fill="#E2887F"/>
<path d="M447.807 174.345C447.807 174.345 438.175 174.345 432.743 168.418C432.743 168.418 431.014 170.641 434.718 173.605L435.459 179.779L441.385 175.58C441.385 175.58 447.066 175.333 447.807 174.345Z" fill="#7E373F"/>
<path d="M413.761 211.769C414.139 216.747 417.205 215.591 417.205 215.591C417.205 215.591 417.184 215.636 417.161 215.725C423.871 215.347 431.16 205.792 431.16 205.792C424.539 205.458 417.916 198.147 416.806 196.858C415.873 197.835 415.094 198.725 415.294 199.946C415.672 202.235 417.583 205.28 417.583 205.28C417.583 205.28 413.383 206.813 413.761 211.769Z" fill="#D14B1D"/>
<path d="M460.931 123.79C460.931 123.79 443.877 146.092 460.931 161.396C477.985 176.702 482.678 186.039 483.552 204.842C483.552 204.842 543.576 197.253 528.272 156.586C512.968 115.919 477.547 115.482 460.931 123.79Z" fill="#3D1B1F"/>
<path d="M482.848 192.213C482.848 192.213 485.873 178.185 497.976 180.387C510.077 182.587 508.702 205.415 493.574 209.815C478.449 214.216 481.473 193.588 482.848 192.213Z" fill="#E2887F"/>
<path d="M451.136 166.495C451.136 166.495 443.008 156.127 433.793 159.417C433.793 159.417 433.036 156.457 434.846 155.14C436.655 153.824 447.515 154.153 451.136 166.495Z" fill="#3D1B1F"/>
<path d="M501.108 190.689C501.108 190.689 491.664 186.13 486.125 197.528C486.125 197.528 487.342 181.859 501.108 190.689Z" fill="#7E373F"/>
<path d="M489.075 191.885C489.075 191.885 497.713 197.645 489.539 202.753C489.539 202.753 499.199 200.616 492.14 190.862L489.075 191.885Z" fill="#7E373F"/>
<path d="M525.742 512.567C526.917 510.805 530.642 306.441 500.102 297.046C469.562 287.648 464.275 333.459 464.862 346.967C465.145 353.459 468.263 399.391 465.577 437.668C462.672 479.039 453.907 512.912 453.297 518.708C452.122 529.865 525.742 512.567 525.742 512.567Z" fill="#5E558C"/>
<path d="M490.511 204.202L499.108 234.902L478.716 235.015L490.511 204.202Z" fill="#FAE0C8"/>
<path d="M151.668 330.292C151.668 330.292 97.5126 304.86 69.9249 364.283C69.9249 364.283 47.4574 399.154 43.5922 416.549C39.7271 433.942 56.0818 473.23 55.4366 513.172C54.7929 553.114 182.743 512.537 182.743 512.537C182.743 512.537 198.393 355.595 151.668 330.292Z" fill="#48416B"/>
<path d="M66.5419 241.38C66.0334 242.781 64.9028 243.754 63.9964 244.708C62.9686 245.785 62.1129 246.763 62.3326 248.109C62.7489 250.63 64.8536 253.982 64.8536 253.982C64.8536 253.982 60.2295 255.671 60.6443 261.127C61.0606 266.609 64.4373 265.337 64.4373 265.337C64.4373 265.337 64.4127 265.386 64.3881 265.484C63.9472 266.903 66.4205 278.58 71.5347 282.103C77.016 285.896 98.0578 285.939 98.0578 285.939C98.0578 285.939 108.678 311.365 97.8597 332.485C96.4863 335.166 79.5492 353.887 83.5388 354.885C87.9985 356.002 103.001 344.603 121.757 339.654C137.266 335.561 155.985 335.38 155.985 335.38C155.985 335.38 148.158 300.375 147.837 290.154C146.898 260.327 149.368 172.846 149.368 172.846C149.368 172.846 113.62 163.596 95.9532 172.429C78.311 181.263 73.7315 195.207 73.3167 201.103C72.8758 206.976 77.7918 219.397 69.791 224.021C61.8149 228.645 60.8993 229.067 61.0437 233.264C61.1942 237.669 67.1165 239.793 66.5419 241.38Z" fill="#8E3A32"/>
<path d="M98.1332 219.918C98.1332 219.918 87.527 219.918 81.5449 213.392C81.5449 213.392 79.6415 215.839 83.7202 219.102L84.536 225.9L91.0619 221.277C91.0619 221.277 97.3174 221.007 98.1332 219.918Z" fill="#52211D"/>
<path d="M60.6443 261.127C61.0606 266.609 64.4373 265.337 64.4373 265.337C64.4373 265.337 64.4127 265.386 64.3881 265.484C71.7774 265.068 79.8027 254.546 79.8027 254.546C72.5118 254.179 65.2192 246.129 63.9964 244.709C62.9686 245.786 62.1129 246.765 62.3326 248.111C62.7489 250.632 64.8536 253.984 64.8536 253.984C64.8536 253.984 60.228 255.671 60.6443 261.127Z" fill="#692B25"/>
<path d="M136.719 239.594C136.719 239.594 140.049 224.148 153.375 226.571C166.7 228.994 165.185 254.13 148.529 258.976C131.874 263.822 135.206 241.109 136.719 239.594Z" fill="#8E3A32"/>
<path d="M101.799 211.275C101.799 211.275 92.8485 199.858 82.7016 203.482C82.7016 203.482 81.8674 200.222 83.8599 198.773C85.854 197.323 97.812 197.685 101.799 211.275Z" fill="#52211D"/>
<path d="M156.825 237.916C156.825 237.916 146.425 232.896 140.327 245.449C140.327 245.449 141.667 228.192 156.825 237.916Z" fill="#52211D"/>
<path d="M143.575 239.233C143.575 239.233 153.087 245.575 144.087 251.2C144.087 251.2 154.724 248.848 146.95 238.108L143.575 239.233Z" fill="#52211D"/>
<path d="M147.383 259.94C147.383 263.161 144.772 265.771 141.55 265.771C138.329 265.771 135.717 263.16 135.717 259.94C135.717 256.718 138.329 254.107 141.55 254.107C144.772 254.107 147.383 256.718 147.383 259.94Z" fill="#FAE0C8"/>
<path d="M126.197 204.27C126.197 204.27 118.986 200.331 98.8092 194.63C78.6522 188.933 73.3076 195.321 74.2693 190.029C75.231 184.736 91.7271 151.669 142.492 161.773L126.197 204.27Z" fill="#E0656E"/>
<path d="M66.101 367.819C66.101 367.819 128.448 382.28 175.793 354.337C175.793 354.337 159.351 301.363 159.351 289.715C159.351 289.153 159.474 288.515 159.669 287.783C159.864 287.097 160.159 286.314 160.524 285.458C167.815 268.403 205.742 221.204 173.028 179.24C141.83 139.233 93.7257 166.956 93.7257 166.956C93.7257 166.956 138.038 190.519 123.968 252.964C118.242 278.362 97.1515 286.804 97.1023 287.391C96.6614 292.431 95.904 297.373 94.8993 302.194C94.7042 303.148 94.5076 304.102 94.2633 305.056C93.211 309.705 91.939 314.232 90.5195 318.587C90.1524 319.713 89.7852 320.813 89.418 321.915C80.0977 348.659 66.101 367.819 66.101 367.819Z" fill="#F397B4"/>
<path d="M162.151 308.51C162.151 308.51 102.608 320.758 85.9354 322.119C85.9354 322.119 62.9395 364.167 66.1011 367.811C69.2627 371.455 153.304 338.452 162.151 308.51Z" fill="#F397B4"/>
<path d="M89.4196 321.915C111.197 321.792 144.644 311.026 146.724 310.341C118.61 317.927 97.2483 318.612 90.5196 318.587C90.154 319.713 89.7868 320.815 89.4196 321.915Z" fill="#E384A2"/>
<path d="M94.2648 305.056C131.433 300.334 150.298 293.14 159.669 287.781C159.864 287.096 160.159 286.313 160.524 285.457C139.114 296.761 110.339 300.775 94.8993 302.194C94.7042 303.148 94.5091 304.102 94.2648 305.056Z" fill="#E384A2"/>
<path d="M318.173 217.157C318.173 217.157 259.052 199.421 233.434 254.6C233.434 254.6 212.57 286.981 208.982 303.133C205.393 319.285 212.635 385.669 212.037 422.758C211.44 459.848 349.614 443.829 349.614 443.829C349.614 443.829 361.561 240.654 318.173 217.157Z" fill="#B14762"/>
<path d="M256.989 117.028C240.689 117.028 227.475 103.814 227.475 87.5142C227.475 71.214 240.689 58 256.989 58C273.289 58 286.503 71.214 286.503 87.5142C286.503 103.814 273.289 117.028 256.989 117.028Z" fill="#FAE0C8"/>
<path d="M230.292 140.474C229.747 141.746 228.77 142.679 227.93 143.565C226.976 144.565 226.18 145.473 226.384 146.724C226.771 149.064 228.724 152.178 228.724 152.178C228.724 152.178 224.43 153.746 224.816 158.813C225.201 163.902 228.338 162.721 228.338 162.721C228.338 162.721 228.315 162.767 228.292 162.857C227.884 164.176 224.748 174.673 229.497 177.945C234.586 181.466 259.558 181.853 259.558 181.853C259.558 181.853 266.432 192.851 259.558 225.591C256.869 238.394 311.885 225.591 311.885 225.591L307.204 76.8358C307.204 76.8358 274.008 68.2467 257.604 76.4487C241.221 84.6507 239.267 101.033 238.881 106.51C238.473 111.963 240.836 117.053 233.406 121.347C225.999 125.641 219.342 127.595 222.863 131.094C226.384 134.612 231.451 137.748 230.292 140.474Z" fill="#E2887F"/>
<path d="M259.628 120.545C259.628 120.545 249.78 120.545 244.225 114.484C244.225 114.484 242.456 116.756 246.245 119.787L247.002 126.1L253.063 121.808C253.063 121.808 258.871 121.554 259.628 120.545Z" fill="#7E373F"/>
<path d="M224.817 158.811C225.203 163.901 228.34 162.719 228.34 162.719C228.34 162.719 228.317 162.765 228.294 162.856C235.156 162.47 242.608 152.7 242.608 152.7C235.837 152.359 229.066 144.884 227.93 143.565C226.976 144.566 226.18 145.473 226.384 146.724C226.771 149.064 228.724 152.178 228.724 152.178C228.724 152.178 224.43 153.745 224.817 158.811Z" fill="#D14B1D"/>
<path d="M273.047 68.8536C273.047 68.8536 255.61 91.6576 273.047 107.306C290.485 122.955 295.285 132.503 296.179 151.729C296.179 151.729 357.553 143.97 341.905 102.387C326.255 60.8053 290.038 60.3583 273.047 68.8536Z" fill="#FAE0C8"/>
<path d="M313.59 141.746C313.59 141.746 277.822 219.425 305.209 253.711C330.421 285.274 369.11 271.388 376.276 256.033C383.441 240.679 366.137 212.719 363.409 192.247C360.679 171.774 349.077 113.768 342.937 104.556C336.792 95.3413 313.59 141.746 313.59 141.746Z" fill="#FAE0C8"/>
<path d="M295.46 138.815C295.46 138.815 298.554 124.473 310.926 126.722C323.301 128.973 321.894 152.313 306.427 156.812C290.96 161.313 294.052 140.221 295.46 138.815Z" fill="#E2887F"/>
<path d="M263.033 112.518C263.033 112.518 254.722 101.916 245.3 105.281C245.3 105.281 244.526 102.254 246.375 100.907C248.226 99.5628 259.33 99.8993 263.033 112.518Z" fill="#FAE0C8"/>
<path d="M314.13 137.258C314.13 137.258 304.471 132.595 298.81 144.25C298.81 144.25 300.053 128.228 314.13 137.258Z" fill="#7E373F"/>
<path d="M301.824 138.481C301.824 138.481 310.658 144.369 302.299 149.592C302.299 149.592 312.177 147.408 304.958 137.434L301.824 138.481Z" fill="#7E373F"/>
<path d="M219.861 397.78C219.861 397.78 170.972 374.821 146.065 428.466C146.065 428.466 125.782 459.947 122.293 475.65C118.805 491.354 129.855 499.496 129.273 535.553C128.69 571.612 247.916 562.307 247.916 562.307C247.916 562.307 262.043 420.624 219.861 397.78Z" fill="#FAE0C8"/>
<path d="M159.947 265.949C159.947 281.796 182.333 298.894 198.181 298.894C214.028 298.894 226.874 286.048 226.874 270.2C226.874 254.352 217.669 239.595 201.823 239.595C185.974 239.594 159.947 250.102 159.947 265.949Z" fill="#52211D"/>
<path d="M143.011 317.515C142.552 318.781 141.532 319.658 140.714 320.52C139.787 321.492 139.014 322.376 139.212 323.591C139.587 325.866 141.487 328.892 141.487 328.892C141.487 328.892 137.312 330.416 137.688 335.343C138.063 340.291 141.112 339.142 141.112 339.142C141.112 339.142 141.091 339.187 141.068 339.274C140.67 340.555 142.902 351.097 147.518 354.279C152.467 357.703 171.462 357.741 171.462 357.741C171.462 357.741 181.048 380.696 171.282 399.762C170.043 402.182 154.753 419.082 158.353 419.984C162.38 420.991 175.923 410.702 192.856 406.233C206.857 402.538 223.756 402.375 223.756 402.375C223.756 402.375 216.689 370.773 216.399 361.547C215.552 334.618 217.781 255.645 217.781 255.645C217.781 255.645 185.508 247.295 169.559 255.268C153.633 263.243 149.499 275.831 149.122 281.155C148.724 286.457 153.163 297.67 145.939 301.845C138.737 306.021 137.912 306.402 138.043 310.19C138.186 314.163 143.53 316.082 143.011 317.515Z" fill="#8E3A32"/>
<path d="M171.533 298.138C171.533 298.138 161.959 298.138 156.558 292.247C156.558 292.247 154.839 294.456 158.521 297.402L159.258 303.539L165.15 299.366C165.15 299.366 170.795 299.12 171.533 298.138Z" fill="#52211D"/>
<path d="M137.688 335.341C138.063 340.289 141.112 339.14 141.112 339.14C141.112 339.14 141.091 339.185 141.068 339.272C147.738 338.898 154.985 329.399 154.985 329.399C148.402 329.067 141.819 321.801 140.715 320.52C139.787 321.492 139.014 322.375 139.212 323.59C139.587 325.866 141.487 328.892 141.487 328.892C141.487 328.892 137.313 330.414 137.688 335.341Z" fill="#692B25"/>
<path d="M184.578 247.883C184.578 247.883 167.626 270.052 184.578 285.266C201.531 300.481 215.245 325.091 216.402 349.404C216.402 349.404 266.735 320.91 251.52 280.483C236.307 240.059 201.096 239.624 184.578 247.883Z" fill="#52211D"/>
<path d="M206.367 315.902C206.367 315.902 209.375 301.957 221.404 304.145C233.434 306.333 232.067 329.024 217.029 333.4C201.992 337.773 205 317.268 206.367 315.902Z" fill="#8E3A32"/>
<path d="M174.842 290.336C174.842 290.336 166.763 280.029 157.602 283.3C157.602 283.3 156.85 280.358 158.649 279.049C160.446 277.74 171.243 278.067 174.842 290.336Z" fill="#52211D"/>
<path d="M224.518 314.385C224.518 314.385 215.128 309.852 209.624 321.185C209.624 321.185 210.833 305.607 224.518 314.385Z" fill="#52211D"/>
<path d="M212.555 315.574C212.555 315.574 221.143 321.3 213.017 326.379C213.017 326.379 222.62 324.256 215.603 314.559L212.555 315.574Z" fill="#52211D"/>
<path d="M247.546 295.775C228.722 295.775 213.463 280.516 213.463 261.692C213.463 242.869 228.722 227.609 247.546 227.609C266.369 227.609 281.629 242.869 281.629 261.692C281.629 280.516 266.369 295.775 247.546 295.775Z" fill="#52211D"/>
<path d="M231.329 242.792C231.329 247.719 227.335 251.711 222.41 251.711C217.483 251.711 213.489 247.717 213.489 242.792C213.489 237.865 217.483 233.873 222.41 233.873C227.337 233.873 231.329 237.867 231.329 242.792Z" fill="#52211D"/>
<path d="M228.835 242.356C224.715 242.356 221.376 239.016 221.376 234.897C221.376 230.778 224.715 227.439 228.835 227.439C232.954 227.439 236.293 230.778 236.293 234.897C236.293 239.016 232.954 242.356 228.835 242.356Z" fill="#52211D"/>
<path d="M247.406 241.477C242.076 241.477 237.755 237.156 237.755 231.826C237.755 226.496 242.076 222.176 247.406 222.176C252.736 222.176 257.057 226.496 257.057 231.826C257.057 237.156 252.736 241.477 247.406 241.477Z" fill="#52211D"/>
<path d="M237.17 235.63C233.939 235.63 231.32 233.011 231.32 229.78C231.32 226.549 233.939 223.93 237.17 223.93C240.401 223.93 243.02 226.549 243.02 229.78C243.02 233.011 240.401 235.63 237.17 235.63Z" fill="#52211D"/>
<path d="M260.129 241.479C254.718 241.479 250.331 237.092 250.331 231.68C250.331 226.269 254.718 221.882 260.129 221.882C265.541 221.882 269.927 226.269 269.927 231.68C269.927 237.092 265.541 241.479 260.129 241.479Z" fill="#52211D"/>
<path d="M273.436 260.488C267.299 260.488 262.323 255.513 262.323 249.375C262.323 243.238 267.299 238.262 273.436 238.262C279.574 238.262 284.549 243.238 284.549 249.375C284.549 255.513 279.574 260.488 273.436 260.488Z" fill="#52211D"/>
<path d="M261.738 239.139C261.738 243.984 265.666 247.912 270.511 247.912C275.356 247.912 279.285 243.984 279.285 239.139C279.285 234.294 275.356 230.365 270.511 230.365C265.666 230.364 261.738 234.294 261.738 239.139Z" fill="#52211D"/>
<path d="M268.93 273.19C264.418 268.679 264.418 261.364 268.93 256.853C273.441 252.341 280.756 252.341 285.267 256.853C289.779 261.364 289.779 268.679 285.268 273.19C280.756 277.702 273.441 277.702 268.93 273.19Z" fill="#52211D"/>
<path d="M261.412 287.434C256.786 282.808 256.786 275.309 261.412 270.684C266.037 266.058 273.536 266.058 278.162 270.684C282.787 275.309 282.787 282.809 278.162 287.434C273.536 292.059 266.037 292.059 261.412 287.434Z" fill="#52211D"/>
<path d="M258.373 299.385C253.124 299.385 248.869 295.13 248.869 289.881C248.869 284.631 253.124 280.376 258.373 280.376C263.623 280.376 267.878 284.631 267.878 289.881C267.878 295.13 263.623 299.385 258.373 299.385Z" fill="#52211D"/>
<path d="M215.993 334.269C215.993 337.177 213.637 339.534 210.728 339.534C207.82 339.534 205.464 337.177 205.464 334.269C205.464 331.361 207.822 329.004 210.728 329.004C213.637 329.003 215.993 331.361 215.993 334.269Z" fill="#FAE0C8"/>
<path d="M370.27 292.303C370.27 315.034 388.695 333.459 411.426 333.459C434.156 333.459 448.096 316.379 448.096 293.649C448.096 270.919 424.577 260.8 401.847 260.8C379.119 260.801 370.27 269.573 370.27 292.303Z" fill="#D14B1D"/>
<path d="M397.575 362.084C397.575 362.084 340.597 344.99 315.907 398.17C315.907 398.17 295.801 429.378 292.341 444.944C288.881 460.511 299.836 468.582 299.259 504.327C298.683 540.073 416.872 530.848 416.872 530.848C416.872 530.848 439.39 384.73 397.575 362.084Z" fill="#7E373F"/>
<path d="M338.608 265.584C322.899 265.584 310.165 252.849 310.165 237.14C310.165 221.431 322.899 208.697 338.608 208.697C354.317 208.697 367.051 221.431 367.051 237.14C367.051 252.849 354.317 265.584 338.608 265.584Z" fill="#D14B1D"/>
<path d="M312.879 288.182C312.354 289.407 311.412 290.306 310.602 291.16C309.682 292.124 308.915 292.999 309.114 294.204C309.485 296.459 311.369 299.459 311.369 299.459C311.369 299.459 307.23 300.969 307.602 305.853C307.974 310.758 310.996 309.62 310.996 309.62C310.996 309.62 310.974 309.664 310.953 309.752C310.558 311.022 307.536 321.138 312.112 324.292C317.018 327.686 341.083 328.059 341.083 328.059C341.083 328.059 349.531 336.705 341.21 367.855C339.654 373.682 329.579 384.104 330.655 384.911C340.456 392.262 398.311 377.405 393.859 367.312C374.471 323.36 387.002 226.849 387.002 226.849C387.002 226.849 355.01 218.572 339.199 226.477C323.411 234.383 321.528 250.17 321.156 255.447C320.761 260.703 323.04 265.608 315.879 269.747C308.74 273.885 304.377 278.439 307.771 281.811C311.166 285.203 313.996 285.553 312.879 288.182Z" fill="#E2887F"/>
<path d="M341.152 268.974C341.152 268.974 331.661 268.974 326.307 263.134C326.307 263.134 324.604 265.324 328.254 268.245L328.984 274.328L334.824 270.191C334.824 270.191 340.422 269.947 341.152 268.974Z" fill="#7E373F"/>
<path d="M307.602 305.853C307.974 310.758 310.996 309.62 310.996 309.62C310.996 309.62 310.974 309.664 310.953 309.752C317.566 309.38 324.748 299.963 324.748 299.963C318.222 299.634 311.696 292.431 310.602 291.16C309.682 292.124 308.916 292.999 309.114 294.204C309.485 296.459 311.369 299.459 311.369 299.459C311.369 299.459 307.229 300.969 307.602 305.853Z" fill="#D14B1D"/>
<path d="M354.084 219.155C354.084 219.155 337.279 241.133 354.084 256.214C370.889 271.295 375.514 280.499 376.376 299.027C376.376 299.027 435.526 291.549 420.445 251.473C405.364 211.399 370.459 210.967 354.084 219.155Z" fill="#D14B1D"/>
<path d="M407.737 272.242C405.175 276.315 410.642 280.565 413.965 277.087C421.001 269.726 426.786 261.797 424.06 257.708C421.107 253.276 414.059 262.195 407.737 272.242Z" fill="#FAE0C8"/>
<path d="M375.684 286.581C375.684 286.581 378.665 272.758 390.59 274.927C402.515 277.095 401.161 299.591 386.253 303.927C371.347 308.265 374.329 287.937 375.684 286.581Z" fill="#E2887F"/>
<path d="M344.432 261.238C344.432 261.238 336.422 251.02 327.341 254.263C327.341 254.263 326.595 251.346 328.378 250.049C330.162 248.751 340.865 249.075 344.432 261.238Z" fill="#D14B1D"/>
<path d="M393.677 285.08C393.677 285.08 384.369 280.587 378.913 291.821C378.913 291.821 380.111 276.379 393.677 285.08Z" fill="#7E373F"/>
<path d="M381.819 286.259C381.819 286.259 390.332 291.933 382.277 296.968C382.277 296.968 391.797 294.863 384.84 285.251L381.819 286.259Z" fill="#7E373F"/>
<path d="M393.633 360.311C393.633 360.311 350.735 361.052 322.259 392.855C322.259 392.855 421.368 407.647 413.232 388.787C405.098 369.926 393.633 360.311 393.633 360.311Z" fill="#7E373F"/>
<path d="M412.618 436.698C412.618 436.698 391.25 444.239 358.571 440.467C358.571 440.467 357.315 521.536 360.456 537.247C363.598 552.958 406.333 543.532 406.333 543.532C406.333 543.532 411.45 464.328 412.618 436.698Z" fill="#E2887F"/>
<path d="M566.157 456.77C566.157 456.77 517.268 433.811 492.361 487.456C492.361 487.456 472.078 518.937 468.589 534.64C465.1 550.343 476.15 558.485 475.568 594.542C474.986 630.601 594.212 621.296 594.212 621.296C594.212 621.296 608.339 479.613 566.157 456.77Z" fill="#F397B4"/>
<path d="M497.873 325.07C498.705 340.894 528.628 357.882 544.476 357.882C560.324 357.882 573.17 345.036 573.17 329.188C573.17 313.342 560.324 300.494 544.476 300.494C528.628 300.494 496.822 305.129 497.873 325.07Z" fill="#9C5937"/>
<path d="M489.307 376.504C488.847 377.77 487.827 378.648 487.01 379.509C486.082 380.482 485.309 381.365 485.507 382.58C485.884 384.855 487.783 387.882 487.783 387.882C487.783 387.882 483.607 389.406 483.984 394.333C484.358 399.281 487.408 398.132 487.408 398.132C487.408 398.132 487.386 398.176 487.363 398.264C486.965 399.545 489.198 410.087 493.814 413.268C498.762 416.692 517.758 416.731 517.758 416.731C517.758 416.731 527.345 439.685 517.578 458.752C516.338 461.171 501.048 478.071 504.649 478.973C508.676 479.981 522.219 469.691 539.151 465.222C553.153 461.528 570.051 461.365 570.051 461.365C570.051 461.365 562.985 429.763 562.694 420.536C561.846 393.607 564.077 314.634 564.077 314.634C564.077 314.634 531.804 306.285 515.856 314.258C499.93 322.232 495.796 334.82 495.419 340.145C495.021 345.446 499.46 356.659 492.236 360.835C485.034 365.01 484.209 365.391 484.34 369.18C484.48 373.152 489.826 375.071 489.307 376.504Z" fill="#E2887F"/>
<path d="M517.827 357.128C517.827 357.128 508.253 357.128 502.852 351.237C502.852 351.237 501.133 353.446 504.815 356.392L505.551 362.529L511.442 358.356C511.445 358.356 517.091 358.11 517.827 357.128Z" fill="#52211D"/>
<path d="M483.984 394.33C484.359 399.278 487.408 398.129 487.408 398.129C487.408 398.129 487.386 398.173 487.363 398.261C494.035 397.886 501.28 388.388 501.28 388.388C494.697 388.056 488.115 380.789 487.01 379.508C486.082 380.48 485.309 381.364 485.508 382.579C485.884 384.854 487.783 387.881 487.783 387.881C487.783 387.881 483.607 389.405 483.984 394.33Z" fill="#BF655C"/>
<path d="M530.874 306.873C530.874 306.873 513.922 329.042 530.874 344.256C547.827 359.471 561.541 384.081 562.697 408.394C562.697 408.394 613.031 379.899 597.816 339.473C582.602 299.049 547.392 298.614 530.874 306.873Z" fill="#9C5937"/>
<path d="M552.661 374.89C552.661 374.89 555.669 360.947 567.698 363.133C579.728 365.321 578.361 388.012 563.323 392.388C548.288 396.763 551.296 376.257 552.661 374.89Z" fill="#E2887F"/>
<path d="M521.136 349.324C521.136 349.324 513.057 339.017 503.896 342.288C503.896 342.288 503.144 339.346 504.943 338.037C506.741 336.728 517.538 337.056 521.136 349.324Z" fill="#9C5937"/>
<path d="M570.812 373.375C570.812 373.375 561.422 368.842 555.918 380.174C555.918 380.174 557.128 364.597 570.812 373.375Z" fill="#9C5937"/>
<path d="M558.851 374.564C558.851 374.564 567.438 380.29 559.311 385.367C559.311 385.367 568.914 383.244 561.897 373.547L558.851 374.564Z" fill="#9C5937"/>
<path d="M556.864 420.57C556.864 420.57 528.773 430.943 514.512 430.078C500.251 429.213 522.291 446.069 512.784 471.999C503.276 497.929 546.493 494.904 559.026 487.124C571.559 479.345 584.091 485.826 556.864 420.57Z" fill="#F397B4"/>
<path d="M599.177 364.666C599.177 364.666 591.166 418.865 565.245 440.072C565.245 440.072 561.003 454.682 547.807 458.452C534.61 462.222 531.312 465.05 531.312 465.05C531.312 465.05 530.37 473.533 518.588 477.775C506.806 482.016 500.68 487.671 500.68 487.671C500.68 487.671 507.278 492.384 491.253 501.809C475.23 511.236 472.874 517.832 472.874 517.832C472.874 517.832 477.115 496.624 488.427 485.785C488.427 485.785 500.208 465.99 506.336 465.049C506.336 465.049 515.762 448.082 529.9 449.496C529.9 449.496 534.614 432.53 548.28 428.288C548.28 428.288 554.406 402.367 567.131 396.712C579.854 391.059 599.177 364.666 599.177 364.666Z" fill="#9C5937"/>
<path d="M549.689 404.748H560.06C561.502 404.748 562.671 403.579 562.671 402.137V391.765C562.671 390.323 561.502 389.154 560.06 389.154H549.689C548.246 389.154 547.077 390.323 547.077 391.765V402.137C547.077 403.579 548.246 404.748 549.689 404.748Z" fill="#FAE0C8"/>
</g>
<defs>
<clipPath id="clip0_5239_18922">
<rect width="644" height="514" fill="white"/>
</clipPath>
</defs>
</svg>
