<svg width="81" height="81" viewBox="0 0 81 81" fill="none" xmlns="http://www.w3.org/2000/svg">
<g id="chat-chat-svgrepo-com 1">
<rect id="Rectangle 1097" x="8.33789" y="15.5" width="50.3243" height="38" fill="url(#paint0_linear_3502_74167)"/>
<path id="Rectangle 1098" d="M16 52.5H31L21 62.5L16 60.5V52.5Z" fill="url(#paint1_linear_3502_74167)"/>
<path id="Vector" d="M69.8701 30.4844H59.5781C60.5391 31.7188 60.5 33.3203 60.5 35L59.5781 40.1875V47.7656C59.5781 51.7734 56.2969 55.0469 52.2969 55.0469H34.5C35.4453 57.4688 42.5654 61.5313 45.3154 61.5313L61.5 64L69.8701 61.5313C73.4326 61.5313 76.3545 58.6172 76.3545 55.0469V36.9688C76.3467 33.3984 73.4326 30.4844 69.8701 30.4844Z" fill="url(#paint2_linear_3502_74167)"/>
<path id="Vector_2" d="M61.6592 46V22.8672C61.6592 17.0703 56.917 12.3281 51.1201 12.3281H16.1514C10.3545 12.3281 5.6123 17.0703 5.6123 22.8672V46C5.6123 51.5078 9.89355 56.0547 15.2842 56.5C15.2842 56.5 13.7217 68.6406 15.667 68.6406C17.6123 68.6406 30.3857 56.5391 30.3857 56.5391H51.1123C56.917 56.5391 61.6592 51.7969 61.6592 46ZM28.5264 51.8516L27.167 53.1328C27.1436 53.1563 24.4717 55.6875 21.4482 58.375C20.7842 58.9609 20.1826 59.4922 19.6279 59.9766C19.7764 58.3438 19.9326 57.1172 19.9326 57.1016L20.5576 52.2344L15.667 51.8281C12.6592 51.5781 10.2998 49.0156 10.2998 46V22.8672C10.2998 21.3125 10.9092 19.8516 12.0264 18.7422C13.1357 17.6328 14.6045 17.0156 16.1514 17.0156H51.1201C52.6748 17.0156 54.1357 17.625 55.2451 18.7422C56.3545 19.8516 56.9717 21.3203 56.9717 22.8672V46C56.9717 47.5547 56.3623 49.0156 55.2451 50.125C54.1357 51.2344 52.667 51.8516 51.1201 51.8516H28.5264Z" fill="#333333"/>
<path id="Vector_3" d="M65.5342 26.8983C64.2685 26.6405 63.0264 27.453 62.7685 28.7186C62.5107 29.9842 63.3232 31.2264 64.5889 31.4842C67.6357 32.1092 69.8467 34.8202 69.8467 37.9296V51.7577C69.8467 55.0077 67.417 57.8124 64.1982 58.2733L61.6435 58.6405L62.2529 61.1483C62.4092 61.7811 62.5576 62.4608 62.706 63.1249C61.331 61.8436 59.792 60.3749 58.3935 59.0077L57.7139 58.3358H44.6123C42.9014 58.3358 41.7529 58.2264 40.9248 57.6639C39.8545 56.9374 38.3935 57.2108 37.667 58.2811C36.9404 59.3514 37.2139 60.8124 38.2842 61.5389C40.292 62.9061 42.6045 63.0233 44.6123 63.0233H55.7998C56.581 63.7811 57.9326 65.078 59.3154 66.3671C60.581 67.5467 61.6279 68.4842 62.4248 69.1717C63.9873 70.4999 64.7139 70.9764 65.6748 70.9764C66.4326 70.9764 67.1357 70.6327 67.6123 70.0311C68.4014 69.0233 68.4092 67.7577 67.6514 63.8827C67.542 63.3202 67.4248 62.7733 67.3154 62.2733C71.5654 60.6249 74.5342 56.4686 74.5342 51.7577V37.9296C74.542 32.6171 70.7529 27.9764 65.5342 26.8983Z" fill="#333333"/>
<path id="Vector_4" d="M33.8943 42.5938C30.2824 42.5938 26.751 40.8733 23.954 37.7544C21.479 34.9876 20 31.5568 20 28.5586V25.5704L22.9881 25.5402C23.0284 25.5402 26.6302 25.5 32.5864 25.5C34.2565 25.5 35.6047 26.8482 35.6047 28.5183C35.6047 30.1885 34.2565 31.5366 32.5864 31.5366C30.3428 31.5366 28.4412 31.5467 26.9321 31.5467C27.3144 32.261 27.8174 33.0056 28.4513 33.7199C30.0611 35.5208 32.0431 36.5471 33.8943 36.5471C35.7456 36.5471 37.7276 35.5108 39.3374 33.7199C39.9913 32.9854 40.5045 32.2208 40.8868 31.4863C39.5084 31.2046 38.4621 29.9772 38.4721 28.5183C38.4822 26.8582 39.8304 25.5101 41.4904 25.5101H41.5005C44.227 25.5201 44.7703 25.5302 44.881 25.5402L47.7887 25.6509V28.5586C47.7887 31.5568 46.3097 34.9876 43.8347 37.7544C41.0276 40.8733 37.5063 42.5938 33.8943 42.5938Z" fill="url(#paint3_linear_3502_74167)"/>
</g>
<defs>
<linearGradient id="paint0_linear_3502_74167" x1="8.33789" y1="34.5" x2="58.6622" y2="34.5" gradientUnits="userSpaceOnUse">
<stop stop-color="#0032A3"/>
<stop offset="0.25" stop-color="#1A51CB"/>
<stop offset="0.5" stop-color="#3B66C8"/>
<stop offset="0.75" stop-color="#1A51CB"/>
<stop offset="1" stop-color="#0032A3"/>
</linearGradient>
<linearGradient id="paint1_linear_3502_74167" x1="16" y1="57.5" x2="31" y2="57.5" gradientUnits="userSpaceOnUse">
<stop stop-color="#0032A3"/>
<stop offset="0.25" stop-color="#1A51CB"/>
<stop offset="0.5" stop-color="#3B66C8"/>
<stop offset="0.75" stop-color="#1A51CB"/>
<stop offset="1" stop-color="#0032A3"/>
</linearGradient>
<linearGradient id="paint2_linear_3502_74167" x1="34.5" y1="47.2422" x2="76.3545" y2="47.2422" gradientUnits="userSpaceOnUse">
<stop stop-color="#FFC136"/>
<stop offset="0.197568" stop-color="#FAC142"/>
<stop offset="0.525" stop-color="#FFD168"/>
<stop offset="0.771328" stop-color="#F5BC3A"/>
<stop offset="1" stop-color="#E09B00"/>
</linearGradient>
<linearGradient id="paint3_linear_3502_74167" x1="20" y1="34.0469" x2="47.7887" y2="34.0469" gradientUnits="userSpaceOnUse">
<stop stop-color="#FFC136"/>
<stop offset="0.197568" stop-color="#FAC142"/>
<stop offset="0.525" stop-color="#FFD168"/>
<stop offset="0.771328" stop-color="#F5BC3A"/>
<stop offset="1" stop-color="#E09B00"/>
</linearGradient>
</defs>
</svg>
