<svg width="81" height="81" viewBox="0 0 81 81" fill="none" xmlns="http://www.w3.org/2000/svg">
<g id="delivery-transport-svgrepo-com 1" clip-path="url(#clip0_3502_74092)">
<path id="Vector" d="M56.7006 16.45H8.60025C7.86244 16.45 7.26416 17.0482 7.26416 17.786V45.8445H11.2724C12.7482 45.8445 13.9446 47.0407 13.9446 48.5167C13.9446 49.9925 12.7481 51.1889 11.2724 51.1889H7.26416V55.1971C7.26416 55.935 7.86244 56.5332 8.60025 56.5332H58.0367V17.786C58.0367 17.0482 57.4384 16.45 56.7006 16.45Z" fill="url(#paint0_linear_3502_74092)"/>
<path id="Vector_2" d="M74.0701 37.8279H58.0366V56.5335H79.4144V43.1723C79.4144 40.2207 77.0216 37.8279 74.0701 37.8279Z" fill="url(#paint1_linear_3502_74092)"/>
<g id="Vector_3">
<path d="M58.0366 41.8362H72.5113C73.9872 41.8362 75.1835 43.0324 75.1835 44.5084V56.5334H58.0366V41.8362Z" fill="#002882"/>
<path d="M58.0366 41.8362H72.5113C73.9872 41.8362 75.1835 43.0324 75.1835 44.5084V56.5334H58.0366V41.8362Z" fill="black" fill-opacity="0.2"/>
</g>
<path id="Vector_4" d="M68.7255 21.7944H58.0366V27.139H72.734V25.8029C72.734 23.589 70.9393 21.7944 68.7255 21.7944Z" fill="url(#paint2_linear_3502_74092)"/>
<path id="Vector_5" d="M74.0701 37.8278L71.3977 27.1389H58.0366V37.8278H74.0701Z" fill="#B4E6FF"/>
<path id="Vector_6" d="M32.6503 44.5084C38.5537 44.5084 43.3392 39.7228 43.3392 33.8195C43.3392 27.9162 38.5537 23.1306 32.6503 23.1306C26.747 23.1306 21.9614 27.9162 21.9614 33.8195C21.9614 39.7228 26.747 44.5084 32.6503 44.5084Z" fill="white"/>
<path id="Vector_7" d="M74.0703 43.1724H79.4148V48.5169H76.7427C75.2667 48.5169 74.0705 47.3206 74.0705 45.8447V43.1724H74.0703Z" fill="#F1F4FB"/>
<path id="Vector_8" d="M67.3894 47.1807C63.3626 47.1807 59.8591 49.4096 58.0366 52.6989V56.5335H77.986C77.3271 51.2621 72.8393 47.1807 67.3894 47.1807Z" fill="url(#paint3_linear_3502_74092)"/>
<g id="Vector_9">
<path d="M75.1836 50.5645V56.5335H77.9863C77.6994 54.2384 76.6858 52.1698 75.1836 50.5645Z" fill="#002882"/>
<path d="M75.1836 50.5645V56.5335H77.9863C77.6994 54.2384 76.6858 52.1698 75.1836 50.5645Z" fill="black" fill-opacity="0.2"/>
</g>
<path id="Vector_10" d="M67.3896 64.5502C71.0792 64.5502 74.0702 61.5592 74.0702 57.8696C74.0702 54.18 71.0792 51.189 67.3896 51.189C63.7 51.189 60.709 54.18 60.709 57.8696C60.709 61.5592 63.7 64.5502 67.3896 64.5502Z" fill="url(#paint4_linear_3502_74092)"/>
<path id="Vector_11" d="M63.381 31.1472H72.3997L71.3977 27.1389H58.0366V37.8278H62.0449V32.4833C62.0447 31.7455 62.643 31.1472 63.381 31.1472Z" fill="#9BD6FF"/>
<path id="Vector_12" d="M23.2976 47.1807C19.9237 47.1807 16.9196 48.7475 14.9609 51.1889H11.2726H7.26416V55.1972C7.26416 55.935 7.86244 56.5333 8.60025 56.5333H58.0367V51.1888H31.6343C29.6756 48.7475 26.6715 47.1807 23.2976 47.1807Z" fill="url(#paint5_linear_3502_74092)"/>
<path id="Vector_13" d="M23.2978 64.5502C26.9874 64.5502 29.9784 61.5592 29.9784 57.8696C29.9784 54.18 26.9874 51.189 23.2978 51.189C19.6082 51.189 16.6172 54.18 16.6172 57.8696C16.6172 61.5592 19.6082 64.5502 23.2978 64.5502Z" fill="url(#paint6_linear_3502_74092)"/>
<path id="Vector_14" d="M75.0667 36.6505L72.995 28.3638C73.5614 28.2435 73.9864 27.741 73.9864 27.139V25.8029C73.9864 22.902 71.6262 20.542 68.7254 20.542H59.2892V17.786C59.2892 16.3585 58.1279 15.1973 56.7004 15.1973H8.60012C7.17262 15.1973 6.01137 16.3585 6.01137 17.786V40.5001C6.01137 41.1918 6.57215 41.7527 7.26402 41.7527C7.9559 41.7527 8.51668 41.192 8.51668 40.5001V17.786C8.51668 17.7401 8.55402 17.7026 8.60012 17.7026H56.7003C56.7464 17.7026 56.7837 17.7401 56.7837 17.786V40.5004C56.7837 41.1921 57.3445 41.753 58.0364 41.753C58.7281 41.753 59.289 41.1923 59.289 40.5004V39.0804H74.0654C74.0665 39.0804 74.0676 39.0807 74.0687 39.0807C74.0698 39.0807 74.0711 39.0805 74.0722 39.0805C75.8904 39.0816 77.4343 40.2752 77.9646 41.9198H74.0696C73.3779 41.9198 72.817 42.4805 72.817 43.1724V45.8446C72.817 48.0088 74.5776 49.7695 76.7418 49.7695H78.1615V55.2809H74.8862C73.8103 52.174 70.857 49.9363 67.389 49.9363C63.9211 49.9363 60.9676 52.174 59.8918 55.2809H59.2887V45.8446C59.2887 45.1529 58.7279 44.592 58.0361 44.592C57.3443 44.592 56.7834 45.1527 56.7834 45.8446V55.2807H30.7946C29.7187 52.1738 26.7654 49.9362 23.2975 49.9362C19.8295 49.9362 16.8761 52.1738 15.8003 55.2807H8.60012C8.55402 55.2807 8.51668 55.243 8.51668 55.1973V52.4415H13.9446C14.6364 52.4415 15.1973 51.8807 15.1973 51.1888C15.1973 50.4971 14.6365 49.9362 13.9446 49.9362H7.26496C7.26465 49.9362 7.26449 49.9362 7.26418 49.9362C7.26387 49.9362 7.26371 49.9362 7.2634 49.9362H1.91965C1.22793 49.9362 0.666992 50.497 0.666992 51.1888C0.666992 51.8805 1.22777 52.4415 1.91965 52.4415H6.01152V55.1973C6.01152 56.6248 7.17277 57.786 8.60027 57.786H15.3665C15.3662 57.8138 15.3643 57.8416 15.3643 57.8695C15.3643 62.2437 18.9232 65.8026 23.2975 65.8026C27.6717 65.8026 31.2306 62.2437 31.2306 57.8695C31.2306 57.8416 31.2287 57.8138 31.2284 57.786H59.4581C59.4578 57.8138 59.4559 57.8416 59.4559 57.8695C59.4559 62.2437 63.0148 65.8026 67.389 65.8026C71.7632 65.8026 75.3222 62.2437 75.3222 57.8695C75.3222 57.8416 75.3203 57.8138 75.32 57.786H79.4142C80.1059 57.786 80.6668 57.2252 80.6668 56.5334V43.1721C80.667 39.8735 78.2331 37.1326 75.0667 36.6505ZM59.2892 28.3915H70.4196L72.4656 36.5752H59.2892V28.3915ZM68.7254 23.0471C70.245 23.0471 71.4812 24.2834 71.4812 25.8029V25.8863H59.2892V23.0471H68.7254ZM23.2975 63.2976C20.3045 63.2976 17.8695 60.8627 17.8695 57.8696C17.8695 54.8765 20.3045 52.4416 23.2975 52.4416C26.2904 52.4416 28.7254 54.8765 28.7254 57.8696C28.7254 60.8627 26.2904 63.2976 23.2975 63.2976ZM67.3893 63.2976C64.3964 63.2976 61.9614 60.8627 61.9614 57.8696C61.9614 54.8765 64.3964 52.4416 67.3893 52.4416C70.3823 52.4416 72.8173 54.8765 72.8173 57.8696C72.8173 60.8627 70.3823 63.2976 67.3893 63.2976ZM76.7421 47.2641C75.9593 47.2641 75.3225 46.6273 75.3225 45.8445V44.4248H78.1617V47.264H76.7421V47.2641Z" fill="#333333"/>
<path id="Vector_15" d="M23.2977 55.2808C21.8702 55.2808 20.709 56.442 20.709 57.8695C20.709 59.297 21.8702 60.4583 23.2977 60.4583C24.7252 60.4583 25.8865 59.297 25.8865 57.8695C25.8865 56.442 24.7252 55.2808 23.2977 55.2808Z" fill="#333333"/>
<path id="Vector_16" d="M67.3895 55.2808C65.962 55.2808 64.8008 56.442 64.8008 57.8695C64.8008 59.297 65.962 60.4583 67.3895 60.4583C68.817 60.4583 69.9783 59.297 69.9783 57.8695C69.9783 56.442 68.817 55.2808 67.3895 55.2808Z" fill="#333333"/>
<path id="Vector_17" d="M32.7339 51.1889C32.7339 51.8807 33.2947 52.4416 33.9865 52.4416H52.692C53.3837 52.4416 53.9447 51.8808 53.9447 51.1889C53.9447 50.4972 53.3839 49.9363 52.692 49.9363H33.9864C33.2947 49.9363 32.7339 50.4972 32.7339 51.1889Z" fill="#333333"/>
<path id="Vector_18" d="M4.59201 47.0971H20.6255C21.3172 47.0971 21.8781 46.5363 21.8781 45.8445C21.8781 45.1527 21.3173 44.5918 20.6255 44.5918H4.59201C3.90029 44.5918 3.33936 45.1526 3.33936 45.8445C3.33936 46.5363 3.90029 47.0971 4.59201 47.0971Z" fill="#333333"/>
<path id="Vector_19" d="M32.6505 21.8779C26.066 21.8779 20.709 27.235 20.709 33.8195C20.709 40.404 26.066 45.7611 32.6505 45.7611C39.2351 45.7611 44.5921 40.404 44.5921 33.8195C44.5921 27.235 39.2351 21.8779 32.6505 21.8779ZM32.6505 43.2559C27.4474 43.2559 23.2143 39.0228 23.2143 33.8196C23.2143 28.6165 27.4474 24.3834 32.6505 24.3834C37.8537 24.3834 42.0868 28.6165 42.0868 33.8196C42.0868 39.0228 37.8537 43.2559 32.6505 43.2559Z" fill="#333333"/>
<path id="Vector_20" d="M33.9033 33.3007V28.4751C33.9033 27.7833 33.3425 27.2224 32.6506 27.2224C31.9587 27.2224 31.3979 27.7832 31.3979 28.4751V33.8196C31.3979 34.1518 31.5298 34.4702 31.7648 34.7052L35.7731 38.7135C36.0176 38.958 36.3383 39.0804 36.6587 39.0804C36.9792 39.0804 37.2998 38.9582 37.5444 38.7135C38.0336 38.2243 38.0336 37.4313 37.5444 36.9421L33.9033 33.3007Z" fill="#333333"/>
</g>
<defs>
<linearGradient id="paint0_linear_3502_74092" x1="7.26416" y1="36.4916" x2="58.0367" y2="36.4916" gradientUnits="userSpaceOnUse">
<stop stop-color="#FFC136"/>
<stop offset="0.197568" stop-color="#FAC142"/>
<stop offset="0.525" stop-color="#FFD168"/>
<stop offset="0.771328" stop-color="#F5BC3A"/>
<stop offset="1" stop-color="#E09B00"/>
</linearGradient>
<linearGradient id="paint1_linear_3502_74092" x1="58.0366" y1="47.1807" x2="79.4144" y2="47.1807" gradientUnits="userSpaceOnUse">
<stop stop-color="#0032A3"/>
<stop offset="0.25" stop-color="#1A51CB"/>
<stop offset="0.5" stop-color="#3B66C8"/>
<stop offset="0.75" stop-color="#1A51CB"/>
<stop offset="1" stop-color="#0032A3"/>
</linearGradient>
<linearGradient id="paint2_linear_3502_74092" x1="58.0366" y1="24.4667" x2="72.734" y2="24.4667" gradientUnits="userSpaceOnUse">
<stop stop-color="#0032A3"/>
<stop offset="0.25" stop-color="#1A51CB"/>
<stop offset="0.5" stop-color="#3B66C8"/>
<stop offset="0.75" stop-color="#1A51CB"/>
<stop offset="1" stop-color="#0032A3"/>
</linearGradient>
<linearGradient id="paint3_linear_3502_74092" x1="58.0366" y1="51.8571" x2="77.986" y2="51.8571" gradientUnits="userSpaceOnUse">
<stop stop-color="#0032A3"/>
<stop offset="0.25" stop-color="#1A51CB"/>
<stop offset="0.5" stop-color="#3B66C8"/>
<stop offset="0.75" stop-color="#1A51CB"/>
<stop offset="1" stop-color="#0032A3"/>
</linearGradient>
<linearGradient id="paint4_linear_3502_74092" x1="60.709" y1="57.8696" x2="74.0702" y2="57.8696" gradientUnits="userSpaceOnUse">
<stop stop-color="#0032A3"/>
<stop offset="0.25" stop-color="#1A51CB"/>
<stop offset="0.5" stop-color="#3B66C8"/>
<stop offset="0.75" stop-color="#1A51CB"/>
<stop offset="1" stop-color="#0032A3"/>
</linearGradient>
<linearGradient id="paint5_linear_3502_74092" x1="7.26416" y1="51.857" x2="58.0367" y2="51.857" gradientUnits="userSpaceOnUse">
<stop stop-color="#FFC136"/>
<stop offset="0.197568" stop-color="#FAC142"/>
<stop offset="0.525" stop-color="#FFD168"/>
<stop offset="0.771328" stop-color="#F5BC3A"/>
<stop offset="1" stop-color="#E09B00"/>
</linearGradient>
<linearGradient id="paint6_linear_3502_74092" x1="16.6172" y1="57.8696" x2="29.9784" y2="57.8696" gradientUnits="userSpaceOnUse">
<stop stop-color="#0032A3"/>
<stop offset="0.25" stop-color="#1A51CB"/>
<stop offset="0.5" stop-color="#3B66C8"/>
<stop offset="0.75" stop-color="#1A51CB"/>
<stop offset="1" stop-color="#0032A3"/>
</linearGradient>
<clipPath id="clip0_3502_74092">
<rect width="80" height="80" fill="white" transform="translate(0.666992 0.5)"/>
</clipPath>
</defs>
</svg>
