<svg width="450" height="447" viewBox="0 0 450 447" fill="none" xmlns="http://www.w3.org/2000/svg">
<path d="M318.605 443.156H299.734V36.9953C299.734 35.3419 301.076 34 302.73 34H315.609C317.263 34 318.605 35.3419 318.605 36.9953V443.156Z" fill="url(#paint0_linear_5466_15202)"/>
<path d="M327.246 446.825H291.078V435.518C291.078 432.208 293.759 429.527 297.069 429.527H321.256C324.565 429.527 327.246 432.208 327.246 435.518V446.825Z" fill="url(#paint1_linear_5466_15202)"/>
<path d="M409.954 156.618H208.373C206.692 156.618 205.328 155.254 205.328 153.573V3.04483C205.328 1.36378 206.692 0 208.373 0H409.954C411.635 0 412.999 1.36378 412.999 3.04483V153.573C412.999 155.254 411.637 156.618 409.954 156.618Z" fill="url(#paint2_linear_5466_15202)"/>
<path d="M404.375 148.106V7.10034L214.899 7.10034L214.899 148.106L404.375 148.106Z" stroke="url(#paint3_linear_5466_15202)" stroke-width="2.20321" stroke-miterlimit="10"/>
<rect x="240" y="57.8474" width="139.21" height="40" rx="20" fill="#EAECF5"/>
<path fill-rule="evenodd" clip-rule="evenodd" d="M272.891 75.5542C273.88 76.2667 274.552 77.3709 274.552 78.6625C274.552 79.9542 273.88 81.0592 272.891 81.7709C273.091 82.9725 272.78 84.2359 271.869 85.1459C270.956 86.0584 269.694 86.3617 268.497 86.1667C267.788 87.1592 266.674 87.8292 265.385 87.8292C264.094 87.8292 262.987 87.1567 262.276 86.1658C261.078 86.3617 259.815 86.0592 258.901 85.1459C257.989 84.2334 257.685 82.97 257.887 81.7709C256.899 81.06 256.219 79.955 256.219 78.6625C256.219 77.37 256.899 76.2642 257.887 75.5542C257.685 74.355 257.989 73.0917 258.902 72.1792C259.813 71.2675 261.077 70.9567 262.283 71.1567C262.99 70.1658 264.096 69.4958 265.385 69.4958C266.673 69.4958 267.785 70.165 268.495 71.1567C269.697 70.9567 270.959 71.2692 271.869 72.1792C272.779 73.0892 273.092 74.3525 272.891 75.5542ZM269.203 75.4842C269.292 75.5478 269.368 75.6283 269.426 75.7211C269.484 75.8139 269.523 75.9173 269.541 76.0252C269.559 76.1332 269.555 76.2436 269.531 76.3502C269.506 76.4569 269.461 76.5576 269.397 76.6467L265.23 82.48C265.16 82.5785 265.069 82.6605 264.964 82.7203C264.859 82.7801 264.742 82.8163 264.621 82.8263C264.5 82.8363 264.379 82.8199 264.265 82.7782C264.152 82.7365 264.049 82.6706 263.963 82.585L261.463 80.085C261.311 79.9278 261.227 79.7173 261.229 79.4988C261.231 79.2804 261.319 79.0713 261.473 78.9168C261.628 78.7623 261.837 78.6747 262.055 78.6728C262.274 78.6709 262.484 78.7549 262.641 78.9067L264.445 80.7109L268.04 75.6775C268.169 75.4977 268.364 75.3764 268.582 75.3401C268.8 75.3038 269.023 75.3557 269.203 75.4842Z" fill="#002882"/>
<path fill-rule="evenodd" clip-rule="evenodd" d="M272.891 75.5542C273.88 76.2667 274.552 77.3709 274.552 78.6625C274.552 79.9542 273.88 81.0592 272.891 81.7709C273.091 82.9725 272.78 84.2359 271.869 85.1459C270.956 86.0584 269.694 86.3617 268.497 86.1667C267.788 87.1592 266.674 87.8292 265.385 87.8292C264.094 87.8292 262.987 87.1567 262.276 86.1658C261.078 86.3617 259.815 86.0592 258.901 85.1459C257.989 84.2334 257.685 82.97 257.887 81.7709C256.899 81.06 256.219 79.955 256.219 78.6625C256.219 77.37 256.899 76.2642 257.887 75.5542C257.685 74.355 257.989 73.0917 258.902 72.1792C259.813 71.2675 261.077 70.9567 262.283 71.1567C262.99 70.1658 264.096 69.4958 265.385 69.4958C266.673 69.4958 267.785 70.165 268.495 71.1567C269.697 70.9567 270.959 71.2692 271.869 72.1792C272.779 73.0892 273.092 74.3525 272.891 75.5542ZM269.203 75.4842C269.292 75.5478 269.368 75.6283 269.426 75.7211C269.484 75.8139 269.523 75.9173 269.541 76.0252C269.559 76.1332 269.555 76.2436 269.531 76.3502C269.506 76.4569 269.461 76.5576 269.397 76.6467L265.23 82.48C265.16 82.5785 265.069 82.6605 264.964 82.7203C264.859 82.7801 264.742 82.8163 264.621 82.8263C264.5 82.8363 264.379 82.8199 264.265 82.7782C264.152 82.7365 264.049 82.6706 263.963 82.585L261.463 80.085C261.311 79.9278 261.227 79.7173 261.229 79.4988C261.231 79.2804 261.319 79.0713 261.473 78.9168C261.628 78.7623 261.837 78.6747 262.055 78.6728C262.274 78.6709 262.484 78.7549 262.641 78.9067L264.445 80.7109L268.04 75.6775C268.169 75.4977 268.364 75.3764 268.582 75.3401C268.8 75.3038 269.023 75.3557 269.203 75.4842Z" fill="black" fill-opacity="0.2"/>
<path fill-rule="evenodd" clip-rule="evenodd" d="M292.012 75.115L289.473 75.5225C289.473 76.3374 290.068 76.1023 290.068 77.1028L287.263 84.5705L284.332 75.115L280.383 75.5225C280.383 76.2434 281.292 76.024 281.496 76.4472L285.727 88.2169H286.855L291.996 75.1777C292.012 75.162 292.012 75.1464 292.012 75.1307V75.115ZM295.663 78.4688C292.215 78.4688 290.915 79.7696 290.915 80.7726C290.915 81.4622 291.51 81.7443 292.137 81.7443C292.435 81.7443 292.748 81.6659 292.999 81.5562C293.14 79.7696 294.127 79.1427 295.083 79.1427C296.29 79.1427 296.494 80.3181 296.494 81.3838C296.494 81.6659 296.478 81.948 296.463 82.1987C296.133 81.9167 295.366 81.6346 294.786 81.6346C292.153 81.6346 290.758 83.4995 290.758 85.2705C290.758 86.8378 291.871 88.3265 294.19 88.3265C295.507 88.3265 296.29 87.8251 296.854 86.9317C297.293 87.731 298.281 88.2169 299.284 88.2169H300.13C300.13 88.1541 300.146 88.1072 300.146 88.0601C300.146 87.5116 299.613 87.5116 299.393 87.2922C299.158 87.057 299.096 86.5399 299.096 85.8974C299.096 85.0981 299.19 84.1107 299.19 83.092C299.19 80.804 298.719 78.4688 295.663 78.4688ZM296.369 84.2518C296.384 84.5182 296.384 84.8944 296.384 85.2862C296.384 86.3362 295.961 87.3392 294.942 87.3392C293.547 87.3392 293.626 85.4899 293.626 84.3144C293.626 83.1391 294.378 82.5279 295.052 82.5279C295.726 82.5279 296.337 83.1077 296.369 84.2518ZM303.656 85.8399C303.672 84.5574 303.672 83.2436 303.672 81.9167V75.115L299.926 75.6478C299.926 76.3661 300.898 76.084 300.898 76.5542C300.898 77.9621 300.882 79.3204 300.882 80.6499C300.882 81.995 300.898 83.2906 300.898 84.5888C300.898 86.5112 301.572 88.2169 304.048 88.2169H305.004C305.004 87.091 303.656 88.2169 303.656 85.8399ZM315.301 88.2169C315.301 87.4959 314.329 87.7623 314.329 87.2922C314.329 84.3563 314.407 81.483 314.392 78.5472L310.615 78.9416C310.615 79.6781 311.586 79.396 311.586 79.8662C311.586 81.7835 311.555 83.745 311.539 85.691C310.975 86.6496 310.333 87.1825 309.768 87.1825C308.718 87.1825 308.593 86.3519 308.577 84.9075C308.562 82.238 308.562 81.7364 308.562 78.5472L304.863 78.9416C304.863 79.6781 305.835 79.396 305.835 79.8662V84.5783C305.835 86.5086 306.477 88.3265 308.953 88.3265C310.317 88.3265 311.054 87.6527 311.524 87.0258V88.2169H315.301ZM323.372 85.0668C322.965 85.5996 322.056 86.0227 320.974 86.0227C319.736 86.0227 318.984 85.2548 318.623 84.0638C322.134 84.0638 323.56 82.4181 323.56 80.9136C323.56 79.6598 322.526 78.5002 320.222 78.5002C317.228 78.5002 315.724 81.0704 315.724 83.5309C315.724 85.9915 317.181 88.3265 320.128 88.3265C323.372 88.3265 324.218 86.2108 324.218 85.1138C324.218 84.8787 324.093 84.769 323.92 84.769C323.732 84.769 323.497 84.8944 323.372 85.0668ZM320.081 79.3308C320.723 79.3464 321.1 80.0204 321.1 80.8353C321.1 81.995 320.332 83.4056 318.482 83.4056C318.435 83.1548 318.404 82.8256 318.404 82.4652C318.404 81.1174 318.796 79.3308 320.081 79.3308Z" fill="#002882"/>
<path fill-rule="evenodd" clip-rule="evenodd" d="M363.18 88.0971L363.18 88.0972C362.603 88.6144 361.709 88.5659 361.192 87.9897L358.511 85.0025L355.885 87.9245C355.368 88.5005 354.473 88.5482 353.897 88.0306L353.897 88.0305C353.321 87.513 353.273 86.6185 353.791 86.0424L356.619 82.8947L353.619 79.5513C353.102 78.9749 353.15 78.0805 353.726 77.5633L353.727 77.5632C354.303 77.0461 355.197 77.0943 355.715 77.6707L358.512 80.7881L361.369 77.609C361.887 77.0331 362.781 76.9853 363.357 77.5028C363.933 78.0204 363.981 78.9152 363.464 79.4911L360.404 82.8959L363.287 86.1091C363.805 86.6853 363.756 87.5799 363.18 88.0971ZM325.586 72.3511V88.6619L333.124 88.6044C333.695 88.6 334.27 88.6292 334.834 88.5275C338.186 87.9221 342.481 83.7375 338.318 79.9206C339.796 78.4615 340.155 74.4917 336.488 72.8344C335.264 72.2813 334.697 72.3201 333.417 72.3244L325.586 72.3511ZM347.319 76.7063C348.873 76.7063 350.235 77.2535 351.407 78.3477C352.579 79.442 353.165 80.8363 353.165 82.5307C353.165 83.7026 352.861 84.7439 352.254 85.6545C351.647 86.5652 350.909 87.2359 350.041 87.6666C349.173 88.0973 348.28 88.3125 347.362 88.3125C346.416 88.3125 345.505 88.0832 344.63 87.6242C343.754 87.1654 343.016 86.4877 342.416 85.5911C341.816 84.6944 341.516 83.6814 341.516 82.5519C341.516 80.8575 342.109 79.4596 343.295 78.3584C344.481 77.257 345.823 76.7063 347.319 76.7063ZM345.943 84.0661C346.395 84.412 346.853 84.585 347.319 84.585C347.785 84.585 348.251 84.4086 348.717 84.0556C349.183 83.7026 349.416 83.1802 349.416 82.4883C349.416 81.7964 349.197 81.2811 348.76 80.9422C348.322 80.6034 347.835 80.4339 347.298 80.4339C346.818 80.4339 346.359 80.6104 345.922 80.9634C345.484 81.3164 345.265 81.8317 345.265 82.5095C345.265 83.2014 345.491 83.7202 345.943 84.0661Z" fill="#EEA500"/>
<path fill-rule="evenodd" clip-rule="evenodd" d="M330.332 72.5981C328.594 72.0143 327.632 71.6895 326.391 69.5077C326.051 68.9086 325.966 68.2365 326.389 67.5472C326.755 66.9493 327.639 66.9041 328.447 67.2491C329.878 67.86 330.256 69.3461 330.864 70.677C331.684 69.2386 332.568 68.502 333.999 68.8559C335.281 69.4087 335.235 70.3988 334.347 71.1996C333.521 71.9429 332.484 72.4637 331.283 72.645L331.318 76.7302L339.361 76.7298C339.395 77.0816 339.364 77.3625 339.333 77.6803H331.326L331.421 88.6175L330.471 88.6269L330.376 77.6803H325.586V76.7302H330.368L330.332 72.5981ZM330.222 71.8412C330.078 70.6447 329.116 68.1009 327.72 67.9041C327.434 67.8637 327.154 67.9311 327.042 68.1448C326.514 69.159 329.09 71.4883 330.222 71.8412ZM331.236 71.952C331.534 70.9094 332.128 70.0622 332.954 69.6321C333.624 69.2665 334.601 69.8177 333.833 70.6535C333.133 71.3024 332.273 71.8521 331.236 71.952Z" fill="#002882"/>
<mask id="path-10-inside-1_5466_15202" fill="white">
<path d="M48 307C48 301.477 52.4772 297 58 297H239C244.523 297 249 301.477 249 307V437C249 442.523 244.523 447 239 447H58C52.4771 447 48 442.523 48 437V307Z"/>
</mask>
<path d="M43 307C43 298.716 49.7157 292 58 292H239C247.284 292 254 298.716 254 307H244C244 304.239 241.761 302 239 302H58C55.2386 302 53 304.239 53 307H43ZM249 447H48H249ZM58 447C49.7157 447 43 440.284 43 432V307C43 298.716 49.7157 292 58 292V302C55.2386 302 53 304.239 53 307V437C53 442.523 55.2386 447 58 447ZM239 292C247.284 292 254 298.716 254 307V432C254 440.284 247.284 447 239 447C241.761 447 244 442.523 244 437V307C244 304.239 241.761 302 239 302V292Z" fill="#002882" mask="url(#path-10-inside-1_5466_15202)"/>
<path d="M43 307C43 298.716 49.7157 292 58 292H239C247.284 292 254 298.716 254 307H244C244 304.239 241.761 302 239 302H58C55.2386 302 53 304.239 53 307H43ZM249 447H48H249ZM58 447C49.7157 447 43 440.284 43 432V307C43 298.716 49.7157 292 58 292V302C55.2386 302 53 304.239 53 307V437C53 442.523 55.2386 447 58 447ZM239 292C247.284 292 254 298.716 254 307V432C254 440.284 247.284 447 239 447C241.761 447 244 442.523 244 437V307C244 304.239 241.761 302 239 302V292Z" fill="black" fill-opacity="0.2" mask="url(#path-10-inside-1_5466_15202)"/>
<rect x="48" y="297" width="201" height="27" fill="url(#paint4_linear_5466_15202)"/>
<rect x="58" y="329" width="100" height="34" rx="5" fill="#B9E6FE"/>
<rect x="163" y="329" width="76" height="103" rx="5" fill="#B9E6FE"/>
<rect x="58" y="368" width="100" height="34" rx="5" fill="#B9E6FE"/>
<rect x="58" y="407" width="100" height="34" rx="5" fill="#B9E6FE"/>
<path d="M202.747 361V375H199.907V366.76L196.967 375H194.927L191.987 366.76V375H189.147V361H192.167L195.947 371.82L199.727 361H202.747ZM213.955 365L210.135 375.46C209.722 376.58 209.149 377.42 208.415 377.98C207.695 378.553 206.829 378.84 205.815 378.84C205.282 378.84 204.735 378.767 204.175 378.62V376.6C204.335 376.653 204.535 376.7 204.775 376.74C205.015 376.78 205.229 376.8 205.415 376.8C206.002 376.8 206.502 376.593 206.915 376.18C207.342 375.78 207.722 375.14 208.055 374.26L204.335 365H207.055L209.255 371.4L211.235 365H213.955ZM175.817 391H180.357C181.97 391 183.197 391.3 184.037 391.9C184.877 392.487 185.297 393.353 185.297 394.5C185.297 395.167 185.144 395.74 184.837 396.22C184.53 396.7 184.05 397.107 183.397 397.44V397.5C184.25 397.82 184.864 398.247 185.237 398.78C185.624 399.313 185.817 400.013 185.817 400.88C185.817 402.213 185.424 403.233 184.637 403.94C183.864 404.647 182.73 405 181.237 405H175.817V391ZM180.617 396.58C181.177 396.58 181.61 396.427 181.917 396.12C182.237 395.8 182.397 395.36 182.397 394.8C182.397 394.253 182.217 393.853 181.857 393.6C181.51 393.347 180.97 393.22 180.237 393.22H178.697V396.58H180.617ZM181.017 402.78C181.644 402.78 182.124 402.6 182.457 402.24C182.804 401.88 182.977 401.367 182.977 400.7C182.977 399.993 182.77 399.48 182.357 399.16C181.944 398.84 181.277 398.68 180.357 398.68H178.697V402.78H181.017ZM187.666 397.44C187.666 396.307 187.646 395.493 187.606 395H190.026C190.079 395.52 190.106 396.107 190.106 396.76V396.96H190.186C190.439 396.307 190.886 395.787 191.526 395.4C192.166 395 192.899 394.8 193.726 394.8C193.886 394.8 194.086 394.82 194.326 394.86V396.88C194.273 396.853 194.113 396.84 193.846 396.84C193.206 396.84 192.606 397.013 192.046 397.36C191.499 397.707 191.059 398.173 190.726 398.76C190.393 399.333 190.226 399.953 190.226 400.62V405H187.666V397.44ZM198.555 405.2C197.902 405.2 197.315 405.067 196.795 404.8C196.275 404.52 195.868 404.14 195.575 403.66C195.282 403.167 195.135 402.62 195.135 402.02C195.135 400.993 195.542 400.207 196.355 399.66C197.168 399.113 198.328 398.84 199.835 398.84H201.395V398.42C201.395 397.887 201.235 397.48 200.915 397.2C200.608 396.907 200.168 396.76 199.595 396.76C198.995 396.76 198.422 396.867 197.875 397.08C197.328 397.293 196.882 397.587 196.535 397.96L195.415 396.48C195.962 395.96 196.608 395.553 197.355 395.26C198.102 394.953 198.875 394.8 199.675 394.8C201.008 394.8 202.055 395.113 202.815 395.74C203.575 396.367 203.955 397.233 203.955 398.34V402.9C203.955 403.207 203.975 403.567 204.015 403.98C204.068 404.393 204.128 404.733 204.195 405H201.935C201.855 404.827 201.795 404.66 201.755 404.5C201.715 404.327 201.682 404.093 201.655 403.8H201.615C200.855 404.733 199.835 405.2 198.555 405.2ZM199.175 403.28C199.815 403.28 200.342 403.12 200.755 402.8C201.182 402.467 201.395 402.047 201.395 401.54V400.54H199.755C199.075 400.54 198.548 400.667 198.175 400.92C197.815 401.173 197.635 401.54 197.635 402.02C197.635 402.42 197.768 402.733 198.035 402.96C198.315 403.173 198.695 403.28 199.175 403.28ZM206.061 397.64C206.061 396.427 206.034 395.547 205.981 395H208.381C208.448 395.56 208.481 396.14 208.481 396.74H208.541C208.781 396.153 209.201 395.687 209.801 395.34C210.414 394.98 211.094 394.8 211.841 394.8C212.988 394.8 213.854 395.187 214.441 395.96C215.028 396.733 215.321 397.873 215.321 399.38V405H212.781V399.36C212.781 398.493 212.641 397.86 212.361 397.46C212.081 397.06 211.634 396.86 211.021 396.86C210.314 396.86 209.734 397.113 209.281 397.62C208.841 398.113 208.621 398.753 208.621 399.54V405H206.061V397.64ZM221.151 405.2C219.844 405.2 218.811 404.727 218.051 403.78C217.304 402.82 216.931 401.507 216.931 399.84C216.931 398.827 217.104 397.94 217.451 397.18C217.797 396.42 218.291 395.833 218.931 395.42C219.584 395.007 220.344 394.8 221.211 394.8C221.797 394.8 222.311 394.9 222.751 395.1C223.204 395.3 223.597 395.607 223.931 396.02H223.971V390.16H226.511V402.34C226.511 403.727 226.531 404.613 226.571 405H224.171C224.157 404.773 224.151 404.333 224.151 403.68H224.111C223.804 404.133 223.377 404.5 222.831 404.78C222.297 405.06 221.737 405.2 221.151 405.2ZM221.651 403.24C222.357 403.24 222.917 403.04 223.331 402.64C223.757 402.227 223.971 401.687 223.971 401.02V398.96C223.971 398.307 223.751 397.767 223.311 397.34C222.871 396.913 222.317 396.7 221.651 396.7C220.944 396.7 220.404 396.973 220.031 397.52C219.657 398.067 219.471 398.853 219.471 399.88C219.471 400.96 219.657 401.793 220.031 402.38C220.404 402.953 220.944 403.24 221.651 403.24Z" fill="#33539B"/>
<g clip-path="url(#clip0_5466_15202)">
<path d="M67.1699 344.667C67.1699 343.65 67.5738 342.675 68.2926 341.956C69.0115 341.237 69.9866 340.833 71.0032 340.833C72.0199 340.833 72.9949 341.237 73.7138 341.956C74.4327 342.675 74.8366 343.65 74.8366 344.667C74.8366 345.683 74.4327 346.658 73.7138 347.377C72.9949 348.096 72.0199 348.5 71.0032 348.5C69.9866 348.5 69.0115 348.096 68.2926 347.377C67.5738 346.658 67.1699 345.683 67.1699 344.667ZM70.8686 349.507C70.8973 349.503 70.9262 349.5 70.9552 349.5H71.0512C71.0806 349.5 71.1094 349.502 71.1379 349.507L76.0012 350.363L76.0266 350.368C76.9226 350.575 77.8852 351.143 78.0726 352.248L78.0752 352.267L78.1512 352.852V352.853C78.3272 354.193 77.2652 355.167 76.0112 355.167C75.9836 355.166 75.9559 355.164 75.9286 355.16H65.9952C64.7412 355.16 63.6786 354.185 63.8552 352.845L63.9312 352.266L63.9346 352.246C64.1212 351.161 65.0919 350.561 65.9859 350.367L66.0052 350.363L70.8686 349.507Z" fill="url(#paint5_linear_5466_15202)"/>
</g>
<rect x="86" y="335" width="64" height="3" rx="1.5" fill="#0BA5EC"/>
<rect x="86" y="341" width="64" height="3" rx="1.5" fill="#7CD4FD"/>
<rect x="86" y="347" width="64" height="3" rx="1.5" fill="#7CD4FD"/>
<rect x="86" y="353" width="64" height="3" rx="1.5" fill="#7CD4FD"/>
<g clip-path="url(#clip1_5466_15202)">
<path d="M67.1699 381.667C67.1699 380.65 67.5738 379.675 68.2926 378.956C69.0115 378.237 69.9866 377.833 71.0032 377.833C72.0199 377.833 72.9949 378.237 73.7138 378.956C74.4327 379.675 74.8366 380.65 74.8366 381.667C74.8366 382.683 74.4327 383.658 73.7138 384.377C72.9949 385.096 72.0199 385.5 71.0032 385.5C69.9866 385.5 69.0115 385.096 68.2926 384.377C67.5738 383.658 67.1699 382.683 67.1699 381.667ZM70.8686 386.507C70.8973 386.503 70.9262 386.5 70.9552 386.5H71.0512C71.0806 386.5 71.1094 386.502 71.1379 386.507L76.0012 387.363L76.0266 387.368C76.9226 387.575 77.8852 388.143 78.0726 389.248L78.0752 389.267L78.1512 389.852V389.853C78.3272 391.193 77.2652 392.167 76.0112 392.167C75.9836 392.166 75.9559 392.164 75.9286 392.16H65.9952C64.7412 392.16 63.6786 391.185 63.8552 389.845L63.9312 389.266L63.9346 389.246C64.1212 388.161 65.0919 387.561 65.9859 387.367L66.0052 387.363L70.8686 386.507Z" fill="url(#paint6_linear_5466_15202)"/>
</g>
<rect x="86" y="374" width="64" height="3" rx="1.5" fill="#0BA5EC"/>
<rect x="86" y="380" width="64" height="3" rx="1.5" fill="#7CD4FD"/>
<rect x="86" y="386" width="64" height="3" rx="1.5" fill="#7CD4FD"/>
<rect x="86" y="392" width="64" height="3" rx="1.5" fill="#7CD4FD"/>
<g clip-path="url(#clip2_5466_15202)">
<path d="M67.1699 422.667C67.1699 421.65 67.5738 420.675 68.2926 419.956C69.0115 419.237 69.9866 418.833 71.0032 418.833C72.0199 418.833 72.9949 419.237 73.7138 419.956C74.4327 420.675 74.8366 421.65 74.8366 422.667C74.8366 423.683 74.4327 424.658 73.7138 425.377C72.9949 426.096 72.0199 426.5 71.0032 426.5C69.9866 426.5 69.0115 426.096 68.2926 425.377C67.5738 424.658 67.1699 423.683 67.1699 422.667ZM70.8686 427.507C70.8973 427.503 70.9262 427.5 70.9552 427.5H71.0512C71.0806 427.5 71.1094 427.502 71.1379 427.507L76.0012 428.363L76.0266 428.368C76.9226 428.575 77.8852 429.143 78.0726 430.248L78.0752 430.267L78.1512 430.852V430.853C78.3272 432.193 77.2652 433.167 76.0112 433.167C75.9836 433.166 75.9559 433.164 75.9286 433.16H65.9952C64.7412 433.16 63.6786 432.185 63.8552 430.845L63.9312 430.266L63.9346 430.246C64.1212 429.161 65.0919 428.561 65.9859 428.367L66.0052 428.363L70.8686 427.507Z" fill="url(#paint7_linear_5466_15202)"/>
</g>
<rect x="86" y="413" width="64" height="3" rx="1.5" fill="#0BA5EC"/>
<rect x="86" y="419" width="64" height="3" rx="1.5" fill="#7CD4FD"/>
<rect x="86" y="425" width="64" height="3" rx="1.5" fill="#7CD4FD"/>
<rect x="86" y="431" width="64" height="3" rx="1.5" fill="#7CD4FD"/>
<defs>
<linearGradient id="paint0_linear_5466_15202" x1="309.171" y1="443.155" x2="309.171" y2="34" gradientUnits="userSpaceOnUse">
<stop offset="0.5737" stop-color="#AEAEAE"/>
<stop offset="0.7333" stop-color="#787877"/>
</linearGradient>
<linearGradient id="paint1_linear_5466_15202" x1="309.162" y1="446.825" x2="309.162" y2="429.527" gradientUnits="userSpaceOnUse">
<stop stop-color="#787877"/>
<stop offset="1" stop-color="#959594"/>
</linearGradient>
<linearGradient id="paint2_linear_5466_15202" x1="205.328" y1="78.3088" x2="412.999" y2="78.3088" gradientUnits="userSpaceOnUse">
<stop stop-color="#0032A3"/>
<stop offset="0.25" stop-color="#1A51CB"/>
<stop offset="0.5" stop-color="#3B66C8"/>
<stop offset="0.75" stop-color="#1A51CB"/>
<stop offset="1" stop-color="#0032A3"/>
</linearGradient>
<linearGradient id="paint3_linear_5466_15202" x1="309.637" y1="-18.2366" x2="309.637" y2="173.443" gradientUnits="userSpaceOnUse">
<stop stop-color="white"/>
<stop offset="0.1985" stop-color="#F6F6F6"/>
<stop offset="0.6004" stop-color="#EAEAEA"/>
<stop offset="1" stop-color="#E6E6E6"/>
</linearGradient>
<linearGradient id="paint4_linear_5466_15202" x1="48" y1="310.5" x2="249" y2="310.5" gradientUnits="userSpaceOnUse">
<stop stop-color="#0032A3"/>
<stop offset="0.25" stop-color="#1A51CB"/>
<stop offset="0.5" stop-color="#3B66C8"/>
<stop offset="0.75" stop-color="#1A51CB"/>
<stop offset="1" stop-color="#0032A3"/>
</linearGradient>
<linearGradient id="paint5_linear_5466_15202" x1="63.8359" y1="348" x2="78.1704" y2="348" gradientUnits="userSpaceOnUse">
<stop stop-color="#0032A3"/>
<stop offset="0.25" stop-color="#1A51CB"/>
<stop offset="0.5" stop-color="#3B66C8"/>
<stop offset="0.75" stop-color="#1A51CB"/>
<stop offset="1" stop-color="#0032A3"/>
</linearGradient>
<linearGradient id="paint6_linear_5466_15202" x1="63.8359" y1="385" x2="78.1704" y2="385" gradientUnits="userSpaceOnUse">
<stop stop-color="#0032A3"/>
<stop offset="0.25" stop-color="#1A51CB"/>
<stop offset="0.5" stop-color="#3B66C8"/>
<stop offset="0.75" stop-color="#1A51CB"/>
<stop offset="1" stop-color="#0032A3"/>
</linearGradient>
<linearGradient id="paint7_linear_5466_15202" x1="63.8359" y1="426" x2="78.1704" y2="426" gradientUnits="userSpaceOnUse">
<stop stop-color="#0032A3"/>
<stop offset="0.25" stop-color="#1A51CB"/>
<stop offset="0.5" stop-color="#3B66C8"/>
<stop offset="0.75" stop-color="#1A51CB"/>
<stop offset="1" stop-color="#0032A3"/>
</linearGradient>
<clipPath id="clip0_5466_15202">
<rect width="16" height="16" fill="white" transform="translate(63 340)"/>
</clipPath>
<clipPath id="clip1_5466_15202">
<rect width="16" height="16" fill="white" transform="translate(63 377)"/>
</clipPath>
<clipPath id="clip2_5466_15202">
<rect width="16" height="16" fill="white" transform="translate(63 418)"/>
</clipPath>
</defs>
</svg>
