<svg width="109" height="29" viewBox="0 0 109 29" fill="none" xmlns="http://www.w3.org/2000/svg">
<g id="Group 1">
<path id="path4" fill-rule="evenodd" clip-rule="evenodd" d="M15.1174 10.5068L11.8169 11.0366C11.8169 12.096 12.591 11.7903 12.591 13.0909L8.94427 22.799L5.13424 10.5068L0.00012207 11.0366C0.00012207 11.9738 1.18184 11.6886 1.4467 12.2387L6.94759 27.5393H8.4144L15.097 10.5884C15.1174 10.568 15.1174 10.5476 15.1174 10.5272V10.5068ZM19.8644 14.8668C15.3823 14.8668 13.6912 16.5578 13.6912 17.8617C13.6912 18.7582 14.4654 19.125 15.2803 19.125C15.6675 19.125 16.0749 19.023 16.4009 18.8804C16.5842 16.5578 17.8678 15.7429 19.1106 15.7429C20.6793 15.7429 20.9442 17.2708 20.9442 18.6563C20.9442 19.023 20.9239 19.3898 20.9035 19.7157C20.4756 19.3491 19.4774 18.9823 18.7236 18.9823C15.3007 18.9823 13.4875 21.4067 13.4875 23.709C13.4875 25.7464 14.9339 27.6818 17.9492 27.6818C19.6607 27.6818 20.6793 27.0299 21.4129 25.8686C21.9833 26.9076 23.2668 27.5393 24.5707 27.5393H25.6709C25.6709 27.4577 25.6913 27.3967 25.6913 27.3355C25.6913 26.6224 24.9986 26.6224 24.7134 26.3371C24.4078 26.0315 24.3262 25.3593 24.3262 24.524C24.3262 23.4849 24.4486 22.2013 24.4486 20.877C24.4486 17.9025 23.8373 14.8668 19.8644 14.8668ZM20.7812 22.3847C20.8016 22.731 20.8016 23.2201 20.8016 23.7294C20.8016 25.0944 20.2515 26.3983 18.9273 26.3983C17.1139 26.3983 17.2158 23.9942 17.2158 22.4661C17.2158 20.9382 18.1937 20.1436 19.0698 20.1436C19.9459 20.1436 20.7405 20.8974 20.7812 22.3847ZM30.2549 24.4492C30.2753 22.782 30.2753 21.074 30.2753 19.3491V10.5068L25.406 11.1995C25.406 12.1333 26.6691 11.7665 26.6691 12.3778C26.6691 14.2081 26.6487 15.9738 26.6487 17.7022C26.6487 19.4508 26.6691 21.1352 26.6691 22.8228C26.6691 25.3219 27.5452 27.5393 30.7644 27.5393H32.0071C32.0071 26.0757 30.2549 27.5393 30.2549 24.4492ZM45.3927 27.5393C45.3927 26.602 44.1295 26.9484 44.1295 26.3371C44.1295 22.5206 44.2314 18.7853 44.211 14.9687L39.301 15.4814C39.301 16.4389 40.5641 16.0722 40.5641 16.6834C40.5641 19.1759 40.5233 21.7259 40.5029 24.2557C39.7695 25.5018 38.9342 26.1946 38.2008 26.1946C36.8358 26.1946 36.6727 25.1148 36.6523 23.237C36.6321 19.7667 36.6321 19.1147 36.6321 14.9687L31.8238 15.4814C31.8238 16.4389 33.0869 16.0722 33.0869 16.6834V22.8091C33.0869 25.3185 33.9222 27.6818 37.1414 27.6818C38.9138 27.6818 39.8714 26.8059 40.4827 25.9909V27.5393H45.3927ZM55.8852 23.4442C55.3555 24.1368 54.1738 24.6869 52.768 24.6869C51.1585 24.6869 50.1806 23.6886 49.7119 22.1403C54.2757 22.1403 56.1297 20.0009 56.1297 18.045C56.1297 16.4151 54.785 14.9076 51.7901 14.9076C47.8987 14.9076 45.9428 18.2489 45.9428 21.4475C45.9428 24.6463 47.8376 27.6818 51.6678 27.6818C55.8852 27.6818 56.9854 24.9313 56.9854 23.5053C56.9854 23.1997 56.8225 23.057 56.5982 23.057C56.3538 23.057 56.0481 23.2201 55.8852 23.4442ZM51.6068 15.9874C52.4421 16.0077 52.9311 16.8838 52.9311 17.9432C52.9311 19.4508 51.9327 21.2846 49.5286 21.2846C49.4675 20.9585 49.4267 20.5306 49.4267 20.0621C49.4267 18.31 49.9362 15.9874 51.6068 15.9874Z" fill="#002882"/>
<path id="path6" fill-rule="evenodd" clip-rule="evenodd" d="M107.638 27.3837L107.637 27.3839C106.888 28.0563 105.725 27.9932 105.053 27.2441L101.568 23.3608L98.155 27.1593C97.4822 27.9081 96.3193 27.9702 95.5704 27.2973L95.5702 27.2972C94.8215 26.6245 94.7593 25.4616 95.4322 24.7126L99.1091 20.6206L95.2086 16.2742C94.5362 15.5249 94.5991 14.3622 95.3484 13.6898L95.3486 13.6897C96.0977 13.0174 97.2607 13.0801 97.933 13.8294L101.57 17.882L105.284 13.7492C105.956 13.0006 107.119 12.9384 107.868 13.6112C108.617 14.2841 108.679 15.4473 108.006 16.1959L104.029 20.6222L107.777 24.7993C108.45 25.5484 108.387 26.7114 107.638 27.3837ZM58.7662 6.91396V28.118L68.5651 28.0432C69.3074 28.0376 70.055 28.0755 70.7887 27.9433C75.1462 27.1562 80.7297 21.7163 75.3178 16.7543C77.239 14.8575 77.7055 9.69679 72.9389 7.54219C71.3481 6.82325 70.6105 6.87366 68.9464 6.87927L58.7662 6.91396ZM87.0194 12.5758C89.0384 12.5758 90.8098 13.2871 92.3332 14.7095C93.8567 16.1322 94.6184 17.9447 94.6184 20.1474C94.6184 21.6709 94.2238 23.0245 93.4345 24.2084C92.6452 25.3923 91.6862 26.2642 90.5574 26.8241C89.4286 27.384 88.2675 27.6638 87.0745 27.6638C85.8447 27.6638 84.6607 27.3657 83.5226 26.769C82.3846 26.1726 81.4256 25.2915 80.6455 24.126C79.8654 22.9602 79.4753 21.6433 79.4753 20.1749C79.4753 17.9722 80.2462 16.155 81.7881 14.7234C83.3299 13.2916 85.0738 12.5758 87.0194 12.5758ZM85.2297 22.1434C85.8171 22.5932 86.4136 22.818 87.0194 22.818C87.625 22.818 88.2308 22.5887 88.8366 22.1297C89.4422 21.6709 89.7451 20.9918 89.7451 20.0923C89.7451 19.1929 89.4606 18.523 88.8915 18.0824C88.3226 17.6419 87.6893 17.4215 86.9918 17.4215C86.3678 17.4215 85.7712 17.6511 85.2021 18.11C84.6332 18.5689 84.3486 19.2388 84.3486 20.1199C84.3486 21.0193 84.6424 21.6937 85.2297 22.1434Z" fill="#EEA500"/>
<path id="path8" fill-rule="evenodd" clip-rule="evenodd" d="M64.936 7.23496C62.6768 6.47602 61.4261 6.05384 59.8132 3.21751C59.3702 2.43865 59.2608 1.56491 59.8101 0.668888C60.2865 -0.108392 61.4351 -0.167226 62.4854 0.281244C64.3455 1.0755 64.837 3.00742 65.627 4.73753C66.6942 2.86768 67.8432 1.91004 69.7031 2.37019C71.3697 3.08882 71.3095 4.3759 70.156 5.41693C69.0819 6.38328 67.7339 7.06035 66.1717 7.29594L66.2177 12.6067L76.6733 12.6062C76.7177 13.0635 76.6771 13.4287 76.6372 13.8419H66.2285L66.352 28.0602L65.1171 28.0725L64.9934 13.8419H58.7662V12.6068H64.9826L64.936 7.23496ZM64.7931 6.25102C64.6062 4.69552 63.3554 1.38859 61.5406 1.13276C61.1686 1.08033 60.8041 1.16793 60.6594 1.44569C59.9721 2.76421 63.3218 5.79227 64.7931 6.25102ZM66.1107 6.39512C66.4986 5.03973 67.2703 3.93829 68.3443 3.37918C69.2158 2.90395 70.4859 3.62053 69.4868 4.70702C68.5779 5.55061 67.4594 6.26517 66.1107 6.39512Z" fill="#002882"/>
</g>
</svg>
