<svg width="198" height="184" viewBox="0 0 198 184" fill="none" xmlns="http://www.w3.org/2000/svg">
<path d="M335.967 10.5618L335.777 10.3718C331.449 6.04461 324.432 6.04504 320.104 10.3727L318.244 12.2331C313.916 16.5607 306.9 16.5611 302.572 12.234L302.382 12.044C298.053 7.71681 291.036 7.71725 286.709 12.0449L269.931 28.823C265.551 33.2031 258.449 33.2031 254.069 28.823C249.689 24.4428 249.689 17.3412 254.069 12.9611L278.866 -11.8362C283.194 -16.1638 283.194 -23.1805 278.866 -27.5077L278.676 -27.6977C274.348 -32.0253 267.331 -32.0248 263.003 -27.6972L208.432 26.8737C204.052 31.2538 196.95 31.2538 192.57 26.8737C188.19 22.4935 188.19 15.3919 192.57 11.0118L247.141 -43.5591C251.469 -47.8867 251.469 -54.9034 247.141 -59.231L246.951 -59.421C242.623 -63.7486 235.606 -63.7482 231.279 -59.4206L106.371 65.4881C101.991 69.8682 101.991 76.9698 106.371 81.35C110.751 85.7301 110.751 92.8317 106.371 97.2119L51.8945 151.688C47.5143 156.068 47.5143 163.17 51.8945 167.55C56.2746 171.93 63.3762 171.93 67.7564 167.55L122.233 113.073C126.613 108.693 133.714 108.693 138.095 113.073C142.475 117.453 142.475 124.555 138.095 128.935L113.393 153.637C109.013 158.017 109.013 165.119 113.393 169.499C117.773 173.879 124.875 173.879 129.255 169.499L145.939 152.815C150.319 148.434 157.421 148.434 161.801 152.815C166.181 157.195 173.283 157.195 177.663 152.815L179.335 151.142C183.715 146.762 190.817 146.762 195.197 151.142C199.577 155.522 206.679 155.522 211.059 151.142L335.968 26.2337C340.294 21.9061 340.294 14.8894 335.967 10.5618Z" fill="url(#paint0_linear_5055_11913)"/>
<path d="M128.966 50.824C133.249 55.1069 133.249 62.051 128.966 66.3344L96.2736 99.0265C91.9907 103.309 91.9907 110.253 96.2736 114.537C100.557 118.82 100.557 125.764 96.2736 130.047L89.415 136.905C85.132 141.188 85.132 148.132 89.415 152.416C93.6979 156.699 100.642 156.699 104.925 152.416L215.169 42.1718C219.452 37.8889 219.452 30.9449 215.169 26.6615C210.886 22.3785 210.886 15.4345 215.169 11.1515L222.028 4.29327C226.311 0.0103226 226.311 -6.93372 222.028 -11.2171C217.745 -15.5001 217.745 -22.4441 222.028 -26.7271L254.72 -59.4196C259.003 -63.7026 259.003 -70.6466 254.72 -74.9296C250.437 -79.2125 243.493 -79.2125 239.21 -74.9296L220.864 -56.5838C216.581 -52.3009 209.637 -52.3009 205.354 -56.5838C201.071 -60.8668 194.127 -60.8668 189.843 -56.5838L165.924 -32.6647C161.641 -28.3818 154.697 -28.3818 150.414 -32.6647C146.131 -36.9477 146.131 -43.8917 150.414 -48.1751L159.987 -57.7478C164.269 -62.0308 164.269 -68.9748 159.987 -73.2582C155.704 -77.5412 155.704 -84.4852 159.987 -88.7686L179.495 -108.277C183.778 -112.56 183.778 -119.504 179.495 -123.788C175.212 -128.071 168.268 -128.071 163.985 -123.788L144.477 -104.279C140.194 -99.996 133.25 -99.996 128.966 -104.279C124.683 -108.562 117.739 -108.562 113.456 -104.279L3.21221 5.96547C-1.07074 10.2484 -1.07074 17.1925 3.21221 21.4754C7.49517 25.7584 14.4392 25.7584 18.7222 21.4754L38.231 1.96663C42.5139 -2.31632 49.458 -2.31632 53.7413 1.96663C58.0243 6.24959 58.0243 13.1936 53.7413 17.477L34.2325 36.9858C29.9496 41.2688 29.9496 48.2128 34.2325 52.4962C38.5155 56.7791 38.5155 63.7232 34.2325 68.0061L24.6598 77.5789C20.3769 81.8618 20.3769 88.8059 24.6598 93.0892C28.9428 97.3722 35.8868 97.3722 40.1698 93.0892L64.0893 69.1697C68.3723 64.8867 75.3163 64.8867 79.5993 69.1697C83.8822 73.4526 90.8263 73.4526 95.1092 69.1697L113.455 50.824C117.739 46.5406 124.683 46.5406 128.966 50.824Z" fill="url(#paint1_linear_5055_11913)"/>
<path d="M185.185 184C191.379 184 196.401 178.978 196.401 172.784C196.401 166.589 191.379 161.568 185.185 161.568C178.99 161.568 173.969 166.589 173.969 172.784C173.969 178.978 178.99 184 185.185 184Z" fill="url(#paint2_linear_5055_11913)"/>
<path d="M14.6301 118.135C20.8246 118.135 25.8462 113.113 25.8462 106.919C25.8462 100.724 20.8246 95.7026 14.6301 95.7026C8.43566 95.7026 3.41406 100.724 3.41406 106.919C3.41406 113.113 8.43566 118.135 14.6301 118.135Z" fill="url(#paint3_linear_5055_11913)"/>
<defs>
<linearGradient id="paint0_linear_5055_11913" x1="48.6094" y1="55.0588" x2="339.213" y2="55.0588" gradientUnits="userSpaceOnUse">
<stop stop-color="#0032A3"/>
<stop offset="0.25" stop-color="#1A51CB"/>
<stop offset="0.5" stop-color="#3B66C8"/>
<stop offset="0.75" stop-color="#1A51CB"/>
<stop offset="1" stop-color="#0032A3"/>
</linearGradient>
<linearGradient id="paint1_linear_5055_11913" x1="0" y1="14.314" x2="257.932" y2="14.314" gradientUnits="userSpaceOnUse">
<stop stop-color="#FFC136"/>
<stop offset="0.197568" stop-color="#FAC142"/>
<stop offset="0.525" stop-color="#FFD168"/>
<stop offset="0.771328" stop-color="#F5BC3A"/>
<stop offset="1" stop-color="#E09B00"/>
</linearGradient>
<linearGradient id="paint2_linear_5055_11913" x1="173.969" y1="172.784" x2="196.401" y2="172.784" gradientUnits="userSpaceOnUse">
<stop stop-color="#FFC136"/>
<stop offset="0.197568" stop-color="#FAC142"/>
<stop offset="0.525" stop-color="#FFD168"/>
<stop offset="0.771328" stop-color="#F5BC3A"/>
<stop offset="1" stop-color="#E09B00"/>
</linearGradient>
<linearGradient id="paint3_linear_5055_11913" x1="3.41406" y1="106.919" x2="25.8462" y2="106.919" gradientUnits="userSpaceOnUse">
<stop stop-color="#FFC136"/>
<stop offset="0.197568" stop-color="#FAC142"/>
<stop offset="0.525" stop-color="#FFD168"/>
<stop offset="0.771328" stop-color="#F5BC3A"/>
<stop offset="1" stop-color="#E09B00"/>
</linearGradient>
</defs>
</svg>
