<svg width="182" height="171" viewBox="0 0 182 171" fill="none" xmlns="http://www.w3.org/2000/svg">
<path d="M178.873 126.061L178.699 125.887C174.733 121.922 168.303 121.922 164.337 125.888L162.632 127.593C158.666 131.559 152.236 131.559 148.27 127.594L148.096 127.42C144.129 123.454 137.699 123.455 133.733 127.42L118.358 142.796C114.344 146.81 107.836 146.81 103.822 142.796C99.8078 138.782 99.8078 132.274 103.822 128.26L126.546 105.536C130.512 101.57 130.512 95.14 126.546 91.1746L126.371 91.0005C122.405 87.0347 115.975 87.0351 112.009 91.0009L62.0003 141.01C57.9863 145.024 51.4784 145.024 47.4644 141.01C43.4505 136.996 43.4505 130.488 47.4644 126.474L97.4731 76.4651C101.439 72.4993 101.439 66.0691 97.4731 62.1033L97.299 61.9292C93.3328 57.9634 86.9027 57.9638 82.9369 61.9296L-31.5284 176.396C-35.5424 180.41 -35.5424 186.918 -31.5284 190.932C-27.5145 194.946 -27.5145 201.453 -31.5284 205.467L-81.4505 255.389C-85.4644 259.403 -85.4644 265.911 -81.4505 269.925C-77.4365 273.939 -70.9286 273.939 -66.9146 269.925L-16.9926 220.003C-12.9787 215.989 -6.47074 215.989 -2.45679 220.003C1.55716 224.017 1.55716 230.525 -2.45679 234.539L-25.0935 257.175C-29.1075 261.189 -29.1075 267.697 -25.0935 271.711C-21.0796 275.725 -14.5717 275.725 -10.5577 271.711L4.73189 256.422C8.74583 252.408 15.2537 252.408 19.2677 256.422C23.2816 260.436 29.7896 260.436 33.8035 256.422L35.3359 254.889C39.3499 250.875 45.8578 250.875 49.8718 254.889C53.8857 258.903 60.3936 258.903 64.4076 254.889L178.874 140.423C182.839 136.457 182.839 130.027 178.873 126.061Z" fill="url(#paint0_linear_5055_11918)"/>
<path d="M-10.8156 162.958C-6.89066 166.883 -6.89066 173.246 -10.8156 177.171L-40.775 207.13C-44.6999 211.055 -44.6999 217.419 -40.775 221.344C-36.8501 225.269 -36.8501 231.632 -40.775 235.557L-47.0602 241.843C-50.9851 245.768 -50.9851 252.131 -47.0602 256.056C-43.1353 259.981 -36.7714 259.981 -32.8465 256.056L68.181 155.029C72.1058 151.104 72.1058 144.74 68.181 140.815C64.2561 136.89 64.2561 130.527 68.181 126.602L74.4658 120.317C78.3907 116.392 78.3907 110.029 74.4658 106.103C70.5409 102.178 70.5409 95.8149 74.4658 91.89L104.425 61.9306C108.35 58.0057 108.35 51.6422 104.425 47.7173C100.5 43.7924 94.1368 43.7924 90.2115 47.7173L73.3996 64.5293C69.4747 68.4542 63.1111 68.4542 59.1859 64.5293C55.261 60.6044 48.8975 60.6044 44.9722 64.5293L23.0527 86.4487C19.1278 90.3736 12.7643 90.3736 8.83902 86.4487C4.91412 82.5238 4.91412 76.1603 8.83902 72.235L17.6115 63.4626C21.5363 59.5377 21.5363 53.1742 17.6115 49.2489C13.6866 45.324 13.6866 38.9605 17.6115 35.0352L35.4893 17.1574C39.4142 13.2325 39.4142 6.86896 35.4893 2.94367C31.5644 -0.981223 25.2009 -0.981223 21.276 2.94367L3.39815 20.8215C-0.526749 24.7464 -6.89027 24.7464 -10.8156 20.8215C-14.7404 16.8966 -21.104 16.8966 -25.0288 20.8215L-126.056 121.849C-129.981 125.774 -129.981 132.138 -126.056 136.063C-122.131 139.988 -115.768 139.988 -111.843 136.063L-93.9652 118.185C-90.0403 114.26 -83.6768 114.26 -79.7515 118.185C-75.8266 122.11 -75.8266 128.473 -79.7515 132.399L-97.6293 150.276C-101.554 154.201 -101.554 160.565 -97.6293 164.49C-93.7044 168.415 -93.7044 174.778 -97.6293 178.703L-106.402 187.476C-110.327 191.401 -110.327 197.764 -106.402 201.689C-102.477 205.614 -96.1134 205.614 -92.1885 201.689L-70.2686 179.77C-66.3437 175.845 -59.9802 175.845 -56.0553 179.77C-52.1304 183.695 -45.7669 183.695 -41.842 179.77L-25.03 162.958C-21.1039 159.032 -14.7404 159.032 -10.8156 162.958Z" fill="url(#paint1_linear_5055_11918)"/>
<defs>
<linearGradient id="paint0_linear_5055_11918" x1="-84.4609" y1="166.838" x2="181.847" y2="166.838" gradientUnits="userSpaceOnUse">
<stop stop-color="#0032A3"/>
<stop offset="0.25" stop-color="#1A51CB"/>
<stop offset="0.5" stop-color="#3B66C8"/>
<stop offset="0.75" stop-color="#1A51CB"/>
<stop offset="1" stop-color="#0032A3"/>
</linearGradient>
<linearGradient id="paint1_linear_5055_11918" x1="-129" y1="129.5" x2="107.369" y2="129.5" gradientUnits="userSpaceOnUse">
<stop stop-color="#FFC136"/>
<stop offset="0.197568" stop-color="#FAC142"/>
<stop offset="0.525" stop-color="#FFD168"/>
<stop offset="0.771328" stop-color="#F5BC3A"/>
<stop offset="1" stop-color="#E09B00"/>
</linearGradient>
</defs>
</svg>
