<svg width="84" height="22" viewBox="0 0 84 22" fill="none" xmlns="http://www.w3.org/2000/svg">
<g id="Group 1">
<path id="path4" fill-rule="evenodd" clip-rule="evenodd" d="M11.906 8.26767L9.36715 8.67514C9.36715 9.49007 9.96266 9.25499 9.96266 10.2554L7.15746 17.7232L4.22666 8.26767L0.277344 8.67514C0.277344 9.3961 1.18636 9.17668 1.39009 9.59984L5.62155 21.3695H6.74986L11.8903 8.33041C11.906 8.31472 11.906 8.29904 11.906 8.28335V8.26767ZM15.5575 11.6215C12.1098 11.6215 10.809 12.9223 10.809 13.9253C10.809 14.6149 11.4045 14.897 12.0313 14.897C12.3292 14.897 12.6425 14.8186 12.8933 14.7088C13.0343 12.9223 14.0217 12.2954 14.9777 12.2954C16.1844 12.2954 16.3881 13.4708 16.3881 14.5365C16.3881 14.8186 16.3726 15.1007 16.3569 15.3514C16.0277 15.0694 15.2598 14.7872 14.68 14.7872C12.047 14.7872 10.6523 16.6522 10.6523 18.4232C10.6523 19.9904 11.7649 21.4792 14.0844 21.4792C15.4008 21.4792 16.1844 20.9777 16.7487 20.0844C17.1875 20.8837 18.1748 21.3695 19.1778 21.3695H20.0241C20.0241 21.3068 20.0398 21.2599 20.0398 21.2128C20.0398 20.6642 19.507 20.6642 19.2876 20.4448C19.0525 20.2097 18.9897 19.6926 18.9897 19.0501C18.9897 18.2508 19.0838 17.2634 19.0838 16.2447C19.0838 13.9566 18.6136 11.6215 15.5575 11.6215ZM16.2628 17.4045C16.2785 17.6709 16.2785 18.0471 16.2785 18.4389C16.2785 19.4889 15.8554 20.4919 14.8367 20.4919C13.4418 20.4919 13.5202 18.6426 13.5202 17.4671C13.5202 16.2918 14.2724 15.6806 14.9463 15.6806C15.6202 15.6806 16.2315 16.2604 16.2628 17.4045ZM23.5503 18.9926C23.5659 17.7101 23.5659 16.3963 23.5659 15.0694V8.26767L19.8204 8.80046C19.8204 9.51879 20.792 9.23665 20.792 9.70684C20.792 11.1148 20.7763 12.473 20.7763 13.8026C20.7763 15.1477 20.792 16.4433 20.792 17.7415C20.792 19.6639 21.4659 21.3695 23.9422 21.3695H24.8981C24.8981 20.2437 23.5503 21.3695 23.5503 18.9926ZM35.1947 21.3695C35.1947 20.6486 34.223 20.915 34.223 20.4448C34.223 17.509 34.3014 14.6357 34.2857 11.6999L30.5088 12.0943C30.5088 12.8308 31.4804 12.5487 31.4804 13.0189C31.4804 14.9362 31.449 16.8977 31.4333 18.8437C30.8692 19.8023 30.2266 20.3352 29.6625 20.3352C28.6125 20.3352 28.487 19.5046 28.4713 18.0601C28.4558 15.3907 28.4558 14.8891 28.4558 11.6999L24.7571 12.0943C24.7571 12.8308 25.7287 12.5487 25.7287 13.0189V17.7309C25.7287 19.6613 26.3713 21.4792 28.8475 21.4792C30.2109 21.4792 30.9476 20.8054 31.4178 20.1785V21.3695H35.1947ZM43.2659 18.2195C42.8584 18.7522 41.9494 19.1754 40.868 19.1754C39.6299 19.1754 38.8777 18.4075 38.5172 17.2165C42.0278 17.2165 43.4539 15.5708 43.4539 14.0663C43.4539 12.8125 42.4196 11.6529 40.1158 11.6529C37.1224 11.6529 35.6179 14.2231 35.6179 16.6835C35.6179 19.1442 37.0754 21.4792 40.0217 21.4792C43.2659 21.4792 44.1122 19.3634 44.1122 18.2665C44.1122 18.0314 43.9869 17.9216 43.8143 17.9216C43.6263 17.9216 43.3912 18.0471 43.2659 18.2195ZM39.9748 12.4835C40.6174 12.4991 40.9935 13.1731 40.9935 13.988C40.9935 15.1477 40.2254 16.5582 38.3762 16.5582C38.3291 16.3074 38.2978 15.9783 38.2978 15.6179C38.2978 14.2701 38.6897 12.4835 39.9748 12.4835Z" fill="#002882"/>
<path id="path6" fill-rule="evenodd" clip-rule="evenodd" d="M83.0778 21.2497L83.0776 21.2499C82.5012 21.7671 81.6067 21.7186 81.0896 21.1424L78.409 18.1552L75.7834 21.0771C75.2659 21.6531 74.3713 21.7009 73.7953 21.1833L73.7951 21.1832C73.2192 20.6657 73.1713 19.7712 73.6889 19.1951L76.5173 16.0474L73.517 12.704C72.9998 12.1276 73.0481 11.2332 73.6245 10.716L73.6247 10.7159C74.2009 10.1987 75.0955 10.247 75.6127 10.8233L78.4102 13.9407L81.2669 10.7617C81.7844 10.1858 82.6791 10.1379 83.2551 10.6555C83.8311 11.1731 83.879 12.0679 83.3614 12.6438L80.3019 16.0486L83.1853 19.2617C83.7024 19.838 83.6541 20.7326 83.0778 21.2497ZM45.4844 5.50379V21.8146L53.022 21.757C53.593 21.7527 54.168 21.7819 54.7324 21.6802C58.0843 21.0747 62.3793 16.8902 58.2163 13.0733C59.6942 11.6142 60.053 7.64443 56.3865 5.98704C55.1627 5.43401 54.5954 5.47279 53.3153 5.47711L45.4844 5.50379ZM67.2176 9.85903C68.7707 9.85903 70.1333 10.4062 71.3051 11.5004C72.477 12.5947 73.063 13.989 73.063 15.6834C73.063 16.8552 72.7594 17.8965 72.1523 18.8072C71.5451 19.7179 70.8074 20.3886 69.9391 20.8193C69.0708 21.25 68.1777 21.4652 67.2599 21.4652C66.3139 21.4652 65.4032 21.2359 64.5277 20.7769C63.6524 20.3181 62.9146 19.6403 62.3146 18.7438C61.7145 17.8471 61.4144 16.8341 61.4144 15.7045C61.4144 14.0102 62.0074 12.6123 63.1935 11.511C64.3795 10.4097 65.7209 9.85903 67.2176 9.85903ZM65.8409 17.2188C66.2927 17.5647 66.7516 17.7377 67.2176 17.7377C67.6834 17.7377 68.1494 17.5613 68.6154 17.2082C69.0813 16.8552 69.3143 16.3329 69.3143 15.641C69.3143 14.9491 69.0954 14.4338 68.6577 14.0949C68.2201 13.756 67.7329 13.5865 67.1964 13.5865C66.7164 13.5865 66.2574 13.7631 65.8197 14.1161C65.3821 14.4691 65.1631 14.9844 65.1631 15.6622C65.1631 16.3541 65.3891 16.8728 65.8409 17.2188Z" fill="#EEA500"/>
<path id="path8" fill-rule="evenodd" clip-rule="evenodd" d="M50.2303 5.75075C48.4925 5.16695 47.5304 4.8422 46.2897 2.6604C45.9489 2.06128 45.8648 1.38917 46.2873 0.699923C46.6538 0.102016 47.5374 0.0567586 48.3452 0.401736C49.7761 1.0127 50.1542 2.49879 50.7619 3.82965C51.5828 2.3913 52.4667 1.65466 53.8974 2.00862C55.1794 2.56141 55.133 3.55147 54.2457 4.35226C53.4195 5.09561 52.3826 5.61643 51.1809 5.79766L51.2163 9.88284L59.2591 9.88244C59.2932 10.2343 59.2619 10.5152 59.2313 10.833H51.2245L51.3196 21.7702L50.3696 21.7796L50.2745 10.833H45.4844V9.88293H50.2662L50.2303 5.75075ZM50.1204 4.99387C49.9767 3.79733 49.0145 1.25354 47.6185 1.05675C47.3323 1.01642 47.052 1.0838 46.9406 1.29747C46.4119 2.31171 48.9886 4.64098 50.1204 4.99387ZM51.1339 5.10471C51.4323 4.06211 52.026 3.21485 52.8521 2.78477C53.5225 2.4192 54.4995 2.97042 53.731 3.80617C53.0318 4.45509 52.1714 5.00475 51.1339 5.10471Z" fill="#002882"/>
</g>
</svg>
