<svg width="527" height="505" viewBox="0 0 527 505" fill="none" xmlns="http://www.w3.org/2000/svg">
<path d="M67.824 314.244C67.8672 314.287 65.9229 314.676 65.8797 314.676C54.7321 316.664 42.8068 316.707 32.8258 322.324C24.2274 327.163 23.104 335.459 18.3512 342.718C11.9132 352.612 -3.7279 363.889 10.7467 375.21C24.6164 386.098 42.634 379.877 58.0159 376.982C76.5952 373.482 104.075 387.611 123.476 377.543C167.115 354.902 119.457 300.158 70.935 313.768" stroke="black" stroke-width="3.45662" stroke-miterlimit="10" stroke-linecap="round" stroke-linejoin="round"/>
<path d="M60.0405 274.795C58.6146 273.585 45.2635 273.888 43.4487 273.542C29.0606 270.733 5.12343 265.246 3.22229 286.936C2.61738 293.85 4.86423 300.936 9.09859 306.38C25.9064 328.027 47.7262 316.836 69.2005 313.034C76.7186 311.695 85.7923 313.034 92.1438 308.065C96.0757 304.954 98.9707 300.028 99.4028 294.973C101.045 275.443 73.262 273.888 60.0405 274.795Z" stroke="black" stroke-width="3.45662" stroke-miterlimit="10" stroke-linecap="round" stroke-linejoin="round"/>
<path d="M45.7009 230.464C45.5281 229.038 35.5039 237.42 35.0286 237.939C29.282 244.463 24.7884 253.105 27.1648 261.962C30.2326 273.369 38.0963 275.832 46.9971 275.529C54.256 275.27 62.2495 273.196 68.8603 272.591C81.4769 271.425 95.3034 277.388 104.031 264.684C124.253 235.217 77.9338 215.082 49.676 229.513" stroke="black" stroke-width="3.45662" stroke-miterlimit="10" stroke-linecap="round" stroke-linejoin="round"/>
<path d="M58.5721 198.49C48.98 197.151 38.9558 195.077 29.4501 198.058C9.61771 204.323 10.7843 226.791 31.6104 229.729C38.0484 230.637 49.8009 226.1 61.467 224.026C67.6457 222.903 75.6824 225.106 78.7934 223.378C82.1636 221.52 85.1448 218.236 85.4041 214.261C86.3979 200.478 68.2075 199.441 58.7882 198.101" stroke="black" stroke-width="3.45662" stroke-miterlimit="10" stroke-linecap="round" stroke-linejoin="round"/>
<path opacity="0.9116" d="M31.1338 204.194C30.7018 204.323 31.998 204.151 32.4301 204.107C33.3374 204.064 34.288 204.021 35.1953 204.021C37.7014 203.978 40.2075 203.935 42.7135 203.978C50.1453 204.107 57.7498 204.453 65.0519 205.577C66.3481 205.793 71.3171 206.182 71.8788 207.391C71.9652 207.564 71.749 207.694 71.5762 207.78C68.206 209.292 56.8857 207.261 54.8981 208.774C54.8117 208.86 56.1511 209.076 56.2375 209.076C57.6633 209.292 59.0892 209.422 60.5151 209.552C62.8915 209.811 74.9033 210.329 74.9033 213.224C74.9033 216.379 54.2067 216.94 50.318 217.588" stroke="black" stroke-width="1.72831" stroke-miterlimit="10" stroke-linecap="round" stroke-linejoin="round"/>
<path opacity="0.9116" d="M62.0748 233.1C61.3403 232.97 63.5439 232.97 64.2785 232.97C65.1858 232.97 66.0932 232.97 67.0006 233.013C68.7721 233.1 70.5436 233.272 72.3151 233.445C76.2038 233.834 92.2338 235.087 94.0485 238.198C94.4374 238.889 93.7461 239.278 93.098 239.494C88.8204 240.834 68.6425 240.229 67.5623 241.093C67.087 241.482 68.772 241.309 69.4201 241.352C71.1916 241.482 73.0064 241.568 74.778 241.655C81.6048 242 89.1661 241.395 95.7768 243.21C96.2953 243.34 97.8076 243.728 97.6348 244.42C96.9867 246.926 87.0489 246.148 85.2342 246.062C80.0061 245.846 48.6805 240.315 46.1312 244.636C45.5263 245.63 46.7361 246.235 47.6435 246.537C56.4579 249.648 66.8277 248.352 76.0309 249.778C76.4198 249.821 79.0555 250.08 79.0555 250.728C79.0555 251.463 71.1916 251.809 68.9881 251.895C63.4143 252.198 41.94 252.543 40.2549 258.678C37.0143 270.172 83.9379 263.042 64.7969 260.364C62.3341 260.018 59.828 259.888 57.322 259.888" stroke="black" stroke-width="1.72831" stroke-miterlimit="10" stroke-linecap="round" stroke-linejoin="round"/>
<path opacity="0.9116" d="M27.4632 281.319C27.4632 281.449 38.0923 282.011 39.8638 282.097C48.8943 282.486 72.4856 280.369 79.7877 283.653C86.6146 286.764 63.7578 287.368 63.2393 287.411C62.8072 287.455 58.5728 287.584 58.6592 288.276C58.832 289.14 63.5849 289.054 64.3195 289.097C70.1093 289.313 75.8559 289.053 81.6457 288.924C82.5531 288.924 87.6948 288.535 87.7812 289.831C87.8676 290.955 83.3308 291.3 82.5099 291.43C79.5285 291.819 67.1279 292.51 65.486 294.282C64.7515 295.059 69.7636 295.578 70.1957 295.621C72.3128 295.837 89.7256 295.794 88.0405 298.602C86.2257 301.713 77.973 302.059 74.3868 302.491C63.412 303.874 41.2033 308.8 31.0927 307.201C29.7964 306.985 16.7477 303.096 23.5745 301.584C29.0187 300.417 35.6295 302.535 40.6416 303.96" stroke="black" stroke-width="1.72831" stroke-miterlimit="10" stroke-linecap="round" stroke-linejoin="round"/>
<path opacity="0.9116" d="M38.83 327.897C38.4411 328.07 39.5213 327.768 39.6509 327.768C40.515 327.595 41.3359 327.465 42.2001 327.293C44.7493 326.861 47.3419 326.428 49.9343 325.996C55.5081 325.046 81.7352 321.027 82.729 323.231C83.161 324.182 74.1307 325.78 72.748 325.996C63.4152 327.509 53.5205 327.422 44.2741 329.323C42.8482 329.626 35.5029 331.311 38.3114 333.298C45.2246 338.094 75.8158 330.101 84.1548 328.373C85.8832 328.027 99.0183 325.348 99.8393 327.465C100.747 329.798 85.9263 332.737 84.0252 333.082C69.8531 335.631 40.4286 336.626 29.6698 343.496C23.4047 347.514 36.1943 347.211 38.83 347.298C39.3917 347.341 45.7431 347.859 45.3543 348.162C41.9841 350.668 17.7014 354.945 24.4418 361.038C29.8427 365.92 45.5271 365.704 51.6194 361.643C57.4957 357.711 42.8914 357.711 46.3048 359.828C49.675 361.902 57.0204 360.735 60.8227 360.347C67.1742 359.655 73.3961 358.748 79.8341 358.661C86.9633 358.575 94.1358 359.482 101.092 358.013C115.567 354.945 123.82 341.551 111.765 333.428" stroke="black" stroke-width="1.72831" stroke-miterlimit="10" stroke-linecap="round" stroke-linejoin="round"/>
<path d="M37.6149 165.264C15.6222 168.245 1.88214 189.719 17.7394 195.768C23.6588 198.058 43.4912 193.91 61.9409 198.879C75.0761 202.422 111.068 204.712 112.58 178.96C113.617 160.597 49.4106 163.665 37.6149 165.264Z" stroke="black" stroke-width="3.45662" stroke-miterlimit="10" stroke-linecap="round" stroke-linejoin="round"/>
<path opacity="0.9116" d="M36.9705 167.726C37.7482 167.726 35.4582 168.288 34.7669 168.72C33.8595 169.282 30.2733 171.615 32.2176 172.825C36.9705 175.763 61.21 172.522 67.6911 172.263C85.0606 171.658 102.214 170.837 101.782 174.207C101.523 176.238 89.079 176.454 87.5235 176.541C72.8761 177.102 58.0991 176.973 43.4516 176.498C41.5937 176.454 26.9895 175.331 27.2055 178.398C27.3783 180.602 42.4578 181.077 44.1862 181.077C58.7904 181.25 73.4378 179.954 88.042 180.256C91.4554 180.343 100.14 180.17 101.868 184.188C103.899 188.985 90.2456 192.355 87.6099 192.873C73.1785 195.768 57.1485 195.854 42.5442 194.256C39.4765 193.91 29.4524 193.478 28.2425 189.46C27.3352 186.435 40.2542 185.917 41.5504 185.873C55.2905 185.441 69.2467 185.312 82.9867 185.614C95.0417 185.873 71.3638 188.553 70.4565 188.596C66.4814 188.898 62.5062 189.071 58.5311 189.071C52.3524 189.071 46.1737 188.682 39.995 188.38" stroke="black" stroke-width="1.72831" stroke-miterlimit="10" stroke-linecap="round" stroke-linejoin="round"/>
<path fill-rule="evenodd" clip-rule="evenodd" d="M30.5343 125.383C26.8616 126.376 13.7265 129.401 10.702 138.172C5.8627 152.215 10.2698 165.177 23.189 166.3C36.9722 167.51 84.6736 160.165 92.5374 165.264C96.6421 167.942 103.728 169.455 106.321 163.881C110.512 154.764 102.778 147.98 94.8707 144.999C86.7476 141.888 68.1251 128.364 53.3912 125.426C45.4842 123.827 37.3179 123.611 30.5343 125.383Z" fill="#F7F2EE"/>
<path opacity="0.9116" d="M30.5343 125.383C26.8616 126.376 13.7265 129.401 10.702 138.172C5.8627 152.215 10.2698 165.177 23.189 166.3C36.9722 167.51 84.6736 160.165 92.5374 165.264C96.6421 167.942 103.728 169.455 106.321 163.881C110.512 154.764 102.778 147.98 94.8707 144.999C86.7476 141.888 68.1251 128.364 53.3912 125.426C45.4842 123.827 37.3179 123.611 30.5343 125.383Z" stroke="black" stroke-width="3.45662" stroke-miterlimit="10" stroke-linecap="round" stroke-linejoin="round"/>
<path opacity="0.9116" d="M10.2249 139.166C3.09558 140.376 0.546347 124.518 1.06484 120.414C1.66975 115.877 3.74372 111.945 6.68184 108.531C19.7306 93.3224 75.3822 86.1068 73.3514 62.1697" stroke="black" stroke-width="1.72831" stroke-miterlimit="10" stroke-linecap="round" stroke-linejoin="round"/>
<path fill-rule="evenodd" clip-rule="evenodd" d="M48.6821 87.7058C48.5093 87.7922 48.9846 87.5329 49.1142 87.4033C49.892 86.8416 50.5833 86.1934 51.2746 85.4589C52.8301 83.817 54.1264 81.9588 55.2498 80.0145C58.3608 74.6135 58.7064 66.4908 51.3611 64.5897C50.1945 64.2872 48.9847 64.2007 47.7748 64.2871C46.4786 64.3735 45.2256 64.6325 44.0158 65.1078C39.5654 66.7065 44.4046 69.256 48.5093 72.0645C51.8796 74.3113 50.9289 79.9284 48.6821 87.7058Z" fill="black"/>
<path opacity="0.9116" d="M48.6821 87.7058C48.5093 87.7922 48.9846 87.5329 49.1142 87.4033C49.892 86.8416 50.5833 86.1934 51.2746 85.4589C52.8301 83.817 54.1264 81.9588 55.2498 80.0145C58.3608 74.6135 58.7064 66.4908 51.3611 64.5897C50.1945 64.2872 48.9847 64.2007 47.7748 64.2871C46.4786 64.3735 45.2256 64.6325 44.0158 65.1078C39.5654 66.7065 44.4046 69.256 48.5093 72.0645C51.8796 74.3113 50.9289 79.9284 48.6821 87.7058Z" stroke="black" stroke-width="1.72831" stroke-miterlimit="10" stroke-linecap="round" stroke-linejoin="round"/>
<path fill-rule="evenodd" clip-rule="evenodd" d="M68.3431 31.3196C68.2567 29.8505 71.1085 22.8075 72.3615 22.505C73.6577 22.2458 75.7317 28.3813 76.0341 29.6343C76.1206 30.0232 76.207 30.4552 76.207 30.8441C76.207 31.0169 76.0342 31.4921 76.207 31.4057C76.3367 31.3625 76.5527 30.4121 76.6391 30.2824C77.244 29.1158 83.7684 24.2766 84.935 25.0975C88.1323 27.4307 83.8548 34.9056 83.8548 34.9488C83.898 35.0352 84.5029 34.7762 84.5893 34.7762C85.2806 34.6034 86.0584 34.6465 86.7497 34.6897C88.0459 34.8193 91.8482 35.8561 92.4099 37.2387C93.1013 39.0534 89.6446 42.6832 88.3483 42.9857C88.0891 43.0721 84.8054 43.4178 84.8486 43.6338C84.935 43.9795 87.3114 44.5842 87.6138 44.757C88.7804 45.4051 92.1939 49.8555 91.5458 51.3677C90.9841 52.664 85.2806 52.4913 84.2436 52.1888C84.0276 52.1024 81.9537 51.2384 81.824 51.4112C81.4784 51.8865 82.9906 53.658 83.2067 54.0037C84.0708 55.4727 85.4967 60.5279 83.3363 61.6945C81.392 62.7747 78.1946 58.5836 77.7193 57.1577C77.4601 56.3368 77.5896 53.8739 77.0279 53.269C76.9847 53.2258 77.0279 53.3554 77.0279 53.3986C77.1144 54.522 77.2007 56.5096 76.8983 57.5898C76.5526 58.886 73.3552 62.6449 72.0158 62.9473C71.9294 62.9473 71.7134 62.3859 71.6702 62.3427C70.7629 60.4415 70.3739 58.4108 70.2875 56.2936C70.2875 56.2072 70.2443 54.1332 70.2011 54.1332C70.1579 54.1332 68.6024 56.855 68.3431 57.1143C66.9605 58.4969 60.4361 60.3982 59.7016 58.5835C59.2263 57.4169 63.3311 50.9357 64.8001 50.9357C65.1026 50.9357 64.1953 50.9357 63.8928 50.9357C63.2879 50.8924 62.7262 50.8492 62.1213 50.7196C60.2201 50.2875 56.1154 50.1146 55.5969 48.0407C54.9919 45.7506 60.8251 43.504 61.7324 43.4608C62.2077 43.4608 63.2879 43.9362 63.1151 43.5473C62.899 43.1152 60.2633 42.4237 59.7448 42.0781C57.5412 40.6522 54.9056 39.3994 55.0784 36.8501C55.208 34.9922 63.1582 34.5601 64.368 35.1218C64.4545 35.165 65.2755 35.5536 65.1891 35.7264C64.8002 36.3314 62.2077 34.4737 61.9485 34.2576C60.7819 33.3071 57.3252 27.085 59.3128 26.5233C60.2201 26.264 62.2941 26.6963 63.5903 27.3444C65.1026 28.2086 67.5222 30.4554 68.3431 31.3196Z" fill="#FABD14"/>
<path opacity="0.9116" d="M68.3431 31.3196C68.2567 29.8505 71.1085 22.8075 72.3615 22.505C73.6577 22.2458 75.7317 28.3813 76.0341 29.6343C76.1206 30.0232 76.207 30.4552 76.207 30.8441C76.207 31.0169 76.0342 31.4921 76.207 31.4057C76.3367 31.3625 76.5527 30.4121 76.6391 30.2824C77.244 29.1158 83.7684 24.2766 84.935 25.0975C88.1323 27.4307 83.8548 34.9056 83.8548 34.9488C83.898 35.0352 84.5029 34.7762 84.5893 34.7762C85.2806 34.6034 86.0584 34.6465 86.7497 34.6897C88.0459 34.8193 91.8482 35.8561 92.4099 37.2387C93.1013 39.0534 89.6446 42.6832 88.3483 42.9857C88.0891 43.0721 84.8054 43.4178 84.8486 43.6338C84.935 43.9795 87.3114 44.5842 87.6138 44.757C88.7804 45.4051 92.1939 49.8555 91.5458 51.3677C90.9841 52.664 85.2806 52.4913 84.2436 52.1888C84.0276 52.1024 81.9537 51.2384 81.824 51.4112C81.4784 51.8865 82.9906 53.658 83.2067 54.0037C84.0708 55.4727 85.4967 60.5279 83.3363 61.6945C81.392 62.7747 78.1946 58.5836 77.7193 57.1577C77.4601 56.3368 77.5896 53.8739 77.0279 53.269C76.9847 53.2258 77.0279 53.3554 77.0279 53.3986C77.1144 54.522 77.2007 56.5096 76.8983 57.5898C76.5526 58.886 73.3552 62.6449 72.0158 62.9473C71.9294 62.9473 71.7134 62.3859 71.6702 62.3427C70.7629 60.4415 70.3739 58.4108 70.2875 56.2936C70.2875 56.2072 70.2443 54.1332 70.2011 54.1332C70.1579 54.1332 68.6024 56.855 68.3431 57.1143C66.9605 58.4969 60.4361 60.3982 59.7016 58.5835C59.2263 57.4169 63.3311 50.9357 64.8001 50.9357C65.1026 50.9357 64.1953 50.9357 63.8928 50.9357C63.2879 50.8924 62.7262 50.8492 62.1213 50.7196C60.2201 50.2875 56.1154 50.1146 55.5969 48.0407C54.9919 45.7506 60.8251 43.504 61.7324 43.4608C62.2077 43.4608 63.2879 43.9362 63.1151 43.5473C62.899 43.1152 60.2633 42.4237 59.7448 42.0781C57.5412 40.6522 54.9056 39.3994 55.0784 36.8501C55.208 34.9922 63.1582 34.5601 64.368 35.1218C64.4545 35.165 65.2755 35.5536 65.1891 35.7264C64.8002 36.3314 62.2077 34.4737 61.9485 34.2576C60.7819 33.3071 57.3252 27.085 59.3128 26.5233C60.2201 26.264 62.2941 26.6963 63.5903 27.3444C65.1026 28.2086 67.5222 30.4554 68.3431 31.3196Z" stroke="black" stroke-width="1.72831" stroke-miterlimit="10" stroke-linecap="round" stroke-linejoin="round"/>
<path fill-rule="evenodd" clip-rule="evenodd" d="M69.9817 38.8373C68.2534 39.2694 67.7781 42.7693 67.6917 44.1087C67.3892 48.8183 72.8766 51.1082 76.5925 48.6886C83.549 44.1517 76.6789 32.7449 70.457 38.1027" fill="#F7F2EE"/>
<path opacity="0.9116" d="M69.9817 38.8373C68.2534 39.2694 67.7781 42.7693 67.6917 44.1087C67.3892 48.8183 72.8766 51.1082 76.5925 48.6886C83.549 44.1517 76.6789 32.7449 70.457 38.1027" stroke="black" stroke-width="1.72831" stroke-miterlimit="10" stroke-linecap="round" stroke-linejoin="round"/>
<path opacity="0.9116" d="M74.4711 37.7144C73.8662 38.2761 73.4341 39.6153 73.0453 40.3499C71.9651 42.3806 70.8849 44.4545 69.8047 46.5285" stroke="black" stroke-width="1.72831" stroke-miterlimit="10" stroke-linecap="round" stroke-linejoin="round"/>
<path opacity="0.9116" d="M77.8467 39.7453C77.9764 39.7021 77.674 39.961 77.5876 40.0474C77.4579 40.2635 77.2851 40.4795 77.1555 40.6955C76.7234 41.3437 76.3345 42.0352 75.9024 42.6833C74.6494 44.7573 73.4828 46.8746 72.3594 49.035" stroke="black" stroke-width="1.72831" stroke-miterlimit="10" stroke-linecap="round" stroke-linejoin="round"/>
<path opacity="0.9116" d="M70.6761 39.1831C70.6329 39.1831 70.9353 39.3131 70.9353 39.3131C71.1081 39.3995 71.3242 39.4859 71.497 39.5291C72.1019 39.8316 72.7501 40.0908 73.355 40.3933C75.2561 41.2574 76.9412 42.2078 78.6263 43.4608" stroke="black" stroke-width="1.72831" stroke-miterlimit="10" stroke-linecap="round" stroke-linejoin="round"/>
<path opacity="0.9116" d="M68.5099 42.6398C68.4667 42.7262 69.1148 42.9858 69.158 42.9858C69.8925 43.2882 70.627 43.6338 71.3615 43.9795C73.3059 44.8004 75.2502 45.6646 77.1082 46.5719" stroke="black" stroke-width="1.72831" stroke-miterlimit="10" stroke-linecap="round" stroke-linejoin="round"/>
<path opacity="0.9116" d="M110.813 144.135C110.942 143.875 112.325 145.258 112.411 145.388C113.751 146.857 114.745 148.758 115.609 150.529C118.72 157.054 117.121 176.972 107.227 169.454" stroke="black" stroke-width="3.45662" stroke-miterlimit="10" stroke-linecap="round" stroke-linejoin="round"/>
<path d="M10.9991 141.413C10.6535 141.24 11.6905 141.24 12.0793 141.153C12.7707 141.024 13.5053 140.938 14.1966 140.851C15.8385 140.678 19.1655 139.943 20.6777 140.808C21.4987 141.283 16.4433 143.443 17.1779 144.264C18.6469 145.993 27.2453 145.172 27.6774 146.122C27.807 146.425 26.8996 146.77 26.77 146.857C24.9984 147.634 18.6902 148.715 17.8692 150.227C16.789 152.171 26.165 151.221 23.8318 152.863C23.2269 153.295 22.5356 153.554 21.8875 153.813C21.3258 154.029 20.7641 154.245 20.2024 154.505C19.3815 154.807 18.5605 155.11 17.7396 155.455" stroke="#161616" stroke-width="1.72831" stroke-miterlimit="10" stroke-linecap="round" stroke-linejoin="round"/>
<path fill-rule="evenodd" clip-rule="evenodd" d="M63.1574 121.84C61.4723 124.087 52.9172 124.389 50.9297 132.685C48.5532 142.579 53.1332 154.548 66.1819 154.418C81.0886 154.245 102.909 154.418 114.661 144.999C122.784 138.475 124.08 119.247 114.445 114.581C110.34 112.593 105.069 114.97 102.39 113.328C99.7976 111.729 99.4519 105.032 95.9089 106.112C89.7734 107.97 94.9151 114.581 88.6499 116.093C86.5328 116.611 80.6565 117.692 79.1875 117.692C70.4163 117.778 74.2618 109.482 69.0769 110.519C62.2933 111.945 68.2559 119.031 63.1574 121.84Z" fill="#F7F2EE"/>
<path opacity="0.9116" d="M63.1574 121.84C61.4723 124.087 52.9172 124.389 50.9297 132.685C48.5532 142.579 53.1332 154.548 66.1819 154.418C81.0886 154.245 102.909 154.418 114.661 144.999C122.784 138.475 124.08 119.247 114.445 114.581C110.34 112.593 105.069 114.97 102.39 113.328C99.7975 111.729 99.4519 105.032 95.9089 106.112C89.7734 107.97 94.9151 114.581 88.6499 116.093C86.5328 116.611 80.6565 117.692 79.1875 117.692C70.4163 117.778 74.2618 109.482 69.0769 110.519C62.2933 111.945 68.2559 119.031 63.1574 121.84Z" stroke="black" stroke-width="3.45662" stroke-miterlimit="10" stroke-linecap="round" stroke-linejoin="round"/>
<path opacity="0.9116" fill-rule="evenodd" clip-rule="evenodd" d="M79.5762 117.692C77.459 117.735 78.3664 118.686 78.4096 118.772C78.5392 119.42 78.5392 121.754 80.786 120.976C81.4341 120.76 81.6069 118.815 82.1686 118.815C82.8599 118.815 83.1193 121.494 83.7674 121.624C84.2427 121.71 84.2426 119.161 84.6747 119.464C85.0636 119.723 85.9277 121.537 86.0573 121.019C86.2734 120.155 87.5264 116.741 87.6128 117.821C88.0881 122.617 90.3349 119.161 90.2917 116.18C90.2917 115.445 86.9647 117.346 87.5696 116.914C87.7856 116.785 87.0943 117.001 86.8351 117.001C86.3166 117.001 85.7981 117.001 85.3228 117.001C83.7673 117.044 82.2119 117.173 80.6996 117.476" fill="black"/>
<path opacity="0.9116" d="M79.5762 117.692C77.459 117.735 78.3664 118.686 78.4096 118.772C78.5392 119.42 78.5392 121.754 80.786 120.976C81.4341 120.76 81.6069 118.815 82.1686 118.815C82.8599 118.815 83.1193 121.494 83.7674 121.624C84.2427 121.71 84.2426 119.161 84.6747 119.464C85.0636 119.723 85.9277 121.537 86.0573 121.019C86.2734 120.155 87.5264 116.741 87.6128 117.821C88.0881 122.617 90.3349 119.161 90.2917 116.18C90.2917 115.445 86.9647 117.346 87.5696 116.914C87.7856 116.785 87.0943 117.001 86.8351 117.001C86.3166 117.001 85.7981 117.001 85.3228 117.001C83.7673 117.044 82.2119 117.173 80.6996 117.476" stroke="#161616" stroke-width="1.72831" stroke-miterlimit="10" stroke-linecap="round" stroke-linejoin="round"/>
<path opacity="0.9116" d="M78.0581 128.623C77.6692 127.327 77.0211 125.685 74.8175 125.297C72.6139 124.864 71.0153 126.463 70.3672 128.537" stroke="black" stroke-width="1.72831" stroke-miterlimit="10" stroke-linecap="round" stroke-linejoin="round"/>
<path opacity="0.9116" d="M97.7176 126.722C97.1127 125.512 96.2054 124.043 93.9586 124.043C91.7117 124.043 90.4155 125.944 90.1562 128.061" stroke="black" stroke-width="1.72831" stroke-miterlimit="10" stroke-linecap="round" stroke-linejoin="round"/>
<path opacity="0.9116" d="M82.8968 129.401C81.2549 129.876 81.0821 134.154 83.5017 134.284C88.557 134.543 88.6435 127.803 82.8968 129.401Z" stroke="black" stroke-width="1.72831" stroke-miterlimit="10" stroke-linecap="round" stroke-linejoin="round"/>
<path opacity="0.9116" d="M83.9351 134.932C83.9783 134.932 84.6696 141.456 79.6143 143.357C75.5528 144.87 69.6766 142.148 71.9666 137.395" stroke="black" stroke-width="1.72831" stroke-miterlimit="10" stroke-linecap="round" stroke-linejoin="round"/>
<path opacity="0.9116" d="M84.0703 135.364C84.7616 137.913 86.9653 140.894 89.3849 142.191C92.8847 144.092 99.4522 140.333 97.4215 135.925" stroke="black" stroke-width="1.72831" stroke-miterlimit="10" stroke-linecap="round" stroke-linejoin="round"/>
<path opacity="0.9116" d="M83.2426 140.721C83.5019 140.765 83.1562 141.24 83.1562 141.542C83.1562 142.752 83.4156 146.079 85.0575 146.252C86.6129 146.382 88.2548 141.845 87.1746 140.765" stroke="black" stroke-width="1.72831" stroke-miterlimit="10" stroke-linecap="round" stroke-linejoin="round"/>
<path opacity="0.9116" d="M109.903 125.512C109.687 125.556 110.206 125.124 110.379 124.994C110.94 124.519 111.545 124.13 112.15 123.741C113.792 122.704 115.477 121.667 117.205 120.76C122.65 117.822 128.051 115.747 134.229 115.531" stroke="black" stroke-width="1.72831" stroke-miterlimit="10" stroke-linecap="round" stroke-linejoin="round"/>
<path opacity="0.9116" d="M111.805 131.302C112.194 130.525 116.471 129.876 117.206 129.704C122.779 128.321 129.088 127.155 134.791 128.019" stroke="black" stroke-width="1.72831" stroke-miterlimit="10" stroke-linecap="round" stroke-linejoin="round"/>
<path opacity="0.9116" d="M112.539 137.438C112.28 137.999 113.706 137.049 114.311 136.963C115.477 136.833 116.687 136.919 117.854 137.049C121.483 137.394 125.112 138.086 128.742 138.648" stroke="black" stroke-width="1.72831" stroke-miterlimit="10" stroke-linecap="round" stroke-linejoin="round"/>
<path opacity="0.9116" d="M57.3665 129.099C57.5825 129.012 57.0208 128.839 56.848 128.753C56.2431 128.407 55.5949 128.148 54.9468 127.889C53.3481 127.241 51.7062 126.679 50.0211 126.16C45.1819 124.648 40.1266 123.006 34.8984 123.222" stroke="black" stroke-width="1.72831" stroke-miterlimit="10" stroke-linecap="round" stroke-linejoin="round"/>
<path opacity="0.9116" d="M54.945 134.37C55.1611 133.895 53.9081 134.37 53.3896 134.413C52.3094 134.5 51.2724 134.629 50.2354 134.845C47.0381 135.493 43.9271 136.703 40.8594 137.74" stroke="black" stroke-width="1.72831" stroke-miterlimit="10" stroke-linecap="round" stroke-linejoin="round"/>
<path opacity="0.9116" d="M58.4431 139.166C58.6591 139.209 58.011 139.339 57.8382 139.469C57.4925 139.728 57.1469 139.987 56.8444 140.246C55.721 141.197 54.684 142.191 53.6902 143.271C50.6225 146.555 47.9003 150.227 45.4375 153.943" stroke="black" stroke-width="1.72831" stroke-miterlimit="10" stroke-linecap="round" stroke-linejoin="round"/>
<path fill-rule="evenodd" clip-rule="evenodd" d="M281.136 5.17896C280.833 5.26538 280.617 6.3887 280.531 6.60473C269.988 37.5415 236.113 295.189 211.83 393.141C210.577 398.153 200.683 451.731 194.634 484.353C191.955 498.914 193.251 496.451 193.251 496.451L217.879 497.531C217.879 497.531 222.416 478.736 227.601 455.447C258.019 318.824 311.338 2.5 311.338 2.5C311.338 2.5 286.536 3.66669 281.136 5.17896Z" fill="#F7F2EE"/>
<path d="M281.136 5.17896C280.833 5.26538 280.617 6.3887 280.531 6.60474C269.988 37.5415 236.113 295.189 211.83 393.141C210.577 398.153 200.683 451.731 194.634 484.353C191.955 498.914 193.251 496.451 193.251 496.451L217.879 497.531C217.879 497.531 222.416 478.736 227.601 455.447C258.019 318.824 311.338 2.5 311.338 2.5C311.338 2.5 286.536 3.66669 281.136 5.17896Z" stroke="black" stroke-width="3.45662" stroke-miterlimit="10" stroke-linecap="round" stroke-linejoin="round"/>
<path fill-rule="evenodd" clip-rule="evenodd" d="M314.88 5.78374C315.139 5.82695 312.936 2.9322 313.022 3.14824C324.429 33.0912 336.354 68.0461 346.379 98.6804C377.229 193.305 410.758 287.153 439.751 382.599C443.207 394.049 471.551 482.884 462.262 486.902C458.33 488.587 449.299 488.717 445.972 485.433C443.639 483.143 304.597 42.4674 305.418 40.1774" fill="#F7F2EE"/>
<path d="M314.88 5.78374C315.139 5.82695 312.936 2.9322 313.022 3.14824C324.429 33.0912 336.354 68.0461 346.379 98.6804C377.229 193.305 410.758 287.153 439.751 382.599C443.207 394.049 471.551 482.884 462.262 486.902C458.33 488.587 449.299 488.717 445.972 485.433C443.639 483.143 304.597 42.4674 305.418 40.1774" stroke="black" stroke-width="3.45662" stroke-miterlimit="10" stroke-linecap="round" stroke-linejoin="round"/>
<path fill-rule="evenodd" clip-rule="evenodd" d="M179.077 49.3369C171.17 113.241 163.781 425.028 163.781 425.028L463.643 414.399L427.78 42.3806C427.78 42.3806 407.732 41.9054 378.956 41.603C313.28 40.9116 202.063 41.041 179.077 49.3369Z" fill="#FABD14"/>
<path d="M179.077 49.3369C171.17 113.241 163.781 425.028 163.781 425.028L463.643 414.399L427.78 42.3806C427.78 42.3806 407.732 41.9054 378.956 41.603C313.28 40.9116 202.063 41.041 179.077 49.3369Z" stroke="black" stroke-width="3.45662" stroke-miterlimit="10" stroke-linecap="round" stroke-linejoin="round"/>
<path opacity="0.9116" d="M225.703 44.584C225.703 44.6272 225.703 44.6273 225.703 44.6705" stroke="black" stroke-width="1.72831" stroke-miterlimit="10" stroke-linecap="round" stroke-linejoin="round"/>
<path opacity="0.9116" d="M178.648 74.6133C234.214 51.1515 177.525 131.129 186.383 152.56C199.172 183.67 335.795 85.6314 359.343 71.9778C366.732 67.7002 397.841 51.1515 405.057 69.9469C409.896 82.4339 396.545 101.834 385.052 111.038C380.515 114.667 376.151 117.735 373.126 120.068C320.672 160.165 267.916 194.688 223.023 243.339C215.461 251.549 173.982 298.775 184.525 311.824C192.129 321.2 233.868 288.708 239.226 284.646C262.601 266.974 394.73 146.511 412.575 164.183C427.352 178.831 405.835 214.304 396.891 226.488C364.615 270.474 305.982 306.293 272.193 348.853C263.465 359.871 252.145 394.35 270.119 399.535C280.662 402.603 309.136 403.078 335.838 365.833" stroke="black" stroke-width="1.72831" stroke-miterlimit="10" stroke-linecap="round" stroke-linejoin="round"/>
<path fill-rule="evenodd" clip-rule="evenodd" d="M148.186 419.195C147.366 418.763 148.705 420.924 148.835 421.831C149.137 423.775 149.569 425.806 150.52 427.578C153.069 432.374 160.414 430.775 165.081 430.689C183.358 430.343 201.505 428.269 219.782 427.923C248.472 427.318 444.678 428.053 461.356 427.621C462.48 427.577 456.776 415.911 456.733 414.226C456.646 411.202 189.277 417.899 151.946 418.936" fill="#F7F2EE"/>
<path d="M148.186 419.195C147.366 418.763 148.705 420.924 148.835 421.831C149.137 423.775 149.569 425.806 150.52 427.578C153.069 432.374 160.414 430.775 165.081 430.689C183.358 430.343 201.505 428.269 219.782 427.923C248.472 427.318 444.678 428.053 461.356 427.621C462.48 427.577 456.776 415.911 456.733 414.226C456.646 411.202 189.277 417.899 151.946 418.936" stroke="black" stroke-width="3.45662" stroke-miterlimit="10" stroke-linecap="round" stroke-linejoin="round"/>
<path fill-rule="evenodd" clip-rule="evenodd" d="M279.065 71.6755C278.849 71.7187 278.719 72.4534 278.676 72.5831C271.892 92.5018 250.116 258.203 234.475 321.2C233.308 325.867 222.117 386.746 222.117 386.746L237.974 387.438C237.974 387.438 241.345 376.29 244.672 361.297C264.245 273.412 298.508 69.9471 298.508 69.9471C298.508 69.9471 282.522 70.6817 279.065 71.6755Z" fill="#F7F2EE"/>
<path d="M279.065 71.6755C278.849 71.7187 278.719 72.4534 278.676 72.5831C271.892 92.5018 250.116 258.203 234.475 321.2C233.308 325.867 222.117 386.746 222.117 386.746L237.974 387.437C237.974 387.437 241.345 376.29 244.672 361.297C264.245 273.412 298.508 69.9471 298.508 69.9471C298.508 69.9471 282.522 70.6817 279.065 71.6755Z" stroke="black" stroke-width="2.59246" stroke-miterlimit="10" stroke-linecap="round" stroke-linejoin="round"/>
<path fill-rule="evenodd" clip-rule="evenodd" d="M300.751 72.0646C300.924 72.1078 299.498 70.2497 299.541 70.3793C306.886 89.6499 314.577 112.118 320.972 131.821C340.804 192.7 362.408 253.019 381.031 314.46C383.278 321.805 401.468 378.969 395.505 381.561C392.999 382.642 387.166 382.728 385.049 380.611C383.537 379.142 294.14 95.6559 294.658 94.23" fill="#F7F2EE"/>
<path d="M300.751 72.0646C300.924 72.1078 299.498 70.2497 299.541 70.3793C306.886 89.6499 314.577 112.118 320.972 131.821C340.804 192.7 362.408 253.019 381.031 314.46C383.278 321.805 401.468 378.969 395.505 381.561C392.999 382.642 387.166 382.728 385.049 380.611C383.537 379.142 294.14 95.6559 294.658 94.23" stroke="black" stroke-width="2.59246" stroke-miterlimit="10" stroke-linecap="round" stroke-linejoin="round"/>
<path fill-rule="evenodd" clip-rule="evenodd" d="M213.39 100.02C208.292 141.153 203.539 341.68 203.539 341.68L396.418 334.854L373.345 95.5689C373.345 95.5689 359.951 95.2668 340.896 95.0508C298.553 94.6187 228.081 94.7483 213.39 100.02Z" fill="#FABD14"/>
<path d="M213.39 100.02C208.292 141.153 203.539 341.68 203.539 341.68L396.418 334.854L373.345 95.5689C373.345 95.5689 359.951 95.2668 340.896 95.0508C298.553 94.6187 228.081 94.7483 213.39 100.02Z" stroke="black" stroke-width="2.59246" stroke-miterlimit="10" stroke-linecap="round" stroke-linejoin="round"/>
<path opacity="0.9116" d="M212.828 123.482C213.303 124.605 215.075 122.574 216.241 122.315C224.192 120.5 232.877 124.907 234.864 133.16C237.068 142.19 216.89 174.38 236.29 175.288C258.844 176.325 302.052 137.179 321.064 124.043C328.927 118.599 347.593 104.34 354.895 118.037C363.58 134.413 338.908 154.289 328.02 163.103C305.422 181.423 230.543 232.063 225.013 260.234C224.537 262.74 225.186 265.419 227.519 266.758C247.524 278.252 289.954 229.298 306.503 242.39C316.008 249.908 281.744 279.289 276.776 288.319C273.449 294.325 272.282 301.973 272.973 308.756C275.652 334.854 310.866 312.818 318.99 301.498" stroke="black" stroke-width="1.72831" stroke-miterlimit="10" stroke-linecap="round" stroke-linejoin="round"/>
<path fill-rule="evenodd" clip-rule="evenodd" d="M193.508 337.965C192.99 337.706 193.854 339.088 193.94 339.65C194.156 340.903 194.416 342.199 195.021 343.366C196.663 346.434 201.372 345.44 204.397 345.354C216.149 345.138 227.815 343.798 239.568 343.582C258.017 343.193 384.227 343.668 394.986 343.366C395.721 343.366 392.048 335.805 392.005 334.768C391.961 332.823 219.995 337.144 195.928 337.792" fill="#F7F2EE"/>
<path d="M193.508 337.965C192.99 337.706 193.854 339.088 193.94 339.65C194.156 340.903 194.416 342.199 195.021 343.366C196.663 346.434 201.372 345.44 204.397 345.354C216.149 345.138 227.815 343.798 239.568 343.582C258.017 343.193 384.227 343.668 394.986 343.366C395.721 343.366 392.048 335.805 392.005 334.768C391.961 332.823 219.995 337.144 195.928 337.792" stroke="black" stroke-width="2.59246" stroke-miterlimit="10" stroke-linecap="round" stroke-linejoin="round"/>
<path fill-rule="evenodd" clip-rule="evenodd" d="M284.64 125.382C284.511 125.426 284.424 125.858 284.424 125.945C280.406 137.783 267.401 236.47 258.111 274.017C257.42 276.782 250.766 313.034 250.766 313.034L260.185 313.423C260.185 313.423 262.172 306.769 264.16 297.868C275.826 245.543 296.22 124.389 296.22 124.389C296.22 124.389 286.714 124.778 284.64 125.382Z" fill="#F7F2EE"/>
<path d="M284.64 125.382C284.511 125.426 284.424 125.858 284.424 125.945C280.406 137.783 267.401 236.47 258.111 274.017C257.42 276.782 250.766 313.034 250.766 313.034L260.185 313.423C260.185 313.423 262.172 306.769 264.16 297.868C275.826 245.543 296.22 124.389 296.22 124.389C296.22 124.389 286.714 124.778 284.64 125.382Z" stroke="black" stroke-width="1.72831" stroke-miterlimit="10" stroke-linecap="round" stroke-linejoin="round"/>
<path fill-rule="evenodd" clip-rule="evenodd" d="M297.556 125.598C297.643 125.598 296.822 124.518 296.822 124.605C301.186 136.055 305.766 149.449 309.611 161.202C321.45 197.453 334.283 233.402 345.387 269.956C346.727 274.32 357.572 308.367 354.029 309.923C352.517 310.571 349.06 310.614 347.807 309.361C346.899 308.497 293.668 139.684 293.97 138.82" fill="#F7F2EE"/>
<path d="M297.556 125.598C297.643 125.598 296.822 124.518 296.822 124.605C301.186 136.055 305.766 149.449 309.611 161.202C321.45 197.453 334.283 233.402 345.387 269.956C346.727 274.32 357.572 308.367 354.029 309.923C352.517 310.571 349.06 310.614 347.807 309.361C346.899 308.497 293.668 139.684 293.97 138.82" stroke="black" stroke-width="1.72831" stroke-miterlimit="10" stroke-linecap="round" stroke-linejoin="round"/>
<path fill-rule="evenodd" clip-rule="evenodd" d="M245.533 142.277C242.508 166.776 239.656 286.202 239.656 286.202L354.502 282.141L340.806 139.598C340.806 139.598 258.192 137.697 245.533 142.277Z" fill="#FABD14"/>
<path d="M245.533 142.277C242.508 166.776 239.656 286.202 239.656 286.202L354.502 282.141L340.806 139.598C340.806 139.598 258.192 137.697 245.533 142.277Z" stroke="black" stroke-width="1.72831" stroke-miterlimit="10" stroke-linecap="round" stroke-linejoin="round"/>
<path fill-rule="evenodd" clip-rule="evenodd" d="M233.696 283.955C233.393 283.782 233.912 284.603 233.955 284.949C234.085 285.684 234.257 286.461 234.603 287.152C235.597 289.01 238.405 288.362 240.177 288.362C247.177 288.233 254.133 287.455 261.133 287.282C272.107 287.066 347.289 287.325 353.684 287.152C354.116 287.152 351.912 282.659 351.912 282.011C351.869 280.844 249.467 283.393 235.165 283.825" fill="#F7F2EE"/>
<path d="M233.696 283.955C233.393 283.782 233.912 284.603 233.955 284.949C234.085 285.684 234.257 286.461 234.603 287.152C235.597 289.01 238.405 288.362 240.177 288.362C247.177 288.233 254.133 287.455 261.133 287.282C272.107 287.066 347.289 287.325 353.684 287.152C354.116 287.152 351.912 282.659 351.912 282.011C351.869 280.844 249.467 283.393 235.165 283.825" stroke="black" stroke-width="1.72831" stroke-miterlimit="10" stroke-linecap="round" stroke-linejoin="round"/>
<path fill-rule="evenodd" clip-rule="evenodd" d="M287.229 170.794C287.142 169.282 290.08 161.936 291.42 161.677C292.759 161.374 294.92 167.769 295.222 169.109C295.308 169.541 295.395 169.973 295.395 170.405C295.395 170.578 295.222 171.053 295.395 170.967C295.524 170.923 295.784 169.93 295.827 169.8C296.432 168.59 303.215 163.578 304.425 164.442C307.752 166.862 303.302 174.596 303.302 174.639C303.345 174.726 303.993 174.467 304.08 174.467C304.771 174.294 305.635 174.337 306.326 174.38C307.666 174.51 311.641 175.59 312.203 177.016C312.937 178.917 309.308 182.676 308.012 182.979C307.752 183.065 304.296 183.411 304.382 183.627C304.468 183.972 306.931 184.62 307.277 184.793C308.487 185.484 312.03 190.065 311.338 191.663C310.734 193.046 304.857 192.83 303.734 192.484C303.518 192.398 301.357 191.49 301.228 191.663C300.882 192.182 302.438 193.997 302.654 194.342C303.561 195.854 305.03 201.126 302.783 202.336C300.753 203.459 297.426 199.095 296.95 197.626C296.691 196.805 296.821 194.213 296.216 193.565C296.173 193.521 296.216 193.651 296.216 193.737C296.345 194.904 296.389 196.978 296.086 198.101C295.74 199.484 292.37 203.329 291.031 203.675C290.944 203.675 290.685 203.07 290.685 203.027C289.735 201.039 289.346 198.965 289.259 196.762C289.259 196.675 289.216 194.515 289.173 194.515C289.13 194.515 287.488 197.367 287.272 197.583C285.846 199.009 279.062 200.996 278.285 199.095C277.809 197.885 282.087 191.145 283.599 191.145C283.902 191.145 282.994 191.188 282.648 191.145C282.044 191.101 281.439 191.058 280.834 190.929C278.846 190.497 274.569 190.281 274.05 188.164C273.445 185.787 279.494 183.454 280.402 183.411C280.877 183.411 282.044 183.929 281.828 183.497C281.612 183.065 278.846 182.33 278.328 181.985C276.038 180.515 273.272 179.176 273.488 176.541C273.661 174.596 281.871 174.164 283.167 174.769C283.253 174.812 284.118 175.244 284.031 175.374C283.599 176.022 280.963 174.078 280.661 173.862C279.451 172.868 275.865 166.387 277.896 165.825C278.846 165.566 281.007 165.998 282.346 166.689C283.858 167.553 286.364 169.887 287.229 170.794Z" fill="#F7F2EE"/>
<path opacity="0.9116" d="M287.229 170.794C287.142 169.282 290.08 161.936 291.42 161.677C292.759 161.374 294.92 167.769 295.222 169.109C295.308 169.541 295.395 169.973 295.395 170.405C295.395 170.578 295.222 171.053 295.395 170.967C295.524 170.923 295.784 169.93 295.827 169.8C296.432 168.59 303.215 163.578 304.425 164.442C307.752 166.862 303.302 174.596 303.302 174.639C303.345 174.726 303.993 174.467 304.08 174.467C304.771 174.294 305.635 174.337 306.326 174.38C307.666 174.51 311.641 175.59 312.203 177.016C312.937 178.917 309.308 182.676 308.012 182.979C307.752 183.065 304.296 183.411 304.382 183.627C304.468 183.972 306.931 184.62 307.277 184.793C308.487 185.484 312.03 190.065 311.338 191.663C310.734 193.046 304.857 192.83 303.734 192.484C303.518 192.398 301.357 191.49 301.228 191.663C300.882 192.182 302.438 193.997 302.654 194.342C303.561 195.854 305.03 201.126 302.783 202.336C300.753 203.459 297.426 199.095 296.95 197.626C296.691 196.805 296.821 194.213 296.216 193.565C296.173 193.521 296.216 193.651 296.216 193.737C296.345 194.904 296.389 196.978 296.086 198.101C295.74 199.484 292.37 203.329 291.031 203.675C290.944 203.675 290.685 203.07 290.685 203.027C289.735 201.039 289.346 198.965 289.259 196.762C289.259 196.675 289.216 194.515 289.173 194.515C289.13 194.515 287.488 197.367 287.272 197.583C285.846 199.009 279.062 200.996 278.285 199.095C277.809 197.885 282.087 191.145 283.599 191.145C283.902 191.145 282.994 191.188 282.648 191.145C282.044 191.101 281.439 191.058 280.834 190.929C278.846 190.497 274.569 190.281 274.05 188.164C273.445 185.787 279.494 183.454 280.402 183.411C280.877 183.411 282.044 183.929 281.828 183.497C281.612 183.065 278.846 182.33 278.328 181.985C276.038 180.515 273.272 179.176 273.488 176.541C273.661 174.596 281.871 174.164 283.167 174.769C283.253 174.812 284.118 175.244 284.031 175.374C283.599 176.022 280.963 174.078 280.661 173.862C279.451 172.868 275.865 166.387 277.896 165.825C278.846 165.566 281.007 165.998 282.346 166.689C283.858 167.553 286.364 169.887 287.229 170.794Z" stroke="black" stroke-width="1.72831" stroke-miterlimit="10" stroke-linecap="round" stroke-linejoin="round"/>
<path fill-rule="evenodd" clip-rule="evenodd" d="M288.958 178.615C287.144 179.09 286.668 182.676 286.582 184.102C286.279 188.985 291.983 191.361 295.785 188.855C303.001 184.102 295.872 172.306 289.434 177.88" fill="#FABD14"/>
<path opacity="0.9116" d="M288.958 178.615C287.144 179.09 286.668 182.676 286.582 184.102C286.279 188.985 291.983 191.361 295.785 188.855C303.001 184.102 295.872 172.306 289.434 177.88" stroke="black" stroke-width="1.72831" stroke-miterlimit="10" stroke-linecap="round" stroke-linejoin="round"/>
<path opacity="0.9116" d="M293.577 177.405C292.929 178.01 292.497 179.392 292.108 180.127C290.985 182.244 289.861 184.404 288.781 186.521" stroke="black" stroke-width="1.72831" stroke-miterlimit="10" stroke-linecap="round" stroke-linejoin="round"/>
<path opacity="0.9116" d="M297.082 179.565C297.212 179.522 296.866 179.781 296.823 179.911C296.65 180.127 296.52 180.386 296.391 180.603C295.959 181.294 295.527 181.985 295.095 182.676C293.755 184.837 292.588 187.04 291.422 189.287" stroke="black" stroke-width="1.72831" stroke-miterlimit="10" stroke-linecap="round" stroke-linejoin="round"/>
<path opacity="0.9116" d="M289.653 178.917C289.609 178.917 289.912 179.047 289.912 179.047C290.128 179.133 290.301 179.22 290.517 179.306C291.165 179.609 291.813 179.911 292.461 180.213C294.449 181.121 296.177 182.115 297.949 183.411" stroke="black" stroke-width="1.72831" stroke-miterlimit="10" stroke-linecap="round" stroke-linejoin="round"/>
<path opacity="0.9116" d="M287.4 182.547C287.357 182.633 288.049 182.892 288.092 182.892C288.869 183.195 289.604 183.583 290.382 183.929C292.369 184.793 294.4 185.657 296.344 186.608" stroke="black" stroke-width="1.72831" stroke-miterlimit="10" stroke-linecap="round" stroke-linejoin="round"/>
<path fill-rule="evenodd" clip-rule="evenodd" d="M344.527 216.162C346.601 214.693 348.286 212.706 349.323 210.329C350.015 208.687 349.928 206.7 348.848 205.274C343.879 198.577 334.071 205.274 327.806 204.885C324.652 204.669 332.386 197.713 326.423 196.33C316.572 194.04 312.554 200.305 311.819 202.422C310.998 204.712 309.616 209.249 313.763 213.397C315.881 215.514 317.566 216.508 320.893 217.156C322.103 217.372 323.269 217.545 324.177 217.761C326.51 218.236 329.491 218.366 331.954 218.927" fill="#F7F2EE"/>
<path d="M344.527 216.162C346.601 214.693 348.286 212.706 349.323 210.329C350.015 208.687 349.928 206.7 348.848 205.274C343.879 198.577 334.071 205.274 327.806 204.885C324.652 204.669 332.386 197.713 326.423 196.33C316.572 194.04 312.554 200.305 311.819 202.422C310.998 204.712 309.616 209.249 313.763 213.397C315.881 215.514 317.566 216.508 320.893 217.156C322.103 217.372 323.269 217.545 324.177 217.761C326.51 218.236 329.491 218.366 331.954 218.927" stroke="black" stroke-width="1.72831" stroke-miterlimit="10" stroke-linecap="round" stroke-linejoin="round"/>
<path d="M323.568 198.49C323.568 198.49 323.438 198.49 323.395 198.49C322.92 198.533 322.488 198.879 322.185 199.182C321.019 200.305 320.5 202.897 322.574 203.416C325.469 204.15 326.074 199.268 323.741 198.706" stroke="black" stroke-width="1.72831" stroke-miterlimit="10" stroke-linecap="round" stroke-linejoin="round"/>
<path d="M323.699 206.138C323.613 206.224 323.526 206.008 323.397 206.008C323.094 205.965 322.792 205.965 322.489 205.965C321.582 206.051 320.588 206.354 319.897 207.002C317.693 208.99 320.459 212.317 322.965 211.712C324.866 211.28 325.946 207.305 323.915 206.311" stroke="black" stroke-width="1.72831" stroke-miterlimit="10" stroke-linecap="round" stroke-linejoin="round"/>
<path d="M357.921 243.426C359.303 250.123 360.297 256.648 362.673 263.129C363.451 265.246 364.402 267.795 366.044 269.48C372.482 276.048 367.34 237.334 365.136 226.446C364.575 223.724 363.754 219.964 361.334 218.279C355.803 214.391 357.834 240.186 358.785 246.451" stroke="black" stroke-width="3.45662" stroke-miterlimit="10" stroke-linecap="round" stroke-linejoin="round"/>
<path fill-rule="evenodd" clip-rule="evenodd" d="M367.381 273.283C367.467 273.283 367.251 273.326 367.208 273.369C366.171 274.276 365.393 275.573 364.745 276.74C364.054 277.906 360.295 287.282 361.85 288.06C362.066 288.146 362.628 287.412 362.714 287.282C365.134 284.517 366.906 280.974 367.727 277.604C368.202 275.703 368.072 272.851 367.597 273.715" fill="black"/>
<path d="M367.381 273.283C367.467 273.283 367.251 273.326 367.208 273.369C366.171 274.276 365.393 275.573 364.745 276.74C364.054 277.906 360.295 287.282 361.85 288.06C362.066 288.146 362.628 287.412 362.714 287.282C365.134 284.517 366.906 280.974 367.727 277.604C368.202 275.703 368.072 272.851 367.597 273.715" stroke="black" stroke-width="3.45662" stroke-miterlimit="10" stroke-linecap="round" stroke-linejoin="round"/>
<path fill-rule="evenodd" clip-rule="evenodd" d="M370.451 267.968C370.364 267.839 364.963 268.314 364.963 268.487C364.92 269.005 364.92 269.524 365.05 270.043C365.309 271.512 367.253 275.876 368.895 276.092C371.704 276.567 373.216 268.703 370.451 267.968Z" fill="#F7F2EE"/>
<path d="M370.451 267.968C370.364 267.839 364.963 268.314 364.963 268.487C364.92 269.005 364.92 269.524 365.05 270.043C365.309 271.512 367.253 275.876 368.895 276.092C371.704 276.567 373.216 268.703 370.451 267.968Z" stroke="black" stroke-width="3.45662" stroke-miterlimit="10" stroke-linecap="round" stroke-linejoin="round"/>
<path d="M369.758 266.845C369.887 267.234 370.19 266.11 370.363 265.721C370.881 264.728 371.357 263.691 371.832 262.697C372.523 261.185 376.628 250.037 378.097 250.555C381.035 251.592 372.61 264.9 371.573 266.845" stroke="black" stroke-width="3.45662" stroke-miterlimit="10" stroke-linecap="round" stroke-linejoin="round"/>
<path fill-rule="evenodd" clip-rule="evenodd" d="M340.422 190.022C342.582 192.83 340.681 198.706 342.021 200.694C342.064 200.78 342.409 200.694 342.496 200.65C344.786 200.262 347.076 200.175 349.366 199.916C350.36 199.786 350.792 199.398 350.965 198.663C351.785 195.336 351.483 182.244 342.496 185.917C341.502 186.306 340.724 186.997 340.551 187.818" fill="#F7F2EE"/>
<path d="M340.422 190.022C342.582 192.83 340.681 198.706 342.021 200.694C342.064 200.78 342.409 200.694 342.496 200.65C344.786 200.262 347.076 200.175 349.366 199.916C350.36 199.786 350.792 199.398 350.965 198.663C351.785 195.336 351.483 182.244 342.496 185.917C341.502 186.306 340.724 186.997 340.551 187.818" stroke="black" stroke-width="2.59246" stroke-miterlimit="10" stroke-linecap="round" stroke-linejoin="round"/>
<path fill-rule="evenodd" clip-rule="evenodd" d="M345.086 194.947C345.129 194.342 340.074 196.243 339.771 196.459C339.167 196.891 338.648 197.41 338.173 197.972C337.481 198.793 336.92 199.7 336.401 200.694C334.673 204.021 325.556 229.211 329.531 231.674C330.179 232.106 330.784 229.859 330.871 229.6C331.432 227.353 332.037 219.533 330.05 219.489C327.976 219.446 325.988 219.316 325.254 219.446C324.346 219.619 324.433 221.52 324.087 224.242C323.396 229.687 323.785 238.155 328.192 239.495C329.186 239.797 330.222 239.494 331.303 238.803C338.043 234.309 345.734 213.008 341.716 212.187C338.173 211.496 338.95 230.637 336.574 237.766C333.722 246.365 331.562 250.728 324.217 260.407C313.155 274.925 292.848 278.122 281.873 300.072C281.657 300.504 280.361 304.738 280.879 305.213C282.003 306.25 289.91 303.571 291.379 303.053C301.619 299.553 314.754 301.066 325.599 302.275C340.808 303.917 357.4 319.645 358.912 311.954C359.777 307.504 359.344 290.912 361.289 284.215C366.214 267.104 367.165 255.265 368.245 245.673C369.758 231.89 373.689 196.632 345.086 194.947Z" fill="#3E7AFF"/>
<path d="M345.086 194.947C345.129 194.342 340.074 196.243 339.771 196.459C339.167 196.891 338.648 197.41 338.173 197.972C337.481 198.793 336.92 199.7 336.401 200.694C334.673 204.021 325.556 229.211 329.531 231.674C330.179 232.106 330.784 229.859 330.871 229.6C331.432 227.353 332.037 219.533 330.05 219.489C327.976 219.446 325.988 219.316 325.254 219.446C324.346 219.619 324.433 221.52 324.087 224.242C323.396 229.687 323.785 238.155 328.192 239.495C329.186 239.797 330.222 239.494 331.303 238.803C338.043 234.309 345.734 213.008 341.716 212.187C338.173 211.496 338.95 230.637 336.574 237.766C333.722 246.365 331.562 250.728 324.217 260.407C313.155 274.925 292.848 278.122 281.873 300.072C281.657 300.504 280.361 304.738 280.879 305.213C282.003 306.25 289.91 303.571 291.379 303.053C301.619 299.553 314.754 301.066 325.599 302.275C340.808 303.917 357.4 319.645 358.912 311.954C359.777 307.504 359.344 290.912 361.289 284.215C366.214 267.104 367.165 255.265 368.245 245.673C369.758 231.89 373.689 196.632 345.086 194.947Z" stroke="black" stroke-width="1.72831" stroke-miterlimit="10" stroke-linecap="round" stroke-linejoin="round"/>
<path opacity="0.9116" d="M345.99 250.685C344.219 250.339 344.608 254.012 343.787 255.654C341.367 260.666 338.343 265.419 335.232 270.042C328.707 279.678 315.831 288.06 311.727 299.121" stroke="black" stroke-width="1.72831" stroke-miterlimit="10" stroke-linecap="round" stroke-linejoin="round"/>
<path opacity="0.9116" d="M355.713 263.475C356.404 262.74 354.157 265.894 353.855 266.499C351.997 269.913 349.923 273.196 347.849 276.437C342.275 285.165 334.93 292.64 329.227 301.195" stroke="black" stroke-width="1.72831" stroke-miterlimit="10" stroke-linecap="round" stroke-linejoin="round"/>
<path opacity="0.9116" d="M336.617 240.747C336.531 240.704 336.833 240.704 336.876 240.704C338.561 240.747 340.592 241.352 342.234 241.871" stroke="black" stroke-width="1.72831" stroke-miterlimit="10" stroke-linecap="round" stroke-linejoin="round"/>
<path opacity="0.9116" d="M325.338 261.487C324.776 261.919 328.06 262.049 328.665 262.135C331.56 262.567 334.455 262.87 337.35 263.302C344.868 264.339 355.799 264.512 362.28 269.135" stroke="black" stroke-width="1.72831" stroke-miterlimit="10" stroke-linecap="round" stroke-linejoin="round"/>
<path opacity="0.9116" d="M299.713 279.591C299.195 280.066 301.096 279.591 301.831 279.634C303.213 279.677 304.596 279.85 305.978 279.98C309.262 280.326 312.546 280.758 315.787 281.19C326.848 282.659 338.212 284.992 348.797 288.751" stroke="black" stroke-width="1.72831" stroke-miterlimit="10" stroke-linecap="round" stroke-linejoin="round"/>
<path fill-rule="evenodd" clip-rule="evenodd" d="M336.659 175.417C337.35 176.757 335.363 184.059 335.968 186.738C337.005 191.188 339.943 191.102 342.708 187.991C345.301 185.053 346.856 180.646 346.122 176.714C345.387 172.868 340.029 171.961 337.739 175.028" fill="#F7F2EE"/>
<path d="M336.659 175.417C337.35 176.757 335.363 184.059 335.968 186.738C337.005 191.188 339.943 191.102 342.708 187.991C345.301 185.053 346.856 180.646 346.122 176.714C345.387 172.868 340.029 171.961 337.739 175.028" stroke="black" stroke-width="1.72831" stroke-miterlimit="10" stroke-linecap="round" stroke-linejoin="round"/>
<path fill-rule="evenodd" clip-rule="evenodd" d="M345.131 169.195C345.218 169.152 345.002 169.325 344.959 169.368C343.749 171.01 343.057 173.127 342.409 175.028C341.675 177.275 341.027 179.868 340.94 182.46C340.854 185.096 341.286 187.731 342.712 189.935C345.261 193.867 352.217 195.638 354.939 199.095C356.927 201.601 353.125 206.008 352.779 207.823C352.174 211.193 354.075 210.934 360.081 210.027C362.501 209.638 364.705 210.372 364.834 213.138C365.137 220.267 358.31 227.051 357.273 234.18C357.23 234.612 356.884 237.118 357.964 236.858C361.291 236.037 374.556 211.236 374.858 206.483C375.074 202.465 371.661 199.57 372.266 195.465C373 190.108 377.494 185.009 374.556 179.565C372.223 175.201 365.569 176.238 361.853 173.516C358.223 170.88 354.378 166.516 349.409 167.726" fill="#F7F2EE"/>
<path d="M345.131 169.195C345.218 169.152 345.002 169.325 344.959 169.368C343.749 171.01 343.057 173.127 342.409 175.028C341.675 177.275 341.027 179.868 340.94 182.46C340.854 185.096 341.286 187.731 342.712 189.935C345.261 193.867 352.217 195.638 354.939 199.095C356.927 201.601 353.125 206.008 352.779 207.823C352.174 211.193 354.075 210.934 360.081 210.027C362.501 209.638 364.705 210.372 364.834 213.138C365.137 220.267 358.31 227.051 357.273 234.18C357.23 234.612 356.884 237.118 357.964 236.858C361.291 236.037 374.556 211.236 374.858 206.483C375.074 202.465 371.661 199.57 372.266 195.465C373 190.108 377.494 185.009 374.556 179.565C372.223 175.201 365.569 176.238 361.853 173.516C358.223 170.88 354.378 166.516 349.409 167.726" stroke="black" stroke-width="1.72831" stroke-miterlimit="10" stroke-linecap="round" stroke-linejoin="round"/>
<path opacity="0.9116" d="M349.273 178.442C349.835 178.01 349.403 179.824 349.619 180.472C350.008 181.985 350.656 183.54 351.52 184.837C353.465 187.645 358.52 189.114 359.643 192.441" stroke="black" stroke-width="1.72831" stroke-miterlimit="10" stroke-linecap="round" stroke-linejoin="round"/>
<path opacity="0.9116" d="M357.229 177.102C357.186 177.146 357.229 177.232 357.272 177.275C359.346 181.207 363.969 183.022 364.79 187.861" stroke="black" stroke-width="1.72831" stroke-miterlimit="10" stroke-linecap="round" stroke-linejoin="round"/>
<path fill-rule="evenodd" clip-rule="evenodd" d="M347.069 157.529C347.026 157.529 345.686 157.529 344.995 157.659C343.699 157.875 342.402 158.307 341.193 158.912C338.427 160.208 334.798 163.103 333.458 166.387C332.508 168.677 332.724 171.14 335.057 173.387C339.162 177.318 345.686 178.399 350.871 178.701C365.994 179.522 366.34 166.344 358.649 160.295C355.754 158.005 351.779 156.708 347.069 157.529Z" fill="black"/>
<path d="M347.069 157.529C347.026 157.529 345.686 157.529 344.995 157.659C343.699 157.875 342.402 158.307 341.193 158.912C338.427 160.208 334.798 163.103 333.458 166.387C332.508 168.677 332.724 171.14 335.057 173.387C339.162 177.318 345.686 178.399 350.871 178.701C365.994 179.522 366.34 166.344 358.649 160.295C355.754 158.005 351.779 156.708 347.069 157.529Z" stroke="black" stroke-width="1.72831" stroke-miterlimit="10" stroke-linecap="round" stroke-linejoin="round"/>
<path opacity="0.9116" d="M341.496 165.782H341.453" stroke="#F7F2EE" stroke-width="1.72831" stroke-miterlimit="10" stroke-linecap="round" stroke-linejoin="round"/>
<path opacity="0.9116" d="M355.844 167.986C355.887 168.072 355.844 168.159 355.887 168.288" stroke="#F7F2EE" stroke-width="1.72831" stroke-miterlimit="10" stroke-linecap="round" stroke-linejoin="round"/>
<path opacity="0.9116" d="M352 161.85C352 161.893 352 161.893 352 161.85" stroke="#F7F2EE" stroke-width="1.72831" stroke-miterlimit="10" stroke-linecap="round" stroke-linejoin="round"/>
<path opacity="0.9116" d="M346.773 169.627C346.817 169.627 346.817 169.627 346.773 169.627" stroke="#F7F2EE" stroke-width="1.72831" stroke-miterlimit="10" stroke-linecap="round" stroke-linejoin="round"/>
<path opacity="0.9116" d="M353.039 174.726C353.039 174.769 353.039 174.769 353.039 174.726" stroke="#F7F2EE" stroke-width="1.72831" stroke-miterlimit="10" stroke-linecap="round" stroke-linejoin="round"/>
<path opacity="0.9116" d="M360.859 173.127C360.903 173.084 360.859 173.084 360.859 173.127" stroke="#F7F2EE" stroke-width="1.72831" stroke-miterlimit="10" stroke-linecap="round" stroke-linejoin="round"/>
<path fill-rule="evenodd" clip-rule="evenodd" d="M353.292 154.764C353.033 154.807 350.7 156.19 350.743 156.06C351.002 154.85 351.564 153.295 352.644 152.388C355.323 150.054 358.563 150.659 353.292 154.764Z" fill="black"/>
<path d="M353.292 154.764C353.033 154.807 350.7 156.19 350.743 156.06C351.002 154.85 351.564 153.295 352.644 152.388C355.323 150.054 358.563 150.659 353.292 154.764Z" stroke="black" stroke-width="1.72831" stroke-miterlimit="10" stroke-linecap="round" stroke-linejoin="round"/>
<path fill-rule="evenodd" clip-rule="evenodd" d="M379.611 224.156C383.067 221.65 385.962 218.366 387.691 214.347C388.9 211.582 388.684 208.298 386.87 205.835C378.574 194.601 362.068 205.835 351.526 205.187C346.211 204.842 359.173 193.089 349.192 190.799C332.687 186.997 322.058 197.626 320.762 201.169C319.379 205.015 317.046 212.619 324.046 219.619C327.632 223.205 334.286 224.761 339.903 225.754C341.977 226.143 343.878 226.446 345.433 226.748C349.365 227.526 354.377 227.742 358.439 228.735" fill="#F7F2EE"/>
<path d="M379.611 224.156C383.067 221.65 385.962 218.366 387.691 214.347C388.9 211.582 388.684 208.298 386.87 205.835C378.574 194.601 362.068 205.835 351.526 205.187C346.211 204.842 359.173 193.089 349.192 190.799C332.687 186.997 322.058 197.626 320.762 201.169C319.379 205.015 317.046 212.619 324.046 219.619C327.632 223.205 334.286 224.761 339.903 225.754C341.977 226.143 343.878 226.446 345.433 226.748C349.365 227.526 354.377 227.742 358.439 228.735" stroke="black" stroke-width="2.59246" stroke-miterlimit="10" stroke-linecap="round" stroke-linejoin="round"/>
<path d="M344.437 194.472C344.437 194.429 344.178 194.472 344.178 194.472C343.4 194.558 342.666 195.12 342.147 195.638C340.203 197.496 339.339 201.86 342.796 202.724C347.678 203.934 348.629 195.725 344.74 194.817" stroke="black" stroke-width="1.72831" stroke-miterlimit="10" stroke-linecap="round" stroke-linejoin="round"/>
<path fill-rule="evenodd" clip-rule="evenodd" d="M334.366 197.41C334.28 197.496 334.15 197.324 334.02 197.28C333.631 197.237 333.199 197.28 332.81 197.367C331.773 197.626 330.823 198.188 330.045 198.922C326.848 202.076 330.866 206.743 334.625 204.755C336.872 203.545 338.082 198.317 334.798 197.539" fill="black"/>
<path d="M334.366 197.41C334.28 197.496 334.15 197.324 334.02 197.28C333.631 197.237 333.199 197.28 332.81 197.367C331.773 197.626 330.823 198.188 330.045 198.922C326.848 202.076 330.866 206.743 334.625 204.755C336.872 203.545 338.082 198.317 334.798 197.539" stroke="black" stroke-width="1.72831" stroke-miterlimit="10" stroke-linecap="round" stroke-linejoin="round"/>
<path d="M329.008 207.909C328.058 208.514 327.107 208.644 326.286 209.768C324.212 212.576 325.681 217.933 329.786 216.551C332.897 215.514 332.767 209.768 330.132 208.255" stroke="black" stroke-width="1.72831" stroke-miterlimit="10" stroke-linecap="round" stroke-linejoin="round"/>
<path d="M344.651 207.261C344.522 207.391 344.349 207.045 344.176 207.002C343.657 206.872 343.139 206.916 342.62 206.959C341.065 207.132 339.466 207.607 338.3 208.687C334.584 212.057 339.25 217.631 343.441 216.637C346.682 215.903 348.454 209.249 345.04 207.607" stroke="black" stroke-width="1.72831" stroke-miterlimit="10" stroke-linecap="round" stroke-linejoin="round"/>
<path d="M402.077 268.573C404.367 279.764 406.095 290.739 410.07 301.67C411.366 305.257 412.965 309.534 415.73 312.343C426.532 323.361 417.891 258.376 414.175 240.099C413.267 235.519 411.842 229.211 407.737 226.359C398.404 219.835 401.904 263.172 403.503 273.629" stroke="black" stroke-width="3.45662" stroke-miterlimit="10" stroke-linecap="round" stroke-linejoin="round"/>
<path fill-rule="evenodd" clip-rule="evenodd" d="M417.976 318.737C418.106 318.737 417.76 318.824 417.673 318.867C415.902 320.379 414.649 322.583 413.525 324.527C412.359 326.515 406.051 342.286 408.643 343.539C408.989 343.711 409.939 342.415 410.069 342.242C414.087 337.619 417.068 331.7 418.451 325.996C419.229 322.756 419.056 318.003 418.235 319.472" fill="black"/>
<path d="M417.976 318.737C418.106 318.737 417.76 318.824 417.673 318.867C415.902 320.379 414.649 322.583 413.525 324.527C412.359 326.515 406.051 342.286 408.643 343.539C408.989 343.711 409.939 342.415 410.069 342.242C414.087 337.619 417.068 331.7 418.451 325.996C419.229 322.756 419.056 318.003 418.235 319.472" stroke="black" stroke-width="3.45662" stroke-miterlimit="10" stroke-linecap="round" stroke-linejoin="round"/>
<path fill-rule="evenodd" clip-rule="evenodd" d="M423.121 309.837C422.949 309.577 413.918 310.398 413.918 310.701C413.832 311.608 413.875 312.429 414.048 313.336C414.48 315.842 417.764 323.101 420.486 323.534C425.282 324.311 427.831 311.09 423.121 309.837Z" fill="#F7F2EE"/>
<path d="M423.121 309.837C422.949 309.577 413.918 310.398 413.918 310.701C413.832 311.608 413.875 312.429 414.048 313.336C414.48 315.842 417.764 323.101 420.486 323.534C425.282 324.311 427.831 311.09 423.121 309.837Z" stroke="black" stroke-width="3.45662" stroke-miterlimit="10" stroke-linecap="round" stroke-linejoin="round"/>
<path d="M421.953 307.935C422.169 308.626 422.644 306.682 422.99 306.077C423.897 304.392 424.675 302.707 425.453 300.979C426.576 298.473 433.489 279.72 435.996 280.585C440.921 282.313 426.836 304.695 425.064 307.892" stroke="black" stroke-width="3.45662" stroke-miterlimit="10" stroke-linecap="round" stroke-linejoin="round"/>
<path fill-rule="evenodd" clip-rule="evenodd" d="M372.695 178.917C376.368 183.627 373.171 193.522 375.374 196.805C375.461 196.935 376.022 196.805 376.152 196.762C379.997 196.157 383.886 195.984 387.732 195.509C389.417 195.293 390.108 194.645 390.41 193.435C391.75 187.861 391.231 165.825 376.195 172.004C374.51 172.695 373.257 173.776 372.911 175.201" fill="#F7F2EE"/>
<path d="M372.695 178.917C376.368 183.627 373.171 193.522 375.374 196.805C375.461 196.935 376.022 196.805 376.152 196.762C379.997 196.157 383.886 195.984 387.732 195.509C389.417 195.293 390.108 194.645 390.41 193.435C391.75 187.861 391.231 165.825 376.195 172.004C374.51 172.695 373.257 173.776 372.911 175.201" stroke="black" stroke-width="2.59246" stroke-miterlimit="10" stroke-linecap="round" stroke-linejoin="round"/>
<path fill-rule="evenodd" clip-rule="evenodd" d="M380.557 187.213C380.643 186.176 372.175 189.373 371.613 189.719C370.619 190.41 369.712 191.274 368.934 192.225C367.767 193.608 366.817 195.163 365.996 196.762C363.101 202.379 347.805 244.679 354.459 248.784C355.583 249.475 356.577 245.716 356.663 245.284C357.657 241.482 358.607 228.39 355.28 228.26C351.78 228.174 348.497 228.001 347.2 228.217C345.688 228.476 345.818 231.717 345.256 236.254C344.09 245.414 344.738 259.629 352.169 261.876C353.811 262.394 355.583 261.876 357.397 260.709C368.761 253.191 381.637 217.372 374.897 216.033C368.934 214.866 370.23 247.012 366.212 258.981C361.416 273.412 357.83 280.801 345.472 297.004C326.893 321.416 292.802 326.731 274.352 363.587C274.007 364.278 271.846 371.451 272.71 372.272C274.568 374 287.919 369.463 290.339 368.642C307.536 362.723 329.572 365.315 347.805 367.303C373.298 370.068 401.21 396.468 403.759 383.549C405.228 376.074 404.494 348.248 407.734 336.928C415.987 308.195 417.586 288.319 419.401 272.203C421.993 249.216 428.647 190.022 380.557 187.213Z" fill="#3E7AFF"/>
<path d="M380.557 187.213C380.643 186.176 372.175 189.373 371.613 189.719C370.619 190.41 369.712 191.274 368.934 192.225C367.767 193.608 366.817 195.163 365.996 196.762C363.101 202.379 347.805 244.679 354.459 248.784C355.583 249.475 356.577 245.716 356.663 245.284C357.657 241.482 358.607 228.39 355.28 228.26C351.78 228.174 348.497 228.001 347.2 228.217C345.688 228.476 345.818 231.717 345.256 236.254C344.09 245.414 344.738 259.629 352.169 261.876C353.811 262.394 355.583 261.876 357.397 260.709C368.761 253.191 381.637 217.372 374.897 216.033C368.934 214.866 370.23 247.012 366.212 258.981C361.416 273.412 357.83 280.801 345.472 297.004C326.893 321.416 292.802 326.731 274.352 363.587C274.007 364.278 271.846 371.451 272.71 372.272C274.568 374 287.919 369.463 290.339 368.642C307.536 362.723 329.572 365.315 347.805 367.303C373.298 370.068 401.21 396.468 403.759 383.549C405.228 376.074 404.494 348.248 407.734 336.928C415.987 308.195 417.586 288.319 419.401 272.203C421.993 249.216 428.647 190.022 380.557 187.213Z" stroke="black" stroke-width="2.59246" stroke-miterlimit="10" stroke-linecap="round" stroke-linejoin="round"/>
<path opacity="0.9116" d="M381.204 263.777C381.074 263.734 380.167 266.672 380.08 266.888C379 270.172 377.877 273.412 376.667 276.61C372.994 286.418 369.494 296.313 364.828 305.689C358.217 319.04 349.316 330.879 338.385 340.946C330.694 348.032 322.225 353.909 316.133 362.55" stroke="black" stroke-width="1.72831" stroke-miterlimit="10" stroke-linecap="round" stroke-linejoin="round"/>
<path opacity="0.9116" d="M391.493 298.3C391.536 298.17 391.363 298.516 391.32 298.603C390.24 301.325 389.203 304.09 387.993 306.769C385.616 311.911 382.851 316.88 380.172 321.892C372.222 336.755 360.599 349.199 352.562 363.889" stroke="black" stroke-width="1.72831" stroke-miterlimit="10" stroke-linecap="round" stroke-linejoin="round"/>
<path opacity="0.9116" d="M368.461 257.728C368.461 257.253 379.695 258.636 380.732 258.809" stroke="black" stroke-width="1.72831" stroke-miterlimit="10" stroke-linecap="round" stroke-linejoin="round"/>
<path opacity="0.9116" d="M356.279 283.523C355.631 283.479 357.575 283.264 358.223 283.221C360.47 283.005 362.76 283.004 365.007 283.134C370.451 283.437 376.198 284.214 381.253 286.418" stroke="black" stroke-width="1.72831" stroke-miterlimit="10" stroke-linecap="round" stroke-linejoin="round"/>
<path opacity="0.9116" d="M407.133 294.757C406.009 294.152 409.682 295.016 410.892 295.362" stroke="black" stroke-width="1.72831" stroke-miterlimit="10" stroke-linecap="round" stroke-linejoin="round"/>
<path opacity="0.9116" d="M321.969 317.139C322.185 316.145 329.746 316.664 330.438 316.707C352.43 317.096 376.022 319.299 395.811 329.539" stroke="black" stroke-width="1.72831" stroke-miterlimit="10" stroke-linecap="round" stroke-linejoin="round"/>
<path fill-rule="evenodd" clip-rule="evenodd" d="M366.474 154.418C367.597 156.665 364.313 168.936 365.307 173.43C367.035 180.905 371.961 180.775 376.584 175.504C380.948 170.578 383.584 163.189 382.331 156.579C381.121 150.141 372.091 148.585 368.289 153.727" fill="#F7F2EE"/>
<path d="M366.474 154.418C367.597 156.665 364.313 168.936 365.307 173.43C367.035 180.905 371.961 180.775 376.584 175.504C380.948 170.578 383.584 163.189 382.331 156.579C381.121 150.141 372.091 148.585 368.289 153.727" stroke="black" stroke-width="2.59246" stroke-miterlimit="10" stroke-linecap="round" stroke-linejoin="round"/>
<path fill-rule="evenodd" clip-rule="evenodd" d="M380.643 143.962C380.772 143.919 380.427 144.135 380.297 144.264C378.223 147.03 377.057 150.53 376.02 153.814C373.47 161.548 371.785 171.529 376.538 178.831C380.859 185.441 392.525 188.38 397.105 194.213C400.432 198.447 394.037 205.792 393.476 208.86C392.439 214.477 395.636 214.088 405.747 212.533C409.808 211.928 413.524 213.095 413.697 217.761C414.215 229.686 402.765 241.093 400.95 253.105C400.864 253.839 400.259 258.074 402.074 257.598C407.648 256.259 429.943 214.607 430.418 206.57C430.807 199.83 425.104 194.904 426.054 188.077C427.307 179.09 434.825 170.535 429.856 161.375C425.925 154.073 414.777 155.801 408.512 151.221C402.463 146.771 395.938 139.469 387.599 141.499" fill="#F7F2EE"/>
<path d="M380.643 143.962C380.772 143.919 380.427 144.135 380.297 144.264C378.223 147.03 377.057 150.53 376.02 153.814C373.47 161.548 371.785 171.529 376.538 178.831C380.859 185.441 392.525 188.38 397.105 194.213C400.432 198.447 394.037 205.792 393.476 208.86C392.439 214.477 395.636 214.088 405.747 212.533C409.808 211.928 413.524 213.095 413.697 217.761C414.215 229.686 402.765 241.093 400.95 253.105C400.864 253.839 400.259 258.074 402.074 257.598C407.648 256.259 429.943 214.607 430.418 206.57C430.807 199.83 425.104 194.904 426.054 188.077C427.307 179.09 434.825 170.535 429.857 161.375C425.925 154.073 414.777 155.801 408.512 151.221C402.463 146.771 395.938 139.469 387.599 141.499" stroke="black" stroke-width="2.59246" stroke-miterlimit="10" stroke-linecap="round" stroke-linejoin="round"/>
<path opacity="0.9116" d="M389.201 160.424C389.417 159.863 388.941 161.591 388.812 162.196C388.596 163.233 388.423 164.313 388.336 165.393C388.077 168.85 388.077 172.739 389.762 175.893C392.744 181.423 400.003 181.596 403.243 186.868C407.78 194.213 397.669 202.941 409.163 205.793" stroke="black" stroke-width="1.72831" stroke-miterlimit="10" stroke-linecap="round" stroke-linejoin="round"/>
<path opacity="0.9116" d="M403.115 159.171C403.115 159.171 403.072 159.603 403.072 159.647C403.029 163.276 403.893 167.294 406.183 170.189C411.541 176.973 419.836 179.695 416.423 190.281" stroke="black" stroke-width="1.72831" stroke-miterlimit="10" stroke-linecap="round" stroke-linejoin="round"/>
<path d="M383.625 128.364C383.625 128.364 383.625 128.407 383.625 128.364" stroke="black" stroke-width="3.45662" stroke-miterlimit="10" stroke-linecap="round" stroke-linejoin="round"/>
<path fill-rule="evenodd" clip-rule="evenodd" d="M383.883 128.494C383.84 128.494 381.55 128.494 380.384 128.667C378.18 129.012 376.063 129.66 374.032 130.481C366.168 133.808 354.07 143.832 363.705 151.955C370.619 157.788 381.55 159.43 390.278 159.819C425.19 161.504 413.135 124.086 383.883 128.494Z" fill="black"/>
<path d="M383.883 128.494C383.84 128.494 381.55 128.494 380.384 128.667C378.18 129.012 376.063 129.66 374.032 130.481C366.168 133.808 354.07 143.832 363.705 151.955C370.619 157.788 381.55 159.43 390.278 159.819C425.19 161.504 413.135 124.086 383.883 128.494Z" stroke="black" stroke-width="2.59246" stroke-miterlimit="10" stroke-linecap="round" stroke-linejoin="round"/>
<path opacity="0.9116" d="M370.488 138.302C370.488 138.302 370.445 138.302 370.445 138.345" stroke="#F7F2EE" stroke-width="1.72831" stroke-miterlimit="10" stroke-linecap="round" stroke-linejoin="round"/>
<path opacity="0.9116" d="M387.648 137.654C387.648 137.611 387.692 137.611 387.692 137.611" stroke="#F7F2EE" stroke-width="1.72831" stroke-miterlimit="10" stroke-linecap="round" stroke-linejoin="round"/>
<path opacity="0.9116" d="M384.703 133.376L384.746 133.333" stroke="#F7F2EE" stroke-width="1.72831" stroke-miterlimit="10" stroke-linecap="round" stroke-linejoin="round"/>
<path opacity="0.9116" d="M377.273 141.672H377.317" stroke="#F7F2EE" stroke-width="1.72831" stroke-miterlimit="10" stroke-linecap="round" stroke-linejoin="round"/>
<path opacity="0.9116" d="M391.703 148.024C391.703 148.024 391.746 148.067 391.79 148.067" stroke="#F7F2EE" stroke-width="1.72831" stroke-miterlimit="10" stroke-linecap="round" stroke-linejoin="round"/>
<path opacity="0.9116" d="M396.59 134.586C396.59 134.586 396.546 134.586 396.59 134.586" stroke="#F7F2EE" stroke-width="1.72831" stroke-miterlimit="10" stroke-linecap="round" stroke-linejoin="round"/>
<path opacity="0.9116" d="M401.086 146.554C401.129 146.554 401.259 146.727 401.302 146.77" stroke="#F7F2EE" stroke-width="1.72831" stroke-miterlimit="10" stroke-linecap="round" stroke-linejoin="round"/>
<path opacity="0.9116" d="M398.531 156.32V156.363" stroke="#F7F2EE" stroke-width="1.72831" stroke-miterlimit="10" stroke-linecap="round" stroke-linejoin="round"/>
<path opacity="0.9116" d="M380.598 153.166C380.598 153.209 380.598 153.208 380.555 153.252" stroke="#F7F2EE" stroke-width="1.72831" stroke-miterlimit="10" stroke-linecap="round" stroke-linejoin="round"/>
<path opacity="0.9116" d="M388.508 141.456C388.551 141.456 388.551 141.456 388.594 141.499" stroke="#F7F2EE" stroke-width="1.72831" stroke-miterlimit="10" stroke-linecap="round" stroke-linejoin="round"/>
<path opacity="0.9116" d="M371.312 149.147V149.19" stroke="#F7F2EE" stroke-width="1.72831" stroke-miterlimit="10" stroke-linecap="round" stroke-linejoin="round"/>
<path fill-rule="evenodd" clip-rule="evenodd" d="M384.925 126.42C384.536 126.376 385.271 124.432 385.357 124.259C386.049 122.574 387.302 120.544 389.073 119.593C393.567 117.173 393.61 122.401 384.925 126.42Z" fill="black"/>
<path d="M384.925 126.42C384.536 126.376 385.271 124.432 385.357 124.259C386.049 122.574 387.302 120.544 389.073 119.593C393.567 117.173 393.61 122.401 384.925 126.42Z" stroke="black" stroke-width="2.59246" stroke-miterlimit="10" stroke-linecap="round" stroke-linejoin="round"/>
<path fill-rule="evenodd" clip-rule="evenodd" d="M437.503 242.26C442.904 238.414 447.354 233.229 450.033 227.051C451.891 222.73 451.589 217.631 448.78 213.786C435.861 196.287 410.196 213.786 393.82 212.792C389.758 212.533 392.61 207.953 394.684 202.941C396.801 197.799 398.054 192.268 390.191 190.454C364.525 184.534 347.977 201.04 346.032 206.57C343.872 212.576 340.286 224.372 351.131 235.217C356.704 240.791 367.074 243.167 375.759 244.766C378.956 245.371 381.938 245.846 384.357 246.321C390.493 247.531 398.227 247.833 404.622 249.389" fill="#F7F2EE"/>
<path d="M437.503 242.26C442.904 238.414 447.354 233.229 450.033 227.051C451.891 222.73 451.589 217.631 448.78 213.786C435.861 196.287 410.196 213.786 393.82 212.792C389.758 212.533 392.61 207.953 394.684 202.941C396.801 197.799 398.054 192.268 390.191 190.454C364.525 184.534 347.977 201.04 346.032 206.57C343.872 212.576 340.286 224.372 351.131 235.217C356.704 240.791 367.074 243.167 375.759 244.766C378.956 245.371 381.938 245.846 384.357 246.321C390.493 247.531 398.227 247.833 404.622 249.389" stroke="black" stroke-width="3.45662" stroke-miterlimit="10" stroke-linecap="round" stroke-linejoin="round"/>
<path d="M382.849 196.113C382.849 196.07 382.46 196.113 382.46 196.113C381.25 196.243 380.127 197.107 379.306 197.928C376.282 200.866 374.942 207.607 380.343 208.946C387.948 210.847 389.417 198.101 383.324 196.632" stroke="black" stroke-width="1.72831" stroke-miterlimit="10" stroke-linecap="round" stroke-linejoin="round"/>
<path d="M367.162 200.694C367.032 200.867 366.816 200.521 366.6 200.521C365.995 200.478 365.347 200.521 364.742 200.694C363.143 201.083 361.631 201.99 360.465 203.113C355.539 208.039 361.761 215.255 367.594 212.144C371.094 210.286 372.952 202.12 367.853 200.953" stroke="black" stroke-width="1.72831" stroke-miterlimit="10" stroke-linecap="round" stroke-linejoin="round"/>
<path fill-rule="evenodd" clip-rule="evenodd" d="M358.869 217.026C357.356 217.934 355.93 218.15 354.677 219.878C351.48 224.242 353.727 232.538 360.122 230.421C364.961 228.779 364.745 219.921 360.683 217.501" fill="black"/>
<path d="M358.869 217.026C357.356 217.934 355.93 218.15 354.677 219.878C351.48 224.242 353.727 232.538 360.122 230.421C364.961 228.779 364.745 219.921 360.683 217.501" stroke="black" stroke-width="1.72831" stroke-miterlimit="10" stroke-linecap="round" stroke-linejoin="round"/>
<path d="M383.151 216.033C382.978 216.249 382.675 215.73 382.416 215.644C381.638 215.471 380.817 215.514 380.04 215.557C377.62 215.816 375.114 216.594 373.299 218.236C367.509 223.464 374.768 232.106 381.336 230.593C386.348 229.427 389.156 219.1 383.842 216.508" stroke="black" stroke-width="1.72831" stroke-miterlimit="10" stroke-linecap="round" stroke-linejoin="round"/>
<path fill-rule="evenodd" clip-rule="evenodd" d="M469.952 310.268C473.539 327.681 476.174 344.748 482.353 361.686C484.384 367.259 486.89 373.913 491.124 378.234C507.889 395.344 494.451 294.325 488.748 265.937C487.322 258.851 485.118 249.043 478.767 244.593C464.292 234.439 469.693 301.8 472.156 318.089" fill="#3E63FF"/>
<path d="M469.952 310.268C473.539 327.681 476.174 344.748 482.353 361.686C484.384 367.259 486.89 373.913 491.124 378.234C507.889 395.344 494.451 294.325 488.748 265.937C487.322 258.851 485.118 249.043 478.767 244.593C464.292 234.439 469.693 301.8 472.156 318.089" stroke="black" stroke-width="3.45662" stroke-miterlimit="10" stroke-linecap="round" stroke-linejoin="round"/>
<path fill-rule="evenodd" clip-rule="evenodd" d="M502.664 374.432C502.405 374.043 488.405 375.339 488.362 375.771C488.276 377.154 488.319 378.494 488.535 379.876C489.226 383.765 494.325 395.042 498.559 395.734C506.034 396.9 510.009 376.377 502.664 374.432Z" fill="#F7F2EE"/>
<path d="M502.664 374.432C502.405 374.043 488.405 375.339 488.362 375.771C488.276 377.154 488.319 378.494 488.535 379.876C489.226 383.765 494.325 395.042 498.559 395.734C506.034 396.9 510.009 376.377 502.664 374.432Z" stroke="black" stroke-width="3.45662" stroke-miterlimit="10" stroke-linecap="round" stroke-linejoin="round"/>
<path d="M500.852 371.451C501.24 372.488 501.932 369.507 502.45 368.556C503.833 365.964 505.086 363.284 506.296 360.649C508.067 356.76 518.826 327.638 522.671 328.978C530.362 331.656 508.413 366.439 505.648 371.451" stroke="black" stroke-width="3.45662" stroke-miterlimit="10" stroke-linecap="round" stroke-linejoin="round"/>
<path fill-rule="evenodd" clip-rule="evenodd" d="M424.281 170.923C425.621 172.652 426.355 174.812 426.787 177.189C428.084 184.923 425.793 194.817 428.429 198.749C428.559 198.965 429.466 198.706 429.639 198.706C435.602 197.755 441.651 197.496 447.614 196.762C450.249 196.459 451.329 195.422 451.805 193.521C453.879 184.836 453.101 150.616 429.725 160.208C427.133 161.288 425.145 162.973 424.627 165.177" fill="#F7F2EE"/>
<path d="M424.281 170.923C425.621 172.652 426.355 174.812 426.787 177.189C428.084 184.923 425.793 194.817 428.429 198.749C428.559 198.965 429.466 198.706 429.639 198.706C435.602 197.755 441.651 197.496 447.614 196.762C450.249 196.459 451.329 195.422 451.805 193.521C453.879 184.836 453.101 150.616 429.725 160.208C427.133 161.288 425.145 162.973 424.627 165.177" stroke="black" stroke-width="3.45662" stroke-miterlimit="10" stroke-linecap="round" stroke-linejoin="round"/>
<path fill-rule="evenodd" clip-rule="evenodd" d="M436.515 183.756C436.645 182.158 423.467 187.083 422.646 187.688C421.09 188.768 419.664 190.108 418.454 191.577C416.64 193.737 415.171 196.157 413.875 198.663C409.381 207.348 385.573 273.153 395.9 279.548C397.628 280.628 399.184 274.795 399.357 274.104C400.869 268.227 402.424 247.79 397.196 247.66C391.795 247.531 386.61 247.228 384.666 247.617C382.29 248.049 382.549 253.018 381.642 260.148C379.784 274.406 380.864 296.529 392.357 299.985C410.936 305.645 431.114 226.1 426.88 237.766C424.331 244.809 420.399 276.869 414.22 295.491C406.745 317.959 401.171 329.366 381.944 354.599C353.038 392.536 300.065 400.789 271.419 458.125C270.857 459.206 267.487 470.31 268.869 471.606C271.764 474.328 292.504 467.286 296.263 465.989C322.965 456.786 357.272 460.847 385.573 463.915C425.238 468.236 473.285 505.438 477.26 485.389C479.55 473.766 478.773 437.386 479.291 419.152C480.242 385.882 472.464 344.575 475.273 319.558C479.334 283.653 511.222 188.164 436.515 183.756Z" fill="#3E7AFF"/>
<path d="M436.515 183.756C436.645 182.158 423.467 187.083 422.646 187.688C421.09 188.768 419.664 190.108 418.455 191.577C416.64 193.737 415.171 196.157 413.875 198.663C409.381 207.348 385.573 273.153 395.9 279.548C397.628 280.628 399.184 274.795 399.357 274.104C400.869 268.227 402.424 247.79 397.196 247.66C391.795 247.531 386.61 247.228 384.666 247.617C382.29 248.049 382.549 253.018 381.642 260.148C379.784 274.406 380.864 296.529 392.357 299.985C410.936 305.645 431.114 226.1 426.88 237.766C424.331 244.809 420.399 276.869 414.22 295.491C406.745 317.959 401.171 329.366 381.944 354.599C353.038 392.536 300.065 400.789 271.419 458.125C270.857 459.206 267.487 470.31 268.869 471.606C271.764 474.328 292.504 467.286 296.263 465.989C322.965 456.786 357.272 460.847 385.573 463.915C425.238 468.236 473.285 505.438 477.26 485.389C479.55 473.766 478.773 437.386 479.291 419.152C480.242 385.882 472.464 344.575 475.273 319.558C479.334 283.653 511.222 188.164 436.515 183.756Z" stroke="black" stroke-width="3.45662" stroke-miterlimit="10" stroke-linecap="round" stroke-linejoin="round"/>
<path opacity="0.9116" d="M410.33 210.113C409.034 208.687 414.003 208.946 415.861 208.341C419.793 207.132 423.897 206.224 427.916 205.403C434.959 203.978 464.297 203.156 468.704 212.014" stroke="black" stroke-width="1.72831" stroke-miterlimit="10" stroke-linecap="round" stroke-linejoin="round"/>
<path opacity="0.9116" d="M404.758 230.248C407.653 228.779 423.813 226.575 438.978 229.384C458.552 233.013 478.168 242.303 482.877 244.031" stroke="black" stroke-width="1.72831" stroke-miterlimit="10" stroke-linecap="round" stroke-linejoin="round"/>
<path opacity="0.9116" d="M422.423 267.364C421.473 265.765 426.139 267.579 427.997 267.752C432.793 268.227 437.589 268.833 442.342 269.524C455.391 271.468 467.489 275.227 479.976 279.246" stroke="black" stroke-width="1.72831" stroke-miterlimit="10" stroke-linecap="round" stroke-linejoin="round"/>
<path opacity="0.9116" d="M411.061 310.053C410.845 310.398 411.881 310.139 412.27 310.226C418.795 311.479 425.233 313.077 431.671 314.589C446.188 317.96 460.404 321.287 473.28 328.848" stroke="black" stroke-width="1.72831" stroke-miterlimit="10" stroke-linecap="round" stroke-linejoin="round"/>
<path opacity="0.9116" d="M381.938 356.976C381.981 357.279 384.832 357.236 385.092 357.236C393.517 358.013 401.9 359.223 410.282 360.519C432.879 363.976 461.613 370.327 476.476 389.771" stroke="black" stroke-width="1.72831" stroke-miterlimit="10" stroke-linecap="round" stroke-linejoin="round"/>
<path opacity="0.9116" d="M328.886 399.579C328.713 399.838 329.447 399.882 329.62 399.882C335.194 400.227 340.897 399.968 346.471 400.054C358.008 400.27 369.414 400.573 380.908 401.826C416.295 405.671 451.768 417.51 478.039 442.441" stroke="black" stroke-width="1.72831" stroke-miterlimit="10" stroke-linecap="round" stroke-linejoin="round"/>
<path opacity="0.9116" d="M439.757 186.954C440.059 186.824 442.868 195.898 442.997 196.287C444.682 202.293 445.806 208.471 446.54 214.65C448.614 232.149 446.324 249.562 443.17 266.802C437.769 296.442 431.979 329.496 414.134 354.557C388.858 390.073 349.15 414.572 335.453 457.607" stroke="black" stroke-width="1.72831" stroke-miterlimit="10" stroke-linecap="round" stroke-linejoin="round"/>
<path opacity="0.9116" d="M470.13 226.532C470.39 225.495 470.519 228.606 470.649 229.643C470.822 231.371 470.951 233.1 471.038 234.828C471.47 241.914 471.47 248.957 471.427 256.043C471.254 275.313 469.18 294.498 464.773 313.293C457.082 345.828 442.65 376.463 428.651 406.665C420.096 425.158 405.578 445.033 405.578 466.248" stroke="black" stroke-width="1.72831" stroke-miterlimit="10" stroke-linecap="round" stroke-linejoin="round"/>
<path opacity="0.9116" d="M477.038 374.173C477.427 373.784 477.081 375.253 477.038 375.772C476.087 387.783 471.896 399.795 468.223 411.159C460.403 435.269 452.15 458.471 448.305 483.575" stroke="black" stroke-width="1.72831" stroke-miterlimit="10" stroke-linecap="round" stroke-linejoin="round"/>
<path opacity="0.9116" d="M476.742 313.466C477.822 314.633 479.248 311.522 480.588 310.657C483.871 308.497 490.439 304.349 494.63 306.941" stroke="black" stroke-width="1.72831" stroke-miterlimit="10" stroke-linecap="round" stroke-linejoin="round"/>
<path opacity="0.9116" d="M480.154 347.773C479.894 347.73 482.141 346.045 482.487 345.872C484.863 344.403 487.456 343.236 490.091 342.416C492.597 341.638 495.406 341.206 498.042 341.551" stroke="black" stroke-width="1.72831" stroke-miterlimit="10" stroke-linecap="round" stroke-linejoin="round"/>
<path fill-rule="evenodd" clip-rule="evenodd" d="M491.21 390.549C491.383 390.592 490.821 390.592 490.692 390.678C487.278 392.709 481.445 397.203 478.723 401.783C475.31 407.486 469.952 425.028 470.254 424.769C478.334 418.245 485.161 414.14 489.266 404.98C491.556 399.838 493.068 388.345 491.21 390.549Z" fill="black"/>
<path d="M491.21 390.549C491.383 390.592 490.821 390.592 490.692 390.678C487.278 392.709 481.445 397.203 478.723 401.783C475.31 407.486 469.952 425.028 470.254 424.769C478.334 418.245 485.161 414.14 489.266 404.98C491.556 399.838 493.068 388.345 491.21 390.549Z" stroke="black" stroke-width="3.45662" stroke-miterlimit="10" stroke-linecap="round" stroke-linejoin="round"/>
<path fill-rule="evenodd" clip-rule="evenodd" d="M414.563 132.814C416.291 136.357 411.193 155.369 412.791 162.369C415.47 173.991 423.161 173.775 430.334 165.609C437.117 157.918 441.222 146.468 439.278 136.184C437.42 126.203 423.377 123.741 417.458 131.778" fill="#F7F2EE"/>
<path d="M414.563 132.814C416.291 136.357 411.193 155.369 412.791 162.369C415.47 173.991 423.161 173.775 430.334 165.609C437.117 157.918 441.222 146.468 439.278 136.184C437.42 126.203 423.377 123.741 417.458 131.778" stroke="black" stroke-width="3.45662" stroke-miterlimit="10" stroke-linecap="round" stroke-linejoin="round"/>
<path fill-rule="evenodd" clip-rule="evenodd" d="M436.643 116.525C436.859 116.439 436.254 116.828 436.125 117C432.927 121.321 431.113 126.765 429.471 131.821C425.539 143.832 422.903 159.387 430.292 170.708C436.989 180.991 460.624 183.799 467.71 192.873C482.271 211.366 452.976 216.94 470.864 228.087C476.265 231.458 483.912 227.526 484.215 234.785C484.993 253.364 459.284 267.839 482.314 276.912C483.048 277.215 527.423 284.215 503.486 239.581C499.165 231.501 508.93 229.081 510.356 225.711C518.133 206.916 497.35 192.873 498.819 182.201C500.764 168.245 518.263 155.931 510.615 141.715C504.479 130.352 489.832 135.018 480.11 127.932C470.691 121.062 460.537 109.655 447.575 112.809" fill="#F7F2EE"/>
<path d="M436.643 116.525C436.859 116.439 436.254 116.828 436.125 117C432.927 121.321 431.113 126.765 429.471 131.821C425.539 143.832 422.903 159.387 430.292 170.708C436.989 180.991 460.624 183.799 467.71 192.873C482.271 211.366 452.976 216.94 470.864 228.087C476.265 231.458 483.912 227.526 484.215 234.785C484.993 253.364 459.284 267.839 482.314 276.912C483.048 277.215 527.423 284.215 503.486 239.581C499.165 231.501 508.93 229.081 510.356 225.711C518.133 206.916 497.35 192.873 498.819 182.201C500.764 168.245 518.263 155.931 510.615 141.715C504.479 130.352 489.832 135.018 480.11 127.932C470.691 121.062 460.537 109.655 447.575 112.809" stroke="black" stroke-width="3.45662" stroke-miterlimit="10" stroke-linecap="round" stroke-linejoin="round"/>
<path opacity="0.9116" d="M444.245 141.715C444.288 141.456 442.862 143.66 442.69 144.135C441.912 146.122 441.35 148.283 441.091 150.4C440.141 157.875 443.424 163.492 449.992 167.078C465.46 175.46 484.731 179.263 481.404 201.601C480.669 206.527 477.861 212.576 479.33 217.588C481.058 223.421 490.434 224.933 492.94 231.717C495.187 237.853 487.15 269.826 495.878 268.616C504.952 267.363 497.391 241.871 497.953 235.951C498.557 229.254 504.174 223.896 503.829 217.156C503.397 208.082 492.249 203.762 491.558 191.75C490.521 174.208 507.545 148.153 481.231 134.629" stroke="black" stroke-width="1.72831" stroke-miterlimit="10" stroke-linecap="round" stroke-linejoin="round"/>
<path opacity="0.9116" d="M458.504 142.968C458.59 142.968 458.547 143.271 458.504 143.357C458.418 144.351 458.547 145.345 458.72 146.295C459.195 148.672 459.93 151.048 461.183 153.122C465.072 159.56 473.454 161.461 477.645 167.899C479.028 170.016 480.367 175.331 483.176 175.979C485.768 176.541 486.589 172.004 486.848 170.362C487.626 165.134 486.935 158.609 483.219 154.548C477.948 148.758 474.966 150.27 471.855 141.585" stroke="black" stroke-width="1.72831" stroke-miterlimit="10" stroke-linecap="round" stroke-linejoin="round"/>
<path d="M441.261 92.3286C441.261 92.3286 441.218 92.3286 441.261 92.3286" stroke="black" stroke-width="3.45662" stroke-miterlimit="10" stroke-linecap="round" stroke-linejoin="round"/>
<path fill-rule="evenodd" clip-rule="evenodd" d="M441.651 92.4585C439.837 92.6745 438.022 92.5013 436.25 92.7606C432.837 93.2791 429.51 94.2731 426.356 95.6125C414.128 100.754 395.333 116.352 410.326 128.969C421.041 137.999 438.065 140.548 451.632 141.24C493.544 143.227 491.47 110.994 467.36 99.3282C460.231 95.9148 448.133 91.7239 441.651 92.4585Z" fill="black"/>
<path d="M441.651 92.4585C439.837 92.6745 438.022 92.5013 436.25 92.7606C432.837 93.2791 429.51 94.2731 426.356 95.6125C414.128 100.754 395.333 116.352 410.326 128.969C421.041 137.999 438.065 140.548 451.632 141.24C493.544 143.227 491.47 110.994 467.36 99.3282C460.231 95.9148 448.133 91.7239 441.651 92.4585Z" stroke="black" stroke-width="3.45662" stroke-miterlimit="10" stroke-linecap="round" stroke-linejoin="round"/>
<path opacity="0.9116" d="M437.898 106.155C437.898 106.112 437.898 106.155 437.898 106.155" stroke="#F7F2EE" stroke-width="1.72831" stroke-miterlimit="10" stroke-linecap="round" stroke-linejoin="round"/>
<path opacity="0.9116" d="M429.344 122.79L429.603 122.834" stroke="#F7F2EE" stroke-width="1.72831" stroke-miterlimit="10" stroke-linecap="round" stroke-linejoin="round"/>
<path opacity="0.9116" d="M455.047 127.586C455.09 127.543 455.263 127.586 455.306 127.586" stroke="#F7F2EE" stroke-width="1.72831" stroke-miterlimit="10" stroke-linecap="round" stroke-linejoin="round"/>
<path opacity="0.9116" d="M461.531 114.581C461.531 114.581 461.531 114.538 461.574 114.495" stroke="#F7F2EE" stroke-width="1.72831" stroke-miterlimit="10" stroke-linecap="round" stroke-linejoin="round"/>
<path opacity="0.9116" d="M439.93 114.105C439.93 114.149 439.973 114.192 439.973 114.235" stroke="#F7F2EE" stroke-width="1.72831" stroke-miterlimit="10" stroke-linecap="round" stroke-linejoin="round"/>
<path opacity="0.9116" d="M449.086 118.685V118.599" stroke="#F7F2EE" stroke-width="1.72831" stroke-miterlimit="10" stroke-linecap="round" stroke-linejoin="round"/>
<path opacity="0.9116" d="M437.461 132.642C437.504 132.685 437.504 132.685 437.547 132.685" stroke="#F7F2EE" stroke-width="1.72831" stroke-miterlimit="10" stroke-linecap="round" stroke-linejoin="round"/>
<path opacity="0.9116" d="M471.211 132.512C471.211 132.468 471.211 132.512 471.211 132.512" stroke="#F7F2EE" stroke-width="1.72831" stroke-miterlimit="10" stroke-linecap="round" stroke-linejoin="round"/>
<path opacity="0.9116" d="M478.469 115.877C478.426 115.877 478.426 115.877 478.383 115.92" stroke="#F7F2EE" stroke-width="1.72831" stroke-miterlimit="10" stroke-linecap="round" stroke-linejoin="round"/>
<path opacity="0.9116" d="M467.064 124C467.02 124.087 466.977 124.13 466.891 124.216" stroke="#F7F2EE" stroke-width="1.72831" stroke-miterlimit="10" stroke-linecap="round" stroke-linejoin="round"/>
<path opacity="0.9116" d="M476.266 123.352C476.266 123.352 476.309 123.525 476.309 123.568" stroke="#F7F2EE" stroke-width="1.72831" stroke-miterlimit="10" stroke-linecap="round" stroke-linejoin="round"/>
<path opacity="0.9116" d="M465.117 107.84C465.29 107.84 465.463 107.84 465.636 107.84" stroke="#F7F2EE" stroke-width="1.72831" stroke-miterlimit="10" stroke-linecap="round" stroke-linejoin="round"/>
<path opacity="0.9116" d="M447.532 103.649C447.489 103.692 447.445 103.693 447.445 103.693" stroke="#F7F2EE" stroke-width="1.72831" stroke-miterlimit="10" stroke-linecap="round" stroke-linejoin="round"/>
<path opacity="0.9116" d="M444.332 96.2607C444.288 96.3039 444.332 96.304 444.332 96.3472" stroke="#F7F2EE" stroke-width="1.72831" stroke-miterlimit="10" stroke-linecap="round" stroke-linejoin="round"/>
<path opacity="0.9116" d="M427.868 99.5444C427.825 99.5444 427.824 99.5447 427.781 99.5879" stroke="#F7F2EE" stroke-width="1.72831" stroke-miterlimit="10" stroke-linecap="round" stroke-linejoin="round"/>
<path opacity="0.9116" d="M462.829 133.722C462.915 133.679 462.743 133.895 462.656 133.981" stroke="#F7F2EE" stroke-width="1.72831" stroke-miterlimit="10" stroke-linecap="round" stroke-linejoin="round"/>
<path fill-rule="evenodd" clip-rule="evenodd" d="M441.912 91.0326C441.35 90.6869 442.776 87.3171 442.905 87.0578C444.245 84.1629 446.492 80.9654 449.387 80.2741C456.689 78.4162 459.843 87.9216 441.912 91.0326Z" fill="black"/>
<path d="M441.912 91.0326C441.35 90.6869 442.776 87.3171 442.905 87.0578C444.245 84.1629 446.492 80.9654 449.387 80.2741C456.689 78.4162 459.843 87.9216 441.912 91.0326Z" stroke="black" stroke-width="3.45662" stroke-miterlimit="10" stroke-linecap="round" stroke-linejoin="round"/>
<path d="M394.904 466.378C394.861 466.378 395.25 471.952 395.034 474.069C394.04 484.741 393.478 492.865 391.75 501.809" stroke="black" stroke-width="3.45662" stroke-miterlimit="10" stroke-linecap="round" stroke-linejoin="round"/>
<path d="M415.818 472.73C416.163 472.254 415.818 473.896 415.774 474.458C415.558 476.229 413.398 496.062 410.633 502.5" stroke="black" stroke-width="3.45662" stroke-miterlimit="10" stroke-linecap="round" stroke-linejoin="round"/>
<path d="M423.461 476.791C423.85 482.236 423.504 497.877 422.727 501.463" stroke="black" stroke-width="3.45662" stroke-miterlimit="10" stroke-linecap="round" stroke-linejoin="round"/>
<path d="M444.375 488.414C444.548 490.531 444.505 500.296 444.375 501.852" stroke="black" stroke-width="3.45662" stroke-miterlimit="10" stroke-linecap="round" stroke-linejoin="round"/>
<path opacity="0.9116" d="M488.059 395.777C486.331 397.419 485.121 400.53 484.041 402.604C481.621 407.227 479.245 411.807 476.695 416.344" stroke="#F7F2EE" stroke-width="1.72831" stroke-miterlimit="10" stroke-linecap="round" stroke-linejoin="round"/>
<path opacity="0.9116" d="M489.182 400.227C488.058 404.634 485.941 409.171 483.133 412.758" stroke="#F7F2EE" stroke-width="1.72831" stroke-miterlimit="10" stroke-linecap="round" stroke-linejoin="round"/>
<path opacity="0.9116" d="M482.227 398.369C481.622 398.499 480.585 400.443 480.283 400.875C478.382 403.684 476.697 406.708 475.703 409.992" stroke="#F7F2EE" stroke-width="1.72831" stroke-miterlimit="10" stroke-linecap="round" stroke-linejoin="round"/>
</svg>
