<svg width="1024" height="300" viewBox="0 0 1024 300" fill="none" xmlns="http://www.w3.org/2000/svg">
<g clip-path="url(#clip0_3903_16094)">
<rect width="1024" height="300" fill="#002882"/>
<rect width="1024" height="300" fill="black" fill-opacity="0.2"/>
<path d="M1095.78 -12.3556L1095.65 -12.4833C1092.74 -15.3913 1088.02 -15.391 1085.12 -12.4827L1083.87 -11.2324C1080.96 -8.32418 1076.24 -8.32388 1073.33 -11.2319L1073.21 -11.3595C1070.3 -14.2675 1065.58 -14.2672 1062.67 -11.3589L1051.4 -0.0836149C1048.45 2.85995 1043.68 2.85995 1040.74 -0.0836149C1037.79 -3.02718 1037.79 -7.79966 1040.74 -10.7432L1057.4 -27.4076C1060.31 -30.3159 1060.31 -35.0313 1057.4 -37.9393L1057.27 -38.0669C1054.37 -40.9752 1049.65 -40.9749 1046.74 -38.0666L1010.07 -1.3936C1007.13 1.54996 1002.35 1.54996 999.41 -1.3936C996.466 -4.33716 996.466 -9.10964 999.41 -12.0532L1036.08 -48.7262C1038.99 -51.6345 1038.99 -56.3499 1036.08 -59.2582L1035.96 -59.3858C1033.05 -62.2941 1028.33 -62.2938 1025.42 -59.3856L941.482 24.5563C938.538 27.4999 938.538 32.2723 941.482 35.2159C944.425 38.1595 944.425 42.9319 941.482 45.8755L904.872 82.4847C901.929 85.4283 901.929 90.2007 904.872 93.1443C907.816 96.0879 912.588 96.0879 915.532 93.1443L952.141 56.5348C955.085 53.5912 959.857 53.5912 962.801 56.5348C965.744 59.4784 965.744 64.2509 962.801 67.1944L946.201 83.7947C943.257 86.7382 943.257 91.5107 946.201 94.4543C949.144 97.3978 953.917 97.3978 956.86 94.4543L968.073 83.2419C971.016 80.2984 975.789 80.2984 978.732 83.2419C981.676 86.1855 986.448 86.1855 989.392 83.2419L990.516 82.1182C993.459 79.1746 998.232 79.1746 1001.18 82.1182C1004.12 85.0617 1008.89 85.0617 1011.83 82.1182L1095.78 -1.82369C1098.68 -4.73195 1098.68 -9.44736 1095.78 -12.3556Z" fill="url(#paint0_linear_3903_16094)"/>
<path d="M956.669 14.7015C959.547 17.5798 959.547 22.2463 956.669 25.1249L934.698 47.0948C931.82 49.9731 931.82 54.6396 934.698 57.5182C937.577 60.3964 937.577 65.063 934.698 67.9413L930.089 72.5505C927.211 75.4287 927.211 80.0953 930.089 82.9739C932.967 85.8521 937.634 85.8521 940.513 82.9739L1014.6 8.88704C1017.48 6.00878 1017.48 1.34222 1014.6 -1.53633C1011.72 -4.41459 1011.72 -9.08116 1014.6 -11.9594L1019.21 -16.5683C1022.09 -19.4466 1022.09 -24.1132 1019.21 -26.9917C1016.33 -29.87 1016.33 -34.5365 1019.21 -37.4148L1041.18 -59.385C1044.06 -62.2633 1044.06 -66.9298 1041.18 -69.8081C1038.3 -72.6864 1033.63 -72.6864 1030.76 -69.8081L1018.43 -57.4793C1015.55 -54.6011 1010.88 -54.6011 1008 -57.4793C1005.12 -60.3576 1000.46 -60.3576 997.58 -57.4793L981.505 -41.405C978.627 -38.5268 973.96 -38.5268 971.082 -41.405C968.204 -44.2833 968.204 -48.9499 971.082 -51.8284L977.515 -58.2615C980.393 -61.1398 980.393 -65.8064 977.515 -68.6849C974.637 -71.5632 974.637 -76.2297 977.515 -79.1083L990.625 -92.2187C993.504 -95.097 993.504 -99.7635 990.625 -102.642C987.747 -105.52 983.081 -105.52 980.202 -102.642L967.092 -89.5317C964.214 -86.6534 959.547 -86.6534 956.669 -89.5317C953.79 -92.4099 949.124 -92.4099 946.246 -89.5317L872.159 -15.4446C869.28 -12.5663 869.28 -7.89974 872.159 -5.02148C875.037 -2.14323 879.704 -2.14323 882.582 -5.02148L895.692 -18.1319C898.57 -21.0101 903.237 -21.0101 906.116 -18.1319C908.994 -15.2536 908.994 -10.5871 906.116 -7.70852L893.005 5.40189C890.127 8.28015 890.127 12.9467 893.005 15.8253C895.883 18.7035 895.883 23.3701 893.005 26.2484L886.572 32.6815C883.694 35.5597 883.694 40.2263 886.572 43.1049C889.45 45.9831 894.117 45.9831 896.995 43.1049L913.07 27.0303C915.948 24.152 920.615 24.152 923.493 27.0303C926.371 29.9085 931.038 29.9085 933.916 27.0303L946.245 14.7015C949.124 11.823 953.79 11.823 956.669 14.7015Z" fill="url(#paint1_linear_3903_16094)"/>
<path d="M994.448 104.199C998.611 104.199 1001.99 100.824 1001.99 96.6615C1001.99 92.4987 998.611 89.124 994.448 89.124C990.285 89.124 986.91 92.4987 986.91 96.6615C986.91 100.824 990.285 104.199 994.448 104.199Z" fill="url(#paint2_linear_3903_16094)"/>
<path d="M879.83 59.9363C883.993 59.9363 887.367 56.5616 887.367 52.3988C887.367 48.236 883.993 44.8613 879.83 44.8613C875.667 44.8613 872.292 48.236 872.292 52.3988C872.292 56.5616 875.667 59.9363 879.83 59.9363Z" fill="url(#paint3_linear_3903_16094)"/>
<path d="M99.3829 282.735L99.2882 282.64C97.1319 280.484 93.6361 280.484 91.48 282.64L90.5531 283.567C88.3968 285.723 84.9011 285.724 82.7448 283.568L82.6502 283.473C80.4936 281.317 76.9978 281.317 74.8417 283.474L66.4825 291.833C64.3003 294.015 60.7621 294.015 58.5799 291.833C56.3976 289.65 56.3976 286.112 58.5799 283.93L70.9343 271.576C73.0904 269.419 73.0904 265.924 70.9341 263.768L70.8394 263.673C68.6831 261.517 65.1873 261.517 63.0312 263.673L35.8428 290.861C33.6605 293.044 30.1223 293.044 27.9401 290.861C25.7578 288.679 25.7578 285.141 27.9401 282.959L55.1283 255.771C57.2844 253.615 57.2844 250.119 55.1283 247.963L55.0336 247.868C52.8773 245.712 49.3815 245.712 47.2254 247.868L-15.0059 310.1C-17.1882 312.282 -17.1882 315.82 -15.0059 318.003C-12.8237 320.185 -12.8237 323.723 -15.0059 325.905L-42.147 353.046C-44.3293 355.228 -44.3293 358.767 -42.147 360.949C-39.9647 363.131 -36.4266 363.131 -34.2443 360.949L-7.10323 333.808C-4.92097 331.625 -1.38281 331.625 0.799451 333.808C2.98171 335.99 2.98171 339.528 0.799451 341.71L-11.5074 354.017C-13.6897 356.2 -13.6897 359.738 -11.5074 361.92C-9.32519 364.102 -5.78703 364.102 -3.60477 361.92L4.70771 353.607C6.88997 351.425 10.4281 351.425 12.6104 353.607C14.7926 355.79 18.3308 355.79 20.5131 353.607L21.3462 352.774C23.5285 350.592 27.0666 350.592 29.2489 352.774C31.4311 354.957 34.9693 354.957 37.1516 352.774L99.3835 290.543C101.539 288.387 101.539 284.891 99.3829 282.735Z" fill="url(#paint4_linear_3903_16094)"/>
<path d="M-3.74674 302.794C-1.6129 304.928 -1.6129 308.388 -3.74674 310.522L-20.0348 326.81C-22.1686 328.943 -22.1686 332.403 -20.0348 334.537C-17.9009 336.671 -17.9009 340.131 -20.0348 342.265L-23.4519 345.682C-25.5857 347.815 -25.5857 351.275 -23.4519 353.409C-21.318 355.543 -17.8582 355.543 -15.7243 353.409L39.2012 298.484C41.3351 296.35 41.3351 292.89 39.2012 290.756C37.0674 288.622 37.0674 285.163 39.2012 283.029L42.6181 279.612C44.752 277.478 44.752 274.018 42.6181 271.884C40.4843 269.75 40.4843 266.291 42.6181 264.157L58.9061 247.869C61.04 245.735 61.04 242.275 58.9061 240.142C56.7723 238.008 53.3126 238.008 51.1786 240.142L42.0384 249.282C39.9046 251.416 36.4449 251.416 34.3109 249.282C32.177 247.148 28.7174 247.148 26.5833 249.282L14.6664 261.199C12.5325 263.333 9.07291 263.333 6.93884 261.199C4.805 259.065 4.805 255.605 6.93884 253.471L11.7081 248.702C13.842 246.568 13.842 243.108 11.7081 240.974C9.5743 238.84 9.5743 235.381 11.7081 233.247L21.4278 223.527C23.5616 221.393 23.5616 217.934 21.4278 215.8C19.2939 213.666 15.8343 213.666 13.7004 215.8L3.98081 225.519C1.84696 227.653 -1.61268 227.653 -3.74674 225.519C-5.88059 223.385 -9.34023 223.385 -11.4741 225.519L-66.3996 280.445C-68.5335 282.579 -68.5335 286.038 -66.3996 288.172C-64.2658 290.306 -60.8061 290.306 -58.6723 288.172L-48.9527 278.453C-46.8188 276.319 -43.3592 276.319 -41.2251 278.453C-39.0913 280.587 -39.0913 284.046 -41.2251 286.18L-50.9447 295.9C-53.0786 298.034 -53.0786 301.493 -50.9447 303.627C-48.8109 305.761 -48.8109 309.221 -50.9447 311.355L-55.714 316.124C-57.8479 318.258 -57.8479 321.718 -55.714 323.852C-53.5802 325.985 -50.1206 325.985 -47.9867 323.852L-36.0695 311.934C-33.9357 309.801 -30.4761 309.801 -28.3422 311.934C-26.2084 314.068 -22.7487 314.068 -20.6149 311.934L-11.4747 302.794C-9.34022 300.66 -5.88059 300.66 -3.74674 302.794Z" fill="url(#paint5_linear_3903_16094)"/>
</g>
<defs>
<linearGradient id="paint0_linear_3903_16094" x1="902.665" y1="17.5475" x2="1097.96" y2="17.5475" gradientUnits="userSpaceOnUse">
<stop stop-color="#0032A3"/>
<stop offset="0.25" stop-color="#1A51CB"/>
<stop offset="0.5" stop-color="#3B66C8"/>
<stop offset="0.75" stop-color="#1A51CB"/>
<stop offset="1" stop-color="#0032A3"/>
</linearGradient>
<linearGradient id="paint1_linear_3903_16094" x1="870" y1="-9.83411" x2="1043.34" y2="-9.83411" gradientUnits="userSpaceOnUse">
<stop stop-color="#FFC136"/>
<stop offset="0.197568" stop-color="#FAC142"/>
<stop offset="0.525" stop-color="#FFD168"/>
<stop offset="0.771328" stop-color="#F5BC3A"/>
<stop offset="1" stop-color="#E09B00"/>
</linearGradient>
<linearGradient id="paint2_linear_3903_16094" x1="986.91" y1="96.6615" x2="1001.99" y2="96.6615" gradientUnits="userSpaceOnUse">
<stop stop-color="#FFC136"/>
<stop offset="0.197568" stop-color="#FAC142"/>
<stop offset="0.525" stop-color="#FFD168"/>
<stop offset="0.771328" stop-color="#F5BC3A"/>
<stop offset="1" stop-color="#E09B00"/>
</linearGradient>
<linearGradient id="paint3_linear_3903_16094" x1="872.292" y1="52.3988" x2="887.367" y2="52.3988" gradientUnits="userSpaceOnUse">
<stop stop-color="#FFC136"/>
<stop offset="0.197568" stop-color="#FAC142"/>
<stop offset="0.525" stop-color="#FFD168"/>
<stop offset="0.771328" stop-color="#F5BC3A"/>
<stop offset="1" stop-color="#E09B00"/>
</linearGradient>
<linearGradient id="paint4_linear_3903_16094" x1="-43.7837" y1="304.904" x2="101" y2="304.904" gradientUnits="userSpaceOnUse">
<stop stop-color="#0032A3"/>
<stop offset="0.25" stop-color="#1A51CB"/>
<stop offset="0.5" stop-color="#3B66C8"/>
<stop offset="0.75" stop-color="#1A51CB"/>
<stop offset="1" stop-color="#0032A3"/>
</linearGradient>
<linearGradient id="paint5_linear_3903_16094" x1="-68" y1="284.604" x2="60.5065" y2="284.604" gradientUnits="userSpaceOnUse">
<stop stop-color="#FFC136"/>
<stop offset="0.197568" stop-color="#FAC142"/>
<stop offset="0.525" stop-color="#FFD168"/>
<stop offset="0.771328" stop-color="#F5BC3A"/>
<stop offset="1" stop-color="#E09B00"/>
</linearGradient>
<clipPath id="clip0_3903_16094">
<rect width="1024" height="300" fill="white"/>
</clipPath>
</defs>
</svg>
