<svg width="430" height="344" viewBox="0 0 430 344" fill="none" xmlns="http://www.w3.org/2000/svg">
<g clip-path="url(#clip0_3903_16110)">
<rect width="430" height="344" fill="#002882"/>
<rect width="430" height="344" fill="black" fill-opacity="0.2"/>
<path d="M521.485 -14.7829L521.383 -14.8856C519.045 -17.2231 515.254 -17.2228 512.916 -14.8851L511.912 -13.8801C509.574 -11.5424 505.783 -11.5421 503.445 -13.8796L503.343 -13.9823C501.005 -16.3198 497.214 -16.3195 494.876 -13.9818L485.813 -4.91836C483.447 -2.55225 479.611 -2.55225 477.245 -4.91836C474.878 -7.28448 474.878 -11.1207 477.245 -13.4869L490.64 -26.8822C492.978 -29.2199 492.978 -33.0103 490.64 -35.3478L490.537 -35.4504C488.199 -37.7882 484.409 -37.7879 482.071 -35.4502L452.592 -5.97137C450.226 -3.60525 446.389 -3.60525 444.023 -5.97137C441.657 -8.33748 441.657 -12.1737 444.023 -14.5399L473.502 -44.0187C475.84 -46.3564 475.84 -50.1468 473.502 -52.4845L473.4 -52.5871C471.062 -54.9249 467.271 -54.9246 464.933 -52.5869L397.459 14.8879C395.093 17.254 395.093 21.0902 397.459 23.4564C399.825 25.8225 399.825 29.6587 397.459 32.0248L368.031 61.4523C365.665 63.8185 365.665 67.6547 368.031 70.0208C370.398 72.3869 374.234 72.3869 376.6 70.0208L406.028 40.5931C408.394 38.227 412.23 38.227 414.596 40.5931C416.962 42.9592 416.962 46.7955 414.596 49.1616L401.252 62.5053C398.886 64.8715 398.886 68.7077 401.252 71.0738C403.618 73.4399 407.455 73.4399 409.821 71.0738L418.834 62.061C421.2 59.6949 425.036 59.6949 427.402 62.061C429.768 64.4271 433.605 64.4271 435.971 62.061L436.874 61.1577C439.24 58.7916 443.076 58.7916 445.442 61.1577C447.809 63.5238 451.645 63.5238 454.011 61.1577L521.486 -6.31709C523.823 -8.65483 523.823 -12.4452 521.485 -14.7829Z" fill="url(#paint0_linear_3903_16110)"/>
<path d="M409.667 6.96649C411.98 9.28011 411.98 13.0312 409.667 15.3451L392.006 33.0051C389.693 35.3187 389.693 39.0699 392.006 41.3837C394.32 43.6973 394.32 47.4485 392.006 49.7621L388.301 53.4671C385.988 55.7807 385.988 59.5318 388.301 61.8457C390.615 64.1593 394.366 64.1593 396.68 61.8457L456.233 2.29266C458.547 -0.0209656 458.547 -3.77208 456.233 -6.08594C453.919 -8.39956 453.919 -12.1507 456.233 -14.4643L459.938 -18.1691C462.251 -20.4827 462.251 -24.2338 459.938 -26.5477C457.624 -28.8613 457.624 -32.6124 459.938 -34.926L477.598 -52.5863C479.912 -54.8999 479.912 -58.6511 477.598 -60.9647C475.284 -63.2783 471.533 -63.2783 469.219 -60.9647L459.309 -51.0545C456.996 -48.7408 453.244 -48.7408 450.931 -51.0545C448.617 -53.3681 444.866 -53.3681 442.552 -51.0545L429.631 -38.1335C427.317 -35.8199 423.566 -35.8199 421.252 -38.1335C418.939 -40.4471 418.939 -44.1983 421.252 -46.5121L426.424 -51.6832C428.737 -53.9969 428.737 -57.748 426.424 -60.0618C424.11 -62.3755 424.11 -66.1266 426.424 -68.4404L436.962 -78.979C439.276 -81.2926 439.276 -85.0437 436.962 -87.3576C434.648 -89.6712 430.897 -89.6712 428.584 -87.3576L418.045 -76.819C415.732 -74.5054 411.98 -74.5054 409.667 -76.819C407.353 -79.1327 403.602 -79.1327 401.288 -76.819L341.735 -17.2658C339.422 -14.9521 339.422 -11.201 341.735 -8.8874C344.049 -6.57378 347.8 -6.57378 350.114 -8.8874L360.652 -19.4259C362.966 -21.7395 366.717 -21.7395 369.031 -19.4259C371.344 -17.1123 371.344 -13.3612 369.031 -11.0473L358.492 -0.508799C356.179 1.80482 356.179 5.55594 358.492 7.8698C360.806 10.1834 360.806 13.9345 358.492 16.2482L353.321 21.4193C351.007 23.7329 351.007 27.484 353.321 29.7979C355.635 32.1115 359.386 32.1115 361.699 29.7979L374.621 16.8767C376.934 14.5631 380.685 14.5631 382.999 16.8767C385.313 19.1903 389.064 19.1903 391.377 16.8767L401.288 6.96649C403.602 4.65263 407.353 4.65263 409.667 6.96649Z" fill="url(#paint1_linear_3903_16110)"/>
<path d="M347.902 43.3276C351.248 43.3276 353.96 40.615 353.96 37.2688C353.96 33.9226 351.248 31.21 347.902 31.21C344.555 31.21 341.843 33.9226 341.843 37.2688C341.843 40.615 344.555 43.3276 347.902 43.3276Z" fill="url(#paint2_linear_3903_16110)"/>
<path d="M112.383 320.443L112.288 320.348C110.132 318.192 106.636 318.192 104.48 320.348L103.553 321.275C101.397 323.431 97.9011 323.432 95.7448 321.276L95.6502 321.181C93.4936 319.025 89.9978 319.025 87.8417 321.182L79.4825 329.541C77.3003 331.723 73.7621 331.723 71.5799 329.541C69.3976 327.358 69.3976 323.82 71.5799 321.638L83.9343 309.284C86.0904 307.127 86.0904 303.632 83.9341 301.476L83.8394 301.381C81.6831 299.225 78.1873 299.225 76.0312 301.381L48.8428 328.569C46.6605 330.752 43.1223 330.752 40.9401 328.569C38.7578 326.387 38.7578 322.849 40.9401 320.667L68.1283 293.479C70.2844 291.323 70.2844 287.827 68.1283 285.671L68.0336 285.576C65.8773 283.42 62.3815 283.42 60.2254 285.576L-2.00592 347.808C-4.18818 349.99 -4.18818 353.528 -2.00592 355.711C0.176343 357.893 0.176343 361.431 -2.00592 363.613L-29.147 390.754C-31.3293 392.936 -31.3293 396.475 -29.147 398.657C-26.9647 400.839 -23.4266 400.839 -21.2443 398.657L5.89677 371.516C8.07903 369.333 11.6172 369.333 13.7995 371.516C15.9817 373.698 15.9817 377.236 13.7995 379.418L1.49255 391.725C-0.68971 393.908 -0.68971 397.446 1.49255 399.628C3.67481 401.81 7.21297 401.81 9.39523 399.628L17.7077 391.315C19.89 389.133 23.4281 389.133 25.6104 391.315C27.7926 393.498 31.3308 393.498 33.5131 391.315L34.3462 390.482C36.5285 388.3 40.0666 388.3 42.2489 390.482C44.4311 392.665 47.9693 392.665 50.1516 390.482L112.384 328.251C114.539 326.095 114.539 322.599 112.383 320.443Z" fill="url(#paint3_linear_3903_16110)"/>
<path d="M9.25326 340.502C11.3871 342.636 11.3871 346.096 9.25326 348.23L-7.03475 364.518C-9.16859 366.651 -9.16859 370.111 -7.03475 372.245C-4.90091 374.379 -4.90091 377.839 -7.03475 379.973L-10.4519 383.39C-12.5857 385.523 -12.5857 388.983 -10.4519 391.117C-8.31802 393.251 -4.85815 393.251 -2.72431 391.117L52.2012 336.192C54.3351 334.058 54.3351 330.598 52.2012 328.464C50.0674 326.33 50.0674 322.871 52.2012 320.737L55.6181 317.32C57.752 315.186 57.752 311.726 55.6181 309.592C53.4843 307.458 53.4843 303.999 55.6181 301.865L71.9061 285.577C74.04 283.443 74.04 279.983 71.9061 277.85C69.7723 275.716 66.3126 275.716 64.1786 277.85L55.0384 286.99C52.9046 289.124 49.4449 289.124 47.3109 286.99C45.177 284.856 41.7174 284.856 39.5833 286.99L27.6664 298.907C25.5325 301.041 22.0729 301.041 19.9388 298.907C17.805 296.773 17.805 293.313 19.9388 291.179L24.7081 286.41C26.842 284.276 26.842 280.816 24.7081 278.682C22.5743 276.549 22.5743 273.089 24.7081 270.955L34.4278 261.235C36.5616 259.101 36.5616 255.642 34.4278 253.508C32.2939 251.374 28.8343 251.374 26.7004 253.508L16.9808 263.227C14.847 265.361 11.3873 265.361 9.25326 263.227C7.11941 261.093 3.65977 261.093 1.52593 263.227L-53.3996 318.153C-55.5335 320.287 -55.5335 323.746 -53.3996 325.88C-51.2658 328.014 -47.8061 328.014 -45.6723 325.88L-35.9527 316.161C-33.8188 314.027 -30.3592 314.027 -28.2251 316.161C-26.0913 318.295 -26.0913 321.754 -28.2251 323.888L-37.9447 333.608C-40.0786 335.742 -40.0786 339.201 -37.9447 341.335C-35.8109 343.469 -35.8109 346.929 -37.9447 349.063L-42.714 353.832C-44.8479 355.966 -44.8479 359.426 -42.714 361.56C-40.5802 363.693 -37.1206 363.693 -34.9867 361.56L-23.0695 349.642C-20.9357 347.509 -17.4761 347.509 -15.3422 349.642C-13.2084 351.776 -9.74872 351.776 -7.61488 349.642L1.52528 340.502C3.65978 338.368 7.11941 338.368 9.25326 340.502Z" fill="url(#paint4_linear_3903_16110)"/>
</g>
<defs>
<linearGradient id="paint0_linear_3903_16110" x1="366.257" y1="9.25404" x2="523.239" y2="9.25404" gradientUnits="userSpaceOnUse">
<stop stop-color="#0032A3"/>
<stop offset="0.25" stop-color="#1A51CB"/>
<stop offset="0.5" stop-color="#3B66C8"/>
<stop offset="0.75" stop-color="#1A51CB"/>
<stop offset="1" stop-color="#0032A3"/>
</linearGradient>
<linearGradient id="paint1_linear_3903_16110" x1="340" y1="-12.7559" x2="479.333" y2="-12.7559" gradientUnits="userSpaceOnUse">
<stop stop-color="#FFC136"/>
<stop offset="0.197568" stop-color="#FAC142"/>
<stop offset="0.525" stop-color="#FFD168"/>
<stop offset="0.771328" stop-color="#F5BC3A"/>
<stop offset="1" stop-color="#E09B00"/>
</linearGradient>
<linearGradient id="paint2_linear_3903_16110" x1="341.843" y1="37.2688" x2="353.96" y2="37.2688" gradientUnits="userSpaceOnUse">
<stop stop-color="#FFC136"/>
<stop offset="0.197568" stop-color="#FAC142"/>
<stop offset="0.525" stop-color="#FFD168"/>
<stop offset="0.771328" stop-color="#F5BC3A"/>
<stop offset="1" stop-color="#E09B00"/>
</linearGradient>
<linearGradient id="paint3_linear_3903_16110" x1="-30.7837" y1="342.612" x2="114" y2="342.612" gradientUnits="userSpaceOnUse">
<stop stop-color="#0032A3"/>
<stop offset="0.25" stop-color="#1A51CB"/>
<stop offset="0.5" stop-color="#3B66C8"/>
<stop offset="0.75" stop-color="#1A51CB"/>
<stop offset="1" stop-color="#0032A3"/>
</linearGradient>
<linearGradient id="paint4_linear_3903_16110" x1="-55" y1="322.312" x2="73.5065" y2="322.312" gradientUnits="userSpaceOnUse">
<stop stop-color="#FFC136"/>
<stop offset="0.197568" stop-color="#FAC142"/>
<stop offset="0.525" stop-color="#FFD168"/>
<stop offset="0.771328" stop-color="#F5BC3A"/>
<stop offset="1" stop-color="#E09B00"/>
</linearGradient>
<clipPath id="clip0_3903_16110">
<rect width="430" height="344" fill="white"/>
</clipPath>
</defs>
</svg>
