<svg width="80" height="80" viewBox="0 0 80 80" fill="none" xmlns="http://www.w3.org/2000/svg">
<path fill-rule="evenodd" clip-rule="evenodd" d="M65.247 47.7503C66.7645 48.798 68.6047 49.4116 70.5882 49.4116C75.7862 49.4116 80 45.1979 80 39.9999C80 34.8019 75.7862 30.5881 70.5882 30.5881C68.6049 30.5881 66.7648 31.2016 65.2475 32.2492C58.9288 35.7064 45.8824 38.9018 45.8824 38.9018L45.8824 41.0979C45.8824 41.0979 58.9282 44.2932 65.247 47.7503Z" fill="#EB5A35"/>
<path fill-rule="evenodd" clip-rule="evenodd" d="M52.378 63.333C52.7101 65.1467 53.5775 66.8818 54.98 68.2843C58.6555 71.9598 64.6147 71.9598 68.2902 68.2843C71.9657 64.6087 71.9657 58.6496 68.2902 54.974C66.8877 53.5716 65.1528 52.7043 63.3391 52.3721C56.4265 50.3487 44.9418 43.383 44.9418 43.383L43.389 44.9359C43.389 44.9359 50.3545 56.4203 52.378 63.333Z" fill="#EB5A35"/>
<path fill-rule="evenodd" clip-rule="evenodd" d="M32.2515 65.2476C31.204 66.7649 30.5906 68.605 30.5906 70.5882C30.5906 75.7862 34.8043 80 40.0023 80C45.2003 80 49.4141 75.7862 49.4141 70.5882C49.4141 68.6047 48.8004 66.7644 47.7526 65.2469C44.2956 58.9281 41.1003 45.8824 41.1003 45.8824L38.9042 45.8824C38.9042 45.8824 35.7088 58.929 32.2515 65.2476Z" fill="#EB5A35"/>
<path fill-rule="evenodd" clip-rule="evenodd" d="M16.6714 52.3721C14.8576 52.7042 13.1225 53.5715 11.7199 54.9741C8.04437 58.6496 8.04437 64.6088 11.7199 68.2843C15.3954 71.9599 21.3546 71.9599 25.0301 68.2843C26.4326 66.8819 27.2999 65.1469 27.6321 63.3332C29.6555 56.4206 36.6211 44.936 36.6211 44.936L35.0682 43.3831C35.0682 43.3831 23.5841 50.3485 16.6714 52.3721Z" fill="#EB5A35"/>
<path fill-rule="evenodd" clip-rule="evenodd" d="M14.753 32.2497C13.2355 31.202 11.3953 30.5884 9.41175 30.5884C4.21379 30.5884 1.18579e-06 34.8021 7.63901e-07 40.0001C3.4201e-07 45.1981 4.21378 49.4119 9.41175 49.4119C11.3951 49.4119 13.2352 48.7984 14.7525 47.7508C21.0712 44.2936 34.1176 41.0982 34.1176 41.0982L34.1176 38.9021C34.1176 38.9021 21.0718 35.7068 14.753 32.2497Z" fill="#EB5A35"/>
<path fill-rule="evenodd" clip-rule="evenodd" d="M27.6306 16.6713C27.299 14.8561 26.4314 13.1195 25.0278 11.716C21.3523 8.04047 15.3931 8.04046 11.7176 11.716C8.0421 15.3915 8.0421 21.3507 11.7176 25.0262C13.1198 26.4284 14.8543 27.2956 16.6676 27.628C23.5801 29.6511 35.0655 36.6172 35.0655 36.6172L36.6184 35.0644C36.6184 35.0644 29.6556 23.5844 27.6306 16.6713Z" fill="#EB5A35"/>
<path fill-rule="evenodd" clip-rule="evenodd" d="M47.7561 14.7527C48.8037 13.2353 49.4172 11.3952 49.4172 9.41175C49.4172 4.21379 45.2035 1.27722e-06 40.0055 8.22801e-07C34.8075 3.68381e-07 30.5937 4.21378 30.5937 9.41175C30.5937 11.3952 31.2073 13.2354 32.255 14.7528C35.7121 21.0716 38.9075 34.1176 38.9075 34.1176L41.1036 34.1176C41.1036 34.1176 44.2989 21.0714 47.7561 14.7527Z" fill="#EB5A35"/>
<path fill-rule="evenodd" clip-rule="evenodd" d="M63.3286 27.6279C65.1424 27.2958 66.8775 26.4285 68.2801 25.0259C71.9556 21.3504 71.9556 15.3912 68.2801 11.7157C64.6046 8.04014 58.6454 8.04014 54.9699 11.7157C53.5674 13.1181 52.7001 14.8531 52.3679 16.6668C50.3445 23.5794 43.3789 35.064 43.3789 35.064L44.9318 36.6169C44.9318 36.6169 56.4159 29.6515 63.3286 27.6279Z" fill="#EB5A35"/>
<path d="M39.2542 32.5447C39.3303 31.6271 40.6733 31.6271 40.7494 32.5447V32.5447C40.8117 33.296 41.819 33.4964 42.1641 32.8261V32.8261C42.5855 32.0075 43.8263 32.5215 43.5455 33.3983V33.3983C43.3155 34.1163 44.1694 34.6868 44.7447 34.1996V34.1996C45.4474 33.6046 46.3971 34.5543 45.802 35.2569V35.2569C45.3148 35.8322 45.8854 36.6861 46.6034 36.4562V36.4562C47.4802 36.1753 47.9942 37.4162 47.1756 37.8376V37.8376C46.5053 38.1827 46.7056 39.1899 47.4569 39.2522V39.2522C48.3745 39.3283 48.3745 40.6714 47.4569 40.7475V40.7475C46.7056 40.8098 46.5053 41.817 47.1756 42.1621V42.1621C47.9942 42.5835 47.4802 43.8244 46.6034 43.5435V43.5435C45.8854 43.3136 45.3148 44.1675 45.802 44.7428V44.7428C46.3971 45.4454 45.4474 46.3951 44.7447 45.8001V45.8001C44.1694 45.3129 43.3155 45.8835 43.5455 46.6014V46.6014C43.8263 47.4783 42.5855 47.9922 42.1641 47.1736V47.1736C41.819 46.5033 40.8117 46.7037 40.7494 47.455V47.455C40.6733 48.3726 39.3303 48.3726 39.2542 47.455V47.455C39.1919 46.7037 38.1846 46.5033 37.8396 47.1736V47.1736C37.4181 47.9922 36.1773 47.4783 36.4581 46.6014V46.6014C36.6881 45.8835 35.8342 45.3129 35.2589 45.8001V45.8001C34.5563 46.3951 33.6066 45.4454 34.2016 44.7428V44.7428C34.6888 44.1675 34.1182 43.3136 33.4003 43.5435V43.5435C32.5234 43.8244 32.0094 42.5835 32.8281 42.1621V42.1621C33.4983 41.817 33.298 40.8098 32.5467 40.7475V40.7475C31.6291 40.6714 31.6291 39.3283 32.5467 39.2522V39.2522C33.298 39.1899 33.4983 38.1827 32.8281 37.8376V37.8376C32.0094 37.4162 32.5234 36.1753 33.4003 36.4562V36.4562C34.1182 36.6861 34.6888 35.8322 34.2016 35.2569V35.2569C33.6066 34.5543 34.5563 33.6046 35.2589 34.1996V34.1996C35.8342 34.6868 36.6881 34.1163 36.4581 33.3983V33.3983C36.1773 32.5215 37.4181 32.0075 37.8396 32.8261V32.8261C38.1846 33.4964 39.1919 33.296 39.2542 32.5447V32.5447Z" fill="#F4B442"/>
<path d="M48.7344 31.2651L39.9995 40" stroke="#DC8433" stroke-width="0.588234"/>
<circle cx="48.7344" cy="31.265" r="1.7647" transform="rotate(45 48.7344 31.265)" fill="#F4B442"/>
<path d="M51.4141 35.2727L40.0014 40" stroke="#DC8433" stroke-width="0.588234"/>
<circle cx="51.4121" cy="35.2725" r="1.7647" transform="rotate(67.5 51.4121 35.2725)" fill="#F4B442"/>
<path d="M52.3516 39.9998L39.9986 39.9998" stroke="#DC8433" stroke-width="0.588234"/>
<circle cx="52.3525" cy="39.9998" r="1.7647" transform="rotate(90 52.3525 39.9998)" fill="#F4B442"/>
<path d="M51.4141 44.7271L40.0014 39.9998" stroke="#DC8433" stroke-width="0.588234"/>
<circle cx="51.4131" cy="44.727" r="1.7647" transform="rotate(112.5 51.4131 44.727)" fill="#F4B442"/>
<path d="M48.7344 48.7346L39.9995 39.9998" stroke="#DC8433" stroke-width="0.588234"/>
<circle cx="48.7387" cy="48.7346" r="1.7647" transform="rotate(135 48.7387 48.7346)" fill="#F4B442"/>
<path d="M44.7266 51.4124L39.9993 39.9997" stroke="#DC8433" stroke-width="0.588234"/>
<circle cx="44.7256" cy="51.4124" r="1.7647" transform="rotate(157.5 44.7256 51.4124)" fill="#F4B442"/>
<path d="M40 52.3528L40 39.9999" stroke="#DC8433" stroke-width="0.588234"/>
<circle cx="40.0009" cy="52.3527" r="1.7647" transform="rotate(180 40.0009 52.3527)" fill="#F4B442"/>
<path d="M35.2734 51.4124L40.0007 39.9997" stroke="#DC8433" stroke-width="0.588234"/>
<circle cx="35.2715" cy="51.4123" r="1.7647" transform="rotate(-157.5 35.2715 51.4123)" fill="#F4B442"/>
<path d="M31.2656 48.7344L40.0005 39.9995" stroke="#DC8433" stroke-width="0.588234"/>
<circle cx="31.2656" cy="48.7346" r="1.7647" transform="rotate(-135 31.2656 48.7346)" fill="#F4B442"/>
<path d="M28.5938 44.7271L40.0064 39.9998" stroke="#DC8433" stroke-width="0.588234"/>
<circle cx="28.5879" cy="44.727" r="1.7647" transform="rotate(-112.5 28.5879 44.727)" fill="#F4B442"/>
<path d="M27.6484 39.9995L40.0014 39.9995" stroke="#DC8433" stroke-width="0.588234"/>
<circle cx="27.6475" cy="39.9997" r="1.7647" transform="rotate(-90 27.6475 39.9997)" fill="#F4B442"/>
<path d="M28.5859 35.2725L39.9986 39.9997" stroke="#DC8433" stroke-width="0.588234"/>
<circle cx="28.5869" cy="35.2725" r="1.7647" transform="rotate(-67.5 28.5869 35.2725)" fill="#F4B442"/>
<path d="M31.2656 31.2649L40.0005 39.9997" stroke="#DC8433" stroke-width="0.588234"/>
<circle cx="31.2691" cy="31.2649" r="1.7647" transform="rotate(-45 31.2691 31.2649)" fill="#F4B442"/>
<path d="M35.2734 28.5869L40.0007 39.9995" stroke="#DC8433" stroke-width="0.588234"/>
<circle cx="35.2744" cy="28.5871" r="1.7647" transform="rotate(-22.5 35.2744 28.5871)" fill="#F4B442"/>
<path d="M40 27.6467V39.9997" stroke="#DC8433" stroke-width="0.588234"/>
<circle cx="39.9991" cy="27.6468" r="1.7647" fill="#F4B442"/>
<path d="M44.7344 28.5872L40.0071 39.9998" stroke="#DC8433" stroke-width="0.588234"/>
<circle cx="44.7285" cy="28.5872" r="1.7647" transform="rotate(22.5 44.7285 28.5872)" fill="#F4B442"/>
</svg>
