<svg width="56" height="56" viewBox="0 0 56 56" fill="none" xmlns="http://www.w3.org/2000/svg">
<rect width="56" height="56" rx="28" fill="url(#paint0_linear_5506_16182)"/>
<path d="M23.8933 22.5252L24.7697 25.6219C25.5951 28.5391 26.0069 29.9985 27.2203 30.6617C28.4336 31.3266 29.9737 30.9343 33.054 30.1531L36.3214 29.322C39.4016 28.5407 40.9417 28.1501 41.6429 27.0015C42.344 25.8513 41.9322 24.3919 41.1051 21.4747L40.2304 18.3797C39.405 15.4609 38.9915 14.0015 37.7798 13.3382C36.5647 12.6734 35.0246 13.0656 31.9444 13.8485L28.677 14.6763C25.5968 15.4575 24.0566 15.8498 23.3572 17.0001C22.6561 18.1486 23.0679 19.6081 23.8933 22.5252Z" fill="#E6EAF3"/>
<path d="M12.0456 16.9101C12.0897 16.7528 12.1648 16.6057 12.2665 16.4771C12.3682 16.3485 12.4946 16.2409 12.6384 16.1607C12.7822 16.0804 12.9406 16.0289 13.1045 16.0091C13.2685 15.9894 13.4348 16.0018 13.5938 16.0456L16.4475 16.8273C17.2035 17.0308 17.8935 17.4242 18.4502 17.9692C19.0069 18.5142 19.4114 19.1924 19.6245 19.9377L23.2288 32.8332L23.4935 33.7392C24.5622 34.1285 25.4627 34.8695 26.0439 35.8376L26.5633 35.6786L41.4262 31.861C41.586 31.8199 41.7524 31.8103 41.9159 31.8327C42.0794 31.8552 42.2368 31.9092 42.3792 31.9918C42.5216 32.0744 42.6461 32.1839 42.7457 32.3141C42.8452 32.4442 42.9179 32.5925 42.9595 32.7504C43.001 32.9083 43.0108 33.0728 42.988 33.2344C42.9653 33.396 42.9106 33.5516 42.8271 33.6923C42.7435 33.833 42.6328 33.9561 42.5011 34.0545C42.3694 34.1529 42.2194 34.2247 42.0596 34.2659L27.252 38.0686L26.699 38.2375C26.689 40.3409 25.2194 42.2655 22.9959 42.8352C20.3316 43.5209 17.5919 42.0038 16.8781 39.4499C16.1643 36.896 17.7461 34.2675 20.4104 33.5835C20.5433 33.5504 20.6757 33.5217 20.8075 33.4974L17.2015 20.5986C17.104 20.2674 16.9217 19.9667 16.6721 19.7256C16.4226 19.4845 16.1144 19.3111 15.7772 19.2222L12.9219 18.4388C12.7628 18.3954 12.6139 18.3213 12.4838 18.221C12.3536 18.1206 12.2447 17.9959 12.1633 17.8539C12.0819 17.712 12.0297 17.5556 12.0095 17.3936C11.9892 17.2317 12.0015 17.0674 12.0456 16.9101Z" fill="#E6EAF3"/>
<defs>
<linearGradient id="paint0_linear_5506_16182" x1="0" y1="28" x2="56" y2="28" gradientUnits="userSpaceOnUse">
<stop stop-color="#0032A3"/>
<stop offset="0.25" stop-color="#1A51CB"/>
<stop offset="0.5" stop-color="#3B66C8"/>
<stop offset="0.75" stop-color="#1A51CB"/>
<stop offset="1" stop-color="#0032A3"/>
</linearGradient>
</defs>
</svg>
