<svg width="36" height="36" viewBox="0 0 36 36" fill="none" xmlns="http://www.w3.org/2000/svg">
<g id="iconamoon:delivery-free-fill">
<path id="Vector" fill-rule="evenodd" clip-rule="evenodd" d="M3.75 6C3.75 5.20435 4.06607 4.44129 4.62868 3.87868C5.19129 3.31607 5.95435 3 6.75 3C7.60122 2.99995 8.44272 3.18103 9.21858 3.5312C9.99444 3.88138 10.6869 4.39263 11.25 5.031C11.8131 4.39263 12.5056 3.88138 13.2814 3.5312C14.0573 3.18103 14.8988 2.99995 15.75 3C16.5456 3 17.3087 3.31607 17.8713 3.87868C18.4339 4.44129 18.75 5.20435 18.75 6C18.75 7.0935 18.4575 8.118 17.9475 9H19.5C19.8978 9 20.2794 9.15804 20.5607 9.43934C20.842 9.72064 21 10.1022 21 10.5V12H27C27.9849 12 28.9602 12.194 29.8701 12.5709C30.7801 12.9478 31.6069 13.5003 32.3033 14.1967C32.9997 14.8931 33.5522 15.7199 33.9291 16.6299C34.306 17.5398 34.5 18.5151 34.5 19.5V25.5C34.5004 26.4657 34.1901 27.4059 33.615 28.1817C33.04 28.9574 32.2306 29.5276 31.3065 29.808C31.0314 30.7155 30.4766 31.5129 29.7214 32.0864C28.9662 32.6599 28.0491 32.9801 27.1011 33.0014C26.153 33.0227 25.2225 32.7439 24.4423 32.2049C23.6621 31.6659 23.0721 30.8942 22.7565 30H13.245C12.9294 30.8942 12.3394 31.6659 11.5592 32.2049C10.779 32.7439 9.84849 33.0227 8.90044 33.0014C7.9524 32.9801 7.03531 32.6599 6.28009 32.0864C5.52486 31.5129 4.97011 30.7155 4.695 29.808C3.77063 29.5279 2.96092 28.9578 2.38555 28.182C1.81019 27.4062 1.4997 26.4659 1.5 25.5V10.5C1.5 10.1022 1.65804 9.72064 1.93934 9.43934C2.22064 9.15804 2.60218 9 3 9H4.5525C4.02636 8.08775 3.74959 7.0531 3.75 6ZM6.75 6C7.54565 6 8.30871 6.31607 8.87132 6.87868C9.43393 7.44129 9.75 8.20435 9.75 9C8.95435 9 8.19129 8.68393 7.62868 8.12132C7.06607 7.55871 6.75 6.79565 6.75 6ZM12.75 9C13.5456 9 14.3087 8.68393 14.8713 8.12132C15.4339 7.55871 15.75 6.79565 15.75 6C14.9544 6 14.1913 6.31607 13.6287 6.87868C13.0661 7.44129 12.75 8.20435 12.75 9ZM22.7565 27H21V15H27C28.1935 15 29.3381 15.4741 30.182 16.318C31.0259 17.1619 31.5 18.3065 31.5 19.5V25.5C31.4999 25.8978 31.3418 26.2793 31.0605 26.5605C30.677 25.7572 30.0639 25.0856 29.2987 24.6308C28.5335 24.176 27.6506 23.9583 26.7616 24.0054C25.8727 24.0524 25.0177 24.362 24.3048 24.8951C23.5919 25.4281 23.053 26.1607 22.7565 27ZM7.9395 27.4395C8.07787 27.2962 8.24339 27.182 8.42639 27.1033C8.6094 27.0247 8.80623 26.9834 9.0054 26.9816C9.20457 26.9799 9.40209 27.0178 9.58643 27.0933C9.77078 27.1687 9.93825 27.2801 10.0791 27.4209C10.2199 27.5617 10.3313 27.7292 10.4067 27.9136C10.4822 28.0979 10.5201 28.2954 10.5184 28.4946C10.5166 28.6938 10.4753 28.8906 10.3967 29.0736C10.318 29.2566 10.2038 29.4221 10.0605 29.5605C9.7776 29.8337 9.39869 29.9849 9.0054 29.9815C8.6121 29.9781 8.23588 29.8203 7.95777 29.5422C7.67966 29.2641 7.52191 28.8879 7.51849 28.4946C7.51507 28.1013 7.66626 27.7224 7.9395 27.4395ZM25.5 28.5C25.5 28.1022 25.658 27.7206 25.9393 27.4393C26.2206 27.158 26.6022 27 27 27C27.3978 27 27.7794 27.158 28.0607 27.4393C28.342 27.7206 28.5 28.1022 28.5 28.5C28.5 28.8978 28.342 29.2794 28.0607 29.5607C27.7794 29.842 27.3978 30 27 30C26.6022 30 26.2206 29.842 25.9393 29.5607C25.658 29.2794 25.5 28.8978 25.5 28.5Z" fill="#E6EAF3"/>
</g>
</svg>
