<svg width="101" height="100" viewBox="0 0 101 100" fill="none" xmlns="http://www.w3.org/2000/svg">
<path d="M85.0391 34.375H63.1641V12.5C63.1641 10.0136 62.1763 7.62903 60.4182 5.87087C58.66 4.11272 56.2755 3.125 53.7891 3.125H16.2891C13.8027 3.125 11.4181 4.11272 9.65994 5.87087C7.90178 7.62903 6.91406 10.0136 6.91406 12.5V93.75C6.91406 94.5788 7.2433 95.3737 7.82935 95.9597C8.4154 96.5458 9.21026 96.875 10.0391 96.875H30.3516C30.766 96.875 31.1634 96.7104 31.4564 96.4174C31.7494 96.1243 31.9141 95.7269 31.9141 95.3125V81.3379C31.9141 79.6562 33.207 78.2129 34.8887 78.1289C35.3112 78.1085 35.7335 78.1742 36.1299 78.3219C36.5263 78.4695 36.8886 78.6961 37.1948 78.9879C37.5011 79.2798 37.7449 79.6307 37.9115 80.0195C38.0781 80.4084 38.164 80.827 38.1641 81.25V95.3125C38.1641 95.7269 38.3287 96.1243 38.6217 96.4174C38.9147 96.7104 39.3122 96.875 39.7266 96.875H91.2891C92.1179 96.875 92.9127 96.5458 93.4988 95.9597C94.0848 95.3737 94.4141 94.5788 94.4141 93.75V43.75C94.4141 41.2636 93.4263 38.879 91.6682 37.1209C89.91 35.3627 87.5255 34.375 85.0391 34.375ZM19.8203 84.3496C19.1731 84.4343 18.5156 84.3141 17.9402 84.0061C17.3647 83.698 16.9002 83.2175 16.6117 82.632C16.3233 82.0464 16.2254 81.3853 16.3319 80.7413C16.4384 80.0973 16.7438 79.5028 17.2054 79.0413C17.6669 78.5798 18.2614 78.2743 18.9054 78.1678C19.5493 78.0614 20.2105 78.1592 20.796 78.4477C21.3815 78.7361 21.8621 79.2007 22.1701 79.7761C22.4782 80.3516 22.5983 81.009 22.5137 81.6562C22.4243 82.3393 22.1118 82.9736 21.6248 83.4607C21.1377 83.9478 20.5033 84.2603 19.8203 84.3496ZM19.8203 68.7246C19.1731 68.8093 18.5156 68.6891 17.9402 68.3811C17.3647 68.073 16.9002 67.5925 16.6117 67.007C16.3233 66.4214 16.2254 65.7603 16.3319 65.1163C16.4384 64.4723 16.7438 63.8778 17.2054 63.4163C17.6669 62.9547 18.2614 62.6493 18.9054 62.5428C19.5493 62.4364 20.2105 62.5342 20.796 62.8227C21.3815 63.1111 21.8621 63.5757 22.1701 64.1511C22.4782 64.7266 22.5983 65.384 22.5137 66.0312C22.4243 66.7143 22.1118 67.3486 21.6248 67.8357C21.1377 68.3228 20.5033 68.6353 19.8203 68.7246ZM19.8203 53.0996C19.1731 53.1843 18.5156 53.0641 17.9402 52.7561C17.3647 52.448 16.9002 51.9675 16.6117 51.382C16.3233 50.7964 16.2254 50.1353 16.3319 49.4913C16.4384 48.8473 16.7438 48.2528 17.2054 47.7913C17.6669 47.3297 18.2614 47.0243 18.9054 46.9178C19.5493 46.8114 20.2105 46.9092 20.796 47.1977C21.3815 47.4861 21.8621 47.9507 22.1701 48.5261C22.4782 49.1016 22.5983 49.759 22.5137 50.4062C22.4243 51.0893 22.1118 51.7236 21.6248 52.2107C21.1377 52.6978 20.5033 53.0103 19.8203 53.0996ZM19.8203 37.4746C19.1731 37.5593 18.5156 37.4391 17.9402 37.1311C17.3647 36.823 16.9002 36.3425 16.6117 35.757C16.3233 35.1714 16.2254 34.5103 16.3319 33.8663C16.4384 33.2223 16.7438 32.6278 17.2054 32.1663C17.6669 31.7047 18.2614 31.3993 18.9054 31.2928C19.5493 31.1864 20.2105 31.2842 20.796 31.5727C21.3815 31.8611 21.8621 32.3257 22.1701 32.9011C22.4782 33.4766 22.5983 34.134 22.5137 34.7812C22.4243 35.4643 22.1118 36.0986 21.6248 36.5857C21.1377 37.0728 20.5033 37.3853 19.8203 37.4746ZM19.8203 21.8496C19.1731 21.9343 18.5156 21.8141 17.9402 21.5061C17.3647 21.198 16.9002 20.7175 16.6117 20.132C16.3233 19.5464 16.2254 18.8853 16.3319 18.2413C16.4384 17.5973 16.7438 17.0028 17.2054 16.5413C17.6669 16.0797 18.2614 15.7743 18.9054 15.6678C19.5493 15.5614 20.2105 15.6592 20.796 15.9477C21.3815 16.2361 21.8621 16.7007 22.1701 17.2761C22.4782 17.8516 22.5983 18.509 22.5137 19.1562C22.4243 19.8393 22.1118 20.4736 21.6248 20.9607C21.1377 21.4478 20.5033 21.7603 19.8203 21.8496ZM35.4453 68.7246C34.7981 68.8093 34.1406 68.6891 33.5652 68.3811C32.9897 68.073 32.5252 67.5925 32.2367 67.007C31.9483 66.4214 31.8504 65.7603 31.9569 65.1163C32.0634 64.4723 32.3688 63.8778 32.8304 63.4163C33.2919 62.9547 33.8864 62.6493 34.5304 62.5428C35.1743 62.4364 35.8355 62.5342 36.421 62.8227C37.0065 63.1111 37.4871 63.5757 37.7951 64.1511C38.1032 64.7266 38.2233 65.384 38.1387 66.0312C38.0493 66.7143 37.7368 67.3486 37.2498 67.8357C36.7627 68.3228 36.1283 68.6353 35.4453 68.7246ZM35.4453 53.0996C34.7981 53.1843 34.1406 53.0641 33.5652 52.7561C32.9897 52.448 32.5252 51.9675 32.2367 51.382C31.9483 50.7964 31.8504 50.1353 31.9569 49.4913C32.0634 48.8473 32.3688 48.2528 32.8304 47.7913C33.2919 47.3297 33.8864 47.0243 34.5304 46.9178C35.1743 46.8114 35.8355 46.9092 36.421 47.1977C37.0065 47.4861 37.4871 47.9507 37.7951 48.5261C38.1032 49.1016 38.2233 49.759 38.1387 50.4062C38.0493 51.0893 37.7368 51.7236 37.2498 52.2107C36.7627 52.6978 36.1283 53.0103 35.4453 53.0996ZM35.4453 37.4746C34.7981 37.5593 34.1406 37.4391 33.5652 37.1311C32.9897 36.823 32.5252 36.3425 32.2367 35.757C31.9483 35.1714 31.8504 34.5103 31.9569 33.8663C32.0634 33.2223 32.3688 32.6278 32.8304 32.1663C33.2919 31.7047 33.8864 31.3993 34.5304 31.2928C35.1743 31.1864 35.8355 31.2842 36.421 31.5727C37.0065 31.8611 37.4871 32.3257 37.7951 32.9011C38.1032 33.4766 38.2233 34.134 38.1387 34.7812C38.0493 35.4643 37.7368 36.0986 37.2498 36.5857C36.7627 37.0728 36.1283 37.3853 35.4453 37.4746ZM35.4453 21.8496C34.7981 21.9343 34.1406 21.8141 33.5652 21.5061C32.9897 21.198 32.5252 20.7175 32.2367 20.132C31.9483 19.5464 31.8504 18.8853 31.9569 18.2413C32.0634 17.5973 32.3688 17.0028 32.8304 16.5413C33.2919 16.0797 33.8864 15.7743 34.5304 15.6678C35.1743 15.5614 35.8355 15.6592 36.421 15.9477C37.0065 16.2361 37.4871 16.7007 37.7951 17.2761C38.1032 17.8516 38.2233 18.509 38.1387 19.1562C38.0493 19.8393 37.7368 20.4736 37.2498 20.9607C36.7627 21.4478 36.1283 21.7603 35.4453 21.8496ZM51.0703 84.3496C50.4231 84.4343 49.7656 84.3141 49.1902 84.0061C48.6147 83.698 48.1502 83.2175 47.8617 82.632C47.5733 82.0464 47.4754 81.3853 47.5819 80.7413C47.6884 80.0973 47.9938 79.5028 48.4554 79.0413C48.9169 78.5798 49.5114 78.2743 50.1554 78.1678C50.7993 78.0614 51.4605 78.1592 52.046 78.4477C52.6315 78.7361 53.1121 79.2007 53.4201 79.7761C53.7282 80.3516 53.8483 81.009 53.7637 81.6562C53.6743 82.3393 53.3618 82.9736 52.8748 83.4607C52.3877 83.9478 51.7533 84.2603 51.0703 84.3496ZM51.0703 68.7246C50.4231 68.8093 49.7656 68.6891 49.1902 68.3811C48.6147 68.073 48.1502 67.5925 47.8617 67.007C47.5733 66.4214 47.4754 65.7603 47.5819 65.1163C47.6884 64.4723 47.9938 63.8778 48.4554 63.4163C48.9169 62.9547 49.5114 62.6493 50.1554 62.5428C50.7993 62.4364 51.4605 62.5342 52.046 62.8227C52.6315 63.1111 53.1121 63.5757 53.4201 64.1511C53.7282 64.7266 53.8483 65.384 53.7637 66.0312C53.6743 66.7143 53.3618 67.3486 52.8748 67.8357C52.3877 68.3228 51.7533 68.6353 51.0703 68.7246ZM51.0703 53.0996C50.4231 53.1843 49.7656 53.0641 49.1902 52.7561C48.6147 52.448 48.1502 51.9675 47.8617 51.382C47.5733 50.7964 47.4754 50.1353 47.5819 49.4913C47.6884 48.8473 47.9938 48.2528 48.4554 47.7913C48.9169 47.3297 49.5114 47.0243 50.1554 46.9178C50.7993 46.8114 51.4605 46.9092 52.046 47.1977C52.6315 47.4861 53.1121 47.9507 53.4201 48.5261C53.7282 49.1016 53.8483 49.759 53.7637 50.4062C53.6743 51.0893 53.3618 51.7236 52.8748 52.2107C52.3877 52.6978 51.7533 53.0103 51.0703 53.0996ZM51.0703 37.4746C50.4231 37.5593 49.7656 37.4391 49.1902 37.1311C48.6147 36.823 48.1502 36.3425 47.8617 35.757C47.5733 35.1714 47.4754 34.5103 47.5819 33.8663C47.6884 33.2223 47.9938 32.6278 48.4554 32.1663C48.9169 31.7047 49.5114 31.3993 50.1554 31.2928C50.7993 31.1864 51.4605 31.2842 52.046 31.5727C52.6315 31.8611 53.1121 32.3257 53.4201 32.9011C53.7282 33.4766 53.8483 34.134 53.7637 34.7812C53.6743 35.4643 53.3618 36.0986 52.8748 36.5857C52.3877 37.0728 51.7533 37.3853 51.0703 37.4746ZM51.0703 21.8496C50.4231 21.9343 49.7656 21.8141 49.1902 21.5061C48.6147 21.198 48.1502 20.7175 47.8617 20.132C47.5733 19.5464 47.4754 18.8853 47.5819 18.2413C47.6884 17.5973 47.9938 17.0028 48.4554 16.5413C48.9169 16.0797 49.5114 15.7743 50.1554 15.6678C50.7993 15.5614 51.4605 15.6592 52.046 15.9477C52.6315 16.2361 53.1121 16.7007 53.4201 17.2761C53.7282 17.8516 53.8483 18.509 53.7637 19.1562C53.6743 19.8393 53.3618 20.4736 52.8748 20.9607C52.3877 21.4478 51.7533 21.7603 51.0703 21.8496ZM87.3828 90.625H63.1641V40.625H85.0391C85.8679 40.625 86.6627 40.9542 87.2488 41.5403C87.8348 42.1263 88.1641 42.9212 88.1641 43.75V89.8438C88.1641 90.0509 88.0818 90.2497 87.9352 90.3962C87.7887 90.5427 87.59 90.625 87.3828 90.625Z" fill="url(#paint0_linear_5482_15880)"/>
<path d="M80.2891 78.125C79.671 78.125 79.0668 78.3083 78.5529 78.6517C78.039 78.995 77.6385 79.4831 77.4019 80.0541C77.1654 80.6251 77.1035 81.2535 77.2241 81.8597C77.3447 82.4659 77.6423 83.0227 78.0794 83.4597C78.5164 83.8968 79.0732 84.1944 79.6794 84.315C80.2856 84.4355 80.9139 84.3736 81.4849 84.1371C82.056 83.9006 82.544 83.5001 82.8874 82.9862C83.2308 82.4723 83.4141 81.8681 83.4141 81.25C83.4141 80.4212 83.0848 79.6263 82.4988 79.0403C81.9127 78.4542 81.1179 78.125 80.2891 78.125ZM80.2891 62.5C79.671 62.5 79.0668 62.6833 78.5529 63.0267C78.039 63.37 77.6385 63.8581 77.4019 64.4291C77.1654 65.0001 77.1035 65.6285 77.2241 66.2347C77.3447 66.8409 77.6423 67.3977 78.0794 67.8347C78.5164 68.2717 79.0732 68.5694 79.6794 68.69C80.2856 68.8105 80.9139 68.7486 81.4849 68.5121C82.056 68.2756 82.544 67.8751 82.8874 67.3612C83.2308 66.8473 83.4141 66.2431 83.4141 65.625C83.4141 64.7962 83.0848 64.0013 82.4988 63.4153C81.9127 62.8292 81.1179 62.5 80.2891 62.5ZM80.2891 46.875C79.671 46.875 79.0668 47.0583 78.5529 47.4017C78.039 47.745 77.6385 48.2331 77.4019 48.8041C77.1654 49.3751 77.1035 50.0035 77.2241 50.6097C77.3447 51.2159 77.6423 51.7727 78.0794 52.2097C78.5164 52.6467 79.0732 52.9444 79.6794 53.065C80.2856 53.1855 80.9139 53.1236 81.4849 52.8871C82.056 52.6506 82.544 52.2501 82.8874 51.7362C83.2308 51.2223 83.4141 50.6181 83.4141 50C83.4141 49.1712 83.0848 48.3763 82.4988 47.7903C81.9127 47.2042 81.1179 46.875 80.2891 46.875ZM67.7891 78.125C67.171 78.125 66.5668 78.3083 66.0529 78.6517C65.539 78.995 65.1385 79.4831 64.9019 80.0541C64.6654 80.6251 64.6035 81.2535 64.7241 81.8597C64.8447 82.4659 65.1423 83.0227 65.5794 83.4597C66.0164 83.8968 66.5732 84.1944 67.1794 84.315C67.7856 84.4355 68.4139 84.3736 68.9849 84.1371C69.556 83.9006 70.044 83.5001 70.3874 82.9862C70.7308 82.4723 70.9141 81.8681 70.9141 81.25C70.9141 80.4212 70.5848 79.6263 69.9988 79.0403C69.4127 78.4542 68.6179 78.125 67.7891 78.125ZM67.7891 62.5C67.171 62.5 66.5668 62.6833 66.0529 63.0267C65.539 63.37 65.1385 63.8581 64.9019 64.4291C64.6654 65.0001 64.6035 65.6285 64.7241 66.2347C64.8447 66.8409 65.1423 67.3977 65.5794 67.8347C66.0164 68.2717 66.5732 68.5694 67.1794 68.69C67.7856 68.8105 68.4139 68.7486 68.9849 68.5121C69.556 68.2756 70.044 67.8751 70.3874 67.3612C70.7308 66.8473 70.9141 66.2431 70.9141 65.625C70.9141 64.7962 70.5848 64.0013 69.9988 63.4153C69.4127 62.8292 68.6179 62.5 67.7891 62.5ZM67.7891 46.875C67.171 46.875 66.5668 47.0583 66.0529 47.4017C65.539 47.745 65.1385 48.2331 64.9019 48.8041C64.6654 49.3751 64.6035 50.0035 64.7241 50.6097C64.8447 51.2159 65.1423 51.7727 65.5794 52.2097C66.0164 52.6467 66.5732 52.9444 67.1794 53.065C67.7856 53.1855 68.4139 53.1236 68.9849 52.8871C69.556 52.6506 70.044 52.2501 70.3874 51.7362C70.7308 51.2223 70.9141 50.6181 70.9141 50C70.9141 49.1712 70.5848 48.3763 69.9988 47.7903C69.4127 47.2042 68.6179 46.875 67.7891 46.875Z" fill="#EEA500"/>
<defs>
<linearGradient id="paint0_linear_5482_15880" x1="6.91406" y1="50" x2="94.4141" y2="50" gradientUnits="userSpaceOnUse">
<stop stop-color="#0032A3"/>
<stop offset="0.25" stop-color="#1A51CB"/>
<stop offset="0.5" stop-color="#3B66C8"/>
<stop offset="0.75" stop-color="#1A51CB"/>
<stop offset="1" stop-color="#0032A3"/>
</linearGradient>
</defs>
</svg>
