<svg width="172" height="60" viewBox="0 0 172 60" fill="none" xmlns="http://www.w3.org/2000/svg">
<rect x="0.34375" width="171.315" height="60" rx="30" fill="#EBE9FE"/>
<path fill-rule="evenodd" clip-rule="evenodd" d="M40.8649 25.9014L37.0566 26.5126C37.0566 27.735 37.9498 27.3823 37.9498 28.883L33.742 40.0846L29.3459 25.9014L23.4219 26.5126C23.4219 27.594 24.7854 27.2649 25.091 27.8996L31.4382 45.5542H33.1307L40.8414 25.9955C40.8649 25.9719 40.8649 25.9484 40.8649 25.9249V25.9014ZM46.3422 30.9321C41.1705 30.9321 39.2193 32.8833 39.2193 34.3878C39.2193 35.4222 40.1126 35.8454 41.0529 35.8454C41.4996 35.8454 41.9697 35.7277 42.3459 35.5631C42.5574 32.8833 44.0385 31.943 45.4724 31.943C47.2825 31.943 47.5881 33.706 47.5881 35.3045C47.5881 35.7278 47.5647 36.151 47.5412 36.527C47.0474 36.1039 45.8956 35.6807 45.0258 35.6807C41.0764 35.6807 38.9843 38.4782 38.9843 41.1346C38.9843 43.4855 40.6532 45.7186 44.1324 45.7186C46.1071 45.7186 47.2825 44.9665 48.1289 43.6265C48.7871 44.8253 50.2681 45.5542 51.7726 45.5542H53.042C53.042 45.4601 53.0655 45.3897 53.0655 45.3191C53.0655 44.4962 52.2663 44.4962 51.9372 44.1671C51.5845 43.8145 51.4905 43.0388 51.4905 42.075C51.4905 40.8761 51.6316 39.3949 51.6316 37.867C51.6316 34.4348 50.9263 30.9321 46.3422 30.9321ZM47.4001 39.6066C47.4236 40.0062 47.4236 40.5705 47.4236 41.1581C47.4236 42.7332 46.7889 44.2377 45.2609 44.2377C43.1686 44.2377 43.2862 41.4638 43.2862 39.7006C43.2862 37.9375 44.4145 37.0207 45.4253 37.0207C46.4362 37.0207 47.353 37.8905 47.4001 39.6066ZM58.3313 41.9888C58.3548 40.0651 58.3548 38.0943 58.3548 36.1039V25.9014L52.7364 26.7005C52.7364 27.7781 54.1938 27.3548 54.1938 28.0601C54.1938 30.172 54.1703 32.2094 54.1703 34.2037C54.1703 36.2214 54.1938 38.1648 54.1938 40.1121C54.1938 42.9957 55.2047 45.5542 58.9191 45.5542H60.353C60.353 43.8654 58.3313 45.5542 58.3313 41.9888ZM75.798 45.5542C75.798 44.4727 74.3404 44.8724 74.3404 44.1671C74.3404 39.7634 74.458 35.4534 74.4344 31.0497L68.769 31.6413C68.769 32.7461 70.2264 32.3229 70.2264 33.0282C70.2264 35.9041 70.1794 38.8464 70.1559 41.7654C69.3096 43.2033 68.3458 44.0026 67.4996 44.0026C65.9245 44.0026 65.7364 42.7567 65.7128 40.5901C65.6895 36.5859 65.6895 35.8335 65.6895 31.0497L60.1415 31.6413C60.1415 32.7461 61.5989 32.3229 61.5989 33.0282V40.0963C61.5989 42.9917 62.5628 45.7186 66.2772 45.7186C68.3223 45.7186 69.4272 44.7079 70.1325 43.7676V45.5542H75.798ZM87.9047 40.829C87.2935 41.6282 85.93 42.2629 84.3079 42.2629C82.4508 42.2629 81.3225 41.1111 80.7816 39.3245C86.0476 39.3245 88.1867 36.8561 88.1867 34.5993C88.1867 32.7186 86.6353 30.9791 83.1796 30.9791C78.6895 30.9791 76.4327 34.8345 76.4327 38.5252C76.4327 42.2161 78.6189 45.7186 83.0384 45.7186C87.9047 45.7186 89.1741 42.545 89.1741 40.8996C89.1741 40.547 88.9861 40.3823 88.7274 40.3823C88.4453 40.3823 88.0927 40.5705 87.9047 40.829ZM82.9681 32.2251C83.9319 32.2486 84.496 33.2594 84.496 34.4818C84.496 36.2214 83.344 38.3372 80.5701 38.3372C80.4996 37.961 80.4525 37.4673 80.4525 36.9266C80.4525 34.905 81.0404 32.2251 82.9681 32.2251Z" fill="#002882"/>
<path fill-rule="evenodd" clip-rule="evenodd" d="M147.617 45.3746L147.616 45.3748C146.752 46.1506 145.41 46.0779 144.634 45.2135L140.613 40.7328L136.675 45.1157C135.899 45.9797 134.557 46.0513 133.693 45.275L133.693 45.2748C132.829 44.4985 132.757 43.1568 133.533 42.2926L137.776 37.571L133.275 32.556C132.5 31.6914 132.572 30.3498 133.437 29.574L133.437 29.5738C134.301 28.7981 135.643 28.8705 136.419 29.735L140.615 34.4111L144.9 29.6425C145.677 28.7787 147.019 28.7069 147.883 29.4833C148.747 30.2596 148.818 31.6018 148.042 32.4656L143.453 37.5729L147.778 42.3926C148.554 43.257 148.481 44.5989 147.617 45.3746ZM91.2266 21.7557V46.2219L102.533 46.1355C103.389 46.1291 104.252 46.1729 105.099 46.0203C110.126 45.1121 116.569 38.8353 110.324 33.1099C112.541 30.9213 113.08 24.9666 107.58 22.4805C105.744 21.651 104.893 21.7092 102.973 21.7156L91.2266 21.7557ZM123.826 28.2885C126.156 28.2885 128.2 29.1093 129.958 30.7506C131.716 32.392 132.594 34.4835 132.594 37.025C132.594 38.7829 132.139 40.3448 131.228 41.7108C130.318 43.0769 129.211 44.0829 127.909 44.7289C126.606 45.375 125.267 45.6978 123.89 45.6978C122.471 45.6978 121.105 45.3538 119.792 44.6654C118.479 43.9771 117.372 42.9605 116.472 41.6157C115.572 40.2706 115.122 38.7511 115.122 37.0568C115.122 34.5152 116.011 32.4184 117.79 30.7666C119.569 29.1145 121.581 28.2885 123.826 28.2885ZM121.761 39.3282C122.439 39.8471 123.127 40.1065 123.826 40.1065C124.525 40.1065 125.224 39.8419 125.923 39.3123C126.622 38.7829 126.971 37.9993 126.971 36.9615C126.971 35.9237 126.643 35.1507 125.987 34.6424C125.33 34.134 124.599 33.8798 123.795 33.8798C123.075 33.8798 122.386 34.1446 121.73 34.6741C121.073 35.2037 120.745 35.9766 120.745 36.9933C120.745 38.0311 121.084 38.8092 121.761 39.3282Z" fill="#EEA500"/>
<path fill-rule="evenodd" clip-rule="evenodd" d="M98.3455 22.1261C95.7387 21.2504 94.2956 20.7633 92.4346 17.4906C91.9234 16.5919 91.7972 15.5837 92.431 14.5499C92.9808 13.653 94.3061 13.5851 95.5179 14.1026C97.6642 15.019 98.2313 17.2482 99.1429 19.2445C100.374 17.0869 101.7 15.982 103.846 16.5129C105.769 17.3421 105.7 18.8272 104.369 20.0284C103.129 21.1434 101.574 21.9246 99.7713 22.1965L99.8244 28.3243L111.889 28.3236C111.94 28.8514 111.893 29.2728 111.847 29.7495H99.8368L99.9794 46.1552L98.5544 46.1694L98.4117 29.7495H91.2266V28.3244H98.3993L98.3455 22.1261ZM98.1806 20.9908C97.965 19.196 96.5217 15.3803 94.4278 15.0851C93.9985 15.0246 93.578 15.1257 93.411 15.4462C92.6179 16.9675 96.483 20.4615 98.1806 20.9908ZM99.7009 21.1571C100.149 19.5932 101.039 18.3223 102.278 17.6771C103.284 17.1288 104.749 17.9556 103.596 19.2092C102.548 20.1826 101.257 21.0071 99.7009 21.1571Z" fill="#002882"/>
</svg>
