<svg width="81" height="81" viewBox="0 0 81 81" fill="none" xmlns="http://www.w3.org/2000/svg">
<g id="marketing-advertising-svgrepo-com 1" clip-path="url(#clip0_3502_74148)">
<path id="Vector" d="M76.1278 73.4305H4.53937C2.95781 73.4305 1.67578 72.1485 1.67578 70.5669V10.4327C1.67578 8.85112 2.95781 7.56909 4.53937 7.56909H76.1278C77.7094 7.56909 78.9914 8.85112 78.9914 10.4327V70.5671C78.9912 72.1486 77.7094 73.4305 76.1278 73.4305Z" fill="url(#paint0_linear_3502_74148)"/>
<path id="Vector_2" d="M28.8796 46.2271L22.8662 46.5639L27.4478 63.4083H33.1748L28.8796 46.2271Z" fill="url(#paint1_linear_3502_74148)"/>
<path id="Vector_3" d="M28.8796 46.2271L22.8662 46.5639L23.9503 50.5495C25.8742 50.8435 27.9921 51.2245 30.2481 51.7014L28.8796 46.2271Z" fill="#EEA500"/>
<path id="Vector_4" d="M18.8569 7.56934H76.1276C77.7091 7.56934 78.9912 8.85137 78.9912 10.4329V13.2965H18.8569V7.56934Z" fill="url(#paint2_linear_3502_74148)"/>
<path id="Vector_5" d="M4.53922 7.56934H7.40281V13.2964H1.67578V10.4328C1.67578 8.85121 2.95766 7.56934 4.53922 7.56934Z" fill="#FF507D"/>
<path id="Vector_6" d="M13.1299 7.56934H7.40283V13.2964H13.1299V7.56934Z" fill="url(#paint3_linear_3502_74148)"/>
<path id="Vector_7" d="M18.8569 7.56934H13.1299V13.2964H18.8569V7.56934Z" fill="#B4E66E"/>
<path id="Vector_8" d="M73.2642 7.56934H76.1278C77.7093 7.56934 78.9913 8.85137 78.9913 10.4329V13.2965H73.2643L73.2642 7.56934Z" fill="url(#paint4_linear_3502_74148)"/>
<path id="Vector_9" d="M51.7876 27.614H48.9242C48.1336 27.614 47.4925 28.2551 47.4925 29.0457V29.821C35.5256 36.2146 22.9753 37.3828 18.8381 37.5907C18.0409 37.6309 17.4253 38.2576 17.4253 39.0195V44.8439C17.4253 45.6057 18.0409 46.2326 18.8381 46.2726C22.9751 46.4804 35.5258 47.6487 47.4925 54.0423V54.8176C47.4925 55.6082 48.1336 56.2493 48.9242 56.2493H51.7878C52.5784 56.2493 53.2195 55.6082 53.2195 54.8176V29.0457C53.2195 28.2551 52.5784 27.614 51.7876 27.614Z" fill="url(#paint5_linear_3502_74148)"/>
<path id="Vector_10" d="M47.4925 29.821C46.1936 30.515 44.8886 31.1365 43.5876 31.7126V44.3664C43.5876 45.2857 42.732 45.9628 41.835 45.7606C31.5048 43.4315 22.4431 42.045 18.8381 41.9543C18.0409 41.9343 17.4253 41.6209 17.4253 41.2398V44.8437C17.4253 45.6056 18.0408 46.2325 18.8381 46.2725C22.9751 46.4803 35.5256 47.6485 47.4925 54.0421V29.821Z" fill="#EEA500"/>
<path id="Vector_11" d="M23.1523 37.2146C21.3197 37.4316 19.8289 37.541 18.8381 37.5909C18.0409 37.631 17.4253 38.2577 17.4253 39.0196V44.844C17.4253 45.6059 18.0409 46.2327 18.8381 46.2727C19.829 46.3224 21.3198 46.4318 23.1523 46.649V37.2146Z" fill="#EEA500"/>
<path id="Vector_12" d="M23.1523 46.6489V42.3414C21.3415 42.1142 19.8629 41.9803 18.8381 41.9545C18.0409 41.9345 17.4253 41.6211 17.4253 41.24V44.8437C17.4253 45.0342 17.4637 45.2164 17.5339 45.3828C17.674 45.7159 17.9411 45.9869 18.2809 46.1395C18.4508 46.2158 18.6387 46.2625 18.8379 46.2725C19.7744 46.3195 21.1595 46.4211 22.8537 46.6159C22.9562 46.628 23.0478 46.6366 23.1523 46.6489Z" fill="url(#paint6_linear_3502_74148)"/>
<path id="Vector_13" d="M76.1277 6.22705H4.53928C2.22021 6.22705 0.333496 8.11377 0.333496 10.4328V70.5672C0.333496 72.8863 2.22021 74.773 4.53928 74.773H76.1277C78.4468 74.773 80.3335 72.8863 80.3335 70.5672V10.4328C80.3335 8.11377 78.4468 6.22705 76.1277 6.22705ZM77.649 10.4328V11.9541H74.6065V8.91158H76.1277C76.9665 8.91158 77.649 9.59408 77.649 10.4328ZM20.1993 11.9541V8.91158H71.9219V11.9541H20.1993ZM14.4722 11.9541V8.91158H17.5147V11.9541H14.4722ZM8.74506 11.9541V8.91158H11.7876V11.9541H8.74506ZM4.53928 8.91158H6.06053V11.9541H3.01803V10.4328C3.01803 9.59408 3.70053 8.91158 4.53928 8.91158ZM76.1277 72.0884H4.53928C3.70037 72.0884 3.01803 71.4061 3.01803 70.5672V14.6388H77.649V70.5672C77.649 71.4059 76.9665 72.0884 76.1277 72.0884Z" fill="#333333"/>
<path id="Vector_14" d="M73.2641 17.6812H7.40289C6.66164 17.6812 6.06055 18.2821 6.06055 19.0235C6.06055 19.7647 6.66148 20.3658 7.40289 20.3658H73.2641C74.0054 20.3658 74.6065 19.7649 74.6065 19.0235C74.6065 18.2821 74.0054 17.6812 73.2641 17.6812Z" fill="url(#paint7_linear_3502_74148)"/>
<path id="Vector_15" d="M51.7875 26.272H48.9241C47.6886 26.272 46.6402 27.0842 46.2824 28.2021C34.7671 34.9235 22.2936 36.0615 18.7033 36.2503C17.2339 36.3278 16.083 37.544 16.083 39.0196V44.844C16.083 46.3196 17.2339 47.5359 18.7033 47.6132C19.4188 47.6509 20.4886 47.7265 21.8319 47.8763L25.8652 62.7046C26.1929 63.9093 27.2936 64.7506 28.5421 64.7506H33.1697C33.1711 64.7506 33.1725 64.7509 33.1739 64.7509C33.1757 64.7509 33.1775 64.7506 33.1791 64.7506H34.6064C35.3477 64.7506 35.9488 64.1496 35.9488 63.4082C35.9488 62.6668 35.3479 62.0659 34.6064 62.0659H34.2L30.7691 49.4862C35.5074 50.6667 40.9957 52.5756 46.2822 55.6612C46.6402 56.7795 47.6888 57.5913 48.9239 57.5913H51.7875C53.3172 57.5913 54.5616 56.347 54.5616 54.8173V29.0454C54.5616 27.5163 53.3172 26.272 51.7875 26.272ZM18.7675 44.844V39.0196C18.7675 38.9701 18.7991 38.9337 18.8443 38.9312C19.5369 38.8946 20.548 38.824 21.81 38.689V45.1743C20.548 45.0393 19.5369 44.9687 18.8443 44.9321C18.7989 44.9299 18.7675 44.8937 18.7675 44.844ZM31.4171 62.066H28.5418C28.5014 62.066 28.4658 62.0388 28.4553 61.9999L24.7191 48.2634C25.6777 48.4131 26.7104 48.5953 27.8036 48.8168L31.4171 62.066ZM51.8771 54.8178C51.8771 54.8671 51.8369 54.9073 51.7875 54.9073H48.9241C48.8747 54.9073 48.8346 54.8671 48.8346 54.8178V39.0685C48.8346 38.3273 48.2336 37.7262 47.4922 37.7262C46.7508 37.7262 46.1499 38.3271 46.1499 39.0685V52.5085C38.2021 48.2034 30.0172 46.3298 24.4944 45.5163V38.3474C30.0172 37.534 38.2022 35.6604 46.1499 31.3553V33.3415C46.1499 34.0828 46.7508 34.6838 47.4922 34.6838C48.2336 34.6838 48.8346 34.0829 48.8346 33.3415V29.046C48.8346 28.9967 48.8747 28.9565 48.9241 28.9565H51.7877C51.8371 28.9565 51.8772 28.9967 51.8772 29.046V54.8178H51.8771Z" fill="#333333"/>
<path id="Vector_16" d="M67.537 40.5896H58.9463C58.2051 40.5896 57.604 41.1905 57.604 41.9319C57.604 42.6732 58.2049 43.2743 58.9463 43.2743H67.537C68.2782 43.2743 68.8793 42.6734 68.8793 41.9319C68.8793 41.1905 68.2782 40.5896 67.537 40.5896Z" fill="#E6EAF3"/>
<path id="Vector_17" d="M58.9476 37.5474C59.1493 37.5474 59.354 37.5017 59.5468 37.4055L65.2738 34.5419C65.937 34.2103 66.2057 33.4042 65.8742 32.7411C65.5427 32.078 64.7365 31.8092 64.0734 32.1408L58.3463 35.0044C57.6832 35.336 57.4145 36.1421 57.746 36.8052C57.9812 37.2753 58.4551 37.5474 58.9476 37.5474Z" fill="#E6EAF3"/>
<path id="Vector_18" d="M65.2738 49.322L59.5468 46.4584C58.8838 46.127 58.0776 46.3956 57.746 47.0587C57.4145 47.7218 57.6832 48.528 58.3463 48.8595L64.0734 51.723C64.2662 51.8193 64.4709 51.8649 64.6726 51.8649C65.1649 51.8649 65.639 51.5929 65.8742 51.1226C66.2057 50.4596 65.937 49.6534 65.2738 49.322Z" fill="#E6EAF3"/>
</g>
<defs>
<linearGradient id="paint0_linear_3502_74148" x1="1.67578" y1="40.4998" x2="78.9914" y2="40.4998" gradientUnits="userSpaceOnUse">
<stop stop-color="#0032A3"/>
<stop offset="0.25" stop-color="#1A51CB"/>
<stop offset="0.5" stop-color="#3B66C8"/>
<stop offset="0.75" stop-color="#1A51CB"/>
<stop offset="1" stop-color="#0032A3"/>
</linearGradient>
<linearGradient id="paint1_linear_3502_74148" x1="22.8662" y1="54.8177" x2="33.1748" y2="54.8177" gradientUnits="userSpaceOnUse">
<stop stop-color="#FFC136"/>
<stop offset="0.197568" stop-color="#FAC142"/>
<stop offset="0.525" stop-color="#FFD168"/>
<stop offset="0.771328" stop-color="#F5BC3A"/>
<stop offset="1" stop-color="#E09B00"/>
</linearGradient>
<linearGradient id="paint2_linear_3502_74148" x1="18.8569" y1="10.4329" x2="78.9912" y2="10.4329" gradientUnits="userSpaceOnUse">
<stop stop-color="#FFC136"/>
<stop offset="0.197568" stop-color="#FAC142"/>
<stop offset="0.525" stop-color="#FFD168"/>
<stop offset="0.771328" stop-color="#F5BC3A"/>
<stop offset="1" stop-color="#E09B00"/>
</linearGradient>
<linearGradient id="paint3_linear_3502_74148" x1="7.40283" y1="10.4329" x2="13.1299" y2="10.4329" gradientUnits="userSpaceOnUse">
<stop stop-color="#FFC136"/>
<stop offset="0.197568" stop-color="#FAC142"/>
<stop offset="0.525" stop-color="#FFD168"/>
<stop offset="0.771328" stop-color="#F5BC3A"/>
<stop offset="1" stop-color="#E09B00"/>
</linearGradient>
<linearGradient id="paint4_linear_3502_74148" x1="73.2642" y1="10.4329" x2="78.9913" y2="10.4329" gradientUnits="userSpaceOnUse">
<stop stop-color="#FFC136"/>
<stop offset="0.197568" stop-color="#FAC142"/>
<stop offset="0.525" stop-color="#FFD168"/>
<stop offset="0.771328" stop-color="#F5BC3A"/>
<stop offset="1" stop-color="#E09B00"/>
</linearGradient>
<linearGradient id="paint5_linear_3502_74148" x1="17.4253" y1="41.9317" x2="53.2195" y2="41.9317" gradientUnits="userSpaceOnUse">
<stop stop-color="#FFC136"/>
<stop offset="0.197568" stop-color="#FAC142"/>
<stop offset="0.525" stop-color="#FFD168"/>
<stop offset="0.771328" stop-color="#F5BC3A"/>
<stop offset="1" stop-color="#E09B00"/>
</linearGradient>
<linearGradient id="paint6_linear_3502_74148" x1="17.4253" y1="43.9444" x2="23.1523" y2="43.9444" gradientUnits="userSpaceOnUse">
<stop stop-color="#FFC136"/>
<stop offset="0.197568" stop-color="#FAC142"/>
<stop offset="0.525" stop-color="#FFD168"/>
<stop offset="0.771328" stop-color="#F5BC3A"/>
<stop offset="1" stop-color="#E09B00"/>
</linearGradient>
<linearGradient id="paint7_linear_3502_74148" x1="6.06055" y1="19.0235" x2="74.6065" y2="19.0235" gradientUnits="userSpaceOnUse">
<stop stop-color="#FFC136"/>
<stop offset="0.197568" stop-color="#FAC142"/>
<stop offset="0.525" stop-color="#FFD168"/>
<stop offset="0.771328" stop-color="#F5BC3A"/>
<stop offset="1" stop-color="#E09B00"/>
</linearGradient>
<clipPath id="clip0_3502_74148">
<rect width="80" height="80" fill="white" transform="translate(0.333496 0.5)"/>
</clipPath>
</defs>
</svg>
