<svg width="36" height="36" viewBox="0 0 36 36" fill="none" xmlns="http://www.w3.org/2000/svg">
<g id="mdi:package">
<path id="Vector" d="M6.53333 6.33333H29.45L27.8833 4.66667H7.88333L6.53333 6.33333ZM32.2333 6.71667C32.7167 7.28333 33 8 33 8.83333V29.6667C33 30.5507 32.6488 31.3986 32.0237 32.0237C31.3986 32.6488 30.5507 33 29.6667 33H6.33333C5.44928 33 4.60143 32.6488 3.97631 32.0237C3.35119 31.3986 3 30.5507 3 29.6667V8.83333C3 8 3.28333 7.28333 3.76667 6.71667L6.06667 3.91667C6.53333 3.35 7.21667 3 8 3H28C28.7833 3 29.4667 3.35 29.9167 3.91667L32.2333 6.71667ZM8 28H18V23H8V28Z" fill="#E6EAF3"/>
</g>
</svg>
