<svg width="242" height="250" viewBox="0 0 242 250" fill="none" xmlns="http://www.w3.org/2000/svg">
<g id="objects">
<g id="Group">
<g id="Group_2">
<path id="Vector" d="M200.388 243.52C200.388 247.098 161.275 250 113.033 250C64.7866 250 25.6875 247.098 25.6875 243.52C25.6875 239.94 64.7866 237.04 113.033 237.04C161.276 237.04 200.388 239.94 200.388 243.52Z" fill="#05603A"/>
<g id="Group_3">
<path id="Vector_2" d="M130.644 244.196C130.644 244.196 124.845 209.405 124.123 195.633C123.397 181.861 122.393 167.304 129.921 155.769C137.006 144.908 145.79 142.48 152.149 138.855C158.033 135.505 163.989 132.815 168.821 128.225C172.922 124.324 174.216 118.48 180.74 115.096C187.263 111.715 201.437 113.245 201.437 113.245C201.437 113.245 198.299 110.908 189.92 111.23C181.109 111.57 176.07 114.936 173.17 117.837C170.269 120.734 169.626 123.79 162.538 128.225C156.758 131.842 152.07 132.331 141.438 137.648C132.278 142.227 124.205 143.929 124.205 143.929C130.327 135.2 131.754 133.014 138.375 121.218C142.807 113.324 146.351 100.199 154.083 96.8164C161.814 93.4341 163.263 94.8828 177.76 94.3992C192.256 93.916 201.599 90.2074 204.981 87.5507C208.363 84.8911 211.343 81.8352 214.243 77.0037C217.141 72.1711 221.731 64.9229 224.632 62.9893C227.532 61.0574 229.707 60.8162 229.707 60.8162C229.707 60.8162 223.988 61.6334 220.847 64.7736C217.705 67.9152 212.469 75.8877 206.753 80.6272C202.181 84.4197 197.49 86.8399 194.19 87.3922C184.131 89.0787 179.519 88.7524 172.687 88.8426C165.919 88.9341 154.082 88.6002 150.456 90.7745C146.832 92.9492 142.081 98.4451 139.101 104.789C136.758 109.779 135.88 112.197 131.613 118.802C126.602 126.557 118.805 135.956 118.805 135.956C118.805 135.956 116.875 131.607 121.466 124.359C126.056 117.111 129.036 111.38 130.244 103.166C130.244 103.166 135.154 81.5725 144.094 74.3243C153.033 67.0761 159.719 65.3862 165.516 59.3443C171.318 53.3054 174.941 47.9895 177.597 40.4989C180.257 33.0096 178.485 18.533 178.485 18.533C178.485 18.533 178.808 33.8958 175.666 40.6604C172.525 47.425 167.37 53.8088 160.12 59.1251C152.874 64.4397 145.829 66.5335 140.067 72.1711C135.556 76.5842 134.028 78.6949 130.161 87.8766C126.296 97.0571 126.699 98.3444 123.96 106.399C121.905 112.447 121.703 114.298 118.322 118.318C114.869 122.423 108.382 119.088 105.033 108.896C101.61 98.4768 94.1886 92.3737 104.995 72.142C110.672 61.5098 112.405 61.0675 115.584 49.6208C117.967 41.0445 115.755 30.269 117.678 23.8181C119.733 16.9325 125.29 11.4594 129.758 9.56376C133.784 7.85449 138.136 7.66054 138.136 7.66054C138.136 7.66054 132.296 7.26843 128.068 9.44318C124.494 11.2806 121.666 13.3074 118.524 17.5363C116.009 20.9232 114.698 26.0228 113.733 30.8555C112.764 35.6882 111.639 48.8243 109.223 54.3814C106.842 59.8528 103.665 63.443 100.443 69.5123C97.2555 75.5192 96.9017 77.6969 96.255 78.6532C94.0511 81.9106 89.5692 78.2109 91.2621 68.0636C92.9532 57.9163 95.3704 56.4646 95.8523 49.2177C96.3359 41.9695 95.2481 37.6205 91.9864 31.821C88.2702 25.2133 84.4148 20.9051 75.6779 16.5999C67.3424 12.4932 61.5446 13.2188 61.5446 13.2188C61.5446 13.2188 63.1139 12.0096 74.7128 18.0503C86.3088 24.0892 94.0406 38.3444 90.7797 51.3925C88.0316 62.3801 84.6172 68.1842 85.584 74.9487C86.5496 81.7137 88.1218 84.7347 90.0537 89.0838C91.986 93.4328 92.9528 99.7142 92.9528 99.7142C92.9528 99.7142 90.0537 100.679 85.221 97.0563C80.3883 93.4328 74.9944 83.9353 74.5113 77.1703C74.0281 70.4057 73.2211 65.9264 71.048 57.7114C68.8733 49.4964 66.688 48.0612 57.8402 40.7966C48.8186 33.3882 46.8054 17.8091 46.8054 17.8091C46.8054 17.8091 47.4112 21.6214 48.4999 26.947C50.1088 34.8373 51.6368 38.5868 57.9194 44.385C64.2008 50.1845 65.8937 53.2818 68.3108 59.8056C70.7263 66.3277 68.4331 76.8229 69.3569 81.0455C70.4822 86.2015 76.0397 92.4661 67.826 89.5657C59.611 86.6683 53.3279 85.9422 46.5646 85.9422C39.7983 85.9422 36.2238 86.9702 32.7922 88.9497C29.0865 91.0861 25.0608 96.8156 25.0608 96.8156C25.0608 96.8156 30.5369 89.7398 39.7191 88.773C48.9008 87.8058 66.8609 93.9287 73.8666 99.2433C80.8723 104.559 94.6448 109.378 94.6448 109.378C94.6448 109.378 97.3225 120.754 98.6738 124.401C99.8527 127.593 104.551 136.682 104.551 136.682C104.551 136.682 100.203 132.82 92.7108 127.66C85.4626 122.665 85.1409 122.665 77.9732 118.561C71.1703 114.661 52.7667 104.758 32.309 107.497C27.8132 108.099 23.9338 109.751 20.0679 106.852C16.0587 103.844 11.5312 96.8661 11.5312 96.8661C11.5312 96.8661 12.5988 99.9297 16.8459 105.565C21.4361 111.655 24.5182 111.812 34.9661 111.312C50.9955 110.545 73.1625 122.102 77.7312 126.05C83.3157 130.875 86.7515 129.73 102.377 153.351C102.377 153.351 99.2333 152.802 89.8108 144.83C80.3875 136.856 69.9995 129.432 60.819 127.5C51.6372 125.568 41.1712 126.425 36.9789 126.135C26.5083 125.406 19.5847 120.659 17.1663 118.08C14.4565 115.189 13.9455 109.802 13.9455 109.802C13.9455 109.802 12.7788 114.071 15.2344 118.242C18.2123 123.303 21.6882 126.51 31.5045 128.874C42.294 131.472 44.8743 128.322 56.4699 131.703C68.0688 135.087 77.5681 145.17 85.9466 152.238C94.9989 159.877 107.368 163.339 106.726 185.002C106.409 195.729 102.86 217.861 102.86 217.861L97.0607 244.196H130.644V244.196Z" fill="url(#paint0_linear_5506_17114)"/>
<g id="Group_4">
<g id="Group_5">
<path id="Vector_3" d="M164.997 54.6141H168.138C168.138 54.6141 168.08 53.7662 167.983 52.2779C167.955 51.5354 167.852 50.6386 167.681 49.6153C167.54 48.5874 167.37 47.4347 167.046 46.1993C166.549 43.7028 165.525 40.8952 164.249 38.0037C162.88 35.1443 161.068 32.2823 158.946 29.6804C156.789 27.0971 154.261 24.8722 151.738 23.0313C150.421 22.1868 149.195 21.3069 147.904 20.6799C147.27 20.3506 146.669 19.9999 146.062 19.7161C145.446 19.4538 144.851 19.1975 144.281 18.9534C143.152 18.4242 142.054 18.1148 141.1 17.7943C140.151 17.4528 139.303 17.2331 138.596 17.0835C137.193 16.7525 136.391 16.5649 136.391 16.5649C136.391 16.5649 137.181 16.7997 138.559 17.2146C139.255 17.4035 140.084 17.6721 141.006 18.0667C141.933 18.4436 143 18.8096 144.08 19.3995C144.626 19.6756 145.199 19.9594 145.788 20.2549C146.368 20.572 146.938 20.9502 147.539 21.3103C148.765 21.9963 149.915 22.9297 151.141 23.8265C153.489 25.766 155.798 28.0554 157.714 30.6522C159.599 33.2659 161.151 36.0887 162.282 38.8655C163.322 41.6744 164.124 44.3538 164.448 46.7221C164.683 47.89 164.777 48.9791 164.847 49.9429C164.951 50.9038 165 51.7441 164.982 52.4394C164.99 53.8244 164.997 54.6141 164.997 54.6141Z" fill="url(#paint1_linear_5506_17114)"/>
</g>
<g id="Group_6">
<path id="Vector_4" d="M87.6797 29.9705H90.8212C90.8212 29.9705 90.7314 27.9193 90.5973 24.8401C90.5193 21.7981 90.3423 17.7066 91.3782 13.9061C91.912 12.021 92.8256 10.2641 94.0121 8.84911C95.1648 7.38817 96.6658 6.41843 97.9311 5.60089C99.2626 4.87317 100.412 4.31072 101.259 4.02064C102.097 3.69598 102.575 3.50836 102.575 3.50836C102.575 3.50836 102.079 3.64876 101.218 3.89246C100.338 4.10286 99.1332 4.55442 97.7013 5.16451C96.3319 5.87832 94.6724 6.73211 93.2818 8.17492C91.8622 9.56587 90.6682 11.4067 89.8903 13.4086C88.3653 17.4499 88.17 21.7289 87.9491 24.8157C87.7864 27.9104 87.6797 29.9705 87.6797 29.9705Z" fill="url(#paint2_linear_5506_17114)"/>
</g>
<g id="Group_7">
<path id="Vector_5" d="M153.143 136.655L150.008 136.87C150.008 136.87 150.075 137.181 150.194 137.766C150.27 138.355 150.633 139.171 151.228 140.074C152.508 141.865 155.015 143.221 157.934 144.003C160.877 144.77 164.318 145.14 167.984 145.15C169.817 145.186 171.754 145.018 173.626 144.738C175.533 144.518 177.439 144.235 179.324 143.888C183.115 143.26 186.861 142.577 190.399 142.298C193.924 141.922 197.249 142.317 199.881 143.307C202.523 144.305 204.441 145.779 205.765 146.778C207.055 147.841 207.79 148.45 207.79 148.45C207.79 148.45 207.085 147.803 205.85 146.674C204.572 145.605 202.73 144.023 200.067 142.853C197.417 141.691 193.964 141.105 190.353 141.303C186.729 141.402 182.898 141.903 179.104 142.332C177.201 142.581 175.307 142.764 173.453 142.881C171.58 143.065 169.799 143.127 168.036 143.002C164.522 142.816 161.265 142.279 158.679 141.459C156.095 140.626 154.308 139.378 153.692 138.351C153.418 137.826 153.225 137.427 153.228 137.11C153.174 136.814 153.143 136.655 153.143 136.655Z" fill="url(#paint3_linear_5506_17114)"/>
</g>
<g id="Group_8">
<path id="Vector_6" d="M40.5913 129.982L39.3146 127.113C39.3146 127.113 39.1438 127.217 38.8251 127.414C38.6695 127.518 38.4773 127.644 38.25 127.792C38.0759 127.957 37.8764 128.149 37.6521 128.361C36.7891 129.212 35.9854 130.492 35.0064 131.693C34.5367 132.306 33.9115 132.846 33.3427 133.246C32.5817 133.52 31.6941 134.014 30.7164 134.191C28.8102 134.734 26.5242 134.899 24.3465 134.914C19.9742 134.8 15.3856 133.337 11.8414 133.942C10.0921 134.185 8.73026 134.783 7.8596 135.298C6.99653 135.831 6.53906 136.181 6.53906 136.181C6.53906 136.181 7.02857 135.869 7.922 135.417C8.82175 134.984 10.2005 134.52 11.8903 134.429C15.3274 134.132 19.5686 135.929 24.252 136.481C26.6068 136.666 28.9262 136.705 31.1785 136.286C32.327 136.164 33.3182 135.737 34.4115 135.414C35.5124 134.813 36.3223 134.157 36.9662 133.474C38.2563 132.126 39.0903 131.042 39.7126 130.549C39.8606 130.431 39.9917 130.323 40.106 130.229C40.2127 130.18 40.3025 130.138 40.3775 130.104C40.5184 130.025 40.5913 129.982 40.5913 129.982Z" fill="url(#paint4_linear_5506_17114)"/>
</g>
<g id="Group_9">
<path id="Vector_7" d="M49.2901 86.6632L52.3629 87.3188C52.3629 87.3188 52.4165 86.8474 52.5096 86.0227C52.5644 85.6108 52.6087 85.1108 52.5935 84.531C52.5902 83.953 52.6222 83.305 52.5219 82.6021C52.4409 81.1871 52.0429 79.59 51.526 77.9495C50.9433 76.33 50.1764 74.6936 49.315 73.1366C47.5581 70.041 45.5756 67.1862 44.2702 64.9322C42.9404 62.6921 42.2422 61.0954 42.2422 61.0954C42.2422 61.0954 42.7574 62.7608 43.8326 65.1594C44.8862 67.5644 46.5563 70.6663 47.9059 73.8306C48.5649 75.418 49.1029 77.0299 49.463 78.5503C49.7589 80.0787 49.9478 81.5029 49.8762 82.7138C49.8972 83.3176 49.7998 83.8666 49.748 84.3514C49.71 84.835 49.6232 85.2512 49.5346 85.5944C49.3803 86.2745 49.2901 86.6632 49.2901 86.6632Z" fill="url(#paint5_linear_5506_17114)"/>
</g>
<g id="Group_10">
<path id="Vector_8" d="M145.955 71.6542L143.68 73.8167C143.68 73.8167 143.933 74.0363 144.408 74.4495C144.872 74.8809 145.641 75.3586 146.623 75.8418C148.608 76.8022 151.546 77.5375 155.01 77.6775C158.48 77.8466 162.479 77.5772 166.691 76.575C168.811 76.0277 170.791 75.2346 172.917 74.5545C175.015 73.8517 177.052 72.9013 179.136 72.0808C183.24 70.2936 187.273 68.3781 191.042 66.571C194.775 64.6084 198.128 62.6929 201.162 61.3235C204.185 59.9435 206.844 59.1673 208.735 58.7646C209.684 58.5711 210.447 58.5357 210.959 58.4564C211.471 58.3923 211.749 58.3586 211.749 58.3586C211.749 58.3586 211.471 58.3801 210.956 58.4197C210.44 58.4762 209.671 58.4809 208.711 58.6301C206.795 58.9501 204.078 59.615 200.97 60.8719C197.862 62.1132 194.367 63.9068 190.615 65.6725C186.781 67.3076 182.685 69.035 178.543 70.6258C176.451 71.3443 174.402 72.1934 172.312 72.7913C170.232 73.3584 168.164 74.0722 166.209 74.4807C162.247 75.2464 158.383 75.3362 155.193 75.0343C151.984 74.7645 149.465 73.9638 147.976 73.1573C147.242 72.75 146.701 72.3857 146.421 72.0867C146.119 71.8038 145.955 71.6542 145.955 71.6542Z" fill="url(#paint6_linear_5506_17114)"/>
</g>
<g id="Group_11">
<path id="Vector_9" d="M69.4844 55.3676L70.8218 58.2102C70.8218 58.2102 71.0001 58.0896 71.3374 57.864C71.5006 57.7451 71.708 57.5971 71.9247 57.4125C72.0879 57.2126 72.2785 56.9811 72.4906 56.7189C73.2609 55.6589 73.8082 54.1233 74.1282 52.3728C74.7931 48.856 74.6999 44.3222 74.5629 39.8589C74.543 35.3939 74.0232 30.8799 74 27.5735C73.9085 25.9022 74.0232 24.5205 74.0641 23.5462C74.1113 22.5718 74.1387 22.0148 74.1387 22.0148C74.1387 22.0148 74.0624 22.5655 73.9313 23.5322C73.8048 24.499 73.5636 25.8837 73.5118 27.563C73.2373 30.9377 73.3642 35.377 72.9919 39.8361C72.7465 44.2919 72.4126 48.7497 71.5444 51.7875C71.13 53.3033 70.5578 54.3907 70.1202 54.8679C70.0101 54.978 69.9174 55.0783 69.8398 55.1686C69.7588 55.2065 69.6889 55.2402 69.634 55.2676C69.5329 55.3246 69.4844 55.3676 69.4844 55.3676Z" fill="url(#paint7_linear_5506_17114)"/>
</g>
<g id="Group_12">
<path id="Vector_10" d="M44.54 107.876L47.4299 109.114C47.4299 109.114 47.537 108.702 47.7242 107.981C47.8418 107.629 47.8646 107.177 47.8844 106.658C47.9409 106.142 47.8709 105.573 47.7608 104.964C47.378 102.465 45.5178 100.01 43.5505 98.0244C41.5469 96.0267 39.3692 94.3338 37.7801 93.0255C36.1788 91.7311 35.2031 90.7749 35.2031 90.7779C35.2031 90.7749 36.0358 91.8635 37.4449 93.3827C38.8354 94.9077 40.7543 96.9024 42.3691 99.0573C43.9717 101.194 45.1796 103.606 45.1307 105.296C45.1607 106.976 44.4743 107.857 44.54 107.876Z" fill="url(#paint8_linear_5506_17114)"/>
</g>
</g>
<g id="Group_13">
<path id="Vector_11" d="M221.829 68.5008C221.524 66.6203 222.629 64.5847 226.489 64.516C230.354 64.4502 234.752 67.8085 234.752 67.8085C234.752 67.8085 233.38 66.9851 231.107 68.1133C228.835 69.245 228.872 70.5655 225.989 71.0778C223.64 71.499 222.083 70.0532 221.829 68.5008Z" fill="#12B76A"/>
<g id="Group_14">
<path id="Vector_12" d="M230.367 63.3021C229.153 61.713 229.168 59.2777 232.712 57.3041C236.259 55.3326 241.999 56.2644 241.999 56.2644C241.999 56.2644 240.316 56.1805 238.772 58.3506C237.229 60.5236 237.913 61.7269 235.497 63.6348C233.533 65.1839 231.374 64.6151 230.367 63.3021Z" fill="#12B76A"/>
<path id="Vector_13" d="M229.019 58.8628C229.824 57.8138 229.812 56.2049 227.473 54.9008C225.131 53.5988 221.336 54.2131 221.336 54.2131C221.336 54.2131 222.446 54.1583 223.468 55.5906C224.487 57.0271 224.036 57.8231 225.631 59.0825C226.93 60.1058 228.357 59.7305 229.019 58.8628Z" fill="#12B76A"/>
<path id="Vector_14" d="M230.341 55.5948C231.442 56.9411 233.479 57.3804 235.789 54.698C238.091 52.0127 238.381 46.8992 238.381 46.8992C238.381 46.8992 238.137 48.3614 236.038 49.2856C233.94 50.2098 233.059 49.394 231.018 51.1188C229.359 52.5203 229.432 54.4859 230.341 55.5948Z" fill="#12B76A"/>
</g>
<g id="Group_15">
<path id="Vector_15" d="M215.976 74.2438C214.051 74.7822 211.794 73.8656 211.278 69.8424C210.763 65.8167 213.758 60.8327 213.758 60.8327C213.758 60.8327 213.054 62.3624 214.499 64.5995C215.942 66.8413 217.315 66.6524 218.19 69.6029C218.897 72.002 217.571 73.7985 215.976 74.2438Z" fill="#12B76A"/>
<path id="Vector_16" d="M211.347 73.8504C210.67 72.7158 209.176 72.1302 207.093 73.82C205.015 75.5112 204.18 79.2611 204.18 79.2611C204.18 79.2611 204.543 78.2104 206.251 77.7939C207.962 77.379 208.535 78.0928 210.292 77.0788C211.728 76.2537 211.909 74.7898 211.347 73.8504Z" fill="#12B76A"/>
<path id="Vector_17" d="M208.812 71.4088C210.469 70.8859 211.634 69.1564 209.999 66.0212C208.358 62.886 203.719 60.7172 203.719 60.7172C203.719 60.7172 204.984 61.4858 205.064 63.7811C205.146 66.0731 204.06 66.5854 204.905 69.1214C205.592 71.1815 207.443 71.8464 208.812 71.4088Z" fill="#12B76A"/>
</g>
<g id="Group_16">
<path id="Vector_18" d="M196.92 86.9528C197.796 85.6964 199.577 85.1382 201.846 87.264C204.116 89.3928 204.774 93.8005 204.774 93.8005C204.774 93.8005 204.445 92.5529 202.502 91.9339C200.553 91.3146 199.833 92.0954 197.875 90.7778C196.286 89.7056 196.195 87.993 196.92 86.9528Z" fill="#12B76A"/>
<path id="Vector_19" d="M199.853 84.9307C200.808 85.2722 201.978 84.8852 202.384 82.8719C202.787 80.8608 201.454 78.2332 201.454 78.2332C201.454 78.2332 201.753 79.0339 200.945 80.1115C200.133 81.1913 199.447 81.048 198.901 82.506C198.455 83.6954 199.063 84.647 199.853 84.9307Z" fill="#12B76A"/>
<path id="Vector_20" d="M202.54 85.1335C201.817 86.2513 201.973 87.8421 204.471 88.8987C206.969 89.9523 210.769 88.972 210.769 88.972C210.769 88.972 209.644 89.1335 208.479 87.8159C207.314 86.4996 207.704 85.6656 205.969 84.5829C204.557 83.6971 203.141 84.2064 202.54 85.1335Z" fill="#12B76A"/>
</g>
<g id="Group_17">
<path id="Vector_21" d="M187.629 88.8502C186.165 88.4399 185.058 86.9545 186.309 84.1318C187.559 81.3077 191.475 79.2443 191.475 79.2443C191.475 79.2443 190.414 79.9627 190.472 81.9878C190.527 84.0162 191.493 84.4336 190.902 86.7028C190.417 88.542 188.843 89.1888 187.629 88.8502Z" fill="#12B76A"/>
<path id="Vector_22" d="M184.773 86.7699C184.777 85.7635 184.035 84.792 182.016 85.0741C179.997 85.3545 177.969 87.4651 177.969 87.4651C177.969 87.4651 178.621 86.9255 179.896 87.3247C181.174 87.7316 181.265 88.4226 182.809 88.4564C184.069 88.4842 184.765 87.6026 184.773 86.7699Z" fill="#12B76A"/>
<path id="Vector_23" d="M184.08 84.1777C185.368 84.4918 186.807 83.8257 186.981 81.1399C187.148 78.4499 184.983 75.2093 184.983 75.2093C184.983 75.2093 185.502 76.2081 184.648 77.7344C183.8 79.2548 182.888 79.165 182.44 81.1458C182.073 82.7606 183.019 83.9214 184.08 84.1777Z" fill="#12B76A"/>
</g>
<g id="Group_18">
<path id="Vector_24" d="M168.368 88.8729C167.258 88.5635 166.416 87.4365 167.365 85.2879C168.313 83.1422 171.293 81.5763 171.293 81.5763C171.293 81.5763 170.488 82.1193 170.531 83.6579C170.57 85.2027 171.306 85.5185 170.857 87.2429C170.488 88.6398 169.289 89.1335 168.368 88.8729Z" fill="#12B76A"/>
<path id="Vector_25" d="M166.204 87.2948C166.207 86.5291 165.64 85.7913 164.109 86.0046C162.574 86.218 161.031 87.8252 161.031 87.8252C161.031 87.8252 161.528 87.412 162.498 87.7156C163.468 88.0251 163.538 88.55 164.712 88.5757C165.671 88.5968 166.198 87.9276 166.204 87.2948Z" fill="#12B76A"/>
<path id="Vector_26" d="M165.677 85.3241C166.653 85.5636 167.748 85.0589 167.876 83.0153C168.004 80.9717 166.36 78.5077 166.36 78.5077C166.36 78.5077 166.756 79.2687 166.107 80.4261C165.46 81.5839 164.767 81.5151 164.429 83.0187C164.149 84.246 164.868 85.1289 165.677 85.3241Z" fill="#12B76A"/>
</g>
<g id="Group_19">
<path id="Vector_27" d="M155.196 91.9534C154.195 91.6742 153.439 90.6615 154.292 88.7296C155.146 86.8007 157.824 85.3928 157.824 85.3928C157.824 85.3928 157.101 85.8811 157.138 87.264C157.178 88.652 157.837 88.937 157.434 90.4878C157.101 91.7442 156.028 92.1852 155.196 91.9534Z" fill="#12B76A"/>
<path id="Vector_28" d="M153.245 90.5337C153.248 89.8444 152.739 89.1824 151.36 89.3734C149.979 89.5669 148.594 91.0097 148.594 91.0097C148.594 91.0097 149.042 90.6408 149.915 90.9124C150.784 91.1915 150.848 91.6624 151.904 91.6852C152.763 91.705 153.236 91.1025 153.245 90.5337Z" fill="#12B76A"/>
<path id="Vector_29" d="M152.771 88.7616C153.65 88.9767 154.632 88.5209 154.753 86.6877C154.866 84.8485 153.387 82.6341 153.387 82.6341C153.387 82.6341 153.741 83.3176 153.158 84.359C152.576 85.4009 151.957 85.3363 151.649 86.6906C151.398 87.7932 152.045 88.5879 152.771 88.7616Z" fill="#12B76A"/>
</g>
<g id="Group_20">
<path id="Vector_30" d="M143.261 102.491C142.038 102.743 140.672 102.077 140.523 99.5418C140.379 97.012 142.462 94.032 142.462 94.032C142.462 94.032 141.959 94.9532 142.758 96.4142C143.56 97.8751 144.423 97.8169 144.844 99.6957C145.183 101.221 144.277 102.285 143.261 102.491Z" fill="#12B76A"/>
<path id="Vector_31" d="M140.397 102.047C140.024 101.306 139.116 100.877 137.746 101.843C136.377 102.806 135.688 105.111 135.688 105.111C135.688 105.111 135.962 104.47 137.045 104.281C138.13 104.099 138.457 104.569 139.6 104.014C140.531 103.56 140.705 102.655 140.397 102.047Z" fill="#12B76A"/>
<path id="Vector_32" d="M138.922 100.412C139.981 100.159 140.776 99.1345 139.895 97.1065C139.008 95.0797 136.211 93.5243 136.211 93.5243C136.211 93.5243 136.964 94.0598 136.915 95.4946C136.864 96.9252 136.168 97.1992 136.583 98.8162C136.921 100.13 138.047 100.626 138.922 100.412Z" fill="#12B76A"/>
</g>
<g id="Group_21">
<path id="Vector_33" d="M160.409 92.1376C162.047 92.2885 163.514 93.6504 162.736 96.9049C161.955 100.144 158.186 103.099 158.186 103.099C158.186 103.099 159.177 102.133 158.725 99.9887C158.274 97.8414 157.161 97.5791 157.349 95.0553C157.505 93.0074 159.058 92.0128 160.409 92.1376Z" fill="#12B76A"/>
<path id="Vector_34" d="M163.845 93.7942C164.031 94.871 165.01 95.7581 167.109 95.0645C169.204 94.3722 170.946 91.7248 170.946 91.7248C170.946 91.7248 170.357 92.4323 168.917 92.2557C167.484 92.0739 167.252 91.3542 165.599 91.6165C164.257 91.8345 163.69 92.9113 163.845 93.7942Z" fill="#12B76A"/>
<path id="Vector_35" d="M165.097 96.4154C163.669 96.3315 162.269 97.3181 162.605 100.21C162.952 103.107 165.884 106.131 165.884 106.131C165.884 106.131 165.136 105.167 165.743 103.375C166.353 101.593 167.338 101.516 167.43 99.3204C167.509 97.5332 166.274 96.4795 165.097 96.4154Z" fill="#12B76A"/>
</g>
<g id="Group_22">
<path id="Vector_36" d="M178.536 92.3438C179.649 92.4488 180.649 93.3747 180.118 95.589C179.588 97.7929 177.019 99.8087 177.019 99.8087C177.019 99.8087 177.697 99.1497 177.388 97.6887C177.081 96.2278 176.324 96.0495 176.452 94.3292C176.556 92.937 177.614 92.2599 178.536 92.3438Z" fill="#12B76A"/>
<path id="Vector_37" d="M180.884 93.4708C181.012 94.2057 181.68 94.8065 183.107 94.3368C184.531 93.8637 185.718 92.0617 185.718 92.0617C185.718 92.0617 185.318 92.5466 184.339 92.4247C183.36 92.2995 183.204 91.8104 182.076 91.9888C181.164 92.1376 180.78 92.87 180.884 93.4708Z" fill="#12B76A"/>
<path id="Vector_38" d="M181.714 95.2564C180.741 95.1999 179.79 95.8694 180.019 97.838C180.254 99.8116 182.252 101.87 182.252 101.87C182.252 101.87 181.745 101.214 182.157 99.9946C182.572 98.7807 183.242 98.7276 183.304 97.2346C183.358 96.0174 182.52 95.3006 181.714 95.2564Z" fill="#12B76A"/>
</g>
<path id="Vector_39" d="M221.592 61.9951C222.22 61.1763 222.211 59.9241 220.387 58.9088C218.557 57.8902 215.602 58.3721 215.602 58.3721C215.602 58.3721 216.468 58.3265 217.263 59.4455C218.056 60.565 217.703 61.1843 218.951 62.1663C219.963 62.9636 221.073 62.6722 221.592 61.9951Z" fill="#12B76A"/>
<g id="Group_23">
<path id="Vector_40" d="M109.001 49.8135C110.158 49.2464 110.854 47.8386 109.382 45.6777C107.904 43.5156 104.328 42.3992 104.328 42.3992C104.328 42.3992 105.321 42.8322 105.583 44.5326C105.847 46.2284 105.104 46.7272 105.946 48.522C106.633 49.983 108.043 50.2802 109.001 49.8135Z" fill="#12B76A"/>
<path id="Vector_41" d="M104.272 46.7149C104.848 45.655 104.615 44.2126 102.324 43.3664C100.032 42.5215 96.7031 43.6071 96.7031 43.6071C96.7031 43.6071 97.6961 43.3997 98.8155 44.5495C99.9349 45.6963 99.6406 46.4772 101.254 47.3874C102.565 48.127 103.797 47.5873 104.272 46.7149Z" fill="#12B76A"/>
<path id="Vector_42" d="M106.243 51.7015C106.432 50.5121 105.723 49.2283 103.284 49.2004C100.841 49.176 98.0703 51.3157 98.0703 51.3157C98.0703 51.3157 98.9363 50.7866 100.374 51.4928C101.814 52.202 101.8 53.0347 103.623 53.3518C105.108 53.6047 106.089 52.6869 106.243 51.7015Z" fill="#12B76A"/>
</g>
<g id="Group_24">
<path id="Vector_43" d="M118.464 35.5182C120.034 34.7496 120.979 32.8375 118.981 29.9047C116.974 26.9693 112.117 25.4519 112.117 25.4519C112.117 25.4519 113.47 26.0422 113.825 28.3481C114.182 30.6522 113.173 31.3277 114.318 33.7681C115.246 35.7489 117.164 36.1545 118.464 35.5182Z" fill="#12B76A"/>
<path id="Vector_44" d="M111.15 32.1604C112.189 30.2513 111.766 27.6511 107.638 26.1244C103.507 24.6023 97.5078 26.5604 97.5078 26.5604C97.5078 26.5604 99.2997 26.1868 101.313 28.2561C103.332 30.3255 102.8 31.7316 105.706 33.3738C108.074 34.707 110.293 33.7343 111.15 32.1604Z" fill="#12B76A"/>
<path id="Vector_45" d="M114.744 38.0821C115 36.4669 114.039 34.7256 110.728 34.6893C107.411 34.6526 103.648 37.5593 103.648 37.5593C103.648 37.5593 104.824 36.8426 106.776 37.8005C108.732 38.761 108.713 39.8909 111.188 40.3214C113.205 40.6684 114.534 39.4208 114.744 38.0821Z" fill="#12B76A"/>
</g>
<g id="Group_25">
<path id="Vector_46" d="M120.589 19.6723C121.565 20.2334 122.926 20.0458 123.767 17.9229C124.609 15.7941 123.663 12.6543 123.663 12.6543C123.663 12.6543 123.838 13.589 122.736 14.611C121.639 15.6326 120.913 15.3384 120.028 16.8301C119.306 18.0393 119.778 19.2072 120.589 19.6723Z" fill="#12B76A"/>
<path id="Vector_47" d="M119.74 14.5604C121.137 14.4247 122.372 13.2597 121.695 10.5086C121.015 7.75751 117.804 5.2657 117.804 5.2657C117.804 5.2657 118.651 6.08323 118.274 7.90719C117.898 9.72777 116.958 9.95376 117.13 12.0965C117.274 13.8378 118.594 14.6718 119.74 14.5604Z" fill="#12B76A"/>
<path id="Vector_48" d="M117.877 18.6127C118.828 18.1645 119.412 17.0236 118.235 15.2456C117.056 13.463 114.148 12.5054 114.148 12.5054C114.148 12.5054 114.957 12.8731 115.149 14.2607C115.342 15.6482 114.734 16.0463 115.399 17.5241C115.941 18.7223 117.087 18.9816 117.877 18.6127Z" fill="#12B76A"/>
</g>
<g id="Group_26">
<path id="Vector_49" d="M113.872 46.1888C112.715 45.6229 112.02 44.2139 113.49 42.0543C114.968 39.8922 118.546 38.774 118.546 38.774C118.546 38.774 117.552 39.2087 117.289 40.9075C117.027 42.6049 117.768 43.1033 116.926 44.8982C116.241 46.3595 114.829 46.6568 113.872 46.1888Z" fill="#12B76A"/>
<path id="Vector_50" d="M118.603 43.0898C118.026 42.0298 118.26 40.5874 120.549 39.7408C122.843 38.8976 126.17 39.9833 126.17 39.9833C126.17 39.9833 125.179 39.7758 124.059 40.9243C122.94 42.0728 123.236 42.8537 121.623 43.764C120.311 44.5035 119.077 43.9638 118.603 43.0898Z" fill="#12B76A"/>
<path id="Vector_51" d="M116.623 48.0768C116.434 46.8891 117.143 45.6048 119.583 45.5774C122.027 45.55 124.796 47.6927 124.796 47.6927C124.796 47.6927 123.929 47.1636 122.49 47.8698C121.05 48.5773 121.065 49.41 119.242 49.727C117.758 49.9813 116.779 49.0617 116.623 48.0768Z" fill="#12B76A"/>
</g>
<g id="Group_27">
<path id="Vector_52" d="M181.326 29.6319C183.268 30.3365 185.665 29.5788 186.529 25.478C187.389 21.3697 184.708 15.9927 184.708 15.9927C184.708 15.9927 185.309 17.6244 183.641 19.8173C181.966 22.0043 180.569 21.6977 179.432 24.6656C178.501 27.0823 179.724 29.045 181.326 29.6319Z" fill="#12B76A"/>
<path id="Vector_53" d="M179.664 20.7259C181.528 20.2166 182.934 18.3408 181.372 14.7544C179.799 11.1647 174.852 8.52487 174.852 8.52487C174.852 8.52487 176.19 9.44444 176.105 12.0109C176.023 14.5836 174.787 15.1081 175.532 17.9841C176.132 20.3237 178.124 21.1471 179.664 20.7259Z" fill="#12B76A"/>
<path id="Vector_54" d="M176.092 28.5555C177.675 27.4483 178.377 25.2095 175.696 22.3563C173.012 19.5044 167.461 18.6768 167.461 18.6768C167.461 18.6768 169.035 19.0946 169.819 21.5405C170.6 23.991 169.621 24.8983 171.28 27.3598C172.634 29.3574 174.784 29.4687 176.092 28.5555Z" fill="#12B76A"/>
</g>
<g id="Group_28">
<path id="Vector_55" d="M177.127 38.7209C178.082 38.4557 178.807 37.4919 177.999 35.6527C177.184 33.8119 174.641 32.4657 174.641 32.4657C174.641 32.4657 175.33 32.932 175.29 34.2529C175.25 35.5718 174.619 35.842 175.003 37.3182C175.315 38.5198 176.34 38.9406 177.127 38.7209Z" fill="#12B76A"/>
<path id="Vector_56" d="M173.993 35.7168C174.576 34.9954 174.6 33.8747 172.99 32.9126C171.38 31.9504 168.711 32.3042 168.711 32.3042C168.711 32.3042 169.492 32.2873 170.175 33.3123C170.858 34.3385 170.526 34.8892 171.618 35.8024C172.505 36.5432 173.509 36.3084 173.993 35.7168Z" fill="#12B76A"/>
<path id="Vector_57" d="M174.791 39.7594C175.098 38.8887 174.745 37.8212 172.909 37.4581C171.066 37.0951 168.672 38.3212 168.672 38.3212C168.672 38.3212 169.401 38.0438 170.386 38.7787C171.38 39.5136 171.246 40.1418 172.582 40.6393C173.668 41.039 174.535 40.4837 174.791 39.7594Z" fill="#12B76A"/>
</g>
<g id="Group_29">
<path id="Vector_58" d="M174.454 51.7918C173.892 53.0604 174.295 54.7027 176.997 55.4607C179.712 56.2155 183.43 54.6601 183.43 54.6601C183.43 54.6601 182.314 54.9927 180.916 53.7772C179.529 52.5616 179.797 51.6408 177.857 50.7423C176.281 50.0116 174.917 50.747 174.454 51.7918Z" fill="#12B76A"/>
<path id="Vector_59" d="M180.484 51.0763C180.747 52.3479 181.936 53.3712 184.407 52.4824C186.877 51.5936 188.869 48.3972 188.869 48.3972C188.869 48.3972 188.195 49.2544 186.478 49.0836C184.761 48.9129 184.462 48.0633 182.503 48.4293C180.912 48.7307 180.274 50.0302 180.484 51.0763Z" fill="#12B76A"/>
<path id="Vector_60" d="M175.402 48.3437C176.074 49.4509 177.54 50.018 179.565 48.3542C181.597 46.6846 182.393 43.0034 182.393 43.0034C182.393 43.0034 182.048 44.0372 180.377 44.4521C178.699 44.8716 178.135 44.17 176.412 45.1735C175.021 45.9935 174.85 47.4224 175.402 48.3437Z" fill="#12B76A"/>
</g>
<g id="Group_30">
<path id="Vector_61" d="M152.899 66.985C152.121 68.7356 152.673 71.0031 156.412 72.0526C160.161 73.0974 165.297 70.9488 165.297 70.9488C165.297 70.9488 163.754 71.4075 161.826 69.7273C159.908 68.0501 160.276 66.7746 157.602 65.5338C155.418 64.5253 153.536 65.5422 152.899 66.985Z" fill="#12B76A"/>
<path id="Vector_62" d="M161.226 65.9968C161.589 67.7537 163.233 69.1657 166.649 67.9367C170.061 66.7106 172.809 62.294 172.809 62.294C172.809 62.294 171.879 63.4788 169.506 63.241C167.136 63.0045 166.721 61.8336 164.019 62.34C161.814 62.7574 160.935 64.5493 161.226 65.9968Z" fill="#12B76A"/>
<path id="Vector_63" d="M154.218 62.2207C155.145 63.7487 157.173 64.5341 159.973 62.2358C162.776 59.927 163.877 54.8409 163.877 54.8409C163.877 54.8409 163.401 56.2698 161.089 56.8432C158.771 57.4213 157.993 56.4528 155.615 57.8408C153.687 58.9725 153.456 60.9491 154.218 62.2207Z" fill="#12B76A"/>
</g>
<g id="Group_31">
<path id="Vector_64" d="M133.609 89.5986C134.713 90.7134 136.604 90.9634 138.517 88.429C140.429 85.8824 140.319 81.3317 140.319 81.3317C140.319 81.3317 140.209 82.6434 138.355 83.6132C136.506 84.5753 135.646 83.9121 133.902 85.5834C132.484 86.947 132.7 88.6841 133.609 89.5986Z" fill="#12B76A"/>
<path id="Vector_65" d="M135.348 82.9605C136.791 83.2075 138.359 82.3748 138.441 79.407C138.517 76.4396 135.973 73.0324 135.973 73.0324C135.973 73.0324 136.598 74.0941 135.711 75.8291C134.826 77.5679 133.811 77.5312 133.39 79.7439C133.052 81.5468 134.159 82.7467 135.348 82.9605Z" fill="#12B76A"/>
<path id="Vector_66" d="M130.371 87.1818C131.814 86.9318 133.015 85.6201 132.097 82.8019C131.173 79.9792 127.626 77.6261 127.626 77.6261C127.626 77.6261 128.572 78.4132 128.325 80.3468C128.071 82.2838 127.102 82.5886 127.449 84.8152C127.739 86.6172 129.179 87.3863 130.371 87.1818Z" fill="#12B76A"/>
</g>
<g id="Group_32">
<path id="Vector_67" d="M147.748 68.0096C148.965 68.0037 150.133 67.09 149.767 64.6547C149.392 62.2135 146.811 59.8005 146.811 59.8005C146.811 59.8005 147.476 60.5725 147.007 62.1262C146.534 63.6757 145.701 63.7912 145.68 65.667C145.668 67.1891 146.747 68.0172 147.748 68.0096Z" fill="#12B76A"/>
<path id="Vector_68" d="M145.005 63.4468C145.926 62.7789 146.316 61.4613 144.715 59.8022C143.113 58.1461 139.844 57.7101 139.844 57.7101C139.844 57.7101 140.768 57.9374 141.25 59.3722C141.732 60.8057 141.161 61.35 142.159 62.7852C142.973 63.9514 144.239 63.9898 145.005 63.4468Z" fill="#12B76A"/>
<path id="Vector_69" d="M144.648 68.4915C145.292 67.5585 145.216 66.1797 143.157 65.1548C141.089 64.1357 137.859 64.8225 137.859 64.8225C137.859 64.8225 138.811 64.7281 139.747 65.9175C140.684 67.1056 140.324 67.8085 141.748 68.8271C142.904 69.6442 144.112 69.2661 144.648 68.4915Z" fill="#12B76A"/>
</g>
<g id="Group_33">
<path id="Vector_70" d="M196.789 114.226C195.361 115.406 194.855 117.619 197.649 120.15C200.446 122.684 205.844 123.043 205.844 123.043C205.844 123.043 204.301 122.77 203.355 120.481C202.419 118.188 203.294 117.236 201.504 115.008C200.055 113.189 197.975 113.25 196.789 114.226Z" fill="#12B76A"/>
<path id="Vector_71" d="M204.457 116.98C204.006 118.655 204.823 120.597 208.318 121.012C211.823 121.427 216.117 118.783 216.117 118.783C216.117 118.783 214.797 119.408 212.842 118.174C210.881 116.941 211.036 115.742 208.465 115.019C206.373 114.421 204.829 115.589 204.457 116.98Z" fill="#12B76A"/>
<path id="Vector_72" d="M200.001 110.651C200.144 112.381 201.559 113.944 204.991 113.161C208.428 112.374 211.59 108.437 211.59 108.437C211.59 108.437 210.547 109.468 208.3 108.968C206.04 108.46 205.777 107.287 203.114 107.461C200.949 107.601 199.885 109.219 200.001 110.651Z" fill="#12B76A"/>
</g>
<g id="Group_34">
<path id="Vector_73" d="M180.577 117.712C179.467 118.633 179.079 120.35 181.242 122.319C183.419 124.281 187.604 124.562 187.604 124.562C187.604 124.562 186.415 124.345 185.677 122.572C184.951 120.789 185.628 120.054 184.237 118.325C183.112 116.91 181.498 116.958 180.577 117.712Z" fill="#12B76A"/>
<path id="Vector_74" d="M186.533 119.856C186.185 121.154 186.816 122.662 189.534 122.985C192.251 123.304 195.588 121.253 195.588 121.253C195.588 121.253 194.56 121.738 193.041 120.78C191.519 119.819 191.641 118.895 189.643 118.328C188.027 117.867 186.825 118.776 186.533 119.856Z" fill="#12B76A"/>
<path id="Vector_75" d="M183.069 114.939C183.176 116.283 184.279 117.498 186.945 116.89C189.611 116.277 192.066 113.221 192.066 113.221C192.066 113.221 191.258 114.023 189.51 113.631C187.757 113.24 187.552 112.326 185.484 112.46C183.804 112.573 182.98 113.829 183.069 114.939Z" fill="#12B76A"/>
</g>
<g id="Group_35">
<path id="Vector_76" d="M171.122 124.423C170.275 125.128 169.979 126.435 171.632 127.938C173.291 129.439 176.491 129.652 176.491 129.652C176.491 129.652 175.579 129.489 175.017 128.133C174.459 126.773 174.977 126.21 173.92 124.89C173.059 123.808 171.824 123.845 171.122 124.423Z" fill="#12B76A"/>
<path id="Vector_77" d="M175.677 126.058C175.409 127.05 175.891 128.202 177.965 128.451C180.042 128.693 182.589 127.127 182.589 127.127C182.589 127.127 181.805 127.496 180.646 126.766C179.484 126.034 179.576 125.326 178.054 124.893C176.815 124.54 175.896 125.234 175.677 126.058Z" fill="#12B76A"/>
<path id="Vector_78" d="M173.029 122.308C173.111 123.333 173.952 124.26 175.987 123.795C178.022 123.327 179.897 120.993 179.897 120.993C179.897 120.993 179.281 121.605 177.945 121.307C176.606 121.008 176.451 120.313 174.874 120.414C173.59 120.5 172.959 121.457 173.029 122.308Z" fill="#12B76A"/>
</g>
<g id="Group_36">
<path id="Vector_79" d="M162.969 133.224C162.387 133.709 162.186 134.605 163.32 135.638C164.458 136.666 166.654 136.814 166.654 136.814C166.654 136.814 166.029 136.701 165.644 135.77C165.26 134.837 165.617 134.451 164.888 133.544C164.296 132.803 163.451 132.828 162.969 133.224Z" fill="#12B76A"/>
<path id="Vector_80" d="M166.085 134.346C165.902 135.028 166.234 135.819 167.656 135.988C169.08 136.155 170.831 135.078 170.831 135.078C170.831 135.078 170.294 135.332 169.498 134.831C168.699 134.329 168.763 133.843 167.717 133.547C166.866 133.303 166.237 133.782 166.085 134.346Z" fill="#12B76A"/>
<path id="Vector_81" d="M164.277 131.772C164.335 132.477 164.914 133.111 166.311 132.794C167.708 132.472 168.992 130.869 168.992 130.869C168.992 130.869 168.574 131.291 167.656 131.085C166.734 130.882 166.631 130.401 165.548 130.472C164.667 130.531 164.231 131.188 164.277 131.772Z" fill="#12B76A"/>
</g>
<g id="Group_37">
<path id="Vector_82" d="M165.886 124.056C166.758 124.309 167.795 123.903 168.057 122.07C168.313 120.235 166.975 117.944 166.975 117.944C166.975 117.944 167.286 118.645 166.615 119.659C165.94 120.673 165.315 120.579 164.903 121.92C164.562 123.012 165.16 123.841 165.886 124.056Z" fill="#12B76A"/>
<path id="Vector_83" d="M164.899 120.174C165.706 119.899 166.271 119.032 165.475 117.495C164.678 115.958 162.422 114.939 162.422 114.939C162.422 114.939 163.035 115.305 163.075 116.44C163.111 117.577 162.583 117.842 162.998 119.088C163.331 120.103 164.234 120.406 164.899 120.174Z" fill="#12B76A"/>
<path id="Vector_84" d="M163.554 123.731C164.222 123.199 164.463 122.191 163.2 121.011C161.931 119.833 159.461 119.633 159.461 119.633C159.461 119.633 160.169 119.771 160.583 120.823C161.001 121.881 160.596 122.311 161.398 123.345C162.056 124.185 163.005 124.171 163.554 123.731Z" fill="#12B76A"/>
</g>
<g id="Group_38">
<path id="Vector_85" d="M177.089 115.138C178.23 115.35 179.498 114.706 179.605 112.344C179.706 109.977 177.717 107.232 177.717 107.232C177.717 107.232 178.199 108.084 177.476 109.457C176.744 110.831 175.936 110.785 175.576 112.543C175.277 113.972 176.14 114.953 177.089 115.138Z" fill="#12B76A"/>
<path id="Vector_86" d="M175.344 110.325C176.335 109.872 176.948 108.704 175.753 106.845C174.545 104.991 171.547 103.978 171.547 103.978C171.547 103.978 172.376 104.365 172.566 105.802C172.754 107.241 172.114 107.645 172.794 109.18C173.343 110.429 174.527 110.7 175.344 110.325Z" fill="#12B76A"/>
<path id="Vector_87" d="M174.08 115.014C174.861 114.256 175.044 112.942 173.293 111.597C171.533 110.258 168.367 110.308 168.367 110.308C168.367 110.308 169.282 110.398 169.941 111.684C170.606 112.979 170.142 113.578 171.292 114.79C172.228 115.775 173.436 115.642 174.08 115.014Z" fill="#12B76A"/>
</g>
<g id="Group_39">
<path id="Vector_88" d="M193.037 111.722C194.504 112.527 196.52 112.214 197.719 109.035C198.912 105.841 197.42 101.201 197.42 101.201C197.42 101.201 197.704 102.583 196.096 104.136C194.486 105.689 193.403 105.267 192.122 107.507C191.079 109.334 191.82 111.053 193.037 111.722Z" fill="#12B76A"/>
<path id="Vector_89" d="M192.799 104.376C194.358 104.197 195.718 102.869 194.907 99.796C194.087 96.7215 190.442 94.0012 190.442 94.0012C190.442 94.0012 191.402 94.9039 191.018 96.9522C190.634 99.0004 189.582 99.2732 189.825 101.666C190.021 103.618 191.515 104.524 192.799 104.376Z" fill="#12B76A"/>
<path id="Vector_90" d="M188.973 110.218C190.376 109.523 191.215 107.812 189.421 105.195C187.612 102.583 183.266 101.236 183.266 101.236C183.266 101.236 184.474 101.76 184.803 103.822C185.132 105.884 184.227 106.489 185.257 108.669C186.1 110.432 187.807 110.785 188.973 110.218Z" fill="#12B76A"/>
</g>
<g id="Group_40">
<path id="Vector_91" d="M172.989 74.8033C173.675 75.0487 174.524 74.7759 174.823 73.3284C175.121 71.8784 174.164 69.9824 174.164 69.9824C174.164 69.9824 174.38 70.5588 173.794 71.3337C173.206 72.1082 172.712 72.0028 172.315 73.0506C171.989 73.9052 172.425 74.5946 172.989 74.8033Z" fill="#12B76A"/>
<path id="Vector_92" d="M172.391 71.6622C173.05 71.4792 173.544 70.816 172.989 69.5515C172.428 68.2875 170.68 67.3633 170.68 67.3633C170.68 67.3633 171.152 67.685 171.125 68.591C171.098 69.4984 170.665 69.6843 170.93 70.7C171.147 71.523 171.848 71.8114 172.391 71.6622Z" fill="#12B76A"/>
<path id="Vector_93" d="M171.145 74.4268C171.7 74.0363 171.947 73.2433 170.999 72.2402C170.047 71.2367 168.086 70.9547 168.086 70.9547C168.086 70.9547 168.641 71.0997 168.922 71.9594C169.202 72.8242 168.858 73.1475 169.446 74.0123C169.925 74.7135 170.685 74.7518 171.145 74.4268Z" fill="#12B76A"/>
</g>
<g id="Group_41">
<path id="Vector_94" d="M196.738 65.931C197.101 66.8261 198.111 67.4176 199.803 66.4449C201.493 65.4617 202.524 62.8552 202.524 62.8552C202.524 62.8552 202.149 63.569 200.864 63.6757C199.587 63.7794 199.257 63.1984 197.872 63.7276C196.741 64.1576 196.446 65.1931 196.738 65.931Z" fill="#12B76A"/>
<path id="Vector_95" d="M199.311 62.5807C200.067 63.0656 201.156 62.9712 201.916 61.3121C202.672 59.6466 202.044 57.1059 202.044 57.1059C202.044 57.1059 202.144 57.8564 201.226 58.628C200.305 59.3996 199.741 59.1373 198.972 60.29C198.349 61.2265 198.685 62.1751 199.311 62.5807Z" fill="#12B76A"/>
<path id="Vector_96" d="M195.478 63.7824C196.357 63.9852 197.351 63.5324 197.506 61.7114C197.658 59.8933 196.213 57.7067 196.213 57.7067C196.213 57.7067 196.561 58.3839 195.954 59.4177C195.353 60.4532 194.728 60.3938 194.392 61.7388C194.121 62.8308 194.752 63.6116 195.478 63.7824Z" fill="#12B76A"/>
</g>
<g id="Group_42">
<path id="Vector_97" d="M51.3153 38.1171C51.1872 37.1714 50.3574 36.3526 48.4942 36.8835C46.6277 37.4172 45.0078 39.6759 45.0078 39.6759C45.0078 39.6759 45.5445 39.0797 46.7997 39.2884C48.0595 39.4988 48.2316 40.1422 49.6925 39.9656C50.8823 39.8251 51.4207 38.8993 51.3153 38.1171Z" fill="#12B76A"/>
<path id="Vector_98" d="M48.0214 40.7215C47.413 40.0676 46.3437 39.8935 45.2095 41.3072C44.0813 42.7251 44.0703 45.321 44.0703 45.321C44.0703 45.321 44.1559 44.5739 45.2264 44.0566C46.2952 43.5334 46.7742 43.9255 47.7928 43.0029C48.6209 42.2529 48.5265 41.2616 48.0214 40.7215Z" fill="#12B76A"/>
<path id="Vector_99" d="M51.9927 40.4884C51.1996 40.0811 50.1308 40.278 49.5392 41.9877C48.9553 43.7016 49.815 46.1538 49.815 46.1538C49.815 46.1538 49.6476 45.4189 50.4753 44.5693C51.3096 43.7197 51.8949 43.9259 52.54 42.7163C53.0649 41.7326 52.6483 40.8299 51.9927 40.4884Z" fill="#12B76A"/>
</g>
<g id="Group_43">
<path id="Vector_100" d="M58.5252 40.4289C59.2454 41.0529 60.4086 41.1229 61.4593 39.4925C62.5117 37.8608 62.2385 35.0975 62.2385 35.0975C62.2385 35.0975 62.2296 35.8981 61.1482 36.5677C60.0642 37.2402 59.5089 36.8725 58.5269 37.9675C57.7262 38.8584 57.9303 39.9086 58.5252 40.4289Z" fill="#12B76A"/>
<path id="Vector_101" d="M59.2776 36.302C60.1651 36.3923 61.0817 35.8189 61.0025 34.0071C60.9156 32.1983 59.2135 30.2391 59.2135 30.2391C59.2135 30.2391 59.6419 30.858 59.1798 31.95C58.7193 33.0509 58.1 33.0724 57.9444 34.4372C57.8166 35.5456 58.5427 36.2291 59.2776 36.302Z" fill="#12B76A"/>
<path id="Vector_102" d="M56.4434 39.0974C57.3065 38.8824 57.9807 38.0286 57.296 36.3526C56.6083 34.6796 54.3438 33.4046 54.3438 33.4046C54.3438 33.4046 54.9534 33.844 54.8927 35.0304C54.824 36.2181 54.2476 36.4488 54.5617 37.7862C54.8147 38.8706 55.725 39.2728 56.4434 39.0974Z" fill="#12B76A"/>
</g>
<g id="Group_44">
<path id="Vector_103" d="M51.4076 28.4121C52.7724 27.9791 53.7687 26.5393 52.5059 23.9227C51.2356 21.3027 47.4844 19.4943 47.4844 19.4943C47.4844 19.4943 48.503 20.1335 48.5199 22.0397C48.5304 23.9539 47.626 24.3776 48.2652 26.4866C48.7775 28.2077 50.2823 28.7659 51.4076 28.4121Z" fill="#12B76A"/>
<path id="Vector_104" d="M46.7156 24.2246C47.5239 23.157 47.5041 21.5346 45.1265 20.2229C42.7414 18.9205 38.9062 19.5732 38.9062 19.5732C38.9062 19.5732 40.0333 19.5078 41.07 20.9519C42.1178 22.4006 41.6603 23.2084 43.2874 24.4746C44.605 25.5008 46.0494 25.1104 46.7156 24.2246Z" fill="#12B76A"/>
<path id="Vector_105" d="M48.0743 30.0333C48.474 28.76 47.9094 27.2303 45.23 26.7956C42.5476 26.3744 39.1484 28.2764 39.1484 28.2764C39.1484 28.2764 40.1899 27.84 41.6601 28.8452C43.1286 29.8579 42.973 30.7758 44.9268 31.4162C46.5143 31.9395 47.7403 31.0899 48.0743 30.0333Z" fill="#12B76A"/>
</g>
<g id="Group_45">
<path id="Vector_106" d="M100.83 106.489C102.184 107.989 104.613 108.431 107.254 105.275C109.885 102.101 110.03 96.2033 110.03 96.2033C110.03 96.2033 109.807 97.8987 107.354 99.0291C104.889 100.159 103.819 99.2483 101.467 101.3C99.5458 102.968 99.7073 105.236 100.83 106.489Z" fill="#12B76A"/>
<path id="Vector_107" d="M103.476 97.9864C105.326 98.4101 107.412 97.4252 107.707 93.5943C107.995 89.7495 104.911 85.1825 104.911 85.1825C104.911 85.1825 105.646 86.5962 104.401 88.7861C103.139 90.9773 101.834 90.8664 101.151 93.7086C100.595 96.0115 101.947 97.6398 103.476 97.9864Z" fill="#12B76A"/>
<path id="Vector_108" d="M96.7896 103.142C98.6684 102.913 100.312 101.285 99.2983 97.5791C98.275 93.8747 93.8357 90.6008 93.8357 90.6008C93.8357 90.6008 95.0116 91.6924 94.5659 94.169C94.1207 96.6625 92.8444 96.993 93.1585 99.8968C93.4178 102.25 95.2313 103.328 96.7896 103.142Z" fill="#12B76A"/>
</g>
<g id="Group_46">
<g id="Group_47">
<path id="Vector_109" d="M78.8317 89.5867C80.2222 89.0268 81.1527 87.447 79.6247 84.8089C78.0938 82.1661 74.0234 80.5601 74.0234 80.5601C74.0234 80.5601 75.1445 81.1517 75.309 83.1464C75.4675 85.1441 74.5572 85.6627 75.3895 87.8189C76.0607 89.5804 77.6756 90.0455 78.8317 89.5867Z" fill="#12B76A"/>
</g>
<g id="Group_48">
<path id="Vector_110" d="M81.6959 95.0721C81.7339 96.3408 82.7146 97.5395 85.2536 97.1035C87.7926 96.6583 90.2558 93.9042 90.2558 93.9042C90.2558 93.9042 89.4597 94.6134 87.8293 94.1635C86.1976 93.7014 86.0559 92.8337 84.1021 92.8598C82.5084 92.8759 81.6698 94.0244 81.6959 95.0721Z" fill="#12B76A"/>
<path id="Vector_111" d="M86.4049 92.0984C87.117 93.0424 88.5046 93.4219 90.2008 91.7139C91.8966 90 92.2794 86.5734 92.2794 86.5734C92.2794 86.5734 92.0585 87.5478 90.5714 88.0845C89.0814 88.6183 88.502 88.0343 87.0289 89.1112C85.8315 89.986 85.8121 91.3142 86.4049 92.0984Z" fill="#12B76A"/>
<path id="Vector_112" d="M81.1303 91.8391C82.1203 92.4884 83.5614 92.3817 84.583 90.2044C85.5987 88.0204 84.812 84.6626 84.812 84.6626C84.812 84.6626 84.9309 85.6568 83.7111 86.6586C82.4909 87.6637 81.7468 87.31 80.7176 88.8164C79.8844 90.0425 80.3099 91.2943 81.1303 91.8391Z" fill="#12B76A"/>
</g>
<g id="Group_49">
<path id="Vector_113" d="M76.875 92.4032C76.8413 91.2686 75.9601 90.1951 73.685 90.5915C71.4053 90.9941 69.2031 93.4737 69.2031 93.4737C69.2031 93.4737 69.914 92.8303 71.3796 93.233C72.8434 93.6386 72.9716 94.4194 74.7239 94.395C76.1507 94.3752 76.9029 93.3455 76.875 92.4032Z" fill="#12B76A"/>
<path id="Vector_114" d="M72.6582 95.0839C72.0161 94.2331 70.7685 93.8979 69.2498 95.4347C67.7324 96.9749 67.3984 100.046 67.3984 100.046C67.3984 100.046 67.5983 99.1741 68.9264 98.6909C70.2592 98.209 70.7837 98.7323 72.0983 97.7621C73.1739 96.9753 73.1891 95.7872 72.6582 95.0839Z" fill="#12B76A"/>
<path id="Vector_115" d="M77.4056 95.3036C76.5135 94.7213 75.2233 94.8217 74.3113 96.7751C73.4057 98.7348 74.1174 101.745 74.1174 101.745C74.1174 101.745 74.009 100.856 75.101 99.9533C76.196 99.0459 76.8609 99.3676 77.7805 98.0121C78.5234 96.9108 78.1393 95.7872 77.4056 95.3036Z" fill="#12B76A"/>
</g>
</g>
<g id="Group_50">
<g id="Group_51">
<path id="Vector_116" d="M42.4823 62.558C43.7067 61.6932 44.2481 59.9443 42.1559 57.7282C40.0562 55.508 35.7266 54.8827 35.7266 54.8827C35.7266 54.8827 36.9543 55.1998 37.5716 57.1034C38.1846 59.0096 37.4194 59.7263 38.7277 61.6342C39.7847 63.1921 41.4653 63.2714 42.4823 62.558Z" fill="#12B76A"/>
</g>
<g id="Group_52">
<path id="Vector_117" d="M46.5416 67.238C46.8726 68.4624 48.1017 69.4035 50.4716 68.3941C52.8382 67.3755 54.601 64.129 54.601 64.129C54.601 64.129 53.9914 65.0026 52.3032 64.9402C50.6091 64.8672 50.2688 64.0556 48.3732 64.5316C46.8266 64.914 46.2731 66.224 46.5416 67.238Z" fill="#12B76A"/>
<path id="Vector_118" d="M50.4443 63.2579C51.3529 64.0143 52.7898 64.0632 54.0496 62.0103C55.3048 59.9515 54.8865 56.5296 54.8865 56.5296C54.8865 56.5296 54.8971 57.5284 53.5736 58.3931C52.2467 59.2562 51.5485 58.8203 50.3637 60.2066C49.3969 61.3348 49.6866 62.6326 50.4443 63.2579Z" fill="#12B76A"/>
<path id="Vector_119" d="M45.2397 64.2217C46.3545 64.629 47.7315 64.1914 48.224 61.8366C48.7089 59.4788 47.1687 56.3925 47.1687 56.3925C47.1687 56.3925 47.5148 57.3319 46.5603 58.5884C45.6028 59.8448 44.7974 59.674 44.1414 61.3762C43.6156 62.7608 44.3168 63.8831 45.2397 64.2217Z" fill="#12B76A"/>
</g>
<g id="Group_53">
<path id="Vector_120" d="M41.2396 65.7526C40.9453 64.6547 39.8381 63.8127 37.7169 64.7234C35.5923 65.6401 34.0234 68.559 34.0234 68.559C34.0234 68.559 34.5631 67.7722 36.0806 67.8241C37.6009 67.8835 37.9058 68.6125 39.6032 68.1854C40.9912 67.8372 41.4837 66.6646 41.2396 65.7526Z" fill="#12B76A"/>
<path id="Vector_121" d="M37.7494 69.3301C36.9277 68.6501 35.6358 68.6117 34.5118 70.4555C33.3923 72.3051 33.7735 75.372 33.7735 75.372C33.7735 75.372 33.7659 74.4757 34.9477 73.6978C36.1342 72.9245 36.7654 73.3107 37.8224 72.0631C38.6846 71.0533 38.4266 69.8947 37.7494 69.3301Z" fill="#12B76A"/>
<path id="Vector_122" d="M42.4186 68.4519C41.4168 68.0918 40.1844 68.4869 39.7467 70.5988C39.3167 72.7124 40.7043 75.4787 40.7043 75.4787C40.7043 75.4787 40.3914 74.6401 41.2473 73.5085C42.1011 72.3756 42.8259 72.5328 43.4069 71.0032C43.8778 69.7602 43.245 68.7538 42.4186 68.4519Z" fill="#12B76A"/>
</g>
</g>
<g id="Group_54">
<g id="Group_55">
<g id="Group_56">
<path id="Vector_123" d="M102.344 72.4506L102.724 73.0206C102.724 73.0206 102.811 72.9565 102.977 72.8368C103.145 72.7204 103.381 72.5387 103.671 72.2963C104.252 71.8148 105.026 71.0715 105.901 70.1548C106.785 69.2475 107.78 68.1597 109.005 67.1992C109.617 66.7228 110.288 66.2759 111.028 65.9466C111.78 65.6283 112.564 65.3361 113.376 65.151C114.182 64.9364 115.014 64.8411 115.833 64.7643C116.654 64.7222 117.467 64.7112 118.25 64.7791C119.819 64.8946 121.266 65.1995 122.48 65.5393C123.696 65.8816 124.685 66.248 125.371 66.5179C126.053 66.8 126.443 66.9614 126.443 66.9614C126.443 66.9614 126.057 66.7903 125.382 66.4909C124.703 66.2034 123.721 65.8112 122.51 65.4364C121.299 65.0641 119.851 64.7201 118.268 64.5632C117.477 64.4743 116.653 64.4641 115.816 64.4861C114.982 64.5426 114.129 64.6189 113.298 64.8171C112.46 64.9861 111.649 65.2644 110.865 65.5739C110.078 65.8998 109.367 66.3492 108.72 66.8261C107.428 67.7882 106.393 68.8664 105.489 69.748C104.593 70.6397 103.823 71.3409 103.255 71.7874C102.972 72.0125 102.745 72.1782 102.585 72.2832C102.428 72.3924 102.344 72.4506 102.344 72.4506Z" fill="#635042"/>
</g>
</g>
</g>
<g id="Group_57">
<path id="Vector_124" d="M190.945 88.6672L193.397 90.6299C193.397 90.6299 193.617 90.2744 194.004 89.6521C194.215 89.3536 194.4 88.9522 194.605 88.4935C194.831 88.0419 195.032 87.5174 195.2 86.9318C195.986 84.6095 196.105 81.4173 195.605 78.4255C195.087 75.4273 194.068 72.6032 193.092 70.5992C192.137 68.5864 191.308 67.3633 191.308 67.3633C191.308 67.3633 191.967 68.6931 192.638 70.7839C193.33 72.8625 193.94 75.7384 194.044 78.5903C194.132 81.4481 193.613 84.2296 192.717 86.0017C192.522 86.4562 192.305 86.8479 192.079 87.17C191.872 87.5056 191.689 87.7936 191.497 87.9968C191.147 88.4231 190.945 88.6672 190.945 88.6672Z" fill="url(#paint9_linear_5506_17114)"/>
</g>
<g id="Group_58">
<path id="Vector_125" d="M67.9994 13.6852C69.9393 14.3914 72.3396 13.6316 73.2044 9.53256C74.0628 5.42423 71.3804 0.0455437 71.3804 0.0455437C71.3804 0.0455437 71.9795 1.67724 70.3116 3.86843C68.6403 6.05667 67.24 5.75015 66.1025 8.71798C65.1737 11.1373 66.3981 13.0982 67.9994 13.6852Z" fill="#12B76A"/>
<path id="Vector_126" d="M67.2692 17.0569C67.1026 18.4799 67.9965 19.9817 70.9095 19.9117C73.825 19.8354 77.0319 17.1636 77.0319 17.1636C77.0319 17.1636 76.0238 17.8302 74.2762 17.0523C72.5273 16.2702 72.5134 15.2755 70.3234 14.9796C68.5412 14.7392 67.4108 15.878 67.2692 17.0569Z" fill="#12B76A"/>
<path id="Vector_127" d="M65.7845 15.8325C64.8957 15.2667 63.622 15.3733 62.7332 17.3149C61.8469 19.2654 62.5852 22.2315 62.5852 22.2315C62.5852 22.2315 62.468 21.3562 63.5402 20.4518C64.6153 19.5504 65.2768 19.8603 66.1724 18.509C66.9022 17.4111 66.5135 16.3039 65.7845 15.8325Z" fill="#12B76A"/>
<path id="Vector_128" d="M63.4983 14.2999C65.0798 13.1944 65.7814 10.9543 63.102 8.1024C60.4166 5.25051 54.8672 4.42286 54.8672 4.42286C54.8672 4.42286 56.4378 4.83901 57.2216 7.28655C58.0037 9.73746 57.0234 10.6431 58.6842 13.1042C60.0384 15.1022 62.187 15.2148 63.4983 14.2999Z" fill="#12B76A"/>
<path id="Vector_129" d="M64.6383 6.5622C65.6114 5.8838 66.0428 4.50677 64.3942 2.75449C62.7456 1.00053 59.3359 0.492891 59.3359 0.492891C59.3359 0.492891 60.3015 0.74882 60.7817 2.25276C61.2636 3.75797 60.6594 4.3162 61.6815 5.82731C62.5137 7.05635 63.8343 7.12339 64.6383 6.5622Z" fill="#12B76A"/>
<path id="Vector_130" d="M60.2563 16.8221C59.4573 15.9468 58.0343 15.6967 56.511 17.5574C54.9847 19.4193 54.9219 22.8673 54.9219 22.8673C54.9219 22.8673 55.0517 21.8761 56.4785 21.2053C57.9121 20.5311 58.542 21.059 59.9084 19.851C61.0207 18.8657 60.917 17.5464 60.2563 16.8221Z" fill="#12B76A"/>
<path id="Vector_131" d="M66.3732 20.7229C65.5422 21.5666 65.368 23.0014 67.3062 24.421C69.2491 25.847 72.6942 25.7247 72.6942 25.7247C72.6942 25.7247 71.6971 25.6484 70.9529 24.2591C70.2024 22.8635 70.6965 22.205 69.4156 20.9059C68.3721 19.851 67.0609 20.023 66.3732 20.7229Z" fill="#12B76A"/>
</g>
<g id="Group_59">
<path id="Vector_132" d="M94.0261 9.28253C94.1893 10.3745 95.1561 11.3047 97.2958 10.6642C99.4385 10.0174 101.275 7.39154 101.275 7.39154C101.275 7.39154 100.663 8.0868 99.213 7.86713C97.7613 7.64156 97.5463 6.90329 95.8669 7.13055C94.4971 7.31101 93.8916 8.38573 94.0261 9.28253Z" fill="#12B76A"/>
<path id="Vector_133" d="M97.7718 6.23587C98.4857 6.97877 99.7206 7.16007 101.002 5.5132C102.283 3.86042 102.258 0.871092 102.258 0.871092C102.258 0.871092 102.17 1.73121 100.944 2.34889C99.7177 2.96362 99.1582 2.51796 98.0008 3.6007C97.0597 4.47895 97.1845 5.62113 97.7718 6.23587Z" fill="#12B76A"/>
<path id="Vector_134" d="M93.1933 6.5622C94.1129 7.0184 95.3424 6.77892 95.9963 4.79643C96.6443 2.81057 95.6164 7.62939e-06 95.6164 7.62939e-06C95.6164 7.62939e-06 95.8222 0.843681 94.8752 1.8345C93.9312 2.8287 93.254 2.60018 92.5267 4.00166C91.9352 5.14385 92.431 6.17768 93.1933 6.5622Z" fill="#12B76A"/>
</g>
<g id="Group_60">
<path id="Vector_135" d="M75.2143 45.4492C76.1963 45.5744 77.2457 44.958 77.2136 42.9422C77.174 40.9235 75.3366 38.6846 75.3366 38.6846C75.3366 38.6846 75.794 39.3862 75.2451 40.5908C74.6944 41.8017 74.0038 41.8064 73.79 43.3221C73.6163 44.5571 74.3984 45.3438 75.2143 45.4492Z" fill="#12B76A"/>
<path id="Vector_136" d="M73.4781 41.4446C74.3015 41.0087 74.7577 39.979 73.6412 38.465C72.5189 36.9433 69.9141 36.2325 69.9141 36.2325C69.9141 36.2325 70.6384 36.5221 70.8733 37.7389C71.1081 38.9562 70.5866 39.331 71.2422 40.603C71.7789 41.6381 72.8009 41.8106 73.4781 41.4446Z" fill="#12B76A"/>
<path id="Vector_137" d="M72.6397 45.504C73.2666 44.8147 73.3564 43.6877 71.7888 42.637C70.2212 41.5846 67.5312 41.795 67.5312 41.795C67.5312 41.795 68.3163 41.8207 68.9433 42.887C69.5715 43.9482 69.2114 44.482 70.2533 45.4581C71.1041 46.2499 72.1215 46.0711 72.6397 45.504Z" fill="#12B76A"/>
</g>
<g id="Group_61">
<path id="Vector_138" d="M75.6493 31.4896C76.5339 31.6026 77.4779 31.0473 77.4488 29.2309C77.4138 27.412 75.7577 25.3941 75.7577 25.3941C75.7577 25.3941 76.1709 26.027 75.6771 27.111C75.1813 28.2013 74.5577 28.2077 74.3655 29.5725C74.2099 30.6843 74.9161 31.3952 75.6493 31.4896Z" fill="#12B76A"/>
<path id="Vector_139" d="M74.0787 27.8813C74.8199 27.4879 75.2302 26.5608 74.2238 25.1956C73.2127 23.8248 70.8672 23.1844 70.8672 23.1844C70.8672 23.1844 71.5199 23.4466 71.7303 24.5416C71.9436 25.6395 71.4739 25.9764 72.0642 27.122C72.5478 28.055 73.4686 28.2106 74.0787 27.8813Z" fill="#12B76A"/>
<path id="Vector_140" d="M73.329 31.5398C73.8932 30.9191 73.9741 29.9034 72.5621 28.9552C71.1501 28.0082 68.7266 28.1958 68.7266 28.1958C68.7266 28.1958 69.4341 28.222 69.9986 29.1812C70.5661 30.1374 70.241 30.6194 71.1787 31.4989C71.9457 32.2093 72.8623 32.0508 73.329 31.5398Z" fill="#12B76A"/>
</g>
<g id="Group_62">
<path id="Vector_141" d="M179.992 73.6704C179.471 72.3009 179.983 70.5959 182.89 69.9415C185.793 69.2905 189.639 71.1461 189.639 71.1461C189.639 71.1461 188.477 70.7342 186.937 71.9375C185.397 73.1455 185.629 74.1321 183.53 74.9753C181.828 75.6558 180.426 74.8067 179.992 73.6704Z" fill="#12B76A"/>
<path id="Vector_142" d="M179.967 70.2712C180.751 69.6965 181.078 68.5649 179.702 67.1605C178.323 65.7573 175.523 65.3972 175.523 65.3972C175.523 65.3972 176.319 65.5941 176.743 66.8126C177.158 68.0341 176.676 68.5025 177.536 69.718C178.234 70.7089 179.318 70.7426 179.967 70.2712Z" fill="#12B76A"/>
<path id="Vector_143" d="M181.583 68.2474C182.071 69.4233 183.413 70.1565 185.594 68.7504C187.775 67.3384 189.044 63.8035 189.044 63.8035C189.044 63.8035 188.568 64.7791 186.897 64.9899C185.231 65.2033 184.78 64.4469 182.986 65.237C181.525 65.8779 181.168 67.2777 181.583 68.2474Z" fill="#12B76A"/>
</g>
<g id="Group_63">
<path id="Vector_144" d="M195.584 78.3766C194.388 77.855 193.629 76.4641 195.029 74.2134C196.423 71.9653 200 70.6878 200 70.6878C200 70.6878 199.015 71.1668 198.817 72.8912C198.621 74.622 199.39 75.0887 198.618 76.9477C197.987 78.4495 196.575 78.8096 195.584 78.3766Z" fill="#12B76A"/>
<path id="Vector_145" d="M193.412 76.2722C193.537 75.4167 193.018 74.5048 191.271 74.5018C189.523 74.4989 187.547 76.0513 187.547 76.0513C187.547 76.0513 188.172 75.6685 189.206 76.1592C190.24 76.6597 190.236 77.2576 191.545 77.4709C192.607 77.6412 193.305 76.9797 193.412 76.2722Z" fill="#12B76A"/>
<path id="Vector_146" d="M193.123 73.9874C194.176 74.4099 195.478 74.0178 195.944 71.7566C196.408 69.4937 194.959 66.4846 194.959 66.4846C194.959 66.4846 195.279 67.3966 194.373 68.586C193.468 69.7754 192.708 69.5924 192.089 71.2182C191.583 72.5434 192.251 73.6459 193.123 73.9874Z" fill="#12B76A"/>
</g>
<g id="Group_64">
<g id="Group_65">
<path id="Vector_147" d="M46.3227 108.516C46.6322 107.046 45.8425 105.395 42.7987 105.192C39.7504 104.993 36.1484 107.479 36.1484 107.479C36.1484 107.479 37.2662 106.877 39.0125 107.852C40.7585 108.832 40.6839 109.877 42.9392 110.388C44.7753 110.813 46.0605 109.729 46.3227 108.516Z" fill="#12B76A"/>
</g>
<g id="Group_66">
<path id="Vector_148" d="M52.4893 109.19C53.5627 109.864 55.1029 109.718 56.1566 107.368C57.2014 105.012 56.2864 101.431 56.2864 101.431C56.2864 101.431 56.4332 102.488 55.1506 103.591C53.8604 104.687 53.058 104.323 51.9926 105.961C51.1181 107.293 51.6013 108.63 52.4893 109.19Z" fill="#12B76A"/>
<path id="Vector_149" d="M52.6301 103.621C53.8119 103.557 54.8993 102.615 54.425 100.254C53.9477 97.8915 51.3155 95.6637 51.3155 95.6637C51.3155 95.6637 52.0019 96.3914 51.6174 97.927C51.2303 99.4579 50.425 99.6152 50.4967 101.437C50.5561 102.919 51.6494 103.676 52.6301 103.621Z" fill="#12B76A"/>
<path id="Vector_150" d="M49.4805 107.863C50.5725 107.406 51.2859 106.148 50.0463 104.088C48.8004 102.027 45.5703 100.809 45.5703 100.809C45.5703 100.809 46.4625 101.265 46.6164 102.836C46.7703 104.409 46.0611 104.831 46.7382 106.525C47.2935 107.9 48.5698 108.243 49.4805 107.863Z" fill="#12B76A"/>
</g>
<g id="Group_67">
<path id="Vector_151" d="M47.5875 111.711C46.6253 111.107 45.2407 111.24 44.3043 113.35C43.3678 115.469 44.2005 118.679 44.2005 118.679C44.2005 118.679 44.0635 117.73 45.2133 116.738C46.3648 115.748 47.0845 116.075 48.0407 114.606C48.8199 113.408 48.3822 112.212 47.5875 111.711Z" fill="#12B76A"/>
<path id="Vector_152" d="M47.4697 116.705C46.4055 116.764 45.4311 117.613 45.8624 119.728C46.2954 121.849 48.6608 123.836 48.6608 123.836C48.6608 123.836 48.046 123.185 48.3846 121.814C48.7291 120.437 49.4538 120.293 49.3822 118.66C49.3261 117.331 48.3483 116.656 47.4697 116.705Z" fill="#12B76A"/>
<path id="Vector_153" d="M50.2868 112.893C49.3065 113.309 48.6707 114.436 49.7838 116.283C50.9078 118.127 53.8036 119.209 53.8036 119.209C53.8036 119.209 53.0042 118.807 52.8625 117.396C52.7204 115.982 53.3567 115.607 52.7453 114.088C52.2436 112.859 51.0967 112.551 50.2868 112.893Z" fill="#12B76A"/>
</g>
</g>
<g id="Group_68">
<g id="Group_69">
<path id="Vector_154" d="M36.3271 91.4149C37.5743 90.5763 38.1528 88.8409 36.1092 86.5776C34.0567 84.3114 29.7422 83.5933 29.7422 83.5933C29.7422 83.5933 30.9607 83.9361 31.5387 85.8516C32.1105 87.7717 31.3296 88.4682 32.5941 90.4051C33.6186 91.9883 35.2946 92.1043 36.3271 91.4149Z" fill="#12B76A"/>
</g>
<g id="Group_70">
<path id="Vector_155" d="M40.2643 96.1823C40.5679 97.4142 41.7758 98.381 44.1686 97.4235C46.5579 96.4597 48.3929 93.2494 48.3929 93.2494C48.3929 93.2494 47.7617 94.1108 46.0748 94.0105C44.3836 93.9004 44.0619 93.0799 42.1557 93.5163C40.6046 93.8641 40.0206 95.1619 40.2643 96.1823Z" fill="#12B76A"/>
<path id="Vector_156" d="M44.2625 92.289C45.1547 93.0652 46.5911 93.1444 47.8936 91.1194C49.193 89.0897 48.854 85.6601 48.854 85.6601C48.854 85.6601 48.8388 86.659 47.4968 87.4947C46.1531 88.3257 45.4625 87.8787 44.2486 89.2376C43.259 90.3444 43.5188 91.6451 44.2625 92.289Z" fill="#12B76A"/>
<path id="Vector_157" d="M39.0336 93.1385C40.1361 93.5686 41.5254 93.163 42.0701 90.8192C42.6069 88.4724 41.1354 85.3519 41.1354 85.3519C41.1354 85.3519 41.4588 86.3006 40.4751 87.536C39.4915 88.7713 38.6891 88.582 37.9998 90.2702C37.4415 91.6439 38.117 92.7785 39.0336 93.1385Z" fill="#12B76A"/>
</g>
<g id="Group_71">
<path id="Vector_158" d="M34.9977 94.5809C34.7249 93.4767 33.6371 92.6107 31.4978 93.4737C29.3534 94.3444 27.7188 97.23 27.7188 97.23C27.7188 97.23 28.277 96.4538 29.794 96.5406C31.3097 96.6309 31.5998 97.3658 33.3074 96.9753C34.7 96.6579 35.2199 95.4958 34.9977 94.5809Z" fill="#12B76A"/>
<path id="Vector_159" d="M31.4331 98.0825C30.6295 97.3839 29.3393 97.3169 28.1756 99.1362C27.0136 100.962 27.3277 104.034 27.3277 104.034C27.3277 104.034 27.34 103.139 28.537 102.389C29.7416 101.641 30.3639 102.041 31.4466 100.818C32.3329 99.8222 32.101 98.6589 31.4331 98.0825Z" fill="#12B76A"/>
<path id="Vector_160" d="M36.1124 97.3076C35.1182 96.9248 33.8765 97.2941 33.3916 99.3921C32.9173 101.498 34.2424 104.292 34.2424 104.292C34.2424 104.292 33.9498 103.447 34.8281 102.335C35.7093 101.219 36.4277 101.394 37.0437 99.8787C37.5413 98.645 36.9312 97.6276 36.1124 97.3076Z" fill="#12B76A"/>
</g>
</g>
<g id="Group_72">
<g id="Group_73">
<path id="Vector_161" d="M12.4871 100.309C12.8531 98.564 11.9154 96.6001 8.2978 96.3589C4.67266 96.1211 0.390625 99.075 0.390625 99.075C0.390625 99.075 1.71706 98.3612 3.79441 99.5203C5.86966 100.685 5.77985 101.928 8.46224 102.534C10.6433 103.041 12.1742 101.752 12.4871 100.309Z" fill="#12B76A"/>
</g>
<g id="Group_74">
<path id="Vector_162" d="M19.8023 101.111C21.0802 101.914 22.9101 101.741 24.1623 98.9469C25.4053 96.1452 24.3162 91.8876 24.3162 91.8876C24.3162 91.8876 24.4886 93.144 22.9683 94.4557C21.434 95.7577 20.4794 95.3251 19.2107 97.2722C18.1735 98.8541 18.7482 100.446 19.8023 101.111Z" fill="#12B76A"/>
<path id="Vector_163" d="M19.9863 94.4894C21.3895 94.4148 22.6814 93.2937 22.1185 90.4878C21.5527 87.6819 18.4234 85.0345 18.4234 85.0345C18.4234 85.0345 19.2405 85.8975 18.7834 87.7244C18.3243 89.5421 17.3651 89.7297 17.4507 91.8939C17.5207 93.6597 18.8197 94.5565 19.9863 94.4894Z" fill="#12B76A"/>
<path id="Vector_164" d="M16.2327 99.5338C17.5304 98.9924 18.38 97.4935 16.9052 95.0443C15.4227 92.598 11.5859 91.1493 11.5859 91.1493C11.5859 91.1493 12.6476 91.6907 12.8272 93.5559C13.0085 95.4284 12.1669 95.9289 12.9752 97.94C13.6325 99.5768 15.1483 99.9853 16.2327 99.5338Z" fill="#12B76A"/>
</g>
<g id="Group_75">
<path id="Vector_165" d="M13.9672 104.108C12.8267 103.391 11.1811 103.548 10.0663 106.058C8.95614 108.574 9.94401 112.39 9.94401 112.39C9.94401 112.39 9.77915 111.264 11.1456 110.081C12.5168 108.907 13.3735 109.294 14.5085 107.549C15.4361 106.128 14.9175 104.704 13.9672 104.108Z" fill="#12B76A"/>
<path id="Vector_166" d="M13.8152 110.044C12.5512 110.114 11.3921 111.121 11.9061 113.638C12.42 116.159 15.2323 118.52 15.2323 118.52C15.2323 118.52 14.502 117.747 14.9059 116.117C15.3128 114.48 16.1746 114.31 16.0894 112.368C16.0216 110.785 14.8566 109.985 13.8152 110.044Z" fill="#12B76A"/>
<path id="Vector_167" d="M17.1795 105.509C16.0159 106.009 15.2582 107.347 16.5834 109.54C17.9161 111.734 21.3566 113.021 21.3566 113.021C21.3566 113.021 20.4096 112.541 20.2418 110.865C20.0727 109.185 20.8304 108.743 20.0985 106.935C19.5052 105.472 18.1404 105.108 17.1795 105.509Z" fill="#12B76A"/>
</g>
</g>
<g id="Group_76">
<g id="Group_77">
<path id="Vector_168" d="M89.7897 132.684C90.1573 130.939 89.2192 128.977 85.6021 128.734C81.9774 128.497 77.6953 131.45 77.6953 131.45C77.6953 131.45 79.0218 130.737 81.1004 131.896C83.176 133.061 83.0845 134.304 85.7669 134.909C87.9476 135.417 89.4785 134.127 89.7897 132.684Z" fill="#12B76A"/>
</g>
<g id="Group_78">
<path id="Vector_169" d="M97.1063 133.488C98.3842 134.29 100.215 134.116 101.466 131.322C102.709 128.521 101.62 124.263 101.62 124.263C101.62 124.263 101.793 125.519 100.272 126.831C98.738 128.134 97.7834 127.7 96.5147 129.649C95.4788 131.229 96.0526 132.821 97.1063 133.488Z" fill="#12B76A"/>
<path id="Vector_170" d="M97.2925 126.866C98.6957 126.79 99.9888 125.669 99.4247 122.863C98.8572 120.057 95.7295 117.409 95.7295 117.409C95.7295 117.409 96.5467 118.273 96.0909 120.1C95.6305 121.918 94.6713 122.105 94.7552 124.269C94.8268 126.035 96.1263 126.931 97.2925 126.866Z" fill="#12B76A"/>
<path id="Vector_171" d="M93.5374 131.909C94.8351 131.368 95.6843 129.869 94.2099 127.42C92.7274 124.973 88.8906 123.525 88.8906 123.525C88.8906 123.525 89.9519 124.068 90.1319 125.931C90.3136 127.804 89.4716 128.304 90.2799 130.317C90.9372 131.952 92.4546 132.361 93.5374 131.909Z" fill="#12B76A"/>
</g>
<g id="Group_79">
<path id="Vector_172" d="M91.2788 136.484C90.1379 135.766 88.4927 135.925 87.3792 138.433C86.269 140.95 87.2556 144.767 87.2556 144.767C87.2556 144.767 87.0908 143.64 88.4573 142.456C89.828 141.282 90.6851 141.671 91.8197 139.926C92.7473 138.503 92.2287 137.079 91.2788 136.484Z" fill="#12B76A"/>
<path id="Vector_173" d="M91.1289 142.42C89.8619 142.49 88.7058 143.498 89.2181 146.014C89.732 148.535 92.5443 150.897 92.5443 150.897C92.5443 150.897 91.8136 150.123 92.2179 148.492C92.6252 146.855 93.4866 146.686 93.4014 144.744C93.334 143.161 92.1707 142.361 91.1289 142.42Z" fill="#12B76A"/>
<path id="Vector_174" d="M94.4922 137.886C93.3285 138.385 92.5705 139.722 93.896 141.917C95.2288 144.109 98.6693 145.397 98.6693 145.397C98.6693 145.397 97.7223 144.918 97.5528 143.24C97.3837 141.561 98.1431 141.118 97.4111 139.31C96.8175 137.848 95.4527 137.483 94.4922 137.886Z" fill="#12B76A"/>
</g>
</g>
<g id="Group_80">
<g id="Group_81">
<path id="Vector_175" d="M61.1178 125.721C62.4615 125.913 63.9069 125.102 63.9128 122.34C63.9157 119.572 61.456 116.46 61.456 116.46C61.456 116.46 62.0644 117.436 61.2835 119.072C60.5027 120.707 59.554 120.697 59.2247 122.768C58.9464 124.452 60.0047 125.553 61.1178 125.721Z" fill="#12B76A"/>
</g>
<g id="Group_82">
<path id="Vector_176" d="M60.8546 131.319C60.3069 132.33 60.5295 133.715 62.7153 134.528C64.9069 135.336 68.091 134.299 68.091 134.299C68.091 134.299 67.1423 134.49 66.0718 133.398C65.0059 132.294 65.288 131.551 63.7461 130.68C62.4909 129.971 61.3087 130.487 60.8546 131.319Z" fill="#12B76A"/>
<path id="Vector_177" d="M65.9025 131.135C66.029 132.199 66.9439 133.126 69.0516 132.559C71.1577 131.989 73.0183 129.48 73.0183 129.48C73.0183 129.48 72.3993 130.145 70.9886 129.887C69.5808 129.628 69.3936 128.907 67.7539 129.079C66.4118 129.219 65.7954 130.251 65.9025 131.135Z" fill="#12B76A"/>
<path id="Vector_178" d="M61.8795 128.527C62.3551 129.486 63.5373 130.06 65.3258 128.817C67.1165 127.569 68.0251 124.581 68.0251 124.581C68.0251 124.581 67.6667 125.415 66.2576 125.642C64.8422 125.874 64.4231 125.259 62.9301 125.971C61.7192 126.55 61.4844 127.726 61.8795 128.527Z" fill="#12B76A"/>
</g>
<g id="Group_83">
<path id="Vector_179" d="M58.2954 127.033C58.782 126.133 58.5792 124.885 56.6207 124.166C54.6504 123.443 51.7969 124.382 51.7969 124.382C51.7969 124.382 52.6452 124.202 53.612 125.184C54.5741 126.168 54.3212 126.837 55.7028 127.615C56.8328 128.249 57.8881 127.786 58.2954 127.033Z" fill="#12B76A"/>
<path id="Vector_180" d="M53.7743 127.215C53.66 126.258 52.8362 125.428 50.9468 125.941C49.0559 126.456 47.3984 128.71 47.3984 128.71C47.3984 128.71 47.9504 128.117 49.2119 128.344C50.4772 128.573 50.6466 129.222 52.1198 129.059C53.3181 128.931 53.8704 128.005 53.7743 127.215Z" fill="#12B76A"/>
<path id="Vector_181" d="M57.3958 129.546C56.9611 128.683 55.9041 128.173 54.3002 129.29C52.6972 130.412 51.8906 133.092 51.8906 133.092C51.8906 133.092 52.2081 132.347 53.4738 132.137C54.7425 131.925 55.1173 132.481 56.4547 131.835C57.5391 131.311 57.7478 130.256 57.3958 129.546Z" fill="#12B76A"/>
</g>
</g>
<g id="Group_84">
<g id="Group_85">
<path id="Vector_182" d="M158.749 29.8014C160.094 29.9953 161.54 29.1824 161.546 26.4204C161.549 23.6541 159.091 20.5404 159.091 20.5404C159.091 20.5404 159.698 21.5164 158.917 23.154C158.136 24.7874 157.187 24.7794 156.858 26.8492C156.578 28.5327 157.636 29.6319 158.749 29.8014Z" fill="#12B76A"/>
</g>
<g id="Group_86">
<path id="Vector_183" d="M158.496 35.3998C157.947 36.4121 158.17 37.7954 160.356 38.6079C162.546 39.4162 165.73 38.3794 165.73 38.3794C165.73 38.3794 164.782 38.5717 163.711 37.4796C162.644 36.3754 162.928 35.6312 161.384 34.7623C160.131 34.0514 158.951 34.5671 158.496 35.3998Z" fill="#12B76A"/>
<path id="Vector_184" d="M163.543 35.2151C163.668 36.2797 164.583 37.2081 166.691 36.641C168.798 36.0706 170.656 33.5606 170.656 33.5606C170.656 33.5606 170.039 34.2255 168.627 33.9692C167.221 33.7082 167.032 32.9872 165.391 33.1597C164.052 33.3013 163.436 34.3318 163.543 35.2151Z" fill="#12B76A"/>
<path id="Vector_185" d="M159.519 32.6073C159.995 33.5665 161.178 34.1399 162.966 32.8974C164.756 31.6515 165.664 28.6626 165.664 28.6626C165.664 28.6626 165.307 29.4953 163.899 29.7238C162.481 29.9557 162.062 29.341 160.571 30.0531C159.36 30.6324 159.126 31.8067 159.519 32.6073Z" fill="#12B76A"/>
</g>
<g id="Group_87">
<path id="Vector_186" d="M155.942 31.1143C156.427 30.2116 156.225 28.9674 154.267 28.246C152.297 27.525 149.445 28.4627 149.445 28.4627C149.445 28.4627 150.293 28.2844 151.26 29.2664C152.221 30.2483 151.968 30.9191 153.35 31.697C154.478 32.3312 155.533 31.8661 155.942 31.1143Z" fill="#12B76A"/>
<path id="Vector_187" d="M151.417 31.2956C151.301 30.3394 150.477 29.5084 148.589 30.0223C146.698 30.5375 145.039 32.7916 145.039 32.7916C145.039 32.7916 145.594 32.1983 146.854 32.4256C148.119 32.6529 148.29 33.3026 149.76 33.1394C150.962 33.0117 151.514 32.087 151.417 31.2956Z" fill="#12B76A"/>
<path id="Vector_188" d="M155.036 33.6243C154.6 32.7642 153.542 32.2548 151.941 33.3713C150.34 34.4903 149.531 37.1714 149.531 37.1714C149.531 37.1714 149.848 36.4289 151.114 36.2169C152.383 36.0065 152.758 36.563 154.094 35.915C155.177 35.3934 155.387 34.3381 155.036 33.6243Z" fill="#12B76A"/>
</g>
</g>
<g id="Group_88">
<g id="Group_89">
<path id="Vector_189" d="M141.693 15.0516C142.831 15.2148 144.06 14.5271 144.063 12.18C144.069 9.83149 141.98 7.18705 141.98 7.18705C141.98 7.18705 142.496 8.01681 141.833 9.40776C141.172 10.7953 140.363 10.7877 140.086 12.5442C139.848 13.9765 140.745 14.91 141.693 15.0516Z" fill="#12B76A"/>
</g>
<g id="Group_90">
<path id="Vector_190" d="M141.48 19.8068C141.016 20.6652 141.203 21.8394 143.06 22.53C144.92 23.2177 147.622 22.3378 147.622 22.3378C147.622 22.3378 146.821 22.498 145.909 21.5708C145.003 20.6344 145.247 20.0032 143.935 19.265C142.868 18.6612 141.867 19.0988 141.48 19.8068Z" fill="#12B76A"/>
<path id="Vector_191" d="M145.768 19.6495C145.875 20.5522 146.65 21.3423 148.44 20.8604C150.23 20.3755 151.807 18.2467 151.807 18.2467C151.807 18.2467 151.282 18.8109 150.084 18.5912C148.891 18.3703 148.73 17.7585 147.339 17.9052C146.198 18.0224 145.677 18.899 145.768 19.6495Z" fill="#12B76A"/>
<path id="Vector_192" d="M142.353 17.4351C142.759 18.2497 143.762 18.7358 145.281 17.6809C146.8 16.6226 147.574 14.0836 147.574 14.0836C147.574 14.0836 147.266 14.794 146.071 14.9863C144.869 15.1845 144.512 14.66 143.244 15.2637C142.216 15.7579 142.018 16.7567 142.353 17.4351Z" fill="#12B76A"/>
</g>
<g id="Group_91">
<path id="Vector_193" d="M139.302 16.1664C139.714 15.4008 139.539 14.3442 137.877 13.7324C136.206 13.1193 133.781 13.9154 133.781 13.9154C133.781 13.9154 134.501 13.7644 135.321 14.5955C136.139 15.4311 135.925 16.0012 137.099 16.6614C138.057 17.2007 138.954 16.8056 139.302 16.1664Z" fill="#12B76A"/>
<path id="Vector_194" d="M135.461 16.322C135.364 15.5074 134.665 14.8046 133.061 15.2393C131.453 15.6769 130.047 17.5907 130.047 17.5907C130.047 17.5907 130.517 17.0873 131.587 17.2795C132.661 17.4747 132.804 18.0241 134.055 17.8867C135.076 17.78 135.544 16.9916 135.461 16.322Z" fill="#12B76A"/>
<path id="Vector_195" d="M138.527 18.2999C138.158 17.5679 137.261 17.1362 135.901 18.0831C134.54 19.0348 133.852 21.3115 133.852 21.3115C133.852 21.3115 134.123 20.6799 135.199 20.5003C136.276 20.3203 136.593 20.7929 137.728 20.2427C138.649 19.7992 138.826 18.9041 138.527 18.2999Z" fill="#12B76A"/>
</g>
</g>
<g id="Group_92">
<g id="Group_93">
<path id="Vector_196" d="M118.091 125.226C119.553 126.247 121.725 126.151 123.363 122.921C125.004 119.68 123.964 114.581 123.964 114.581C123.964 114.581 124.101 116.083 122.219 117.538C120.334 118.991 119.229 118.421 117.621 120.652C116.298 122.461 116.884 124.374 118.091 125.226Z" fill="#12B76A"/>
</g>
<g id="Group_94">
<path id="Vector_197" d="M114.495 131.639C113.258 132.501 112.698 134.255 114.779 136.498C116.868 138.741 121.214 139.406 121.214 139.406C121.214 139.406 119.991 139.072 119.379 137.158C118.782 135.236 119.554 134.529 118.259 132.6C117.209 131.026 115.52 130.932 114.495 131.639Z" fill="#12B76A"/>
<path id="Vector_198" d="M120.51 134.404C120.028 135.727 120.555 137.355 123.355 137.935C126.158 138.512 129.822 136.674 129.822 136.674C129.822 136.674 128.708 137.086 127.207 135.951C125.713 134.815 125.915 133.86 123.892 133.09C122.239 132.463 120.907 133.306 120.51 134.404Z" fill="#12B76A"/>
<path id="Vector_199" d="M117.336 128.974C117.328 130.378 118.373 131.749 121.201 131.351C124.034 130.947 126.871 127.984 126.871 127.984C126.871 127.984 125.956 128.747 124.172 128.184C122.375 127.615 122.247 126.646 120.079 126.6C118.316 126.563 117.345 127.801 117.336 128.974Z" fill="#12B76A"/>
</g>
<g id="Group_95">
<path id="Vector_200" d="M114.014 125.102C115.121 124.333 115.62 122.757 113.747 120.748C111.868 118.743 107.969 118.154 107.969 118.154C107.969 118.154 109.07 118.445 109.623 120.166C110.166 121.888 109.474 122.522 110.633 124.25C111.58 125.66 113.091 125.743 114.014 125.102Z" fill="#12B76A"/>
<path id="Vector_201" d="M108.61 122.644C109.043 121.452 108.569 119.992 106.053 119.478C103.531 118.962 100.258 120.624 100.258 120.624C100.258 120.624 101.254 120.255 102.599 121.264C103.944 122.283 103.761 123.14 105.582 123.823C107.064 124.382 108.256 123.626 108.61 122.644Z" fill="#12B76A"/>
<path id="Vector_202" d="M111.468 127.508C111.466 126.241 110.528 125.02 107.992 125.379C105.452 125.745 102.922 128.408 102.922 128.408C102.922 128.408 103.733 127.722 105.34 128.225C106.951 128.728 107.064 129.599 109.011 129.634C110.59 129.662 111.459 128.548 111.468 127.508Z" fill="#12B76A"/>
</g>
</g>
<g id="Group_96">
<g id="Group_97">
<path id="Vector_203" d="M127.821 101.34C128.855 102.062 130.395 101.995 131.554 99.7079C132.713 97.4113 131.978 93.803 131.978 93.803C131.978 93.803 132.076 94.8659 130.743 95.8968C129.41 96.9247 128.626 96.5204 127.485 98.1002C126.549 99.3816 126.967 100.736 127.821 101.34Z" fill="#12B76A"/>
</g>
<g id="Group_98">
<path id="Vector_204" d="M125.272 105.88C124.397 106.489 124.004 107.731 125.474 109.321C126.953 110.909 130.031 111.38 130.031 111.38C130.031 111.38 129.164 111.144 128.731 109.789C128.311 108.428 128.857 107.926 127.938 106.561C127.194 105.445 126.001 105.381 125.272 105.88Z" fill="#12B76A"/>
<path id="Vector_205" d="M129.525 107.839C129.186 108.772 129.559 109.926 131.541 110.338C133.523 110.746 136.119 109.447 136.119 109.447C136.119 109.447 135.329 109.736 134.267 108.934C133.209 108.129 133.352 107.451 131.922 106.906C130.751 106.463 129.806 107.061 129.525 107.839Z" fill="#12B76A"/>
<path id="Vector_206" d="M127.297 103.995C127.291 104.987 128.032 105.957 130.036 105.676C132.043 105.391 134.05 103.291 134.05 103.291C134.05 103.291 133.403 103.831 132.137 103.433C130.866 103.032 130.774 102.344 129.24 102.312C127.992 102.288 127.306 103.162 127.297 103.995Z" fill="#12B76A"/>
</g>
<g id="Group_99">
<path id="Vector_207" d="M124.943 101.254C125.727 100.708 126.08 99.5907 124.754 98.1694C123.424 96.7494 120.664 96.3319 120.664 96.3319C120.664 96.3319 121.445 96.5394 121.832 97.7562C122.22 98.9764 121.729 99.4275 122.549 100.651C123.223 101.646 124.29 101.706 124.943 101.254Z" fill="#12B76A"/>
<path id="Vector_208" d="M121.113 99.511C121.418 98.6677 121.082 97.6322 119.299 97.2709C117.513 96.9049 115.195 98.0804 115.195 98.0804C115.195 98.0804 115.902 97.8194 116.853 98.5349C117.806 99.2559 117.677 99.863 118.967 100.348C120.015 100.742 120.86 100.205 121.113 99.511Z" fill="#12B76A"/>
<path id="Vector_209" d="M123.138 102.956C123.135 102.058 122.473 101.193 120.677 101.449C118.877 101.709 117.086 103.592 117.086 103.592C117.086 103.592 117.661 103.107 118.798 103.464C119.938 103.819 120.018 104.435 121.396 104.46C122.516 104.479 123.129 103.693 123.138 102.956Z" fill="#12B76A"/>
</g>
</g>
<g id="Group_100">
<g id="Group_101">
<path id="Vector_210" d="M156.094 138.095C157.185 138.857 158.808 138.787 160.031 136.375C161.257 133.953 160.479 130.145 160.479 130.145C160.479 130.145 160.583 131.266 159.177 132.355C157.768 133.437 156.944 133.012 155.743 134.679C154.755 136.03 155.191 137.459 156.094 138.095Z" fill="#12B76A"/>
</g>
<g id="Group_102">
<path id="Vector_211" d="M153.396 142.886C152.471 143.53 152.053 144.838 153.606 146.515C155.167 148.19 158.413 148.687 158.413 148.687C158.413 148.687 157.498 148.438 157.043 147.008C156.595 145.572 157.174 145.045 156.207 143.602C155.421 142.427 154.158 142.357 153.396 142.886Z" fill="#12B76A"/>
<path id="Vector_212" d="M157.884 144.953C157.524 145.939 157.918 147.156 160.01 147.588C162.102 148.019 164.841 146.647 164.841 146.647C164.841 146.647 164.008 146.954 162.886 146.107C161.77 145.26 161.922 144.546 160.412 143.969C159.177 143.501 158.18 144.13 157.884 144.953Z" fill="#12B76A"/>
<path id="Vector_213" d="M155.531 140.896C155.522 141.944 156.306 142.968 158.417 142.67C160.536 142.368 162.653 140.154 162.653 140.154C162.653 140.154 161.97 140.724 160.637 140.306C159.295 139.882 159.198 139.156 157.581 139.122C156.261 139.095 155.538 140.018 155.531 140.896Z" fill="#12B76A"/>
</g>
<g id="Group_103">
<path id="Vector_214" d="M153.037 138.005C153.867 137.43 154.239 136.251 152.839 134.75C151.436 133.251 148.523 132.814 148.523 132.814C148.523 132.814 149.344 133.032 149.759 134.314C150.165 135.603 149.646 136.076 150.512 137.365C151.22 138.421 152.351 138.482 153.037 138.005Z" fill="#12B76A"/>
<path id="Vector_215" d="M149.006 136.167C149.326 135.277 148.972 134.185 147.094 133.804C145.209 133.418 142.766 134.657 142.766 134.657C142.766 134.657 143.51 134.383 144.513 135.136C145.517 135.899 145.382 136.538 146.743 137.049C147.85 137.465 148.74 136.901 149.006 136.167Z" fill="#12B76A"/>
<path id="Vector_216" d="M151.141 139.8C151.141 138.854 150.44 137.942 148.546 138.21C146.649 138.485 144.758 140.472 144.758 140.472C144.758 140.472 145.365 139.959 146.567 140.336C147.768 140.712 147.854 141.361 149.305 141.387C150.485 141.407 151.135 140.577 151.141 139.8Z" fill="#12B76A"/>
</g>
</g>
<g id="Group_104">
<g id="Group_105">
<path id="Vector_217" d="M201.143 142.721C202.406 143.603 204.284 143.522 205.697 140.73C207.115 137.933 206.213 133.527 206.213 133.527C206.213 133.527 206.334 134.823 204.706 136.083C203.083 137.337 202.126 136.841 200.738 138.77C199.594 140.333 200.1 141.986 201.143 142.721Z" fill="#12B76A"/>
</g>
<g id="Group_106">
<path id="Vector_218" d="M198.025 148.26C196.954 149.004 196.472 150.518 198.272 152.457C200.075 154.394 203.829 154.97 203.829 154.97C203.829 154.97 202.771 154.68 202.243 153.027C201.727 151.368 202.396 150.756 201.276 149.09C200.37 147.73 198.91 147.65 198.025 148.26Z" fill="#12B76A"/>
<path id="Vector_219" d="M203.231 150.651C202.814 151.789 203.268 153.198 205.686 153.698C208.108 154.199 211.274 152.608 211.274 152.608C211.274 152.608 210.314 152.964 209.014 151.984C207.724 151.005 207.901 150.18 206.154 149.514C204.723 148.971 203.573 149.703 203.231 150.651Z" fill="#12B76A"/>
<path id="Vector_220" d="M200.484 145.96C200.478 147.17 201.378 148.356 203.821 148.013C206.273 147.662 208.719 145.102 208.719 145.102C208.719 145.102 207.932 145.761 206.389 145.277C204.836 144.785 204.727 143.946 202.854 143.91C201.332 143.877 200.49 144.945 200.484 145.96Z" fill="#12B76A"/>
</g>
<g id="Group_107">
<path id="Vector_221" d="M197.617 142.616C198.574 141.95 199.005 140.59 197.388 138.854C195.762 137.119 192.398 136.613 192.398 136.613C192.398 136.613 193.347 136.865 193.826 138.348C194.295 139.836 193.697 140.385 194.695 141.877C195.516 143.095 196.824 143.17 197.617 142.616Z" fill="#12B76A"/>
<path id="Vector_222" d="M192.947 140.491C193.322 139.461 192.91 138.202 190.739 137.756C188.561 137.313 185.734 138.746 185.734 138.746C185.734 138.746 186.594 138.428 187.757 139.303C188.919 140.181 188.76 140.921 190.333 141.511C191.614 141.991 192.642 141.34 192.947 140.491Z" fill="#12B76A"/>
<path id="Vector_223" d="M195.42 144.692C195.417 143.596 194.605 142.544 192.416 142.854C190.223 143.17 188.039 145.468 188.039 145.468C188.039 145.468 188.737 144.878 190.125 145.311C191.519 145.744 191.617 146.497 193.297 146.526C194.661 146.552 195.415 145.591 195.42 144.692Z" fill="#12B76A"/>
</g>
</g>
<g id="Group_108">
<g id="Group_109">
<path id="Vector_224" d="M179.358 143.031C180.364 143.734 181.862 143.668 182.987 141.443C184.118 139.214 183.401 135.702 183.401 135.702C183.401 135.702 183.499 136.736 182.199 137.738C180.903 138.738 180.141 138.345 179.037 139.882C178.122 141.129 178.528 142.444 179.358 143.031Z" fill="#12B76A"/>
</g>
<g id="Group_110">
<path id="Vector_225" d="M176.887 147.446C176.033 148.041 175.648 149.247 177.082 150.792C178.522 152.338 181.514 152.796 181.514 152.796C181.514 152.796 180.669 152.566 180.248 151.248C179.836 149.926 180.37 149.438 179.476 148.108C178.754 147.024 177.588 146.959 176.887 147.446Z" fill="#12B76A"/>
<path id="Vector_226" d="M181.022 149.352C180.693 150.261 181.056 151.382 182.98 151.783C184.914 152.179 187.436 150.914 187.436 150.914C187.436 150.914 186.671 151.197 185.634 150.415C184.606 149.633 184.746 148.977 183.353 148.444C182.215 148.014 181.296 148.596 181.022 149.352Z" fill="#12B76A"/>
<path id="Vector_227" d="M178.852 145.613C178.849 146.578 179.562 147.524 181.512 147.251C183.467 146.97 185.415 144.928 185.415 144.928C185.415 144.928 184.787 145.453 183.558 145.068C182.319 144.675 182.234 144.007 180.74 143.977C179.526 143.952 178.858 144.805 178.852 145.613Z" fill="#12B76A"/>
</g>
<g id="Group_111">
<path id="Vector_228" d="M176.551 142.947C177.314 142.417 177.658 141.331 176.368 139.949C175.072 138.565 172.391 138.162 172.391 138.162C172.391 138.162 173.147 138.362 173.528 139.545C173.903 140.733 173.424 141.169 174.22 142.359C174.874 143.33 175.917 143.388 176.551 142.947Z" fill="#12B76A"/>
<path id="Vector_229" d="M172.831 141.255C173.126 140.431 172.8 139.427 171.068 139.072C169.332 138.717 167.078 139.862 167.078 139.862C167.078 139.862 167.765 139.609 168.688 140.306C169.613 141.006 169.49 141.596 170.744 142.066C171.766 142.45 172.587 141.93 172.831 141.255Z" fill="#12B76A"/>
<path id="Vector_230" d="M174.794 144.602C174.794 143.73 174.151 142.89 172.403 143.136C170.655 143.39 168.914 145.221 168.914 145.221C168.914 145.221 169.469 144.749 170.576 145.096C171.687 145.442 171.766 146.043 173.105 146.064C174.191 146.086 174.791 145.319 174.794 144.602Z" fill="#12B76A"/>
</g>
</g>
<g id="Group_112">
<g id="Group_113">
<path id="Vector_231" d="M22.3851 127.368C22.7494 125.624 21.8117 123.663 18.1946 123.418C14.5728 123.182 10.2891 126.136 10.2891 126.136C10.2891 126.136 11.6155 125.422 13.6945 126.581C15.7685 127.746 15.6787 128.988 18.3607 129.594C20.543 130.101 22.0739 128.812 22.3851 127.368Z" fill="#12B76A"/>
</g>
<g id="Group_114">
<path id="Vector_232" d="M29.7068 128.173C30.9864 128.974 32.8163 128.801 34.0685 126.008C35.3127 123.205 34.2241 118.947 34.2241 118.947C34.2241 118.947 34.3949 120.204 32.8728 121.517C31.3385 122.819 30.3856 122.385 29.1169 124.333C28.081 125.915 28.6527 127.505 29.7068 128.173Z" fill="#12B76A"/>
<path id="Vector_233" d="M29.893 121.55C31.2945 121.475 32.5888 120.353 32.0234 117.549C31.4576 114.741 28.3313 112.094 28.3313 112.094C28.3313 112.094 29.1458 112.959 28.6913 114.784C28.2309 116.604 27.2717 116.791 27.3569 118.954C27.4286 120.719 28.7263 121.616 29.893 121.55Z" fill="#12B76A"/>
<path id="Vector_234" d="M26.1389 126.595C27.435 126.052 28.2875 124.554 26.8097 122.106C25.329 119.658 21.4922 118.209 21.4922 118.209C21.4922 118.209 22.5522 118.752 22.7335 120.616C22.9152 122.488 22.0732 122.989 22.8798 125.002C23.5375 126.638 25.0562 127.045 26.1389 126.595Z" fill="#12B76A"/>
</g>
<g id="Group_115">
<path id="Vector_235" d="M23.8672 131.168C22.7238 130.451 21.0782 130.608 19.9651 133.117C18.855 135.633 19.8416 139.45 19.8416 139.45C19.8416 139.45 19.6784 138.323 21.0449 137.142C22.4143 135.966 23.2715 136.355 24.4061 134.611C25.3328 133.187 24.8176 131.763 23.8672 131.168Z" fill="#12B76A"/>
<path id="Vector_236" d="M23.7146 137.103C22.4502 137.173 21.2916 138.183 21.8038 140.699C22.3207 143.22 25.13 145.58 25.13 145.58C25.13 145.58 24.3994 144.807 24.8037 143.175C25.211 141.539 26.0741 141.37 25.9872 139.427C25.9214 137.846 24.7561 137.045 23.7146 137.103Z" fill="#12B76A"/>
<path id="Vector_237" d="M27.0771 132.571C25.9134 133.068 25.157 134.407 26.4822 136.6C27.8137 138.793 31.2554 140.08 31.2554 140.08C31.2554 140.08 30.3085 139.601 30.1407 137.924C29.9699 136.246 30.728 135.801 29.996 133.996C29.4041 132.532 28.0376 132.168 27.0771 132.571Z" fill="#12B76A"/>
</g>
</g>
<g id="Group_116">
<path id="Vector_238" d="M100.769 72.6336C99.6714 73.9238 97.6552 74.3504 95.3817 71.7764C93.1109 69.1931 92.8516 64.2795 92.8516 64.2795C92.8516 64.2795 93.0805 65.6852 95.1545 66.5714C97.2331 67.456 98.1067 66.6752 100.115 68.3284C101.755 69.675 101.675 71.569 100.769 72.6336Z" fill="#12B76A"/>
<path id="Vector_239" d="M98.3645 65.6181C96.8272 66.0027 95.069 65.2404 94.7334 62.0499C94.4041 58.8565 96.8669 54.9754 96.8669 54.9754C96.8669 54.9754 96.2783 56.1724 97.3791 57.9677C98.4741 59.7685 99.5644 59.6437 100.199 61.9934C100.716 63.9013 99.6302 65.2952 98.3645 65.6181Z" fill="#12B76A"/>
<path id="Vector_240" d="M104.065 69.7543C102.49 69.6063 101.086 68.29 101.845 65.1746C102.604 62.0592 106.226 59.2288 106.226 59.2288C106.226 59.2288 105.273 60.1619 105.703 62.2177C106.136 64.2795 107.202 64.5324 107.014 66.956C106.856 68.9279 105.37 69.8778 104.065 69.7543Z" fill="#12B76A"/>
</g>
<g id="Group_117">
<path id="Vector_241" d="M70.8826 71.2502C71.607 72.0998 72.9351 72.3802 74.4344 70.6874C75.932 68.9823 76.1028 65.7434 76.1028 65.7434C76.1028 65.7434 75.9501 66.6705 74.5836 67.2532C73.2142 67.8359 72.6408 67.3203 71.3127 68.4123C70.2329 69.2985 70.286 70.5486 70.8826 71.2502Z" fill="#12B76A"/>
<path id="Vector_242" d="M72.4842 66.625C73.4949 66.878 74.6573 66.375 74.8782 64.2719C75.0933 62.1676 73.4709 59.607 73.4709 59.607C73.4709 59.607 73.8596 60.3971 73.1323 61.5806C72.4109 62.7684 71.6912 62.6878 71.2746 64.2339C70.9331 65.4933 71.6499 66.4112 72.4842 66.625Z" fill="#12B76A"/>
<path id="Vector_243" d="M68.7187 69.3517C69.7555 69.2543 70.6831 68.3878 70.1826 66.332C69.6825 64.2778 67.2928 62.4096 67.2928 62.4096C67.2928 62.4096 67.9227 63.0256 67.6389 64.3828C67.3522 65.7434 66.6477 65.9078 66.7725 67.5062C66.8766 68.8086 67.8573 69.4322 68.7187 69.3517Z" fill="#12B76A"/>
</g>
<g id="Group_118">
<path id="Vector_244" d="M115.315 65.0709C114.348 64.2032 114.061 62.6478 116.08 60.9549C118.11 59.2697 121.883 59.1706 121.883 59.1706C121.883 59.1706 120.801 59.3169 120.078 60.8909C119.358 62.4644 119.938 63.1508 118.629 64.6577C117.564 65.8867 116.11 65.7859 115.315 65.0709Z" fill="#12B76A"/>
<path id="Vector_245" d="M120.736 63.3662C120.473 62.181 121.092 60.8453 123.547 60.6564C126.002 60.4705 128.928 62.4378 128.928 62.4378C128.928 62.4378 128.025 61.9605 126.625 62.7688C125.219 63.5724 125.295 64.411 123.477 64.8504C122.004 65.2037 120.958 64.3435 120.736 63.3662Z" fill="#12B76A"/>
<path id="Vector_246" d="M117.459 67.6559C117.602 66.4513 118.642 65.3989 121.017 66.0457C123.387 66.692 125.486 69.527 125.486 69.527C125.486 69.527 124.791 68.7782 123.204 69.0666C121.612 69.355 121.399 70.1692 119.541 69.974C118.032 69.8137 117.337 68.653 117.459 67.6559Z" fill="#12B76A"/>
</g>
</g>
</g>
</g>
</g>
</g>
<defs>
<linearGradient id="paint0_linear_5506_17114" x1="120.62" y1="6.50073" x2="120.62" y2="221.654" gradientUnits="userSpaceOnUse">
<stop stop-color="#A3846D"/>
<stop offset="0.4516" stop-color="#635042"/>
<stop offset="0.5826" stop-color="#554539"/>
<stop offset="0.8377" stop-color="#3E332A"/>
<stop offset="1" stop-color="#362C24"/>
</linearGradient>
<linearGradient id="paint1_linear_5506_17114" x1="152.265" y1="6.50089" x2="152.265" y2="221.647" gradientUnits="userSpaceOnUse">
<stop stop-color="#A3846D"/>
<stop offset="0.4516" stop-color="#635042"/>
<stop offset="0.5826" stop-color="#554539"/>
<stop offset="0.8377" stop-color="#3E332A"/>
<stop offset="1" stop-color="#362C24"/>
</linearGradient>
<linearGradient id="paint2_linear_5506_17114" x1="95.1268" y1="6.50001" x2="95.1268" y2="221.65" gradientUnits="userSpaceOnUse">
<stop stop-color="#A3846D"/>
<stop offset="0.4516" stop-color="#635042"/>
<stop offset="0.5826" stop-color="#554539"/>
<stop offset="0.8377" stop-color="#3E332A"/>
<stop offset="1" stop-color="#362C24"/>
</linearGradient>
<linearGradient id="paint3_linear_5506_17114" x1="178.899" y1="6.49076" x2="178.899" y2="221.661" gradientUnits="userSpaceOnUse">
<stop stop-color="#A3846D"/>
<stop offset="0.4516" stop-color="#635042"/>
<stop offset="0.5826" stop-color="#554539"/>
<stop offset="0.8377" stop-color="#3E332A"/>
<stop offset="1" stop-color="#362C24"/>
</linearGradient>
<linearGradient id="paint4_linear_5506_17114" x1="23.5656" y1="6.50618" x2="23.5656" y2="221.65" gradientUnits="userSpaceOnUse">
<stop stop-color="#A3846D"/>
<stop offset="0.4516" stop-color="#635042"/>
<stop offset="0.5826" stop-color="#554539"/>
<stop offset="0.8377" stop-color="#3E332A"/>
<stop offset="1" stop-color="#362C24"/>
</linearGradient>
<linearGradient id="paint5_linear_5506_17114" x1="47.4192" y1="6.50097" x2="47.4192" y2="221.652" gradientUnits="userSpaceOnUse">
<stop stop-color="#A3846D"/>
<stop offset="0.4516" stop-color="#635042"/>
<stop offset="0.5826" stop-color="#554539"/>
<stop offset="0.8377" stop-color="#3E332A"/>
<stop offset="1" stop-color="#362C24"/>
</linearGradient>
<linearGradient id="paint6_linear_5506_17114" x1="177.714" y1="6.49702" x2="177.714" y2="221.661" gradientUnits="userSpaceOnUse">
<stop stop-color="#A3846D"/>
<stop offset="0.4516" stop-color="#635042"/>
<stop offset="0.5826" stop-color="#554539"/>
<stop offset="0.8377" stop-color="#3E332A"/>
<stop offset="1" stop-color="#362C24"/>
</linearGradient>
<linearGradient id="paint7_linear_5506_17114" x1="72.0724" y1="6.50002" x2="72.0724" y2="221.65" gradientUnits="userSpaceOnUse">
<stop stop-color="#A3846D"/>
<stop offset="0.4516" stop-color="#635042"/>
<stop offset="0.5826" stop-color="#554539"/>
<stop offset="0.8377" stop-color="#3E332A"/>
<stop offset="1" stop-color="#362C24"/>
</linearGradient>
<linearGradient id="paint8_linear_5506_17114" x1="41.5534" y1="6.49874" x2="41.5534" y2="221.658" gradientUnits="userSpaceOnUse">
<stop stop-color="#A3846D"/>
<stop offset="0.4516" stop-color="#635042"/>
<stop offset="0.5826" stop-color="#554539"/>
<stop offset="0.8377" stop-color="#3E332A"/>
<stop offset="1" stop-color="#362C24"/>
</linearGradient>
<linearGradient id="paint9_linear_5506_17114" x1="193.426" y1="6.50505" x2="193.426" y2="221.646" gradientUnits="userSpaceOnUse">
<stop stop-color="#A3846D"/>
<stop offset="0.4516" stop-color="#635042"/>
<stop offset="0.5826" stop-color="#554539"/>
<stop offset="0.8377" stop-color="#3E332A"/>
<stop offset="1" stop-color="#362C24"/>
</linearGradient>
</defs>
</svg>
