<svg width="83" height="80" viewBox="0 0 83 80" fill="none" xmlns="http://www.w3.org/2000/svg">
<path d="M70.6571 53.4311C65.5263 46.3692 55.6423 44.8037 48.5804 49.9344C41.5186 55.0652 39.9531 64.9492 45.0838 72.0111C50.2146 79.073 59.5507 76.6149 62.9554 69.7199C70.6441 68.5553 75.7878 60.4929 70.6571 53.4311Z" fill="#7A5AF8"/>
<path d="M40.3838 38.461C39.3206 39.2335 42.0079 62.4926 42.0079 62.4926L62.4966 47.6067C62.4966 47.6067 41.447 37.6885 40.3838 38.461Z" fill="#7A5AF8"/>
<path d="M37.7394 71.8786C42.8702 64.8168 41.3047 54.9327 34.2428 49.802C27.181 44.6712 17.2969 46.2367 12.1662 53.2986C7.03543 60.3604 12.2582 68.4801 19.8678 69.5875C23.3514 76.5399 32.6087 78.9405 37.7394 71.8786Z" fill="#7A5AF8"/>
<path d="M42.6182 38.4612C41.555 37.6887 20.2647 47.432 20.2647 47.432L40.7534 62.3179C40.7534 62.3179 43.6814 39.2336 42.6182 38.4612Z" fill="#7A5AF8"/>
<path d="M10.0136 46.2711C18.3153 48.9685 27.2318 44.4253 29.9292 36.1236C32.6266 27.8219 28.0834 18.9053 19.7817 16.2079C11.4799 13.5105 5.37165 20.9868 6.66996 28.5662C1.13429 34.0277 1.71184 43.5737 10.0136 46.2711Z" fill="#7A5AF8"/>
<path d="M43.3045 40.588C43.7106 39.3381 27.8652 22.1007 27.8652 22.1007L20.0392 46.1866C20.0392 46.1866 42.8984 41.8379 43.3045 40.588Z" fill="#7A5AF8"/>
<path d="M25.8038 11.997C25.8038 20.726 32.88 27.8022 41.6089 27.8022C50.3379 27.8022 57.4141 20.726 57.4141 11.997C57.4141 3.26811 48.4161 -0.230933 41.6089 3.34598C34.7041 -0.23106 25.8038 3.26811 25.8038 11.997Z" fill="#7A5AF8"/>
<path d="M41.4984 41.9022C42.8126 41.9022 54.3098 21.5056 54.3098 21.5056L28.9844 21.5056C28.9844 21.5056 40.1842 41.9022 41.4984 41.9022Z" fill="#7A5AF8"/>
<path d="M63.2784 16.4221C54.9766 19.1195 50.4334 28.0361 53.1308 36.3378C55.8282 44.6395 64.7448 49.1827 73.0465 46.4853C81.3482 43.7879 81.8955 34.1491 76.3901 28.7804C77.6583 21.1082 71.5801 13.7247 63.2784 16.4221Z" fill="#7A5AF8"/>
<path d="M39.6874 40.5876C40.0935 41.8375 63.0446 46.4691 63.0446 46.4691L55.2186 22.3832C55.2186 22.3832 39.2812 39.3377 39.6874 40.5876Z" fill="#7A5AF8"/>
<path d="M39.5596 29.0956C39.8332 26.9864 42.8866 26.9864 43.1602 29.0956V29.0956C43.3571 30.6133 45.2284 31.2213 46.2797 30.1092V30.1092C47.7408 28.5636 50.2111 30.3584 49.1927 32.2256V32.2256C48.4599 33.5692 49.6164 35.161 51.1207 34.8792V34.8792C53.2112 34.4876 54.1547 37.3916 52.2333 38.3036V38.3036C50.8507 38.9598 50.8507 40.9274 52.2333 41.5837V41.5837C54.1547 42.4956 53.2112 45.3996 51.1207 45.0081V45.0081C49.6164 44.7263 48.4599 46.3181 49.1927 47.6617V47.6617C50.2111 49.5289 47.7408 51.3236 46.2797 49.7781V49.7781C45.2284 48.6659 43.3571 49.274 43.1602 50.7917V50.7917C42.8866 52.9009 39.8332 52.9009 39.5596 50.7917V50.7917C39.3627 49.274 37.4914 48.6659 36.44 49.7781V49.7781C34.979 51.3236 32.5087 49.5289 33.5271 47.6617V47.6617C34.2599 46.3181 33.1034 44.7263 31.5991 45.0081V45.0081C29.5086 45.3996 28.565 42.4956 30.4864 41.5837V41.5837C31.8691 40.9274 31.8691 38.9598 30.4864 38.3036V38.3036C28.565 37.3916 29.5086 34.4876 31.5991 34.8792V34.8792C33.1034 35.161 34.2599 33.5692 33.5271 32.2256V32.2256C32.5087 30.3584 34.979 28.5636 36.44 30.1092V30.1092C37.4914 31.2213 39.3627 30.6133 39.5596 29.0956V29.0956Z" fill="#D9D6FE" stroke="#5925DC" stroke-width="0.951042"/>
</svg>
