<svg width="24" height="24" viewBox="0 0 24 24" fill="none" xmlns="http://www.w3.org/2000/svg">
<g id="twemoji:flag-pakistan" clip-path="url(#clip0_5640_1566)">
<path id="Vector" d="M21.3333 3.3335H6V20.6668H21.3333C22.0406 20.6668 22.7189 20.3859 23.219 19.8858C23.719 19.3857 24 18.7074 24 18.0002V6.00016C24 5.29292 23.719 4.61464 23.219 4.11454C22.7189 3.61445 22.0406 3.3335 21.3333 3.3335ZM15 16.9815C13.6739 16.9815 12.4021 16.4547 11.4645 15.517C10.5268 14.5793 10 13.3076 10 11.9815C10 9.5015 11.8073 7.44883 14.1753 7.05483C13.2798 7.46977 12.553 8.17813 12.115 9.0626C11.6771 9.94707 11.5544 10.9546 11.7673 11.9183C11.9802 12.882 12.5159 13.7441 13.2856 14.3618C14.0554 14.9795 15.0131 15.3157 16 15.3148C16.8255 15.3141 17.6336 15.0776 18.3292 14.6332C19.0249 14.1888 19.5791 13.5549 19.9267 12.8062C19.5327 15.1748 17.48 16.9815 15 16.9815ZM18.4067 10.0322L17.598 11.3802L17.4593 9.81416L15.9273 9.46216L17.374 8.84616L17.236 7.28016L18.268 8.46616L19.7147 7.85016L18.9067 9.19883L19.9387 10.3848L18.4067 10.0322Z" fill="#004600"/>
<path id="Vector_2" d="M2.66667 3.3335C1.95942 3.3335 1.28115 3.61445 0.781049 4.11454C0.280952 4.61464 0 5.29292 0 6.00016L0 18.0002C0 18.7074 0.280952 19.3857 0.781049 19.8858C1.28115 20.3859 1.95942 20.6668 2.66667 20.6668H6V3.3335H2.66667Z" fill="#EEEEEE"/>
<path id="Vector_3" d="M19.717 7.85003L18.2704 8.46603L17.2384 7.28003L17.3764 8.84603L15.9297 9.46203L17.4617 9.81403L17.6004 11.38L18.409 10.032L19.941 10.3847L18.909 9.1987L19.717 7.85003Z" fill="white"/>
<path id="Vector_4" d="M16 15.3147C15.0131 15.3156 14.0554 14.9794 13.2856 14.3617C12.5159 13.744 11.9802 12.8819 11.7673 11.9182C11.5544 10.9544 11.6771 9.94693 12.115 9.06246C12.553 8.17798 13.2798 7.46962 14.1753 7.05469C11.8073 7.44935 10 9.50202 10 11.9814C10 13.3074 10.5268 14.5792 11.4645 15.5169C12.4021 16.4546 13.6739 16.9814 15 16.9814C17.48 16.9814 19.5327 15.174 19.9267 12.806C19.5797 13.5553 19.0257 14.1896 18.3299 14.6341C17.6341 15.0786 16.8257 15.3148 16 15.3147Z" fill="white"/>
</g>
<defs>
<clipPath id="clip0_5640_1566">
<rect width="24" height="24" fill="white"/>
</clipPath>
</defs>
</svg>
