<svg width="42" height="41" viewBox="0 0 42 41" fill="none" xmlns="http://www.w3.org/2000/svg">
<path d="M35.5863 27.2156C33.021 23.6846 28.0789 22.9019 24.548 25.4673C21.0171 28.0326 20.2344 32.9747 22.7997 36.5056C25.3651 40.0365 30.0332 38.8075 31.7355 35.36C35.5798 34.7777 38.1517 30.7465 35.5863 27.2156Z" fill="#7A5AF8"/>
<path d="M20.4536 19.7305C19.922 20.1167 21.2657 31.7463 21.2657 31.7463L31.51 24.3033C31.51 24.3033 20.9852 19.3443 20.4536 19.7305Z" fill="#7A5AF8"/>
<path d="M19.1275 36.4395C21.6929 32.9086 20.9101 27.9666 17.3792 25.4012C13.8483 22.8358 8.90626 23.6186 6.34089 27.1495C3.77553 30.6804 6.38692 34.7402 10.1917 35.2939C11.9335 38.7701 16.5621 39.9704 19.1275 36.4395Z" fill="#7A5AF8"/>
<path d="M21.5708 19.7308C21.0392 19.3446 10.3941 24.2162 10.3941 24.2162L20.6384 31.6592C20.6384 31.6592 22.1024 20.117 21.5708 19.7308Z" fill="#7A5AF8"/>
<path d="M5.25678 23.6356C9.40763 24.9843 13.8659 22.7127 15.2146 18.5618C16.5633 14.411 14.2917 9.95272 10.1408 8.60403C5.98997 7.25533 2.93583 10.9935 3.58498 14.7831C0.817147 17.5139 1.10592 22.2869 5.25678 23.6356Z" fill="#7A5AF8"/>
<path d="M21.9023 20.794C22.1053 20.1691 14.1826 11.5504 14.1826 11.5504L10.2696 23.5933C10.2696 23.5933 21.6992 21.4189 21.9023 20.794Z" fill="#7A5AF8"/>
<path d="M13.1558 6.49867C13.1558 10.8631 16.6939 14.4012 21.0584 14.4012C25.4228 14.4012 28.9609 10.8631 28.9609 6.49867C28.9609 2.13421 24.462 0.384687 21.0584 2.17314C17.606 0.384623 13.1558 2.13421 13.1558 6.49867Z" fill="#7A5AF8"/>
<path d="M20.9992 21.4512C21.6563 21.4512 27.4049 11.2529 27.4049 11.2529L14.7422 11.2529C14.7422 11.2529 20.3421 21.4512 20.9992 21.4512Z" fill="#7A5AF8"/>
<path d="M31.8892 8.71126C27.7383 10.06 25.4667 14.5182 26.8154 18.6691C28.1641 22.8199 32.6224 25.0915 36.7732 23.7428C40.9241 22.3941 41.1977 17.5747 38.445 14.8904C39.0792 11.0543 36.04 7.36257 31.8892 8.71126Z" fill="#7A5AF8"/>
<path d="M20.0898 20.794C20.2928 21.4189 31.7684 23.7348 31.7684 23.7348L27.8554 11.6918C27.8554 11.6918 19.8867 20.1691 20.0898 20.794Z" fill="#7A5AF8"/>
</svg>
