<svg width="80" height="80" viewBox="0 0 80 80" fill="none" xmlns="http://www.w3.org/2000/svg">
<path fill-rule="evenodd" clip-rule="evenodd" d="M65.247 47.7504C66.7645 48.7981 68.6047 49.4117 70.5882 49.4117C75.7862 49.4117 80 45.1979 80 40C80 34.802 75.7862 30.5882 70.5882 30.5882C68.6049 30.5882 66.7648 31.2017 65.2475 32.2493C58.9288 35.7065 45.8824 38.9019 45.8824 38.9019L45.8824 41.098C45.8824 41.098 58.9282 44.2932 65.247 47.7504Z" fill="#EB5A35"/>
<path fill-rule="evenodd" clip-rule="evenodd" d="M52.378 63.3329C52.7101 65.1467 53.5775 66.8817 54.98 68.2842C58.6555 71.9598 64.6147 71.9598 68.2902 68.2842C71.9657 64.6087 71.9657 58.6495 68.2902 54.974C66.8877 53.5716 65.1528 52.7042 63.3391 52.372C56.4265 50.3487 44.9418 43.383 44.9418 43.383L43.389 44.9359C43.389 44.9359 50.3545 56.4203 52.378 63.3329Z" fill="#EB5A35"/>
<path fill-rule="evenodd" clip-rule="evenodd" d="M32.2515 65.2475C31.204 66.7648 30.5906 68.6048 30.5906 70.5881C30.5906 75.7861 34.8043 79.9999 40.0023 79.9999C45.2003 79.9999 49.4141 75.7861 49.4141 70.5881C49.4141 68.6045 48.8004 66.7643 47.7526 65.2468C44.2956 58.9279 41.1003 45.8823 41.1003 45.8823L38.9042 45.8823C38.9042 45.8823 35.7088 58.9289 32.2515 65.2475Z" fill="#EB5A35"/>
<path fill-rule="evenodd" clip-rule="evenodd" d="M16.6714 52.3719C14.8576 52.7041 13.1225 53.5714 11.7199 54.974C8.04437 58.6495 8.04437 64.6087 11.7199 68.2842C15.3954 71.9597 21.3546 71.9597 25.0301 68.2842C26.4326 66.8817 27.2999 65.1468 27.6321 63.3331C29.6555 56.4205 36.6211 44.9359 36.6211 44.9359L35.0682 43.383C35.0682 43.383 23.5841 50.3484 16.6714 52.3719Z" fill="#EB5A35"/>
<path fill-rule="evenodd" clip-rule="evenodd" d="M14.753 32.2496C13.2355 31.2018 11.3953 30.5882 9.41175 30.5882C4.21379 30.5882 1.18579e-06 34.802 7.63901e-07 40C3.4201e-07 45.198 4.21378 49.4117 9.41175 49.4117C11.3951 49.4117 13.2352 48.7983 14.7525 47.7507C21.0712 44.2935 34.1176 41.0981 34.1176 41.0981L34.1176 38.902C34.1176 38.902 21.0718 35.7067 14.753 32.2496Z" fill="#EB5A35"/>
<path fill-rule="evenodd" clip-rule="evenodd" d="M27.622 16.6671C27.2899 14.8533 26.4225 13.1183 25.02 11.7158C21.3445 8.0403 15.3853 8.0403 11.7098 11.7158C8.03428 15.3913 8.03428 21.3505 11.7098 25.026C13.1123 26.4285 14.8472 27.2958 16.6609 27.628C23.5735 29.6514 35.0582 36.617 35.0582 36.617L36.611 35.0642C36.611 35.0642 29.6455 23.5797 27.622 16.6671Z" fill="#EB5A35"/>
<path fill-rule="evenodd" clip-rule="evenodd" d="M47.7563 14.7525C48.8038 13.2352 49.4172 11.3952 49.4172 9.41187C49.4172 4.21391 45.2035 0.000123348 40.0055 0.000122893C34.8075 0.000122439 30.5937 4.21391 30.5937 9.41187C30.5937 11.3955 31.2074 13.2358 32.2552 14.7532C35.7123 21.0721 38.9075 34.1177 38.9075 34.1177L41.1036 34.1177C41.1036 34.1177 44.299 21.0712 47.7563 14.7525Z" fill="#EB5A35"/>
<path fill-rule="evenodd" clip-rule="evenodd" d="M63.3286 27.628C65.1424 27.2959 66.8775 26.4285 68.2801 25.0259C71.9556 21.3504 71.9556 15.3912 68.2801 11.7157C64.6046 8.0402 58.6454 8.0402 54.9699 11.7157C53.5674 13.1182 52.7001 14.8532 52.3679 16.6669C50.3445 23.5795 43.3789 35.064 43.3789 35.064L44.9318 36.6169C44.9318 36.6169 56.4159 29.6515 63.3286 27.628Z" fill="#EB5A35"/>
</svg>
