<svg width="41" height="41" viewBox="0 0 41 41" fill="none" xmlns="http://www.w3.org/2000/svg">
<path fill-rule="evenodd" clip-rule="evenodd" d="M33.1234 24.3752C33.8822 24.8991 34.8023 25.206 35.7941 25.206C38.3931 25.206 40.5 23.0991 40.5 20.5001C40.5 17.9011 38.3931 15.7942 35.7941 15.7942C34.8025 15.7942 33.8824 16.1009 33.1238 16.6247C29.9644 18.3533 23.4412 19.951 23.4412 19.951L23.4412 21.0491C23.4412 21.0491 29.964 22.6467 33.1234 24.3752Z" fill="#EB5A35"/>
<path fill-rule="evenodd" clip-rule="evenodd" d="M26.6925 32.1646C26.8583 33.0722 27.2921 33.9405 27.9939 34.6423C29.8316 36.48 32.8112 36.48 34.649 34.6423C36.4868 32.8045 36.4868 29.8249 34.649 27.9871C33.9479 27.286 33.0807 26.8524 32.174 26.6862C28.7177 25.6747 22.975 22.1916 22.975 22.1916L22.1986 22.968C22.1986 22.968 25.68 28.708 26.6925 32.1646Z" fill="#EB5A35"/>
<path fill-rule="evenodd" clip-rule="evenodd" d="M16.6219 33.1236C16.0981 33.8823 15.7913 34.8024 15.7913 35.7941C15.7913 38.3931 17.8982 40.5 20.4972 40.5C23.0962 40.5 25.2031 38.3931 25.2031 35.7941C25.2031 34.8024 24.8963 33.8823 24.3725 33.1236C22.6439 29.9642 21.0462 23.4412 21.0462 23.4412L19.9482 23.4412C19.9482 23.4412 18.3505 29.9642 16.6219 33.1236Z" fill="#EB5A35"/>
<path fill-rule="evenodd" clip-rule="evenodd" d="M8.83554 26.686C7.92867 26.8521 7.06118 27.2858 6.35994 27.987C4.52217 29.8248 4.52217 32.8044 6.35993 34.6422C8.1977 36.4799 11.1773 36.4799 13.0151 34.6422C13.7165 33.9408 14.1502 33.073 14.3162 32.166C15.3281 28.7096 18.8105 22.968 18.8105 22.968L18.0341 22.1915C18.0341 22.1915 12.2919 25.6743 8.83554 26.686Z" fill="#EB5A35"/>
<path fill-rule="evenodd" clip-rule="evenodd" d="M7.87657 16.625C7.11783 16.1011 6.19769 15.7943 5.20589 15.7943C2.6069 15.7943 0.500001 17.9012 0.5 20.5002C0.5 23.0992 2.6069 25.2061 5.20589 25.2061C6.19755 25.2061 7.11756 24.8993 7.87624 24.3756C11.0356 22.6469 17.5588 21.0492 17.5588 21.0492L17.5588 19.9512C17.5588 19.9512 11.036 18.3536 7.87657 16.625Z" fill="#EB5A35"/>
<path fill-rule="evenodd" clip-rule="evenodd" d="M14.3075 8.83566C14.1417 7.92804 13.7079 7.05976 13.0061 6.35798C11.1684 4.52022 8.18877 4.52022 6.351 6.35798C4.51324 8.19574 4.51324 11.1753 6.351 13.0131C7.05209 13.7142 7.91935 14.1478 8.82599 14.314C12.2823 15.3256 18.025 18.8086 18.025 18.8086L18.8014 18.0322C18.8014 18.0322 15.32 12.2922 14.3075 8.83566Z" fill="#EB5A35"/>
<path fill-rule="evenodd" clip-rule="evenodd" d="M24.3781 7.87637C24.9019 7.11767 25.2087 6.1976 25.2087 5.20589C25.2087 2.6069 23.1018 0.500001 20.5028 0.5C17.9038 0.5 15.7969 2.6069 15.7969 5.20589C15.7969 6.19763 16.1037 7.11772 16.6275 7.87644C18.3561 11.0358 19.9538 17.5588 19.9538 17.5588L21.0518 17.5588C21.0518 17.5588 22.6495 11.0357 24.3781 7.87637Z" fill="#EB5A35"/>
<path fill-rule="evenodd" clip-rule="evenodd" d="M32.1566 14.314C33.0635 14.1479 33.931 13.7142 34.6323 13.013C36.47 11.1752 36.47 8.1956 34.6323 6.35784C32.7945 4.52008 29.8149 4.52008 27.9771 6.35784C27.2757 7.05924 26.842 7.92695 26.676 8.83404C25.6641 12.2904 22.1817 18.032 22.1817 18.032L22.9581 18.8085C22.9581 18.8085 28.7003 15.3257 32.1566 14.314Z" fill="#EB5A35"/>
</svg>
