<svg width="101" height="100" viewBox="0 0 101 100" fill="none" xmlns="http://www.w3.org/2000/svg">
<g clip-path="url(#clip0_5482_15883)">
<path d="M50.3188 44.1466C52.5949 44.1466 54.5358 42.4012 55.2566 40.6558H45.3828C46.1019 42.4012 48.0428 44.1466 50.3188 44.1466Z" fill="white"/>
<path d="M64.9478 47.6375H34.609H15.4094H12.9973L6.01562 61.6008H57.9661L64.9478 47.6375Z" fill="url(#paint0_linear_5482_15883)"/>
<path d="M59.0448 65.0918H13.6641V90.7633C13.6641 93.6502 16.0134 96.5092 18.9003 96.5092H31.1182V76.8C31.1182 76.1943 31.4324 75.6341 31.9455 75.3147C32.4604 74.9935 33.1027 74.9691 33.6438 75.2379L36.3544 76.5923L39.0633 75.2379C39.5538 74.9918 40.1315 74.9918 40.6255 75.2379L43.3361 76.5923L46.0467 75.2379C46.5878 74.9691 47.2301 74.9935 47.745 75.3147C48.2582 75.6341 48.5723 76.1943 48.5723 76.8V96.5092H66.0265V52.7761L60.6052 63.8717C60.3103 64.4634 59.7081 65.0918 59.0448 65.0918Z" fill="url(#paint1_linear_5482_15883)"/>
<path d="M42.5562 80.1054L39.8456 78.751L37.1367 80.1054C36.6463 80.3515 36.0668 80.3515 35.5746 80.1054L34.6094 79.6237V96.5088H45.0819V79.6237L44.1166 80.1054C43.6279 80.3515 43.0502 80.3515 42.5562 80.1054Z" fill="#EEA500"/>
<path d="M74.9351 63.8717L69.5156 52.7761V96.5092H81.7335C84.6204 96.5092 86.9698 93.6502 86.9698 90.7633V65.0918H76.4973C75.8358 65.0918 75.2336 64.4634 74.9351 63.8717Z" fill="url(#paint2_linear_5482_15883)"/>
<path d="M41.5956 38.9103C41.5956 37.9451 42.3776 37.1649 43.341 37.1649H57.3043C58.2678 37.1649 59.0498 37.9451 59.0498 38.9103C59.0498 40.8826 58.3673 42.4012 57.259 44.1466H64.286V29.6736C64.286 26.7849 61.9367 24.947 59.0498 24.947H41.5956C38.7087 24.947 36.3594 26.7849 36.3594 29.6736V44.1466H43.3864C42.2798 42.4012 41.5956 40.8826 41.5956 38.9103ZM55.5589 29.6736C56.5224 29.6736 57.3043 30.4555 57.3043 31.419C57.3043 32.3825 56.5224 33.1644 55.5589 33.1644C54.5955 33.1644 53.8135 32.3825 53.8135 31.419C53.8135 30.4538 54.5955 29.6736 55.5589 29.6736ZM45.0864 29.6736C46.0499 29.6736 46.8319 30.4555 46.8319 31.419C46.8319 32.3825 46.0499 33.1644 45.0864 33.1644C44.123 33.1644 43.341 32.3825 43.341 31.419C43.341 30.4538 44.123 29.6736 45.0864 29.6736Z" fill="#EEA500"/>
<path d="M85.2238 47.6375H70.5938L77.5754 61.6008H94.6176L87.636 47.6375H85.2238Z" fill="url(#paint3_linear_5482_15883)"/>
<path d="M90.2771 44.8551C89.9822 44.2651 89.3782 44.1464 88.7167 44.1464H85.2259H67.7718V29.6735C67.7718 24.8614 63.8568 21.4561 59.0447 21.4561H41.5905C36.7784 21.4561 32.8635 24.8614 32.8635 29.6735V44.1464H15.4093H11.9185C11.257 44.1464 10.6531 44.2651 10.3564 44.8551L1.6293 62.1818C1.35876 62.7229 1.38843 63.5554 1.70609 64.0703C2.02376 64.587 2.58578 65.0914 3.19144 65.0914H10.1731V90.7629C10.1731 95.5733 14.0881 99.9997 18.9002 99.9997H32.8635H46.8268H67.7718H81.7351C86.5472 99.9997 90.4621 95.5733 90.4621 90.7629V65.0914H97.4438C98.0495 65.0914 98.6097 64.5224 98.9291 64.0075C99.2468 63.4926 99.2765 62.8503 99.0059 62.3092L90.2771 44.8551ZM36.3526 29.6735C36.3526 26.7848 38.7019 24.9469 41.5888 24.9469H59.0429C61.9299 24.9469 64.2792 26.7848 64.2792 29.6735V44.1464H57.2521C58.3605 42.401 59.0429 40.8825 59.0429 38.9102C59.0429 37.945 58.261 37.1648 57.2975 37.1648H43.3342C42.3707 37.1648 41.5888 37.945 41.5888 38.9102C41.5888 40.8825 42.2713 42.401 43.3796 44.1464H36.3526V29.6735ZM45.3781 40.6556H55.2519C54.531 42.401 52.5901 44.1464 50.3141 44.1464C48.0399 44.1464 46.099 42.401 45.3781 40.6556ZM12.9954 47.6373H15.4076H34.6071H64.9459L57.9643 61.6006H6.01378L12.9954 47.6373ZM13.6622 90.7629V65.0914H59.0429C59.7045 65.0914 60.3084 64.4631 60.6033 63.8714L66.0246 52.7758V96.5089H48.5705V76.7996C48.5705 76.194 48.2563 75.6337 47.7431 75.3143C47.2282 74.9931 46.5842 74.9687 46.0448 75.2375L43.3342 76.5919L40.6236 75.2375C40.1314 74.9914 39.5536 74.9914 39.0614 75.2375L36.3526 76.5919L33.6419 75.2375C33.1009 74.9687 32.4585 74.9931 31.9436 75.3143C31.4305 75.6337 31.1163 76.194 31.1163 76.7996V96.5089H18.8984C16.0115 96.5089 13.6622 93.6499 13.6622 90.7629ZM34.6071 96.5089V79.6237L35.5724 80.1055C36.0628 80.3516 36.6423 80.3516 37.1345 80.1055L39.8434 78.751L42.554 80.1055C43.0462 80.3516 43.624 80.3516 44.1162 80.1055L45.0796 79.6237V96.5089H34.6071ZM86.9696 90.7629C86.9696 93.6499 84.6202 96.5089 81.7333 96.5089H69.5154V52.7758L74.9349 63.8714C75.2317 64.4631 75.8356 65.0914 76.4971 65.0914H86.9696V90.7629ZM77.5758 61.6006L70.5941 47.6373H85.2242H87.6363L94.618 61.6006H77.5758Z" fill="#002882"/>
<path d="M90.2771 44.8551C89.9822 44.2651 89.3782 44.1464 88.7167 44.1464H85.2259H67.7718V29.6735C67.7718 24.8614 63.8568 21.4561 59.0447 21.4561H41.5905C36.7784 21.4561 32.8635 24.8614 32.8635 29.6735V44.1464H15.4093H11.9185C11.257 44.1464 10.6531 44.2651 10.3564 44.8551L1.6293 62.1818C1.35876 62.7229 1.38843 63.5554 1.70609 64.0703C2.02376 64.587 2.58578 65.0914 3.19144 65.0914H10.1731V90.7629C10.1731 95.5733 14.0881 99.9997 18.9002 99.9997H32.8635H46.8268H67.7718H81.7351C86.5472 99.9997 90.4621 95.5733 90.4621 90.7629V65.0914H97.4438C98.0495 65.0914 98.6097 64.5224 98.9291 64.0075C99.2468 63.4926 99.2765 62.8503 99.0059 62.3092L90.2771 44.8551ZM36.3526 29.6735C36.3526 26.7848 38.7019 24.9469 41.5888 24.9469H59.0429C61.9299 24.9469 64.2792 26.7848 64.2792 29.6735V44.1464H57.2521C58.3605 42.401 59.0429 40.8825 59.0429 38.9102C59.0429 37.945 58.261 37.1648 57.2975 37.1648H43.3342C42.3707 37.1648 41.5888 37.945 41.5888 38.9102C41.5888 40.8825 42.2713 42.401 43.3796 44.1464H36.3526V29.6735ZM45.3781 40.6556H55.2519C54.531 42.401 52.5901 44.1464 50.3141 44.1464C48.0399 44.1464 46.099 42.401 45.3781 40.6556ZM12.9954 47.6373H15.4076H34.6071H64.9459L57.9643 61.6006H6.01378L12.9954 47.6373ZM13.6622 90.7629V65.0914H59.0429C59.7045 65.0914 60.3084 64.4631 60.6033 63.8714L66.0246 52.7758V96.5089H48.5705V76.7996C48.5705 76.194 48.2563 75.6337 47.7431 75.3143C47.2282 74.9931 46.5842 74.9687 46.0448 75.2375L43.3342 76.5919L40.6236 75.2375C40.1314 74.9914 39.5536 74.9914 39.0614 75.2375L36.3526 76.5919L33.6419 75.2375C33.1009 74.9687 32.4585 74.9931 31.9436 75.3143C31.4305 75.6337 31.1163 76.194 31.1163 76.7996V96.5089H18.8984C16.0115 96.5089 13.6622 93.6499 13.6622 90.7629ZM34.6071 96.5089V79.6237L35.5724 80.1055C36.0628 80.3516 36.6423 80.3516 37.1345 80.1055L39.8434 78.751L42.554 80.1055C43.0462 80.3516 43.624 80.3516 44.1162 80.1055L45.0796 79.6237V96.5089H34.6071ZM86.9696 90.7629C86.9696 93.6499 84.6202 96.5089 81.7333 96.5089H69.5154V52.7758L74.9349 63.8714C75.2317 64.4631 75.8356 65.0914 76.4971 65.0914H86.9696V90.7629ZM77.5758 61.6006L70.5941 47.6373H85.2242H87.6363L94.618 61.6006H77.5758Z" fill="black" fill-opacity="0.2"/>
<path d="M45.0814 33.1644C46.0453 33.1644 46.8268 32.383 46.8268 31.419C46.8268 30.455 46.0453 29.6736 45.0814 29.6736C44.1174 29.6736 43.3359 30.455 43.3359 31.419C43.3359 32.383 44.1174 33.1644 45.0814 33.1644Z" fill="#1A1A1A"/>
<path d="M55.5501 33.1644C56.5141 33.1644 57.2955 32.383 57.2955 31.419C57.2955 30.455 56.5141 29.6736 55.5501 29.6736C54.5861 29.6736 53.8047 30.455 53.8047 31.419C53.8047 32.383 54.5861 33.1644 55.5501 33.1644Z" fill="#1A1A1A"/>
<path d="M15.4086 40.6557H18.8995C18.8995 30.1832 11.0695 22.6919 1.44531 22.6919V26.1827C9.14433 26.1827 15.4086 31.9286 15.4086 40.6557Z" fill="#1A1A1A"/>
<path d="M22.3871 24.9469H25.8779C25.8779 10.9836 15.6986 1.74512 3.1875 1.74512V5.23594C13.7734 5.23594 22.3871 12.729 22.3871 24.9469Z" fill="#1A1A1A"/>
<path d="M41.5929 17.9652H45.0837C45.0837 9.23814 38.0357 1.74683 29.375 1.74683V5.23765C36.114 5.23591 41.5929 10.9836 41.5929 17.9652Z" fill="#1A1A1A"/>
<path d="M81.7344 40.6557H85.2252C85.2252 31.9286 91.4895 26.1827 99.1885 26.1827V22.6919C89.5643 22.6919 81.7344 30.1832 81.7344 40.6557Z" fill="#1A1A1A"/>
<path d="M97.4404 5.23594V1.74512C84.9275 1.74512 74.75 10.9836 74.75 24.9469H78.2408C78.2408 12.729 86.8562 5.23594 97.4404 5.23594Z" fill="#1A1A1A"/>
<path d="M71.2634 5.23595V1.74512C62.6027 1.74512 55.5547 9.23818 55.5547 17.9653H59.0455C59.0455 10.9836 64.5261 5.23595 71.2634 5.23595Z" fill="#1A1A1A"/>
<path d="M25.8815 27.928H22.3906V31.4188H25.8815V27.928Z" fill="#1A1A1A"/>
<path d="M25.8815 34.9097H22.3906V38.4005H25.8815V34.9097Z" fill="#1A1A1A"/>
<path d="M78.2408 27.928H74.75V31.4188H78.2408V27.928Z" fill="#1A1A1A"/>
<path d="M78.2408 34.9097H74.75V38.4005H78.2408V34.9097Z" fill="#1A1A1A"/>
<path d="M25.8815 1.74512H22.3906V5.23594H25.8815V1.74512Z" fill="#1A1A1A"/>
<path d="M78.2408 1.74512H74.75V5.23594H78.2408V1.74512Z" fill="#1A1A1A"/>
<path d="M52.0611 13.9648H48.5703V17.4557H52.0611V13.9648Z" fill="#1A1A1A"/>
<path d="M52.0611 6.98145H48.5703V10.4723H52.0611V6.98145Z" fill="#1A1A1A"/>
<path d="M52.0611 -0.000244141H48.5703V3.49058H52.0611V-0.000244141Z" fill="#1A1A1A"/>
<path d="M34.608 13.9648H31.1172V17.4557H34.608V13.9648Z" fill="#1A1A1A"/>
<path d="M69.5143 13.9648H66.0234V17.4557H69.5143V13.9648Z" fill="#1A1A1A"/>
</g>
<defs>
<linearGradient id="paint0_linear_5482_15883" x1="6.01562" y1="54.6191" x2="64.9478" y2="54.6191" gradientUnits="userSpaceOnUse">
<stop stop-color="#0032A3"/>
<stop offset="0.25" stop-color="#1A51CB"/>
<stop offset="0.5" stop-color="#3B66C8"/>
<stop offset="0.75" stop-color="#1A51CB"/>
<stop offset="1" stop-color="#0032A3"/>
</linearGradient>
<linearGradient id="paint1_linear_5482_15883" x1="13.6641" y1="74.6427" x2="66.0265" y2="74.6427" gradientUnits="userSpaceOnUse">
<stop stop-color="#0032A3"/>
<stop offset="0.25" stop-color="#1A51CB"/>
<stop offset="0.5" stop-color="#3B66C8"/>
<stop offset="0.75" stop-color="#1A51CB"/>
<stop offset="1" stop-color="#0032A3"/>
</linearGradient>
<linearGradient id="paint2_linear_5482_15883" x1="69.5156" y1="74.6427" x2="86.9698" y2="74.6427" gradientUnits="userSpaceOnUse">
<stop stop-color="#0032A3"/>
<stop offset="0.25" stop-color="#1A51CB"/>
<stop offset="0.5" stop-color="#3B66C8"/>
<stop offset="0.75" stop-color="#1A51CB"/>
<stop offset="1" stop-color="#0032A3"/>
</linearGradient>
<linearGradient id="paint3_linear_5482_15883" x1="70.5938" y1="54.6191" x2="94.6176" y2="54.6191" gradientUnits="userSpaceOnUse">
<stop stop-color="#0032A3"/>
<stop offset="0.25" stop-color="#1A51CB"/>
<stop offset="0.5" stop-color="#3B66C8"/>
<stop offset="0.75" stop-color="#1A51CB"/>
<stop offset="1" stop-color="#0032A3"/>
</linearGradient>
<clipPath id="clip0_5482_15883">
<rect width="100" height="100" fill="white" transform="translate(0.328125)"/>
</clipPath>
</defs>
</svg>
