<svg width="435" height="420" viewBox="0 0 435 420" fill="none" xmlns="http://www.w3.org/2000/svg">
<g clip-path="url(#clip0_5466_15470)">
<path d="M119.473 229.786C93.555 229.786 72.161 220.529 55.2938 202.015C38.4266 183.502 29.9922 162.108 29.9922 137.836C29.9922 113.563 39.4548 91.5527 58.3791 71.8051C77.3035 52.0575 99.1082 42.1833 123.793 42.1833C148.478 42.1833 169.871 52.0575 187.973 71.8051C206.075 91.5527 215.126 114.386 215.126 140.305C215.126 166.223 205.663 187.617 186.739 204.484C167.814 221.351 145.392 229.786 119.473 229.786Z" fill="#E0F2FE"/>
<path d="M319.403 229.786C293.485 229.786 272.091 220.529 255.224 202.015C238.356 183.502 229.922 162.108 229.922 137.836C229.922 113.563 239.384 91.5527 258.309 71.8051C277.233 52.0575 299.038 42.1833 323.723 42.1833C348.407 42.1833 369.8 52.0575 387.902 71.8051C406.004 91.5527 415.055 114.386 415.055 140.305C415.055 166.223 405.593 187.617 386.668 204.484C367.744 221.351 345.322 229.786 319.403 229.786Z" fill="#E0F2FE"/>
<path d="M289.44 93.8112C289.44 93.8112 295.488 121.684 284.54 130.443C273.593 139.201 244.035 128.253 253.34 164.38C262.646 200.506 325.593 237.18 339.277 219.117C352.962 201.053 377.045 135.916 352.414 132.633C327.783 129.348 320.119 144.127 321.761 116.759C323.404 89.3903 289.44 93.8112 289.44 93.8112Z" fill="#965450"/>
<path d="M290.221 119.705C292.824 123.06 296.017 125.956 298.975 127.943C306.663 133.106 315.682 134.056 324.681 134.232C322.172 131.311 321.197 126.115 321.759 116.758C323.401 89.3903 289.438 93.8112 289.438 93.8112C289.438 93.8112 292.585 108.332 290.221 119.705Z" fill="#76413B"/>
<path d="M335.816 36.5444C335.816 36.5444 286.753 13.1084 282.825 47.5955C279.116 80.1648 297.998 128.4 324.231 125.243C337.245 123.676 347.94 119.909 344.75 89.225C341.738 60.2677 342.425 48.7429 335.816 36.5444Z" fill="#965450"/>
<path d="M305.613 48.3379C305.613 48.3379 306.982 59.8325 298.224 62.5692C298.224 62.5692 303.052 101.948 303.697 106.085C304.49 111.157 311.377 114.933 311.377 98.7858C311.377 85.9229 322.581 90.7588 327.782 90.2111C332.982 89.6634 339.277 87.2005 340.098 97.6006C340.919 108.001 346.119 101.98 344.751 88.8427C344.751 88.8427 354.056 119.221 340.372 124.969C326.687 130.717 297.079 141.423 293.522 101.465C289.963 61.5066 283.994 69.6857 281.53 74.3385C279.067 78.9912 279.888 94.317 289.193 94.8647C289.193 94.8647 262.098 71.3279 269.215 51.8962C276.33 32.4645 287.825 38.2118 287.825 38.2118C287.825 38.2118 290.288 25.075 300.962 22.0644C311.635 19.0539 314.646 33.8328 329.151 22.6121C343.656 11.3914 353.509 36.2965 360.625 24.5281C360.625 24.5281 362.814 36.2965 350.225 34.1067C350.225 34.1067 355.972 39.8539 360.899 32.1906C360.899 32.1906 358.983 52.9907 338.184 49.4325C317.382 45.8742 323.403 60.1063 305.613 48.3379Z" fill="#352C38"/>
<path d="M291.933 83.6432C291.933 83.6432 291.367 67.1691 283.704 70.7265C276.04 74.2847 279.343 98.4221 292.206 95.4116L291.933 83.6432Z" fill="#965450"/>
<path d="M314.43 95.9795C314.43 95.9795 330.5 97.0001 337.388 97.1278C337.388 97.1278 328.077 106.311 314.43 95.9795Z" fill="white"/>
<path d="M289.677 92.7915C288.976 92.4816 288.301 92.0977 287.681 91.613C287.37 91.3719 287.08 91.0956 286.818 90.7747C286.561 90.4538 286.325 90.0725 286.238 89.597C286.196 89.3627 286.195 89.1039 286.257 88.8612C286.31 88.6151 286.421 88.3874 286.554 88.1883C286.825 87.7919 287.174 87.5071 287.527 87.266C288.247 86.8091 289.007 86.5344 289.765 86.2916L289.277 86.9561C289.069 84.8569 288.762 82.7334 288.341 80.6779C288.124 79.6497 287.85 78.6417 287.527 77.6766C287.194 76.7324 286.741 75.7866 286.152 75.2515C285.858 74.9886 285.576 74.8701 285.241 74.892L285.21 74.8911H285.203H285.198C285.219 74.8869 285.146 74.9004 285.245 74.8819L285.22 74.8869L285.121 74.9063L284.923 74.9449C284.798 74.9726 284.764 75.0045 284.675 75.0255C284.503 75.1003 284.332 75.2045 284.172 75.3313C283.521 75.8538 283.118 76.8173 282.853 77.7933C282.583 78.7829 282.461 79.8387 282.371 80.8988C282.298 81.9614 282.26 83.0375 282.28 84.1211C282.01 83.0702 281.829 81.9925 281.743 80.9013C281.651 79.8093 281.648 78.7022 281.811 77.5791C281.89 77.0172 282.031 76.4552 282.248 75.8983C282.468 75.3447 282.779 74.787 283.258 74.3183C283.497 74.0822 283.781 73.8924 284.096 73.7353C284.261 73.6673 284.471 73.5799 284.608 73.5446L284.804 73.4951L284.902 73.4707L284.926 73.4648L284.994 73.4539L285.012 73.4522L285.082 73.4463C285.824 73.3304 286.629 73.632 287.144 74.0705C287.681 74.5031 288.031 75.0289 288.332 75.5447C288.623 76.0655 288.847 76.5972 289.052 77.1297C289.447 78.1949 289.712 79.2793 289.918 80.3621C290.128 81.4457 290.293 82.5301 290.39 83.6196C290.49 84.7116 290.582 85.7893 290.588 86.8981L290.59 87.4542L290.1 87.5634C289.393 87.7205 288.691 87.9212 288.09 88.2245C287.794 88.3765 287.524 88.5563 287.335 88.7679C287.242 88.8746 287.167 88.9863 287.125 89.1081C287.073 89.2274 287.057 89.3593 287.062 89.5004C287.072 90.0851 287.524 90.7327 288.004 91.2737C288.5 91.8197 289.07 92.327 289.677 92.7915Z" fill="#76413B"/>
<path d="M327.312 90.113C328.762 89.7803 330.217 89.5266 331.675 89.2872C333.131 89.047 334.592 88.8504 336.053 88.6539L335.461 89.5896C334.777 87.8945 334.141 86.1944 333.569 84.4656C332.982 82.7436 332.473 80.9939 332.002 79.235C331.769 78.3555 331.565 77.4642 331.37 76.5738C331.173 75.6843 330.977 74.793 330.859 73.8833C330.731 72.977 330.552 72.0849 330.499 71.1668C330.434 70.2512 330.394 69.3372 330.373 68.4292C330.636 69.3095 330.881 70.184 331.099 71.0567C331.196 71.4952 331.349 71.9236 331.48 72.3562L331.868 73.6523L332.243 74.9476L332.659 76.2345C332.946 77.0896 333.169 77.959 333.462 78.8124C333.754 79.665 334.01 80.5286 334.279 81.387C334.556 82.2438 334.852 83.0956 335.109 83.9591L336.766 89.1033L337.056 90.0046L336.174 90.0399C334.701 90.0987 333.228 90.1575 331.752 90.1718C330.274 90.1894 328.797 90.1911 327.312 90.113Z" fill="#76413B"/>
<path d="M333.456 73.7575C333.456 73.7575 333.55 74.0062 333.714 74.4421C333.878 74.873 334.119 75.4812 334.441 76.1742C334.605 76.5186 334.794 76.8823 335.002 77.2502C335.212 77.6182 335.471 77.9701 335.737 78.3112C335.877 78.4741 336.033 78.6194 336.183 78.7698C336.358 78.8756 336.504 79.0394 336.684 79.1201C336.857 79.2142 337.029 79.3166 337.222 79.3477C337.403 79.4216 337.603 79.425 337.801 79.43L337.949 79.446L337.967 79.4485C337.931 79.4519 338.054 79.441 337.888 79.4569L337.894 79.4561L337.906 79.4544L337.955 79.4485L338.052 79.4359L338.441 79.3855C338.599 79.378 338.618 79.3242 338.699 79.2998C338.768 79.2646 338.838 79.2604 338.914 79.2142C339.214 79.0109 339.535 78.7916 339.748 78.4313C339.979 78.0978 340.159 77.7072 340.314 77.3242C340.448 76.9294 340.568 76.543 340.662 76.175C340.838 75.4367 340.944 74.7907 341.016 74.3363C341.084 73.876 341.123 73.613 341.123 73.613C341.123 73.613 341.215 73.8667 341.316 74.327C341.414 74.7874 341.53 75.4552 341.523 76.2775C341.52 76.6891 341.49 77.1402 341.403 77.619C341.299 78.0953 341.175 78.6144 340.888 79.1167L340.668 79.4964C340.58 79.619 340.475 79.735 340.375 79.8551C340.195 80.1113 339.904 80.2877 339.638 80.48C339.351 80.6329 338.924 80.8051 338.663 80.8547L338.276 80.9185L338.18 80.9345L338.131 80.942L338.119 80.9437L338.022 80.9521L337.991 80.9513L337.748 80.9395C337.421 80.921 337.099 80.8891 336.788 80.7665C336.465 80.6867 336.188 80.5237 335.915 80.3582C335.63 80.2079 335.434 79.9718 335.206 79.7761C335.018 79.5535 334.831 79.3318 334.674 79.105C334.069 78.1818 333.786 77.241 333.621 76.4422C333.452 75.6416 333.422 74.9663 333.422 74.4959C333.422 74.0246 333.456 73.7575 333.456 73.7575Z" fill="#352C38"/>
<path d="M310.766 76.2147C310.766 76.2147 310.864 76.4826 311.042 76.9362C311.22 77.3898 311.478 78.0316 311.826 78.759C312.003 79.1211 312.209 79.5008 312.433 79.8863C312.661 80.271 312.942 80.6348 313.228 80.9901C313.384 81.1505 313.544 81.3135 313.711 81.4596C313.898 81.568 314.053 81.7436 314.25 81.8166C314.437 81.9166 314.624 82.0098 314.829 82.0468C315.022 82.1258 315.236 82.13 315.448 82.1384L315.607 82.1535L315.627 82.156L315.637 82.1568C315.6 82.1602 315.727 82.1493 315.556 82.1652L315.562 82.1644L315.614 82.1577L315.716 82.1442L316.127 82.0896C316.291 82.0804 316.339 82.0308 316.416 82.0023C316.491 81.9704 316.566 81.9519 316.648 81.9233C316.97 81.7116 317.322 81.5016 317.551 81.1245C317.804 80.7843 317.998 80.3744 318.168 79.9745C318.318 79.5629 318.445 79.1564 318.549 78.7683C318.738 77.9904 318.853 77.3084 318.929 76.8279C319.006 76.3466 319.042 76.0635 319.042 76.0635C319.042 76.0635 319.14 76.3306 319.248 76.8178C319.352 77.3042 319.473 78.0114 319.463 78.8825C319.453 79.1018 319.443 79.3302 319.433 79.5663C319.403 79.804 319.368 80.0493 319.321 80.303C319.205 80.807 319.066 81.3572 318.744 81.883C318.469 82.424 317.977 82.9263 317.386 83.295C317.22 83.3774 317.037 83.4488 316.857 83.5185C316.677 83.5874 316.475 83.6604 316.36 83.6638L315.95 83.726L315.848 83.7419L315.797 83.7495L315.696 83.7587L315.68 83.7579L315.648 83.7562L315.393 83.7428C315.051 83.7251 314.711 83.6974 314.384 83.5739C314.043 83.4958 313.748 83.3278 313.461 83.1548C312.884 82.8112 312.47 82.3223 312.12 81.857C311.787 81.3782 311.548 80.8817 311.364 80.408C311.174 79.9359 311.055 79.4764 310.962 79.0539C310.774 78.2088 310.738 77.4932 310.735 76.9967C310.73 76.4978 310.766 76.2147 310.766 76.2147Z" fill="#352C38"/>
<path d="M324.11 67.3288C324.11 67.3288 323.809 67.097 323.282 66.6921C322.755 66.3057 322.023 65.7597 321.127 65.2213C320.241 64.6736 319.196 64.1284 318.084 63.7647C317.53 63.5724 316.952 63.4657 316.376 63.3758C315.796 63.3036 315.208 63.2985 314.619 63.3405C314.03 63.401 313.437 63.4976 312.849 63.6698C312.555 63.7471 312.263 63.8378 311.974 63.9478C311.681 64.0386 311.399 64.1637 311.116 64.2855C310.827 64.3939 310.554 64.5283 310.282 64.6652C310.009 64.7996 309.735 64.918 309.479 65.0684C308.958 65.3456 308.456 65.6186 308.001 65.8992C307.531 66.1579 307.11 66.4258 306.725 66.6552C306.338 66.8904 306 67.0962 305.722 67.265C305.161 67.6094 304.805 67.7883 304.805 67.7883C304.805 67.7883 304.941 67.4254 305.242 66.8223C305.392 66.5199 305.573 66.1486 305.838 65.7656C306.091 65.3708 306.369 64.913 306.745 64.4695C306.928 64.2427 307.121 64.0083 307.329 63.7698C307.553 63.5438 307.784 63.3111 308.023 63.0709C308.255 62.8222 308.543 62.6173 308.818 62.3829C309.09 62.1435 309.398 61.936 309.72 61.7294C310.034 61.5102 310.371 61.3136 310.733 61.1389L311.274 60.8642L311.853 60.6441C312.625 60.3325 313.484 60.1695 314.346 60.0696C315.218 60.0217 316.104 60.0519 316.943 60.2468C317.777 60.4383 318.573 60.7239 319.264 61.1128C320.663 61.8714 321.698 62.8869 322.414 63.8328C323.135 64.7836 323.557 65.6707 323.803 66.304C324.047 66.9391 324.11 67.3288 324.11 67.3288Z" fill="#352C38"/>
<path d="M331.299 68.0949C331.299 68.0949 331.238 66.9861 331.776 65.5212C332.045 64.7912 332.456 63.9705 333.073 63.1683C333.391 62.7718 333.74 62.3686 334.181 62.0108C334.608 61.642 335.109 61.3119 335.688 61.0498C336.26 60.7953 336.924 60.6114 337.608 60.6038C338.289 60.5635 338.975 60.734 339.544 60.986C339.823 61.1254 340.101 61.2531 340.319 61.4362C340.555 61.6026 340.764 61.7731 340.935 61.9654C341.308 62.3258 341.553 62.7189 341.764 63.0751C342.164 63.8025 342.332 64.4476 342.405 64.9113C342.483 65.3725 342.486 65.6438 342.486 65.6438C342.486 65.6438 342.232 65.5136 341.86 65.2717C341.483 65.0356 340.959 64.703 340.383 64.3863C340.244 64.2964 340.089 64.2376 339.939 64.1637C339.791 64.0848 339.642 64.0176 339.486 63.9705C339.335 63.9067 339.189 63.8538 339.039 63.8277C338.891 63.7815 338.751 63.7656 338.613 63.7462C338.337 63.7219 338.093 63.7278 337.838 63.7824C337.586 63.8336 337.314 63.9042 337.023 64.0512C336.433 64.2948 335.775 64.7517 335.139 65.2112C334.504 65.6866 333.884 66.1831 333.323 66.6165C332.766 67.0533 332.268 67.4263 331.898 67.685C331.533 67.9471 331.299 68.0949 331.299 68.0949Z" fill="#352C38"/>
<path d="M378.131 280.969L399.478 420H361.709L328.867 303.958L378.131 280.969Z" fill="#002882"/>
<path d="M378.131 280.969L399.478 420H361.709L328.867 303.958L378.131 280.969Z" fill="black" fill-opacity="0.2"/>
<path d="M292.737 291.368L285.898 420H325.378L335.978 359.79L387.958 345.286L377.579 276.589L292.737 291.368Z" fill="#33539B"/>
<path d="M334.133 313.619C349.819 312.54 368.393 310.708 381.719 301.235L377.577 276.589L292.735 291.368L292.141 311.002C305.908 313.593 319.928 314.597 334.133 313.619Z" fill="#002882"/>
<path d="M334.133 313.619C349.819 312.54 368.393 310.708 381.719 301.235L377.577 276.589L292.735 291.368L292.141 311.002C305.908 313.593 319.928 314.597 334.133 313.619Z" fill="black" fill-opacity="0.2"/>
<path d="M281.248 132.085C281.248 132.085 292.743 144.674 310.258 145.222C327.774 145.77 329.964 133.728 329.964 133.728C329.964 133.728 358.427 121.685 366.09 139.201C373.752 156.717 383.605 290.274 383.605 290.274C383.605 290.274 360.616 319.284 288.364 297.39C288.364 297.39 241.29 146.863 252.785 140.842C264.279 134.822 281.248 132.085 281.248 132.085Z" fill="#EEA500"/>
<path d="M318.362 211.531C299.136 199.73 281.729 186.052 266.08 169.797C261.118 164.642 256.264 159.373 251.383 154.13C255.442 192.126 288.36 297.39 288.36 297.39C360.613 319.284 383.602 290.274 383.602 290.274C383.602 290.274 381.847 266.471 379.24 237.645C357.974 231.946 337.526 223.294 318.362 211.531Z" fill="#F5C966"/>
<path d="M253.875 152.885C253.875 152.885 253.875 241.011 258.254 256.884C262.633 272.758 286.717 318.737 286.717 318.737L290.549 335.158L300.18 335.206L303.685 302.316L297.117 300.126L284.527 245.937L281.791 157.263L253.875 152.885Z" fill="#965450"/>
<path d="M273.471 218.364C276.909 218.887 280.317 219.109 283.698 219.083L281.791 157.264L253.875 152.885C253.875 152.885 253.875 184.332 254.809 213.039C260.868 215.431 267.077 217.392 273.471 218.364Z" fill="#76413B"/>
<path d="M290.727 335.159L300.18 335.207L303.685 302.317L303.155 302.14C300.418 313.582 295.397 324.336 290.727 335.159Z" fill="#76413B"/>
<path d="M281.254 132.085C281.254 132.085 251.148 135.37 248.959 145.77C246.769 156.17 248.411 207.075 248.411 207.075C248.411 207.075 267.022 216.927 288.369 213.644L281.254 132.085Z" fill="#EEA500"/>
<path d="M339.828 131.538C339.828 131.538 361.723 120.043 372.123 140.844C382.523 161.644 383.617 192.844 383.617 192.844L360.628 198.317L339.828 131.538Z" fill="#FFA65B"/>
<path d="M353.188 174.422L360.63 198.317L383.619 192.844C383.619 192.844 382.874 171.745 376.826 152.68C369.023 160.007 361.11 167.219 353.188 174.422Z" fill="#CE8A41"/>
<path d="M364.622 211.413C364.373 212.525 363.269 213.225 362.157 212.977L337.481 207.461C336.369 207.213 335.669 206.109 335.917 204.997L347.849 151.616C348.097 150.504 349.201 149.804 350.313 150.052L374.989 155.568C376.101 155.816 376.802 156.92 376.553 158.032L364.622 211.413Z" fill="#1C181E"/>
<path d="M373.766 179.16C373.766 179.16 312.461 168.76 357.345 181.349C357.345 181.349 311.366 173.685 355.702 186.275C355.702 186.275 314.65 180.802 355.702 192.296C355.702 192.296 322.313 190.654 360.629 198.317C360.629 198.317 360.081 264.001 383.618 267.833C407.155 271.665 391.281 209.264 373.766 179.16Z" fill="#965450"/>
<path d="M93.8006 231.746C93.8006 231.746 64.9096 291.517 66.5518 326.297C68.1932 361.077 93.2529 420 93.2529 420H125.001L128.953 343.963L133.759 420H167.149C167.149 420 186.975 342.859 184.786 315.256C182.596 287.653 159.486 232.849 159.486 232.849L93.8006 231.746Z" fill="#333333"/>
<path d="M183.72 307.351C179.618 314.641 173.115 320.861 166.645 325.596C155.437 333.802 142.117 339.822 129 344.78L133.757 420H167.147C167.147 420 186.973 342.859 184.784 315.256C184.587 312.777 184.22 310.124 183.72 307.351Z" fill="#1C181E"/>
<path d="M165.589 242.848C162.074 236.697 159.49 232.849 159.49 232.849L93.8042 231.746C93.8042 231.746 89.9377 236.971 85.1094 245.294C123.071 258.368 152.176 249.121 165.589 242.848Z" fill="#1C181E"/>
<path d="M92.3125 139.648C92.3125 139.648 127.414 134.31 151.019 141.084C151.019 141.084 159.435 105.572 138.703 96.1308C117.971 86.6884 97.8548 100.442 97.8548 100.442L92.3125 139.648Z" fill="#E0C7A2"/>
<path d="M112.235 129.589C112.235 129.589 116.34 159.969 108.13 161.611C99.9187 163.253 85.5505 155.042 77.3395 169.001C69.1285 182.959 103.614 193.222 126.193 191.17C149.122 189.086 177.058 185.277 169.71 166.538C161.499 145.601 132.515 176.81 133.993 147.242C134.815 130.821 135.225 120.557 135.225 120.557L112.235 129.589Z" fill="#F19C7C"/>
<path d="M112.731 153.314C116.733 153.531 120.762 153.163 124.584 152.143C128.448 151.112 131.212 149.622 134.006 146.825C134.813 130.649 135.217 120.558 135.217 120.558L112.227 129.589C112.227 129.589 114.146 143.806 112.731 153.314Z" fill="#E08565"/>
<path d="M119.209 79.9146C119.209 79.9146 91.5914 82.2322 96.6298 114.4C101.967 148.475 134.973 157.563 145.483 123.842C155.336 92.2307 134.809 78.6832 119.209 79.9146Z" fill="#F19C7C"/>
<path d="M96.2112 71.2936C96.2112 71.2936 119.407 60.8247 121.87 80.7361C123.83 96.5818 109.759 97.1572 101.959 102.7C94.1583 108.242 103.806 121.174 103.806 121.174C103.806 121.174 97.8526 120.147 96.6212 114.4C96.6212 114.4 92.5161 135.132 110.784 143.548C110.784 143.548 102.984 145.19 97.0311 137.801C97.0311 137.801 100.315 144.369 109.347 144.985C109.347 144.985 100.726 149.706 92.7202 141.906L96.2096 146.832C96.2096 146.832 84.0984 146.217 80.6091 133.285C80.6091 133.285 80.814 139.032 75.4775 140.264C75.4775 140.264 78.9669 135.338 75.0668 132.053C71.1666 128.769 64.5978 115.426 76.709 107.01C88.8209 98.5945 81.0207 80.5303 96.2112 71.2936Z" fill="#FDDEC0"/>
<path d="M146.289 71.3251C146.289 71.3251 122.75 61.6525 120.967 81.6361C119.547 97.539 133.63 97.6356 141.614 102.909C149.598 108.183 140.397 121.435 140.397 121.435C140.397 121.435 146.311 120.207 147.346 114.421C147.346 114.421 152.155 135.001 134.183 144.034C134.183 144.034 142.035 145.41 147.733 137.821C147.733 137.821 144.674 144.498 135.669 145.421C135.669 145.421 144.446 149.846 152.18 141.778L148.861 146.82C148.861 146.82 160.943 145.792 163.991 132.749C163.991 132.749 163.982 138.501 169.358 139.55C169.358 139.55 165.702 134.745 169.489 131.33C173.275 127.914 179.385 114.356 166.995 106.357C154.604 98.358 161.784 80.0393 146.289 71.3251Z" fill="#FDDEC0"/>
<path d="M91.4922 75.1935C91.4922 75.1935 95.3276 70.5509 103.824 67.6461C107.598 66.3559 113.109 67.6445 118.793 67.5991C122.25 67.5714 125.187 66.2769 129.46 66.4055C135.009 66.5726 139.369 68.6961 145.067 70.8827L123.104 82.9938L91.4922 75.1935Z" fill="#FDDEC0"/>
<path d="M118.987 107.626C118.987 107.626 117.747 106.971 115.887 105.989C114.051 105.074 111.631 103.849 109.184 103.352C108.575 103.205 107.969 103.166 107.376 103.122C106.79 103.132 106.206 103.131 105.662 103.255C105.11 103.346 104.594 103.523 104.102 103.717C103.619 103.93 103.157 104.164 102.749 104.429C102.532 104.545 102.36 104.706 102.172 104.834C101.991 104.969 101.797 105.082 101.649 105.225C101.35 105.504 101.036 105.717 100.825 105.935C100.385 106.359 100.102 106.599 100.102 106.599C100.102 106.599 100.197 106.255 100.422 105.656C100.529 105.354 100.716 105.016 100.928 104.618C101.155 104.233 101.432 103.793 101.811 103.371C102.178 102.935 102.633 102.5 103.183 102.106C103.74 101.729 104.378 101.37 105.095 101.145C105.803 100.885 106.579 100.779 107.359 100.732C108.135 100.719 108.927 100.775 109.678 100.94C110.435 101.095 111.16 101.328 111.844 101.61C112.528 101.89 113.169 102.221 113.76 102.576C114.947 103.282 115.933 104.092 116.71 104.846C117.496 105.588 118.065 106.291 118.44 106.798C118.813 107.305 118.987 107.626 118.987 107.626Z" fill="#352C38"/>
<path d="M124.531 108.037C124.531 108.037 124.889 106.582 126.067 104.698C126.645 103.752 127.428 102.702 128.453 101.715C129.469 100.725 130.741 99.7951 132.233 99.192C132.981 98.9047 133.771 98.6737 134.584 98.6082C135.388 98.4998 136.201 98.588 136.954 98.7216C137.704 98.8988 138.396 99.1575 138.994 99.4851C139.284 99.6657 139.582 99.8094 139.831 100.005C140.076 100.199 140.313 100.386 140.541 100.566C140.955 100.964 141.34 101.315 141.608 101.688C141.894 102.045 142.137 102.353 142.297 102.639C142.636 103.193 142.8 103.521 142.8 103.521C142.8 103.521 142.471 103.332 141.95 102.985C141.7 102.799 141.351 102.633 140.994 102.404C140.641 102.169 140.191 101.994 139.757 101.745C139.29 101.551 138.797 101.344 138.27 101.193C137.746 101.032 137.189 100.942 136.625 100.881C136.055 100.866 135.477 100.863 134.893 100.977C134.31 101.069 133.723 101.246 133.146 101.478C132.563 101.694 132.004 102.008 131.449 102.316C130.906 102.654 130.366 102.994 129.864 103.374C129.355 103.742 128.876 104.129 128.421 104.503C127.974 104.886 127.536 105.244 127.149 105.599C126.372 106.303 125.718 106.912 125.26 107.348C124.797 107.787 124.531 108.037 124.531 108.037Z" fill="#352C38"/>
<path d="M105.852 114.4C105.852 114.4 106.032 114.576 106.347 114.885C106.661 115.189 107.107 115.616 107.651 116.089C107.926 116.322 108.229 116.561 108.545 116.807C108.865 117.047 109.218 117.265 109.574 117.482C109.753 117.589 109.945 117.666 110.131 117.762C110.32 117.834 110.513 117.905 110.707 117.978C111.097 118.076 111.486 118.156 111.873 118.135L112.162 118.117C112.189 118.117 112.305 118.108 112.26 118.116L112.441 118.076C112.66 118.014 112.967 117.988 113.114 117.914C113.457 117.799 113.858 117.662 114.188 117.447C114.36 117.349 114.518 117.237 114.669 117.116C114.831 117.007 114.971 116.877 115.105 116.745C115.375 116.483 115.607 116.198 115.816 115.922C116.218 115.358 116.493 114.813 116.672 114.421C116.851 114.028 116.936 113.784 116.936 113.784C116.936 113.784 116.991 114.036 116.991 114.489C116.988 114.714 116.976 114.991 116.924 115.305C116.873 115.62 116.795 115.977 116.653 116.353C116.511 116.728 116.331 117.137 116.051 117.523C115.785 117.915 115.449 118.313 115.018 118.629C114.599 118.959 114.129 119.242 113.554 119.444C113.255 119.57 113.065 119.589 112.812 119.66L112.632 119.704C112.467 119.738 112.458 119.726 112.363 119.739L111.914 119.776C111.613 119.804 111.318 119.733 111.023 119.71C110.732 119.663 110.46 119.558 110.184 119.48C109.658 119.27 109.191 118.986 108.779 118.685C107.961 118.068 107.373 117.352 106.944 116.707C106.084 115.412 105.852 114.4 105.852 114.4Z" fill="#352C38"/>
<path d="M138.287 114.4C138.287 114.4 138.054 115.412 137.194 116.706C136.766 117.351 136.178 118.067 135.359 118.684C134.948 118.986 134.48 119.269 133.954 119.479C133.679 119.557 133.406 119.662 133.116 119.709C132.82 119.732 132.525 119.803 132.225 119.775L131.775 119.738C131.68 119.725 131.671 119.737 131.506 119.703L131.327 119.659C131.073 119.588 130.882 119.569 130.584 119.443C130.009 119.241 129.538 118.958 129.12 118.628C128.69 118.312 128.354 117.914 128.088 117.522C127.808 117.136 127.627 116.727 127.485 116.352C127.344 115.976 127.266 115.619 127.215 115.304C127.164 114.989 127.152 114.713 127.148 114.488C127.148 114.035 127.203 113.783 127.203 113.783C127.203 113.783 127.288 114.027 127.468 114.42C127.647 114.812 127.921 115.357 128.324 115.921C128.532 116.197 128.765 116.482 129.034 116.744C129.169 116.876 129.308 117.007 129.47 117.115C129.621 117.235 129.779 117.348 129.952 117.446C130.282 117.661 130.682 117.798 131.025 117.913C131.172 117.987 131.479 118.014 131.699 118.075L131.879 118.115C131.835 118.107 131.951 118.116 131.978 118.116L132.267 118.134C132.654 118.155 133.042 118.075 133.432 117.977C133.627 117.905 133.819 117.833 134.009 117.761C134.194 117.665 134.387 117.588 134.566 117.481C134.921 117.265 135.275 117.046 135.595 116.806C135.91 116.56 136.213 116.321 136.488 116.088C137.033 115.616 137.478 115.188 137.792 114.884C138.106 114.576 138.287 114.4 138.287 114.4Z" fill="#352C38"/>
<path d="M124.113 111.731L124.775 114.641C124.9 115.116 124.999 115.589 125.13 116.053C125.186 116.288 125.271 116.514 125.327 116.745C125.388 116.976 125.453 117.204 125.533 117.426C125.676 117.879 125.849 118.309 126.014 118.74L126.298 119.36C126.384 119.574 126.508 119.754 126.616 119.947C126.722 120.142 126.832 120.333 126.971 120.491C127.105 120.651 127.206 120.859 127.367 120.982C127.521 121.113 127.646 121.29 127.808 121.408L128.307 121.75L129.542 122.599L128.288 123.066C127.871 123.221 127.442 123.347 127.017 123.483C126.594 123.622 126.162 123.744 125.729 123.862C124.866 124.101 123.991 124.314 123.086 124.456C123.823 123.913 124.59 123.442 125.369 122.997C125.757 122.772 126.148 122.552 126.545 122.35C126.941 122.144 127.333 121.928 127.737 121.742L127.719 123.057L126.936 122.645C126.685 122.492 126.475 122.293 126.252 122.105C126.015 121.925 125.871 121.685 125.679 121.474C125.49 121.257 125.346 121.023 125.209 120.785C125.067 120.55 124.921 120.313 124.824 120.064C124.72 119.817 124.596 119.575 124.51 119.324C124.338 118.824 124.181 118.32 124.087 117.809C123.973 117.301 123.891 116.792 123.847 116.281C123.802 115.77 123.764 115.262 123.773 114.752C123.775 113.739 123.871 112.723 124.113 111.731Z" fill="#C4734E"/>
<path d="M113.648 127.332C113.648 127.332 113.825 127.51 114.144 127.788C114.462 128.068 114.914 128.456 115.478 128.868C115.752 129.084 116.076 129.277 116.394 129.503C116.729 129.708 117.083 129.916 117.452 130.114C117.825 130.31 118.215 130.493 118.624 130.647C119.02 130.831 119.449 130.942 119.869 131.078C120.287 131.219 120.731 131.266 121.153 131.382C121.59 131.44 122.02 131.498 122.436 131.554C122.858 131.554 123.27 131.58 123.665 131.603C124.06 131.613 124.435 131.572 124.788 131.574C125.139 131.561 125.47 131.571 125.755 131.528C126.043 131.494 126.301 131.48 126.513 131.465C126.941 131.439 127.195 131.437 127.195 131.437C127.195 131.437 126.988 131.569 126.608 131.777C126.417 131.879 126.185 132.007 125.91 132.137C125.64 132.286 125.318 132.396 124.957 132.501C124.598 132.606 124.211 132.758 123.781 132.823C123.352 132.886 122.894 132.961 122.417 133C121.939 132.987 121.437 133.005 120.931 132.96C120.431 132.87 119.912 132.811 119.416 132.657C118.924 132.491 118.422 132.348 117.973 132.1C117.502 131.897 117.09 131.608 116.689 131.341C116.287 131.076 115.947 130.752 115.627 130.456C115.316 130.147 115.037 129.844 114.814 129.535C114.344 128.942 114.057 128.377 113.879 127.979C113.704 127.577 113.648 127.332 113.648 127.332Z" fill="#C4734E"/>
<path d="M103.107 161.133C103.107 161.133 104.201 174.817 123.36 174.817C142.519 174.817 140.329 160.038 140.329 160.038C140.329 160.038 164.413 148.543 172.077 164.965C179.74 181.386 164.961 236.672 164.961 236.672C164.961 236.672 125.549 249.809 87.7802 235.578C87.7802 235.578 69.1691 181.387 74.0957 170.987C79.0223 160.586 83.949 156.206 103.107 161.133Z" fill="#33539B"/>
<path d="M116.101 201.976C99.8439 199.254 86.4846 190.96 73.625 181.637C75.8485 200.822 87.7832 235.577 87.7832 235.577C125.552 249.809 164.964 236.672 164.964 236.672C164.964 236.672 170.422 216.255 172.984 196.551C154.451 202.172 135.138 205.164 116.101 201.976Z" fill="#002882"/>
<path d="M116.101 201.976C99.8439 199.254 86.4846 190.96 73.625 181.637C75.8485 200.822 87.7832 235.577 87.7832 235.577C125.552 249.809 164.964 236.672 164.964 236.672C164.964 236.672 170.422 216.255 172.984 196.551C154.451 202.172 135.138 205.164 116.101 201.976Z" fill="black" fill-opacity="0.2"/>
<path d="M63.1284 206.977C63.1284 206.977 48.7594 263.63 63.1284 274.304C77.4975 284.978 85.2977 213.955 85.2977 213.955L63.1284 206.977Z" fill="#E08565"/>
<path d="M185.224 204.103C185.224 204.103 199.593 260.757 185.224 271.43C170.855 282.104 163.055 211.082 163.055 211.082L185.224 204.103Z" fill="#E08565"/>
<path d="M89.4168 214.777C89.4168 214.777 72.1741 212.314 56.9844 204.923C56.9844 204.923 73.4055 163.87 78.7429 160.996C84.0803 158.122 103.101 161.132 103.101 161.132L89.4168 214.777Z" fill="#33539B"/>
<path d="M158.966 211.902C158.966 211.902 176.208 209.439 191.398 202.049C191.398 202.049 174.977 160.996 169.64 158.122C164.302 155.248 145.281 158.259 145.281 158.259L158.966 211.902Z" fill="#33539B"/>
<path d="M138.304 236.134C138.238 237.272 137.261 238.14 136.123 238.074L110.881 236.599C109.743 236.533 108.875 235.556 108.941 234.418L112.132 179.813C112.199 178.675 113.176 177.807 114.313 177.873L139.555 179.348C140.693 179.414 141.562 180.391 141.495 181.529L138.304 236.134Z" fill="#1C181E"/>
<path d="M56.5712 256.241C56.5712 256.241 96.393 206.977 101.32 203.692C106.246 200.408 155.921 203.692 121.847 205.745C121.847 205.745 157.974 209.03 122.257 209.44C122.257 209.44 155.101 213.956 118.152 213.135C118.152 213.135 145.247 218.473 111.994 216.009C111.994 216.009 86.1165 276.574 73.4039 277.179C56.1604 277.999 56.5712 256.241 56.5712 256.241Z" fill="#F19C7C"/>
<path d="M191.806 253.367C191.806 253.367 151.984 204.103 147.058 200.818C142.131 197.534 92.4561 200.818 126.531 202.871C126.531 202.871 90.4031 206.156 126.12 206.567C126.12 206.567 93.2767 211.082 130.225 210.262C130.225 210.262 103.13 215.599 136.383 213.135C136.383 213.135 162.261 273.7 174.973 274.305C192.217 275.125 191.806 253.367 191.806 253.367Z" fill="#F19C7C"/>
</g>
<defs>
<clipPath id="clip0_5466_15470">
<rect width="434.757" height="420" fill="white"/>
</clipPath>
</defs>
</svg>
