<svg width="100" height="100" viewBox="0 0 100 100" fill="none" xmlns="http://www.w3.org/2000/svg">
<path d="M99.0172 59.0605C97.6632 56.6567 95.1063 55.1636 92.3443 55.1636C91.0397 55.1636 89.7442 55.5046 88.5986 56.1497L66.3026 68.7059C66.0115 68.8698 65.8015 69.1469 65.7217 69.4713C65.3329 71.0587 64.4174 73.275 62.2669 74.8184C59.8865 76.5266 56.6663 76.8824 52.7425 75.8762C52.7189 75.8703 52.6955 75.8636 52.6748 75.8571L39.813 71.8635C39.0353 71.6221 38.5991 70.7928 38.8406 70.0154C39.0339 69.3934 39.6006 68.9756 40.2507 68.9756C40.3984 68.9756 40.5464 68.9981 40.6895 69.0424L53.4845 73.0153C53.5049 73.0215 53.5259 73.0274 53.5468 73.0328C56.5642 73.7944 58.9208 73.5825 60.5441 72.4184C62.595 70.9467 62.9562 68.3598 62.9989 67.9798C63.0005 67.9677 63.0019 67.9556 63.0027 67.9433C63.0035 67.9371 63.0038 67.9336 63.004 67.9328C63.0043 67.9288 63.0046 67.9247 63.0048 67.921C63.0051 67.9183 63.0051 67.9159 63.0054 67.9132C63.2495 64.7234 61.1911 61.7779 58.107 60.907L58.0504 60.8898C57.9564 60.8592 48.4911 57.7677 42.4603 56.0468C41.7903 55.8559 39.944 55.4114 37.2738 55.4114C33.5394 55.4114 27.9684 56.2963 22.6248 60.5206L0.448577 78.4588C-0.0587114 78.8689 -0.148675 79.6077 0.245017 80.1279L12.2524 95.9883C12.4471 96.2451 12.736 96.4137 13.0553 96.4567C13.1088 96.4639 13.1622 96.4674 13.2159 96.4674C13.481 96.4674 13.7407 96.3802 13.9531 96.2163L29.4193 84.3075C29.7668 84.0403 30.2328 83.9396 30.6598 84.0403L55.6402 89.9436C57.4926 90.3813 59.4946 90.0988 61.1516 89.1648L96.1059 69.4791C99.7807 67.4089 101.087 62.7356 99.0172 59.0605Z" fill="url(#paint0_linear_5482_15913)"/>
<path d="M85.1278 3.53271H39.4745C37.9916 3.53271 36.7891 4.73501 36.7891 6.2182V18.4382C36.7891 19.9214 37.9916 21.1237 39.4745 21.1237H40.4776V47.0717C40.4776 48.5549 41.6799 49.7572 43.1631 49.7572H81.4382C82.9214 49.7572 84.1237 48.5549 84.1237 47.0717V21.1235H85.1276C86.6105 21.1235 87.813 19.9212 87.813 18.438V6.2182C87.8133 4.73501 86.6107 3.53271 85.1278 3.53271ZM67.9501 27.5039H56.6517C55.4672 27.5039 54.5033 26.5401 54.5033 25.3555C54.5033 24.1709 55.4672 23.2071 56.6517 23.2071H67.9501C69.1347 23.2071 70.0985 24.1709 70.0985 25.3555C70.0985 26.5401 69.1347 27.5039 67.9501 27.5039ZM82.4423 15.7525H81.4385H43.1631H42.16V8.90369H82.4423V15.7525Z" fill="url(#paint1_linear_5482_15913)"/>
<defs>
<linearGradient id="paint0_linear_5482_15913" x1="0" y1="75.8155" x2="100" y2="75.8155" gradientUnits="userSpaceOnUse">
<stop stop-color="#0032A3"/>
<stop offset="0.25" stop-color="#1A51CB"/>
<stop offset="0.5" stop-color="#3B66C8"/>
<stop offset="0.75" stop-color="#1A51CB"/>
<stop offset="1" stop-color="#0032A3"/>
</linearGradient>
<linearGradient id="paint1_linear_5482_15913" x1="36.7891" y1="26.645" x2="87.813" y2="26.645" gradientUnits="userSpaceOnUse">
<stop stop-color="#FFC136"/>
<stop offset="0.197568" stop-color="#FAC142"/>
<stop offset="0.525" stop-color="#FFD168"/>
<stop offset="0.771328" stop-color="#F5BC3A"/>
<stop offset="1" stop-color="#E09B00"/>
</linearGradient>
</defs>
</svg>
