<svg width="674" height="400" viewBox="0 0 674 400" fill="none" xmlns="http://www.w3.org/2000/svg">
<rect width="674" height="400" rx="12" fill="#E6EAF3"/>
<path d="M320.014 338.489C361.837 332.752 505.777 365.962 564.442 321.532C623.107 277.103 619.825 177.413 554.916 141.141C491.614 105.765 473.01 40.7112 384.868 58.1585C288.062 77.3219 249.579 64.6295 192.549 57.8604C125.927 49.9517 65.0221 105.755 76.9755 207.569C85.4179 279.484 -20.2267 385.168 320.014 338.489Z" fill="#CCD4E6"/>
<path d="M297.219 239.926H355.549C356.016 239.926 356.393 239.548 356.393 239.082C356.393 238.616 356.016 238.238 355.549 238.238H297.219C296.753 238.238 296.375 238.616 296.375 239.082C296.374 239.548 296.752 239.926 297.219 239.926Z" fill="white"/>
<path d="M296.375 245.992H354.705C355.172 245.992 355.55 245.615 355.55 245.148C355.55 244.682 355.172 244.304 354.705 244.304H296.375C295.909 244.304 295.531 244.682 295.531 245.148C295.531 245.615 295.909 245.992 296.375 245.992Z" fill="white"/>
<path d="M295.532 252.059H353.862C354.328 252.059 354.706 251.682 354.706 251.215C354.706 250.749 354.328 250.371 353.862 250.371H295.532C295.065 250.371 294.688 250.749 294.688 251.215C294.688 251.682 295.065 252.059 295.532 252.059Z" fill="white"/>
<path d="M416.102 105.25L439.65 287.257H378.086L416.102 105.25Z" fill="#EEA500"/>
<path d="M275.641 284.234C275.641 286.566 277.53 288.456 279.862 288.456H396.25C398.581 288.456 400.472 286.566 400.472 284.234L416.105 105.25C416.105 102.919 414.216 101.029 411.884 101.029H295.496C292.996 101.029 291.43 102.942 291.274 105.25L275.641 284.234Z" fill="#33539B"/>
<path d="M392.365 280.013L408.152 101.029H300.271L284.484 280.013H392.365Z" fill="url(#paint0_linear_3551_1148)"/>
<path d="M384.202 149.05C378.732 149.05 374.281 144.599 374.281 139.129C374.281 133.659 378.732 129.209 384.202 129.209C389.672 129.209 394.123 133.659 394.123 139.129C394.123 144.599 389.673 149.05 384.202 149.05ZM384.202 130.897C379.663 130.897 375.97 134.59 375.97 139.128C375.97 143.667 379.663 147.36 384.202 147.36C388.741 147.36 392.434 143.667 392.434 139.128C392.435 134.59 388.741 130.897 384.202 130.897Z" fill="white"/>
<path d="M383.473 144.654C383.275 144.654 383.081 144.584 382.927 144.454L378.392 140.606C378.036 140.304 377.993 139.771 378.294 139.416C378.595 139.06 379.128 139.017 379.485 139.318L383.309 142.564L388.367 135.26C388.632 134.877 389.159 134.781 389.543 135.047C389.926 135.312 390.022 135.838 389.756 136.222L384.168 144.292C384.032 144.487 383.82 144.616 383.584 144.648C383.547 144.652 383.51 144.654 383.473 144.654Z" fill="white"/>
<path d="M307.368 133.906H365.698C366.164 133.906 366.541 133.529 366.541 133.062C366.541 132.597 366.164 132.218 365.698 132.218H307.368C306.901 132.218 306.523 132.597 306.523 133.062C306.523 133.529 306.9 133.906 307.368 133.906Z" fill="white"/>
<path d="M306.524 139.973H364.854C365.32 139.973 365.697 139.595 365.697 139.129C365.697 138.664 365.32 138.285 364.854 138.285H306.524C306.057 138.285 305.68 138.664 305.68 139.129C305.68 139.595 306.057 139.973 306.524 139.973Z" fill="white"/>
<path d="M305.68 146.04H364.01C364.477 146.04 364.854 145.662 364.854 145.196C364.854 144.73 364.477 144.352 364.01 144.352H305.68C305.214 144.352 304.836 144.73 304.836 145.196C304.836 145.662 305.214 146.04 305.68 146.04Z" fill="white"/>
<path d="M380.617 183.288C375.146 183.288 370.695 178.839 370.695 173.368C370.695 167.898 375.146 163.447 380.617 163.447C386.086 163.447 390.537 167.898 390.537 173.368C390.537 178.839 386.086 183.288 380.617 183.288ZM380.617 165.136C376.077 165.136 372.384 168.83 372.384 173.368C372.384 177.907 376.077 181.599 380.617 181.599C385.155 181.599 388.848 177.907 388.848 173.368C388.848 168.83 385.155 165.136 380.617 165.136Z" fill="white"/>
<path d="M379.888 178.893C379.689 178.893 379.494 178.822 379.342 178.693L374.806 174.846C374.45 174.544 374.407 174.011 374.708 173.655C375.009 173.3 375.542 173.256 375.899 173.557L379.723 176.803L384.781 169.499C385.046 169.115 385.573 169.019 385.957 169.285C386.34 169.551 386.436 170.077 386.171 170.46L380.582 178.531C380.446 178.726 380.234 178.855 379.998 178.887C379.961 178.891 379.924 178.893 379.888 178.893Z" fill="white"/>
<path d="M303.75 167.301H362.08C362.546 167.301 362.924 166.923 362.924 166.457C362.924 165.991 362.546 165.613 362.08 165.613H303.75C303.284 165.613 302.906 165.991 302.906 166.457C302.906 166.923 303.284 167.301 303.75 167.301Z" fill="white"/>
<path d="M302.907 173.368H361.236C361.702 173.368 362.08 172.99 362.08 172.524C362.08 172.058 361.702 171.68 361.236 171.68H302.907C302.44 171.68 302.062 172.058 302.062 172.524C302.062 172.99 302.44 173.368 302.907 173.368Z" fill="white"/>
<path d="M302.063 179.435H360.392C360.859 179.435 361.236 179.057 361.236 178.591C361.236 178.124 360.859 177.747 360.392 177.747H302.063C301.596 177.747 301.219 178.124 301.219 178.591C301.218 179.057 301.596 179.435 302.063 179.435Z" fill="white"/>
<path d="M377.74 220.693C372.271 220.693 367.82 216.243 367.82 210.773C367.82 205.303 372.271 200.853 377.74 200.853C383.209 200.853 387.66 205.303 387.66 210.773C387.66 216.243 383.209 220.693 377.74 220.693ZM377.74 202.541C373.201 202.541 369.508 206.234 369.508 210.772C369.508 215.31 373.201 219.003 377.74 219.003C382.278 219.003 385.971 215.31 385.971 210.772C385.971 206.234 382.278 202.541 377.74 202.541Z" fill="white"/>
<path d="M377.011 216.298C376.813 216.298 376.619 216.228 376.464 216.098L371.93 212.249C371.575 211.948 371.532 211.415 371.833 211.059C372.135 210.704 372.668 210.661 373.023 210.961L376.847 214.207L381.906 206.903C382.17 206.519 382.696 206.424 383.081 206.689C383.464 206.954 383.559 207.481 383.294 207.864L377.706 215.934C377.57 216.129 377.358 216.26 377.121 216.29C377.085 216.295 377.047 216.298 377.011 216.298Z" fill="white"/>
<path d="M300.758 205.55H359.087C359.554 205.55 359.932 205.172 359.932 204.705C359.932 204.239 359.554 203.861 359.087 203.861H300.758C300.292 203.861 299.914 204.239 299.914 204.705C299.913 205.172 300.291 205.55 300.758 205.55Z" fill="white"/>
<path d="M299.914 211.616H358.244C358.71 211.616 359.088 211.239 359.088 210.772C359.088 210.306 358.71 209.928 358.244 209.928H299.914C299.448 209.928 299.07 210.306 299.07 210.772C299.07 211.239 299.448 211.616 299.914 211.616Z" fill="white"/>
<path d="M299.071 217.683H357.4C357.866 217.683 358.244 217.304 358.244 216.838C358.244 216.372 357.866 215.995 357.4 215.995H299.071C298.604 215.995 298.227 216.372 298.227 216.838C298.227 217.304 298.604 217.683 299.071 217.683Z" fill="white"/>
<path d="M366.134 101.029V105.711C366.134 106.388 365.586 106.936 364.909 106.936H343.319C342.642 106.936 342.094 106.388 342.094 105.711V101.029H366.134Z" fill="#9FC4CC"/>
<path d="M341.25 98.446V104.92C341.25 105.597 341.798 106.145 342.474 106.145H364.065C364.741 106.145 365.29 105.597 365.29 104.92V98.446C365.29 97.886 364.912 97.4196 364.4 97.2727C364.401 97.2718 364.402 97.271 364.403 97.2694C363.153 96.8933 356.874 95.4055 356.874 91.548C358.091 90.5217 358.866 88.9879 358.866 87.271C358.866 84.1804 356.36 81.6761 353.27 81.6761C350.179 81.6761 347.674 84.1812 347.674 87.271C347.674 89.0117 348.469 90.5676 349.715 91.594C349.658 95.4121 343.308 96.9171 342.065 97.2907L342.068 97.294C341.593 97.4632 341.25 97.9123 341.25 98.446ZM350.588 87.2718C350.588 85.7906 351.789 84.5893 353.27 84.5893C354.752 84.5893 355.953 85.7906 355.953 87.2718C355.953 88.753 354.752 89.9543 353.27 89.9543C351.789 89.9535 350.588 88.7522 350.588 87.2718Z" fill="#33539B"/>
<path d="M363.259 99.8615C363.259 99.8615 362.947 99.8246 362.403 99.7802C361.857 99.7433 361.078 99.6677 360.142 99.6201C358.273 99.5134 355.779 99.4427 353.285 99.4395C350.793 99.4419 348.3 99.5117 346.429 99.6193C345.494 99.6669 344.715 99.7424 344.169 99.7794C343.625 99.8245 343.312 99.8615 343.312 99.8615C343.312 99.8615 343.625 99.8993 344.169 99.9444C344.715 99.9806 345.494 100.058 346.429 100.105C348.299 100.211 350.793 100.282 353.285 100.284C355.779 100.281 358.272 100.21 360.142 100.104C361.078 100.055 361.857 99.9797 362.403 99.9436C362.948 99.8984 363.259 99.8615 363.259 99.8615Z" fill="#EEA500"/>
<path d="M363.259 103.345C363.259 103.345 362.947 103.307 362.403 103.263C361.857 103.226 361.078 103.15 360.142 103.102C358.273 102.996 355.779 102.925 353.285 102.922C350.793 102.924 348.3 102.995 346.429 103.102C345.494 103.149 344.715 103.226 344.169 103.262C343.625 103.307 343.312 103.345 343.312 103.345C343.312 103.345 343.625 103.382 344.169 103.427C344.715 103.464 345.494 103.54 346.429 103.587C348.299 103.694 350.793 103.764 353.285 103.767C355.779 103.763 358.272 103.693 360.142 103.586C361.078 103.538 361.857 103.463 362.403 103.426C362.948 103.382 363.259 103.345 363.259 103.345Z" fill="#EEA500"/>
<path d="M354.48 287.257H251.812L260.06 182.829H342.533L354.48 287.257Z" fill="#002882"/>
<path d="M354.48 287.257H251.812L260.06 182.829H342.533L354.48 287.257Z" fill="black" fill-opacity="0.2"/>
<path d="M277.781 194.532C277.175 194.532 276.68 194.044 276.673 193.437C276.662 192.388 276.53 167.632 287.832 156.21C291.515 152.487 296.024 150.599 301.233 150.599C325.943 150.599 326.668 191.666 326.686 193.413C326.693 194.025 326.203 194.526 325.591 194.532C325.586 194.532 325.582 194.532 325.579 194.532C324.972 194.532 324.478 194.044 324.471 193.437C324.467 193.03 323.761 152.814 301.233 152.814C296.638 152.814 292.659 154.48 289.407 157.766C278.749 168.538 278.886 193.165 278.889 193.412C278.896 194.024 278.405 194.525 277.793 194.531C277.789 194.532 277.785 194.532 277.781 194.532Z" fill="url(#paint1_linear_3551_1148)"/>
<path d="M346.363 287.257H243.695L251.943 182.829H338.111L346.363 287.257Z" fill="url(#paint2_linear_3551_1148)"/>
<path d="M271.132 194.532C270.526 194.532 270.032 194.044 270.025 193.437C270.013 192.388 269.883 167.632 281.184 156.21C284.867 152.487 289.375 150.599 294.584 150.599C319.292 150.599 320.017 191.666 320.035 193.413C320.041 194.025 319.551 194.526 318.939 194.532C318.935 194.532 318.931 194.532 318.926 194.532C318.32 194.532 317.826 194.044 317.819 193.437C317.814 193.03 317.109 152.814 294.583 152.814C289.988 152.814 286.01 154.48 282.757 157.766C272.1 168.538 272.236 193.165 272.238 193.412C272.245 194.024 271.755 194.525 271.143 194.531C271.141 194.532 271.136 194.532 271.132 194.532Z" fill="url(#paint3_linear_3551_1148)"/>
<path d="M299.517 204.034L295.17 202.188L290.789 204.034V182.829H299.517V204.034Z" fill="white"/>
<path d="M273.2 225.214L256.133 288.939H267.319L273.2 225.214Z" fill="#4A5E82"/>
<path d="M325.921 287.257H264.922L272.356 225.214H321.019L325.921 287.257Z" fill="#808EA8"/>
<path d="M282.306 232.353C281.843 232.353 281.467 231.981 281.462 231.517C281.455 230.892 281.377 216.107 288.146 209.266C290.371 207.018 293.093 205.877 296.24 205.877C311.1 205.877 311.533 230.453 311.545 231.499C311.55 231.965 311.177 232.347 310.71 232.352C310.228 232.342 309.861 231.984 309.857 231.517C309.854 231.278 309.435 207.565 296.24 207.565C293.561 207.565 291.242 208.537 289.346 210.453C283.068 216.799 283.148 231.353 283.15 231.499C283.155 231.966 282.781 232.347 282.314 232.352C282.311 232.353 282.309 232.353 282.306 232.353Z" fill="url(#paint4_linear_3551_1148)"/>
<path d="M332.068 287.257H271.07L275.971 225.214H327.166L332.068 287.257Z" fill="#CEDAF0"/>
<path d="M287.376 232.353C286.913 232.353 286.537 231.981 286.532 231.517C286.525 230.892 286.447 216.107 293.217 209.266C295.441 207.018 298.164 205.877 301.31 205.877C316.173 205.877 316.606 230.453 316.618 231.499C316.622 231.965 316.249 232.347 315.782 232.352C315.287 232.342 314.933 231.984 314.929 231.517C314.926 231.278 314.508 207.565 301.309 207.565C298.63 207.565 296.311 208.537 294.415 210.453C288.137 216.799 288.218 231.353 288.219 231.499C288.225 231.966 287.851 232.347 287.384 232.352C287.382 232.353 287.379 232.353 287.376 232.353Z" fill="url(#paint5_linear_3551_1148)"/>
<path d="M251.006 186.348C245.162 188.042 241.091 207.094 238.635 212.416C236.178 217.737 187.323 234.055 172.912 241.187C166.029 248.07 160.227 263.601 160.227 278.645C167.661 281.024 248.598 225.191 248.598 225.191C248.598 225.191 251.147 203.867 251.147 192.909C257.09 192.909 266.191 197.333 267.905 193.221C269.031 190.521 256.851 184.655 251.006 186.348Z" fill="#C47450"/>
<path d="M226.131 229.943C235.707 232.862 295.841 233.552 300.881 234.14C305.922 234.727 322.265 224.539 332.613 231.153C341.368 236.748 361.892 252.205 352.385 261.521C351.666 263.394 350.103 264.404 348.546 264.73C347.103 267.66 344.814 267.957 343.409 267.456C342.25 269.179 340.309 270.333 338.658 268.248C332.746 264.824 308.394 255.899 303.365 253.925C298.337 251.95 236.349 270.645 212.631 267.882C211.595 261.366 212.099 234.319 226.131 229.943Z" fill="#D46F40"/>
<path d="M348.544 264.73C349.182 263.139 348.689 261.135 348.08 259.618C347.702 258.724 347.28 257.852 346.747 257.042C346.165 256.162 345.543 255.333 344.912 254.491C343.557 252.897 342.117 251.385 340.575 249.972C339.302 248.803 338 247.669 336.719 246.506C338.23 247.477 339.699 248.475 341.096 249.608C342.727 250.92 344.184 252.387 345.554 253.966C346.201 254.848 346.839 255.709 347.409 256.646C347.907 257.479 348.298 258.365 348.617 259.282C349.185 260.921 349.509 263.166 348.544 264.73Z" fill="#AB5832"/>
<path d="M352.384 261.522C352.818 259.842 352.418 257.773 351.827 256.176C351.492 255.273 351.133 254.35 350.649 253.513C350.119 252.595 349.551 251.722 348.97 250.836C347.87 249.153 346.434 247.584 345.013 246.166C343.788 244.94 342.536 243.743 341.297 242.531C342.736 243.535 344.121 244.565 345.438 245.727C346.231 246.426 346.971 247.18 347.697 247.948C348.426 248.722 349.159 249.592 349.732 250.489C350.898 252.224 351.843 254.005 352.434 256.016C352.926 257.692 353.123 259.886 352.384 261.522Z" fill="#AB5832"/>
<path d="M343.406 267.457C343.734 266.823 343.651 265.962 343.48 265.295C343.262 264.449 342.961 263.614 342.531 262.85C341.637 261.271 340.608 259.834 339.494 258.408C337.608 255.996 335.413 253.858 333.43 251.531C336.085 253.527 338.404 255.824 340.524 258.374C341.548 259.595 342.381 261.01 343.058 262.446C343.466 263.316 343.75 264.253 343.85 265.207C343.925 265.942 343.894 266.854 343.406 267.457Z" fill="#AB5832"/>
<path d="M140.324 130.047C111.941 139.327 107.79 141.808 92.5064 180.562C77.2235 219.315 78.7696 263.955 67.8516 293.431C68.3803 316.066 78.0552 326.135 90.2295 333.568C106.361 343.415 126.455 346.76 141.153 348.004C141.153 328.9 161.312 273.731 174.276 246.44C192.699 258.994 199.851 275.525 212.635 267.883C217.278 259.771 218.044 238.034 226.135 229.943C224.257 224.06 221.629 222.604 215.261 220.784C208.892 218.964 204.888 210.959 199.794 205.865C194.7 192.403 183.834 164.842 175.474 156.482C165.512 142.29 148.512 132.413 140.324 130.047Z" fill="url(#paint6_linear_3551_1148)"/>
<path d="M167.842 261.296C170.157 256.119 172.124 250.975 174.279 246.44C164.011 238.19 131.385 211.323 116.828 200.046C131.525 215.794 157.303 243.65 167.842 261.296Z" fill="#2A4370"/>
<path d="M198.34 205.042C198.152 205.042 197.968 204.959 197.843 204.802C197.592 204.486 172.484 172.961 147.358 152.501C147.087 152.28 147.046 151.882 147.268 151.611C147.488 151.339 147.887 151.299 148.159 151.519C173.392 172.066 198.583 203.699 198.836 204.016C199.053 204.29 199.007 204.687 198.733 204.906C198.615 204.997 198.478 205.042 198.34 205.042Z" fill="url(#paint7_linear_3551_1148)"/>
<path d="M174.279 247.073C174.14 247.073 174 247.027 173.883 246.933C173.563 246.676 141.613 221.042 116.428 200.536C116.158 200.315 116.116 199.915 116.338 199.644C116.558 199.373 116.957 199.331 117.229 199.553C142.409 220.057 174.356 245.689 174.676 245.946C174.949 246.165 174.993 246.563 174.773 246.836C174.649 246.992 174.464 247.073 174.279 247.073Z" fill="url(#paint8_linear_3551_1148)"/>
<path d="M213.654 224.06C209.472 228.744 205.919 234.339 203.396 240.08C201.958 243.352 200.833 246.652 199.899 250.103C199.165 253.038 198.765 256.005 198.334 258.994C198.128 256.051 198.101 253.078 198.611 250.164C199.253 246.504 200.278 243.083 201.734 239.664C203.25 236.439 205.006 233.364 207.216 230.557C209.074 228.184 211.181 225.816 213.654 224.06Z" fill="url(#paint9_linear_3551_1148)"/>
<path d="M160.049 118.504C158.272 107.246 155.725 99.1981 152.763 89.7186C149.8 80.2375 152.257 57.5977 174.882 51.3763C193.597 46.2297 219.615 57.1748 233.243 57.1748C246.87 57.1748 246.672 71.5217 230.082 79.2243C209.049 92.5539 180.194 124.429 160.049 118.504Z" fill="#2E2222"/>
<path d="M228.105 105.25C228.47 103.28 232.079 84.4604 231.379 78.5855C225.159 78.5855 206.529 74.173 204.159 80.3927C201.789 86.6141 194.674 83.581 191.096 90.7729C187.518 97.9632 185.895 99.8238 181.793 101.441C184.165 88.1102 174.537 84.7026 169.055 88.258C161.675 93.0465 165.649 104.783 169.055 108.19C157.206 123.297 150.984 125.011 140.32 130.046C149.8 144.563 168.315 159.95 176.759 168.391C176.759 158.615 177.351 150.617 184.757 143.211C193.644 145.581 205.865 150.928 212.308 145.285C216.967 141.203 220.388 134.46 223.177 125.768C226.497 126.879 230.409 127.946 231.088 124.993C232.091 120.637 227.74 107.222 228.105 105.25Z" fill="#E6885D"/>
<path d="M223.671 106.602C223.384 108.425 222.172 109.749 220.961 109.559C219.751 109.371 219.001 107.738 219.288 105.915C219.573 104.092 220.787 102.767 221.997 102.956C223.206 103.148 223.957 104.779 223.671 106.602Z" fill="#2E2222"/>
<path d="M225.335 101.074C224.274 100.794 223.209 100.475 222.119 100.331C221.001 100.206 219.997 100.293 218.891 100.408C220.657 98.777 223.849 99.2475 225.335 101.074Z" fill="#BD653C"/>
<path d="M227.567 96.8202C229.407 96.0624 228.974 92.0809 223.716 90.9692C219.861 90.1563 214.828 92.0062 214.828 93.8947C214.828 95.7832 219.125 94.609 222.421 95.5229C224.419 96.0804 226.308 97.3383 227.567 96.8202Z" fill="#2E2222"/>
<path d="M169.055 108.191C169.934 108.605 170.833 108.877 171.786 109.052C172.75 109.229 173.718 109.123 174.684 109.242C173.015 110.353 169.986 110.293 169.055 108.191Z" fill="#BD653C"/>
<path d="M177.203 101.294C177.203 97.1463 176.463 91.3699 172.76 92.9981C169.055 94.6272 170.092 101.59 173.786 104.7C173.786 101.886 174.388 100.552 177.203 101.294Z" fill="#BD653C"/>
<path d="M174.684 122.081C172.575 128.94 173.926 139.079 181.633 146.936C182.512 145.676 183.534 144.434 184.756 143.212C180.588 141.498 174.684 135.709 174.684 122.081Z" fill="#BD653C"/>
<path d="M218.895 132.548C214.972 133.378 211.455 129.529 212.453 125.769C213.029 127.212 213.452 128.684 214.6 129.809C215.25 130.446 215.973 131.043 216.783 131.471C216.992 131.588 218.895 132.405 218.895 132.548Z" fill="#BD653C"/>
<path d="M534.759 91.2861C542.474 91.6417 558.409 98.3048 557.188 124.798C555.967 151.294 583.598 183.758 549.666 204.105C539.994 190.254 538.916 182.859 535.604 179.226C537.669 167.978 536.129 162.236 539.238 145.108C542.346 127.981 544.063 113.11 535.646 111.175C534.587 100.558 532.309 99.6793 534.759 91.2861Z" fill="#2E2222"/>
<path d="M523.93 85.6345C530.525 84.2165 539.061 85.4695 538.413 99.5306C537.765 113.593 538.75 118.278 525.782 116.306C526.295 105.159 526.952 90.9322 523.93 85.6345Z" fill="#AD3E39"/>
<path d="M457.329 118.844C447.149 115.969 433.048 105.007 459.059 81.2893C466.413 74.5818 482.106 65.9382 505.988 69.7891C529.869 73.6384 536.13 97.1749 529.479 113.808C523.069 129.839 521.59 141.439 511.875 143.398C502.011 152.395 465.752 123.904 457.329 118.844Z" fill="#2E2222"/>
<path d="M508.711 133.842C511.807 131.021 516.335 121.607 512.314 117.198C508.292 112.787 500.621 113.622 497.072 123.511C490.246 120.619 485.614 120.438 483.697 111.698C481.779 102.958 477.897 103.295 470.754 101.677C463.611 100.059 462.282 95.3578 459.337 92.1285C456.885 98.9107 453.752 117.258 453.411 124.648C453.311 126.828 446.281 137.632 446.563 140.002C446.735 141.461 450.96 141.656 454.014 140.975C455.05 151.225 457.741 159.381 464.332 162.732C466.933 164.054 476.276 162.681 483.849 158.734C491.946 167.614 496.516 169.113 501.37 186.866C507.163 178.625 523.212 166.992 532.323 164.576C523.355 154.74 515.076 146.766 508.711 133.842Z" fill="#E6885D"/>
<path d="M457.947 125.19C457.774 126.841 458.52 128.272 459.617 128.387C460.712 128.502 461.74 127.259 461.914 125.607C462.086 123.957 461.34 122.526 460.243 122.411C459.148 122.296 458.12 123.54 457.947 125.19Z" fill="#2E2222"/>
<path d="M457.781 120.003C458.635 119.359 459.804 119.194 460.841 119.286C461.516 119.389 462.146 119.593 462.708 119.987C462.793 120.048 463.636 120.776 463.535 120.913C462.698 120.612 461.906 120.257 461.007 120.155C459.933 120.032 458.86 120.018 457.781 120.003Z" fill="#BD653C"/>
<path d="M456.274 115.677C454.85 114.594 456.086 112.524 460.913 112.774C464.452 112.959 468.538 114.467 468.019 116.084C467.656 117.21 465.825 115.45 461.07 115.231C458.28 115.102 457.247 116.42 456.274 115.677Z" fill="#2E2222"/>
<path d="M456.492 149.143C456.496 149.058 457.817 148.592 457.932 148.539C458.608 148.225 459.304 147.864 459.875 147.38C460.956 146.689 461.599 145.487 462.397 144.526C462.595 147.446 459.422 150.369 456.492 149.143Z" fill="#BD653C"/>
<path d="M508.708 133.842C506.744 136.488 502.583 137 499.727 135.748C502.913 135.698 505.84 135.371 508.708 133.842Z" fill="#BD653C"/>
<path d="M501.453 126.29C502.917 122.491 505.368 119.64 507.631 120.904C509.891 122.169 507.835 130.451 502.385 131.231C503.135 128.945 502.742 127.703 501.453 126.29Z" fill="#BD653C"/>
<path d="M483.852 158.732C485.125 160.128 486.31 161.341 487.425 162.465C491.439 158.905 495.084 153.624 497.118 147.743C493.757 153.517 488.098 156.091 483.852 158.732Z" fill="#BD653C"/>
<path d="M338.658 268.25C336.745 265.159 333.814 248.254 329.298 254.122C327.744 249.575 324.436 248.456 323.458 253.442C322.32 248.785 318.065 248.007 317.513 252.75C315.053 249.641 310.305 249.104 311.684 253.45C313.064 257.798 313.623 265.772 318.057 264.566C320.805 268.037 324.346 267.653 325.222 266.331C326.882 268.426 330.352 268.762 331.394 266.119C333.472 268.745 335.129 269.365 338.658 268.25Z" fill="#E6885D"/>
<path d="M338.069 234.926C333.419 238.606 325.532 241.934 323.273 239.08C321.014 236.226 335.733 224.981 340.403 225.525C345.072 226.069 355.68 237.646 360.102 240.215C362.329 241.509 365.676 240.347 369.42 240.067C371.034 246.099 369.57 256.432 365.676 259.438C364.27 259.438 361.501 259.494 360.593 259.494C357.815 259.494 354.604 259.135 353.768 259.797C354.784 256.883 358.82 251.3 338.069 234.926Z" fill="#E6885D"/>
<path d="M329.304 254.122C329.757 256.16 330.072 258.223 330.42 260.279C330.748 262.219 331.17 264.165 331.399 266.119C330.484 264.307 329.997 262.385 329.605 260.407C329.207 258.394 329.048 256.161 329.304 254.122Z" fill="#CC6F45"/>
<path d="M323.459 253.441C323.753 255.644 323.994 257.855 324.297 260.057C324.475 261.341 324.647 262.625 324.852 263.906C324.982 264.715 325.142 265.515 325.223 266.331C324.37 264.459 323.845 262.49 323.525 260.464C323.167 258.195 323 255.711 323.459 253.441Z" fill="#CC6F45"/>
<path d="M317.516 252.75C317.702 254.819 317.766 256.899 317.851 258.974C317.895 260.075 317.957 261.173 317.983 262.274C317.986 262.411 318.056 264.565 318.06 264.566C318.007 264.56 317.87 263.986 317.855 263.934C317.695 263.41 317.535 262.878 317.433 262.34C317.204 261.131 317.091 259.92 317.01 258.692C316.896 256.747 317.006 254.636 317.516 252.75Z" fill="#CC6F45"/>
<path d="M327.57 240.016C328.69 239.777 329.774 239.315 330.811 238.841C332.099 238.245 333.397 237.572 334.574 236.776C336.791 235.406 338.798 233.761 340.935 232.278C339.249 234.325 337.242 236.052 335.012 237.48C333.868 238.219 332.604 238.85 331.319 239.3C330.126 239.716 328.845 240.073 327.57 240.016Z" fill="#BF6339"/>
<path d="M376.738 272.503C369.49 271.371 357.894 265.34 350.466 269.105C333.933 277.485 309.698 282.122 308.87 283.827C307.548 286.544 310.379 289.036 317.4 289.036C324.421 289.036 368.214 290.395 379.157 287.904C384.175 282.886 381.678 273.644 376.738 272.503Z" fill="#E6885D"/>
<path d="M317.516 288.163C324.528 282.219 336.181 280.137 347.09 280.012C336.654 281.219 325.084 283.348 317.516 288.163Z" fill="#BD653C"/>
<path d="M312.031 288.163C319.093 280.212 333.693 277.434 345.906 275.712C334.142 278.432 319.714 281.097 312.031 288.163Z" fill="#BD653C"/>
<path d="M525.146 154.259C540.314 158.38 542.743 164.055 558.192 207.958C573.643 251.863 575.63 264.536 589.365 294.062C571.279 322.699 549.433 334.625 516.633 340.587C510.453 320.828 505.403 293.758 488.643 277.001C481.174 285.327 476.968 290.219 468.729 290.219C460.488 290.219 391.135 288.503 378.774 290.219C378.885 284.274 378.238 276.731 376.736 272.504C383.946 270.443 409.127 263.927 419.771 261.867C404.074 262.415 418.663 261.941 365.68 259.438C368.77 253.882 369.424 246.422 369.424 240.067C410.959 235.532 430.813 228.817 446.902 229.449C454.179 219.076 473.472 205.493 484.976 192.099C489.809 182.186 492.112 174.33 495.702 170.74C506.936 159.506 512.553 154.259 525.146 154.259Z" fill="url(#paint10_linear_3551_1148)"/>
<path d="M452.515 243.128C452.165 243.128 451.882 242.844 451.882 242.495C451.882 235.96 446.945 230.378 446.89 230.318C446.656 230.059 446.675 229.658 446.935 229.424C447.194 229.188 447.595 229.209 447.828 229.466C448.064 229.726 453.148 235.464 453.148 242.495C453.148 242.844 452.864 243.128 452.515 243.128Z" fill="#8A312D"/>
<path d="M420.085 262.026C419.793 262.026 419.529 261.822 419.467 261.523C419.395 261.182 419.613 260.845 419.955 260.774C434.026 257.844 456.052 253.061 462.141 252.857C465.633 245.319 470.328 232.252 475.293 218.433C481.586 200.915 488.095 182.801 492.953 173.704C493.117 173.395 493.502 173.277 493.81 173.443C494.118 173.608 494.234 173.992 494.069 174.301C489.256 183.316 482.763 201.386 476.484 218.862C471.43 232.932 466.654 246.221 463.12 253.752L462.949 254.115H462.547C457.183 254.115 434.761 258.86 434.536 258.908C434.491 258.917 420.13 262.026 420.085 262.026Z" fill="#8A312D"/>
<path d="M470.1 262.698C469.843 262.698 469.602 262.541 469.506 262.287C467.557 257.083 462.289 254.063 462.236 254.033C461.932 253.862 461.824 253.476 461.996 253.171C462.166 252.867 462.551 252.758 462.858 252.93C463.09 253.06 468.577 256.197 470.693 261.843C470.815 262.169 470.65 262.534 470.321 262.656C470.249 262.684 470.174 262.698 470.1 262.698Z" fill="#8A312D"/>
<path d="M525.144 222.238C516.328 239.406 496.537 265.5 488.641 277.001C492.416 280.776 495.601 285.1 498.348 289.755C505.246 273.562 516.888 244.686 525.144 222.238Z" fill="#AD3E39"/>
<path d="M488.641 277.633C488.509 277.633 488.375 277.592 488.261 277.507C487.981 277.296 487.925 276.899 488.135 276.62C488.469 276.176 521.577 232.085 527.154 215.939C527.269 215.608 527.63 215.432 527.96 215.546C528.29 215.661 528.464 216.022 528.351 216.352C522.71 232.686 490.516 275.563 489.148 277.381C489.023 277.546 488.832 277.633 488.641 277.633Z" fill="#8A312D"/>
<mask id="mask0_3551_1148" style="mask-type:luminance" maskUnits="userSpaceOnUse" x="145" y="259" width="427" height="91">
<path d="M320.012 338.489C361.843 332.807 505.775 365.962 564.44 321.532C623.105 277.103 314.555 240.332 197.391 271.169C141.641 285.841 108.665 356.6 218.005 348.874C247.311 346.802 273.183 344.849 320.012 338.489Z" fill="white"/>
</mask>
<g mask="url(#mask0_3551_1148)">
<path d="M178.141 300.524C201.532 313.093 218.99 339.421 218.99 356.471C233.42 356.471 450.143 356.471 464.573 356.471C464.573 339.421 482.03 313.093 505.422 300.524C495.134 295.234 188.426 295.234 178.141 300.524Z" fill="#5C4B44"/>
<path d="M510.421 295.287C510.421 298.18 508.076 300.524 505.184 300.524H178.143C175.251 300.524 172.906 298.181 172.906 295.287V292.494C172.906 289.601 175.25 287.257 178.143 287.257H505.184C508.076 287.257 510.421 289.6 510.421 292.494V295.287Z" fill="#5C4B44"/>
<path d="M350.438 356.471C405.221 356.471 457.723 356.471 464.578 356.471C464.578 339.421 482.034 313.093 505.426 300.524C460.113 300.524 319.152 300.524 275.062 300.524C326.91 317.701 345.827 347.625 350.438 356.471Z" fill="#52423D"/>
<path d="M505.422 301.368H178.141C177.675 301.368 177.297 300.99 177.297 300.524C177.297 300.058 177.675 299.68 178.141 299.68H505.422C505.888 299.68 506.266 300.058 506.266 300.524C506.266 300.991 505.888 301.368 505.422 301.368Z" fill="#9E8176"/>
</g>
<path d="M286.406 94.9411C288.426 86.5426 283.255 78.0971 274.856 76.0776C266.458 74.0581 258.012 79.2293 255.993 87.6278C253.973 96.0263 259.144 104.472 267.543 106.491C275.941 108.511 284.387 103.34 286.406 94.9411Z" fill="url(#paint11_linear_3551_1148)"/>
<path d="M277.625 100.121H264.758C263.854 100.121 263.177 99.465 262.949 98.3664L261.43 89.4231C261.426 88.3713 262.24 87.5568 263.243 87.5568H279.141C280.142 87.5568 280.957 88.3721 280.957 89.3738L279.436 98.3549C279.159 99.5011 278.516 100.121 277.625 100.121ZM263.243 88.1619C262.575 88.1619 262.032 88.7046 262.032 89.3738L263.543 98.2539C263.62 98.6259 263.9 99.5159 264.758 99.5159H277.625C278.226 99.5159 278.636 99.084 278.844 98.2326L280.356 89.3221C280.352 88.7046 279.808 88.1619 279.141 88.1619H263.243Z" fill="white"/>
<path d="M264.694 89.2523C264.572 89.2523 264.448 89.2227 264.333 89.1603C263.966 88.9608 263.829 88.501 264.03 88.1331L267.731 81.3321C267.931 80.965 268.391 80.8287 268.757 81.0291C269.125 81.2286 269.262 81.6876 269.06 82.0554L265.359 88.8573C265.222 89.1086 264.962 89.2523 264.694 89.2523Z" fill="white"/>
<path d="M277.803 89.2523C277.536 89.2523 277.274 89.1094 277.138 88.8574L273.437 82.0555C273.236 81.6876 273.372 81.2286 273.74 81.0291C274.106 80.828 274.567 80.9642 274.765 81.3321L278.467 88.1332C278.666 88.501 278.531 88.9608 278.164 89.1604C278.05 89.2228 277.926 89.2523 277.803 89.2523Z" fill="white"/>
<path d="M271.194 100.121C271.026 100.121 270.891 99.9856 270.891 99.8181V87.859C270.891 87.6915 271.026 87.556 271.194 87.556C271.361 87.556 271.497 87.6915 271.497 87.859V99.8181C271.497 99.9856 271.361 100.121 271.194 100.121Z" fill="white"/>
<path d="M279.699 94.1419H262.545C262.378 94.1419 262.242 94.0056 262.242 93.8389C262.242 93.6714 262.378 93.5367 262.545 93.5367H279.699C279.866 93.5367 280.002 93.6714 280.002 93.8389C280.002 94.0056 279.866 94.1419 279.699 94.1419Z" fill="white"/>
<path d="M279.368 97.2743H263.022C262.854 97.2743 262.719 97.1397 262.719 96.9722C262.719 96.8055 262.854 96.6692 263.022 96.6692H279.368C279.535 96.6692 279.671 96.8055 279.671 96.9722C279.671 97.1389 279.535 97.2743 279.368 97.2743Z" fill="white"/>
<path d="M280.393 91.2139H261.99C261.823 91.2139 261.688 91.0785 261.688 90.9118C261.688 90.7443 261.823 90.608 261.99 90.608H280.393C280.56 90.608 280.697 90.7443 280.697 90.9118C280.697 91.0785 280.56 91.2139 280.393 91.2139Z" fill="white"/>
<path d="M273.725 100.121C273.719 100.121 273.712 100.121 273.707 100.121C273.539 100.11 273.413 99.9667 273.422 99.7991L274.181 87.84C274.192 87.6741 274.31 87.5485 274.503 87.5567C274.669 87.5674 274.796 87.7111 274.785 87.8786L274.028 99.8377C274.016 99.9978 273.883 100.121 273.725 100.121Z" fill="white"/>
<path d="M276.186 100.121C276.172 100.121 276.16 100.12 276.148 100.119C275.982 100.098 275.863 99.947 275.886 99.7803L277.401 87.8211C277.422 87.6544 277.584 87.5378 277.74 87.5584C277.906 87.5797 278.023 87.7308 278.001 87.8967L276.486 99.8558C276.465 100.009 276.336 100.121 276.186 100.121Z" fill="white"/>
<path d="M268.67 100.121C268.512 100.121 268.379 99.9987 268.368 99.8377L267.61 87.8786C267.599 87.7119 267.727 87.5674 267.893 87.5567C268.072 87.5485 268.205 87.6741 268.215 87.84L268.974 99.7991C268.984 99.9658 268.857 100.11 268.69 100.121C268.683 100.121 268.677 100.121 268.67 100.121Z" fill="white"/>
<path d="M266.208 100.121C266.057 100.121 265.928 100.009 265.908 99.8567L264.393 87.8975C264.372 87.7317 264.489 87.5806 264.655 87.5592C264.809 87.5387 264.971 87.6553 264.993 87.822L266.508 99.7811C266.53 99.9478 266.413 100.099 266.245 100.119C266.233 100.12 266.221 100.121 266.208 100.121Z" fill="white"/>
<path d="M341.562 121.842C341.562 130.48 334.558 137.482 325.921 137.482C317.284 137.482 310.281 130.48 310.281 121.842C310.281 113.204 317.284 106.202 325.921 106.202C334.558 106.202 341.562 113.204 341.562 121.842Z" fill="url(#paint12_linear_3551_1148)"/>
<path d="M335.068 128.053C335.183 127.896 335.146 127.677 334.991 127.563L331.597 125.122C331.442 125.009 331.222 125.045 331.107 125.202C331.006 125.345 331.029 125.534 331.153 125.653C330.52 126.432 328.273 128.826 323.617 125.476C318.961 122.125 320.518 119.234 321.056 118.389C321.207 118.466 321.395 118.43 321.497 118.288C321.612 118.131 321.574 117.911 321.416 117.797L318.024 115.357C317.867 115.244 317.647 115.28 317.534 115.437C317.432 115.578 317.456 115.764 317.575 115.884C314.329 120.945 321.19 126.366 322.369 127.214C323.547 128.061 330.865 132.844 334.632 128.158C334.785 128.231 334.968 128.194 335.068 128.053Z" fill="white"/>
<path d="M328.711 121.04C328.68 121.04 328.647 121.032 328.62 121.017C328.525 120.967 328.491 120.849 328.541 120.754C328.573 120.692 329.335 119.226 328.178 118.315C327.024 117.407 325.883 118.558 325.834 118.609C325.759 118.685 325.636 118.687 325.558 118.613C325.482 118.538 325.48 118.415 325.554 118.337C326.045 117.831 327.276 117.111 328.417 118.009C329.834 119.123 328.892 120.92 328.883 120.937C328.848 121.003 328.781 121.04 328.711 121.04Z" fill="white"/>
<path d="M330.255 121.449C330.215 121.449 330.171 121.438 330.133 121.418C330.009 121.349 329.959 121.193 330.027 121.066C330.087 120.955 331.469 118.305 329.363 116.65C327.265 115 325.196 117.086 325.109 117.177C325.009 117.279 324.846 117.282 324.743 117.182C324.64 117.081 324.638 116.918 324.736 116.815C324.761 116.789 327.22 114.307 329.684 116.241C332.133 118.168 330.501 121.28 330.483 121.311C330.438 121.399 330.347 121.449 330.255 121.449Z" fill="white"/>
<path d="M331.74 122.923C331.687 122.923 331.637 122.91 331.588 122.885C331.429 122.799 331.369 122.604 331.454 122.446C331.554 122.262 333.824 117.91 330.355 115.181C326.901 112.465 323.488 115.895 323.346 116.042C323.22 116.17 323.016 116.172 322.887 116.048C322.759 115.924 322.756 115.719 322.88 115.59C322.919 115.55 326.837 111.591 330.755 114.671C334.656 117.74 332.052 122.703 332.024 122.753C331.967 122.861 331.855 122.923 331.74 122.923Z" fill="white"/>
<path d="M404.717 94.6906C406.639 86.2697 401.371 77.8851 392.95 75.9632C384.529 74.0413 376.144 79.3098 374.222 87.7308C372.3 96.1518 377.569 104.536 385.99 106.458C394.411 108.38 402.795 103.112 404.717 94.6906Z" fill="url(#paint13_linear_3551_1148)"/>
<path d="M399.608 96.9435C399.608 97.5962 399.078 98.1258 398.426 98.1258H380.502C379.849 98.1258 379.32 97.5962 379.32 96.9435V85.4416C379.32 84.7881 379.85 84.2593 380.502 84.2593H398.425C399.078 84.2593 399.607 84.7889 399.607 85.4416V96.9435H399.608Z" fill="white"/>
<path d="M389.467 93.554C389.402 93.554 389.336 93.5326 389.279 93.4883L379.85 86.0845C379.719 85.9811 379.696 85.7914 379.799 85.6592C379.902 85.5278 380.093 85.5048 380.224 85.6083L389.467 92.8659L398.598 85.6715C398.73 85.5672 398.921 85.5911 399.023 85.7224C399.126 85.8538 399.105 86.0443 398.973 86.1469L389.655 93.4891C389.599 93.5334 389.533 93.554 389.467 93.554Z" fill="url(#paint14_linear_3551_1148)"/>
<path d="M398.784 97.2218C398.7 97.2218 398.617 97.1873 398.558 97.1191L392.826 90.6251C392.715 90.4995 392.728 90.3082 392.852 90.1973C392.977 90.0857 393.169 90.098 393.28 90.2236L399.012 96.7176C399.123 96.8432 399.11 97.0345 398.985 97.1446C398.927 97.1971 398.855 97.2218 398.784 97.2218Z" fill="url(#paint15_linear_3551_1148)"/>
<path d="M380.037 97.2218C379.967 97.2218 379.896 97.1971 379.838 97.1479C379.713 97.0379 379.699 96.8465 379.808 96.7201L385.529 90.1399C385.639 90.0134 385.83 90.0003 385.956 90.1095C386.082 90.2195 386.097 90.4109 385.986 90.5373L380.265 97.1175C380.205 97.1873 380.123 97.2218 380.037 97.2218Z" fill="url(#paint16_linear_3551_1148)"/>
<defs>
<linearGradient id="paint0_linear_3551_1148" x1="284.484" y1="190.521" x2="408.152" y2="190.521" gradientUnits="userSpaceOnUse">
<stop stop-color="#FFC136"/>
<stop offset="0.197568" stop-color="#FAC142"/>
<stop offset="0.525" stop-color="#FFD168"/>
<stop offset="0.771328" stop-color="#F5BC3A"/>
<stop offset="1" stop-color="#E09B00"/>
</linearGradient>
<linearGradient id="paint1_linear_3551_1148" x1="276.672" y1="172.566" x2="326.686" y2="172.566" gradientUnits="userSpaceOnUse">
<stop stop-color="#0032A3"/>
<stop offset="0.25" stop-color="#1A51CB"/>
<stop offset="0.5" stop-color="#3B66C8"/>
<stop offset="0.75" stop-color="#1A51CB"/>
<stop offset="1" stop-color="#0032A3"/>
</linearGradient>
<linearGradient id="paint2_linear_3551_1148" x1="243.695" y1="235.043" x2="346.363" y2="235.043" gradientUnits="userSpaceOnUse">
<stop stop-color="#0032A3"/>
<stop offset="0.25" stop-color="#1A51CB"/>
<stop offset="0.5" stop-color="#3B66C8"/>
<stop offset="0.75" stop-color="#1A51CB"/>
<stop offset="1" stop-color="#0032A3"/>
</linearGradient>
<linearGradient id="paint3_linear_3551_1148" x1="270.023" y1="172.566" x2="320.035" y2="172.566" gradientUnits="userSpaceOnUse">
<stop stop-color="#0032A3"/>
<stop offset="0.25" stop-color="#1A51CB"/>
<stop offset="0.5" stop-color="#3B66C8"/>
<stop offset="0.75" stop-color="#1A51CB"/>
<stop offset="1" stop-color="#0032A3"/>
</linearGradient>
<linearGradient id="paint4_linear_3551_1148" x1="281.461" y1="219.115" x2="311.545" y2="219.115" gradientUnits="userSpaceOnUse">
<stop stop-color="#0032A3"/>
<stop offset="0.25" stop-color="#1A51CB"/>
<stop offset="0.5" stop-color="#3B66C8"/>
<stop offset="0.75" stop-color="#1A51CB"/>
<stop offset="1" stop-color="#0032A3"/>
</linearGradient>
<linearGradient id="paint5_linear_3551_1148" x1="286.531" y1="219.115" x2="316.618" y2="219.115" gradientUnits="userSpaceOnUse">
<stop stop-color="#0032A3"/>
<stop offset="0.25" stop-color="#1A51CB"/>
<stop offset="0.5" stop-color="#3B66C8"/>
<stop offset="0.75" stop-color="#1A51CB"/>
<stop offset="1" stop-color="#0032A3"/>
</linearGradient>
<linearGradient id="paint6_linear_3551_1148" x1="67.8516" y1="239.026" x2="226.135" y2="239.026" gradientUnits="userSpaceOnUse">
<stop stop-color="#0032A3"/>
<stop offset="0.25" stop-color="#1A51CB"/>
<stop offset="0.5" stop-color="#3B66C8"/>
<stop offset="0.75" stop-color="#1A51CB"/>
<stop offset="1" stop-color="#0032A3"/>
</linearGradient>
<linearGradient id="paint7_linear_3551_1148" x1="147.125" y1="178.21" x2="198.973" y2="178.21" gradientUnits="userSpaceOnUse">
<stop stop-color="#0032A3"/>
<stop offset="0.25" stop-color="#1A51CB"/>
<stop offset="0.5" stop-color="#3B66C8"/>
<stop offset="0.75" stop-color="#1A51CB"/>
<stop offset="1" stop-color="#0032A3"/>
</linearGradient>
<linearGradient id="paint8_linear_3551_1148" x1="116.195" y1="223.242" x2="174.913" y2="223.242" gradientUnits="userSpaceOnUse">
<stop stop-color="#0032A3"/>
<stop offset="0.25" stop-color="#1A51CB"/>
<stop offset="0.5" stop-color="#3B66C8"/>
<stop offset="0.75" stop-color="#1A51CB"/>
<stop offset="1" stop-color="#0032A3"/>
</linearGradient>
<linearGradient id="paint9_linear_3551_1148" x1="198.195" y1="241.527" x2="213.654" y2="241.527" gradientUnits="userSpaceOnUse">
<stop stop-color="#0032A3"/>
<stop offset="0.25" stop-color="#1A51CB"/>
<stop offset="0.5" stop-color="#3B66C8"/>
<stop offset="0.75" stop-color="#1A51CB"/>
<stop offset="1" stop-color="#0032A3"/>
</linearGradient>
<linearGradient id="paint10_linear_3551_1148" x1="365.68" y1="247.423" x2="589.365" y2="247.423" gradientUnits="userSpaceOnUse">
<stop stop-color="#FFC136"/>
<stop offset="0.197568" stop-color="#FAC142"/>
<stop offset="0.525" stop-color="#FFD168"/>
<stop offset="0.771328" stop-color="#F5BC3A"/>
<stop offset="1" stop-color="#E09B00"/>
</linearGradient>
<linearGradient id="paint11_linear_3551_1148" x1="267.543" y1="106.491" x2="274.856" y2="76.0776" gradientUnits="userSpaceOnUse">
<stop stop-color="#0032A3"/>
<stop offset="0.25" stop-color="#1A51CB"/>
<stop offset="0.5" stop-color="#3B66C8"/>
<stop offset="0.75" stop-color="#1A51CB"/>
<stop offset="1" stop-color="#0032A3"/>
</linearGradient>
<linearGradient id="paint12_linear_3551_1148" x1="310.281" y1="121.842" x2="341.562" y2="121.842" gradientUnits="userSpaceOnUse">
<stop stop-color="#0032A3"/>
<stop offset="0.25" stop-color="#1A51CB"/>
<stop offset="0.5" stop-color="#3B66C8"/>
<stop offset="0.75" stop-color="#1A51CB"/>
<stop offset="1" stop-color="#0032A3"/>
</linearGradient>
<linearGradient id="paint13_linear_3551_1148" x1="385.99" y1="106.458" x2="392.95" y2="75.9632" gradientUnits="userSpaceOnUse">
<stop stop-color="#0032A3"/>
<stop offset="0.25" stop-color="#1A51CB"/>
<stop offset="0.5" stop-color="#3B66C8"/>
<stop offset="0.75" stop-color="#1A51CB"/>
<stop offset="1" stop-color="#0032A3"/>
</linearGradient>
<linearGradient id="paint14_linear_3551_1148" x1="379.734" y1="89.5487" x2="399.088" y2="89.5487" gradientUnits="userSpaceOnUse">
<stop stop-color="#0032A3"/>
<stop offset="0.25" stop-color="#1A51CB"/>
<stop offset="0.5" stop-color="#3B66C8"/>
<stop offset="0.75" stop-color="#1A51CB"/>
<stop offset="1" stop-color="#0032A3"/>
</linearGradient>
<linearGradient id="paint15_linear_3551_1148" x1="392.75" y1="93.6713" x2="399.088" y2="93.6713" gradientUnits="userSpaceOnUse">
<stop stop-color="#0032A3"/>
<stop offset="0.25" stop-color="#1A51CB"/>
<stop offset="0.5" stop-color="#3B66C8"/>
<stop offset="0.75" stop-color="#1A51CB"/>
<stop offset="1" stop-color="#0032A3"/>
</linearGradient>
<linearGradient id="paint16_linear_3551_1148" x1="379.734" y1="93.6287" x2="386.061" y2="93.6287" gradientUnits="userSpaceOnUse">
<stop stop-color="#0032A3"/>
<stop offset="0.25" stop-color="#1A51CB"/>
<stop offset="0.5" stop-color="#3B66C8"/>
<stop offset="0.75" stop-color="#1A51CB"/>
<stop offset="1" stop-color="#0032A3"/>
</linearGradient>
</defs>
</svg>
