<svg width="674" height="400" viewBox="0 0 674 400" fill="none" xmlns="http://www.w3.org/2000/svg">
<rect width="674" height="400" rx="12" fill="#E6EAF3"/>
<path d="M307.313 50.433C227.32 45.4136 198.946 84.8676 158.29 125.676C117.634 166.482 98.8411 209.559 122.466 270.877C146.092 332.194 201.873 347.786 289.422 347.786C376.973 347.786 467.134 356.329 512.795 322.976C558.455 289.625 574.01 213.408 507.853 173.529C468.888 150.04 417.894 57.3721 307.313 50.433Z" fill="#FFF2DB"/>
<mask id="mask0_3551_1155" style="mask-type:luminance" maskUnits="userSpaceOnUse" x="112" y="50" width="441" height="299">
<path d="M307.313 50.433C227.32 45.4136 198.946 84.8676 158.29 125.676C117.634 166.482 98.8411 209.559 122.466 270.877C146.092 332.194 201.873 347.786 289.422 347.786C376.973 347.786 467.134 356.329 512.795 322.976C558.455 289.625 574.01 213.408 507.853 173.529C468.888 150.04 417.894 57.3721 307.313 50.433Z" fill="white"/>
</mask>
<g mask="url(#mask0_3551_1155)">
<path d="M179.124 334.902C178.268 324.278 174.822 314.189 171.385 304.173C167.989 294.275 164.168 283.833 163.998 273.247C163.924 268.677 166.009 259.385 172.524 261.131C174.726 261.722 176.111 264.113 177.106 265.974C178.416 268.427 179.443 271.037 180.348 273.661C183.764 283.567 184.378 294.171 184.352 304.566C184.332 312.385 183.788 320.24 184.428 328.046C184.466 328.511 185.164 328.525 185.163 328.046C185.133 317.091 185.745 306.151 187.678 295.356C188.6 290.205 189.849 285.118 191.327 280.1C191.855 278.303 193.533 275.551 195.377 275.072C198.117 274.362 201.507 275.126 202.561 278.085C206.497 289.134 203.161 301.028 199.493 311.65C197.945 316.134 196.404 320.614 194.414 324.919C192.79 328.433 191.195 331.961 189.635 335.503C189.177 336.541 188.725 337.58 188.289 338.628C188.107 339.066 188.818 339.254 188.998 338.823C191.784 332.122 195.251 325.684 197.7 318.855C201.369 308.623 205.467 298.114 205.005 287.055C204.903 284.611 204.487 282.186 203.866 279.824C203.309 277.7 202.652 276.089 200.742 274.896C199.399 274.056 197.68 273.993 196.159 274.181C194.22 274.419 193.556 274.937 192.515 276.515C192.118 277.119 191.187 278.017 190.991 278.664C190.618 279.896 190.256 281.131 189.908 282.372C189.172 284.994 188.525 287.643 187.938 290.303C186.865 295.176 186.09 300.111 185.525 305.067C184.657 312.691 184.407 320.376 184.427 328.046C184.672 328.046 184.917 328.046 185.162 328.046C184.426 319.064 185.176 310.013 185.071 301.016C184.951 290.838 183.826 280.613 180.178 271.048C178.841 267.542 177.256 263.307 174.067 261.065C170.771 258.748 167.101 261.295 165.301 264.171C162.907 267.997 163.057 273.092 163.541 277.388C164.1 282.352 165.294 287.25 166.674 292.041C170.774 306.286 177.185 319.958 178.389 334.903C178.427 335.371 179.162 335.375 179.124 334.902Z" fill="url(#paint0_linear_3551_1155)"/>
<path d="M179.056 334.783C178.869 332.746 178.646 330.718 178.214 328.716C178.127 328.311 177.468 328.399 177.493 328.813C177.616 330.855 177.907 332.875 178.227 334.894C178.3 335.362 179.008 335.162 178.935 334.699C178.627 332.745 178.347 330.79 178.228 328.813C177.988 328.845 177.747 328.878 177.507 328.91C177.925 330.848 178.141 332.811 178.322 334.783C178.363 335.251 179.099 335.256 179.056 334.783Z" fill="url(#paint1_linear_3551_1155)"/>
<path d="M169.021 335.065C165.915 326.852 159.402 320.825 153.618 314.479C150.518 311.079 147.628 307.48 145.546 303.356C143.572 299.449 140.892 293.579 143.58 289.443C145.903 285.868 150.984 288.765 153.514 290.468C156.741 292.64 159.286 295.554 161.73 298.545C168.502 306.835 173.597 316.553 176.526 326.847C177.246 329.379 177.792 331.959 178.212 334.557C178.287 335.024 178.995 334.825 178.92 334.362C177.298 324.341 173.461 314.833 168.115 306.23C163.963 299.548 158.778 292.366 151.719 288.512C149.43 287.262 146.447 286.303 144.091 287.887C141.101 289.898 141.575 294.288 142.346 297.263C144.547 305.756 150.58 312.349 156.417 318.57C161.114 323.576 165.847 328.74 168.313 335.259C168.478 335.7 169.188 335.509 169.021 335.065Z" fill="url(#paint2_linear_3551_1155)"/>
<path d="M197.734 279.736C192.867 287.318 193.789 296.992 192.301 305.532C191.446 310.439 189.693 315.108 188.797 319.999C187.851 325.168 186.813 330.306 185.582 335.415C185.471 335.876 186.179 336.071 186.29 335.611C187.468 330.724 188.506 325.808 189.398 320.861C190.237 316.208 191.853 311.76 192.753 307.122C193.61 302.703 193.979 298.269 194.395 293.795C194.841 288.999 195.727 284.221 198.369 280.105C198.625 279.706 197.989 279.338 197.734 279.736Z" fill="url(#paint3_linear_3551_1155)"/>
<path d="M170.227 268.677C170.558 274.216 172.434 279.461 173.71 284.822C175.134 290.804 176.294 296.86 177.499 302.889C178.671 308.759 179.723 314.657 180.984 320.508C182.285 326.547 183.325 332.671 183.355 338.863C183.358 339.337 184.092 339.337 184.09 338.863C184.062 333.291 183.208 327.787 182.115 322.336C180.896 316.265 179.686 310.193 178.49 304.118C177.341 298.292 176.186 292.457 174.889 286.661C173.553 280.694 171.329 274.817 170.962 268.677C170.934 268.206 170.199 268.203 170.227 268.677Z" fill="url(#paint4_linear_3551_1155)"/>
<path d="M151.964 299.304C157.499 304.572 162.05 310.732 166.212 317.114C168.319 320.346 170.229 323.734 172.135 327.089C174.268 330.842 175.483 334.814 177.027 338.816C177.196 339.253 177.907 339.064 177.736 338.621C176.342 335.007 175.302 331.33 173.438 327.915C171.475 324.32 169.406 320.724 167.193 317.278C162.934 310.645 158.21 304.233 152.484 298.784C152.141 298.458 151.62 298.977 151.964 299.304Z" fill="url(#paint5_linear_3551_1155)"/>
<path d="M152.972 309.2C157.431 312.196 162.32 314.551 166.538 317.902C166.905 318.194 167.428 317.678 167.057 317.383C162.787 313.991 157.856 311.598 153.343 308.566C152.948 308.301 152.58 308.938 152.972 309.2Z" fill="url(#paint6_linear_3551_1155)"/>
<path d="M165.26 308.63C166.892 310.782 167.868 313.555 168.788 316.062C169.918 319.142 170.713 322.388 171.451 325.581C171.558 326.043 172.266 325.847 172.159 325.386C171.382 322.028 170.516 318.647 169.328 315.408C168.442 312.995 167.46 310.323 165.894 308.26C165.612 307.887 164.973 308.252 165.26 308.63Z" fill="url(#paint7_linear_3551_1155)"/>
<path d="M189.447 300.075C189.699 303.179 191.2 306.009 191.299 309.135C191.314 309.608 192.048 309.609 192.034 309.135C191.934 306.003 190.433 303.178 190.181 300.075C190.143 299.607 189.408 299.603 189.447 300.075Z" fill="url(#paint8_linear_3551_1155)"/>
<path d="M175.102 274.249C174.074 277.477 174.213 280.996 173.777 284.327C173.716 284.796 174.451 284.79 174.512 284.327C174.941 281.057 174.802 277.611 175.811 274.444C175.955 273.991 175.246 273.799 175.102 274.249Z" fill="url(#paint9_linear_3551_1155)"/>
<path d="M169.263 287.642C170.876 289.917 172.194 292.371 173.856 294.612C175.384 296.674 176.634 298.664 177.196 301.192C177.299 301.655 178.007 301.458 177.904 300.997C177.419 298.813 176.512 297.178 175.267 295.342C173.454 292.673 171.763 289.901 169.897 287.271C169.625 286.888 168.988 287.254 169.263 287.642Z" fill="url(#paint10_linear_3551_1155)"/>
<path d="M181.062 296.539C180.312 301.06 179.582 305.583 179.15 310.149C179.106 310.621 179.841 310.616 179.885 310.149C180.311 305.649 181.031 301.191 181.77 296.733C181.847 296.27 181.139 296.072 181.062 296.539Z" fill="url(#paint11_linear_3551_1155)"/>
<path d="M200.435 284.856C198.619 289.602 195.539 293.787 193.39 298.379C193.19 298.805 193.824 299.178 194.024 298.749C196.201 294.099 199.303 289.86 201.142 285.051C201.313 284.608 200.602 284.419 200.435 284.856Z" fill="url(#paint12_linear_3551_1155)"/>
</g>
<mask id="mask1_3551_1155" style="mask-type:luminance" maskUnits="userSpaceOnUse" x="112" y="50" width="441" height="299">
<path d="M307.313 50.433C227.32 45.4136 198.946 84.8676 158.29 125.676C117.634 166.482 98.8411 209.559 122.466 270.877C146.092 332.194 201.873 347.786 289.422 347.786C376.973 347.786 467.134 356.329 512.795 322.976C558.455 289.625 574.01 213.408 507.853 173.529C468.888 150.04 417.894 57.3721 307.313 50.433Z" fill="white"/>
</mask>
<g mask="url(#mask1_3551_1155)">
<path d="M462.72 346.413C461.292 342.985 459.458 339.864 456.936 337.126C453.765 333.685 449.675 331.419 446.871 327.611C444.121 323.874 441.803 319.674 439.522 315.64C438.18 313.266 437.093 310.864 436.644 308.16C436.207 305.525 436.321 302.79 436.512 300.139C436.328 300.244 436.143 300.351 435.96 300.457C437.736 301.217 439.044 302.56 440.477 303.81C441.9 305.051 443.575 305.996 445.096 307.109C448.649 309.71 451.834 313.127 454.424 316.669C456.827 319.956 458.515 323.831 460.144 327.543C461.56 330.769 462.71 334.452 464.807 337.312C465.036 337.624 465.626 337.452 465.479 337.029C462.888 329.624 461.846 321.761 462.083 313.931C462.19 310.381 462.619 306.781 463.161 303.273C463.688 299.868 464.512 296.418 466.27 293.424C466.058 293.424 465.847 293.424 465.636 293.424C466.485 295.074 466.683 296.879 467.018 298.677C467.395 300.698 468.106 302.614 468.829 304.531C470.422 308.754 471.322 313.274 472.147 317.7C473.024 322.409 473.23 326.829 472.51 331.575C471.849 335.925 470.644 340.179 469.739 344.48C469.657 344.869 470.216 345.154 470.411 344.763C471.71 342.148 472.93 339.501 474.016 336.79C475.199 333.836 475.983 330.768 477.029 327.769C478.673 323.059 481.478 318.777 485.978 316.429C491.36 313.621 503.666 310.826 505.071 319.557C505.251 319.418 505.431 319.281 505.61 319.142C497.479 315.699 491.103 323.297 487.02 329.352C484.254 333.453 481.391 337.314 478.233 341.13C476.98 342.646 475.857 344.513 474.396 345.828C473.094 347.002 470.56 348.8 468.713 348.627C468.241 348.582 468.245 349.318 468.713 349.362C471.163 349.592 474.557 347.107 475.921 345.224C478.706 341.38 482.012 337.942 484.797 334.096C489.386 327.76 495.457 315.634 505.24 319.776C505.547 319.907 505.833 319.697 505.779 319.361C504.385 310.7 493.054 312.64 487.282 315.02C482.899 316.827 479.817 320.042 477.696 324.274C476.227 327.202 475.491 330.401 474.453 333.489C473.193 337.242 471.535 340.852 469.776 344.393C470 344.487 470.223 344.582 470.447 344.676C471.396 340.158 472.62 335.698 473.314 331.129C473.979 326.749 473.766 322.545 472.982 318.205C472.138 313.535 471.179 308.8 469.537 304.335C468.825 302.399 468.159 300.503 467.726 298.482C467.326 296.613 467.158 294.777 466.27 293.053C466.141 292.803 465.769 292.825 465.636 293.053C462.286 298.759 461.803 306.177 461.407 312.645C460.901 320.909 462.035 329.408 464.77 337.223C464.994 337.129 465.217 337.034 465.441 336.94C463.23 333.925 462.015 329.988 460.516 326.572C458.786 322.63 456.89 318.701 454.284 315.258C451.931 312.148 449.05 309.235 445.958 306.853C444.19 305.491 442.24 304.376 440.555 302.906C439.204 301.728 438.001 300.537 436.328 299.822C436.066 299.71 435.797 299.839 435.776 300.139C435.436 304.871 435.622 309.384 437.683 313.72C439.802 318.176 442.598 322.461 445.284 326.594C446.427 328.355 447.724 329.99 449.235 331.449C450.89 333.046 452.858 334.303 454.574 335.839C457.91 338.826 460.296 342.495 462.01 346.608C462.191 347.039 462.902 346.85 462.72 346.413Z" fill="url(#paint13_linear_3551_1155)"/>
<path d="M457.712 346.878C453.551 340.149 450.232 331.021 442.257 327.942C438.013 326.304 432.883 327.235 428.899 329.125C424.402 331.26 420.828 335.056 417.664 338.798C417.438 339.064 417.645 339.522 418.021 339.412C424.832 337.405 433.382 336.99 439.694 340.756C442.709 342.553 445.068 345.607 447.447 348.139C449.019 349.813 450.172 352.628 452.605 353.213C453.066 353.323 453.261 352.615 452.8 352.504C451.17 352.112 450.065 350.331 449.122 349.079C448.225 347.888 447.208 346.845 446.193 345.756C443.763 343.148 441.38 340.53 438.043 339.105C431.768 336.43 424.253 336.81 417.826 338.703C417.945 338.908 418.064 339.113 418.183 339.317C423.98 332.462 432.394 325.33 442.061 328.651C446.023 330.011 448.865 333.65 451.088 337.009C453.274 340.309 454.997 343.885 457.077 347.249C457.325 347.651 457.961 347.282 457.712 346.878Z" fill="url(#paint14_linear_3551_1155)"/>
<path d="M446.586 314.954C449.561 321.195 454.839 325.805 458.637 331.494C460.523 334.32 462.165 337.48 463.587 340.562C465.338 344.353 464.782 348.258 464.753 352.307C464.749 352.782 465.484 352.781 465.488 352.307C465.513 348.885 466.098 345.264 464.954 341.977C463.755 338.53 461.741 335.238 459.891 332.107C456.202 325.863 450.371 321.194 447.22 314.584C447.017 314.156 446.384 314.529 446.586 314.954Z" fill="url(#paint15_linear_3551_1155)"/>
<path d="M436.512 333.855C441.955 336.739 447.272 339.75 451.045 344.737C452.384 346.507 453.691 348.301 455.053 350.054C455.453 350.569 456.562 352.488 457.397 352.4C457.863 352.351 457.868 351.616 457.397 351.665C456.783 351.729 454.797 348.526 454.499 348.131C453.264 346.5 452.068 344.84 450.81 343.226C447.254 338.67 441.891 335.874 436.882 333.22C436.464 332.999 436.093 333.633 436.512 333.855Z" fill="url(#paint16_linear_3551_1155)"/>
<path d="M466.961 313.663C467.022 316.9 467.901 320.01 468.28 323.21C468.733 327.046 468.365 331.019 467.802 334.82C466.764 341.817 467.246 348.919 465.318 355.797C465.559 355.83 465.799 355.863 466.039 355.895C466.039 355.619 466.039 355.343 466.039 355.066C466.039 354.593 465.305 354.593 465.305 355.066C465.305 355.343 465.305 355.619 465.305 355.895C465.305 356.312 465.914 356.393 466.026 355.993C467.891 349.341 467.731 342.385 468.448 335.566C468.837 331.874 469.3 328.283 469.121 324.554C468.944 320.881 467.764 317.349 467.695 313.664C467.688 313.19 466.953 313.189 466.961 313.663Z" fill="url(#paint17_linear_3551_1155)"/>
<path d="M490.886 318.315C485.267 321.87 481.185 328.015 477.98 333.718C474.895 339.206 472.183 345.97 466.044 348.677C465.611 348.868 465.985 349.5 466.414 349.311C471.878 346.903 474.756 341.241 477.44 336.245C480.848 329.902 485.046 322.879 491.257 318.949C491.656 318.697 491.287 318.062 490.886 318.315Z" fill="url(#paint18_linear_3551_1155)"/>
</g>
<path d="M337.883 197.633C337.883 201.542 334.715 204.712 330.805 204.712C326.896 204.712 323.727 201.542 323.727 197.633V192.721C323.727 188.812 326.896 185.643 330.805 185.643C334.715 185.643 337.883 188.812 337.883 192.721V197.633Z" fill="url(#paint19_linear_3551_1155)"/>
<path d="M410.006 274.917C408.055 265.381 399.605 239.598 379.021 230.28C358.434 220.962 339.149 228.546 332 232.878C324.849 237.211 316.616 254.114 312.932 269.932C309.248 285.75 296.68 285.534 286.93 289.001L291.48 305.469L392.021 306.119C392.021 306.119 392.021 306.119 392.238 303.519C418.457 302.002 411.958 284.45 410.006 274.917ZM307.19 300.161C311.199 300.161 329.075 286.725 332.759 287.158C334.6 297.018 334.818 302.218 335.034 302.869C335.251 303.519 308.273 308.285 307.19 300.161Z" fill="url(#paint20_linear_3551_1155)"/>
<path d="M342.906 237.432C341.606 243.642 336.261 281.635 345.363 306.627C352.44 307.203 362.985 306.627 362.985 306.627C360.964 293.48 356.918 257.076 365.296 236.275C356.918 236.419 342.906 237.432 342.906 237.432Z" fill="#667EB4"/>
<path d="M347.529 226.162C340.379 226.598 338.717 234.325 341.968 239.092C345.218 243.859 351.356 239.957 352.44 237.576C360.17 244.87 370.21 238.298 372.375 227.463C372.375 226.598 360.098 224.213 347.529 226.162Z" fill="#667EB4"/>
<path d="M367.896 186.998C367.571 179.788 360.168 166.029 342.617 166.806C330.122 167.768 328.605 179.604 328.605 179.604C328.171 180.933 325.932 183.744 325.932 183.744C325.283 178.198 328.789 163.502 344.567 163.108C362.335 162.664 370.82 176.57 371.147 186.555C369.738 188.884 367.896 186.998 367.896 186.998Z" fill="url(#paint21_linear_3551_1155)"/>
<path d="M333.041 173.356C327.04 177.467 323.445 184.309 326.487 191.113C329.528 197.92 330.391 200.918 327.441 206.242C323.291 213.731 321.542 220.723 324.664 227.081C343.486 224.482 351.769 222.365 351.769 222.365C351.769 222.365 344.491 172.562 333.041 173.356Z" fill="#31241C"/>
<path d="M360.98 207.625C360.98 207.625 365.635 221.651 366.076 227.578C366.477 233.012 348.495 236.638 347.219 230.941C345.89 224.163 343.914 212.641 343.914 212.641" fill="#C97440"/>
<path d="M362.474 213.482L360.98 207.625L343.914 212.641C343.914 212.641 344.522 216.181 345.301 220.618C346.568 220.859 347.878 220.975 349.226 220.914C354.782 220.669 359.578 217.757 362.474 213.482Z" fill="#AB5D2D"/>
<path d="M331.145 200.81C331.561 210.151 339.472 217.383 348.809 216.966C358.148 216.549 365.382 208.64 364.965 199.298L364.166 181.415C363.749 172.075 355.837 164.841 346.5 165.261C337.16 165.677 329.927 173.586 330.345 182.926L331.145 200.81Z" fill="#C97440"/>
<path d="M353.489 182.294C351.353 181.147 348.546 180.614 346.313 181.766C345.477 182.197 346.214 183.455 347.049 183.025C348.789 182.127 351.105 182.667 352.752 183.552C353.58 183.997 354.316 182.738 353.489 182.294Z" fill="#31241C"/>
<path d="M333.076 184.654C334.086 183.698 335.531 183.349 336.877 183.626C337.794 183.814 338.184 182.409 337.264 182.22C335.395 181.837 333.446 182.296 332.045 183.623C331.361 184.271 332.394 185.3 333.076 184.654Z" fill="#31241C"/>
<path d="M343.161 197.697C343.031 197.697 342.901 197.651 342.796 197.56L339.499 194.655C339.365 194.537 339.297 194.362 339.315 194.184C339.334 194.006 339.438 193.849 339.593 193.761L342.915 191.892C343.182 191.742 343.517 191.837 343.666 192.102C343.815 192.367 343.721 192.703 343.457 192.852L340.81 194.34L343.525 196.732C343.753 196.933 343.776 197.281 343.574 197.51C343.466 197.634 343.314 197.697 343.161 197.697Z" fill="#31241C"/>
<path d="M344.378 202.372C343.49 202.372 342.616 202.137 341.936 201.672C341.684 201.5 341.62 201.158 341.792 200.907C341.962 200.656 342.305 200.592 342.557 200.762C343.492 201.402 345.066 201.433 346.139 200.835C346.786 200.474 347.542 199.732 347.474 198.242C347.459 197.938 347.695 197.68 347.999 197.667C348.297 197.65 348.56 197.888 348.574 198.192C348.648 199.794 347.973 201.074 346.676 201.798C345.987 202.182 345.177 202.372 344.378 202.372Z" fill="#31241C"/>
<path d="M346.86 191.598C347.261 192.661 348.449 193.198 349.512 192.795C350.572 192.395 351.112 191.208 350.708 190.145C350.306 189.081 349.12 188.544 348.057 188.945C346.993 189.347 346.459 190.535 346.86 191.598Z" fill="#1A191F"/>
<path d="M334.563 192.334C334.965 193.395 336.152 193.936 337.215 193.533C338.276 193.133 338.816 191.943 338.414 190.88C338.011 189.817 336.825 189.283 335.762 189.685C334.699 190.085 334.162 191.271 334.563 192.334Z" fill="#1A191F"/>
<path d="M335.092 191.849C335.006 191.849 334.919 191.826 334.84 191.778L332.832 190.548C332.605 190.408 332.533 190.11 332.673 189.882C332.813 189.654 333.112 189.584 333.339 189.723L335.345 190.953C335.573 191.092 335.645 191.39 335.505 191.618C335.414 191.767 335.255 191.849 335.092 191.849Z" fill="#1A191F"/>
<path d="M349.672 191.126C349.518 191.126 349.368 191.053 349.274 190.917C349.122 190.698 349.176 190.396 349.396 190.244L351.494 188.79C351.714 188.637 352.015 188.693 352.167 188.912C352.319 189.132 352.265 189.433 352.045 189.586L349.947 191.04C349.863 191.098 349.767 191.126 349.672 191.126Z" fill="#1A191F"/>
<path d="M381.061 200.917C378.254 194.868 381.719 191.113 380.225 185.35C378.915 180.309 372.916 180.466 369.821 173.325C365.079 162.377 340.683 152.52 331.586 174.737C341.699 167.881 352.064 171.444 355.998 176.514C363.932 186.736 355.791 191.067 358.853 197.146C361.084 201.575 362.547 204.559 359.663 211.262C356.78 217.965 360.817 224.34 360.817 224.34C370.258 223.294 380.932 222.366 390.629 220.723C390.63 204.364 383.866 206.967 381.061 200.917Z" fill="#31241C"/>
<path d="M338.139 284.667C329.907 285.389 326.729 287.846 319.36 291.747C311.993 295.647 310.405 296.514 312.137 297.236C307.804 297.525 310.331 299.835 313.365 298.823C311.344 299.691 314.16 300.631 318.204 299.114C319.215 300.703 324.417 299.983 327.739 298.103C331.061 296.225 339.007 294.635 346.229 297.092C347.097 292.614 344.352 284.813 344.352 284.813L338.139 284.667Z" fill="#C97440"/>
<path d="M343.375 284.776C347.817 283.801 360.241 282.788 367.609 283.223C368.042 289.001 364.864 300.702 364.864 300.702L345.217 296.367C345.217 296.367 346.194 290.192 343.375 284.776Z" fill="url(#paint22_linear_3551_1155)"/>
<path d="M343.001 284.878C351.773 283.61 360.644 283.635 369.485 283.386C373.744 283.266 377.829 282.771 382.049 282.289C386.06 281.83 390.811 282.701 394.667 283.867C395.122 284.005 395.314 283.296 394.862 283.158C391.302 282.081 387.133 281.373 383.406 281.454C381.558 281.494 379.707 281.872 377.884 282.144C375.349 282.522 372.765 282.546 370.208 282.629C361.057 282.925 351.889 282.857 342.806 284.169C342.338 284.237 342.537 284.945 343.001 284.878Z" fill="#1F0E03"/>
<path d="M382.137 262.373C382.973 268.475 383.408 274.609 383.425 280.767C383.426 281.241 384.161 281.241 384.159 280.767C384.143 274.541 383.69 268.346 382.846 262.178C382.781 261.71 382.074 261.911 382.137 262.373Z" fill="#1F0E03"/>
<path d="M344.636 296.734C347.292 296.702 349.753 297.88 352.273 298.563C355.267 299.375 358.199 300.393 361.191 301.213C367.239 302.872 373.528 303.924 379.789 304.287C389.751 304.863 401.804 304.374 409.325 296.916C409.662 296.583 409.142 296.063 408.806 296.397C400.944 304.192 388.022 304.201 377.705 303.413C371.535 302.941 365.348 301.683 359.413 299.947C356.747 299.167 354.087 298.352 351.425 297.557C349.184 296.888 347.014 295.971 344.637 295.999C344.163 296.005 344.162 296.74 344.636 296.734Z" fill="#1F0E03"/>
<path d="M329.981 254.813C329.325 256.784 329.521 258.904 329.549 260.951C329.589 263.769 329.796 266.581 329.943 269.393C330.088 272.171 330.172 274.951 330.395 277.724C330.601 280.284 331.569 282.71 331.702 285.246C331.727 285.717 332.462 285.72 332.437 285.246C332.315 282.927 331.426 280.733 331.192 278.415C330.936 275.879 330.856 273.323 330.743 270.777C330.629 268.209 330.454 265.645 330.347 263.077C330.241 260.507 329.868 257.478 330.69 255.008C330.84 254.557 330.13 254.366 329.981 254.813Z" fill="#1F0E03"/>
<path d="M341.11 229.676C339.958 233.742 339.146 238.933 343.706 241.219C345.35 242.043 347.224 241.635 348.81 240.916C349.925 240.411 350.896 239.558 351.818 238.768C352.749 237.969 353.158 239.18 353.981 239.769C360.682 244.561 369.502 237.926 371.721 231.315C371.872 230.865 371.162 230.673 371.012 231.12C368.644 238.174 358.526 244.653 352.701 237.459C352.571 237.297 352.319 237.336 352.182 237.459C349.766 239.631 346.626 242.202 343.331 240.168C339.739 237.95 340.888 233.148 341.818 229.87C341.948 229.414 341.24 229.221 341.11 229.676Z" fill="#1F0E03"/>
<path d="M317.867 299.758C320.182 299.346 322.038 297.898 323.987 296.677C326.672 294.992 329.689 294.024 332.602 292.823C333.033 292.645 332.845 291.933 332.406 292.114C330.001 293.107 327.539 293.944 325.215 295.124C322.689 296.406 320.534 298.541 317.672 299.05C317.206 299.132 317.405 299.839 317.867 299.758Z" fill="#1F0E03"/>
<path d="M312.611 299.72C318.462 297.25 323.851 293.778 329.857 291.667C330.3 291.51 330.109 290.801 329.661 290.958C323.594 293.091 318.149 296.59 312.24 299.086C311.805 299.27 312.18 299.903 312.611 299.72Z" fill="#1F0E03"/>
<path d="M311.312 297.987C313.622 296.584 316.259 295.932 318.633 294.67C320.986 293.421 323.324 292.141 325.758 291.053C326.19 290.859 325.816 290.227 325.387 290.419C322.953 291.506 320.613 292.784 318.263 294.036C315.888 295.302 313.254 295.949 310.941 297.353C310.536 297.597 310.905 298.233 311.312 297.987Z" fill="#1F0E03"/>
<path d="M349.414 243.704C349.661 245.008 351.506 244.963 352.103 243.955C352.434 243.395 352.074 242.735 351.563 242.444C350.936 242.088 349.99 242.149 349.561 242.77C349.291 243.161 349.928 243.527 350.195 243.14C350.518 242.672 351.869 243.161 351.395 243.686C351.034 244.085 350.237 244.116 350.123 243.508C350.034 243.043 349.326 243.241 349.414 243.704Z" fill="#1F0E03"/>
<path d="M348.438 249.14C348.25 250.44 349.757 250.806 350.631 250.082C351.077 249.713 351.31 249.002 350.934 248.5C350.543 247.978 349.785 248.063 349.236 248.236C348.786 248.378 348.978 249.087 349.431 248.945C349.705 248.858 350.063 248.755 350.33 248.913C350.557 249.048 350.253 249.457 350.131 249.547C349.862 249.743 349.067 249.888 349.147 249.336C349.214 248.872 348.505 248.672 348.438 249.14Z" fill="#1F0E03"/>
<path d="M347.993 256.172C348.057 257.646 350.231 257.058 350.449 255.944C350.715 254.585 348.346 253.841 348.114 255.316C348.041 255.78 348.749 255.978 348.823 255.511C348.912 254.944 349.723 255.333 349.732 255.774C349.74 256.121 348.746 256.593 348.727 256.173C348.707 255.7 347.972 255.699 347.993 256.172Z" fill="#1F0E03"/>
<path d="M333.691 296.367C333.581 297.45 333.735 298.702 334.137 299.716C334.31 300.151 335.021 299.961 334.846 299.521C334.462 298.555 334.32 297.4 334.425 296.367C334.474 295.896 333.738 295.901 333.691 296.367Z" fill="#1F0E03"/>
<path d="M342.866 284.984C344.236 285.948 344.346 287.858 344.733 289.346C345.246 291.314 345.628 293.756 344.756 295.678C344.562 296.106 345.196 296.48 345.39 296.049C346.374 293.88 345.963 291.395 345.441 289.15C345.035 287.41 344.795 285.446 343.235 284.35C342.848 284.077 342.482 284.715 342.866 284.984Z" fill="#1F0E03"/>
<path d="M325.144 201.869C323.99 210.438 336.648 210.466 342.113 210.206C342.584 210.184 342.586 209.449 342.113 209.471C337.289 209.701 324.792 209.932 325.853 202.065C325.915 201.602 325.207 201.402 325.144 201.869Z" fill="#1F0E03"/>
<path d="M346.378 209.731C346.378 210.947 345.165 211.934 343.668 211.934C342.173 211.934 340.961 210.947 340.961 209.731C340.961 208.514 342.172 207.526 343.668 207.526C345.165 207.527 346.378 208.514 346.378 209.731Z" fill="url(#paint23_linear_3551_1155)"/>
<path d="M344.57 163.108C335.569 163.334 330.567 168.21 328.047 173.388C328.905 173.483 329.833 173.735 330.605 174.1C332.47 170.869 336.008 167.316 342.619 166.806C360.171 166.029 367.574 179.788 367.899 186.998C367.899 186.998 369.74 188.884 371.15 186.555C370.822 176.57 362.337 162.664 344.57 163.108Z" fill="url(#paint24_linear_3551_1155)"/>
<path d="M376.853 197.633C376.853 201.542 373.683 204.712 369.775 204.712C365.863 204.712 362.695 201.542 362.695 197.633V192.721C362.695 188.812 365.863 185.643 369.775 185.643C373.683 185.643 376.853 188.812 376.853 192.721V197.633Z" fill="url(#paint25_linear_3551_1155)"/>
<path d="M375.19 196.877C374.932 201.655 368.52 202.749 366.76 198.263C366.234 196.925 366.533 195.028 366.533 193.619C366.533 188.729 373.257 187.885 374.963 192.233C375.489 193.571 375.19 195.468 375.19 196.877C375.19 197.351 375.924 197.351 375.924 196.877C375.924 193.929 376.213 191.085 373.417 189.249C370.03 187.024 365.993 190.01 365.8 193.619C365.643 196.519 365.619 199.483 368.306 201.248C371.694 203.473 375.73 200.486 375.924 196.877C375.95 196.403 375.214 196.406 375.19 196.877Z" fill="#1F0E03"/>
<path d="M292.35 299.691C296.395 299.691 346.232 299.691 348.833 299.691C351.434 299.691 352.011 304.892 347.678 304.892C343.345 304.892 218.101 304.892 218.101 304.892C214.2 297.091 196.721 249.42 194.988 244.942C193.254 240.464 194.844 235.263 201.922 235.263C209 235.263 246.413 235.263 251.614 235.263C256.814 235.263 262.593 236.128 266.204 244.074C269.816 252.02 292.35 299.691 292.35 299.691Z" fill="url(#paint26_linear_3551_1155)"/>
<path d="M349.013 304.685C349.183 304.626 349.336 304.553 349.48 304.477C349.495 304.47 349.508 304.465 349.52 304.458C351.738 303.215 350.977 299.692 348.834 299.692C348.411 299.692 346.735 299.692 344.211 299.692C331.23 299.692 295.739 299.692 292.352 299.692C292.352 299.692 292.334 299.653 292.308 299.596C292.282 299.543 292.247 299.469 292.198 299.366C291.998 298.942 291.606 298.112 291.052 296.94C286.205 286.683 269.292 250.866 266.206 244.075C262.595 236.129 256.816 235.264 251.616 235.264C250.796 235.264 249.171 235.264 246.992 235.264C252.193 235.264 257.971 236.129 261.583 244.075C265.194 252.021 287.729 299.692 287.729 299.692L289.68 304.752C289.68 304.752 292.114 304.81 296.002 304.893C316.234 304.893 334.686 304.893 343.056 304.893C345.617 304.893 347.25 304.893 347.679 304.893C347.939 304.893 348.178 304.871 348.403 304.836C348.546 304.814 348.675 304.774 348.804 304.738C348.872 304.719 348.948 304.707 349.013 304.685Z" fill="#002882"/>
<path d="M349.013 304.685C349.183 304.626 349.336 304.553 349.48 304.477C349.495 304.47 349.508 304.465 349.52 304.458C351.738 303.215 350.977 299.692 348.834 299.692C348.411 299.692 346.735 299.692 344.211 299.692C331.23 299.692 295.739 299.692 292.352 299.692C292.352 299.692 292.334 299.653 292.308 299.596C292.282 299.543 292.247 299.469 292.198 299.366C291.998 298.942 291.606 298.112 291.052 296.94C286.205 286.683 269.292 250.866 266.206 244.075C262.595 236.129 256.816 235.264 251.616 235.264C250.796 235.264 249.171 235.264 246.992 235.264C252.193 235.264 257.971 236.129 261.583 244.075C265.194 252.021 287.729 299.692 287.729 299.692L289.68 304.752C289.68 304.752 292.114 304.81 296.002 304.893C316.234 304.893 334.686 304.893 343.056 304.893C345.617 304.893 347.25 304.893 347.679 304.893C347.939 304.893 348.178 304.871 348.403 304.836C348.546 304.814 348.675 304.774 348.804 304.738C348.872 304.719 348.948 304.707 349.013 304.685Z" fill="black" fill-opacity="0.2"/>
<path d="M245.405 270.801C246.831 274.328 245.141 277.186 241.631 277.186C238.121 277.186 234.118 274.328 232.693 270.801C231.268 267.273 232.957 264.414 236.468 264.414C239.978 264.414 243.98 267.274 245.405 270.801Z" stroke="#1F0E03" stroke-width="0.734685" stroke-miterlimit="10"/>
<path d="M415.095 308.925H211.328V341.226C233.697 345.988 263.846 349.429 293.536 349.805C334.18 350.318 376.324 349.857 415.095 347.972V308.925Z" fill="#EEA500"/>
<path d="M423.555 308.119C423.555 310.046 421.991 311.61 420.063 311.61H206.365C204.438 311.61 202.875 310.046 202.875 308.119C202.875 306.192 204.438 304.628 206.365 304.628H420.063C421.991 304.628 423.555 306.192 423.555 308.119Z" fill="#002882"/>
<path d="M423.555 308.119C423.555 310.046 421.991 311.61 420.063 311.61H206.365C204.438 311.61 202.875 310.046 202.875 308.119C202.875 306.192 204.438 304.628 206.365 304.628H420.063C421.991 304.628 423.555 306.192 423.555 308.119Z" fill="black" fill-opacity="0.2"/>
<path d="M186.769 184.376C191.613 188.965 195.569 188.965 195.56 184.375C195.55 179.787 195.534 172.277 195.525 167.688C195.515 163.098 191.552 159.343 186.717 159.343C181.882 159.343 173.97 159.343 169.136 159.343C164.302 159.343 164.31 163.098 169.153 167.688C173.998 172.278 181.926 179.787 186.769 184.376Z" fill="url(#paint27_linear_3551_1155)"/>
<path d="M302.299 139.963C302.299 155.537 289.674 168.163 274.1 168.163H170.581C155.008 168.163 142.383 155.537 142.383 139.963V102.814C142.383 87.2415 155.008 74.6159 170.581 74.6159H274.1C289.674 74.6159 302.299 87.2415 302.299 102.814V139.963Z" fill="url(#paint28_linear_3551_1155)"/>
<path d="M224.132 91.2916V102.732H221.925V97.8498H216.736V102.732H214.513V91.2916H216.736V95.9162H221.925V91.2916H224.132ZM234.463 100.782V102.732H226.519V91.2916H234.318V93.2413H228.743V95.9967H233.561V97.8015H228.743V100.782H234.463ZM236.197 102.732V91.2916H238.42V100.782H244.253V102.732H236.197ZM245.607 102.732V91.2916H250.457C250.983 91.2916 251.467 91.399 251.907 91.6139C252.348 91.8287 252.729 92.1188 253.051 92.484C253.384 92.8492 253.642 93.2574 253.825 93.7086C254.007 94.1598 254.099 94.6217 254.099 95.0944C254.099 95.7389 253.948 96.3512 253.647 96.9313C253.347 97.5114 252.933 97.9841 252.407 98.3493C251.88 98.7145 251.257 98.8972 250.537 98.8972H247.83V102.732H245.607ZM247.83 96.9474H250.409C250.677 96.9474 250.919 96.8722 251.134 96.7218C251.348 96.5715 251.52 96.3566 251.649 96.0773C251.778 95.7873 251.843 95.4596 251.843 95.0944C251.843 94.6969 251.767 94.3585 251.617 94.0792C251.477 93.7999 251.289 93.5905 251.053 93.4508C250.827 93.3112 250.58 93.2413 250.312 93.2413H247.83V96.9474ZM255.856 98.4299V91.1788H258.015V98.4299H255.856ZM255.856 102.732V100.299H258.015V102.732H255.856Z" fill="#C97440"/>
<path d="M287.182 111.333H214.984V116.029H287.182V111.333Z" fill="#FFF2DB"/>
<path d="M277.33 122.738H214.984V127.432H277.33V122.738Z" fill="#FFF2DB"/>
<path d="M256.338 134.145H214.984V138.839H256.338V134.145Z" fill="#FFF2DB"/>
<path d="M281.869 145.548H214.984V150.244H281.869V145.548Z" fill="#FFF2DB"/>
<path d="M200.656 148.504C198.505 143.162 191.061 139.344 187.258 139.395H174.414C170.191 139.793 163.167 143.162 161.016 148.504C166.045 153.483 173.064 156.577 180.836 156.577C188.607 156.577 195.625 153.483 200.656 148.504Z" fill="#31241C"/>
<path d="M175.59 128.429C175.59 128.429 174.36 138.534 173.511 144.247C172.891 148.421 187.869 149.593 188.324 145.094C188.721 139.758 189.178 130.714 189.178 130.714" fill="#C97440"/>
<path d="M174.984 133.072L175.593 128.429L189.181 130.714C189.181 130.714 189.04 133.493 188.85 136.977C187.897 137.279 186.901 137.49 185.86 137.568C181.563 137.889 177.606 136.092 174.984 133.072Z" fill="#AB5D2D"/>
<path d="M197.91 120.437C198.45 127.66 193.033 133.95 185.812 134.492C178.591 135.03 172.298 129.614 171.759 122.391L170.725 108.563C170.184 101.343 175.602 95.0489 182.823 94.5119C190.045 93.9704 196.337 99.3872 196.877 106.608L197.91 120.437Z" fill="#C97440"/>
<path d="M180.053 110.009C181.892 109.62 183.368 108.8 184.471 107.261C185.02 106.495 183.754 105.768 183.212 106.525C182.336 107.748 181.106 108.298 179.665 108.604C178.746 108.799 179.136 110.203 180.053 110.009Z" fill="#31241C"/>
<path d="M194.89 107.143C193.86 106.949 193.228 106.461 192.723 105.547C192.269 104.724 191.01 105.459 191.465 106.283C192.135 107.497 193.127 108.29 194.502 108.549C195.422 108.721 195.813 107.316 194.89 107.143Z" fill="#31241C"/>
<path d="M188.33 119.278C188.199 119.278 188.068 119.232 187.963 119.138C187.736 118.935 187.717 118.587 187.92 118.36L189.671 116.4L187.661 115.566C187.379 115.45 187.246 115.127 187.362 114.846C187.478 114.565 187.801 114.431 188.082 114.548L190.81 115.68C190.975 115.748 191.097 115.892 191.136 116.066C191.176 116.24 191.129 116.422 191.01 116.556L188.741 119.094C188.632 119.216 188.481 119.278 188.33 119.278Z" fill="#31241C"/>
<path d="M185.02 124.852C184.848 124.852 184.677 124.771 184.57 124.619C184.394 124.37 184.453 124.026 184.701 123.851C186.872 122.317 188.819 121.7 190.495 122.017C190.794 122.074 190.99 122.362 190.934 122.661C190.876 122.96 190.589 123.154 190.289 123.1C188.922 122.84 187.254 123.395 185.338 124.751C185.241 124.819 185.13 124.852 185.02 124.852Z" fill="#31241C"/>
<path d="M184.969 114.802C184.759 115.655 183.895 116.178 183.039 115.968C182.187 115.757 181.663 114.893 181.876 114.038C182.086 113.182 182.948 112.66 183.803 112.872C184.657 113.082 185.18 113.947 184.969 114.802Z" fill="#1A191F"/>
<path d="M194.501 114.233C194.29 115.085 193.428 115.611 192.572 115.399C191.718 115.19 191.195 114.323 191.406 113.469C191.616 112.615 192.481 112.094 193.335 112.307C194.19 112.516 194.713 113.379 194.501 114.233Z" fill="#1A191F"/>
<path d="M174.268 118.92C174.889 121.475 173.322 124.051 170.765 124.67C168.209 125.292 165.635 123.724 165.014 121.168L164.659 119.707C164.038 117.151 165.606 114.578 168.162 113.956C170.717 113.335 173.292 114.904 173.913 117.459L174.268 118.92Z" fill="#C97440"/>
<path d="M167.09 114.432C165.971 111.244 160.515 98.2765 168.628 97.8841C169.132 92.7928 176.209 90.1075 185.049 88.3736C193.89 86.6405 199.401 90.7797 198.729 94.9197C198.058 99.0604 192.63 100.57 188.322 99.3396C187.092 103.815 181.161 102.306 179.874 101.41C178.881 105.746 173.956 106.795 174.517 109.816C175.077 112.838 175.328 115.914 175.44 116.53C175.551 117.147 172.978 118.35 172.418 117.117C171.859 115.888 169.649 113.678 167.09 114.432Z" fill="#31241C"/>
<path d="M191.523 185.241C196.888 186.306 193.814 168.105 193.778 165.361C193.656 165.483 193.533 165.605 193.411 165.728C204.956 165.831 216.505 165.861 228.051 165.759C236.305 165.687 244.551 165.476 252.806 165.477C257.882 165.477 262.931 165.289 268.001 165.094C273.437 164.884 278.856 164.902 284.152 163.494C294.284 160.803 297.973 150.089 299.019 140.688C299.072 140.217 298.336 140.223 298.285 140.688C297.507 147.666 295.392 155.312 289.779 159.961C285.551 163.462 279.32 163.907 274.073 164.161C268.847 164.415 263.6 164.636 258.369 164.711C241.822 164.948 225.262 165.11 208.713 165.073C203.613 165.061 198.511 165.038 193.411 164.993C193.212 164.992 193.041 165.161 193.043 165.361C193.073 167.675 195.466 185.276 191.718 184.533C191.256 184.441 191.058 185.149 191.523 185.241Z" fill="#1F0E03"/>
<path d="M298.678 109.242C298.684 118.368 299.076 127.545 298.454 136.657C298.422 137.13 299.157 137.127 299.189 136.657C299.811 127.544 299.42 118.368 299.413 109.242C299.412 108.768 298.677 108.768 298.678 109.242Z" fill="#1F0E03"/>
<path d="M583.926 228.457C583.926 244.603 570.837 257.691 554.691 257.691H447.368C431.222 257.691 418.133 244.603 418.133 228.457V189.942C418.133 173.796 431.222 160.707 447.368 160.707H554.691C570.837 160.707 583.926 173.796 583.926 189.942V228.457Z" fill="url(#paint29_linear_3551_1155)"/>
<path d="M451.231 274.501C446.209 279.258 442.107 279.258 442.117 274.5C442.128 269.744 442.144 261.958 442.154 257.201C442.164 252.442 446.273 248.55 451.285 248.55C456.297 248.55 464.499 248.55 469.512 248.55C474.524 248.55 474.516 252.442 469.494 257.201C464.471 261.958 456.253 269.744 451.231 274.501Z" fill="url(#paint30_linear_3551_1155)"/>
<path d="M449.677 182.505H445.885V192.345H443.596V182.505H439.804V180.484H449.677V182.505ZM461.123 180.484V192.345H458.834V187.283H453.455V192.345H451.15V180.484H453.455V185.278H458.834V180.484H461.123ZM466.822 180.484H469.16L473.52 192.345H471.148L470.046 189.388H465.903L464.817 192.345H462.445L466.822 180.484ZM469.628 187.767L467.991 182.873L466.287 187.767H469.628ZM477.127 184.727V192.345H474.821V180.484H476.659L482.79 188.302V180.5H485.095V192.345H483.174L477.127 184.727ZM487.563 192.345V180.5H489.868V186.13L494.846 180.484H497.386L492.842 185.746L497.67 192.345H495.064L491.372 187.233L489.868 188.803V192.345H487.563ZM505.804 183.591C505.726 183.513 505.582 183.407 505.37 183.274C505.17 183.14 504.919 183.012 504.618 182.889C504.329 182.767 504.011 182.661 503.666 182.572C503.321 182.472 502.97 182.422 502.614 182.422C501.99 182.422 501.517 182.539 501.194 182.772C500.882 183.006 500.726 183.335 500.726 183.758C500.726 184.081 500.826 184.337 501.027 184.526C501.227 184.716 501.528 184.877 501.929 185.011C502.33 185.145 502.831 185.289 503.432 185.445C504.212 185.635 504.886 185.869 505.454 186.147C506.033 186.414 506.473 186.771 506.773 187.216C507.085 187.65 507.241 188.23 507.241 188.953C507.241 189.588 507.124 190.134 506.89 190.591C506.656 191.036 506.333 191.398 505.921 191.677C505.509 191.955 505.041 192.161 504.518 192.295C503.995 192.417 503.438 192.478 502.847 192.478C502.257 192.478 501.667 192.417 501.077 192.295C500.486 192.172 499.918 191.999 499.373 191.777C498.827 191.543 498.326 191.264 497.869 190.941L498.888 188.953C498.988 189.054 499.167 189.187 499.423 189.354C499.679 189.51 499.991 189.672 500.358 189.839C500.726 189.995 501.127 190.128 501.561 190.24C501.995 190.351 502.435 190.407 502.881 190.407C503.505 190.407 503.978 190.301 504.301 190.089C504.624 189.878 504.785 189.577 504.785 189.187C504.785 188.831 504.657 188.553 504.401 188.352C504.145 188.152 503.789 187.979 503.332 187.834C502.875 187.678 502.335 187.511 501.712 187.333C500.965 187.121 500.342 186.888 499.84 186.631C499.339 186.364 498.966 186.03 498.721 185.629C498.476 185.228 498.354 184.727 498.354 184.126C498.354 183.313 498.543 182.633 498.922 182.087C499.311 181.531 499.835 181.113 500.492 180.835C501.149 180.545 501.879 180.4 502.68 180.4C503.237 180.4 503.761 180.461 504.251 180.584C504.752 180.706 505.22 180.868 505.654 181.068C506.088 181.269 506.478 181.486 506.823 181.72L505.804 183.591ZM509.2 187.884V180.367H511.439V187.884H509.2ZM509.2 192.345V189.822H511.439V192.345H509.2Z" fill="#C97440"/>
<path d="M512.445 200.814H437.594V205.68H512.445V200.814Z" fill="#FFF2DB"/>
<path d="M502.231 212.637H437.594V217.506H502.231V212.637Z" fill="#FFF2DB"/>
<path d="M480.466 224.462H437.594V229.329H480.466V224.462Z" fill="#FFF2DB"/>
<path d="M529.625 239.118C531.856 233.58 539.572 229.621 543.515 229.673H556.831C561.208 230.086 568.492 233.58 570.721 239.118C565.506 244.28 558.231 247.487 550.173 247.487C542.117 247.487 534.84 244.28 529.625 239.118Z" fill="#31241C"/>
<path d="M555.61 218.305C555.61 218.305 556.885 228.781 557.767 234.705C558.409 239.031 542.88 240.247 542.41 235.582C541.996 230.051 541.523 220.675 541.523 220.675" fill="#C97440"/>
<path d="M556.241 223.119L555.611 218.305L541.523 220.676C541.523 220.676 541.67 223.557 541.867 227.17C542.856 227.483 543.888 227.7 544.968 227.781C549.421 228.114 553.524 226.25 556.241 223.119Z" fill="#AB5D2D"/>
<path d="M532.476 210.021C531.917 217.508 537.533 224.03 545.018 224.592C552.504 225.151 559.029 219.535 559.587 212.048L560.661 197.71C561.221 190.223 555.603 183.7 548.119 183.142C540.631 182.582 534.107 188.197 533.549 195.683L532.476 210.021Z" fill="#C97440"/>
<path d="M551.09 197.881C550.351 196.46 548.714 195.477 547.094 195.664C546.172 195.771 546.161 197.23 547.094 197.122C548.243 196.988 549.303 197.601 549.831 198.616C550.265 199.451 551.522 198.713 551.09 197.881Z" fill="#31241C"/>
<path d="M536.323 197.479C536.96 196.812 538.129 196.352 539.042 196.573C539.955 196.794 540.343 195.388 539.429 195.167C538.016 194.826 536.292 195.4 535.292 196.449C534.644 197.128 535.673 198.161 536.323 197.479Z" fill="#31241C"/>
<path d="M542.405 208.799C542.253 208.799 542.103 208.737 541.993 208.615L539.64 205.983C539.522 205.849 539.474 205.667 539.514 205.493C539.553 205.319 539.675 205.175 539.84 205.107L542.668 203.934C542.949 203.818 543.272 203.95 543.388 204.232C543.505 204.513 543.372 204.835 543.09 204.952L540.979 205.828L542.815 207.881C543.017 208.108 542.998 208.456 542.771 208.66C542.667 208.753 542.535 208.799 542.405 208.799Z" fill="#31241C"/>
<path d="M542.196 216.346C540.685 216.346 539.664 214.747 539.071 211.456C539.04 211.282 539.094 211.103 539.218 210.976C539.342 210.848 539.521 210.79 539.694 210.813C540.623 210.95 541.801 211.091 543.505 211.091C544.382 211.091 545.336 211.055 546.42 210.981C546.62 210.965 546.819 211.067 546.927 211.242C547.034 211.416 547.035 211.635 546.932 211.811C545.132 214.862 543.582 216.346 542.196 216.346ZM540.306 212.007C540.766 214.075 541.442 215.243 542.195 215.243C542.68 215.243 543.715 214.817 545.434 212.142C543.448 212.24 541.934 212.204 540.306 212.007Z" fill="#31241C"/>
<path d="M545.892 204.177C546.111 205.064 547.007 205.604 547.893 205.385C548.777 205.166 549.32 204.27 549.101 203.384C548.883 202.499 547.988 201.957 547.101 202.175C546.214 202.395 545.675 203.292 545.892 204.177Z" fill="#1A191F"/>
<path d="M536.01 203.589C536.228 204.472 537.124 205.016 538.01 204.798C538.894 204.579 539.438 203.682 539.219 202.796C539 201.911 538.104 201.372 537.22 201.589C536.334 201.808 535.79 202.702 536.01 203.589Z" fill="#1A191F"/>
<path d="M556.984 208.448C556.341 211.096 557.966 213.765 560.615 214.41C563.265 215.053 565.935 213.429 566.577 210.778L566.945 209.264C567.59 206.615 565.965 203.945 563.315 203.301C560.665 202.658 557.995 204.285 557.352 206.933L556.984 208.448Z" fill="#C97440"/>
<path d="M564.431 203.796C565.59 200.489 571.245 187.043 562.835 186.638C562.312 181.359 554.976 178.575 545.811 176.777C536.647 174.98 530.932 179.272 531.627 183.565C532.324 187.857 537.951 189.421 542.416 188.146C543.692 192.786 549.84 191.22 551.176 190.293C552.205 194.788 557.31 195.876 556.731 199.008C556.15 202.14 555.889 205.33 555.772 205.969C555.658 206.609 558.324 207.853 558.907 206.577C559.484 205.302 561.777 203.012 564.431 203.796Z" fill="#31241C"/>
<path d="M554.347 255.525C565.138 255.097 576.704 248.231 579.002 237.078C579.098 236.616 578.389 236.419 578.293 236.883C576.062 247.714 564.829 254.375 554.347 254.79C553.875 254.808 553.873 255.543 554.347 255.525Z" fill="#1F0E03"/>
<path d="M545.418 255.583C547.387 255.654 549.356 255.692 551.325 255.736C551.8 255.747 551.798 255.013 551.325 255.002C549.356 254.958 547.387 254.919 545.418 254.849C544.943 254.831 544.945 255.567 545.418 255.583Z" fill="#1F0E03"/>
<path d="M451.067 271.811C454.767 268.483 458.481 265.171 461.958 261.607C463.566 259.959 465.002 257.807 466.945 256.502C468.095 255.729 469.522 255.605 470.867 255.528C473.514 255.375 476.178 255.444 478.828 255.408C483.634 255.342 488.433 255.085 493.241 255.094C498.391 255.104 503.538 255.337 508.682 255.571C518.701 256.028 528.745 256.502 538.744 255.471C539.211 255.423 539.216 254.688 538.744 254.736C528.513 255.791 518.237 255.272 507.988 254.805C502.6 254.559 497.211 254.35 491.816 254.36C487.003 254.368 482.194 254.638 477.381 254.69C474.099 254.726 469.53 254 466.574 255.867C464.743 257.025 463.369 259.059 461.913 260.594C458.332 264.371 454.414 267.815 450.547 271.293C450.194 271.608 450.716 272.126 451.067 271.811Z" fill="#1F0E03"/>
<path d="M523.378 123.176C523.378 131.627 516.526 138.479 508.075 138.479H365.592C357.141 138.479 350.289 131.627 350.289 123.176V108.932C350.289 100.481 357.141 93.6281 365.592 93.6281H508.075C516.526 93.6281 523.378 100.481 523.378 108.932V123.176Z" fill="url(#paint31_linear_3551_1155)"/>
<path d="M374.099 104.338C374.634 103.252 375.513 103.252 376.049 104.338L377.762 107.81C378.298 108.896 379.718 109.929 380.918 110.103L384.75 110.66C385.949 110.834 386.22 111.67 385.352 112.515L382.582 115.216C381.713 116.062 381.171 117.732 381.375 118.927L382.031 122.741C382.235 123.936 381.524 124.453 380.452 123.889L377.025 122.087C375.952 121.523 374.196 121.523 373.123 122.088L369.697 123.888C368.625 124.453 367.914 123.936 368.12 122.741L368.775 118.927C368.98 117.732 368.437 116.062 367.569 115.216L364.798 112.515C363.929 111.67 364.2 110.834 365.4 110.66L369.23 110.102C370.43 109.928 371.851 108.895 372.386 107.808L374.099 104.338Z" fill="url(#paint32_linear_3551_1155)"/>
<path d="M404.71 104.338C405.246 103.252 406.124 103.252 406.66 104.338L408.371 107.81C408.908 108.896 410.328 109.929 411.528 110.103L415.358 110.66C416.558 110.834 416.829 111.67 415.961 112.515L413.19 115.216C412.322 116.062 411.78 117.732 411.985 118.927L412.639 122.741C412.844 123.936 412.134 124.453 411.062 123.888L407.636 122.088C406.563 121.523 404.807 121.523 403.734 122.087L400.306 123.889C399.233 124.453 398.523 123.936 398.729 122.741L399.383 118.927C399.588 117.732 399.046 116.062 398.178 115.216L395.407 112.515C394.539 111.67 394.81 110.834 396.01 110.66L399.84 110.102C401.04 109.928 402.46 108.895 402.997 107.808L404.71 104.338Z" fill="url(#paint33_linear_3551_1155)"/>
<path d="M435.325 104.338C435.862 103.252 436.74 103.252 437.276 104.338L438.989 107.81C439.524 108.896 440.945 109.929 442.145 110.103L445.975 110.66C447.175 110.834 447.446 111.67 446.578 112.515L443.807 115.216C442.939 116.062 442.397 117.732 442.601 118.927L443.256 122.741C443.461 123.936 442.751 124.453 441.678 123.888L438.252 122.088C437.179 121.523 435.422 121.523 434.35 122.088L430.925 123.888C429.852 124.453 429.142 123.936 429.347 122.741L430 118.927C430.205 117.732 429.662 116.062 428.794 115.216L426.024 112.515C425.156 111.67 425.427 110.834 426.627 110.66L430.454 110.103C431.654 109.928 433.074 108.895 433.611 107.808L435.325 104.338Z" fill="url(#paint34_linear_3551_1155)"/>
<path d="M465.936 104.338C466.473 103.252 467.351 103.252 467.887 104.338L469.599 107.81C470.134 108.896 471.555 109.929 472.755 110.103L476.586 110.66C477.785 110.834 478.056 111.67 477.188 112.515L474.417 115.216C473.549 116.062 473.007 117.732 473.212 118.927L473.866 122.741C474.071 123.936 473.361 124.453 472.288 123.888L468.862 122.088C467.79 121.523 466.033 121.523 464.961 122.088L461.534 123.888C460.461 124.453 459.751 123.936 459.956 122.741L460.61 118.927C460.815 117.732 460.273 116.062 459.404 115.216L456.634 112.515C455.765 111.67 456.036 110.834 457.236 110.66L461.066 110.102C462.266 109.928 463.686 108.895 464.223 107.808L465.936 104.338Z" fill="url(#paint35_linear_3551_1155)"/>
<path d="M496.543 104.338C497.08 103.252 497.958 103.252 498.494 104.338L500.207 107.81C500.744 108.896 502.165 109.929 503.364 110.103L507.195 110.66C508.395 110.834 508.666 111.67 507.797 112.515L505.025 115.216C504.157 116.062 503.615 117.732 503.82 118.927L504.474 122.741C504.679 123.936 503.969 124.453 502.896 123.889L499.469 122.087C498.396 121.523 496.64 121.523 495.567 122.088L492.143 123.888C491.07 124.453 490.36 123.936 490.565 122.741L491.22 118.927C491.424 117.732 490.882 116.062 490.014 115.216L487.243 112.515C486.375 111.67 486.646 110.834 487.845 110.66L491.674 110.103C492.874 109.928 494.294 108.895 494.831 107.808L496.543 104.338Z" fill="url(#paint36_linear_3551_1155)"/>
<path d="M426.863 136.231C429.281 136.203 431.694 135.991 434.111 135.963C434.585 135.958 434.586 135.223 434.111 135.228C431.694 135.256 429.281 135.468 426.863 135.496C426.39 135.501 426.389 136.236 426.863 136.231Z" fill="#1F0E03"/>
<path d="M437.48 135.963C446.119 135.768 454.757 136.154 463.395 136.013C467.705 135.942 471.981 135.54 476.281 135.328C480.8 135.106 485.331 135.183 489.853 135.299C494.172 135.41 498.49 135.579 502.81 135.643C505.79 135.687 508.819 135.83 511.751 135.197C516.55 134.159 518.591 130.274 518.909 125.658C518.942 125.185 518.207 125.188 518.175 125.658C517.998 128.22 517.404 130.738 515.497 132.572C513.761 134.241 511.149 134.691 508.848 134.872C505.423 135.141 501.913 134.907 498.484 134.819C494.412 134.714 490.341 134.558 486.268 134.487C478.137 134.345 470.077 135.195 461.955 135.299C453.796 135.404 445.639 135.044 437.48 135.228C437.007 135.239 437.006 135.974 437.48 135.963Z" fill="#1F0E03"/>
<path d="M181.134 233.154C181.134 241.605 174.282 248.456 165.831 248.456H105.373C96.922 248.456 90.0703 241.605 90.0703 233.154V215.351C90.0703 206.9 96.9213 200.049 105.373 200.049H165.832C174.283 200.049 181.135 206.9 181.135 215.351L181.134 233.154Z" fill="url(#paint37_linear_3551_1155)"/>
<path d="M108.154 229.589C108.154 228.881 108.209 228.244 108.319 227.678C108.429 227.112 108.618 226.585 108.885 226.098C109.169 225.61 109.546 225.154 110.018 224.729C110.505 224.289 111.119 223.865 111.858 223.456C112.502 223.11 113.069 222.811 113.556 222.559C114.044 222.292 114.452 222.048 114.783 221.828C115.129 221.608 115.388 221.388 115.561 221.167C115.734 220.932 115.821 220.664 115.821 220.365C115.821 220.051 115.734 219.768 115.561 219.516C115.388 219.249 115.144 219.037 114.83 218.879C114.515 218.722 114.122 218.643 113.65 218.643C113.273 218.643 112.919 218.691 112.589 218.785C112.274 218.879 111.976 219.013 111.693 219.186C111.425 219.359 111.174 219.556 110.938 219.776C110.702 219.98 110.49 220.2 110.301 220.436L108.296 218.124C108.516 217.904 108.807 217.668 109.169 217.417C109.546 217.149 109.986 216.906 110.49 216.686C111.008 216.45 111.575 216.261 112.188 216.119C112.817 215.962 113.485 215.884 114.193 215.884C115.262 215.884 116.175 216.057 116.929 216.402C117.684 216.733 118.258 217.197 118.651 217.794C119.06 218.392 119.265 219.092 119.265 219.894C119.265 220.444 119.162 220.932 118.958 221.356C118.754 221.781 118.494 222.158 118.18 222.488C117.865 222.803 117.519 223.086 117.142 223.338C116.78 223.589 116.426 223.809 116.08 223.998C115.593 224.25 115.152 224.486 114.759 224.706C114.366 224.91 114.02 225.123 113.721 225.343C113.422 225.547 113.155 225.76 112.919 225.98C112.699 226.2 112.502 226.451 112.329 226.735H119.524V229.589H108.154ZM127.933 232.585V229.07H121.045V226.263L128.947 216.119H131.094V226.239H133.169V229.07H131.094V232.585H127.933ZM124.205 226.239H128.286V220.908L124.205 226.239ZM149.877 212.841L138.177 229.589H134.686L146.362 212.841H149.877ZM158.8 218.714H151.18V215.836H163.777L155.474 232.585H151.888L158.8 218.714Z" fill="url(#paint38_linear_3551_1155)"/>
<path d="M142.544 245.823C153.02 243.258 164.698 248.412 174.244 241.96C174.634 241.697 174.267 241.06 173.873 241.326C164.443 247.7 152.73 242.572 142.348 245.114C141.888 245.227 142.084 245.936 142.544 245.823Z" fill="#1F0E03"/>
<path d="M177.719 218.689C177.881 220.269 177.802 221.848 178.017 223.426C178.266 225.251 178.535 227.015 178.517 228.862C178.483 232.359 178.188 236.078 176.159 239.041C175.89 239.433 176.527 239.8 176.793 239.412C178.576 236.807 179.026 233.674 179.2 230.586C179.291 228.99 179.327 227.361 179.108 225.775C178.78 223.404 178.697 221.058 178.454 218.688C178.407 218.223 177.671 218.217 177.719 218.689Z" fill="#1F0E03"/>
<defs>
<linearGradient id="paint0_linear_3551_1155" x1="163.25" y1="299.615" x2="205.041" y2="299.615" gradientUnits="userSpaceOnUse">
<stop stop-color="#FFC136"/>
<stop offset="0.197568" stop-color="#FAC142"/>
<stop offset="0.525" stop-color="#FFD168"/>
<stop offset="0.771328" stop-color="#F5BC3A"/>
<stop offset="1" stop-color="#E09B00"/>
</linearGradient>
<linearGradient id="paint1_linear_3551_1155" x1="177.492" y1="331.807" x2="179.057" y2="331.807" gradientUnits="userSpaceOnUse">
<stop stop-color="#FFC136"/>
<stop offset="0.197568" stop-color="#FAC142"/>
<stop offset="0.525" stop-color="#FFD168"/>
<stop offset="0.771328" stop-color="#F5BC3A"/>
<stop offset="1" stop-color="#E09B00"/>
</linearGradient>
<linearGradient id="paint2_linear_3551_1155" x1="141.766" y1="311.284" x2="178.926" y2="311.284" gradientUnits="userSpaceOnUse">
<stop stop-color="#FFC136"/>
<stop offset="0.197568" stop-color="#FAC142"/>
<stop offset="0.525" stop-color="#FFD168"/>
<stop offset="0.771328" stop-color="#F5BC3A"/>
<stop offset="1" stop-color="#E09B00"/>
</linearGradient>
<linearGradient id="paint3_linear_3551_1155" x1="185.57" y1="307.719" x2="198.428" y2="307.719" gradientUnits="userSpaceOnUse">
<stop stop-color="#FFC136"/>
<stop offset="0.197568" stop-color="#FAC142"/>
<stop offset="0.525" stop-color="#FFD168"/>
<stop offset="0.771328" stop-color="#F5BC3A"/>
<stop offset="1" stop-color="#E09B00"/>
</linearGradient>
<linearGradient id="paint4_linear_3551_1155" x1="170.227" y1="303.771" x2="184.09" y2="303.771" gradientUnits="userSpaceOnUse">
<stop stop-color="#FFC136"/>
<stop offset="0.197568" stop-color="#FAC142"/>
<stop offset="0.525" stop-color="#FFD168"/>
<stop offset="0.771328" stop-color="#F5BC3A"/>
<stop offset="1" stop-color="#E09B00"/>
</linearGradient>
<linearGradient id="paint5_linear_3551_1155" x1="151.852" y1="318.872" x2="177.762" y2="318.872" gradientUnits="userSpaceOnUse">
<stop stop-color="#FFC136"/>
<stop offset="0.197568" stop-color="#FAC142"/>
<stop offset="0.525" stop-color="#FFD168"/>
<stop offset="0.771328" stop-color="#F5BC3A"/>
<stop offset="1" stop-color="#E09B00"/>
</linearGradient>
<linearGradient id="paint6_linear_3551_1155" x1="152.805" y1="313.246" x2="167.184" y2="313.246" gradientUnits="userSpaceOnUse">
<stop stop-color="#FFC136"/>
<stop offset="0.197568" stop-color="#FAC142"/>
<stop offset="0.525" stop-color="#FFD168"/>
<stop offset="0.771328" stop-color="#F5BC3A"/>
<stop offset="1" stop-color="#E09B00"/>
</linearGradient>
<linearGradient id="paint7_linear_3551_1155" x1="165.188" y1="316.974" x2="172.17" y2="316.974" gradientUnits="userSpaceOnUse">
<stop stop-color="#FFC136"/>
<stop offset="0.197568" stop-color="#FAC142"/>
<stop offset="0.525" stop-color="#FFD168"/>
<stop offset="0.771328" stop-color="#F5BC3A"/>
<stop offset="1" stop-color="#E09B00"/>
</linearGradient>
<linearGradient id="paint8_linear_3551_1155" x1="189.445" y1="304.606" x2="192.034" y2="304.606" gradientUnits="userSpaceOnUse">
<stop stop-color="#FFC136"/>
<stop offset="0.197568" stop-color="#FAC142"/>
<stop offset="0.525" stop-color="#FFD168"/>
<stop offset="0.771328" stop-color="#F5BC3A"/>
<stop offset="1" stop-color="#E09B00"/>
</linearGradient>
<linearGradient id="paint9_linear_3551_1155" x1="173.773" y1="279.335" x2="175.83" y2="279.335" gradientUnits="userSpaceOnUse">
<stop stop-color="#FFC136"/>
<stop offset="0.197568" stop-color="#FAC142"/>
<stop offset="0.525" stop-color="#FFD168"/>
<stop offset="0.771328" stop-color="#F5BC3A"/>
<stop offset="1" stop-color="#E09B00"/>
</linearGradient>
<linearGradient id="paint10_linear_3551_1155" x1="169.195" y1="294.283" x2="177.914" y2="294.283" gradientUnits="userSpaceOnUse">
<stop stop-color="#FFC136"/>
<stop offset="0.197568" stop-color="#FAC142"/>
<stop offset="0.525" stop-color="#FFD168"/>
<stop offset="0.771328" stop-color="#F5BC3A"/>
<stop offset="1" stop-color="#E09B00"/>
</linearGradient>
<linearGradient id="paint11_linear_3551_1155" x1="179.148" y1="303.387" x2="181.776" y2="303.387" gradientUnits="userSpaceOnUse">
<stop stop-color="#FFC136"/>
<stop offset="0.197568" stop-color="#FAC142"/>
<stop offset="0.525" stop-color="#FFD168"/>
<stop offset="0.771328" stop-color="#F5BC3A"/>
<stop offset="1" stop-color="#E09B00"/>
</linearGradient>
<linearGradient id="paint12_linear_3551_1155" x1="193.352" y1="291.774" x2="201.169" y2="291.774" gradientUnits="userSpaceOnUse">
<stop stop-color="#FFC136"/>
<stop offset="0.197568" stop-color="#FAC142"/>
<stop offset="0.525" stop-color="#FFD168"/>
<stop offset="0.771328" stop-color="#F5BC3A"/>
<stop offset="1" stop-color="#E09B00"/>
</linearGradient>
<linearGradient id="paint13_linear_3551_1155" x1="435.641" y1="321.125" x2="505.786" y2="321.125" gradientUnits="userSpaceOnUse">
<stop stop-color="#FFC136"/>
<stop offset="0.197568" stop-color="#FAC142"/>
<stop offset="0.525" stop-color="#FFD168"/>
<stop offset="0.771328" stop-color="#F5BC3A"/>
<stop offset="1" stop-color="#E09B00"/>
</linearGradient>
<linearGradient id="paint14_linear_3551_1155" x1="417.57" y1="340.161" x2="457.769" y2="340.161" gradientUnits="userSpaceOnUse">
<stop stop-color="#FFC136"/>
<stop offset="0.197568" stop-color="#FAC142"/>
<stop offset="0.525" stop-color="#FFD168"/>
<stop offset="0.771328" stop-color="#F5BC3A"/>
<stop offset="1" stop-color="#E09B00"/>
</linearGradient>
<linearGradient id="paint15_linear_3551_1155" x1="446.547" y1="333.529" x2="465.659" y2="333.529" gradientUnits="userSpaceOnUse">
<stop stop-color="#FFC136"/>
<stop offset="0.197568" stop-color="#FAC142"/>
<stop offset="0.525" stop-color="#FFD168"/>
<stop offset="0.771328" stop-color="#F5BC3A"/>
<stop offset="1" stop-color="#E09B00"/>
</linearGradient>
<linearGradient id="paint16_linear_3551_1155" x1="436.328" y1="342.788" x2="457.748" y2="342.788" gradientUnits="userSpaceOnUse">
<stop stop-color="#FFC136"/>
<stop offset="0.197568" stop-color="#FAC142"/>
<stop offset="0.525" stop-color="#FFD168"/>
<stop offset="0.771328" stop-color="#F5BC3A"/>
<stop offset="1" stop-color="#E09B00"/>
</linearGradient>
<linearGradient id="paint17_linear_3551_1155" x1="465.305" y1="334.781" x2="469.16" y2="334.781" gradientUnits="userSpaceOnUse">
<stop stop-color="#FFC136"/>
<stop offset="0.197568" stop-color="#FAC142"/>
<stop offset="0.525" stop-color="#FFD168"/>
<stop offset="0.771328" stop-color="#F5BC3A"/>
<stop offset="1" stop-color="#E09B00"/>
</linearGradient>
<linearGradient id="paint18_linear_3551_1155" x1="465.852" y1="333.801" x2="491.428" y2="333.801" gradientUnits="userSpaceOnUse">
<stop stop-color="#FFC136"/>
<stop offset="0.197568" stop-color="#FAC142"/>
<stop offset="0.525" stop-color="#FFD168"/>
<stop offset="0.771328" stop-color="#F5BC3A"/>
<stop offset="1" stop-color="#E09B00"/>
</linearGradient>
<linearGradient id="paint19_linear_3551_1155" x1="323.727" y1="195.178" x2="337.883" y2="195.178" gradientUnits="userSpaceOnUse">
<stop stop-color="#FFC136"/>
<stop offset="0.197568" stop-color="#FAC142"/>
<stop offset="0.525" stop-color="#FFD168"/>
<stop offset="0.771328" stop-color="#F5BC3A"/>
<stop offset="1" stop-color="#E09B00"/>
</linearGradient>
<linearGradient id="paint20_linear_3551_1155" x1="286.93" y1="265.981" x2="412.156" y2="265.981" gradientUnits="userSpaceOnUse">
<stop stop-color="#FFC136"/>
<stop offset="0.197568" stop-color="#FAC142"/>
<stop offset="0.525" stop-color="#FFD168"/>
<stop offset="0.771328" stop-color="#F5BC3A"/>
<stop offset="1" stop-color="#E09B00"/>
</linearGradient>
<linearGradient id="paint21_linear_3551_1155" x1="325.859" y1="175.408" x2="371.147" y2="175.408" gradientUnits="userSpaceOnUse">
<stop stop-color="#FFC136"/>
<stop offset="0.197568" stop-color="#FAC142"/>
<stop offset="0.525" stop-color="#FFD168"/>
<stop offset="0.771328" stop-color="#F5BC3A"/>
<stop offset="1" stop-color="#E09B00"/>
</linearGradient>
<linearGradient id="paint22_linear_3551_1155" x1="343.375" y1="291.911" x2="367.649" y2="291.911" gradientUnits="userSpaceOnUse">
<stop stop-color="#FFC136"/>
<stop offset="0.197568" stop-color="#FAC142"/>
<stop offset="0.525" stop-color="#FFD168"/>
<stop offset="0.771328" stop-color="#F5BC3A"/>
<stop offset="1" stop-color="#E09B00"/>
</linearGradient>
<linearGradient id="paint23_linear_3551_1155" x1="340.961" y1="209.73" x2="346.378" y2="209.73" gradientUnits="userSpaceOnUse">
<stop stop-color="#FFC136"/>
<stop offset="0.197568" stop-color="#FAC142"/>
<stop offset="0.525" stop-color="#FFD168"/>
<stop offset="0.771328" stop-color="#F5BC3A"/>
<stop offset="1" stop-color="#E09B00"/>
</linearGradient>
<linearGradient id="paint24_linear_3551_1155" x1="328.047" y1="175.408" x2="371.15" y2="175.408" gradientUnits="userSpaceOnUse">
<stop stop-color="#FFC136"/>
<stop offset="0.197568" stop-color="#FAC142"/>
<stop offset="0.525" stop-color="#FFD168"/>
<stop offset="0.771328" stop-color="#F5BC3A"/>
<stop offset="1" stop-color="#E09B00"/>
</linearGradient>
<linearGradient id="paint25_linear_3551_1155" x1="362.695" y1="195.178" x2="376.853" y2="195.178" gradientUnits="userSpaceOnUse">
<stop stop-color="#FFC136"/>
<stop offset="0.197568" stop-color="#FAC142"/>
<stop offset="0.525" stop-color="#FFD168"/>
<stop offset="0.771328" stop-color="#F5BC3A"/>
<stop offset="1" stop-color="#E09B00"/>
</linearGradient>
<linearGradient id="paint26_linear_3551_1155" x1="194.344" y1="270.077" x2="350.86" y2="270.077" gradientUnits="userSpaceOnUse">
<stop stop-color="#0032A3"/>
<stop offset="0.25" stop-color="#1A51CB"/>
<stop offset="0.5" stop-color="#3B66C8"/>
<stop offset="0.75" stop-color="#1A51CB"/>
<stop offset="1" stop-color="#0032A3"/>
</linearGradient>
<linearGradient id="paint27_linear_3551_1155" x1="165.516" y1="173.581" x2="195.56" y2="173.581" gradientUnits="userSpaceOnUse">
<stop stop-color="#FFC136"/>
<stop offset="0.197568" stop-color="#FAC142"/>
<stop offset="0.525" stop-color="#FFD168"/>
<stop offset="0.771328" stop-color="#F5BC3A"/>
<stop offset="1" stop-color="#E09B00"/>
</linearGradient>
<linearGradient id="paint28_linear_3551_1155" x1="142.383" y1="121.389" x2="302.299" y2="121.389" gradientUnits="userSpaceOnUse">
<stop stop-color="#FFC136"/>
<stop offset="0.197568" stop-color="#FAC142"/>
<stop offset="0.525" stop-color="#FFD168"/>
<stop offset="0.771328" stop-color="#F5BC3A"/>
<stop offset="1" stop-color="#E09B00"/>
</linearGradient>
<linearGradient id="paint29_linear_3551_1155" x1="418.133" y1="209.199" x2="583.926" y2="209.199" gradientUnits="userSpaceOnUse">
<stop stop-color="#FFC136"/>
<stop offset="0.197568" stop-color="#FAC142"/>
<stop offset="0.525" stop-color="#FFD168"/>
<stop offset="0.771328" stop-color="#F5BC3A"/>
<stop offset="1" stop-color="#E09B00"/>
</linearGradient>
<linearGradient id="paint30_linear_3551_1155" x1="442.117" y1="263.309" x2="473.266" y2="263.309" gradientUnits="userSpaceOnUse">
<stop stop-color="#FFC136"/>
<stop offset="0.197568" stop-color="#FAC142"/>
<stop offset="0.525" stop-color="#FFD168"/>
<stop offset="0.771328" stop-color="#F5BC3A"/>
<stop offset="1" stop-color="#E09B00"/>
</linearGradient>
<linearGradient id="paint31_linear_3551_1155" x1="350.289" y1="116.054" x2="523.378" y2="116.054" gradientUnits="userSpaceOnUse">
<stop stop-color="#0032A3"/>
<stop offset="0.25" stop-color="#1A51CB"/>
<stop offset="0.5" stop-color="#3B66C8"/>
<stop offset="0.75" stop-color="#1A51CB"/>
<stop offset="1" stop-color="#0032A3"/>
</linearGradient>
<linearGradient id="paint32_linear_3551_1155" x1="364.289" y1="113.82" x2="385.861" y2="113.82" gradientUnits="userSpaceOnUse">
<stop stop-color="#FFC136"/>
<stop offset="0.197568" stop-color="#FAC142"/>
<stop offset="0.525" stop-color="#FFD168"/>
<stop offset="0.771328" stop-color="#F5BC3A"/>
<stop offset="1" stop-color="#E09B00"/>
</linearGradient>
<linearGradient id="paint33_linear_3551_1155" x1="394.898" y1="113.82" x2="416.469" y2="113.82" gradientUnits="userSpaceOnUse">
<stop stop-color="#FFC136"/>
<stop offset="0.197568" stop-color="#FAC142"/>
<stop offset="0.525" stop-color="#FFD168"/>
<stop offset="0.771328" stop-color="#F5BC3A"/>
<stop offset="1" stop-color="#E09B00"/>
</linearGradient>
<linearGradient id="paint34_linear_3551_1155" x1="425.516" y1="113.82" x2="447.087" y2="113.82" gradientUnits="userSpaceOnUse">
<stop stop-color="#FFC136"/>
<stop offset="0.197568" stop-color="#FAC142"/>
<stop offset="0.525" stop-color="#FFD168"/>
<stop offset="0.771328" stop-color="#F5BC3A"/>
<stop offset="1" stop-color="#E09B00"/>
</linearGradient>
<linearGradient id="paint35_linear_3551_1155" x1="456.125" y1="113.82" x2="477.697" y2="113.82" gradientUnits="userSpaceOnUse">
<stop stop-color="#FFC136"/>
<stop offset="0.197568" stop-color="#FAC142"/>
<stop offset="0.525" stop-color="#FFD168"/>
<stop offset="0.771328" stop-color="#F5BC3A"/>
<stop offset="1" stop-color="#E09B00"/>
</linearGradient>
<linearGradient id="paint36_linear_3551_1155" x1="486.734" y1="113.82" x2="508.306" y2="113.82" gradientUnits="userSpaceOnUse">
<stop stop-color="#FFC136"/>
<stop offset="0.197568" stop-color="#FAC142"/>
<stop offset="0.525" stop-color="#FFD168"/>
<stop offset="0.771328" stop-color="#F5BC3A"/>
<stop offset="1" stop-color="#E09B00"/>
</linearGradient>
<linearGradient id="paint37_linear_3551_1155" x1="90.0703" y1="224.253" x2="181.135" y2="224.253" gradientUnits="userSpaceOnUse">
<stop stop-color="#0032A3"/>
<stop offset="0.25" stop-color="#1A51CB"/>
<stop offset="0.5" stop-color="#3B66C8"/>
<stop offset="0.75" stop-color="#1A51CB"/>
<stop offset="1" stop-color="#0032A3"/>
</linearGradient>
<linearGradient id="paint38_linear_3551_1155" x1="107.258" y1="221.589" x2="164.258" y2="221.589" gradientUnits="userSpaceOnUse">
<stop stop-color="#FFC136"/>
<stop offset="0.197568" stop-color="#FAC142"/>
<stop offset="0.525" stop-color="#FFD168"/>
<stop offset="0.771328" stop-color="#F5BC3A"/>
<stop offset="1" stop-color="#E09B00"/>
</linearGradient>
</defs>
</svg>
