<svg width="25" height="24" viewBox="0 0 25 24" fill="none" xmlns="http://www.w3.org/2000/svg">
<path d="M4.5 21V20C4.5 16.69 7.19 14 10.5 14H14.5C17.81 14 20.5 16.69 20.5 20V21" stroke="#002882" stroke-width="2" stroke-linecap="round" stroke-linejoin="round"/>
<path d="M4.5 21V20C4.5 16.69 7.19 14 10.5 14H14.5C17.81 14 20.5 16.69 20.5 20V21" stroke="black" stroke-opacity="0.2" stroke-width="2" stroke-linecap="round" stroke-linejoin="round"/>
<path d="M12.5 11C10.29 11 8.5 9.21 8.5 7C8.5 4.79 10.29 3 12.5 3C14.71 3 16.5 4.79 16.5 7C16.5 9.21 14.71 11 12.5 11Z" stroke="#002882" stroke-width="2" stroke-linecap="round" stroke-linejoin="round"/>
<path d="M12.5 11C10.29 11 8.5 9.21 8.5 7C8.5 4.79 10.29 3 12.5 3C14.71 3 16.5 4.79 16.5 7C16.5 9.21 14.71 11 12.5 11Z" stroke="black" stroke-opacity="0.2" stroke-width="2" stroke-linecap="round" stroke-linejoin="round"/>
</svg>
