<svg width="81" height="81" viewBox="0 0 81 81" fill="none" xmlns="http://www.w3.org/2000/svg">
<g id="sign-in-register-svgrepo-com 1" clip-path="url(#clip0_3502_74080)">
<path id="Vector" d="M36.1589 39.2342C35.5793 37.7717 37.0548 35.7955 38.9652 36.4148L56.7908 42.3435H73.6545C74.8797 42.3435 75.881 41.3555 75.881 40.1433V7.16651C75.881 5.95453 74.893 4.96631 73.6545 4.96631H7.00286C5.77763 4.96631 4.77637 5.95432 4.77637 7.16651V40.1564C4.77637 41.3684 5.76438 42.3566 7.00286 42.3566H37.1864L36.1589 39.2342Z" fill="white"/>
<path id="Vector_2" d="M41.7847 42.0403L43.8532 48.2192H52.2982C53.5234 48.2192 54.5247 49.2073 54.5247 50.4457C54.5247 51.6842 53.5367 52.6722 52.2982 52.6722H45.342L46.3169 55.6365H50.085C51.3102 55.6365 52.3115 56.6247 52.3115 57.863C52.3115 59.0882 51.3234 60.0895 50.085 60.0895H47.8057L51.8109 72.0522L55.2101 64.1605C56.0797 62.2501 58.3325 62.619 58.82 63.4623L68.8988 73.5279L73.3255 69.1012L63.2467 59.0489C62.2849 58.153 62.2584 56.2295 63.9449 55.4258L71.8498 52.0398L41.7847 42.0403Z" fill="url(#paint0_linear_3502_74080)"/>
<path id="Vector_3" d="M71.4279 9.37988H9.22949V37.9035H71.4279V9.37988Z" fill="url(#paint1_linear_3502_74080)"/>
<g id="Group">
<path id="Vector_4" d="M16.6074 22.6204C15.5798 22.3701 14.9342 22.1461 14.6574 21.9617C14.3676 21.7773 14.2358 21.54 14.2358 21.2239C14.2358 20.9079 14.3939 20.1964 15.5269 20.1831C16.5149 20.1699 17.4768 20.5257 18.4253 21.2372L19.6373 19.4849C18.0957 18.2202 16.3304 18.062 15.6057 18.062C14.4991 18.062 11.7586 18.4967 11.7586 21.2635C11.7586 22.291 12.0484 23.029 12.6282 23.5165C13.2078 23.9907 14.1302 24.3861 15.3685 24.6759C16.159 24.8603 16.6861 25.071 16.9626 25.2555C17.2261 25.4399 17.3578 25.6902 17.3578 26.0328C17.3578 26.3754 17.2261 27.0208 15.9349 27.0868C14.9599 27.1396 13.8665 26.5861 12.7201 25.5585L11.2842 27.324C12.6543 28.5888 14.1826 29.274 15.8823 29.2079C19.334 29.0763 19.8215 26.9287 19.8215 25.9669C19.8215 25.0052 19.5317 24.2675 18.9651 23.7667C18.4124 23.2528 17.6219 22.8708 16.6074 22.6204Z" fill="#333333"/>
<path id="Vector_5" d="M24.1435 18.4177H21.7852V28.9971H24.1435V18.4177Z" fill="#333333"/>
<path id="Vector_6" d="M33.6689 26.5203H33.6556C33.1023 26.8365 32.4304 26.9945 31.6136 26.9945C29.2422 26.9945 28.6098 24.6889 28.6098 23.6877C28.6098 22.6996 29.3212 20.3676 31.8113 20.3676C32.2855 20.3676 33.9587 21.0395 34.4199 21.4479L35.6451 19.6824C34.5252 18.6944 33.2077 18.1804 31.6794 18.1804C29.7295 18.1804 26.1724 19.498 26.1724 23.6744C26.1724 27.5741 29.4662 29.2079 31.6794 29.1289C33.537 29.0498 34.9995 28.5493 36.0535 27.3766V23.6349H33.6821V26.5203H33.6689Z" fill="#333333"/>
<path id="Vector_7" d="M45.5654 25.2291L40.3614 18.4177H38.1479V28.9971H40.5063V22.3702L45.5654 28.9971H47.9237V18.4177H45.5654V25.2291Z" fill="#333333"/>
<path id="Vector_8" d="M56.9091 18.4177H54.5508V28.9971H56.9091V18.4177Z" fill="#333333"/>
<path id="Vector_9" d="M61.8891 22.3702L66.9482 28.9971H69.3066V18.4177H66.9482V25.2291L61.731 18.4177H59.5308V28.9971H61.8891V22.3702Z" fill="#333333"/>
<path id="Vector_10" d="M78.8057 49.6686L70.163 46.7964H73.6543C77.33 46.7964 80.3207 43.8057 80.3207 40.1563V7.16645C80.3209 3.49074 77.3302 0.5 73.6543 0.5H7.00287C3.32717 0.5 0.336426 3.49074 0.336426 7.16645V40.1563C0.336426 43.8057 3.32717 46.7964 7.00287 46.7964H38.6752L49.4259 78.9695C50.3218 81.2225 52.9437 80.735 53.5628 79.1407L57.9765 68.9039L67.3174 78.2052C68.187 79.0748 69.5834 79.0748 70.453 78.2052L78.0286 70.6429C78.8454 69.9314 79.0166 68.469 78.0286 67.494L68.7008 58.1926L78.9508 53.8055C80.7161 53.3047 80.9138 50.2745 78.8057 49.6686ZM36.1589 39.2604L37.1997 42.3828H7.00287C5.79088 42.3565 4.77637 41.3552 4.77637 40.143V7.16645C4.77637 5.95446 5.76439 4.96624 7.00287 4.96624H73.6675C74.8928 4.96624 75.894 5.95425 75.894 7.16645V40.1563C75.894 41.3683 74.906 42.3565 73.6675 42.3565H56.8038L38.9782 36.4411C37.0415 35.8217 35.5791 37.7716 36.1589 39.2604ZM63.9445 55.4126C62.2581 56.2162 62.2846 58.1399 63.2463 59.0358L73.3251 69.0881L68.8984 73.5148L58.8196 63.4492C58.3321 62.6191 56.0793 62.2372 55.2097 64.1474L51.8106 72.0391L47.8053 60.0763H50.0846C51.3098 60.0763 52.3111 59.0883 52.3111 57.8499C52.3111 56.6114 51.3231 55.6234 50.0846 55.6234H46.3033L45.3153 52.6591H52.2585C53.4838 52.6591 54.485 51.6711 54.485 50.4326C54.485 49.2074 53.4968 48.2061 52.2585 48.2061H43.8135L41.745 42.0272L71.8099 52.0269L63.9445 55.4126Z" fill="url(#paint2_linear_3502_74080)"/>
</g>
</g>
<defs>
<linearGradient id="paint0_linear_3502_74080" x1="41.7847" y1="57.7841" x2="73.3255" y2="57.7841" gradientUnits="userSpaceOnUse">
<stop stop-color="#FFC136"/>
<stop offset="0.197568" stop-color="#FAC142"/>
<stop offset="0.525" stop-color="#FFD168"/>
<stop offset="0.771328" stop-color="#F5BC3A"/>
<stop offset="1" stop-color="#E09B00"/>
</linearGradient>
<linearGradient id="paint1_linear_3502_74080" x1="9.22949" y1="23.6417" x2="71.4279" y2="23.6417" gradientUnits="userSpaceOnUse">
<stop stop-color="#FFC136"/>
<stop offset="0.197568" stop-color="#FAC142"/>
<stop offset="0.525" stop-color="#FFD168"/>
<stop offset="0.771328" stop-color="#F5BC3A"/>
<stop offset="1" stop-color="#E09B00"/>
</linearGradient>
<linearGradient id="paint2_linear_3502_74080" x1="0.336426" y1="40.5001" x2="80.3308" y2="40.5001" gradientUnits="userSpaceOnUse">
<stop stop-color="#0032A3"/>
<stop offset="0.25" stop-color="#1A51CB"/>
<stop offset="0.5" stop-color="#3B66C8"/>
<stop offset="0.75" stop-color="#1A51CB"/>
<stop offset="1" stop-color="#0032A3"/>
</linearGradient>
<clipPath id="clip0_3502_74080">
<rect width="80" height="80" fill="white" transform="translate(0.333496 0.5)"/>
</clipPath>
</defs>
</svg>
