<svg width="80" height="81" viewBox="0 0 80 81" fill="none" xmlns="http://www.w3.org/2000/svg">
<g id="wallet-svgrepo-com 1" clip-path="url(#clip0_3502_74133)">
<g id="Group 660">
<path id="Vector" d="M66.3332 29.7381H9.38087C7.69515 29.7381 6.33325 28.3761 6.33325 26.6904C6.33325 25.0047 7.69515 23.6428 9.38087 23.6428H66.3332V29.7381Z" fill="#FFE0B6"/>
<path id="Vector_2" d="M58.7142 26.8812H13.9524V12.786C13.9524 11.9479 14.6381 11.2622 15.4762 11.2622H57.1904C58.0285 11.2622 58.7142 11.9479 58.7142 12.786V26.8812Z" fill="url(#paint0_linear_3502_74133)"/>
<path id="Vector_3" d="M13.9524 20.5955H58.7142V23.6431H13.9524V20.5955Z" fill="#EEA500"/>
<path id="Vector_4" d="M71.0951 29.738H9.38087C7.69515 29.738 6.33325 28.3761 6.33325 26.6904V63.6428C6.33325 67.0047 9.06658 69.738 12.4285 69.738H64.9998C68.3617 69.738 71.0951 67.0047 71.0951 63.6428V29.738Z" fill="url(#paint1_linear_3502_74133)"/>
<g id="Vector_5">
<path d="M30.3999 42.4427L28.9618 43.8427C28.3047 43.1665 27.6571 42.8332 27.019 42.8332C26.638 42.8332 26.3333 42.9379 26.1047 43.1379C25.8666 43.3379 25.7523 43.5665 25.7523 43.8332C25.7523 44.0522 25.8571 44.2808 26.0666 44.4998C26.2666 44.7189 26.6857 44.957 27.3047 45.2141C28.4095 45.6713 29.1619 46.0617 29.5714 46.3855C29.9809 46.7094 30.2952 47.0903 30.5047 47.5474C30.7238 47.9951 30.8285 48.5093 30.8285 49.0617C30.8285 49.6236 30.7142 50.1379 30.4761 50.6141C30.2476 51.0903 29.9428 51.4712 29.5714 51.7474C29.1999 52.0236 28.6761 52.2332 27.9904 52.376V54.3665H26.5904V52.4236C25.9428 52.3474 25.3904 52.1855 24.9333 51.9284C24.3047 51.5855 23.7238 51.1189 23.1904 50.5474L24.6 49.0998C25.5047 50.0713 26.3904 50.5474 27.238 50.5474C27.6666 50.5474 28.038 50.3951 28.3523 50.0998C28.6666 49.7951 28.819 49.4427 28.819 49.0427C28.819 48.6998 28.7238 48.4046 28.5238 48.1379C28.3238 47.8808 27.9333 47.6141 27.3523 47.3474C26.1714 46.8046 25.3714 46.3665 24.9523 46.0522C24.5333 45.7379 24.2285 45.376 24.019 44.976C23.8095 44.576 23.7142 44.1474 23.7142 43.6998C23.7142 42.9475 23.9904 42.3094 24.5333 41.776C25.0761 41.2427 25.7714 40.957 26.5999 40.9189V40.176H27.9809V41.0141C28.4666 41.1284 28.8666 41.2808 29.2095 41.4713C29.5523 41.6617 29.9428 41.9855 30.3999 42.4427Z" fill="#002882"/>
<path d="M30.3999 42.4427L28.9618 43.8427C28.3047 43.1665 27.6571 42.8332 27.019 42.8332C26.638 42.8332 26.3333 42.9379 26.1047 43.1379C25.8666 43.3379 25.7523 43.5665 25.7523 43.8332C25.7523 44.0522 25.8571 44.2808 26.0666 44.4998C26.2666 44.7189 26.6857 44.957 27.3047 45.2141C28.4095 45.6713 29.1619 46.0617 29.5714 46.3855C29.9809 46.7094 30.2952 47.0903 30.5047 47.5474C30.7238 47.9951 30.8285 48.5093 30.8285 49.0617C30.8285 49.6236 30.7142 50.1379 30.4761 50.6141C30.2476 51.0903 29.9428 51.4712 29.5714 51.7474C29.1999 52.0236 28.6761 52.2332 27.9904 52.376V54.3665H26.5904V52.4236C25.9428 52.3474 25.3904 52.1855 24.9333 51.9284C24.3047 51.5855 23.7238 51.1189 23.1904 50.5474L24.6 49.0998C25.5047 50.0713 26.3904 50.5474 27.238 50.5474C27.6666 50.5474 28.038 50.3951 28.3523 50.0998C28.6666 49.7951 28.819 49.4427 28.819 49.0427C28.819 48.6998 28.7238 48.4046 28.5238 48.1379C28.3238 47.8808 27.9333 47.6141 27.3523 47.3474C26.1714 46.8046 25.3714 46.3665 24.9523 46.0522C24.5333 45.7379 24.2285 45.376 24.019 44.976C23.8095 44.576 23.7142 44.1474 23.7142 43.6998C23.7142 42.9475 23.9904 42.3094 24.5333 41.776C25.0761 41.2427 25.7714 40.957 26.5999 40.9189V40.176H27.9809V41.0141C28.4666 41.1284 28.8666 41.2808 29.2095 41.4713C29.5523 41.6617 29.9428 41.9855 30.3999 42.4427Z" fill="black" fill-opacity="0.2"/>
</g>
<path id="Vector_6" d="M71.0949 54.024H56.4282C53.0663 54.024 50.333 51.2906 50.333 47.9287C50.333 44.5668 53.0663 41.8335 56.4282 41.8335H71.0949V54.024Z" fill="url(#paint2_linear_3502_74133)"/>
<path id="Vector_7" d="M56.3333 50.9763C54.6571 50.9763 53.2856 49.6049 53.2856 47.9287C53.2856 46.2525 54.6571 44.8811 56.3333 44.8811C58.0094 44.8811 59.3809 46.2525 59.3809 47.9287C59.3809 49.6049 58.0094 50.9763 56.3333 50.9763Z" fill="white"/>
<g id="Vector_8">
<path d="M56.333 51.7382C54.2282 51.7382 52.5234 50.0334 52.5234 47.9287C52.5234 45.8239 54.2282 44.1191 56.333 44.1191C58.4377 44.1191 60.1425 45.8239 60.1425 47.9287C60.1425 50.0334 58.4282 51.7382 56.333 51.7382ZM56.333 45.6429C55.0758 45.6429 54.0472 46.6715 54.0472 47.9287C54.0472 49.1858 55.0758 50.2144 56.333 50.2144C57.5901 50.2144 58.6187 49.1858 58.6187 47.9287C58.6187 46.6715 57.5901 45.6429 56.333 45.6429Z" fill="#002882"/>
<path d="M56.333 51.7382C54.2282 51.7382 52.5234 50.0334 52.5234 47.9287C52.5234 45.8239 54.2282 44.1191 56.333 44.1191C58.4377 44.1191 60.1425 45.8239 60.1425 47.9287C60.1425 50.0334 58.4282 51.7382 56.333 51.7382ZM56.333 45.6429C55.0758 45.6429 54.0472 46.6715 54.0472 47.9287C54.0472 49.1858 55.0758 50.2144 56.333 50.2144C57.5901 50.2144 58.6187 49.1858 58.6187 47.9287C58.6187 46.6715 57.5901 45.6429 56.333 45.6429Z" fill="black" fill-opacity="0.2"/>
</g>
<g id="Vector_9">
<path d="M80.8761 52.0047C80.3999 52.0047 80.1618 51.719 79.6666 51.0333C79.1809 50.3476 78.5237 49.4142 77.219 49.4142C75.9142 49.4142 75.2475 50.3476 74.7713 51.0333C74.2856 51.7285 74.038 52.0047 73.5618 52.0047C73.0856 52.0047 72.8475 51.719 72.3523 51.0333C72.2094 50.8238 72.0475 50.5952 71.8571 50.3761V48.0619C72.2666 48.4523 72.8094 48.7666 73.5618 48.7666C74.8761 48.7666 75.5332 47.8333 76.0094 47.1476C76.4951 46.4523 76.7428 46.1761 77.219 46.1761C77.6951 46.1761 77.9332 46.4619 78.4285 47.1476C78.9142 47.8333 79.5713 48.7666 80.8761 48.7666C81.2951 48.7666 81.638 48.4238 81.638 48.0047C81.638 47.5857 81.2951 47.2428 80.8761 47.2428C80.3999 47.2428 80.1618 46.9571 79.6666 46.2714C79.1809 45.5857 78.5237 44.6523 77.219 44.6523C75.9142 44.6523 75.2475 45.5857 74.7713 46.2714C74.2856 46.9666 74.038 47.2428 73.5618 47.2428C73.0856 47.2428 72.8475 46.9571 72.3523 46.2714C72.2094 46.0619 72.0475 45.8333 71.8571 45.6142V29.7381C71.8571 29.319 71.5142 28.9762 71.0952 28.9762H67.0952V23.6428C67.0952 23.2238 66.7523 22.8809 66.3333 22.8809H59.4761V12.7857C59.4761 11.5286 58.4476 10.5 57.1904 10.5H15.4762C14.219 10.5 13.1905 11.5286 13.1905 12.7857V22.8809H9.38094C7.27618 22.8809 5.57142 24.5857 5.57142 26.6905V63.6428C5.57142 65.7952 6.57142 67.719 8.1238 68.9761H-0.238096C-0.657143 68.9761 -1 69.319 -1 69.738C-1 70.1571 -0.657143 70.4999 -0.238096 70.4999H78.238C78.6571 70.4999 78.9999 70.1571 78.9999 69.738C78.9999 69.319 78.6571 68.9761 78.238 68.9761H69.3047C70.8571 67.719 71.8571 65.7952 71.8571 63.6428V52.8238C72.2666 53.2142 72.8094 53.5285 73.5618 53.5285C74.8761 53.5285 75.5332 52.5952 76.0094 51.9095C76.4951 51.2142 76.7428 50.938 77.219 50.938C77.6951 50.938 77.9332 51.2238 78.4285 51.9095C78.9142 52.5952 79.5713 53.5285 80.8761 53.5285C81.2951 53.5285 81.638 53.1857 81.638 52.7666C81.638 52.3476 81.2951 52.0047 80.8761 52.0047ZM70.3333 53.2618H56.4285C53.4857 53.2618 51.0952 50.8714 51.0952 47.9285C51.0952 44.9857 53.4857 42.5952 56.4285 42.5952H70.3333V53.2618ZM14.7143 12.7857C14.7143 12.3667 15.0571 12.0238 15.4762 12.0238H57.1904C57.6095 12.0238 57.9523 12.3667 57.9523 12.7857V19.8333H14.7143V12.7857ZM14.7143 21.3571H57.9523V22.8809H14.7143V21.3571ZM14.7143 24.4047H57.9523V26.119H14.7143V24.4047ZM9.38094 24.4047H13.1905V26.8809C13.1905 27.3 13.5333 27.6428 13.9524 27.6428H58.7142C59.1333 27.6428 59.4761 27.3 59.4761 26.8809V24.4047H65.5714V28.9762H9.38094C8.1238 28.9762 7.09523 27.9476 7.09523 26.6905C7.09523 25.4333 8.11427 24.4047 9.38094 24.4047ZM65.0094 68.9761H12.4095C9.47618 68.9666 7.08571 66.5761 7.08571 63.6428V29.7285H7.09523C7.10475 29.7285 7.10475 29.7381 7.11428 29.7381C7.15237 29.7666 7.19047 29.7952 7.23809 29.8238C7.25713 29.8333 7.26666 29.8428 7.2857 29.8524C7.31428 29.8714 7.35237 29.9 7.38094 29.919C7.39999 29.9285 7.41904 29.9381 7.42856 29.9476C7.46666 29.9666 7.49523 29.9857 7.53332 30.0047C7.55237 30.0143 7.5619 30.0238 7.58094 30.0333C7.62856 30.0619 7.67618 30.0809 7.71428 30.1C7.7238 30.1 7.7238 30.1095 7.73332 30.1095C7.78094 30.1381 7.83809 30.1571 7.8857 30.1762C7.90475 30.1857 7.91428 30.1857 7.93332 30.1952C7.97142 30.2143 8.00951 30.2238 8.04761 30.2428C8.06666 30.2524 8.0857 30.2524 8.10475 30.2619C8.14285 30.2714 8.18094 30.2905 8.20951 30.3C8.22856 30.3095 8.24761 30.3095 8.26666 30.319C8.30475 30.3285 8.35237 30.3476 8.39047 30.3571C8.40951 30.3571 8.41904 30.3666 8.43808 30.3666C8.49523 30.3762 8.55237 30.3952 8.60951 30.4047C8.61904 30.4047 8.63808 30.4047 8.64761 30.4143C8.69523 30.4238 8.73332 30.4333 8.78094 30.4428C8.79999 30.4428 8.81904 30.4524 8.83808 30.4524C8.87618 30.4619 8.91427 30.4619 8.95237 30.4714C8.97142 30.4714 8.99046 30.4714 9.01904 30.4809C9.05713 30.4809 9.10475 30.4905 9.14285 30.4905H70.3333V41.0619H56.4285C52.6476 41.0619 49.5714 44.1381 49.5714 47.919C49.5714 51.6999 52.6476 54.7761 56.4285 54.7761H70.3333V63.6333C70.3333 66.5761 67.9428 68.9666 65.0094 68.9761Z" fill="#002882"/>
<path d="M80.8761 52.0047C80.3999 52.0047 80.1618 51.719 79.6666 51.0333C79.1809 50.3476 78.5237 49.4142 77.219 49.4142C75.9142 49.4142 75.2475 50.3476 74.7713 51.0333C74.2856 51.7285 74.038 52.0047 73.5618 52.0047C73.0856 52.0047 72.8475 51.719 72.3523 51.0333C72.2094 50.8238 72.0475 50.5952 71.8571 50.3761V48.0619C72.2666 48.4523 72.8094 48.7666 73.5618 48.7666C74.8761 48.7666 75.5332 47.8333 76.0094 47.1476C76.4951 46.4523 76.7428 46.1761 77.219 46.1761C77.6951 46.1761 77.9332 46.4619 78.4285 47.1476C78.9142 47.8333 79.5713 48.7666 80.8761 48.7666C81.2951 48.7666 81.638 48.4238 81.638 48.0047C81.638 47.5857 81.2951 47.2428 80.8761 47.2428C80.3999 47.2428 80.1618 46.9571 79.6666 46.2714C79.1809 45.5857 78.5237 44.6523 77.219 44.6523C75.9142 44.6523 75.2475 45.5857 74.7713 46.2714C74.2856 46.9666 74.038 47.2428 73.5618 47.2428C73.0856 47.2428 72.8475 46.9571 72.3523 46.2714C72.2094 46.0619 72.0475 45.8333 71.8571 45.6142V29.7381C71.8571 29.319 71.5142 28.9762 71.0952 28.9762H67.0952V23.6428C67.0952 23.2238 66.7523 22.8809 66.3333 22.8809H59.4761V12.7857C59.4761 11.5286 58.4476 10.5 57.1904 10.5H15.4762C14.219 10.5 13.1905 11.5286 13.1905 12.7857V22.8809H9.38094C7.27618 22.8809 5.57142 24.5857 5.57142 26.6905V63.6428C5.57142 65.7952 6.57142 67.719 8.1238 68.9761H-0.238096C-0.657143 68.9761 -1 69.319 -1 69.738C-1 70.1571 -0.657143 70.4999 -0.238096 70.4999H78.238C78.6571 70.4999 78.9999 70.1571 78.9999 69.738C78.9999 69.319 78.6571 68.9761 78.238 68.9761H69.3047C70.8571 67.719 71.8571 65.7952 71.8571 63.6428V52.8238C72.2666 53.2142 72.8094 53.5285 73.5618 53.5285C74.8761 53.5285 75.5332 52.5952 76.0094 51.9095C76.4951 51.2142 76.7428 50.938 77.219 50.938C77.6951 50.938 77.9332 51.2238 78.4285 51.9095C78.9142 52.5952 79.5713 53.5285 80.8761 53.5285C81.2951 53.5285 81.638 53.1857 81.638 52.7666C81.638 52.3476 81.2951 52.0047 80.8761 52.0047ZM70.3333 53.2618H56.4285C53.4857 53.2618 51.0952 50.8714 51.0952 47.9285C51.0952 44.9857 53.4857 42.5952 56.4285 42.5952H70.3333V53.2618ZM14.7143 12.7857C14.7143 12.3667 15.0571 12.0238 15.4762 12.0238H57.1904C57.6095 12.0238 57.9523 12.3667 57.9523 12.7857V19.8333H14.7143V12.7857ZM14.7143 21.3571H57.9523V22.8809H14.7143V21.3571ZM14.7143 24.4047H57.9523V26.119H14.7143V24.4047ZM9.38094 24.4047H13.1905V26.8809C13.1905 27.3 13.5333 27.6428 13.9524 27.6428H58.7142C59.1333 27.6428 59.4761 27.3 59.4761 26.8809V24.4047H65.5714V28.9762H9.38094C8.1238 28.9762 7.09523 27.9476 7.09523 26.6905C7.09523 25.4333 8.11427 24.4047 9.38094 24.4047ZM65.0094 68.9761H12.4095C9.47618 68.9666 7.08571 66.5761 7.08571 63.6428V29.7285H7.09523C7.10475 29.7285 7.10475 29.7381 7.11428 29.7381C7.15237 29.7666 7.19047 29.7952 7.23809 29.8238C7.25713 29.8333 7.26666 29.8428 7.2857 29.8524C7.31428 29.8714 7.35237 29.9 7.38094 29.919C7.39999 29.9285 7.41904 29.9381 7.42856 29.9476C7.46666 29.9666 7.49523 29.9857 7.53332 30.0047C7.55237 30.0143 7.5619 30.0238 7.58094 30.0333C7.62856 30.0619 7.67618 30.0809 7.71428 30.1C7.7238 30.1 7.7238 30.1095 7.73332 30.1095C7.78094 30.1381 7.83809 30.1571 7.8857 30.1762C7.90475 30.1857 7.91428 30.1857 7.93332 30.1952C7.97142 30.2143 8.00951 30.2238 8.04761 30.2428C8.06666 30.2524 8.0857 30.2524 8.10475 30.2619C8.14285 30.2714 8.18094 30.2905 8.20951 30.3C8.22856 30.3095 8.24761 30.3095 8.26666 30.319C8.30475 30.3285 8.35237 30.3476 8.39047 30.3571C8.40951 30.3571 8.41904 30.3666 8.43808 30.3666C8.49523 30.3762 8.55237 30.3952 8.60951 30.4047C8.61904 30.4047 8.63808 30.4047 8.64761 30.4143C8.69523 30.4238 8.73332 30.4333 8.78094 30.4428C8.79999 30.4428 8.81904 30.4524 8.83808 30.4524C8.87618 30.4619 8.91427 30.4619 8.95237 30.4714C8.97142 30.4714 8.99046 30.4714 9.01904 30.4809C9.05713 30.4809 9.10475 30.4905 9.14285 30.4905H70.3333V41.0619H56.4285C52.6476 41.0619 49.5714 44.1381 49.5714 47.919C49.5714 51.6999 52.6476 54.7761 56.4285 54.7761H70.3333V63.6333C70.3333 66.5761 67.9428 68.9666 65.0094 68.9761Z" fill="black" fill-opacity="0.2"/>
</g>
<path id="Vector_10" d="M59.4761 26.5098C62.5237 26.5574 65.0475 25.1669 65.5713 24.9384V24.3955H59.4761V26.5098ZM13.1904 25.2622V24.405H9.38092C8.24759 24.405 7.30473 25.2336 7.12378 26.3193C8.80949 26.8812 10.1523 25.786 13.1904 25.2622Z" fill="white"/>
</g>
</g>
<defs>
<linearGradient id="paint0_linear_3502_74133" x1="13.9524" y1="19.0717" x2="58.7142" y2="19.0717" gradientUnits="userSpaceOnUse">
<stop stop-color="#0032A3"/>
<stop offset="0.25" stop-color="#1A51CB"/>
<stop offset="0.5" stop-color="#3B66C8"/>
<stop offset="0.75" stop-color="#1A51CB"/>
<stop offset="1" stop-color="#0032A3"/>
</linearGradient>
<linearGradient id="paint1_linear_3502_74133" x1="6.33325" y1="48.2142" x2="71.0951" y2="48.2142" gradientUnits="userSpaceOnUse">
<stop stop-color="#FFC136"/>
<stop offset="0.197568" stop-color="#FAC142"/>
<stop offset="0.525" stop-color="#FFD168"/>
<stop offset="0.771328" stop-color="#F5BC3A"/>
<stop offset="1" stop-color="#E09B00"/>
</linearGradient>
<linearGradient id="paint2_linear_3502_74133" x1="50.333" y1="47.9287" x2="71.0949" y2="47.9287" gradientUnits="userSpaceOnUse">
<stop stop-color="#0032A3"/>
<stop offset="0.25" stop-color="#1A51CB"/>
<stop offset="0.5" stop-color="#3B66C8"/>
<stop offset="0.75" stop-color="#1A51CB"/>
<stop offset="1" stop-color="#0032A3"/>
</linearGradient>
<clipPath id="clip0_3502_74133">
<rect width="80" height="80" fill="white" transform="translate(0 0.5)"/>
</clipPath>
</defs>
</svg>
