<svg width="1728" height="300" viewBox="0 0 1728 300" fill="none" xmlns="http://www.w3.org/2000/svg">
<g clip-path="url(#clip0_5055_11912)">
<rect width="1728" height="300" fill="#7A5AF8"/>
<path d="M1865.97 10.5618L1865.78 10.3718C1861.45 6.04461 1854.43 6.04504 1850.1 10.3727L1848.24 12.2331C1843.92 16.5607 1836.9 16.5611 1832.57 12.234L1832.38 12.044C1828.05 7.71681 1821.04 7.71725 1816.71 12.0449L1799.93 28.823C1795.55 33.2031 1788.45 33.2031 1784.07 28.823C1779.69 24.4428 1779.69 17.3412 1784.07 12.9611L1808.87 -11.8362C1813.19 -16.1638 1813.19 -23.1805 1808.87 -27.5077L1808.68 -27.6977C1804.35 -32.0253 1797.33 -32.0248 1793 -27.6972L1738.43 26.8737C1734.05 31.2538 1726.95 31.2538 1722.57 26.8737C1718.19 22.4935 1718.19 15.3919 1722.57 11.0118L1777.14 -43.5591C1781.47 -47.8867 1781.47 -54.9034 1777.14 -59.231L1776.95 -59.421C1772.62 -63.7486 1765.61 -63.7482 1761.28 -59.4206L1636.37 65.4881C1631.99 69.8682 1631.99 76.9698 1636.37 81.35C1640.75 85.7301 1640.75 92.8317 1636.37 97.2119L1581.89 151.688C1577.51 156.068 1577.51 163.17 1581.89 167.55C1586.27 171.93 1593.38 171.93 1597.76 167.55L1652.23 113.073C1656.61 108.693 1663.71 108.693 1668.09 113.073C1672.47 117.453 1672.47 124.555 1668.09 128.935L1643.39 153.637C1639.01 158.017 1639.01 165.119 1643.39 169.499C1647.77 173.879 1654.87 173.879 1659.25 169.499L1675.94 152.815C1680.32 148.434 1687.42 148.434 1691.8 152.815C1696.18 157.195 1703.28 157.195 1707.66 152.815L1709.34 151.142C1713.72 146.762 1720.82 146.762 1725.2 151.142C1729.58 155.522 1736.68 155.522 1741.06 151.142L1865.97 26.2337C1870.29 21.9061 1870.29 14.8894 1865.97 10.5618Z" fill="url(#paint0_linear_5055_11912)"/>
<path d="M1658.97 50.824C1663.25 55.1069 1663.25 62.051 1658.97 66.3344L1626.27 99.0265C1621.99 103.309 1621.99 110.253 1626.27 114.537C1630.56 118.82 1630.56 125.764 1626.27 130.047L1619.41 136.905C1615.13 141.188 1615.13 148.132 1619.41 152.416C1623.7 156.699 1630.64 156.699 1634.93 152.416L1745.17 42.1718C1749.45 37.8889 1749.45 30.9449 1745.17 26.6615C1740.89 22.3785 1740.89 15.4345 1745.17 11.1515L1752.03 4.29327C1756.31 0.0103226 1756.31 -6.93372 1752.03 -11.2171C1747.74 -15.5001 1747.74 -22.4441 1752.03 -26.7271L1784.72 -59.4196C1789 -63.7026 1789 -70.6466 1784.72 -74.9296C1780.44 -79.2125 1773.49 -79.2125 1769.21 -74.9296L1750.86 -56.5838C1746.58 -52.3009 1739.64 -52.3009 1735.35 -56.5838C1731.07 -60.8668 1724.13 -60.8668 1719.84 -56.5838L1695.92 -32.6647C1691.64 -28.3818 1684.7 -28.3818 1680.41 -32.6647C1676.13 -36.9477 1676.13 -43.8917 1680.41 -48.1751L1689.99 -57.7478C1694.27 -62.0308 1694.27 -68.9748 1689.99 -73.2582C1685.7 -77.5412 1685.7 -84.4852 1689.99 -88.7686L1709.5 -108.277C1713.78 -112.56 1713.78 -119.504 1709.5 -123.788C1705.21 -128.071 1698.27 -128.071 1693.99 -123.788L1674.48 -104.279C1670.19 -99.996 1663.25 -99.996 1658.97 -104.279C1654.68 -108.562 1647.74 -108.562 1643.46 -104.279L1533.21 5.96547C1528.93 10.2484 1528.93 17.1925 1533.21 21.4754C1537.5 25.7584 1544.44 25.7584 1548.72 21.4754L1568.23 1.96663C1572.51 -2.31632 1579.46 -2.31632 1583.74 1.96663C1588.02 6.24959 1588.02 13.1936 1583.74 17.477L1564.23 36.9858C1559.95 41.2688 1559.95 48.2128 1564.23 52.4962C1568.52 56.7791 1568.52 63.7232 1564.23 68.0061L1554.66 77.5789C1550.38 81.8618 1550.38 88.8059 1554.66 93.0892C1558.94 97.3722 1565.89 97.3722 1570.17 93.0892L1594.09 69.1697C1598.37 64.8867 1605.32 64.8867 1609.6 69.1697C1613.88 73.4526 1620.83 73.4526 1625.11 69.1697L1643.45 50.824C1647.74 46.5406 1654.68 46.5406 1658.97 50.824Z" fill="url(#paint1_linear_5055_11912)"/>
<path d="M1715.18 184C1721.38 184 1726.4 178.978 1726.4 172.784C1726.4 166.589 1721.38 161.568 1715.18 161.568C1708.99 161.568 1703.97 166.589 1703.97 172.784C1703.97 178.978 1708.99 184 1715.18 184Z" fill="url(#paint2_linear_5055_11912)"/>
<path d="M1544.63 118.135C1550.82 118.135 1555.85 113.113 1555.85 106.919C1555.85 100.724 1550.82 95.7026 1544.63 95.7026C1538.44 95.7026 1533.41 100.724 1533.41 106.919C1533.41 113.113 1538.44 118.135 1544.63 118.135Z" fill="url(#paint3_linear_5055_11912)"/>
<path d="M178.873 255.061L178.699 254.887C174.733 250.922 168.303 250.922 164.337 254.888L162.632 256.593C158.666 260.559 152.236 260.559 148.27 256.594L148.096 256.42C144.129 252.454 137.699 252.455 133.733 256.42L118.358 271.796C114.344 275.81 107.836 275.81 103.822 271.796C99.8078 267.782 99.8078 261.274 103.822 257.26L126.546 234.536C130.512 230.57 130.512 224.14 126.546 220.175L126.371 220C122.405 216.035 115.975 216.035 112.009 220.001L62.0003 270.01C57.9863 274.024 51.4784 274.024 47.4644 270.01C43.4505 265.996 43.4505 259.488 47.4644 255.474L97.4731 205.465C101.439 201.499 101.439 195.069 97.4731 191.103L97.299 190.929C93.3328 186.963 86.9027 186.964 82.9369 190.93L-31.5284 305.396C-35.5424 309.41 -35.5424 315.918 -31.5284 319.932C-27.5145 323.946 -27.5145 330.453 -31.5284 334.467L-81.4505 384.389C-85.4644 388.403 -85.4644 394.911 -81.4505 398.925C-77.4365 402.939 -70.9286 402.939 -66.9146 398.925L-16.9926 349.003C-12.9787 344.989 -6.47074 344.989 -2.45679 349.003C1.55716 353.017 1.55716 359.525 -2.45679 363.539L-25.0935 386.175C-29.1075 390.189 -29.1075 396.697 -25.0935 400.711C-21.0796 404.725 -14.5717 404.725 -10.5577 400.711L4.73189 385.422C8.74583 381.408 15.2537 381.408 19.2677 385.422C23.2816 389.436 29.7896 389.436 33.8035 385.422L35.3359 383.889C39.3499 379.875 45.8578 379.875 49.8718 383.889C53.8857 387.903 60.3936 387.903 64.4076 383.889L178.874 269.423C182.839 265.457 182.839 259.027 178.873 255.061Z" fill="url(#paint4_linear_5055_11912)"/>
<path d="M-10.8156 291.958C-6.89066 295.883 -6.89066 302.246 -10.8156 306.171L-40.775 336.13C-44.6999 340.055 -44.6999 346.419 -40.775 350.344C-36.8501 354.269 -36.8501 360.632 -40.775 364.557L-47.0602 370.843C-50.9851 374.768 -50.9851 381.131 -47.0602 385.056C-43.1353 388.981 -36.7714 388.981 -32.8465 385.056L68.181 284.029C72.1058 280.104 72.1058 273.74 68.181 269.815C64.2561 265.89 64.2561 259.527 68.181 255.602L74.4658 249.317C78.3907 245.392 78.3907 239.029 74.4658 235.103C70.5409 231.178 70.5409 224.815 74.4658 220.89L104.425 190.931C108.35 187.006 108.35 180.642 104.425 176.717C100.5 172.792 94.1368 172.792 90.2115 176.717L73.3996 193.529C69.4747 197.454 63.1111 197.454 59.1859 193.529C55.261 189.604 48.8975 189.604 44.9722 193.529L23.0527 215.449C19.1278 219.374 12.7643 219.374 8.83902 215.449C4.91412 211.524 4.91412 205.16 8.83902 201.235L17.6115 192.463C21.5363 188.538 21.5363 182.174 17.6115 178.249C13.6866 174.324 13.6866 167.961 17.6115 164.035L35.4893 146.157C39.4142 142.232 39.4142 135.869 35.4893 131.944C31.5644 128.019 25.2009 128.019 21.276 131.944L3.39815 149.822C-0.526749 153.746 -6.89027 153.746 -10.8156 149.822C-14.7404 145.897 -21.104 145.897 -25.0288 149.822L-126.056 250.849C-129.981 254.774 -129.981 261.138 -126.056 265.063C-122.131 268.988 -115.768 268.988 -111.843 265.063L-93.9652 247.185C-90.0403 243.26 -83.6768 243.26 -79.7515 247.185C-75.8266 251.11 -75.8266 257.473 -79.7515 261.399L-97.6293 279.276C-101.554 283.201 -101.554 289.565 -97.6293 293.49C-93.7044 297.415 -93.7044 303.778 -97.6293 307.703L-106.402 316.476C-110.327 320.401 -110.327 326.764 -106.402 330.689C-102.477 334.614 -96.1134 334.614 -92.1885 330.689L-70.2686 308.77C-66.3437 304.845 -59.9802 304.845 -56.0553 308.77C-52.1304 312.695 -45.7669 312.695 -41.842 308.77L-25.03 291.958C-21.1039 288.032 -14.7404 288.032 -10.8156 291.958Z" fill="url(#paint5_linear_5055_11912)"/>
<path d="M155.115 139V128.822L150.176 108.062H156.311L158.033 118.539L159.756 108.062H165.873L160.951 128.822V139H155.115ZM174.996 139.281C169.746 139.281 167.121 136.557 167.121 131.107V120.525C167.121 118.041 167.818 116.061 169.213 114.584C170.607 113.096 172.535 112.352 174.996 112.352C177.469 112.352 179.402 113.096 180.797 114.584C182.191 116.061 182.889 118.041 182.889 120.525V131.107C182.889 136.557 180.258 139.281 174.996 139.281ZM174.996 134.43C175.523 134.43 175.898 134.242 176.121 133.867C176.355 133.48 176.473 132.994 176.473 132.408V119.523C176.473 117.988 175.98 117.221 174.996 117.221C174.012 117.221 173.52 117.988 173.52 119.523V132.408C173.52 132.994 173.631 133.48 173.854 133.867C174.088 134.242 174.469 134.43 174.996 134.43ZM190.307 139.281C188.9 139.281 187.822 138.988 187.072 138.402C186.334 137.816 185.83 137.002 185.561 135.959C185.291 134.904 185.156 133.674 185.156 132.268V112.633H191.484V131.529C191.484 132.584 191.566 133.322 191.73 133.744C191.895 134.154 192.281 134.359 192.891 134.359C193.547 134.359 193.957 134.066 194.121 133.48C194.297 132.895 194.385 132.139 194.385 131.213V112.633H200.66V139H194.367V136.188C193.969 137.195 193.488 137.963 192.926 138.49C192.375 139.018 191.502 139.281 190.307 139.281ZM216.814 139.281C215.596 139.281 214.629 139.059 213.914 138.613C213.199 138.168 212.666 137.553 212.314 136.768C211.963 135.982 211.729 135.062 211.611 134.008C211.506 132.953 211.453 131.822 211.453 130.615V119.154C211.453 117.127 211.811 115.486 212.525 114.232C213.252 112.979 214.477 112.352 216.199 112.352C217.477 112.352 218.455 112.627 219.135 113.178C219.826 113.717 220.359 114.473 220.734 115.445V108.062H227.133V139H220.734V136.205C220.383 137.154 219.914 137.904 219.328 138.455C218.754 139.006 217.916 139.281 216.814 139.281ZM219.223 134.359C219.82 134.359 220.219 134.119 220.418 133.639C220.629 133.158 220.734 132.297 220.734 131.055V119.963C220.734 119.342 220.641 118.732 220.453 118.135C220.277 117.525 219.879 117.221 219.258 117.221C218.578 117.221 218.15 117.508 217.975 118.082C217.799 118.656 217.711 119.283 217.711 119.963V131.055C217.711 133.258 218.215 134.359 219.223 134.359ZM236.941 139.281C235.066 139.281 233.572 138.93 232.459 138.227C231.346 137.523 230.549 136.51 230.068 135.186C229.588 133.861 229.348 132.268 229.348 130.404V119.805C229.348 117.355 230.051 115.504 231.457 114.25C232.863 112.984 234.797 112.352 237.258 112.352C242.32 112.352 244.852 114.836 244.852 119.805V121.721C244.852 124.041 244.828 125.6 244.781 126.396H235.641V131.494C235.641 131.963 235.67 132.426 235.729 132.883C235.787 133.328 235.916 133.697 236.115 133.99C236.326 134.283 236.66 134.43 237.117 134.43C237.773 134.43 238.184 134.148 238.348 133.586C238.512 133.012 238.594 132.268 238.594 131.354V128.822H244.852V130.316C244.852 132.285 244.605 133.938 244.113 135.273C243.633 136.598 242.812 137.6 241.652 138.279C240.504 138.947 238.934 139.281 236.941 139.281ZM235.605 123.268H238.594V119.717C238.594 118.768 238.477 118.088 238.242 117.678C238.008 117.256 237.656 117.045 237.188 117.045C236.684 117.045 236.291 117.244 236.01 117.643C235.74 118.041 235.605 118.732 235.605 119.717V123.268ZM247.137 139V108.062H253.535V139H247.137ZM256.031 111.016V105.777H262.324V111.016H256.031ZM256.031 139V112.633H262.324V139H256.031ZM268.178 139L263.941 112.633H270.252L271.764 130.246L273.469 112.633H279.762L275.455 139H268.178ZM288.797 139.281C286.922 139.281 285.428 138.93 284.314 138.227C283.201 137.523 282.404 136.51 281.924 135.186C281.443 133.861 281.203 132.268 281.203 130.404V119.805C281.203 117.355 281.906 115.504 283.312 114.25C284.719 112.984 286.652 112.352 289.113 112.352C294.176 112.352 296.707 114.836 296.707 119.805V121.721C296.707 124.041 296.684 125.6 296.637 126.396H287.496V131.494C287.496 131.963 287.525 132.426 287.584 132.883C287.643 133.328 287.771 133.697 287.971 133.99C288.182 134.283 288.516 134.43 288.973 134.43C289.629 134.43 290.039 134.148 290.203 133.586C290.367 133.012 290.449 132.268 290.449 131.354V128.822H296.707V130.316C296.707 132.285 296.461 133.938 295.969 135.273C295.488 136.598 294.668 137.6 293.508 138.279C292.359 138.947 290.789 139.281 288.797 139.281ZM287.461 123.268H290.449V119.717C290.449 118.768 290.332 118.088 290.098 117.678C289.863 117.256 289.512 117.045 289.043 117.045C288.539 117.045 288.146 117.244 287.865 117.643C287.596 118.041 287.461 118.732 287.461 119.717V123.268ZM298.992 139V112.633H305.391V115.568C305.695 114.549 306.234 113.752 307.008 113.178C307.781 112.604 308.754 112.316 309.926 112.316V117.572C309.41 117.572 308.795 117.631 308.08 117.748C307.365 117.854 306.738 118.006 306.199 118.205C305.66 118.393 305.391 118.604 305.391 118.838V139H298.992ZM325.324 139.281C323.625 139.281 322.477 138.924 321.879 138.209C321.293 137.482 321 136.375 321 134.887V118.451H319.225V113.652H321V108.062H327.117V113.652H328.893V118.451H327.117V133.41C327.117 133.844 327.188 134.148 327.328 134.324C327.469 134.5 327.738 134.588 328.137 134.588C328.418 134.588 328.67 134.564 328.893 134.518V138.807C328.752 138.854 328.312 138.941 327.574 139.07C326.836 139.211 326.086 139.281 325.324 139.281ZM338.578 139.281C333.328 139.281 330.703 136.557 330.703 131.107V120.525C330.703 118.041 331.4 116.061 332.795 114.584C334.189 113.096 336.117 112.352 338.578 112.352C341.051 112.352 342.984 113.096 344.379 114.584C345.773 116.061 346.471 118.041 346.471 120.525V131.107C346.471 136.557 343.84 139.281 338.578 139.281ZM338.578 134.43C339.105 134.43 339.48 134.242 339.703 133.867C339.938 133.48 340.055 132.994 340.055 132.408V119.523C340.055 117.988 339.562 117.221 338.578 117.221C337.594 117.221 337.102 117.988 337.102 119.523V132.408C337.102 132.994 337.213 133.48 337.436 133.867C337.67 134.242 338.051 134.43 338.578 134.43ZM348.809 143.395V112.633H355.207V115.445C355.594 114.473 356.127 113.717 356.807 113.178C357.498 112.627 358.482 112.352 359.76 112.352C361.482 112.352 362.695 112.979 363.398 114.232C364.113 115.486 364.471 117.127 364.471 119.154V132.127C364.471 133.475 364.277 134.693 363.891 135.783C363.516 136.861 362.918 137.717 362.098 138.35C361.289 138.971 360.229 139.281 358.916 139.281C357.205 139.281 355.969 138.25 355.207 136.188V143.395H348.809ZM356.701 134.377C357.357 134.377 357.75 134.049 357.879 133.393C358.02 132.736 358.09 131.928 358.09 130.967V120.666C358.09 119.693 358.02 118.885 357.879 118.24C357.75 117.584 357.357 117.256 356.701 117.256C356.021 117.256 355.6 117.59 355.436 118.258C355.283 118.914 355.207 119.717 355.207 120.666V130.967C355.207 131.916 355.283 132.725 355.436 133.393C355.6 134.049 356.021 134.377 356.701 134.377ZM366.668 130.053V125.975H375.738V130.053H366.668ZM378.094 139V112.633H384.387V115.99C384.621 114.982 385.055 114.127 385.688 113.424C386.332 112.709 387.223 112.352 388.359 112.352C390.188 112.352 391.512 112.914 392.332 114.039C393.164 115.164 393.58 116.705 393.58 118.662V139H387.375V119.312C387.375 118.797 387.27 118.322 387.059 117.889C386.848 117.443 386.484 117.221 385.969 117.221C385.488 117.221 385.131 117.391 384.896 117.73C384.674 118.059 384.533 118.475 384.475 118.979C384.416 119.471 384.387 119.963 384.387 120.455V139H378.094ZM403.723 139.281C398.473 139.281 395.848 136.557 395.848 131.107V120.525C395.848 118.041 396.545 116.061 397.939 114.584C399.334 113.096 401.262 112.352 403.723 112.352C406.195 112.352 408.129 113.096 409.523 114.584C410.918 116.061 411.615 118.041 411.615 120.525V131.107C411.615 136.557 408.984 139.281 403.723 139.281ZM403.723 134.43C404.25 134.43 404.625 134.242 404.848 133.867C405.082 133.48 405.199 132.994 405.199 132.408V119.523C405.199 117.988 404.707 117.221 403.723 117.221C402.738 117.221 402.246 117.988 402.246 119.523V132.408C402.246 132.994 402.357 133.48 402.58 133.867C402.814 134.242 403.195 134.43 403.723 134.43ZM419.367 139.281C417.668 139.281 416.52 138.924 415.922 138.209C415.336 137.482 415.043 136.375 415.043 134.887V118.451H413.268V113.652H415.043V108.062H421.16V113.652H422.936V118.451H421.16V133.41C421.16 133.844 421.23 134.148 421.371 134.324C421.512 134.5 421.781 134.588 422.18 134.588C422.461 134.588 422.713 134.564 422.936 134.518V138.807C422.795 138.854 422.355 138.941 421.617 139.07C420.879 139.211 420.129 139.281 419.367 139.281ZM432.885 139.281C429.932 139.281 427.834 138.525 426.592 137.014C425.361 135.502 424.746 133.281 424.746 130.352V122.23C424.746 120.027 424.98 118.193 425.449 116.729C425.918 115.264 426.738 114.168 427.91 113.441C429.082 112.715 430.711 112.352 432.797 112.352C434.25 112.352 435.551 112.609 436.699 113.125C437.859 113.641 438.773 114.396 439.441 115.393C440.109 116.389 440.443 117.607 440.443 119.049V123.074H434.027V119.383C434.027 118.773 433.939 118.264 433.764 117.854C433.588 117.432 433.207 117.221 432.621 117.221C431.59 117.221 431.074 117.953 431.074 119.418V132.197C431.074 132.736 431.191 133.234 431.426 133.691C431.66 134.137 432.047 134.359 432.586 134.359C433.137 134.359 433.518 134.143 433.729 133.709C433.951 133.264 434.062 132.748 434.062 132.162V127.732H440.443V132.338C440.443 133.791 440.115 135.039 439.459 136.082C438.814 137.113 437.924 137.904 436.787 138.455C435.65 139.006 434.35 139.281 432.885 139.281ZM442.641 139V108.062H449.109V115.252C449.449 114.268 449.971 113.541 450.674 113.072C451.377 112.592 452.197 112.352 453.135 112.352C454.963 112.352 456.293 112.926 457.125 114.074C457.957 115.223 458.373 116.764 458.373 118.697V139H452.01V119.102C452.01 118.527 451.887 118.059 451.641 117.695C451.406 117.332 451.031 117.15 450.516 117.15C450.082 117.15 449.736 117.338 449.479 117.713C449.232 118.088 449.109 118.533 449.109 119.049V139H442.641ZM469.289 143.395V112.633H475.688V115.445C476.074 114.473 476.607 113.717 477.287 113.178C477.979 112.627 478.963 112.352 480.24 112.352C481.963 112.352 483.176 112.979 483.879 114.232C484.594 115.486 484.951 117.127 484.951 119.154V132.127C484.951 133.475 484.758 134.693 484.371 135.783C483.996 136.861 483.398 137.717 482.578 138.35C481.77 138.971 480.709 139.281 479.396 139.281C477.686 139.281 476.449 138.25 475.688 136.188V143.395H469.289ZM477.182 134.377C477.838 134.377 478.23 134.049 478.359 133.393C478.5 132.736 478.57 131.928 478.57 130.967V120.666C478.57 119.693 478.5 118.885 478.359 118.24C478.23 117.584 477.838 117.256 477.182 117.256C476.502 117.256 476.08 117.59 475.916 118.258C475.764 118.914 475.688 119.717 475.688 120.666V130.967C475.688 131.916 475.764 132.725 475.916 133.393C476.08 134.049 476.502 134.377 477.182 134.377ZM487.359 139V112.633H493.758V115.568C494.062 114.549 494.602 113.752 495.375 113.178C496.148 112.604 497.121 112.316 498.293 112.316V117.572C497.777 117.572 497.162 117.631 496.447 117.748C495.732 117.854 495.105 118.006 494.566 118.205C494.027 118.393 493.758 118.604 493.758 118.838V139H487.359ZM507.504 139.281C502.254 139.281 499.629 136.557 499.629 131.107V120.525C499.629 118.041 500.326 116.061 501.721 114.584C503.115 113.096 505.043 112.352 507.504 112.352C509.977 112.352 511.91 113.096 513.305 114.584C514.699 116.061 515.396 118.041 515.396 120.525V131.107C515.396 136.557 512.766 139.281 507.504 139.281ZM507.504 134.43C508.031 134.43 508.406 134.242 508.629 133.867C508.863 133.48 508.98 132.994 508.98 132.408V119.523C508.98 117.988 508.488 117.221 507.504 117.221C506.52 117.221 506.027 117.988 506.027 119.523V132.408C506.027 132.994 506.139 133.48 506.361 133.867C506.596 134.242 506.977 134.43 507.504 134.43ZM522.92 139.281C521.701 139.281 520.734 139.059 520.02 138.613C519.305 138.168 518.771 137.553 518.42 136.768C518.068 135.982 517.834 135.062 517.717 134.008C517.611 132.953 517.559 131.822 517.559 130.615V119.154C517.559 117.127 517.916 115.486 518.631 114.232C519.357 112.979 520.582 112.352 522.305 112.352C523.582 112.352 524.561 112.627 525.24 113.178C525.932 113.717 526.465 114.473 526.84 115.445V108.062H533.238V139H526.84V136.205C526.488 137.154 526.02 137.904 525.434 138.455C524.859 139.006 524.021 139.281 522.92 139.281ZM525.328 134.359C525.926 134.359 526.324 134.119 526.523 133.639C526.734 133.158 526.84 132.297 526.84 131.055V119.963C526.84 119.342 526.746 118.732 526.559 118.135C526.383 117.525 525.984 117.221 525.363 117.221C524.684 117.221 524.256 117.508 524.08 118.082C523.904 118.656 523.816 119.283 523.816 119.963V131.055C523.816 133.258 524.32 134.359 525.328 134.359ZM540.744 139.281C539.338 139.281 538.26 138.988 537.51 138.402C536.771 137.816 536.268 137.002 535.998 135.959C535.729 134.904 535.594 133.674 535.594 132.268V112.633H541.922V131.529C541.922 132.584 542.004 133.322 542.168 133.744C542.332 134.154 542.719 134.359 543.328 134.359C543.984 134.359 544.395 134.066 544.559 133.48C544.734 132.895 544.822 132.139 544.822 131.213V112.633H551.098V139H544.805V136.188C544.406 137.195 543.926 137.963 543.363 138.49C542.812 139.018 541.939 139.281 540.744 139.281ZM561.557 139.281C558.604 139.281 556.506 138.525 555.264 137.014C554.033 135.502 553.418 133.281 553.418 130.352V122.23C553.418 120.027 553.652 118.193 554.121 116.729C554.59 115.264 555.41 114.168 556.582 113.441C557.754 112.715 559.383 112.352 561.469 112.352C562.922 112.352 564.223 112.609 565.371 113.125C566.531 113.641 567.445 114.396 568.113 115.393C568.781 116.389 569.115 117.607 569.115 119.049V123.074H562.699V119.383C562.699 118.773 562.611 118.264 562.436 117.854C562.26 117.432 561.879 117.221 561.293 117.221C560.262 117.221 559.746 117.953 559.746 119.418V132.197C559.746 132.736 559.863 133.234 560.098 133.691C560.332 134.137 560.719 134.359 561.258 134.359C561.809 134.359 562.189 134.143 562.4 133.709C562.623 133.264 562.734 132.748 562.734 132.162V127.732H569.115V132.338C569.115 133.791 568.787 135.039 568.131 136.082C567.486 137.113 566.596 137.904 565.459 138.455C564.322 139.006 563.021 139.281 561.557 139.281ZM576.727 139.281C575.027 139.281 573.879 138.924 573.281 138.209C572.695 137.482 572.402 136.375 572.402 134.887V118.451H570.627V113.652H572.402V108.062H578.52V113.652H580.295V118.451H578.52V133.41C578.52 133.844 578.59 134.148 578.73 134.324C578.871 134.5 579.141 134.588 579.539 134.588C579.82 134.588 580.072 134.564 580.295 134.518V138.807C580.154 138.854 579.715 138.941 578.977 139.07C578.238 139.211 577.488 139.281 576.727 139.281ZM589.541 139.281C584.338 139.281 581.736 136.645 581.736 131.371V129.279H588.064V132.373C588.064 132.971 588.182 133.439 588.416 133.779C588.65 134.119 589.025 134.289 589.541 134.289C590.455 134.289 590.912 133.604 590.912 132.232C590.912 131.084 590.672 130.229 590.191 129.666C589.711 129.092 589.125 128.541 588.434 128.014L585.076 125.43C584.021 124.609 583.219 123.742 582.668 122.828C582.117 121.914 581.842 120.643 581.842 119.014C581.842 117.502 582.199 116.254 582.914 115.27C583.641 114.285 584.596 113.553 585.779 113.072C586.975 112.592 588.264 112.352 589.646 112.352C594.756 112.352 597.311 114.9 597.311 119.998V120.49H590.807V119.488C590.807 118.961 590.713 118.451 590.525 117.959C590.35 117.467 589.998 117.221 589.471 117.221C588.58 117.221 588.135 117.689 588.135 118.627C588.135 119.576 588.51 120.32 589.26 120.859L593.162 123.707C594.381 124.586 595.4 125.629 596.221 126.836C597.053 128.043 597.469 129.648 597.469 131.652C597.469 134.137 596.76 136.029 595.342 137.33C593.936 138.631 592.002 139.281 589.541 139.281ZM599.104 138.982V133.744H605.396V138.982H599.104ZM618.598 139L615.275 108.062H621.322L623.027 127.592L624.768 108.062H630.533L632.186 127.592L633.838 108.062H639.955L636.58 139H629.162L627.615 124.111L626.139 139H618.598ZM649.078 139.281C647.203 139.281 645.709 138.93 644.596 138.227C643.482 137.523 642.686 136.51 642.205 135.186C641.725 133.861 641.484 132.268 641.484 130.404V119.805C641.484 117.355 642.188 115.504 643.594 114.25C645 112.984 646.934 112.352 649.395 112.352C654.457 112.352 656.988 114.836 656.988 119.805V121.721C656.988 124.041 656.965 125.6 656.918 126.396H647.777V131.494C647.777 131.963 647.807 132.426 647.865 132.883C647.924 133.328 648.053 133.697 648.252 133.99C648.463 134.283 648.797 134.43 649.254 134.43C649.91 134.43 650.32 134.148 650.484 133.586C650.648 133.012 650.73 132.268 650.73 131.354V128.822H656.988V130.316C656.988 132.285 656.742 133.938 656.25 135.273C655.77 136.598 654.949 137.6 653.789 138.279C652.641 138.947 651.07 139.281 649.078 139.281ZM647.742 123.268H650.73V119.717C650.73 118.768 650.613 118.088 650.379 117.678C650.145 117.256 649.793 117.045 649.324 117.045C648.82 117.045 648.428 117.244 648.146 117.643C647.877 118.041 647.742 118.732 647.742 119.717V123.268ZM672.896 139.281C671.678 139.281 670.711 139.059 669.996 138.613C669.281 138.168 668.748 137.553 668.396 136.768C668.045 135.982 667.811 135.062 667.693 134.008C667.588 132.953 667.535 131.822 667.535 130.615V119.154C667.535 117.127 667.893 115.486 668.607 114.232C669.334 112.979 670.559 112.352 672.281 112.352C673.559 112.352 674.537 112.627 675.217 113.178C675.908 113.717 676.441 114.473 676.816 115.445V108.062H683.215V139H676.816V136.205C676.465 137.154 675.996 137.904 675.41 138.455C674.836 139.006 673.998 139.281 672.896 139.281ZM675.305 134.359C675.902 134.359 676.301 134.119 676.5 133.639C676.711 133.158 676.816 132.297 676.816 131.055V119.963C676.816 119.342 676.723 118.732 676.535 118.135C676.359 117.525 675.961 117.221 675.34 117.221C674.66 117.221 674.232 117.508 674.057 118.082C673.881 118.656 673.793 119.283 673.793 119.963V131.055C673.793 133.258 674.297 134.359 675.305 134.359ZM693.023 139.281C691.148 139.281 689.654 138.93 688.541 138.227C687.428 137.523 686.631 136.51 686.15 135.186C685.67 133.861 685.43 132.268 685.43 130.404V119.805C685.43 117.355 686.133 115.504 687.539 114.25C688.945 112.984 690.879 112.352 693.34 112.352C698.402 112.352 700.934 114.836 700.934 119.805V121.721C700.934 124.041 700.91 125.6 700.863 126.396H691.723V131.494C691.723 131.963 691.752 132.426 691.811 132.883C691.869 133.328 691.998 133.697 692.197 133.99C692.408 134.283 692.742 134.43 693.199 134.43C693.855 134.43 694.266 134.148 694.43 133.586C694.594 133.012 694.676 132.268 694.676 131.354V128.822H700.934V130.316C700.934 132.285 700.688 133.938 700.195 135.273C699.715 136.598 698.895 137.6 697.734 138.279C696.586 138.947 695.016 139.281 693.023 139.281ZM691.688 123.268H694.676V119.717C694.676 118.768 694.559 118.088 694.324 117.678C694.09 117.256 693.738 117.045 693.27 117.045C692.766 117.045 692.373 117.244 692.092 117.643C691.822 118.041 691.688 118.732 691.688 119.717V123.268ZM703.219 139V108.062H709.617V139H703.219ZM712.113 111.016V105.777H718.406V111.016H712.113ZM712.113 139V112.633H718.406V139H712.113ZM724.26 139L720.023 112.633H726.334L727.846 130.246L729.551 112.633H735.844L731.537 139H724.26ZM744.879 139.281C743.004 139.281 741.51 138.93 740.396 138.227C739.283 137.523 738.486 136.51 738.006 135.186C737.525 133.861 737.285 132.268 737.285 130.404V119.805C737.285 117.355 737.988 115.504 739.395 114.25C740.801 112.984 742.734 112.352 745.195 112.352C750.258 112.352 752.789 114.836 752.789 119.805V121.721C752.789 124.041 752.766 125.6 752.719 126.396H743.578V131.494C743.578 131.963 743.607 132.426 743.666 132.883C743.725 133.328 743.854 133.697 744.053 133.99C744.264 134.283 744.598 134.43 745.055 134.43C745.711 134.43 746.121 134.148 746.285 133.586C746.449 133.012 746.531 132.268 746.531 131.354V128.822H752.789V130.316C752.789 132.285 752.543 133.938 752.051 135.273C751.57 136.598 750.75 137.6 749.59 138.279C748.441 138.947 746.871 139.281 744.879 139.281ZM743.543 123.268H746.531V119.717C746.531 118.768 746.414 118.088 746.18 117.678C745.945 117.256 745.594 117.045 745.125 117.045C744.621 117.045 744.229 117.244 743.947 117.643C743.678 118.041 743.543 118.732 743.543 119.717V123.268ZM755.074 139V112.633H761.473V115.568C761.777 114.549 762.316 113.752 763.09 113.178C763.863 112.604 764.836 112.316 766.008 112.316V117.572C765.492 117.572 764.877 117.631 764.162 117.748C763.447 117.854 762.82 118.006 762.281 118.205C761.742 118.393 761.473 118.604 761.473 118.838V139H755.074ZM781.406 139.281C779.707 139.281 778.559 138.924 777.961 138.209C777.375 137.482 777.082 136.375 777.082 134.887V118.451H775.307V113.652H777.082V108.062H783.199V113.652H784.975V118.451H783.199V133.41C783.199 133.844 783.27 134.148 783.41 134.324C783.551 134.5 783.82 134.588 784.219 134.588C784.5 134.588 784.752 134.564 784.975 134.518V138.807C784.834 138.854 784.395 138.941 783.656 139.07C782.918 139.211 782.168 139.281 781.406 139.281ZM786.996 139V108.062H793.465V115.252C793.805 114.268 794.326 113.541 795.029 113.072C795.732 112.592 796.553 112.352 797.49 112.352C799.318 112.352 800.648 112.926 801.48 114.074C802.312 115.223 802.729 116.764 802.729 118.697V139H796.365V119.102C796.365 118.527 796.242 118.059 795.996 117.695C795.762 117.332 795.387 117.15 794.871 117.15C794.438 117.15 794.092 117.338 793.834 117.713C793.588 118.088 793.465 118.533 793.465 119.049V139H786.996ZM812.59 139.281C810.715 139.281 809.221 138.93 808.107 138.227C806.994 137.523 806.197 136.51 805.717 135.186C805.236 133.861 804.996 132.268 804.996 130.404V119.805C804.996 117.355 805.699 115.504 807.105 114.25C808.512 112.984 810.445 112.352 812.906 112.352C817.969 112.352 820.5 114.836 820.5 119.805V121.721C820.5 124.041 820.477 125.6 820.43 126.396H811.289V131.494C811.289 131.963 811.318 132.426 811.377 132.883C811.436 133.328 811.564 133.697 811.764 133.99C811.975 134.283 812.309 134.43 812.766 134.43C813.422 134.43 813.832 134.148 813.996 133.586C814.16 133.012 814.242 132.268 814.242 131.354V128.822H820.5V130.316C820.5 132.285 820.254 133.938 819.762 135.273C819.281 136.598 818.461 137.6 817.301 138.279C816.152 138.947 814.582 139.281 812.59 139.281ZM811.254 123.268H814.242V119.717C814.242 118.768 814.125 118.088 813.891 117.678C813.656 117.256 813.305 117.045 812.836 117.045C812.332 117.045 811.939 117.244 811.658 117.643C811.389 118.041 811.254 118.732 811.254 119.717V123.268ZM822.785 139V112.633H828.938V115.691C829.219 114.613 829.699 113.787 830.379 113.213C831.059 112.639 832.055 112.352 833.367 112.352C834.422 112.352 835.318 112.598 836.057 113.09C836.807 113.57 837.334 114.209 837.639 115.006C838.119 114.139 838.682 113.482 839.326 113.037C839.982 112.58 840.914 112.352 842.121 112.352C843.586 112.352 844.711 112.668 845.496 113.301C846.293 113.922 846.844 114.789 847.148 115.902C847.465 117.004 847.623 118.281 847.623 119.734V139H841.348V119.629C841.348 117.93 840.914 117.08 840.047 117.08C839.59 117.08 839.238 117.238 838.992 117.555C838.746 117.859 838.576 118.24 838.482 118.697C838.389 119.154 838.342 119.611 838.342 120.068V139H832.066V119.629C832.066 119.078 831.996 118.527 831.855 117.977C831.727 117.426 831.387 117.15 830.836 117.15C830.367 117.15 830.004 117.32 829.746 117.66C829.488 118 829.312 118.422 829.219 118.926C829.125 119.418 829.078 119.904 829.078 120.385V139H822.785ZM863.953 139.281C862.254 139.281 861.105 138.924 860.508 138.209C859.922 137.482 859.629 136.375 859.629 134.887V118.451H857.854V113.652H859.629V108.062H865.746V113.652H867.521V118.451H865.746V133.41C865.746 133.844 865.816 134.148 865.957 134.324C866.098 134.5 866.367 134.588 866.766 134.588C867.047 134.588 867.299 134.564 867.521 134.518V138.807C867.381 138.854 866.941 138.941 866.203 139.07C865.465 139.211 864.715 139.281 863.953 139.281ZM877.207 139.281C871.957 139.281 869.332 136.557 869.332 131.107V120.525C869.332 118.041 870.029 116.061 871.424 114.584C872.818 113.096 874.746 112.352 877.207 112.352C879.68 112.352 881.613 113.096 883.008 114.584C884.402 116.061 885.1 118.041 885.1 120.525V131.107C885.1 136.557 882.469 139.281 877.207 139.281ZM877.207 134.43C877.734 134.43 878.109 134.242 878.332 133.867C878.566 133.48 878.684 132.994 878.684 132.408V119.523C878.684 117.988 878.191 117.221 877.207 117.221C876.223 117.221 875.73 117.988 875.73 119.523V132.408C875.73 132.994 875.842 133.48 876.064 133.867C876.299 134.242 876.68 134.43 877.207 134.43ZM895.875 139V112.633H902.027V115.691C902.309 114.613 902.789 113.787 903.469 113.213C904.148 112.639 905.145 112.352 906.457 112.352C907.512 112.352 908.408 112.598 909.146 113.09C909.896 113.57 910.424 114.209 910.729 115.006C911.209 114.139 911.771 113.482 912.416 113.037C913.072 112.58 914.004 112.352 915.211 112.352C916.676 112.352 917.801 112.668 918.586 113.301C919.383 113.922 919.934 114.789 920.238 115.902C920.555 117.004 920.713 118.281 920.713 119.734V139H914.438V119.629C914.438 117.93 914.004 117.08 913.137 117.08C912.68 117.08 912.328 117.238 912.082 117.555C911.836 117.859 911.666 118.24 911.572 118.697C911.479 119.154 911.432 119.611 911.432 120.068V139H905.156V119.629C905.156 119.078 905.086 118.527 904.945 117.977C904.816 117.426 904.477 117.15 903.926 117.15C903.457 117.15 903.094 117.32 902.836 117.66C902.578 118 902.402 118.422 902.309 118.926C902.215 119.418 902.168 119.904 902.168 120.385V139H895.875ZM923.156 111.016V105.777H929.449V111.016H923.156ZM923.156 139V112.633H929.449V139H923.156ZM931.945 139V108.062H938.344V139H931.945ZM940.875 139V108.062H947.273V139H940.875ZM949.77 111.016V105.777H956.062V111.016H949.77ZM949.77 139V112.633H956.062V139H949.77ZM966.223 139.281C960.973 139.281 958.348 136.557 958.348 131.107V120.525C958.348 118.041 959.045 116.061 960.439 114.584C961.834 113.096 963.762 112.352 966.223 112.352C968.695 112.352 970.629 113.096 972.023 114.584C973.418 116.061 974.115 118.041 974.115 120.525V131.107C974.115 136.557 971.484 139.281 966.223 139.281ZM966.223 134.43C966.75 134.43 967.125 134.242 967.348 133.867C967.582 133.48 967.699 132.994 967.699 132.408V119.523C967.699 117.988 967.207 117.221 966.223 117.221C965.238 117.221 964.746 117.988 964.746 119.523V132.408C964.746 132.994 964.857 133.48 965.08 133.867C965.314 134.242 965.695 134.43 966.223 134.43ZM976.453 139V112.633H982.746V115.99C982.98 114.982 983.414 114.127 984.047 113.424C984.691 112.709 985.582 112.352 986.719 112.352C988.547 112.352 989.871 112.914 990.691 114.039C991.523 115.164 991.939 116.705 991.939 118.662V139H985.734V119.312C985.734 118.797 985.629 118.322 985.418 117.889C985.207 117.443 984.844 117.221 984.328 117.221C983.848 117.221 983.49 117.391 983.256 117.73C983.033 118.059 982.893 118.475 982.834 118.979C982.775 119.471 982.746 119.963 982.746 120.455V139H976.453ZM1001.64 139.281C996.439 139.281 993.838 136.645 993.838 131.371V129.279H1000.17V132.373C1000.17 132.971 1000.28 133.439 1000.52 133.779C1000.75 134.119 1001.13 134.289 1001.64 134.289C1002.56 134.289 1003.01 133.604 1003.01 132.232C1003.01 131.084 1002.77 130.229 1002.29 129.666C1001.81 129.092 1001.23 128.541 1000.54 128.014L997.178 125.43C996.123 124.609 995.32 123.742 994.77 122.828C994.219 121.914 993.943 120.643 993.943 119.014C993.943 117.502 994.301 116.254 995.016 115.27C995.742 114.285 996.697 113.553 997.881 113.072C999.076 112.592 1000.37 112.352 1001.75 112.352C1006.86 112.352 1009.41 114.9 1009.41 119.998V120.49H1002.91V119.488C1002.91 118.961 1002.81 118.451 1002.63 117.959C1002.45 117.467 1002.1 117.221 1001.57 117.221C1000.68 117.221 1000.24 117.689 1000.24 118.627C1000.24 119.576 1000.61 120.32 1001.36 120.859L1005.26 123.707C1006.48 124.586 1007.5 125.629 1008.32 126.836C1009.15 128.043 1009.57 129.648 1009.57 131.652C1009.57 134.137 1008.86 136.029 1007.44 137.33C1006.04 138.631 1004.1 139.281 1001.64 139.281ZM1027.61 139.281C1022.36 139.281 1019.73 136.557 1019.73 131.107V120.525C1019.73 118.041 1020.43 116.061 1021.82 114.584C1023.22 113.096 1025.14 112.352 1027.61 112.352C1030.08 112.352 1032.01 113.096 1033.41 114.584C1034.8 116.061 1035.5 118.041 1035.5 120.525V131.107C1035.5 136.557 1032.87 139.281 1027.61 139.281ZM1027.61 134.43C1028.13 134.43 1028.51 134.242 1028.73 133.867C1028.96 133.48 1029.08 132.994 1029.08 132.408V119.523C1029.08 117.988 1028.59 117.221 1027.61 117.221C1026.62 117.221 1026.13 117.988 1026.13 119.523V132.408C1026.13 132.994 1026.24 133.48 1026.46 133.867C1026.7 134.242 1027.08 134.43 1027.61 134.43ZM1038.42 139V118.592H1037.27V113.793H1038.42V112C1038.42 109.164 1039.83 107.746 1042.67 107.746C1044.01 107.746 1045.08 107.916 1045.9 108.256V112.141C1045.61 112.082 1045.42 112.053 1045.32 112.053C1044.96 112.053 1044.74 112.188 1044.66 112.457C1044.57 112.715 1044.53 113.049 1044.53 113.459V113.793H1045.9V118.662H1044.66V139H1038.42ZM1064.29 139.281C1061.34 139.281 1059.24 138.525 1058 137.014C1056.77 135.502 1056.15 133.281 1056.15 130.352V122.23C1056.15 120.027 1056.39 118.193 1056.86 116.729C1057.32 115.264 1058.14 114.168 1059.32 113.441C1060.49 112.715 1062.12 112.352 1064.2 112.352C1065.66 112.352 1066.96 112.609 1068.11 113.125C1069.27 113.641 1070.18 114.396 1070.85 115.393C1071.52 116.389 1071.85 117.607 1071.85 119.049V123.074H1065.43V119.383C1065.43 118.773 1065.35 118.264 1065.17 117.854C1064.99 117.432 1064.61 117.221 1064.03 117.221C1063 117.221 1062.48 117.953 1062.48 119.418V132.197C1062.48 132.736 1062.6 133.234 1062.83 133.691C1063.07 134.137 1063.45 134.359 1063.99 134.359C1064.54 134.359 1064.92 134.143 1065.13 133.709C1065.36 133.264 1065.47 132.748 1065.47 132.162V127.732H1071.85V132.338C1071.85 133.791 1071.52 135.039 1070.87 136.082C1070.22 137.113 1069.33 137.904 1068.19 138.455C1067.06 139.006 1065.76 139.281 1064.29 139.281ZM1079.13 139.281C1077.72 139.281 1076.64 138.988 1075.89 138.402C1075.15 137.816 1074.65 137.002 1074.38 135.959C1074.11 134.904 1073.98 133.674 1073.98 132.268V112.633H1080.3V131.529C1080.3 132.584 1080.39 133.322 1080.55 133.744C1080.71 134.154 1081.1 134.359 1081.71 134.359C1082.37 134.359 1082.78 134.066 1082.94 133.48C1083.12 132.895 1083.21 132.139 1083.21 131.213V112.633H1089.48V139H1083.19V136.188C1082.79 137.195 1082.31 137.963 1081.75 138.49C1081.2 139.018 1080.32 139.281 1079.13 139.281ZM1099.24 139.281C1094.03 139.281 1091.43 136.645 1091.43 131.371V129.279H1097.76V132.373C1097.76 132.971 1097.88 133.439 1098.11 133.779C1098.35 134.119 1098.72 134.289 1099.24 134.289C1100.15 134.289 1100.61 133.604 1100.61 132.232C1100.61 131.084 1100.37 130.229 1099.89 129.666C1099.41 129.092 1098.82 128.541 1098.13 128.014L1094.77 125.43C1093.72 124.609 1092.91 123.742 1092.36 122.828C1091.81 121.914 1091.54 120.643 1091.54 119.014C1091.54 117.502 1091.89 116.254 1092.61 115.27C1093.34 114.285 1094.29 113.553 1095.47 113.072C1096.67 112.592 1097.96 112.352 1099.34 112.352C1104.45 112.352 1107.01 114.9 1107.01 119.998V120.49H1100.5V119.488C1100.5 118.961 1100.41 118.451 1100.22 117.959C1100.04 117.467 1099.69 117.221 1099.17 117.221C1098.28 117.221 1097.83 117.689 1097.83 118.627C1097.83 119.576 1098.21 120.32 1098.96 120.859L1102.86 123.707C1104.08 124.586 1105.1 125.629 1105.92 126.836C1106.75 128.043 1107.16 129.648 1107.16 131.652C1107.16 134.137 1106.46 136.029 1105.04 137.33C1103.63 138.631 1101.7 139.281 1099.24 139.281ZM1114.51 139.281C1112.81 139.281 1111.66 138.924 1111.07 138.209C1110.48 137.482 1110.19 136.375 1110.19 134.887V118.451H1108.41V113.652H1110.19V108.062H1116.3V113.652H1118.08V118.451H1116.3V133.41C1116.3 133.844 1116.38 134.148 1116.52 134.324C1116.66 134.5 1116.93 134.588 1117.32 134.588C1117.61 134.588 1117.86 134.564 1118.08 134.518V138.807C1117.94 138.854 1117.5 138.941 1116.76 139.07C1116.02 139.211 1115.27 139.281 1114.51 139.281ZM1127.77 139.281C1122.52 139.281 1119.89 136.557 1119.89 131.107V120.525C1119.89 118.041 1120.59 116.061 1121.98 114.584C1123.38 113.096 1125.3 112.352 1127.77 112.352C1130.24 112.352 1132.17 113.096 1133.57 114.584C1134.96 116.061 1135.66 118.041 1135.66 120.525V131.107C1135.66 136.557 1133.03 139.281 1127.77 139.281ZM1127.77 134.43C1128.29 134.43 1128.67 134.242 1128.89 133.867C1129.12 133.48 1129.24 132.994 1129.24 132.408V119.523C1129.24 117.988 1128.75 117.221 1127.77 117.221C1126.78 117.221 1126.29 117.988 1126.29 119.523V132.408C1126.29 132.994 1126.4 133.48 1126.62 133.867C1126.86 134.242 1127.24 134.43 1127.77 134.43ZM1138 139V112.633H1144.15V115.691C1144.43 114.613 1144.91 113.787 1145.59 113.213C1146.27 112.639 1147.27 112.352 1148.58 112.352C1149.63 112.352 1150.53 112.598 1151.27 113.09C1152.02 113.57 1152.54 114.209 1152.85 115.006C1153.33 114.139 1153.89 113.482 1154.54 113.037C1155.19 112.58 1156.12 112.352 1157.33 112.352C1158.8 112.352 1159.92 112.668 1160.71 113.301C1161.5 113.922 1162.05 114.789 1162.36 115.902C1162.68 117.004 1162.83 118.281 1162.83 119.734V139H1156.56V119.629C1156.56 117.93 1156.12 117.08 1155.26 117.08C1154.8 117.08 1154.45 117.238 1154.2 117.555C1153.96 117.859 1153.79 118.24 1153.69 118.697C1153.6 119.154 1153.55 119.611 1153.55 120.068V139H1147.28V119.629C1147.28 119.078 1147.21 118.527 1147.07 117.977C1146.94 117.426 1146.6 117.15 1146.05 117.15C1145.58 117.15 1145.21 117.32 1144.96 117.66C1144.7 118 1144.52 118.422 1144.43 118.926C1144.34 119.418 1144.29 119.904 1144.29 120.385V139H1138ZM1172.7 139.281C1170.82 139.281 1169.33 138.93 1168.21 138.227C1167.1 137.523 1166.3 136.51 1165.82 135.186C1165.34 133.861 1165.1 132.268 1165.1 130.404V119.805C1165.1 117.355 1165.8 115.504 1167.21 114.25C1168.62 112.984 1170.55 112.352 1173.01 112.352C1178.07 112.352 1180.61 114.836 1180.61 119.805V121.721C1180.61 124.041 1180.58 125.6 1180.54 126.396H1171.39V131.494C1171.39 131.963 1171.42 132.426 1171.48 132.883C1171.54 133.328 1171.67 133.697 1171.87 133.99C1172.08 134.283 1172.41 134.43 1172.87 134.43C1173.53 134.43 1173.94 134.148 1174.1 133.586C1174.27 133.012 1174.35 132.268 1174.35 131.354V128.822H1180.61V130.316C1180.61 132.285 1180.36 133.938 1179.87 135.273C1179.39 136.598 1178.57 137.6 1177.41 138.279C1176.26 138.947 1174.69 139.281 1172.7 139.281ZM1171.36 123.268H1174.35V119.717C1174.35 118.768 1174.23 118.088 1174 117.678C1173.76 117.256 1173.41 117.045 1172.94 117.045C1172.44 117.045 1172.04 117.244 1171.76 117.643C1171.49 118.041 1171.36 118.732 1171.36 119.717V123.268ZM1182.89 139V112.633H1189.29V115.568C1189.59 114.549 1190.13 113.752 1190.91 113.178C1191.68 112.604 1192.65 112.316 1193.82 112.316V117.572C1193.31 117.572 1192.69 117.631 1191.98 117.748C1191.26 117.854 1190.64 118.006 1190.1 118.205C1189.56 118.393 1189.29 118.604 1189.29 118.838V139H1182.89ZM1202.6 139.281C1197.39 139.281 1194.79 136.645 1194.79 131.371V129.279H1201.12V132.373C1201.12 132.971 1201.24 133.439 1201.47 133.779C1201.71 134.119 1202.08 134.289 1202.6 134.289C1203.51 134.289 1203.97 133.604 1203.97 132.232C1203.97 131.084 1203.73 130.229 1203.25 129.666C1202.77 129.092 1202.18 128.541 1201.49 128.014L1198.13 125.43C1197.08 124.609 1196.27 123.742 1195.72 122.828C1195.17 121.914 1194.9 120.643 1194.9 119.014C1194.9 117.502 1195.25 116.254 1195.97 115.27C1196.7 114.285 1197.65 113.553 1198.83 113.072C1200.03 112.592 1201.32 112.352 1202.7 112.352C1207.81 112.352 1210.37 114.9 1210.37 119.998V120.49H1203.86V119.488C1203.86 118.961 1203.77 118.451 1203.58 117.959C1203.4 117.467 1203.05 117.221 1202.53 117.221C1201.63 117.221 1201.19 117.689 1201.19 118.627C1201.19 119.576 1201.56 120.32 1202.31 120.859L1206.22 123.707C1207.44 124.586 1208.46 125.629 1209.28 126.836C1210.11 128.043 1210.52 129.648 1210.52 131.652C1210.52 134.137 1209.81 136.029 1208.4 137.33C1206.99 138.631 1205.06 139.281 1202.6 139.281ZM1212.16 138.982V133.744H1218.45V138.982H1212.16Z" fill="#EEA500"/>
<path d="M154.128 197.24C153.376 197.24 152.64 197.112 151.92 196.856C151.2 196.6 150.608 196.256 150.144 195.824L151.176 194C151.544 194.336 151.984 194.608 152.496 194.816C153.008 195.008 153.512 195.104 154.008 195.104C154.904 195.104 155.544 194.808 155.928 194.216C156.328 193.608 156.528 192.616 156.528 191.24V180.2H159.168V191.624C159.168 193.56 158.76 194.984 157.944 195.896C157.128 196.792 155.856 197.24 154.128 197.24ZM167.737 197.24C165.897 197.24 164.449 196.688 163.393 195.584C162.337 194.464 161.809 192.936 161.809 191C161.809 189.064 162.337 187.544 163.393 186.44C164.449 185.32 165.897 184.76 167.737 184.76C169.577 184.76 171.025 185.32 172.081 186.44C173.153 187.544 173.689 189.064 173.689 191C173.689 192.936 173.153 194.464 172.081 195.584C171.025 196.688 169.577 197.24 167.737 197.24ZM167.737 195.44C168.841 195.44 169.713 195.048 170.353 194.264C170.993 193.464 171.313 192.376 171.313 191C171.313 189.624 170.993 188.544 170.353 187.76C169.713 186.96 168.841 186.56 167.737 186.56C166.617 186.56 165.745 186.96 165.121 187.76C164.497 188.544 164.185 189.624 164.185 191C164.185 192.376 164.497 193.464 165.121 194.264C165.745 195.048 166.617 195.44 167.737 195.44ZM177.564 183.152C177.068 183.152 176.676 183.016 176.388 182.744C176.1 182.472 175.956 182.104 175.956 181.64C175.956 181.176 176.1 180.808 176.388 180.536C176.676 180.264 177.068 180.128 177.564 180.128C178.06 180.128 178.452 180.264 178.74 180.536C179.044 180.808 179.196 181.176 179.196 181.64C179.196 182.104 179.044 182.472 178.74 182.744C178.452 183.016 178.06 183.152 177.564 183.152ZM176.388 185H178.764V197H176.388V185ZM181.953 188.072C181.953 186.584 181.921 185.56 181.857 185H184.065C184.145 185.592 184.185 186.296 184.185 187.112H184.257C184.577 186.392 185.097 185.824 185.817 185.408C186.553 184.976 187.369 184.76 188.265 184.76C191.081 184.76 192.489 186.584 192.489 190.232V197H190.113V190.208C190.113 189.008 189.913 188.12 189.513 187.544C189.113 186.968 188.497 186.68 187.665 186.68C186.689 186.68 185.889 187.032 185.265 187.736C184.641 188.44 184.329 189.336 184.329 190.424V197H181.953V188.072ZM206.432 197.24C204.592 197.24 203.144 196.688 202.088 195.584C201.032 194.464 200.504 192.936 200.504 191C200.504 189.064 201.032 187.544 202.088 186.44C203.144 185.32 204.592 184.76 206.432 184.76C208.272 184.76 209.72 185.32 210.776 186.44C211.848 187.544 212.384 189.064 212.384 191C212.384 192.936 211.848 194.464 210.776 195.584C209.72 196.688 208.272 197.24 206.432 197.24ZM206.432 195.44C207.536 195.44 208.408 195.048 209.048 194.264C209.688 193.464 210.008 192.376 210.008 191C210.008 189.624 209.688 188.544 209.048 187.76C208.408 186.96 207.536 186.56 206.432 186.56C205.312 186.56 204.44 186.96 203.816 187.76C203.192 188.544 202.88 189.624 202.88 191C202.88 192.376 203.192 193.464 203.816 194.264C204.44 195.048 205.312 195.44 206.432 195.44ZM218.779 197.24C217.403 197.24 216.355 196.792 215.635 195.896C214.931 194.984 214.579 193.648 214.579 191.888V185H216.955V191.912C216.955 193.064 217.155 193.92 217.555 194.48C217.955 195.04 218.563 195.32 219.379 195.32C220.339 195.32 221.131 194.96 221.755 194.24C222.395 193.52 222.715 192.608 222.715 191.504V185H225.091V194.288C225.091 195.152 225.163 196.056 225.307 197H223.075C222.947 196.312 222.875 195.6 222.859 194.864H222.787C222.467 195.6 221.939 196.184 221.203 196.616C220.483 197.032 219.675 197.24 218.779 197.24ZM228.035 187.928C228.035 186.568 228.011 185.592 227.963 185H230.195C230.259 185.64 230.291 186.344 230.291 187.112V187.352H230.363C230.683 186.536 231.187 185.904 231.875 185.456C232.579 184.992 233.403 184.76 234.347 184.76C234.603 184.76 234.835 184.784 235.043 184.832V186.752C234.931 186.72 234.683 186.704 234.299 186.704C233.595 186.704 232.939 186.912 232.331 187.328C231.739 187.728 231.267 188.28 230.915 188.984C230.579 189.672 230.411 190.432 230.411 191.264V197H228.035V187.928ZM247.582 197.24C245.774 197.24 244.366 196.688 243.358 195.584C242.35 194.48 241.846 192.952 241.846 191C241.846 189.032 242.35 187.504 243.358 186.416C244.366 185.312 245.774 184.76 247.582 184.76C248.622 184.76 249.534 184.96 250.318 185.36C251.118 185.76 251.742 186.336 252.19 187.088L250.774 188.36C250.438 187.816 249.998 187.392 249.454 187.088C248.91 186.784 248.318 186.632 247.678 186.632C246.59 186.632 245.742 187.016 245.134 187.784C244.526 188.552 244.222 189.624 244.222 191C244.222 192.36 244.526 193.432 245.134 194.216C245.742 194.984 246.59 195.368 247.678 195.368C248.318 195.368 248.91 195.216 249.454 194.912C249.998 194.608 250.438 194.184 250.774 193.64L252.19 194.912C251.742 195.664 251.118 196.24 250.318 196.64C249.534 197.04 248.622 197.24 247.582 197.24ZM259.331 197.24C257.491 197.24 256.043 196.688 254.987 195.584C253.931 194.464 253.403 192.936 253.403 191C253.403 189.064 253.931 187.544 254.987 186.44C256.043 185.32 257.491 184.76 259.331 184.76C261.171 184.76 262.619 185.32 263.675 186.44C264.747 187.544 265.283 189.064 265.283 191C265.283 192.936 264.747 194.464 263.675 195.584C262.619 196.688 261.171 197.24 259.331 197.24ZM259.331 195.44C260.435 195.44 261.307 195.048 261.947 194.264C262.587 193.464 262.907 192.376 262.907 191C262.907 189.624 262.587 188.544 261.947 187.76C261.307 186.96 260.435 186.56 259.331 186.56C258.211 186.56 257.339 186.96 256.715 187.76C256.091 188.544 255.779 189.624 255.779 191C255.779 192.376 256.091 193.464 256.715 194.264C257.339 195.048 258.211 195.44 259.331 195.44ZM267.477 188.072C267.477 186.856 267.437 185.832 267.357 185H269.469C269.533 185.592 269.565 186.296 269.565 187.112H269.637C269.941 186.392 270.429 185.824 271.101 185.408C271.789 184.976 272.565 184.76 273.429 184.76C274.277 184.76 275.005 184.968 275.613 185.384C276.221 185.784 276.629 186.352 276.837 187.088C277.173 186.368 277.677 185.8 278.349 185.384C279.037 184.968 279.805 184.76 280.653 184.76C281.981 184.76 283.013 185.192 283.749 186.056C284.501 186.904 284.877 188.08 284.877 189.584V197H282.501V189.8C282.501 188.808 282.285 188.04 281.853 187.496C281.437 186.952 280.837 186.68 280.053 186.68C279.253 186.68 278.597 186.976 278.085 187.568C277.589 188.144 277.341 188.896 277.341 189.824V197H274.989V189.896C274.989 187.752 274.205 186.68 272.637 186.68C272.125 186.68 271.653 186.824 271.221 187.112C270.805 187.4 270.469 187.792 270.213 188.288C269.957 188.784 269.829 189.32 269.829 189.896V197H267.477V188.072ZM287.657 188.072C287.657 186.856 287.617 185.832 287.537 185H289.649C289.713 185.592 289.745 186.296 289.745 187.112H289.817C290.121 186.392 290.609 185.824 291.281 185.408C291.969 184.976 292.745 184.76 293.609 184.76C294.457 184.76 295.185 184.968 295.793 185.384C296.401 185.784 296.809 186.352 297.017 187.088C297.353 186.368 297.857 185.8 298.529 185.384C299.217 184.968 299.985 184.76 300.833 184.76C302.161 184.76 303.193 185.192 303.929 186.056C304.681 186.904 305.057 188.08 305.057 189.584V197H302.681V189.8C302.681 188.808 302.465 188.04 302.033 187.496C301.617 186.952 301.017 186.68 300.233 186.68C299.433 186.68 298.777 186.976 298.265 187.568C297.769 188.144 297.521 188.896 297.521 189.824V197H295.169V189.896C295.169 187.752 294.385 186.68 292.817 186.68C292.305 186.68 291.833 186.824 291.401 187.112C290.985 187.4 290.649 187.792 290.393 188.288C290.137 188.784 290.009 189.32 290.009 189.896V197H287.657V188.072ZM312.037 197.24C310.661 197.24 309.613 196.792 308.893 195.896C308.189 194.984 307.837 193.648 307.837 191.888V185H310.213V191.912C310.213 193.064 310.413 193.92 310.813 194.48C311.213 195.04 311.821 195.32 312.637 195.32C313.597 195.32 314.389 194.96 315.013 194.24C315.653 193.52 315.973 192.608 315.973 191.504V185H318.349V194.288C318.349 195.152 318.421 196.056 318.565 197H316.333C316.205 196.312 316.133 195.6 316.117 194.864H316.045C315.725 195.6 315.197 196.184 314.461 196.616C313.741 197.032 312.933 197.24 312.037 197.24ZM321.125 188.072C321.125 186.584 321.093 185.56 321.029 185H323.237C323.317 185.592 323.357 186.296 323.357 187.112H323.429C323.749 186.392 324.269 185.824 324.989 185.408C325.725 184.976 326.541 184.76 327.437 184.76C330.253 184.76 331.661 186.584 331.661 190.232V197H329.285V190.208C329.285 189.008 329.085 188.12 328.685 187.544C328.285 186.968 327.669 186.68 326.837 186.68C325.861 186.68 325.061 187.032 324.437 187.736C323.813 188.44 323.501 189.336 323.501 190.424V197H321.125V188.072ZM336.118 183.152C335.622 183.152 335.23 183.016 334.942 182.744C334.654 182.472 334.51 182.104 334.51 181.64C334.51 181.176 334.654 180.808 334.942 180.536C335.23 180.264 335.622 180.128 336.118 180.128C336.614 180.128 337.006 180.264 337.294 180.536C337.598 180.808 337.75 181.176 337.75 181.64C337.75 182.104 337.598 182.472 337.294 182.744C337.006 183.016 336.614 183.152 336.118 183.152ZM334.942 185H337.318V197H334.942V185ZM345.164 197.24C344.044 197.24 343.164 196.904 342.524 196.232C341.9 195.544 341.588 194.6 341.588 193.4V186.824H339.428V185H341.588V181.832L343.868 181.16H343.964V185H347.396V186.824H343.964V193.112C343.964 193.896 344.116 194.472 344.42 194.84C344.74 195.208 345.22 195.392 345.86 195.392C346.5 195.392 347.068 195.296 347.564 195.104L347.708 196.808C347.116 197.096 346.268 197.24 345.164 197.24ZM359.699 185L355.259 197.336C354.187 200.296 352.475 201.776 350.123 201.776C349.675 201.776 349.163 201.704 348.587 201.56V199.712C348.923 199.84 349.323 199.904 349.787 199.904C350.571 199.904 351.235 199.624 351.779 199.064C352.323 198.504 352.843 197.576 353.339 196.28L348.875 185H351.419L354.443 193.712L357.131 185H359.699ZM372.487 197.24C370.647 197.24 369.199 196.688 368.143 195.584C367.087 194.464 366.559 192.936 366.559 191C366.559 189.064 367.087 187.544 368.143 186.44C369.199 185.32 370.647 184.76 372.487 184.76C374.327 184.76 375.775 185.32 376.831 186.44C377.903 187.544 378.439 189.064 378.439 191C378.439 192.936 377.903 194.464 376.831 195.584C375.775 196.688 374.327 197.24 372.487 197.24ZM372.487 195.44C373.591 195.44 374.463 195.048 375.103 194.264C375.743 193.464 376.063 192.376 376.063 191C376.063 189.624 375.743 188.544 375.103 187.76C374.463 186.96 373.591 186.56 372.487 186.56C371.367 186.56 370.495 186.96 369.871 187.76C369.247 188.544 368.935 189.624 368.935 191C368.935 192.376 369.247 193.464 369.871 194.264C370.495 195.048 371.367 195.44 372.487 195.44ZM381.474 186.68H379.482V185H381.474V183.512C381.474 182.36 381.818 181.456 382.506 180.8C383.194 180.128 384.146 179.792 385.362 179.792C385.874 179.792 386.354 179.872 386.802 180.032C387.266 180.192 387.642 180.416 387.93 180.704L387.066 182.144C386.666 181.792 386.17 181.616 385.578 181.616C385.05 181.616 384.626 181.8 384.306 182.168C384.002 182.52 383.85 183.008 383.85 183.632V185H387.258V186.68H383.85V197H381.474V186.68ZM394.768 188.072C394.768 186.952 394.736 185.928 394.672 185H396.88C396.928 185.544 396.952 186.144 396.952 186.8H397C397.352 186.176 397.864 185.68 398.536 185.312C399.224 184.944 399.976 184.76 400.792 184.76C402.328 184.76 403.536 185.32 404.416 186.44C405.296 187.544 405.736 189.064 405.736 191C405.736 192.92 405.28 194.44 404.368 195.56C403.472 196.68 402.248 197.24 400.696 197.24C399.896 197.24 399.184 197.096 398.56 196.808C397.952 196.504 397.504 196.08 397.216 195.536H397.144V202.808H394.768V188.072ZM400.264 195.44C401.224 195.44 401.976 195.04 402.52 194.24C403.08 193.44 403.36 192.336 403.36 190.928C403.36 189.536 403.096 188.472 402.568 187.736C402.04 187 401.288 186.632 400.312 186.632C399.384 186.632 398.624 186.928 398.032 187.52C397.44 188.096 397.144 188.856 397.144 189.8V192.08C397.144 193.056 397.432 193.864 398.008 194.504C398.6 195.128 399.352 195.44 400.264 195.44ZM408.082 187.928C408.082 186.568 408.058 185.592 408.01 185H410.242C410.306 185.64 410.338 186.344 410.338 187.112V187.352H410.41C410.73 186.536 411.234 185.904 411.922 185.456C412.626 184.992 413.45 184.76 414.394 184.76C414.65 184.76 414.882 184.784 415.09 184.832V186.752C414.978 186.72 414.73 186.704 414.346 186.704C413.642 186.704 412.986 186.912 412.378 187.328C411.786 187.728 411.314 188.28 410.962 188.984C410.626 189.672 410.458 190.432 410.458 191.264V197H408.082V187.928ZM421.893 197.24C420.053 197.24 418.605 196.688 417.549 195.584C416.493 194.464 415.965 192.936 415.965 191C415.965 189.064 416.493 187.544 417.549 186.44C418.605 185.32 420.053 184.76 421.893 184.76C423.733 184.76 425.181 185.32 426.237 186.44C427.309 187.544 427.845 189.064 427.845 191C427.845 192.936 427.309 194.464 426.237 195.584C425.181 196.688 423.733 197.24 421.893 197.24ZM421.893 195.44C422.997 195.44 423.869 195.048 424.509 194.264C425.149 193.464 425.469 192.376 425.469 191C425.469 189.624 425.149 188.544 424.509 187.76C423.869 186.96 422.997 186.56 421.893 186.56C420.773 186.56 419.901 186.96 419.277 187.76C418.653 188.544 418.341 189.624 418.341 191C418.341 192.376 418.653 193.464 419.277 194.264C419.901 195.048 420.773 195.44 421.893 195.44ZM430.88 186.68H428.888V185H430.88V183.512C430.88 182.36 431.224 181.456 431.912 180.8C432.6 180.128 433.552 179.792 434.768 179.792C435.28 179.792 435.76 179.872 436.208 180.032C436.672 180.192 437.048 180.416 437.336 180.704L436.472 182.144C436.072 181.792 435.576 181.616 434.984 181.616C434.456 181.616 434.032 181.8 433.712 182.168C433.408 182.52 433.256 183.008 433.256 183.632V185H436.664V186.68H433.256V197H430.88V186.68ZM448.05 191.912H439.506C439.634 193 439.978 193.824 440.538 194.384C441.114 194.944 441.898 195.224 442.89 195.224C444.298 195.224 445.434 194.672 446.298 193.568L447.618 194.84C447.154 195.592 446.49 196.184 445.626 196.616C444.762 197.032 443.81 197.24 442.77 197.24C440.978 197.24 439.578 196.696 438.57 195.608C437.578 194.504 437.082 192.976 437.082 191.024C437.082 189.072 437.586 187.544 438.594 186.44C439.602 185.32 440.986 184.76 442.746 184.76C444.41 184.76 445.706 185.312 446.634 186.416C447.578 187.504 448.05 189.032 448.05 191V191.912ZM445.794 190.04C445.794 189 445.514 188.184 444.954 187.592C444.394 187 443.626 186.704 442.65 186.704C441.738 186.704 441.01 187.008 440.466 187.616C439.922 188.224 439.594 189.088 439.482 190.208H445.794V190.04ZM454.24 197.24C453.296 197.24 452.448 197.048 451.696 196.664C450.944 196.28 450.416 195.768 450.112 195.128L451.624 194.096C451.896 194.512 452.264 194.84 452.728 195.08C453.192 195.32 453.696 195.44 454.24 195.44C454.864 195.44 455.376 195.264 455.776 194.912C456.192 194.56 456.4 194.112 456.4 193.568C456.4 193.136 456.24 192.784 455.92 192.512C455.6 192.224 455.008 191.92 454.144 191.6C452.752 191.072 451.768 190.536 451.192 189.992C450.632 189.432 450.352 188.744 450.352 187.928C450.352 186.968 450.728 186.2 451.48 185.624C452.248 185.048 453.264 184.76 454.528 184.76C455.344 184.76 456.088 184.928 456.76 185.264C457.432 185.6 457.96 186.072 458.344 186.68L456.928 187.736C456.656 187.352 456.312 187.064 455.896 186.872C455.496 186.664 455.048 186.56 454.552 186.56C454.008 186.56 453.56 186.68 453.208 186.92C452.872 187.16 452.704 187.472 452.704 187.856C452.704 188.256 452.88 188.592 453.232 188.864C453.584 189.12 454.272 189.448 455.296 189.848C456.576 190.344 457.472 190.864 457.984 191.408C458.512 191.936 458.776 192.624 458.776 193.472C458.776 194.608 458.36 195.52 457.528 196.208C456.696 196.896 455.6 197.24 454.24 197.24ZM464.412 197.24C463.468 197.24 462.62 197.048 461.868 196.664C461.116 196.28 460.588 195.768 460.284 195.128L461.796 194.096C462.068 194.512 462.436 194.84 462.9 195.08C463.364 195.32 463.868 195.44 464.412 195.44C465.036 195.44 465.548 195.264 465.948 194.912C466.364 194.56 466.572 194.112 466.572 193.568C466.572 193.136 466.412 192.784 466.092 192.512C465.772 192.224 465.18 191.92 464.316 191.6C462.924 191.072 461.94 190.536 461.364 189.992C460.804 189.432 460.524 188.744 460.524 187.928C460.524 186.968 460.9 186.2 461.652 185.624C462.42 185.048 463.436 184.76 464.7 184.76C465.516 184.76 466.26 184.928 466.932 185.264C467.604 185.6 468.132 186.072 468.516 186.68L467.1 187.736C466.828 187.352 466.484 187.064 466.068 186.872C465.668 186.664 465.22 186.56 464.724 186.56C464.18 186.56 463.732 186.68 463.38 186.92C463.044 187.16 462.876 187.472 462.876 187.856C462.876 188.256 463.052 188.592 463.404 188.864C463.756 189.12 464.444 189.448 465.468 189.848C466.748 190.344 467.644 190.864 468.156 191.408C468.684 191.936 468.948 192.624 468.948 193.472C468.948 194.608 468.532 195.52 467.7 196.208C466.868 196.896 465.772 197.24 464.412 197.24ZM472.736 183.152C472.24 183.152 471.848 183.016 471.56 182.744C471.272 182.472 471.128 182.104 471.128 181.64C471.128 181.176 471.272 180.808 471.56 180.536C471.848 180.264 472.24 180.128 472.736 180.128C473.232 180.128 473.624 180.264 473.912 180.536C474.216 180.808 474.368 181.176 474.368 181.64C474.368 182.104 474.216 182.472 473.912 182.744C473.624 183.016 473.232 183.152 472.736 183.152ZM471.56 185H473.936V197H471.56V185ZM482.549 197.24C480.709 197.24 479.261 196.688 478.205 195.584C477.149 194.464 476.621 192.936 476.621 191C476.621 189.064 477.149 187.544 478.205 186.44C479.261 185.32 480.709 184.76 482.549 184.76C484.389 184.76 485.837 185.32 486.893 186.44C487.965 187.544 488.501 189.064 488.501 191C488.501 192.936 487.965 194.464 486.893 195.584C485.837 196.688 484.389 197.24 482.549 197.24ZM482.549 195.44C483.653 195.44 484.525 195.048 485.165 194.264C485.805 193.464 486.125 192.376 486.125 191C486.125 189.624 485.805 188.544 485.165 187.76C484.525 186.96 483.653 186.56 482.549 186.56C481.429 186.56 480.557 186.96 479.933 187.76C479.309 188.544 478.997 189.624 478.997 191C478.997 192.376 479.309 193.464 479.933 194.264C480.557 195.048 481.429 195.44 482.549 195.44ZM490.672 188.072C490.672 186.584 490.64 185.56 490.576 185H492.784C492.864 185.592 492.904 186.296 492.904 187.112H492.976C493.296 186.392 493.816 185.824 494.536 185.408C495.272 184.976 496.088 184.76 496.984 184.76C499.8 184.76 501.208 186.584 501.208 190.232V197H498.832V190.208C498.832 189.008 498.632 188.12 498.232 187.544C497.832 186.968 497.216 186.68 496.384 186.68C495.408 186.68 494.608 187.032 493.984 187.736C493.36 188.44 493.048 189.336 493.048 190.424V197H490.672V188.072ZM507.561 197.24C506.777 197.24 506.073 197.08 505.449 196.76C504.841 196.44 504.361 196 504.009 195.44C503.673 194.864 503.505 194.216 503.505 193.496C503.505 192.28 503.969 191.352 504.897 190.712C505.825 190.056 507.145 189.728 508.857 189.728H511.113V189.128C511.113 188.328 510.897 187.712 510.465 187.28C510.033 186.848 509.401 186.632 508.569 186.632C507.849 186.632 507.177 186.776 506.553 187.064C505.929 187.336 505.417 187.736 505.017 188.264L503.889 186.848C504.465 186.176 505.161 185.664 505.977 185.312C506.809 184.944 507.705 184.76 508.665 184.76C510.201 184.76 511.393 185.136 512.241 185.888C513.089 186.624 513.513 187.672 513.513 189.032V194.6C513.513 195.32 513.609 196.12 513.801 197H511.713C511.553 196.616 511.441 196.08 511.377 195.392H511.329C510.417 196.624 509.161 197.24 507.561 197.24ZM508.017 195.392C508.881 195.392 509.609 195.16 510.201 194.696C510.809 194.216 511.113 193.64 511.113 192.968V191.384H508.761C507.817 191.384 507.089 191.568 506.577 191.936C506.081 192.288 505.833 192.808 505.833 193.496C505.833 194.088 506.025 194.552 506.409 194.888C506.809 195.224 507.345 195.392 508.017 195.392ZM519.407 197.24C518.495 197.24 517.807 196.984 517.343 196.472C516.879 195.944 516.646 195.168 516.646 194.144V179.192H519.023V194.144C519.023 194.64 519.111 194.992 519.287 195.2C519.479 195.408 519.783 195.512 520.199 195.512C520.535 195.512 520.951 195.408 521.447 195.2L521.807 196.568C521.183 197.016 520.383 197.24 519.407 197.24ZM532.779 197.24C531.835 197.24 530.987 197.048 530.235 196.664C529.483 196.28 528.955 195.768 528.651 195.128L530.163 194.096C530.435 194.512 530.803 194.84 531.267 195.08C531.731 195.32 532.235 195.44 532.779 195.44C533.403 195.44 533.915 195.264 534.315 194.912C534.731 194.56 534.939 194.112 534.939 193.568C534.939 193.136 534.779 192.784 534.459 192.512C534.139 192.224 533.547 191.92 532.683 191.6C531.291 191.072 530.307 190.536 529.731 189.992C529.171 189.432 528.891 188.744 528.891 187.928C528.891 186.968 529.267 186.2 530.019 185.624C530.787 185.048 531.803 184.76 533.067 184.76C533.883 184.76 534.627 184.928 535.299 185.264C535.971 185.6 536.499 186.072 536.883 186.68L535.467 187.736C535.195 187.352 534.851 187.064 534.435 186.872C534.035 186.664 533.587 186.56 533.091 186.56C532.547 186.56 532.099 186.68 531.747 186.92C531.411 187.16 531.243 187.472 531.243 187.856C531.243 188.256 531.419 188.592 531.771 188.864C532.123 189.12 532.811 189.448 533.835 189.848C535.115 190.344 536.011 190.864 536.523 191.408C537.051 191.936 537.315 192.624 537.315 193.472C537.315 194.608 536.899 195.52 536.067 196.208C535.235 196.896 534.139 197.24 532.779 197.24ZM550.331 191.912H541.787C541.915 193 542.259 193.824 542.819 194.384C543.395 194.944 544.179 195.224 545.171 195.224C546.579 195.224 547.715 194.672 548.579 193.568L549.899 194.84C549.435 195.592 548.771 196.184 547.907 196.616C547.043 197.032 546.091 197.24 545.051 197.24C543.259 197.24 541.859 196.696 540.851 195.608C539.859 194.504 539.363 192.976 539.363 191.024C539.363 189.072 539.867 187.544 540.875 186.44C541.883 185.32 543.267 184.76 545.027 184.76C546.691 184.76 547.987 185.312 548.915 186.416C549.859 187.504 550.331 189.032 550.331 191V191.912ZM548.075 190.04C548.075 189 547.795 188.184 547.235 187.592C546.675 187 545.907 186.704 544.931 186.704C544.019 186.704 543.291 187.008 542.747 187.616C542.203 188.224 541.875 189.088 541.763 190.208H548.075V190.04ZM555.5 197.24C554.588 197.24 553.9 196.984 553.436 196.472C552.972 195.944 552.74 195.168 552.74 194.144V179.192H555.116V194.144C555.116 194.64 555.204 194.992 555.38 195.2C555.572 195.408 555.876 195.512 556.292 195.512C556.628 195.512 557.044 195.408 557.54 195.2L557.9 196.568C557.276 197.016 556.476 197.24 555.5 197.24ZM562.555 197.24C561.643 197.24 560.955 196.984 560.491 196.472C560.027 195.944 559.795 195.168 559.795 194.144V179.192H562.171V194.144C562.171 194.64 562.259 194.992 562.435 195.2C562.627 195.408 562.931 195.512 563.347 195.512C563.683 195.512 564.099 195.408 564.595 195.2L564.955 196.568C564.331 197.016 563.531 197.24 562.555 197.24ZM576.347 191.912H567.803C567.931 193 568.275 193.824 568.835 194.384C569.411 194.944 570.195 195.224 571.187 195.224C572.595 195.224 573.731 194.672 574.595 193.568L575.915 194.84C575.451 195.592 574.787 196.184 573.923 196.616C573.059 197.032 572.107 197.24 571.067 197.24C569.275 197.24 567.875 196.696 566.867 195.608C565.875 194.504 565.379 192.976 565.379 191.024C565.379 189.072 565.883 187.544 566.891 186.44C567.899 185.32 569.283 184.76 571.043 184.76C572.707 184.76 574.003 185.312 574.931 186.416C575.875 187.504 576.347 189.032 576.347 191V191.912ZM574.091 190.04C574.091 189 573.811 188.184 573.251 187.592C572.691 187 571.923 186.704 570.947 186.704C570.035 186.704 569.307 187.008 568.763 187.616C568.219 188.224 567.891 189.088 567.779 190.208H574.091V190.04ZM578.684 187.928C578.684 186.568 578.66 185.592 578.612 185H580.844C580.908 185.64 580.94 186.344 580.94 187.112V187.352H581.012C581.332 186.536 581.836 185.904 582.524 185.456C583.228 184.992 584.052 184.76 584.996 184.76C585.252 184.76 585.484 184.784 585.692 184.832V186.752C585.58 186.72 585.332 186.704 584.948 186.704C584.244 186.704 583.588 186.912 582.98 187.328C582.388 187.728 581.916 188.28 581.564 188.984C581.228 189.672 581.06 190.432 581.06 191.264V197H578.684V187.928ZM590.857 197.24C589.913 197.24 589.065 197.048 588.313 196.664C587.561 196.28 587.033 195.768 586.729 195.128L588.241 194.096C588.513 194.512 588.881 194.84 589.345 195.08C589.809 195.32 590.313 195.44 590.857 195.44C591.481 195.44 591.993 195.264 592.393 194.912C592.809 194.56 593.017 194.112 593.017 193.568C593.017 193.136 592.857 192.784 592.537 192.512C592.217 192.224 591.625 191.92 590.761 191.6C589.369 191.072 588.385 190.536 587.809 189.992C587.249 189.432 586.969 188.744 586.969 187.928C586.969 186.968 587.345 186.2 588.097 185.624C588.865 185.048 589.881 184.76 591.145 184.76C591.961 184.76 592.705 184.928 593.377 185.264C594.049 185.6 594.577 186.072 594.961 186.68L593.545 187.736C593.273 187.352 592.929 187.064 592.513 186.872C592.113 186.664 591.665 186.56 591.169 186.56C590.625 186.56 590.177 186.68 589.825 186.92C589.489 187.16 589.321 187.472 589.321 187.856C589.321 188.256 589.497 188.592 589.849 188.864C590.201 189.12 590.889 189.448 591.913 189.848C593.193 190.344 594.089 190.864 594.601 191.408C595.129 191.936 595.393 192.624 595.393 193.472C595.393 194.608 594.977 195.52 594.145 196.208C593.313 196.896 592.217 197.24 590.857 197.24ZM607.898 197.24C606.778 197.24 605.898 196.904 605.258 196.232C604.634 195.544 604.322 194.6 604.322 193.4V186.824H602.162V185H604.322V181.832L606.602 181.16H606.698V185H610.13V186.824H606.698V193.112C606.698 193.896 606.85 194.472 607.154 194.84C607.474 195.208 607.954 195.392 608.594 195.392C609.234 195.392 609.802 195.296 610.298 195.104L610.442 196.808C609.85 197.096 609.002 197.24 607.898 197.24ZM617.315 197.24C615.475 197.24 614.027 196.688 612.971 195.584C611.915 194.464 611.387 192.936 611.387 191C611.387 189.064 611.915 187.544 612.971 186.44C614.027 185.32 615.475 184.76 617.315 184.76C619.155 184.76 620.603 185.32 621.659 186.44C622.731 187.544 623.267 189.064 623.267 191C623.267 192.936 622.731 194.464 621.659 195.584C620.603 196.688 619.155 197.24 617.315 197.24ZM617.315 195.44C618.419 195.44 619.291 195.048 619.931 194.264C620.571 193.464 620.891 192.376 620.891 191C620.891 189.624 620.571 188.544 619.931 187.76C619.291 186.96 618.419 186.56 617.315 186.56C616.195 186.56 615.323 186.96 614.699 187.76C614.075 188.544 613.763 189.624 613.763 191C613.763 192.376 614.075 193.464 614.699 194.264C615.323 195.048 616.195 195.44 617.315 195.44ZM629.902 197.24C628.334 197.24 627.102 196.664 626.206 195.512C625.31 194.36 624.862 192.784 624.862 190.784C624.862 189.568 625.07 188.512 625.486 187.616C625.902 186.704 626.494 186 627.262 185.504C628.03 185.008 628.926 184.76 629.95 184.76C631.39 184.76 632.542 185.336 633.406 186.488H633.454V179.192H635.83V193.928C635.83 195.464 635.854 196.488 635.902 197H633.694C633.662 196.648 633.646 196.048 633.646 195.2H633.598C633.23 195.808 632.71 196.304 632.038 196.688C631.366 197.056 630.654 197.24 629.902 197.24ZM630.286 195.368C631.246 195.368 632.014 195.088 632.59 194.528C633.166 193.952 633.454 193.176 633.454 192.2V189.92C633.454 188.928 633.158 188.12 632.566 187.496C631.99 186.872 631.23 186.56 630.286 186.56C629.326 186.56 628.574 186.936 628.03 187.688C627.502 188.424 627.238 189.472 627.238 190.832C627.238 192.256 627.502 193.368 628.03 194.168C628.574 194.968 629.326 195.368 630.286 195.368ZM642.163 197.24C641.379 197.24 640.675 197.08 640.051 196.76C639.443 196.44 638.963 196 638.611 195.44C638.275 194.864 638.107 194.216 638.107 193.496C638.107 192.28 638.571 191.352 639.499 190.712C640.427 190.056 641.747 189.728 643.459 189.728H645.715V189.128C645.715 188.328 645.499 187.712 645.067 187.28C644.635 186.848 644.003 186.632 643.171 186.632C642.451 186.632 641.779 186.776 641.155 187.064C640.531 187.336 640.019 187.736 639.619 188.264L638.491 186.848C639.067 186.176 639.763 185.664 640.579 185.312C641.411 184.944 642.307 184.76 643.267 184.76C644.803 184.76 645.995 185.136 646.843 185.888C647.691 186.624 648.115 187.672 648.115 189.032V194.6C648.115 195.32 648.211 196.12 648.403 197H646.315C646.155 196.616 646.043 196.08 645.979 195.392H645.931C645.019 196.624 643.763 197.24 642.163 197.24ZM642.619 195.392C643.483 195.392 644.211 195.16 644.803 194.696C645.411 194.216 645.715 193.64 645.715 192.968V191.384H643.363C642.419 191.384 641.691 191.568 641.179 191.936C640.683 192.288 640.435 192.808 640.435 193.496C640.435 194.088 640.627 194.552 641.011 194.888C641.411 195.224 641.947 195.392 642.619 195.392ZM660.824 185L656.384 197.336C655.312 200.296 653.6 201.776 651.248 201.776C650.8 201.776 650.288 201.704 649.712 201.56V199.712C650.048 199.84 650.448 199.904 650.912 199.904C651.696 199.904 652.36 199.624 652.904 199.064C653.448 198.504 653.968 197.576 654.464 196.28L650 185H652.544L655.568 193.712L658.256 185H660.824ZM662.566 180.2H665.422L665.11 192.152H662.878L662.566 180.2ZM663.982 197.24C663.438 197.24 662.998 197.08 662.662 196.76C662.326 196.424 662.158 196 662.158 195.488C662.158 194.976 662.326 194.56 662.662 194.24C662.998 193.904 663.438 193.736 663.982 193.736C664.526 193.736 664.966 193.904 665.302 194.24C665.654 194.56 665.83 194.976 665.83 195.488C665.83 196 665.654 196.424 665.302 196.76C664.966 197.08 664.526 197.24 663.982 197.24Z" fill="#FEF6E6"/>
<rect x="1300" y="116" width="224" height="68" rx="10" fill="#E6EAF3"/>
<path d="M1324.44 160.24C1323.61 160.24 1322.81 160.104 1322.04 159.832C1321.29 159.544 1320.66 159.16 1320.14 158.68L1321.34 156.592C1321.74 156.96 1322.2 157.256 1322.71 157.48C1323.24 157.688 1323.77 157.792 1324.3 157.792C1325.13 157.792 1325.73 157.512 1326.1 156.952C1326.46 156.392 1326.65 155.48 1326.65 154.216V143.2H1329.67V154.624C1329.67 156.528 1329.25 157.944 1328.4 158.872C1327.55 159.784 1326.23 160.24 1324.44 160.24ZM1338.25 160.24C1336.37 160.24 1334.88 159.688 1333.79 158.584C1332.72 157.464 1332.18 155.936 1332.18 154C1332.18 152.064 1332.72 150.544 1333.79 149.44C1334.88 148.32 1336.37 147.76 1338.25 147.76C1340.14 147.76 1341.62 148.32 1342.69 149.44C1343.78 150.544 1344.33 152.064 1344.33 154C1344.33 155.936 1343.78 157.464 1342.69 158.584C1341.62 159.688 1340.14 160.24 1338.25 160.24ZM1338.25 158.2C1339.29 158.2 1340.11 157.832 1340.7 157.096C1341.29 156.344 1341.59 155.312 1341.59 154C1341.59 152.688 1341.29 151.664 1340.7 150.928C1340.11 150.176 1339.29 149.8 1338.25 149.8C1337.21 149.8 1336.4 150.176 1335.81 150.928C1335.21 151.664 1334.92 152.688 1334.92 154C1334.92 155.312 1335.21 156.344 1335.81 157.096C1336.4 157.832 1337.21 158.2 1338.25 158.2ZM1348.29 146.368C1347.75 146.368 1347.31 146.224 1346.97 145.936C1346.65 145.632 1346.49 145.232 1346.49 144.736C1346.49 144.224 1346.65 143.824 1346.97 143.536C1347.31 143.232 1347.75 143.08 1348.29 143.08C1348.84 143.08 1349.27 143.232 1349.59 143.536C1349.93 143.824 1350.09 144.224 1350.09 144.736C1350.09 145.232 1349.93 145.632 1349.59 145.936C1349.27 146.224 1348.84 146.368 1348.29 146.368ZM1346.93 148H1349.66V160H1346.93V148ZM1352.7 151.12C1352.7 149.632 1352.67 148.592 1352.61 148H1355.15C1355.23 148.752 1355.27 149.456 1355.27 150.112H1355.32C1355.62 149.392 1356.14 148.824 1356.88 148.408C1357.61 147.976 1358.43 147.76 1359.33 147.76C1360.72 147.76 1361.77 148.224 1362.47 149.152C1363.17 150.064 1363.53 151.424 1363.53 153.232V160H1360.79V153.208C1360.79 152.088 1360.61 151.264 1360.24 150.736C1359.89 150.208 1359.32 149.944 1358.53 149.944C1357.61 149.944 1356.85 150.272 1356.28 150.928C1355.7 151.568 1355.41 152.4 1355.41 153.424V160H1352.7V151.12ZM1388.27 143.2V160H1385.27V149.2L1381.35 160H1379.22L1375.28 149.128V160H1372.31V143.2H1375.57L1380.27 156.52L1385 143.2H1388.27ZM1394.86 160.24C1394.07 160.24 1393.37 160.08 1392.74 159.76C1392.14 159.424 1391.66 158.968 1391.3 158.392C1390.97 157.816 1390.8 157.168 1390.8 156.448C1390.8 155.232 1391.27 154.296 1392.22 153.64C1393.18 152.984 1394.53 152.656 1396.27 152.656H1398.36V152.104C1398.36 151.384 1398.15 150.832 1397.74 150.448C1397.32 150.064 1396.74 149.872 1395.98 149.872C1395.26 149.872 1394.58 150.008 1393.94 150.28C1393.32 150.536 1392.8 150.912 1392.38 151.408L1391.14 149.8C1391.74 149.144 1392.48 148.64 1393.34 148.288C1394.21 147.936 1395.12 147.76 1396.08 147.76C1397.65 147.76 1398.87 148.136 1399.75 148.888C1400.63 149.624 1401.07 150.664 1401.07 152.008V157.528C1401.07 157.864 1401.1 158.272 1401.17 158.752C1401.23 159.216 1401.3 159.632 1401.38 160H1398.96C1398.82 159.664 1398.71 159.16 1398.65 158.488H1398.6C1397.67 159.656 1396.42 160.24 1394.86 160.24ZM1395.48 158.176C1396.3 158.176 1396.98 157.96 1397.52 157.528C1398.08 157.08 1398.36 156.536 1398.36 155.896V154.504H1396.2C1395.32 154.504 1394.64 154.672 1394.16 155.008C1393.7 155.344 1393.46 155.824 1393.46 156.448C1393.46 156.992 1393.64 157.416 1393.99 157.72C1394.34 158.024 1394.84 158.176 1395.48 158.176ZM1403.99 150.928C1403.99 149.568 1403.96 148.592 1403.91 148H1406.48C1406.55 148.624 1406.58 149.328 1406.58 150.112V150.352H1406.65C1406.95 149.552 1407.47 148.92 1408.21 148.456C1408.95 147.992 1409.79 147.76 1410.75 147.76C1411.04 147.76 1411.28 147.784 1411.47 147.832V149.992C1411.31 149.96 1411.1 149.944 1410.83 149.944C1410.07 149.944 1409.38 150.152 1408.74 150.568C1408.11 150.968 1407.62 151.52 1407.25 152.224C1406.88 152.928 1406.7 153.688 1406.7 154.504V160H1403.99V150.928ZM1420.97 160L1417.3 154.264L1415.74 155.776V160H1413.03V142.192H1415.74V152.512L1420.33 148H1423.66L1419.15 152.416L1424.07 160H1420.97ZM1435.71 155.008H1427.26C1427.54 156.96 1428.6 157.936 1430.46 157.936C1431.16 157.936 1431.78 157.808 1432.33 157.552C1432.87 157.296 1433.38 156.896 1433.84 156.352L1435.33 157.768C1434.86 158.52 1434.18 159.12 1433.26 159.568C1432.37 160.016 1431.38 160.24 1430.31 160.24C1428.47 160.24 1427.04 159.696 1426.02 158.608C1424.99 157.504 1424.48 155.976 1424.48 154.024C1424.48 152.072 1424.99 150.544 1426.02 149.44C1427.06 148.32 1428.47 147.76 1430.26 147.76C1431.98 147.76 1433.31 148.312 1434.27 149.416C1435.23 150.52 1435.71 152.048 1435.71 154V155.008ZM1433.1 152.968C1433.1 152.024 1432.84 151.288 1432.33 150.76C1431.82 150.232 1431.1 149.968 1430.19 149.968C1429.36 149.968 1428.69 150.248 1428.18 150.808C1427.68 151.352 1427.37 152.12 1427.24 153.112H1433.1V152.968ZM1442.7 160.24C1441.53 160.24 1440.61 159.904 1439.94 159.232C1439.28 158.544 1438.96 157.6 1438.96 156.4V150.04H1436.8V148H1438.96V144.88L1441.6 144.088H1441.69V148H1445.15V150.04H1441.69V156.04C1441.69 156.76 1441.84 157.296 1442.15 157.648C1442.47 157.984 1442.96 158.152 1443.61 158.152C1444.32 158.152 1444.89 158.056 1445.34 157.864L1445.48 159.784C1444.83 160.088 1443.9 160.24 1442.7 160.24ZM1447.63 151.12C1447.63 150.16 1447.59 149.12 1447.51 148H1450.07C1450.12 148.528 1450.15 149.088 1450.15 149.68H1450.19C1450.56 149.072 1451.07 148.6 1451.73 148.264C1452.4 147.928 1453.13 147.76 1453.91 147.76C1455.45 147.76 1456.66 148.32 1457.54 149.44C1458.42 150.544 1458.86 152.064 1458.86 154C1458.86 155.936 1458.41 157.464 1457.51 158.584C1456.62 159.688 1455.39 160.24 1453.84 160.24C1453.06 160.24 1452.36 160.104 1451.75 159.832C1451.15 159.544 1450.7 159.152 1450.41 158.656H1450.34V165.808H1447.63V151.12ZM1453.29 158.2C1454.19 158.2 1454.88 157.824 1455.38 157.072C1455.89 156.32 1456.15 155.272 1456.15 153.928C1456.15 152.6 1455.91 151.592 1455.43 150.904C1454.95 150.216 1454.24 149.872 1453.31 149.872C1452.43 149.872 1451.71 150.144 1451.15 150.688C1450.61 151.232 1450.34 151.928 1450.34 152.776V155.152C1450.34 156.032 1450.62 156.76 1451.18 157.336C1451.74 157.912 1452.44 158.2 1453.29 158.2ZM1464.08 160.24C1463.1 160.24 1462.36 159.976 1461.85 159.448C1461.35 158.904 1461.1 158.112 1461.1 157.072V142.192H1463.84V157.096C1463.84 157.528 1463.93 157.84 1464.1 158.032C1464.28 158.208 1464.57 158.296 1464.97 158.296C1465.37 158.296 1465.81 158.192 1466.29 157.984L1466.7 159.496C1466.01 159.992 1465.14 160.24 1464.08 160.24ZM1471.66 160.24C1470.88 160.24 1470.17 160.08 1469.55 159.76C1468.94 159.424 1468.46 158.968 1468.11 158.392C1467.77 157.816 1467.61 157.168 1467.61 156.448C1467.61 155.232 1468.08 154.296 1469.02 153.64C1469.98 152.984 1471.33 152.656 1473.08 152.656H1475.17V152.104C1475.17 151.384 1474.96 150.832 1474.54 150.448C1474.13 150.064 1473.54 149.872 1472.79 149.872C1472.07 149.872 1471.39 150.008 1470.75 150.28C1470.13 150.536 1469.61 150.912 1469.19 151.408L1467.94 149.8C1468.55 149.144 1469.29 148.64 1470.15 148.288C1471.01 147.936 1471.93 147.76 1472.89 147.76C1474.45 147.76 1475.68 148.136 1476.56 148.888C1477.44 149.624 1477.88 150.664 1477.88 152.008V157.528C1477.88 157.864 1477.91 158.272 1477.97 158.752C1478.04 159.216 1478.11 159.632 1478.19 160H1475.77C1475.62 159.664 1475.52 159.16 1475.45 158.488H1475.41C1474.48 159.656 1473.23 160.24 1471.66 160.24ZM1472.29 158.176C1473.1 158.176 1473.78 157.96 1474.33 157.528C1474.89 157.08 1475.17 156.536 1475.17 155.896V154.504H1473.01C1472.13 154.504 1471.45 154.672 1470.97 155.008C1470.5 155.344 1470.27 155.824 1470.27 156.448C1470.27 156.992 1470.45 157.416 1470.8 157.72C1471.15 158.024 1471.65 158.176 1472.29 158.176ZM1485.95 160.24C1484.11 160.24 1482.67 159.688 1481.63 158.584C1480.61 157.48 1480.1 155.952 1480.1 154C1480.1 152.048 1480.61 150.52 1481.63 149.416C1482.67 148.312 1484.11 147.76 1485.95 147.76C1487.02 147.76 1487.97 147.968 1488.78 148.384C1489.6 148.784 1490.23 149.36 1490.68 150.112L1489.05 151.552C1488.73 151.024 1488.3 150.616 1487.78 150.328C1487.25 150.024 1486.68 149.872 1486.07 149.872C1485.05 149.872 1484.25 150.24 1483.67 150.976C1483.1 151.696 1482.81 152.704 1482.81 154C1482.81 155.28 1483.1 156.288 1483.67 157.024C1484.25 157.76 1485.05 158.128 1486.07 158.128C1486.68 158.128 1487.25 157.976 1487.78 157.672C1488.3 157.368 1488.73 156.952 1489.05 156.424L1490.68 157.864C1490.23 158.632 1489.6 159.224 1488.78 159.64C1487.98 160.04 1487.04 160.24 1485.95 160.24ZM1503.07 155.008H1494.62C1494.89 156.96 1495.96 157.936 1497.81 157.936C1498.52 157.936 1499.14 157.808 1499.69 157.552C1500.23 157.296 1500.73 156.896 1501.2 156.352L1502.69 157.768C1502.22 158.52 1501.53 159.12 1500.62 159.568C1499.73 160.016 1498.74 160.24 1497.67 160.24C1495.83 160.24 1494.4 159.696 1493.37 158.608C1492.35 157.504 1491.84 155.976 1491.84 154.024C1491.84 152.072 1492.35 150.544 1493.37 149.44C1494.41 148.32 1495.83 147.76 1497.62 147.76C1499.33 147.76 1500.67 148.312 1501.63 149.416C1502.59 150.52 1503.07 152.048 1503.07 154V155.008ZM1500.45 152.968C1500.45 152.024 1500.2 151.288 1499.69 150.76C1499.17 150.232 1498.46 149.968 1497.55 149.968C1496.72 149.968 1496.05 150.248 1495.53 150.808C1495.04 151.352 1494.73 152.12 1494.6 153.112H1500.45V152.968Z" fill="#002882"/>
<path d="M1324.44 160.24C1323.61 160.24 1322.81 160.104 1322.04 159.832C1321.29 159.544 1320.66 159.16 1320.14 158.68L1321.34 156.592C1321.74 156.96 1322.2 157.256 1322.71 157.48C1323.24 157.688 1323.77 157.792 1324.3 157.792C1325.13 157.792 1325.73 157.512 1326.1 156.952C1326.46 156.392 1326.65 155.48 1326.65 154.216V143.2H1329.67V154.624C1329.67 156.528 1329.25 157.944 1328.4 158.872C1327.55 159.784 1326.23 160.24 1324.44 160.24ZM1338.25 160.24C1336.37 160.24 1334.88 159.688 1333.79 158.584C1332.72 157.464 1332.18 155.936 1332.18 154C1332.18 152.064 1332.72 150.544 1333.79 149.44C1334.88 148.32 1336.37 147.76 1338.25 147.76C1340.14 147.76 1341.62 148.32 1342.69 149.44C1343.78 150.544 1344.33 152.064 1344.33 154C1344.33 155.936 1343.78 157.464 1342.69 158.584C1341.62 159.688 1340.14 160.24 1338.25 160.24ZM1338.25 158.2C1339.29 158.2 1340.11 157.832 1340.7 157.096C1341.29 156.344 1341.59 155.312 1341.59 154C1341.59 152.688 1341.29 151.664 1340.7 150.928C1340.11 150.176 1339.29 149.8 1338.25 149.8C1337.21 149.8 1336.4 150.176 1335.81 150.928C1335.21 151.664 1334.92 152.688 1334.92 154C1334.92 155.312 1335.21 156.344 1335.81 157.096C1336.4 157.832 1337.21 158.2 1338.25 158.2ZM1348.29 146.368C1347.75 146.368 1347.31 146.224 1346.97 145.936C1346.65 145.632 1346.49 145.232 1346.49 144.736C1346.49 144.224 1346.65 143.824 1346.97 143.536C1347.31 143.232 1347.75 143.08 1348.29 143.08C1348.84 143.08 1349.27 143.232 1349.59 143.536C1349.93 143.824 1350.09 144.224 1350.09 144.736C1350.09 145.232 1349.93 145.632 1349.59 145.936C1349.27 146.224 1348.84 146.368 1348.29 146.368ZM1346.93 148H1349.66V160H1346.93V148ZM1352.7 151.12C1352.7 149.632 1352.67 148.592 1352.61 148H1355.15C1355.23 148.752 1355.27 149.456 1355.27 150.112H1355.32C1355.62 149.392 1356.14 148.824 1356.88 148.408C1357.61 147.976 1358.43 147.76 1359.33 147.76C1360.72 147.76 1361.77 148.224 1362.47 149.152C1363.17 150.064 1363.53 151.424 1363.53 153.232V160H1360.79V153.208C1360.79 152.088 1360.61 151.264 1360.24 150.736C1359.89 150.208 1359.32 149.944 1358.53 149.944C1357.61 149.944 1356.85 150.272 1356.28 150.928C1355.7 151.568 1355.41 152.4 1355.41 153.424V160H1352.7V151.12ZM1388.27 143.2V160H1385.27V149.2L1381.35 160H1379.22L1375.28 149.128V160H1372.31V143.2H1375.57L1380.27 156.52L1385 143.2H1388.27ZM1394.86 160.24C1394.07 160.24 1393.37 160.08 1392.74 159.76C1392.14 159.424 1391.66 158.968 1391.3 158.392C1390.97 157.816 1390.8 157.168 1390.8 156.448C1390.8 155.232 1391.27 154.296 1392.22 153.64C1393.18 152.984 1394.53 152.656 1396.27 152.656H1398.36V152.104C1398.36 151.384 1398.15 150.832 1397.74 150.448C1397.32 150.064 1396.74 149.872 1395.98 149.872C1395.26 149.872 1394.58 150.008 1393.94 150.28C1393.32 150.536 1392.8 150.912 1392.38 151.408L1391.14 149.8C1391.74 149.144 1392.48 148.64 1393.34 148.288C1394.21 147.936 1395.12 147.76 1396.08 147.76C1397.65 147.76 1398.87 148.136 1399.75 148.888C1400.63 149.624 1401.07 150.664 1401.07 152.008V157.528C1401.07 157.864 1401.1 158.272 1401.17 158.752C1401.23 159.216 1401.3 159.632 1401.38 160H1398.96C1398.82 159.664 1398.71 159.16 1398.65 158.488H1398.6C1397.67 159.656 1396.42 160.24 1394.86 160.24ZM1395.48 158.176C1396.3 158.176 1396.98 157.96 1397.52 157.528C1398.08 157.08 1398.36 156.536 1398.36 155.896V154.504H1396.2C1395.32 154.504 1394.64 154.672 1394.16 155.008C1393.7 155.344 1393.46 155.824 1393.46 156.448C1393.46 156.992 1393.64 157.416 1393.99 157.72C1394.34 158.024 1394.84 158.176 1395.48 158.176ZM1403.99 150.928C1403.99 149.568 1403.96 148.592 1403.91 148H1406.48C1406.55 148.624 1406.58 149.328 1406.58 150.112V150.352H1406.65C1406.95 149.552 1407.47 148.92 1408.21 148.456C1408.95 147.992 1409.79 147.76 1410.75 147.76C1411.04 147.76 1411.28 147.784 1411.47 147.832V149.992C1411.31 149.96 1411.1 149.944 1410.83 149.944C1410.07 149.944 1409.38 150.152 1408.74 150.568C1408.11 150.968 1407.62 151.52 1407.25 152.224C1406.88 152.928 1406.7 153.688 1406.7 154.504V160H1403.99V150.928ZM1420.97 160L1417.3 154.264L1415.74 155.776V160H1413.03V142.192H1415.74V152.512L1420.33 148H1423.66L1419.15 152.416L1424.07 160H1420.97ZM1435.71 155.008H1427.26C1427.54 156.96 1428.6 157.936 1430.46 157.936C1431.16 157.936 1431.78 157.808 1432.33 157.552C1432.87 157.296 1433.38 156.896 1433.84 156.352L1435.33 157.768C1434.86 158.52 1434.18 159.12 1433.26 159.568C1432.37 160.016 1431.38 160.24 1430.31 160.24C1428.47 160.24 1427.04 159.696 1426.02 158.608C1424.99 157.504 1424.48 155.976 1424.48 154.024C1424.48 152.072 1424.99 150.544 1426.02 149.44C1427.06 148.32 1428.47 147.76 1430.26 147.76C1431.98 147.76 1433.31 148.312 1434.27 149.416C1435.23 150.52 1435.71 152.048 1435.71 154V155.008ZM1433.1 152.968C1433.1 152.024 1432.84 151.288 1432.33 150.76C1431.82 150.232 1431.1 149.968 1430.19 149.968C1429.36 149.968 1428.69 150.248 1428.18 150.808C1427.68 151.352 1427.37 152.12 1427.24 153.112H1433.1V152.968ZM1442.7 160.24C1441.53 160.24 1440.61 159.904 1439.94 159.232C1439.28 158.544 1438.96 157.6 1438.96 156.4V150.04H1436.8V148H1438.96V144.88L1441.6 144.088H1441.69V148H1445.15V150.04H1441.69V156.04C1441.69 156.76 1441.84 157.296 1442.15 157.648C1442.47 157.984 1442.96 158.152 1443.61 158.152C1444.32 158.152 1444.89 158.056 1445.34 157.864L1445.48 159.784C1444.83 160.088 1443.9 160.24 1442.7 160.24ZM1447.63 151.12C1447.63 150.16 1447.59 149.12 1447.51 148H1450.07C1450.12 148.528 1450.15 149.088 1450.15 149.68H1450.19C1450.56 149.072 1451.07 148.6 1451.73 148.264C1452.4 147.928 1453.13 147.76 1453.91 147.76C1455.45 147.76 1456.66 148.32 1457.54 149.44C1458.42 150.544 1458.86 152.064 1458.86 154C1458.86 155.936 1458.41 157.464 1457.51 158.584C1456.62 159.688 1455.39 160.24 1453.84 160.24C1453.06 160.24 1452.36 160.104 1451.75 159.832C1451.15 159.544 1450.7 159.152 1450.41 158.656H1450.34V165.808H1447.63V151.12ZM1453.29 158.2C1454.19 158.2 1454.88 157.824 1455.38 157.072C1455.89 156.32 1456.15 155.272 1456.15 153.928C1456.15 152.6 1455.91 151.592 1455.43 150.904C1454.95 150.216 1454.24 149.872 1453.31 149.872C1452.43 149.872 1451.71 150.144 1451.15 150.688C1450.61 151.232 1450.34 151.928 1450.34 152.776V155.152C1450.34 156.032 1450.62 156.76 1451.18 157.336C1451.74 157.912 1452.44 158.2 1453.29 158.2ZM1464.08 160.24C1463.1 160.24 1462.36 159.976 1461.85 159.448C1461.35 158.904 1461.1 158.112 1461.1 157.072V142.192H1463.84V157.096C1463.84 157.528 1463.93 157.84 1464.1 158.032C1464.28 158.208 1464.57 158.296 1464.97 158.296C1465.37 158.296 1465.81 158.192 1466.29 157.984L1466.7 159.496C1466.01 159.992 1465.14 160.24 1464.08 160.24ZM1471.66 160.24C1470.88 160.24 1470.17 160.08 1469.55 159.76C1468.94 159.424 1468.46 158.968 1468.11 158.392C1467.77 157.816 1467.61 157.168 1467.61 156.448C1467.61 155.232 1468.08 154.296 1469.02 153.64C1469.98 152.984 1471.33 152.656 1473.08 152.656H1475.17V152.104C1475.17 151.384 1474.96 150.832 1474.54 150.448C1474.13 150.064 1473.54 149.872 1472.79 149.872C1472.07 149.872 1471.39 150.008 1470.75 150.28C1470.13 150.536 1469.61 150.912 1469.19 151.408L1467.94 149.8C1468.55 149.144 1469.29 148.64 1470.15 148.288C1471.01 147.936 1471.93 147.76 1472.89 147.76C1474.45 147.76 1475.68 148.136 1476.56 148.888C1477.44 149.624 1477.88 150.664 1477.88 152.008V157.528C1477.88 157.864 1477.91 158.272 1477.97 158.752C1478.04 159.216 1478.11 159.632 1478.19 160H1475.77C1475.62 159.664 1475.52 159.16 1475.45 158.488H1475.41C1474.48 159.656 1473.23 160.24 1471.66 160.24ZM1472.29 158.176C1473.1 158.176 1473.78 157.96 1474.33 157.528C1474.89 157.08 1475.17 156.536 1475.17 155.896V154.504H1473.01C1472.13 154.504 1471.45 154.672 1470.97 155.008C1470.5 155.344 1470.27 155.824 1470.27 156.448C1470.27 156.992 1470.45 157.416 1470.8 157.72C1471.15 158.024 1471.65 158.176 1472.29 158.176ZM1485.95 160.24C1484.11 160.24 1482.67 159.688 1481.63 158.584C1480.61 157.48 1480.1 155.952 1480.1 154C1480.1 152.048 1480.61 150.52 1481.63 149.416C1482.67 148.312 1484.11 147.76 1485.95 147.76C1487.02 147.76 1487.97 147.968 1488.78 148.384C1489.6 148.784 1490.23 149.36 1490.68 150.112L1489.05 151.552C1488.73 151.024 1488.3 150.616 1487.78 150.328C1487.25 150.024 1486.68 149.872 1486.07 149.872C1485.05 149.872 1484.25 150.24 1483.67 150.976C1483.1 151.696 1482.81 152.704 1482.81 154C1482.81 155.28 1483.1 156.288 1483.67 157.024C1484.25 157.76 1485.05 158.128 1486.07 158.128C1486.68 158.128 1487.25 157.976 1487.78 157.672C1488.3 157.368 1488.73 156.952 1489.05 156.424L1490.68 157.864C1490.23 158.632 1489.6 159.224 1488.78 159.64C1487.98 160.04 1487.04 160.24 1485.95 160.24ZM1503.07 155.008H1494.62C1494.89 156.96 1495.96 157.936 1497.81 157.936C1498.52 157.936 1499.14 157.808 1499.69 157.552C1500.23 157.296 1500.73 156.896 1501.2 156.352L1502.69 157.768C1502.22 158.52 1501.53 159.12 1500.62 159.568C1499.73 160.016 1498.74 160.24 1497.67 160.24C1495.83 160.24 1494.4 159.696 1493.37 158.608C1492.35 157.504 1491.84 155.976 1491.84 154.024C1491.84 152.072 1492.35 150.544 1493.37 149.44C1494.41 148.32 1495.83 147.76 1497.62 147.76C1499.33 147.76 1500.67 148.312 1501.63 149.416C1502.59 150.52 1503.07 152.048 1503.07 154V155.008ZM1500.45 152.968C1500.45 152.024 1500.2 151.288 1499.69 150.76C1499.17 150.232 1498.46 149.968 1497.55 149.968C1496.72 149.968 1496.05 150.248 1495.53 150.808C1495.04 151.352 1494.73 152.12 1494.6 153.112H1500.45V152.968Z" fill="black" fill-opacity="0.2"/>
</g>
<defs>
<linearGradient id="paint0_linear_5055_11912" x1="1578.61" y1="55.0588" x2="1869.21" y2="55.0588" gradientUnits="userSpaceOnUse">
<stop stop-color="#0032A3"/>
<stop offset="0.25" stop-color="#1A51CB"/>
<stop offset="0.5" stop-color="#3B66C8"/>
<stop offset="0.75" stop-color="#1A51CB"/>
<stop offset="1" stop-color="#0032A3"/>
</linearGradient>
<linearGradient id="paint1_linear_5055_11912" x1="1530" y1="14.314" x2="1787.93" y2="14.314" gradientUnits="userSpaceOnUse">
<stop stop-color="#FFC136"/>
<stop offset="0.197568" stop-color="#FAC142"/>
<stop offset="0.525" stop-color="#FFD168"/>
<stop offset="0.771328" stop-color="#F5BC3A"/>
<stop offset="1" stop-color="#E09B00"/>
</linearGradient>
<linearGradient id="paint2_linear_5055_11912" x1="1703.97" y1="172.784" x2="1726.4" y2="172.784" gradientUnits="userSpaceOnUse">
<stop stop-color="#FFC136"/>
<stop offset="0.197568" stop-color="#FAC142"/>
<stop offset="0.525" stop-color="#FFD168"/>
<stop offset="0.771328" stop-color="#F5BC3A"/>
<stop offset="1" stop-color="#E09B00"/>
</linearGradient>
<linearGradient id="paint3_linear_5055_11912" x1="1533.41" y1="106.919" x2="1555.85" y2="106.919" gradientUnits="userSpaceOnUse">
<stop stop-color="#FFC136"/>
<stop offset="0.197568" stop-color="#FAC142"/>
<stop offset="0.525" stop-color="#FFD168"/>
<stop offset="0.771328" stop-color="#F5BC3A"/>
<stop offset="1" stop-color="#E09B00"/>
</linearGradient>
<linearGradient id="paint4_linear_5055_11912" x1="-84.4609" y1="295.838" x2="181.847" y2="295.838" gradientUnits="userSpaceOnUse">
<stop stop-color="#0032A3"/>
<stop offset="0.25" stop-color="#1A51CB"/>
<stop offset="0.5" stop-color="#3B66C8"/>
<stop offset="0.75" stop-color="#1A51CB"/>
<stop offset="1" stop-color="#0032A3"/>
</linearGradient>
<linearGradient id="paint5_linear_5055_11912" x1="-129" y1="258.5" x2="107.369" y2="258.5" gradientUnits="userSpaceOnUse">
<stop stop-color="#FFC136"/>
<stop offset="0.197568" stop-color="#FAC142"/>
<stop offset="0.525" stop-color="#FFD168"/>
<stop offset="0.771328" stop-color="#F5BC3A"/>
<stop offset="1" stop-color="#E09B00"/>
</linearGradient>
<clipPath id="clip0_5055_11912">
<rect width="1728" height="300" fill="white"/>
</clipPath>
</defs>
</svg>
